<svg xmlns="http://www.w3.org/2000/svg" xmlns:v="https://svgstorm.com" viewBox="82.73 75.78 792.48 792.48" width="100%" height="100%">
<g fill="None" fill-opacity="0.0" stroke="#000000" stroke-opacity="0.00" stroke-width="0.3"><path d=" M 0.00 1024.00  L 1024.00 1024.00 L 1024.00 0.00 L 0.00 0.00 L 0.00 1024.00 M 475.00 208.00  C 497.09 174.91 531.65 148.32 563.75 135.41 C 595.86 122.50 636.77 117.48 673.25 125.20 C 709.73 132.91 738.82 148.64 768.08 173.92 C 797.34 199.19 817.99 237.02 828.59 269.75 C 839.19 302.48 839.09 346.61 831.24 380.25 C 823.40 413.89 812.61 442.70 795.08 473.08 C 777.54 503.45 754.08 535.95 728.00 567.00 C 713.69 556.88 701.41 549.97 689.00 545.00 C 729.44 499.30 767.28 447.72 784.77 393.77 C 802.26 339.82 799.66 279.09 764.68 230.32 C 729.70 181.55 669.40 152.45 608.77 164.21 C 548.14 175.98 501.35 230.09 476.00 283.00 C 451.26 236.31 413.12 188.18 363.75 170.24 C 314.38 152.30 251.36 165.80 212.75 204.75 C 174.13 243.70 153.40 297.15 161.20 351.25 C 169.00 405.35 194.76 452.58 227.32 496.68 C 259.88 540.78 299.21 580.64 341.92 622.08 C 384.62 663.52 432.78 699.44 475.00 737.00 C 479.13 736.72 490.59 723.82 493.75 729.25 C 496.91 734.68 497.57 742.80 501.92 749.08 C 506.28 755.35 507.21 762.00 512.00 767.00 C 501.37 773.76 493.49 783.13 482.75 789.75 C 472.01 796.37 460.97 781.13 451.32 774.68 C 441.67 768.23 431.75 757.98 421.97 751.03 C 412.19 744.09 402.70 734.42 392.90 727.10 C 383.10 719.78 373.89 710.43 364.70 702.30 C 355.51 694.17 344.61 686.85 335.92 678.08 C 327.22 669.31 318.19 662.04 309.25 653.75 C 300.31 645.46 291.73 635.66 282.77 627.23 C 273.81 618.80 265.74 608.62 256.92 600.08 C 248.10 591.54 240.56 581.10 232.10 571.90 C 223.64 562.71 216.06 552.28 208.30 542.70 C 200.53 533.13 193.51 522.37 186.30 512.70 C 179.08 503.04 172.84 490.05 166.81 480.75 C 160.79 471.44 155.67 461.91 150.23 450.77 C 144.78 439.63 142.01 433.69 138.20 423.75 C 134.39 413.81 131.47 406.48 128.69 396.30 C 125.91 386.13 123.66 377.30 121.69 366.30 C 119.72 355.31 119.25 343.26 119.00 330.00 C 118.75 316.74 120.23 302.08 121.40 291.25 C 122.56 280.41 127.68 270.34 129.92 260.92 C 132.16 251.50 136.13 244.06 140.71 234.70 C 145.30 225.34 150.16 215.88 157.11 206.11 C 164.05 196.33 171.77 186.71 181.25 178.25 C 190.72 169.79 198.86 159.96 208.30 154.30 C 217.74 148.65 227.08 142.75 235.92 138.87 C 244.76 134.99 253.09 131.27 262.75 128.74 C 272.42 126.20 284.02 123.39 295.22 122.22 C 306.43 121.06 323.65 122.04 335.03 122.98 C 346.40 123.91 355.53 126.37 366.75 129.59 C 377.98 132.81 382.52 134.30 392.75 139.26 C 402.98 144.23 414.26 150.34 423.03 155.97 C 431.79 161.60 442.25 171.81 451.25 180.75 C 460.25 189.69 468.95 198.82 475.00 208.00 M 623.00 540.00  C 654.53 536.00 682.44 547.90 705.30 558.71 C 728.17 569.53 760.18 601.73 770.77 628.23 C 781.36 654.73 785.62 688.12 778.65 715.70 C 771.68 743.28 757.08 768.92 732.25 790.25 C 707.41 811.57 683.08 819.39 650.97 822.98 C 618.86 826.56 589.27 818.46 563.93 805.07 C 538.58 791.68 513.79 759.41 503.07 734.92 C 492.35 710.43 489.34 674.48 496.92 646.92 C 504.50 619.36 519.10 592.36 545.03 572.03 C 570.97 551.71 590.20 544.16 623.00 540.00 Z"/>
</g>
<g fill="None" fill-opacity="0.0" stroke="#000000" stroke-opacity="0.99" stroke-width="0.3"><path d=" M 475.00 208.00  C 468.95 198.82 460.25 189.69 451.25 180.75 C 442.25 171.81 431.79 161.60 423.03 155.97 C 414.26 150.34 402.98 144.23 392.75 139.26 C 382.52 134.30 377.98 132.81 366.75 129.59 C 355.53 126.37 346.40 123.91 335.03 122.98 C 323.65 122.04 306.43 121.06 295.22 122.22 C 284.02 123.39 272.42 126.20 262.75 128.74 C 253.09 131.27 244.76 134.99 235.92 138.87 C 227.08 142.75 217.74 148.65 208.30 154.30 C 198.86 159.96 190.72 169.79 181.25 178.25 C 171.77 186.71 164.05 196.33 157.11 206.11 C 150.16 215.88 145.30 225.34 140.71 234.70 C 136.13 244.06 132.16 251.50 129.92 260.92 C 127.68 270.34 122.56 280.41 121.40 291.25 C 120.23 302.08 118.75 316.74 119.00 330.00 C 119.25 343.26 119.72 355.31 121.69 366.30 C 123.66 377.30 125.91 386.13 128.69 396.30 C 131.47 406.48 134.39 413.81 138.20 423.75 C 142.01 433.69 144.78 439.63 150.23 450.77 C 155.67 461.91 160.79 471.44 166.81 480.75 C 172.84 490.05 179.08 503.04 186.30 512.70 C 193.51 522.37 200.53 533.13 208.30 542.70 C 216.06 552.28 223.64 562.71 232.10 571.90 C 240.56 581.10 248.10 591.54 256.92 600.08 C 265.74 608.62 273.81 618.80 282.77 627.23 C 291.73 635.66 300.31 645.46 309.25 653.75 C 318.19 662.04 327.22 669.31 335.92 678.08 C 344.61 686.85 355.51 694.17 364.70 702.30 C 373.89 710.43 383.10 719.78 392.90 727.10 C 402.70 734.42 412.19 744.09 421.97 751.03 C 431.75 757.98 441.67 768.23 451.32 774.68 C 460.97 781.13 472.01 796.37 482.75 789.75 C 493.49 783.13 501.37 773.76 512.00 767.00 C 507.21 762.00 506.28 755.35 501.92 749.08 C 497.57 742.80 496.91 734.68 493.75 729.25 C 490.59 723.82 479.13 736.72 475.00 737.00 C 432.78 699.44 384.62 663.52 341.92 622.08 C 299.21 580.64 259.88 540.78 227.32 496.68 C 194.76 452.58 169.00 405.35 161.20 351.25 C 153.40 297.15 174.13 243.70 212.75 204.75 C 251.36 165.80 314.38 152.30 363.75 170.24 C 413.12 188.18 451.26 236.31 476.00 283.00 C 501.35 230.09 548.14 175.98 608.77 164.21 C 669.40 152.45 729.70 181.55 764.68 230.32 C 799.66 279.09 802.26 339.82 784.77 393.77 C 767.28 447.72 729.44 499.30 689.00 545.00 C 701.41 549.97 713.69 556.88 728.00 567.00 C 754.08 535.95 777.54 503.45 795.08 473.08 C 812.61 442.70 823.40 413.89 831.24 380.25 C 839.09 346.61 839.19 302.48 828.59 269.75 C 817.99 237.02 797.34 199.19 768.08 173.92 C 738.82 148.64 709.73 132.91 673.25 125.20 C 636.77 117.48 595.86 122.50 563.75 135.41 C 531.65 148.32 497.09 174.91 475.00 208.00 Z"/>
</g>
<g fill="None" fill-opacity="0.0" stroke="#000000" stroke-opacity="0.98" stroke-width="0.3"><path d=" M 623.00 540.00  C 590.20 544.16 570.97 551.71 545.03 572.03 C 519.10 592.36 504.50 619.36 496.92 646.92 C 489.34 674.48 492.35 710.43 503.07 734.92 C 513.79 759.41 538.58 791.68 563.93 805.07 C 589.27 818.46 618.86 826.56 650.97 822.98 C 683.08 819.39 707.41 811.57 732.25 790.25 C 757.08 768.92 771.68 743.28 778.65 715.70 C 785.62 688.12 781.36 654.73 770.77 628.23 C 760.18 601.73 728.17 569.53 705.30 558.71 C 682.44 547.90 654.53 536.00 623.00 540.00 M 622.00 564.00  C 660.59 558.98 693.44 575.05 720.77 599.23 C 748.10 623.41 758.63 659.77 756.20 696.25 C 753.77 732.72 729.82 761.46 700.23 781.57 C 670.65 801.69 629.99 802.33 598.25 793.61 C 566.51 784.88 535.46 755.63 523.29 722.70 C 511.11 689.76 513.71 655.36 532.71 622.71 C 551.70 590.05 587.21 568.53 622.00 564.00 Z"/>
</g>
<g fill="None" fill-opacity="0.0" stroke="#000000" stroke-opacity="0.00" stroke-width="0.3"><path d=" M 622.00 564.00  C 587.21 568.53 551.70 590.05 532.71 622.71 C 513.71 655.36 511.11 689.76 523.29 722.70 C 535.46 755.63 566.51 784.88 598.25 793.61 C 629.99 802.33 670.65 801.69 700.23 781.57 C 729.82 761.46 753.77 732.72 756.20 696.25 C 758.63 659.77 748.10 623.41 720.77 599.23 C 693.44 575.05 660.59 558.98 622.00 564.00 M 649.00 668.00  C 667.67 668.00 686.33 668.00 705.00 668.00 C 705.00 676.33 705.00 684.67 705.00 693.00 C 686.41 692.37 667.18 694.29 649.00 692.00 C 649.00 711.00 649.00 730.00 649.00 749.00 C 641.33 749.00 633.67 749.00 626.00 749.00 C 626.00 730.00 626.00 711.00 626.00 692.00 C 619.94 693.84 612.44 692.92 606.00 693.00 C 599.56 693.08 591.16 693.19 585.00 693.00 C 578.84 692.81 568.84 695.57 569.00 688.00 C 569.17 680.43 569.15 675.03 568.00 668.00 C 587.33 668.00 606.67 668.00 626.00 668.00 C 625.94 649.47 626.08 629.82 626.00 612.00 C 630.76 614.45 649.37 607.41 649.97 615.03 C 650.58 622.65 647.96 632.58 649.00 641.00 C 650.04 649.42 648.22 659.43 649.00 668.00 Z"/>
</g>
<g fill="None" fill-opacity="0.0" stroke="#000000" stroke-opacity="0.98" stroke-width="0.3"><path d=" M 649.00 668.00  C 648.22 659.43 650.04 649.42 649.00 641.00 C 647.96 632.58 650.58 622.65 649.97 615.03 C 649.37 607.41 630.76 614.45 626.00 612.00 C 626.08 629.82 625.94 649.47 626.00 668.00 C 606.67 668.00 587.33 668.00 568.00 668.00 C 569.15 675.03 569.17 680.43 569.00 688.00 C 568.84 695.57 578.84 692.81 585.00 693.00 C 591.16 693.19 599.56 693.08 606.00 693.00 C 612.44 692.92 619.94 693.84 626.00 692.00 C 626.00 711.00 626.00 730.00 626.00 749.00 C 633.67 749.00 641.33 749.00 649.00 749.00 C 649.00 730.00 649.00 711.00 649.00 692.00 C 667.18 694.29 686.41 692.37 705.00 693.00 C 705.00 684.67 705.00 676.33 705.00 668.00 C 686.33 668.00 667.67 668.00 649.00 668.00 Z"/>
</g>
<g fill="#000000" fill-opacity="0.00" stroke="None">
<path d=" M 0.00 1024.00  L 1024.00 1024.00 L 1024.00 0.00 L 0.00 0.00 L 0.00 1024.00 M 475.00 208.00  C 497.09 174.91 531.65 148.32 563.75 135.41 C 595.86 122.50 636.77 117.48 673.25 125.20 C 709.73 132.91 738.82 148.64 768.08 173.92 C 797.34 199.19 817.99 237.02 828.59 269.75 C 839.19 302.48 839.09 346.61 831.24 380.25 C 823.40 413.89 812.61 442.70 795.08 473.08 C 777.54 503.45 754.08 535.95 728.00 567.00 C 713.69 556.88 701.41 549.97 689.00 545.00 C 729.44 499.30 767.28 447.72 784.77 393.77 C 802.26 339.82 799.66 279.09 764.68 230.32 C 729.70 181.55 669.40 152.45 608.77 164.21 C 548.14 175.98 501.35 230.09 476.00 283.00 C 451.26 236.31 413.12 188.18 363.75 170.24 C 314.38 152.30 251.36 165.80 212.75 204.75 C 174.13 243.70 153.40 297.15 161.20 351.25 C 169.00 405.35 194.76 452.58 227.32 496.68 C 259.88 540.78 299.21 580.64 341.92 622.08 C 384.62 663.52 432.78 699.44 475.00 737.00 C 479.13 736.72 490.59 723.82 493.75 729.25 C 496.91 734.68 497.57 742.80 501.92 749.08 C 506.28 755.35 507.21 762.00 512.00 767.00 C 501.37 773.76 493.49 783.13 482.75 789.75 C 472.01 796.37 460.97 781.13 451.32 774.68 C 441.67 768.23 431.75 757.98 421.97 751.03 C 412.19 744.09 402.70 734.42 392.90 727.10 C 383.10 719.78 373.89 710.43 364.70 702.30 C 355.51 694.17 344.61 686.85 335.92 678.08 C 327.22 669.31 318.19 662.04 309.25 653.75 C 300.31 645.46 291.73 635.66 282.77 627.23 C 273.81 618.80 265.74 608.62 256.92 600.08 C 248.10 591.54 240.56 581.10 232.10 571.90 C 223.64 562.71 216.06 552.28 208.30 542.70 C 200.53 533.13 193.51 522.37 186.30 512.70 C 179.08 503.04 172.84 490.05 166.81 480.75 C 160.79 471.44 155.67 461.91 150.23 450.77 C 144.78 439.63 142.01 433.69 138.20 423.75 C 134.39 413.81 131.47 406.48 128.69 396.30 C 125.91 386.13 123.66 377.30 121.69 366.30 C 119.72 355.31 119.25 343.26 119.00 330.00 C 118.75 316.74 120.23 302.08 121.40 291.25 C 122.56 280.41 127.68 270.34 129.92 260.92 C 132.16 251.50 136.13 244.06 140.71 234.70 C 145.30 225.34 150.16 215.88 157.11 206.11 C 164.05 196.33 171.77 186.71 181.25 178.25 C 190.72 169.79 198.86 159.96 208.30 154.30 C 217.74 148.65 227.08 142.75 235.92 138.87 C 244.76 134.99 253.09 131.27 262.75 128.74 C 272.42 126.20 284.02 123.39 295.22 122.22 C 306.43 121.06 323.65 122.04 335.03 122.98 C 346.40 123.91 355.53 126.37 366.75 129.59 C 377.98 132.81 382.52 134.30 392.75 139.26 C 402.98 144.23 414.26 150.34 423.03 155.97 C 431.79 161.60 442.25 171.81 451.25 180.75 C 460.25 189.69 468.95 198.82 475.00 208.00 M 623.00 540.00  C 654.53 536.00 682.44 547.90 705.30 558.71 C 728.17 569.53 760.18 601.73 770.77 628.23 C 781.36 654.73 785.62 688.12 778.65 715.70 C 771.68 743.28 757.08 768.92 732.25 790.25 C 707.41 811.57 683.08 819.39 650.97 822.98 C 618.86 826.56 589.27 818.46 563.93 805.07 C 538.58 791.68 513.79 759.41 503.07 734.92 C 492.35 710.43 489.34 674.48 496.92 646.92 C 504.50 619.36 519.10 592.36 545.03 572.03 C 570.97 551.71 590.20 544.16 623.00 540.00 Z"/>
</g>
<g fill="#000000" fill-opacity="0.99" stroke="None">
<path d=" M 475.00 208.00  C 468.95 198.82 460.25 189.69 451.25 180.75 C 442.25 171.81 431.79 161.60 423.03 155.97 C 414.26 150.34 402.98 144.23 392.75 139.26 C 382.52 134.30 377.98 132.81 366.75 129.59 C 355.53 126.37 346.40 123.91 335.03 122.98 C 323.65 122.04 306.43 121.06 295.22 122.22 C 284.02 123.39 272.42 126.20 262.75 128.74 C 253.09 131.27 244.76 134.99 235.92 138.87 C 227.08 142.75 217.74 148.65 208.30 154.30 C 198.86 159.96 190.72 169.79 181.25 178.25 C 171.77 186.71 164.05 196.33 157.11 206.11 C 150.16 215.88 145.30 225.34 140.71 234.70 C 136.13 244.06 132.16 251.50 129.92 260.92 C 127.68 270.34 122.56 280.41 121.40 291.25 C 120.23 302.08 118.75 316.74 119.00 330.00 C 119.25 343.26 119.72 355.31 121.69 366.30 C 123.66 377.30 125.91 386.13 128.69 396.30 C 131.47 406.48 134.39 413.81 138.20 423.75 C 142.01 433.69 144.78 439.63 150.23 450.77 C 155.67 461.91 160.79 471.44 166.81 480.75 C 172.84 490.05 179.08 503.04 186.30 512.70 C 193.51 522.37 200.53 533.13 208.30 542.70 C 216.06 552.28 223.64 562.71 232.10 571.90 C 240.56 581.10 248.10 591.54 256.92 600.08 C 265.74 608.62 273.81 618.80 282.77 627.23 C 291.73 635.66 300.31 645.46 309.25 653.75 C 318.19 662.04 327.22 669.31 335.92 678.08 C 344.61 686.85 355.51 694.17 364.70 702.30 C 373.89 710.43 383.10 719.78 392.90 727.10 C 402.70 734.42 412.19 744.09 421.97 751.03 C 431.75 757.98 441.67 768.23 451.32 774.68 C 460.97 781.13 472.01 796.37 482.75 789.75 C 493.49 783.13 501.37 773.76 512.00 767.00 C 507.21 762.00 506.28 755.35 501.92 749.08 C 497.57 742.80 496.91 734.68 493.75 729.25 C 490.59 723.82 479.13 736.72 475.00 737.00 C 432.78 699.44 384.62 663.52 341.92 622.08 C 299.21 580.64 259.88 540.78 227.32 496.68 C 194.76 452.58 169.00 405.35 161.20 351.25 C 153.40 297.15 174.13 243.70 212.75 204.75 C 251.36 165.80 314.38 152.30 363.75 170.24 C 413.12 188.18 451.26 236.31 476.00 283.00 C 501.35 230.09 548.14 175.98 608.77 164.21 C 669.40 152.45 729.70 181.55 764.68 230.32 C 799.66 279.09 802.26 339.82 784.77 393.77 C 767.28 447.72 729.44 499.30 689.00 545.00 C 701.41 549.97 713.69 556.88 728.00 567.00 C 754.08 535.95 777.54 503.45 795.08 473.08 C 812.61 442.70 823.40 413.89 831.24 380.25 C 839.09 346.61 839.19 302.48 828.59 269.75 C 817.99 237.02 797.34 199.19 768.08 173.92 C 738.82 148.64 709.73 132.91 673.25 125.20 C 636.77 117.48 595.86 122.50 563.75 135.41 C 531.65 148.32 497.09 174.91 475.00 208.00 Z"/>
</g>
<g fill="#000000" fill-opacity="0.98" stroke="None">
<path d=" M 623.00 540.00  C 590.20 544.16 570.97 551.71 545.03 572.03 C 519.10 592.36 504.50 619.36 496.92 646.92 C 489.34 674.48 492.35 710.43 503.07 734.92 C 513.79 759.41 538.58 791.68 563.93 805.07 C 589.27 818.46 618.86 826.56 650.97 822.98 C 683.08 819.39 707.41 811.57 732.25 790.25 C 757.08 768.92 771.68 743.28 778.65 715.70 C 785.62 688.12 781.36 654.73 770.77 628.23 C 760.18 601.73 728.17 569.53 705.30 558.71 C 682.44 547.90 654.53 536.00 623.00 540.00 M 622.00 564.00  C 660.59 558.98 693.44 575.05 720.77 599.23 C 748.10 623.41 758.63 659.77 756.20 696.25 C 753.77 732.72 729.82 761.46 700.23 781.57 C 670.65 801.69 629.99 802.33 598.25 793.61 C 566.51 784.88 535.46 755.63 523.29 722.70 C 511.11 689.76 513.71 655.36 532.71 622.71 C 551.70 590.05 587.21 568.53 622.00 564.00 Z"/>
</g>
<g fill="#000000" fill-opacity="0.00" stroke="None">
<path d=" M 622.00 564.00  C 587.21 568.53 551.70 590.05 532.71 622.71 C 513.71 655.36 511.11 689.76 523.29 722.70 C 535.46 755.63 566.51 784.88 598.25 793.61 C 629.99 802.33 670.65 801.69 700.23 781.57 C 729.82 761.46 753.77 732.72 756.20 696.25 C 758.63 659.77 748.10 623.41 720.77 599.23 C 693.44 575.05 660.59 558.98 622.00 564.00 M 649.00 668.00  C 667.67 668.00 686.33 668.00 705.00 668.00 C 705.00 676.33 705.00 684.67 705.00 693.00 C 686.41 692.37 667.18 694.29 649.00 692.00 C 649.00 711.00 649.00 730.00 649.00 749.00 C 641.33 749.00 633.67 749.00 626.00 749.00 C 626.00 730.00 626.00 711.00 626.00 692.00 C 619.94 693.84 612.44 692.92 606.00 693.00 C 599.56 693.08 591.16 693.19 585.00 693.00 C 578.84 692.81 568.84 695.57 569.00 688.00 C 569.17 680.43 569.15 675.03 568.00 668.00 C 587.33 668.00 606.67 668.00 626.00 668.00 C 625.94 649.47 626.08 629.82 626.00 612.00 C 630.76 614.45 649.37 607.41 649.97 615.03 C 650.58 622.65 647.96 632.58 649.00 641.00 C 650.04 649.42 648.22 659.43 649.00 668.00 Z"/>
</g>
<g fill="#000000" fill-opacity="0.98" stroke="None">
<path d=" M 649.00 668.00  C 648.22 659.43 650.04 649.42 649.00 641.00 C 647.96 632.58 650.58 622.65 649.97 615.03 C 649.37 607.41 630.76 614.45 626.00 612.00 C 626.08 629.82 625.94 649.47 626.00 668.00 C 606.67 668.00 587.33 668.00 568.00 668.00 C 569.15 675.03 569.17 680.43 569.00 688.00 C 568.84 695.57 578.84 692.81 585.00 693.00 C 591.16 693.19 599.56 693.08 606.00 693.00 C 612.44 692.92 619.94 693.84 626.00 692.00 C 626.00 711.00 626.00 730.00 626.00 749.00 C 633.67 749.00 641.33 749.00 649.00 749.00 C 649.00 730.00 649.00 711.00 649.00 692.00 C 667.18 694.29 686.41 692.37 705.00 693.00 C 705.00 684.67 705.00 676.33 705.00 668.00 C 686.33 668.00 667.67 668.00 649.00 668.00 Z"/>
</g>
</svg>
