<svg xmlns="http://www.w3.org/2000/svg" xmlns:v="https://svgstorm.com"
viewBox = "0 0 1024 1024"
width="1024"
height="1024">
<g fill="None" fill-opacity="0.0" stroke="#000000" stroke-opacity="0.00" stroke-width="0.3"><path d="
M 0.00 1024.00 
L 1024.00 1024.00
L 1024.00 0.00
L 0.00 0.00
L 0.00 1024.00
M 809.00 609.00 
C 799.07 602.07 787.47 597.00 778.00 594.00
C 780.34 479.31 778.33 362.39 779.00 248.00
C 624.67 248.00 470.33 248.00 316.00 248.00
C 316.00 445.34 316.00 642.66 316.00 840.00
C 336.33 839.99 356.67 840.01 377.00 840.00 C 397.33 839.99 417.67 840.03 438.00 840.00 C 458.33 839.97 479.78 840.06 500.00 840.00 C 520.22 839.94 541.10 840.14 561.00 840.00 C 580.90 839.86 603.79 840.31 623.00 840.00 C 642.21 839.69 646.16 851.76 659.10 856.91 C 672.04 862.05 679.90 867.26 693.00 869.00
C 669.68 869.21 645.72 870.20 621.00 870.00 C 596.28 869.80 569.87 870.10 545.00 870.00 C 520.13 869.90 494.81 870.07 470.00 870.00 C 445.19 869.93 418.51 870.09 394.00 870.00 C 369.49 869.91 342.75 870.16 319.00 870.00 C 295.25 869.84 265.09 870.34 243.00 870.00 C 220.91 869.66 206.21 869.37 192.32 855.68 C 178.43 841.99 174.89 834.43 173.60 814.25 C 172.32 794.07 174.82 764.15 174.00 741.00 C 173.18 717.85 174.37 689.23 174.00 665.00 C 173.63 640.77 174.17 614.71 174.00 590.00 C 173.83 565.29 174.07 538.87 174.00 514.00 C 173.93 489.13 174.03 463.84 174.00 439.00 C 173.97 414.16 174.00 387.60 174.00 363.00 C 174.00 338.40 173.98 311.95 174.00 288.00 C 174.02 264.05 173.95 234.53 174.00 212.00 C 174.05 189.47 171.89 167.24 178.26 151.25 C 184.64 135.26 194.68 122.78 210.90 113.90 C 227.11 105.02 237.97 105.11 261.00 105.00 C 284.03 104.89 312.80 105.05 337.00 105.00 C 361.20 104.95 387.25 105.02 412.00 105.00 C 436.75 104.98 462.99 105.00 488.00 105.00 C 513.01 105.00 537.83 104.98 563.00 105.00 C 588.17 105.02 613.68 104.94 639.00 105.00 C 664.32 105.06 688.43 104.87 714.00 105.00 C 739.57 105.13 763.92 104.71 790.00 105.00 C 816.08 105.29 808.74 134.38 809.00 157.00 C 809.26 179.62 809.04 209.09 809.00 233.00 C 808.96 256.91 807.56 282.32 808.00 307.00 C 808.44 331.68 807.76 358.07 808.00 383.00 C 808.24 407.93 807.80 432.96 808.00 458.00 C 808.20 483.04 807.71 508.94 808.00 534.00 C 808.29 559.06 806.97 584.39 809.00 609.00
M 608.00 359.00 
C 645.38 339.46 687.84 365.02 698.93 402.08 C 710.03 439.14 680.41 475.66 644.00 479.00
C 646.10 492.22 646.17 506.54 647.40 519.75 C 648.62 532.96 649.20 546.44 650.20 559.25 C 651.20 572.06 657.12 593.20 637.78 593.78 C 618.43 594.35 597.48 594.02 578.00 594.00 C 558.52 593.98 537.28 594.29 518.00 594.00 C 498.72 593.71 476.00 595.10 457.78 593.22 C 439.56 591.34 446.65 572.97 446.60 560.25 C 446.56 547.53 448.13 533.18 448.98 519.98 C 449.83 506.77 450.64 491.29 452.00 478.00
C 415.87 477.40 388.44 437.71 398.76 400.75 C 409.07 363.79 454.92 339.96 488.00 359.00
C 511.47 311.09 585.70 312.07 608.00 359.00
M 718.00 593.00 
C 768.25 587.37 823.76 612.48 852.70 653.30 C 881.64 694.12 886.07 746.80 863.08 792.08 C 840.08 837.36 792.70 865.07 744.98 867.98 C 697.25 870.88 648.26 851.39 618.10 811.90 C 587.94 772.42 584.40 718.64 604.77 673.77 C 625.14 628.90 671.42 598.22 718.00 593.00
M 599.00 672.00 
C 592.32 682.72 590.81 693.93 587.00 706.00
C 565.37 704.13 538.64 705.06 517.00 705.00 C 495.36 704.94 466.04 704.73 446.00 705.00 C 425.96 705.27 399.69 708.78 403.33 686.33 C 406.97 663.88 435.80 673.37 456.00 672.00 C 476.20 670.64 505.02 672.70 527.00 672.00 C 548.98 671.30 576.51 672.53 599.00 672.00
M 843.00 832.00 
C 842.93 845.07 846.84 870.02 829.25 869.39 C 811.65 868.76 792.10 870.16 775.00 869.00
C 800.34 864.58 822.16 849.17 843.00 832.00 Z"/>
</g>
<g fill="None" fill-opacity="0.0" stroke="#000000" stroke-opacity="0.99" stroke-width="0.3"><path d="
M 809.00 609.00 
C 806.97 584.39 808.29 559.06 808.00 534.00 C 807.71 508.94 808.20 483.04 808.00 458.00 C 807.80 432.96 808.24 407.93 808.00 383.00 C 807.76 358.07 808.44 331.68 808.00 307.00 C 807.56 282.32 808.96 256.91 809.00 233.00 C 809.04 209.09 809.26 179.62 809.00 157.00 C 808.74 134.38 816.08 105.29 790.00 105.00 C 763.92 104.71 739.57 105.13 714.00 105.00 C 688.43 104.87 664.32 105.06 639.00 105.00 C 613.68 104.94 588.17 105.02 563.00 105.00 C 537.83 104.98 513.01 105.00 488.00 105.00 C 462.99 105.00 436.75 104.98 412.00 105.00 C 387.25 105.02 361.20 104.95 337.00 105.00 C 312.80 105.05 284.03 104.89 261.00 105.00 C 237.97 105.11 227.11 105.02 210.90 113.90 C 194.68 122.78 184.64 135.26 178.26 151.25 C 171.89 167.24 174.05 189.47 174.00 212.00 C 173.95 234.53 174.02 264.05 174.00 288.00 C 173.98 311.95 174.00 338.40 174.00 363.00 C 174.00 387.60 173.97 414.16 174.00 439.00 C 174.03 463.84 173.93 489.13 174.00 514.00 C 174.07 538.87 173.83 565.29 174.00 590.00 C 174.17 614.71 173.63 640.77 174.00 665.00 C 174.37 689.23 173.18 717.85 174.00 741.00 C 174.82 764.15 172.32 794.07 173.60 814.25 C 174.89 834.43 178.43 841.99 192.32 855.68 C 206.21 869.37 220.91 869.66 243.00 870.00 C 265.09 870.34 295.25 869.84 319.00 870.00 C 342.75 870.16 369.49 869.91 394.00 870.00 C 418.51 870.09 445.19 869.93 470.00 870.00 C 494.81 870.07 520.13 869.90 545.00 870.00 C 569.87 870.10 596.28 869.80 621.00 870.00 C 645.72 870.20 669.68 869.21 693.00 869.00
C 679.90 867.26 672.04 862.05 659.10 856.91 C 646.16 851.76 642.21 839.69 623.00 840.00 C 603.79 840.31 580.90 839.86 561.00 840.00 C 541.10 840.14 520.22 839.94 500.00 840.00 C 479.78 840.06 458.33 839.97 438.00 840.00 C 417.67 840.03 397.33 839.99 377.00 840.00 C 356.67 840.01 336.33 839.99 316.00 840.00
C 316.00 642.66 316.00 445.34 316.00 248.00
C 470.33 248.00 624.67 248.00 779.00 248.00
C 778.33 362.39 780.34 479.31 778.00 594.00
C 787.47 597.00 799.07 602.07 809.00 609.00
M 780.00 134.00 
C 777.67 161.83 779.66 190.75 779.00 219.00
C 741.27 216.86 702.11 218.41 664.00 218.00 C 625.89 217.59 585.85 218.41 548.00 218.00 C 510.15 217.59 469.04 218.67 432.00 218.00 C 394.96 217.33 351.14 219.39 316.00 218.00 C 280.86 216.61 245.37 224.77 221.32 208.68 C 197.27 192.60 198.62 158.18 223.03 143.03 C 247.45 127.88 281.70 133.63 317.00 133.00 C 352.30 132.37 395.89 133.24 433.00 133.00 C 470.11 132.76 511.12 133.02 549.00 133.00 C 586.88 132.98 626.87 132.81 665.00 133.00 C 703.13 133.19 742.29 132.02 780.00 134.00
M 286.00 248.00 
C 286.00 445.34 286.00 642.66 286.00 840.00
C 259.90 837.15 224.30 848.96 209.70 824.30 C 195.11 799.64 203.65 766.67 202.00 735.00 C 200.35 703.33 202.74 667.69 202.00 635.00 C 201.26 602.31 202.34 567.15 202.00 534.00 C 201.66 500.85 202.16 467.38 202.00 434.00 C 201.84 400.62 202.08 366.52 202.00 333.00 C 201.92 299.48 202.06 265.55 202.00 232.00
C 224.41 251.25 252.52 248.65 286.00 248.00 Z"/>
</g>
<g fill="None" fill-opacity="0.0" stroke="#000000" stroke-opacity="0.01" stroke-width="0.3"><path d="
M 780.00 134.00 
C 742.29 132.02 703.13 133.19 665.00 133.00 C 626.87 132.81 586.88 132.98 549.00 133.00 C 511.12 133.02 470.11 132.76 433.00 133.00 C 395.89 133.24 352.30 132.37 317.00 133.00 C 281.70 133.63 247.45 127.88 223.03 143.03 C 198.62 158.18 197.27 192.60 221.32 208.68 C 245.37 224.77 280.86 216.61 316.00 218.00 C 351.14 219.39 394.96 217.33 432.00 218.00 C 469.04 218.67 510.15 217.59 548.00 218.00 C 585.85 218.41 625.89 217.59 664.00 218.00 C 702.11 218.41 741.27 216.86 779.00 219.00
C 779.66 190.75 777.67 161.83 780.00 134.00 Z"/>
</g>
<g fill="None" fill-opacity="0.0" stroke="#000000" stroke-opacity="0.01" stroke-width="0.3"><path d="
M 286.00 248.00 
C 252.52 248.65 224.41 251.25 202.00 232.00
C 202.06 265.55 201.92 299.48 202.00 333.00 C 202.08 366.52 201.84 400.62 202.00 434.00 C 202.16 467.38 201.66 500.85 202.00 534.00 C 202.34 567.15 201.26 602.31 202.00 635.00 C 202.74 667.69 200.35 703.33 202.00 735.00 C 203.65 766.67 195.11 799.64 209.70 824.30 C 224.30 848.96 259.90 837.15 286.00 840.00
C 286.00 642.66 286.00 445.34 286.00 248.00 Z"/>
</g>
<g fill="None" fill-opacity="0.0" stroke="#000000" stroke-opacity="0.98" stroke-width="0.3"><path d="
M 608.00 359.00 
C 585.70 312.07 511.47 311.09 488.00 359.00
C 454.92 339.96 409.07 363.79 398.76 400.75 C 388.44 437.71 415.87 477.40 452.00 478.00
C 450.64 491.29 449.83 506.77 448.98 519.98 C 448.13 533.18 446.56 547.53 446.60 560.25 C 446.65 572.97 439.56 591.34 457.78 593.22 C 476.00 595.10 498.72 593.71 518.00 594.00 C 537.28 594.29 558.52 593.98 578.00 594.00 C 597.48 594.02 618.43 594.35 637.78 593.78 C 657.12 593.20 651.20 572.06 650.20 559.25 C 649.20 546.44 648.62 532.96 647.40 519.75 C 646.17 506.54 646.10 492.22 644.00 479.00
C 680.41 475.66 710.03 439.14 698.93 402.08 C 687.84 365.02 645.38 339.46 608.00 359.00
M 620.00 562.00 
C 572.74 560.30 522.48 560.38 476.00 562.00
C 479.09 550.13 477.64 535.39 479.40 523.25 C 481.15 511.11 480.12 495.15 482.00 483.00 C 483.88 470.85 483.94 452.03 468.75 450.80 C 453.57 449.58 443.90 447.71 435.25 437.75 C 426.59 427.79 425.74 419.01 428.80 406.75 C 431.86 394.49 443.43 385.44 455.25 383.81 C 467.07 382.17 478.33 384.23 487.25 395.75 C 496.16 407.28 513.63 397.17 513.07 384.92 C 512.50 372.67 522.58 361.24 533.10 356.09 C 543.62 350.95 557.94 352.19 567.30 358.71 C 576.67 365.23 584.68 376.76 584.39 388.75 C 584.11 400.75 605.68 405.60 611.30 395.30 C 616.92 385.00 634.98 380.27 646.25 384.20 C 657.51 388.12 666.04 396.95 669.39 409.75 C 672.75 422.56 666.57 435.98 655.90 443.90 C 645.24 451.83 633.17 446.50 621.08 452.13 C 608.99 457.76 612.28 473.20 613.20 485.25 C 614.12 497.30 616.01 512.36 616.80 524.25 C 617.59 536.13 617.76 550.27 620.00 562.00 Z"/>
</g>
<g fill="None" fill-opacity="0.0" stroke="#000000" stroke-opacity="0.00" stroke-width="0.3"><path d="
M 620.00 562.00 
C 617.76 550.27 617.59 536.13 616.80 524.25 C 616.01 512.36 614.12 497.30 613.20 485.25 C 612.28 473.20 608.99 457.76 621.08 452.13 C 633.17 446.50 645.24 451.83 655.90 443.90 C 666.57 435.98 672.75 422.56 669.39 409.75 C 666.04 396.95 657.51 388.12 646.25 384.20 C 634.98 380.27 616.92 385.00 611.30 395.30 C 605.68 405.60 584.11 400.75 584.39 388.75 C 584.68 376.76 576.67 365.23 567.30 358.71 C 557.94 352.19 543.62 350.95 533.10 356.09 C 522.58 361.24 512.50 372.67 513.07 384.92 C 513.63 397.17 496.16 407.28 487.25 395.75 C 478.33 384.23 467.07 382.17 455.25 383.81 C 443.43 385.44 431.86 394.49 428.80 406.75 C 425.74 419.01 426.59 427.79 435.25 437.75 C 443.90 447.71 453.57 449.58 468.75 450.80 C 483.94 452.03 483.88 470.85 482.00 483.00 C 480.12 495.15 481.15 511.11 479.40 523.25 C 477.64 535.39 479.09 550.13 476.00 562.00
C 522.48 560.38 572.74 560.30 620.00 562.00 Z"/>
</g>
<g fill="None" fill-opacity="0.0" stroke="#000000" stroke-opacity="0.98" stroke-width="0.3"><path d="
M 718.00 593.00 
C 671.42 598.22 625.14 628.90 604.77 673.77 C 584.40 718.64 587.94 772.42 618.10 811.90 C 648.26 851.39 697.25 870.88 744.98 867.98 C 792.70 865.07 840.08 837.36 863.08 792.08 C 886.07 746.80 881.64 694.12 852.70 653.30 C 823.76 612.48 768.25 587.37 718.00 593.00
M 720.00 613.00 
C 785.06 606.17 847.92 655.99 854.20 719.25 C 860.47 782.50 811.90 841.44 747.97 847.97 C 684.05 854.51 622.31 809.10 615.01 744.99 C 607.70 680.88 656.11 619.71 720.00 613.00 Z"/>
</g>
<g fill="None" fill-opacity="0.0" stroke="#000000" stroke-opacity="0.00" stroke-width="0.3"><path d="
M 720.00 613.00 
C 656.11 619.71 607.70 680.88 615.01 744.99 C 622.31 809.10 684.05 854.51 747.97 847.97 C 811.90 841.44 860.47 782.50 854.20 719.25 C 847.92 655.99 785.06 606.17 720.00 613.00
M 746.00 718.00 
C 765.34 718.00 784.67 718.00 804.00 718.00
C 804.00 726.33 804.00 734.67 804.00 743.00
C 784.74 742.37 764.84 744.29 746.00 742.00
C 748.29 761.17 746.36 781.41 747.00 801.00
C 739.00 801.00 731.00 801.00 723.00 801.00
C 723.00 781.33 723.00 761.67 723.00 742.00
C 703.50 744.32 682.92 742.34 663.00 743.00
C 663.00 734.67 663.00 726.33 663.00 718.00
C 683.00 718.00 703.00 718.00 723.00 718.00
C 720.71 699.16 722.63 679.25 722.00 660.00
C 727.73 662.83 745.19 654.89 746.97 663.03 C 748.76 671.16 746.24 682.41 747.00 691.00 C 747.76 699.59 747.18 709.72 746.00 718.00 Z"/>
</g>
<g fill="None" fill-opacity="0.0" stroke="#000000" stroke-opacity="0.96" stroke-width="0.3"><path d="
M 746.00 718.00 
C 747.18 709.72 747.76 699.59 747.00 691.00 C 746.24 682.41 748.76 671.16 746.97 663.03 C 745.19 654.89 727.73 662.83 722.00 660.00
C 722.63 679.25 720.71 699.16 723.00 718.00
C 703.00 718.00 683.00 718.00 663.00 718.00
C 663.00 726.33 663.00 734.67 663.00 743.00
C 682.92 742.34 703.50 744.32 723.00 742.00
C 723.00 761.67 723.00 781.33 723.00 801.00
C 731.00 801.00 739.00 801.00 747.00 801.00
C 746.36 781.41 748.29 761.17 746.00 742.00
C 764.84 744.29 784.74 742.37 804.00 743.00
C 804.00 734.67 804.00 726.33 804.00 718.00
C 784.67 718.00 765.34 718.00 746.00 718.00 Z"/>
</g>
<g fill="None" fill-opacity="0.0" stroke="#000000" stroke-opacity="0.99" stroke-width="0.3"><path d="
M 599.00 672.00 
C 576.51 672.53 548.98 671.30 527.00 672.00 C 505.02 672.70 476.20 670.64 456.00 672.00 C 435.80 673.37 406.97 663.88 403.33 686.33 C 399.69 708.78 425.96 705.27 446.00 705.00 C 466.04 704.73 495.36 704.94 517.00 705.00 C 538.64 705.06 565.37 704.13 587.00 706.00
C 590.81 693.93 592.32 682.72 599.00 672.00 Z"/>
</g>
<g fill="None" fill-opacity="0.0" stroke="#000000" stroke-opacity="0.97" stroke-width="0.3"><path d="
M 843.00 832.00 
C 822.16 849.17 800.34 864.58 775.00 869.00
C 792.10 870.16 811.65 868.76 829.25 869.39 C 846.84 870.02 842.93 845.07 843.00 832.00 Z"/>
</g>
<g fill="#000000" fill-opacity="0.00" stroke="None">
<path d="
M 0.00 1024.00 
L 1024.00 1024.00
L 1024.00 0.00
L 0.00 0.00
L 0.00 1024.00
M 809.00 609.00 
C 799.07 602.07 787.47 597.00 778.00 594.00
C 780.34 479.31 778.33 362.39 779.00 248.00
C 624.67 248.00 470.33 248.00 316.00 248.00
C 316.00 445.34 316.00 642.66 316.00 840.00
C 336.33 839.99 356.67 840.01 377.00 840.00 C 397.33 839.99 417.67 840.03 438.00 840.00 C 458.33 839.97 479.78 840.06 500.00 840.00 C 520.22 839.94 541.10 840.14 561.00 840.00 C 580.90 839.86 603.79 840.31 623.00 840.00 C 642.21 839.69 646.16 851.76 659.10 856.91 C 672.04 862.05 679.90 867.26 693.00 869.00
C 669.68 869.21 645.72 870.20 621.00 870.00 C 596.28 869.80 569.87 870.10 545.00 870.00 C 520.13 869.90 494.81 870.07 470.00 870.00 C 445.19 869.93 418.51 870.09 394.00 870.00 C 369.49 869.91 342.75 870.16 319.00 870.00 C 295.25 869.84 265.09 870.34 243.00 870.00 C 220.91 869.66 206.21 869.37 192.32 855.68 C 178.43 841.99 174.89 834.43 173.60 814.25 C 172.32 794.07 174.82 764.15 174.00 741.00 C 173.18 717.85 174.37 689.23 174.00 665.00 C 173.63 640.77 174.17 614.71 174.00 590.00 C 173.83 565.29 174.07 538.87 174.00 514.00 C 173.93 489.13 174.03 463.84 174.00 439.00 C 173.97 414.16 174.00 387.60 174.00 363.00 C 174.00 338.40 173.98 311.95 174.00 288.00 C 174.02 264.05 173.95 234.53 174.00 212.00 C 174.05 189.47 171.89 167.24 178.26 151.25 C 184.64 135.26 194.68 122.78 210.90 113.90 C 227.11 105.02 237.97 105.11 261.00 105.00 C 284.03 104.89 312.80 105.05 337.00 105.00 C 361.20 104.95 387.25 105.02 412.00 105.00 C 436.75 104.98 462.99 105.00 488.00 105.00 C 513.01 105.00 537.83 104.98 563.00 105.00 C 588.17 105.02 613.68 104.94 639.00 105.00 C 664.32 105.06 688.43 104.87 714.00 105.00 C 739.57 105.13 763.92 104.71 790.00 105.00 C 816.08 105.29 808.74 134.38 809.00 157.00 C 809.26 179.62 809.04 209.09 809.00 233.00 C 808.96 256.91 807.56 282.32 808.00 307.00 C 808.44 331.68 807.76 358.07 808.00 383.00 C 808.24 407.93 807.80 432.96 808.00 458.00 C 808.20 483.04 807.71 508.94 808.00 534.00 C 808.29 559.06 806.97 584.39 809.00 609.00
M 608.00 359.00 
C 645.38 339.46 687.84 365.02 698.93 402.08 C 710.03 439.14 680.41 475.66 644.00 479.00
C 646.10 492.22 646.17 506.54 647.40 519.75 C 648.62 532.96 649.20 546.44 650.20 559.25 C 651.20 572.06 657.12 593.20 637.78 593.78 C 618.43 594.35 597.48 594.02 578.00 594.00 C 558.52 593.98 537.28 594.29 518.00 594.00 C 498.72 593.71 476.00 595.10 457.78 593.22 C 439.56 591.34 446.65 572.97 446.60 560.25 C 446.56 547.53 448.13 533.18 448.98 519.98 C 449.83 506.77 450.64 491.29 452.00 478.00
C 415.87 477.40 388.44 437.71 398.76 400.75 C 409.07 363.79 454.92 339.96 488.00 359.00
C 511.47 311.09 585.70 312.07 608.00 359.00
M 718.00 593.00 
C 768.25 587.37 823.76 612.48 852.70 653.30 C 881.64 694.12 886.07 746.80 863.08 792.08 C 840.08 837.36 792.70 865.07 744.98 867.98 C 697.25 870.88 648.26 851.39 618.10 811.90 C 587.94 772.42 584.40 718.64 604.77 673.77 C 625.14 628.90 671.42 598.22 718.00 593.00
M 599.00 672.00 
C 592.32 682.72 590.81 693.93 587.00 706.00
C 565.37 704.13 538.64 705.06 517.00 705.00 C 495.36 704.94 466.04 704.73 446.00 705.00 C 425.96 705.27 399.69 708.78 403.33 686.33 C 406.97 663.88 435.80 673.37 456.00 672.00 C 476.20 670.64 505.02 672.70 527.00 672.00 C 548.98 671.30 576.51 672.53 599.00 672.00
M 843.00 832.00 
C 842.93 845.07 846.84 870.02 829.25 869.39 C 811.65 868.76 792.10 870.16 775.00 869.00
C 800.34 864.58 822.16 849.17 843.00 832.00 Z"/>
</g>
<g fill="#000000" fill-opacity="0.99" stroke="None">
<path d="
M 809.00 609.00 
C 806.97 584.39 808.29 559.06 808.00 534.00 C 807.71 508.94 808.20 483.04 808.00 458.00 C 807.80 432.96 808.24 407.93 808.00 383.00 C 807.76 358.07 808.44 331.68 808.00 307.00 C 807.56 282.32 808.96 256.91 809.00 233.00 C 809.04 209.09 809.26 179.62 809.00 157.00 C 808.74 134.38 816.08 105.29 790.00 105.00 C 763.92 104.71 739.57 105.13 714.00 105.00 C 688.43 104.87 664.32 105.06 639.00 105.00 C 613.68 104.94 588.17 105.02 563.00 105.00 C 537.83 104.98 513.01 105.00 488.00 105.00 C 462.99 105.00 436.75 104.98 412.00 105.00 C 387.25 105.02 361.20 104.95 337.00 105.00 C 312.80 105.05 284.03 104.89 261.00 105.00 C 237.97 105.11 227.11 105.02 210.90 113.90 C 194.68 122.78 184.64 135.26 178.26 151.25 C 171.89 167.24 174.05 189.47 174.00 212.00 C 173.95 234.53 174.02 264.05 174.00 288.00 C 173.98 311.95 174.00 338.40 174.00 363.00 C 174.00 387.60 173.97 414.16 174.00 439.00 C 174.03 463.84 173.93 489.13 174.00 514.00 C 174.07 538.87 173.83 565.29 174.00 590.00 C 174.17 614.71 173.63 640.77 174.00 665.00 C 174.37 689.23 173.18 717.85 174.00 741.00 C 174.82 764.15 172.32 794.07 173.60 814.25 C 174.89 834.43 178.43 841.99 192.32 855.68 C 206.21 869.37 220.91 869.66 243.00 870.00 C 265.09 870.34 295.25 869.84 319.00 870.00 C 342.75 870.16 369.49 869.91 394.00 870.00 C 418.51 870.09 445.19 869.93 470.00 870.00 C 494.81 870.07 520.13 869.90 545.00 870.00 C 569.87 870.10 596.28 869.80 621.00 870.00 C 645.72 870.20 669.68 869.21 693.00 869.00
C 679.90 867.26 672.04 862.05 659.10 856.91 C 646.16 851.76 642.21 839.69 623.00 840.00 C 603.79 840.31 580.90 839.86 561.00 840.00 C 541.10 840.14 520.22 839.94 500.00 840.00 C 479.78 840.06 458.33 839.97 438.00 840.00 C 417.67 840.03 397.33 839.99 377.00 840.00 C 356.67 840.01 336.33 839.99 316.00 840.00
C 316.00 642.66 316.00 445.34 316.00 248.00
C 470.33 248.00 624.67 248.00 779.00 248.00
C 778.33 362.39 780.34 479.31 778.00 594.00
C 787.47 597.00 799.07 602.07 809.00 609.00
M 780.00 134.00 
C 777.67 161.83 779.66 190.75 779.00 219.00
C 741.27 216.86 702.11 218.41 664.00 218.00 C 625.89 217.59 585.85 218.41 548.00 218.00 C 510.15 217.59 469.04 218.67 432.00 218.00 C 394.96 217.33 351.14 219.39 316.00 218.00 C 280.86 216.61 245.37 224.77 221.32 208.68 C 197.27 192.60 198.62 158.18 223.03 143.03 C 247.45 127.88 281.70 133.63 317.00 133.00 C 352.30 132.37 395.89 133.24 433.00 133.00 C 470.11 132.76 511.12 133.02 549.00 133.00 C 586.88 132.98 626.87 132.81 665.00 133.00 C 703.13 133.19 742.29 132.02 780.00 134.00
M 286.00 248.00 
C 286.00 445.34 286.00 642.66 286.00 840.00
C 259.90 837.15 224.30 848.96 209.70 824.30 C 195.11 799.64 203.65 766.67 202.00 735.00 C 200.35 703.33 202.74 667.69 202.00 635.00 C 201.26 602.31 202.34 567.15 202.00 534.00 C 201.66 500.85 202.16 467.38 202.00 434.00 C 201.84 400.62 202.08 366.52 202.00 333.00 C 201.92 299.48 202.06 265.55 202.00 232.00
C 224.41 251.25 252.52 248.65 286.00 248.00 Z"/>
</g>
<g fill="#000000" fill-opacity="0.01" stroke="None">
<path d="
M 780.00 134.00 
C 742.29 132.02 703.13 133.19 665.00 133.00 C 626.87 132.81 586.88 132.98 549.00 133.00 C 511.12 133.02 470.11 132.76 433.00 133.00 C 395.89 133.24 352.30 132.37 317.00 133.00 C 281.70 133.63 247.45 127.88 223.03 143.03 C 198.62 158.18 197.27 192.60 221.32 208.68 C 245.37 224.77 280.86 216.61 316.00 218.00 C 351.14 219.39 394.96 217.33 432.00 218.00 C 469.04 218.67 510.15 217.59 548.00 218.00 C 585.85 218.41 625.89 217.59 664.00 218.00 C 702.11 218.41 741.27 216.86 779.00 219.00
C 779.66 190.75 777.67 161.83 780.00 134.00 Z"/>
</g>
<g fill="#000000" fill-opacity="0.01" stroke="None">
<path d="
M 286.00 248.00 
C 252.52 248.65 224.41 251.25 202.00 232.00
C 202.06 265.55 201.92 299.48 202.00 333.00 C 202.08 366.52 201.84 400.62 202.00 434.00 C 202.16 467.38 201.66 500.85 202.00 534.00 C 202.34 567.15 201.26 602.31 202.00 635.00 C 202.74 667.69 200.35 703.33 202.00 735.00 C 203.65 766.67 195.11 799.64 209.70 824.30 C 224.30 848.96 259.90 837.15 286.00 840.00
C 286.00 642.66 286.00 445.34 286.00 248.00 Z"/>
</g>
<g fill="#000000" fill-opacity="0.98" stroke="None">
<path d="
M 608.00 359.00 
C 585.70 312.07 511.47 311.09 488.00 359.00
C 454.92 339.96 409.07 363.79 398.76 400.75 C 388.44 437.71 415.87 477.40 452.00 478.00
C 450.64 491.29 449.83 506.77 448.98 519.98 C 448.13 533.18 446.56 547.53 446.60 560.25 C 446.65 572.97 439.56 591.34 457.78 593.22 C 476.00 595.10 498.72 593.71 518.00 594.00 C 537.28 594.29 558.52 593.98 578.00 594.00 C 597.48 594.02 618.43 594.35 637.78 593.78 C 657.12 593.20 651.20 572.06 650.20 559.25 C 649.20 546.44 648.62 532.96 647.40 519.75 C 646.17 506.54 646.10 492.22 644.00 479.00
C 680.41 475.66 710.03 439.14 698.93 402.08 C 687.84 365.02 645.38 339.46 608.00 359.00
M 620.00 562.00 
C 572.74 560.30 522.48 560.38 476.00 562.00
C 479.09 550.13 477.64 535.39 479.40 523.25 C 481.15 511.11 480.12 495.15 482.00 483.00 C 483.88 470.85 483.94 452.03 468.75 450.80 C 453.57 449.58 443.90 447.71 435.25 437.75 C 426.59 427.79 425.74 419.01 428.80 406.75 C 431.86 394.49 443.43 385.44 455.25 383.81 C 467.07 382.17 478.33 384.23 487.25 395.75 C 496.16 407.28 513.63 397.17 513.07 384.92 C 512.50 372.67 522.58 361.24 533.10 356.09 C 543.62 350.95 557.94 352.19 567.30 358.71 C 576.67 365.23 584.68 376.76 584.39 388.75 C 584.11 400.75 605.68 405.60 611.30 395.30 C 616.92 385.00 634.98 380.27 646.25 384.20 C 657.51 388.12 666.04 396.95 669.39 409.75 C 672.75 422.56 666.57 435.98 655.90 443.90 C 645.24 451.83 633.17 446.50 621.08 452.13 C 608.99 457.76 612.28 473.20 613.20 485.25 C 614.12 497.30 616.01 512.36 616.80 524.25 C 617.59 536.13 617.76 550.27 620.00 562.00 Z"/>
</g>
<g fill="#000000" fill-opacity="0.00" stroke="None">
<path d="
M 620.00 562.00 
C 617.76 550.27 617.59 536.13 616.80 524.25 C 616.01 512.36 614.12 497.30 613.20 485.25 C 612.28 473.20 608.99 457.76 621.08 452.13 C 633.17 446.50 645.24 451.83 655.90 443.90 C 666.57 435.98 672.75 422.56 669.39 409.75 C 666.04 396.95 657.51 388.12 646.25 384.20 C 634.98 380.27 616.92 385.00 611.30 395.30 C 605.68 405.60 584.11 400.75 584.39 388.75 C 584.68 376.76 576.67 365.23 567.30 358.71 C 557.94 352.19 543.62 350.95 533.10 356.09 C 522.58 361.24 512.50 372.67 513.07 384.92 C 513.63 397.17 496.16 407.28 487.25 395.75 C 478.33 384.23 467.07 382.17 455.25 383.81 C 443.43 385.44 431.86 394.49 428.80 406.75 C 425.74 419.01 426.59 427.79 435.25 437.75 C 443.90 447.71 453.57 449.58 468.75 450.80 C 483.94 452.03 483.88 470.85 482.00 483.00 C 480.12 495.15 481.15 511.11 479.40 523.25 C 477.64 535.39 479.09 550.13 476.00 562.00
C 522.48 560.38 572.74 560.30 620.00 562.00 Z"/>
</g>
<g fill="#000000" fill-opacity="0.98" stroke="None">
<path d="
M 718.00 593.00 
C 671.42 598.22 625.14 628.90 604.77 673.77 C 584.40 718.64 587.94 772.42 618.10 811.90 C 648.26 851.39 697.25 870.88 744.98 867.98 C 792.70 865.07 840.08 837.36 863.08 792.08 C 886.07 746.80 881.64 694.12 852.70 653.30 C 823.76 612.48 768.25 587.37 718.00 593.00
M 720.00 613.00 
C 785.06 606.17 847.92 655.99 854.20 719.25 C 860.47 782.50 811.90 841.44 747.97 847.97 C 684.05 854.51 622.31 809.10 615.01 744.99 C 607.70 680.88 656.11 619.71 720.00 613.00 Z"/>
</g>
<g fill="#000000" fill-opacity="0.00" stroke="None">
<path d="
M 720.00 613.00 
C 656.11 619.71 607.70 680.88 615.01 744.99 C 622.31 809.10 684.05 854.51 747.97 847.97 C 811.90 841.44 860.47 782.50 854.20 719.25 C 847.92 655.99 785.06 606.17 720.00 613.00
M 746.00 718.00 
C 765.34 718.00 784.67 718.00 804.00 718.00
C 804.00 726.33 804.00 734.67 804.00 743.00
C 784.74 742.37 764.84 744.29 746.00 742.00
C 748.29 761.17 746.36 781.41 747.00 801.00
C 739.00 801.00 731.00 801.00 723.00 801.00
C 723.00 781.33 723.00 761.67 723.00 742.00
C 703.50 744.32 682.92 742.34 663.00 743.00
C 663.00 734.67 663.00 726.33 663.00 718.00
C 683.00 718.00 703.00 718.00 723.00 718.00
C 720.71 699.16 722.63 679.25 722.00 660.00
C 727.73 662.83 745.19 654.89 746.97 663.03 C 748.76 671.16 746.24 682.41 747.00 691.00 C 747.76 699.59 747.18 709.72 746.00 718.00 Z"/>
</g>
<g fill="#000000" fill-opacity="0.96" stroke="None">
<path d="
M 746.00 718.00 
C 747.18 709.72 747.76 699.59 747.00 691.00 C 746.24 682.41 748.76 671.16 746.97 663.03 C 745.19 654.89 727.73 662.83 722.00 660.00
C 722.63 679.25 720.71 699.16 723.00 718.00
C 703.00 718.00 683.00 718.00 663.00 718.00
C 663.00 726.33 663.00 734.67 663.00 743.00
C 682.92 742.34 703.50 744.32 723.00 742.00
C 723.00 761.67 723.00 781.33 723.00 801.00
C 731.00 801.00 739.00 801.00 747.00 801.00
C 746.36 781.41 748.29 761.17 746.00 742.00
C 764.84 744.29 784.74 742.37 804.00 743.00
C 804.00 734.67 804.00 726.33 804.00 718.00
C 784.67 718.00 765.34 718.00 746.00 718.00 Z"/>
</g>
<g fill="#000000" fill-opacity="0.99" stroke="None">
<path d="
M 599.00 672.00 
C 576.51 672.53 548.98 671.30 527.00 672.00 C 505.02 672.70 476.20 670.64 456.00 672.00 C 435.80 673.37 406.97 663.88 403.33 686.33 C 399.69 708.78 425.96 705.27 446.00 705.00 C 466.04 704.73 495.36 704.94 517.00 705.00 C 538.64 705.06 565.37 704.13 587.00 706.00
C 590.81 693.93 592.32 682.72 599.00 672.00 Z"/>
</g>
<g fill="#000000" fill-opacity="0.97" stroke="None">
<path d="
M 843.00 832.00 
C 822.16 849.17 800.34 864.58 775.00 869.00
C 792.10 870.16 811.65 868.76 829.25 869.39 C 846.84 870.02 842.93 845.07 843.00 832.00 Z"/>
</g>
</svg>