<svg xmlns="http://www.w3.org/2000/svg" xmlns:v="https://svgstorm.com"
viewBox = "0 0 1024 1024"
width="1024"
height="1024">
<g fill="None" fill-opacity="0.0" stroke="#000000" stroke-opacity="0.00" stroke-width="0.3"><path d="
M 0.00 1024.00 
L 1024.00 1024.00
L 1024.00 0.00
L 0.00 0.00
L 0.00 1024.00
M 698.00 223.00 
C 734.50 292.75 754.04 362.98 761.00 440.00
C 779.13 441.64 798.29 435.80 811.75 445.39 C 825.21 454.98 829.34 470.01 827.00 487.00 C 824.66 503.99 831.44 527.84 823.69 541.70 C 815.95 555.55 802.81 561.00 788.00 561.00
C 787.55 581.46 790.48 602.58 783.00 618.00
C 773.89 613.47 766.25 612.05 758.00 606.00
C 764.48 593.57 761.12 576.17 762.00 560.00
C 731.50 562.32 699.92 560.34 669.00 561.00
C 669.00 578.67 669.00 596.33 669.00 614.00
C 659.68 616.04 651.55 621.47 642.00 627.00
C 642.76 605.89 640.60 582.35 643.00 561.00
C 638.48 558.87 632.94 560.52 628.00 560.00
C 628.03 586.53 627.96 614.19 628.00 640.00
C 617.34 645.78 609.78 658.12 602.00 667.00
C 602.00 631.67 602.00 596.33 602.00 561.00
C 593.67 561.00 585.33 561.00 577.00 561.00
C 577.05 577.73 576.94 594.25 577.00 611.00 C 577.06 627.75 576.89 644.17 577.00 661.00 C 577.11 677.83 576.75 693.99 577.00 711.00 C 577.25 728.01 555.67 723.98 543.00 724.00 C 530.33 724.02 510.02 727.78 510.02 710.97 C 510.02 694.16 509.99 677.78 510.00 661.00 C 510.01 644.22 509.99 627.83 510.00 611.00 C 510.01 594.17 509.99 576.87 510.00 560.00
C 501.79 562.11 492.61 560.50 484.00 561.00
C 485.74 577.11 485.12 594.49 485.00 611.00 C 484.88 627.51 485.61 645.70 485.00 662.00 C 484.39 678.30 486.49 697.38 485.00 713.00 C 483.51 728.62 463.45 723.64 451.00 724.00 C 438.55 724.36 418.03 727.87 417.60 712.25 C 417.17 696.62 416.70 678.38 417.00 662.00 C 417.30 645.62 416.65 627.55 417.00 611.00 C 417.35 594.45 415.91 577.11 418.00 561.00
C 410.25 559.88 400.07 562.62 392.00 560.00
C 391.76 576.86 392.32 594.18 392.00 611.00 C 391.68 627.82 392.62 645.35 392.00 662.00 C 391.38 678.65 393.33 696.74 392.00 713.00 C 390.67 729.26 368.61 723.63 356.00 724.00 C 343.39 724.37 324.91 727.40 324.66 712.32 C 324.41 697.24 323.67 678.20 324.00 662.00 C 324.33 645.80 323.83 627.58 324.00 611.00 C 324.17 594.42 323.87 576.69 324.00 560.00
C 293.91 561.60 262.06 561.71 232.00 560.00
C 229.86 584.32 234.28 603.50 241.19 621.25 C 248.11 639.00 252.81 650.44 258.76 668.25 C 264.70 686.06 269.47 697.64 275.76 715.25 C 282.04 732.86 284.75 753.86 314.00 750.00 C 343.25 746.14 374.39 751.85 404.00 750.00 C 433.61 748.15 465.40 751.13 495.00 750.00 C 524.60 748.87 554.60 751.58 583.00 749.00
C 581.90 758.32 585.60 766.91 587.00 776.00
C 577.29 774.08 567.18 775.21 557.00 775.00 C 546.82 774.79 536.26 775.10 526.00 775.00 C 515.74 774.90 505.29 775.04 495.00 775.00 C 484.71 774.96 474.30 775.02 464.00 775.00 C 453.70 774.98 443.29 775.01 433.00 775.00 C 422.71 774.99 412.25 775.01 402.00 775.00 C 391.75 774.99 381.15 775.02 371.00 775.00 C 360.85 774.98 349.92 775.04 340.00 775.00 C 330.08 774.96 318.43 775.08 309.00 775.00 C 299.57 774.92 289.74 775.64 282.75 774.24 C 275.76 772.84 270.95 769.59 266.68 763.32 C 262.41 757.05 259.48 751.87 257.20 745.75 C 254.92 739.64 252.54 733.76 250.81 728.75 C 249.08 723.73 245.98 716.74 244.61 712.25 C 243.24 707.75 239.90 700.85 238.23 695.77 C 236.56 690.69 234.11 685.01 232.81 679.75 C 231.50 674.49 227.59 668.94 226.24 663.75 C 224.89 658.57 223.25 653.13 221.20 647.75 C 219.15 642.38 217.52 637.87 215.74 632.25 C 213.95 626.63 211.40 621.30 209.74 615.25 C 208.08 609.20 206.14 606.13 205.40 599.25 C 204.65 592.37 203.03 586.20 205.00 576.00 C 206.97 565.80 202.56 558.98 193.92 560.07 C 185.28 561.15 182.11 554.67 176.30 550.70 C 170.48 546.74 168.94 539.09 167.07 532.92 C 165.19 526.74 165.96 515.38 166.00 507.00 C 166.04 498.62 165.51 484.29 166.00 476.00 C 166.49 467.71 167.47 463.40 170.39 457.25 C 173.31 451.09 181.09 446.46 187.08 443.08 C 193.07 439.69 198.91 439.20 207.00 440.00 C 215.09 440.80 230.68 441.70 230.40 434.26 C 230.12 426.82 232.98 423.55 233.59 417.25 C 234.21 410.96 235.63 405.97 237.19 400.75 C 238.76 395.54 243.56 388.85 246.11 383.11 C 248.65 377.36 253.25 370.76 257.70 365.70 C 262.15 360.65 265.59 352.82 271.75 348.75 C 277.91 344.68 284.08 338.86 289.30 335.30 C 294.51 331.73 300.95 328.98 306.75 325.75 C 312.54 322.51 316.34 322.40 322.25 320.20 C 328.15 318.00 334.16 316.76 340.68 315.68 C 347.20 314.59 354.46 313.88 362.00 314.00 C 369.54 314.12 377.20 314.80 383.25 315.80 C 389.30 316.81 394.81 317.98 400.25 319.80 C 405.69 321.63 411.36 323.22 415.75 325.39 C 420.15 327.57 425.23 330.99 431.68 334.32 C 438.13 337.64 442.82 343.85 449.00 347.00
C 456.98 338.18 466.98 324.87 478.08 322.07 C 489.18 319.26 499.48 330.26 509.00 336.00
C 519.30 296.41 532.79 257.10 551.00 223.00
C 529.05 218.00 533.69 193.62 533.00 176.00 C 532.31 158.38 534.19 139.62 554.23 137.23 C 574.26 134.84 600.88 137.16 623.00 137.00 C 645.12 136.84 673.35 135.29 694.75 137.40 C 716.15 139.50 717.19 160.26 717.00 178.00 C 716.81 195.74 718.92 219.80 698.00 223.00
M 713.00 608.00 
C 760.49 605.94 808.22 632.10 833.39 671.75 C 858.57 711.40 861.32 758.70 837.90 799.90 C 814.48 841.10 773.72 867.88 726.93 869.93 C 680.13 871.97 631.54 845.45 607.68 805.32 C 583.82 765.19 582.81 720.01 602.77 680.77 C 622.73 641.53 668.66 609.93 713.00 608.00 Z"/>
</g>
<g fill="None" fill-opacity="0.0" stroke="#000000" stroke-opacity="0.99" stroke-width="0.3"><path d="
M 698.00 223.00 
C 718.92 219.80 716.81 195.74 717.00 178.00 C 717.19 160.26 716.15 139.50 694.75 137.40 C 673.35 135.29 645.12 136.84 623.00 137.00 C 600.88 137.16 574.26 134.84 554.23 137.23 C 534.19 139.62 532.31 158.38 533.00 176.00 C 533.69 193.62 529.05 218.00 551.00 223.00
C 532.79 257.10 519.30 296.41 509.00 336.00
C 499.48 330.26 489.18 319.26 478.08 322.07 C 466.98 324.87 456.98 338.18 449.00 347.00
C 442.82 343.85 438.13 337.64 431.68 334.32 C 425.23 330.99 420.15 327.57 415.75 325.39 C 411.36 323.22 405.69 321.63 400.25 319.80 C 394.81 317.98 389.30 316.81 383.25 315.80 C 377.20 314.80 369.54 314.12 362.00 314.00 C 354.46 313.88 347.20 314.59 340.68 315.68 C 334.16 316.76 328.15 318.00 322.25 320.20 C 316.34 322.40 312.54 322.51 306.75 325.75 C 300.95 328.98 294.51 331.73 289.30 335.30 C 284.08 338.86 277.91 344.68 271.75 348.75 C 265.59 352.82 262.15 360.65 257.70 365.70 C 253.25 370.76 248.65 377.36 246.11 383.11 C 243.56 388.85 238.76 395.54 237.19 400.75 C 235.63 405.97 234.21 410.96 233.59 417.25 C 232.98 423.55 230.12 426.82 230.40 434.26 C 230.68 441.70 215.09 440.80 207.00 440.00 C 198.91 439.20 193.07 439.69 187.08 443.08 C 181.09 446.46 173.31 451.09 170.39 457.25 C 167.47 463.40 166.49 467.71 166.00 476.00 C 165.51 484.29 166.04 498.62 166.00 507.00 C 165.96 515.38 165.19 526.74 167.07 532.92 C 168.94 539.09 170.48 546.74 176.30 550.70 C 182.11 554.67 185.28 561.15 193.92 560.07 C 202.56 558.98 206.97 565.80 205.00 576.00 C 203.03 586.20 204.65 592.37 205.40 599.25 C 206.14 606.13 208.08 609.20 209.74 615.25 C 211.40 621.30 213.95 626.63 215.74 632.25 C 217.52 637.87 219.15 642.38 221.20 647.75 C 223.25 653.13 224.89 658.57 226.24 663.75 C 227.59 668.94 231.50 674.49 232.81 679.75 C 234.11 685.01 236.56 690.69 238.23 695.77 C 239.90 700.85 243.24 707.75 244.61 712.25 C 245.98 716.74 249.08 723.73 250.81 728.75 C 252.54 733.76 254.92 739.64 257.20 745.75 C 259.48 751.87 262.41 757.05 266.68 763.32 C 270.95 769.59 275.76 772.84 282.75 774.24 C 289.74 775.64 299.57 774.92 309.00 775.00 C 318.43 775.08 330.08 774.96 340.00 775.00 C 349.92 775.04 360.85 774.98 371.00 775.00 C 381.15 775.02 391.75 774.99 402.00 775.00 C 412.25 775.01 422.71 774.99 433.00 775.00 C 443.29 775.01 453.70 774.98 464.00 775.00 C 474.30 775.02 484.71 774.96 495.00 775.00 C 505.29 775.04 515.74 774.90 526.00 775.00 C 536.26 775.10 546.82 774.79 557.00 775.00 C 567.18 775.21 577.29 774.08 587.00 776.00
C 585.60 766.91 581.90 758.32 583.00 749.00
C 554.60 751.58 524.60 748.87 495.00 750.00 C 465.40 751.13 433.61 748.15 404.00 750.00 C 374.39 751.85 343.25 746.14 314.00 750.00 C 284.75 753.86 282.04 732.86 275.76 715.25 C 269.47 697.64 264.70 686.06 258.76 668.25 C 252.81 650.44 248.11 639.00 241.19 621.25 C 234.28 603.50 229.86 584.32 232.00 560.00
C 262.06 561.71 293.91 561.60 324.00 560.00
C 323.87 576.69 324.17 594.42 324.00 611.00 C 323.83 627.58 324.33 645.80 324.00 662.00 C 323.67 678.20 324.41 697.24 324.66 712.32 C 324.91 727.40 343.39 724.37 356.00 724.00 C 368.61 723.63 390.67 729.26 392.00 713.00 C 393.33 696.74 391.38 678.65 392.00 662.00 C 392.62 645.35 391.68 627.82 392.00 611.00 C 392.32 594.18 391.76 576.86 392.00 560.00
C 400.07 562.62 410.25 559.88 418.00 561.00
C 415.91 577.11 417.35 594.45 417.00 611.00 C 416.65 627.55 417.30 645.62 417.00 662.00 C 416.70 678.38 417.17 696.62 417.60 712.25 C 418.03 727.87 438.55 724.36 451.00 724.00 C 463.45 723.64 483.51 728.62 485.00 713.00 C 486.49 697.38 484.39 678.30 485.00 662.00 C 485.61 645.70 484.88 627.51 485.00 611.00 C 485.12 594.49 485.74 577.11 484.00 561.00
C 492.61 560.50 501.79 562.11 510.00 560.00
C 509.99 576.87 510.01 594.17 510.00 611.00 C 509.99 627.83 510.01 644.22 510.00 661.00 C 509.99 677.78 510.02 694.16 510.02 710.97 C 510.02 727.78 530.33 724.02 543.00 724.00 C 555.67 723.98 577.25 728.01 577.00 711.00 C 576.75 693.99 577.11 677.83 577.00 661.00 C 576.89 644.17 577.06 627.75 577.00 611.00 C 576.94 594.25 577.05 577.73 577.00 561.00
C 585.33 561.00 593.67 561.00 602.00 561.00
C 602.00 596.33 602.00 631.67 602.00 667.00
C 609.78 658.12 617.34 645.78 628.00 640.00
C 627.96 614.19 628.03 586.53 628.00 560.00
C 632.94 560.52 638.48 558.87 643.00 561.00
C 640.60 582.35 642.76 605.89 642.00 627.00
C 651.55 621.47 659.68 616.04 669.00 614.00
C 669.00 596.33 669.00 578.67 669.00 561.00
C 699.92 560.34 731.50 562.32 762.00 560.00
C 761.12 576.17 764.48 593.57 758.00 606.00
C 766.25 612.05 773.89 613.47 783.00 618.00
C 790.48 602.58 787.55 581.46 788.00 561.00
C 802.81 561.00 815.95 555.55 823.69 541.70 C 831.44 527.84 824.66 503.99 827.00 487.00 C 829.34 470.01 825.21 454.98 811.75 445.39 C 798.29 435.80 779.13 441.64 761.00 440.00
C 754.04 362.98 734.50 292.75 698.00 223.00
M 691.00 162.00 
C 693.13 172.83 691.40 186.92 692.00 198.00
C 671.61 201.86 647.08 199.69 625.00 200.00 C 602.92 200.31 579.08 200.59 558.00 199.00
C 559.27 187.38 555.50 171.67 560.00 161.00
C 602.75 161.67 647.97 159.67 691.00 162.00
M 667.00 224.00 
C 685.78 258.54 699.55 291.30 710.59 326.75 C 721.63 362.21 729.09 401.38 733.00 440.00
C 715.71 441.65 691.56 440.39 678.92 431.08 C 666.29 421.77 656.40 418.86 644.10 410.90 C 631.80 402.94 620.30 398.76 608.75 391.81 C 597.20 384.86 583.53 377.30 571.31 370.69 C 559.08 364.09 548.33 356.27 535.00 351.00
C 545.32 306.23 559.92 267.12 581.00 224.00
C 609.67 224.00 638.33 224.00 667.00 224.00
M 429.00 364.00 
C 405.07 391.06 375.47 413.91 351.00 440.00
C 320.09 439.34 288.47 441.33 258.00 439.00
C 260.54 413.54 272.52 385.32 293.23 367.23 C 313.94 349.14 328.66 342.93 356.25 340.80 C 383.84 338.67 407.25 348.75 429.00 364.00
M 638.00 439.00 
C 557.49 439.69 473.26 437.65 392.00 440.00
C 421.00 409.98 453.20 379.45 484.00 350.00
C 531.89 379.30 588.79 409.38 638.00 439.00
M 202.00 466.00 
C 212.99 462.16 228.11 467.67 241.00 466.00 C 253.89 464.33 269.60 466.77 283.00 466.00 C 296.40 465.23 310.35 466.34 324.00 466.00 C 337.65 465.66 352.25 466.16 366.00 466.00 C 379.75 465.84 393.20 466.07 407.00 466.00 C 420.80 465.93 435.18 466.03 449.00 466.00 C 462.82 465.97 476.17 466.02 490.00 466.00 C 503.83 465.98 518.17 466.02 532.00 466.00 C 545.83 465.98 559.17 466.03 573.00 466.00 C 586.83 465.97 601.17 466.06 615.00 466.00 C 628.83 465.94 642.18 466.13 656.00 466.00 C 669.82 465.87 684.20 466.28 698.00 466.00 C 711.80 465.72 725.24 466.64 739.00 466.00 C 752.76 465.36 767.34 467.39 781.00 466.00 C 794.66 464.61 801.08 470.88 800.00 484.00 C 798.92 497.12 800.88 512.81 799.40 524.74 C 797.93 536.68 788.78 534.92 776.00 535.00 C 763.22 535.08 747.35 534.96 734.00 535.00 C 720.65 535.04 706.62 534.98 693.00 535.00 C 679.38 535.02 664.74 534.99 651.00 535.00 C 637.26 535.01 623.79 535.00 610.00 535.00 C 596.21 535.00 581.82 535.00 568.00 535.00 C 554.18 535.00 540.83 535.00 527.00 535.00 C 513.17 535.00 498.83 535.01 485.00 535.00 C 471.17 534.99 457.82 535.02 444.00 535.00 C 430.18 534.98 415.79 535.05 402.00 535.00 C 388.21 534.95 374.73 535.11 361.00 535.00 C 347.27 534.89 332.61 535.24 319.00 535.00 C 305.39 534.76 291.33 535.55 278.00 535.00 C 264.67 534.45 248.73 536.19 236.00 535.00 C 223.27 533.81 209.18 538.28 199.75 533.81 C 190.32 529.34 194.26 510.02 194.00 500.00 C 193.74 489.98 190.30 470.09 202.00 466.00
M 366.00 699.00 
C 360.67 699.00 355.33 699.00 350.00 699.00
C 351.67 653.59 351.67 606.38 350.00 561.00
C 362.58 555.55 367.46 562.81 366.00 574.00 C 364.54 585.19 366.66 595.20 366.00 606.00 C 365.34 616.80 366.25 626.44 366.00 637.00 C 365.75 647.56 366.04 658.61 366.00 669.00 C 365.96 679.39 365.82 689.53 366.00 699.00
M 458.00 560.00 
C 457.98 605.50 458.01 652.81 458.00 699.00
C 453.00 699.00 448.00 699.00 443.00 699.00
C 444.67 653.25 444.66 605.75 443.00 560.00
C 447.57 561.89 453.39 561.21 458.00 560.00
M 550.00 560.00 
C 552.33 605.83 550.33 652.75 551.00 699.00
C 546.00 699.00 541.00 699.00 536.00 699.00
C 536.00 653.00 536.00 607.00 536.00 561.00
C 540.63 560.52 545.80 562.08 550.00 560.00 Z"/>
</g>
<g fill="None" fill-opacity="0.0" stroke="#000000" stroke-opacity="0.00" stroke-width="0.3"><path d="
M 691.00 162.00 
C 647.97 159.67 602.75 161.67 560.00 161.00
C 555.50 171.67 559.27 187.38 558.00 199.00
C 579.08 200.59 602.92 200.31 625.00 200.00 C 647.08 199.69 671.61 201.86 692.00 198.00
C 691.40 186.92 693.13 172.83 691.00 162.00 Z"/>
</g>
<g fill="None" fill-opacity="0.0" stroke="#000000" stroke-opacity="0.00" stroke-width="0.3"><path d="
M 667.00 224.00 
C 638.33 224.00 609.67 224.00 581.00 224.00
C 559.92 267.12 545.32 306.23 535.00 351.00
C 548.33 356.27 559.08 364.09 571.31 370.69 C 583.53 377.30 597.20 384.86 608.75 391.81 C 620.30 398.76 631.80 402.94 644.10 410.90 C 656.40 418.86 666.29 421.77 678.92 431.08 C 691.56 440.39 715.71 441.65 733.00 440.00
C 729.09 401.38 721.63 362.21 710.59 326.75 C 699.55 291.30 685.78 258.54 667.00 224.00 Z"/>
</g>
<g fill="None" fill-opacity="0.0" stroke="#000000" stroke-opacity="0.01" stroke-width="0.3"><path d="
M 429.00 364.00 
C 407.25 348.75 383.84 338.67 356.25 340.80 C 328.66 342.93 313.94 349.14 293.23 367.23 C 272.52 385.32 260.54 413.54 258.00 439.00
C 288.47 441.33 320.09 439.34 351.00 440.00
C 375.47 413.91 405.07 391.06 429.00 364.00 Z"/>
</g>
<g fill="None" fill-opacity="0.0" stroke="#000000" stroke-opacity="0.00" stroke-width="0.3"><path d="
M 638.00 439.00 
C 588.79 409.38 531.89 379.30 484.00 350.00
C 453.20 379.45 421.00 409.98 392.00 440.00
C 473.26 437.65 557.49 439.69 638.00 439.00 Z"/>
</g>
<g fill="None" fill-opacity="0.0" stroke="#000000" stroke-opacity="0.00" stroke-width="0.3"><path d="
M 202.00 466.00 
C 190.30 470.09 193.74 489.98 194.00 500.00 C 194.26 510.02 190.32 529.34 199.75 533.81 C 209.18 538.28 223.27 533.81 236.00 535.00 C 248.73 536.19 264.67 534.45 278.00 535.00 C 291.33 535.55 305.39 534.76 319.00 535.00 C 332.61 535.24 347.27 534.89 361.00 535.00 C 374.73 535.11 388.21 534.95 402.00 535.00 C 415.79 535.05 430.18 534.98 444.00 535.00 C 457.82 535.02 471.17 534.99 485.00 535.00 C 498.83 535.01 513.17 535.00 527.00 535.00 C 540.83 535.00 554.18 535.00 568.00 535.00 C 581.82 535.00 596.21 535.00 610.00 535.00 C 623.79 535.00 637.26 535.01 651.00 535.00 C 664.74 534.99 679.38 535.02 693.00 535.00 C 706.62 534.98 720.65 535.04 734.00 535.00 C 747.35 534.96 763.22 535.08 776.00 535.00 C 788.78 534.92 797.93 536.68 799.40 524.74 C 800.88 512.81 798.92 497.12 800.00 484.00 C 801.08 470.88 794.66 464.61 781.00 466.00 C 767.34 467.39 752.76 465.36 739.00 466.00 C 725.24 466.64 711.80 465.72 698.00 466.00 C 684.20 466.28 669.82 465.87 656.00 466.00 C 642.18 466.13 628.83 465.94 615.00 466.00 C 601.17 466.06 586.83 465.97 573.00 466.00 C 559.17 466.03 545.83 465.98 532.00 466.00 C 518.17 466.02 503.83 465.98 490.00 466.00 C 476.17 466.02 462.82 465.97 449.00 466.00 C 435.18 466.03 420.80 465.93 407.00 466.00 C 393.20 466.07 379.75 465.84 366.00 466.00 C 352.25 466.16 337.65 465.66 324.00 466.00 C 310.35 466.34 296.40 465.23 283.00 466.00 C 269.60 466.77 253.89 464.33 241.00 466.00 C 228.11 467.67 212.99 462.16 202.00 466.00 Z"/>
</g>
<g fill="None" fill-opacity="0.0" stroke="#000000" stroke-opacity="0.05" stroke-width="0.3"><path d="
M 366.00 699.00 
C 365.82 689.53 365.96 679.39 366.00 669.00 C 366.04 658.61 365.75 647.56 366.00 637.00 C 366.25 626.44 365.34 616.80 366.00 606.00 C 366.66 595.20 364.54 585.19 366.00 574.00 C 367.46 562.81 362.58 555.55 350.00 561.00
C 351.67 606.38 351.67 653.59 350.00 699.00
C 355.33 699.00 360.67 699.00 366.00 699.00 Z"/>
</g>
<g fill="None" fill-opacity="0.0" stroke="#000000" stroke-opacity="0.02" stroke-width="0.3"><path d="
M 458.00 560.00 
C 453.39 561.21 447.57 561.89 443.00 560.00
C 444.66 605.75 444.67 653.25 443.00 699.00
C 448.00 699.00 453.00 699.00 458.00 699.00
C 458.01 652.81 457.98 605.50 458.00 560.00 Z"/>
</g>
<g fill="None" fill-opacity="0.0" stroke="#000000" stroke-opacity="0.07" stroke-width="0.3"><path d="
M 550.00 560.00 
C 545.80 562.08 540.63 560.52 536.00 561.00
C 536.00 607.00 536.00 653.00 536.00 699.00
C 541.00 699.00 546.00 699.00 551.00 699.00
C 550.33 652.75 552.33 605.83 550.00 560.00 Z"/>
</g>
<g fill="None" fill-opacity="0.0" stroke="#000000" stroke-opacity="0.98" stroke-width="0.3"><path d="
M 713.00 608.00 
C 668.66 609.93 622.73 641.53 602.77 680.77 C 582.81 720.01 583.82 765.19 607.68 805.32 C 631.54 845.45 680.13 871.97 726.93 869.93 C 773.72 867.88 814.48 841.10 837.90 799.90 C 861.32 758.70 858.57 711.40 833.39 671.75 C 808.22 632.10 760.49 605.94 713.00 608.00
M 710.00 629.00 
C 737.96 624.94 757.14 635.46 778.77 646.57 C 800.39 657.68 820.32 685.38 827.26 707.75 C 834.21 730.12 832.02 762.67 822.81 783.25 C 813.59 803.82 790.05 826.03 769.25 836.39 C 748.44 846.76 722.20 850.59 696.78 845.22 C 671.35 839.86 651.05 826.85 633.70 805.30 C 616.35 783.75 609.63 760.22 610.78 732.78 C 611.93 705.34 620.89 684.70 640.75 663.75 C 660.60 642.80 684.60 632.69 710.00 629.00 Z"/>
</g>
<g fill="None" fill-opacity="0.0" stroke="#000000" stroke-opacity="0.01" stroke-width="0.3"><path d="
M 710.00 629.00 
C 684.60 632.69 660.60 642.80 640.75 663.75 C 620.89 684.70 611.93 705.34 610.78 732.78 C 609.63 760.22 616.35 783.75 633.70 805.30 C 651.05 826.85 671.35 839.86 696.78 845.22 C 722.20 850.59 748.44 846.76 769.25 836.39 C 790.05 826.03 813.59 803.82 822.81 783.25 C 832.02 762.67 834.21 730.12 827.26 707.75 C 820.32 685.38 800.39 657.68 778.77 646.57 C 757.14 635.46 737.96 624.94 710.00 629.00
M 733.00 676.00 
C 733.00 693.00 733.00 710.00 733.00 727.00
C 750.53 727.06 769.18 726.91 786.00 727.00
C 783.75 734.17 785.60 742.41 785.00 750.00
C 768.17 747.68 750.25 749.65 733.00 749.00
C 733.00 766.33 733.00 783.67 733.00 801.00
C 725.33 801.00 717.67 801.00 710.00 801.00
C 710.00 783.67 710.00 766.33 710.00 749.00
C 692.00 749.00 674.00 749.00 656.00 749.00
C 656.00 741.67 656.00 734.33 656.00 727.00
C 674.00 727.00 692.00 727.00 710.00 727.00
C 710.00 710.00 710.00 693.00 710.00 676.00
C 717.67 676.00 725.33 676.00 733.00 676.00 Z"/>
</g>
<g fill="None" fill-opacity="0.0" stroke="#000000" stroke-opacity="0.99" stroke-width="0.3"><path d="
M 733.00 676.00 
C 725.33 676.00 717.67 676.00 710.00 676.00
C 710.00 693.00 710.00 710.00 710.00 727.00
C 692.00 727.00 674.00 727.00 656.00 727.00
C 656.00 734.33 656.00 741.67 656.00 749.00
C 674.00 749.00 692.00 749.00 710.00 749.00
C 710.00 766.33 710.00 783.67 710.00 801.00
C 717.67 801.00 725.33 801.00 733.00 801.00
C 733.00 783.67 733.00 766.33 733.00 749.00
C 750.25 749.65 768.17 747.68 785.00 750.00
C 785.60 742.41 783.75 734.17 786.00 727.00
C 769.18 726.91 750.53 727.06 733.00 727.00
C 733.00 710.00 733.00 693.00 733.00 676.00 Z"/>
</g>
<g fill="#000000" fill-opacity="0.00" stroke="None">
<path d="
M 0.00 1024.00 
L 1024.00 1024.00
L 1024.00 0.00
L 0.00 0.00
L 0.00 1024.00
M 698.00 223.00 
C 734.50 292.75 754.04 362.98 761.00 440.00
C 779.13 441.64 798.29 435.80 811.75 445.39 C 825.21 454.98 829.34 470.01 827.00 487.00 C 824.66 503.99 831.44 527.84 823.69 541.70 C 815.95 555.55 802.81 561.00 788.00 561.00
C 787.55 581.46 790.48 602.58 783.00 618.00
C 773.89 613.47 766.25 612.05 758.00 606.00
C 764.48 593.57 761.12 576.17 762.00 560.00
C 731.50 562.32 699.92 560.34 669.00 561.00
C 669.00 578.67 669.00 596.33 669.00 614.00
C 659.68 616.04 651.55 621.47 642.00 627.00
C 642.76 605.89 640.60 582.35 643.00 561.00
C 638.48 558.87 632.94 560.52 628.00 560.00
C 628.03 586.53 627.96 614.19 628.00 640.00
C 617.34 645.78 609.78 658.12 602.00 667.00
C 602.00 631.67 602.00 596.33 602.00 561.00
C 593.67 561.00 585.33 561.00 577.00 561.00
C 577.05 577.73 576.94 594.25 577.00 611.00 C 577.06 627.75 576.89 644.17 577.00 661.00 C 577.11 677.83 576.75 693.99 577.00 711.00 C 577.25 728.01 555.67 723.98 543.00 724.00 C 530.33 724.02 510.02 727.78 510.02 710.97 C 510.02 694.16 509.99 677.78 510.00 661.00 C 510.01 644.22 509.99 627.83 510.00 611.00 C 510.01 594.17 509.99 576.87 510.00 560.00
C 501.79 562.11 492.61 560.50 484.00 561.00
C 485.74 577.11 485.12 594.49 485.00 611.00 C 484.88 627.51 485.61 645.70 485.00 662.00 C 484.39 678.30 486.49 697.38 485.00 713.00 C 483.51 728.62 463.45 723.64 451.00 724.00 C 438.55 724.36 418.03 727.87 417.60 712.25 C 417.17 696.62 416.70 678.38 417.00 662.00 C 417.30 645.62 416.65 627.55 417.00 611.00 C 417.35 594.45 415.91 577.11 418.00 561.00
C 410.25 559.88 400.07 562.62 392.00 560.00
C 391.76 576.86 392.32 594.18 392.00 611.00 C 391.68 627.82 392.62 645.35 392.00 662.00 C 391.38 678.65 393.33 696.74 392.00 713.00 C 390.67 729.26 368.61 723.63 356.00 724.00 C 343.39 724.37 324.91 727.40 324.66 712.32 C 324.41 697.24 323.67 678.20 324.00 662.00 C 324.33 645.80 323.83 627.58 324.00 611.00 C 324.17 594.42 323.87 576.69 324.00 560.00
C 293.91 561.60 262.06 561.71 232.00 560.00
C 229.86 584.32 234.28 603.50 241.19 621.25 C 248.11 639.00 252.81 650.44 258.76 668.25 C 264.70 686.06 269.47 697.64 275.76 715.25 C 282.04 732.86 284.75 753.86 314.00 750.00 C 343.25 746.14 374.39 751.85 404.00 750.00 C 433.61 748.15 465.40 751.13 495.00 750.00 C 524.60 748.87 554.60 751.58 583.00 749.00
C 581.90 758.32 585.60 766.91 587.00 776.00
C 577.29 774.08 567.18 775.21 557.00 775.00 C 546.82 774.79 536.26 775.10 526.00 775.00 C 515.74 774.90 505.29 775.04 495.00 775.00 C 484.71 774.96 474.30 775.02 464.00 775.00 C 453.70 774.98 443.29 775.01 433.00 775.00 C 422.71 774.99 412.25 775.01 402.00 775.00 C 391.75 774.99 381.15 775.02 371.00 775.00 C 360.85 774.98 349.92 775.04 340.00 775.00 C 330.08 774.96 318.43 775.08 309.00 775.00 C 299.57 774.92 289.74 775.64 282.75 774.24 C 275.76 772.84 270.95 769.59 266.68 763.32 C 262.41 757.05 259.48 751.87 257.20 745.75 C 254.92 739.64 252.54 733.76 250.81 728.75 C 249.08 723.73 245.98 716.74 244.61 712.25 C 243.24 707.75 239.90 700.85 238.23 695.77 C 236.56 690.69 234.11 685.01 232.81 679.75 C 231.50 674.49 227.59 668.94 226.24 663.75 C 224.89 658.57 223.25 653.13 221.20 647.75 C 219.15 642.38 217.52 637.87 215.74 632.25 C 213.95 626.63 211.40 621.30 209.74 615.25 C 208.08 609.20 206.14 606.13 205.40 599.25 C 204.65 592.37 203.03 586.20 205.00 576.00 C 206.97 565.80 202.56 558.98 193.92 560.07 C 185.28 561.15 182.11 554.67 176.30 550.70 C 170.48 546.74 168.94 539.09 167.07 532.92 C 165.19 526.74 165.96 515.38 166.00 507.00 C 166.04 498.62 165.51 484.29 166.00 476.00 C 166.49 467.71 167.47 463.40 170.39 457.25 C 173.31 451.09 181.09 446.46 187.08 443.08 C 193.07 439.69 198.91 439.20 207.00 440.00 C 215.09 440.80 230.68 441.70 230.40 434.26 C 230.12 426.82 232.98 423.55 233.59 417.25 C 234.21 410.96 235.63 405.97 237.19 400.75 C 238.76 395.54 243.56 388.85 246.11 383.11 C 248.65 377.36 253.25 370.76 257.70 365.70 C 262.15 360.65 265.59 352.82 271.75 348.75 C 277.91 344.68 284.08 338.86 289.30 335.30 C 294.51 331.73 300.95 328.98 306.75 325.75 C 312.54 322.51 316.34 322.40 322.25 320.20 C 328.15 318.00 334.16 316.76 340.68 315.68 C 347.20 314.59 354.46 313.88 362.00 314.00 C 369.54 314.12 377.20 314.80 383.25 315.80 C 389.30 316.81 394.81 317.98 400.25 319.80 C 405.69 321.63 411.36 323.22 415.75 325.39 C 420.15 327.57 425.23 330.99 431.68 334.32 C 438.13 337.64 442.82 343.85 449.00 347.00
C 456.98 338.18 466.98 324.87 478.08 322.07 C 489.18 319.26 499.48 330.26 509.00 336.00
C 519.30 296.41 532.79 257.10 551.00 223.00
C 529.05 218.00 533.69 193.62 533.00 176.00 C 532.31 158.38 534.19 139.62 554.23 137.23 C 574.26 134.84 600.88 137.16 623.00 137.00 C 645.12 136.84 673.35 135.29 694.75 137.40 C 716.15 139.50 717.19 160.26 717.00 178.00 C 716.81 195.74 718.92 219.80 698.00 223.00
M 713.00 608.00 
C 760.49 605.94 808.22 632.10 833.39 671.75 C 858.57 711.40 861.32 758.70 837.90 799.90 C 814.48 841.10 773.72 867.88 726.93 869.93 C 680.13 871.97 631.54 845.45 607.68 805.32 C 583.82 765.19 582.81 720.01 602.77 680.77 C 622.73 641.53 668.66 609.93 713.00 608.00 Z"/>
</g>
<g fill="#000000" fill-opacity="0.99" stroke="None">
<path d="
M 698.00 223.00 
C 718.92 219.80 716.81 195.74 717.00 178.00 C 717.19 160.26 716.15 139.50 694.75 137.40 C 673.35 135.29 645.12 136.84 623.00 137.00 C 600.88 137.16 574.26 134.84 554.23 137.23 C 534.19 139.62 532.31 158.38 533.00 176.00 C 533.69 193.62 529.05 218.00 551.00 223.00
C 532.79 257.10 519.30 296.41 509.00 336.00
C 499.48 330.26 489.18 319.26 478.08 322.07 C 466.98 324.87 456.98 338.18 449.00 347.00
C 442.82 343.85 438.13 337.64 431.68 334.32 C 425.23 330.99 420.15 327.57 415.75 325.39 C 411.36 323.22 405.69 321.63 400.25 319.80 C 394.81 317.98 389.30 316.81 383.25 315.80 C 377.20 314.80 369.54 314.12 362.00 314.00 C 354.46 313.88 347.20 314.59 340.68 315.68 C 334.16 316.76 328.15 318.00 322.25 320.20 C 316.34 322.40 312.54 322.51 306.75 325.75 C 300.95 328.98 294.51 331.73 289.30 335.30 C 284.08 338.86 277.91 344.68 271.75 348.75 C 265.59 352.82 262.15 360.65 257.70 365.70 C 253.25 370.76 248.65 377.36 246.11 383.11 C 243.56 388.85 238.76 395.54 237.19 400.75 C 235.63 405.97 234.21 410.96 233.59 417.25 C 232.98 423.55 230.12 426.82 230.40 434.26 C 230.68 441.70 215.09 440.80 207.00 440.00 C 198.91 439.20 193.07 439.69 187.08 443.08 C 181.09 446.46 173.31 451.09 170.39 457.25 C 167.47 463.40 166.49 467.71 166.00 476.00 C 165.51 484.29 166.04 498.62 166.00 507.00 C 165.96 515.38 165.19 526.74 167.07 532.92 C 168.94 539.09 170.48 546.74 176.30 550.70 C 182.11 554.67 185.28 561.15 193.92 560.07 C 202.56 558.98 206.97 565.80 205.00 576.00 C 203.03 586.20 204.65 592.37 205.40 599.25 C 206.14 606.13 208.08 609.20 209.74 615.25 C 211.40 621.30 213.95 626.63 215.74 632.25 C 217.52 637.87 219.15 642.38 221.20 647.75 C 223.25 653.13 224.89 658.57 226.24 663.75 C 227.59 668.94 231.50 674.49 232.81 679.75 C 234.11 685.01 236.56 690.69 238.23 695.77 C 239.90 700.85 243.24 707.75 244.61 712.25 C 245.98 716.74 249.08 723.73 250.81 728.75 C 252.54 733.76 254.92 739.64 257.20 745.75 C 259.48 751.87 262.41 757.05 266.68 763.32 C 270.95 769.59 275.76 772.84 282.75 774.24 C 289.74 775.64 299.57 774.92 309.00 775.00 C 318.43 775.08 330.08 774.96 340.00 775.00 C 349.92 775.04 360.85 774.98 371.00 775.00 C 381.15 775.02 391.75 774.99 402.00 775.00 C 412.25 775.01 422.71 774.99 433.00 775.00 C 443.29 775.01 453.70 774.98 464.00 775.00 C 474.30 775.02 484.71 774.96 495.00 775.00 C 505.29 775.04 515.74 774.90 526.00 775.00 C 536.26 775.10 546.82 774.79 557.00 775.00 C 567.18 775.21 577.29 774.08 587.00 776.00
C 585.60 766.91 581.90 758.32 583.00 749.00
C 554.60 751.58 524.60 748.87 495.00 750.00 C 465.40 751.13 433.61 748.15 404.00 750.00 C 374.39 751.85 343.25 746.14 314.00 750.00 C 284.75 753.86 282.04 732.86 275.76 715.25 C 269.47 697.64 264.70 686.06 258.76 668.25 C 252.81 650.44 248.11 639.00 241.19 621.25 C 234.28 603.50 229.86 584.32 232.00 560.00
C 262.06 561.71 293.91 561.60 324.00 560.00
C 323.87 576.69 324.17 594.42 324.00 611.00 C 323.83 627.58 324.33 645.80 324.00 662.00 C 323.67 678.20 324.41 697.24 324.66 712.32 C 324.91 727.40 343.39 724.37 356.00 724.00 C 368.61 723.63 390.67 729.26 392.00 713.00 C 393.33 696.74 391.38 678.65 392.00 662.00 C 392.62 645.35 391.68 627.82 392.00 611.00 C 392.32 594.18 391.76 576.86 392.00 560.00
C 400.07 562.62 410.25 559.88 418.00 561.00
C 415.91 577.11 417.35 594.45 417.00 611.00 C 416.65 627.55 417.30 645.62 417.00 662.00 C 416.70 678.38 417.17 696.62 417.60 712.25 C 418.03 727.87 438.55 724.36 451.00 724.00 C 463.45 723.64 483.51 728.62 485.00 713.00 C 486.49 697.38 484.39 678.30 485.00 662.00 C 485.61 645.70 484.88 627.51 485.00 611.00 C 485.12 594.49 485.74 577.11 484.00 561.00
C 492.61 560.50 501.79 562.11 510.00 560.00
C 509.99 576.87 510.01 594.17 510.00 611.00 C 509.99 627.83 510.01 644.22 510.00 661.00 C 509.99 677.78 510.02 694.16 510.02 710.97 C 510.02 727.78 530.33 724.02 543.00 724.00 C 555.67 723.98 577.25 728.01 577.00 711.00 C 576.75 693.99 577.11 677.83 577.00 661.00 C 576.89 644.17 577.06 627.75 577.00 611.00 C 576.94 594.25 577.05 577.73 577.00 561.00
C 585.33 561.00 593.67 561.00 602.00 561.00
C 602.00 596.33 602.00 631.67 602.00 667.00
C 609.78 658.12 617.34 645.78 628.00 640.00
C 627.96 614.19 628.03 586.53 628.00 560.00
C 632.94 560.52 638.48 558.87 643.00 561.00
C 640.60 582.35 642.76 605.89 642.00 627.00
C 651.55 621.47 659.68 616.04 669.00 614.00
C 669.00 596.33 669.00 578.67 669.00 561.00
C 699.92 560.34 731.50 562.32 762.00 560.00
C 761.12 576.17 764.48 593.57 758.00 606.00
C 766.25 612.05 773.89 613.47 783.00 618.00
C 790.48 602.58 787.55 581.46 788.00 561.00
C 802.81 561.00 815.95 555.55 823.69 541.70 C 831.44 527.84 824.66 503.99 827.00 487.00 C 829.34 470.01 825.21 454.98 811.75 445.39 C 798.29 435.80 779.13 441.64 761.00 440.00
C 754.04 362.98 734.50 292.75 698.00 223.00
M 691.00 162.00 
C 693.13 172.83 691.40 186.92 692.00 198.00
C 671.61 201.86 647.08 199.69 625.00 200.00 C 602.92 200.31 579.08 200.59 558.00 199.00
C 559.27 187.38 555.50 171.67 560.00 161.00
C 602.75 161.67 647.97 159.67 691.00 162.00
M 667.00 224.00 
C 685.78 258.54 699.55 291.30 710.59 326.75 C 721.63 362.21 729.09 401.38 733.00 440.00
C 715.71 441.65 691.56 440.39 678.92 431.08 C 666.29 421.77 656.40 418.86 644.10 410.90 C 631.80 402.94 620.30 398.76 608.75 391.81 C 597.20 384.86 583.53 377.30 571.31 370.69 C 559.08 364.09 548.33 356.27 535.00 351.00
C 545.32 306.23 559.92 267.12 581.00 224.00
C 609.67 224.00 638.33 224.00 667.00 224.00
M 429.00 364.00 
C 405.07 391.06 375.47 413.91 351.00 440.00
C 320.09 439.34 288.47 441.33 258.00 439.00
C 260.54 413.54 272.52 385.32 293.23 367.23 C 313.94 349.14 328.66 342.93 356.25 340.80 C 383.84 338.67 407.25 348.75 429.00 364.00
M 638.00 439.00 
C 557.49 439.69 473.26 437.65 392.00 440.00
C 421.00 409.98 453.20 379.45 484.00 350.00
C 531.89 379.30 588.79 409.38 638.00 439.00
M 202.00 466.00 
C 212.99 462.16 228.11 467.67 241.00 466.00 C 253.89 464.33 269.60 466.77 283.00 466.00 C 296.40 465.23 310.35 466.34 324.00 466.00 C 337.65 465.66 352.25 466.16 366.00 466.00 C 379.75 465.84 393.20 466.07 407.00 466.00 C 420.80 465.93 435.18 466.03 449.00 466.00 C 462.82 465.97 476.17 466.02 490.00 466.00 C 503.83 465.98 518.17 466.02 532.00 466.00 C 545.83 465.98 559.17 466.03 573.00 466.00 C 586.83 465.97 601.17 466.06 615.00 466.00 C 628.83 465.94 642.18 466.13 656.00 466.00 C 669.82 465.87 684.20 466.28 698.00 466.00 C 711.80 465.72 725.24 466.64 739.00 466.00 C 752.76 465.36 767.34 467.39 781.00 466.00 C 794.66 464.61 801.08 470.88 800.00 484.00 C 798.92 497.12 800.88 512.81 799.40 524.74 C 797.93 536.68 788.78 534.92 776.00 535.00 C 763.22 535.08 747.35 534.96 734.00 535.00 C 720.65 535.04 706.62 534.98 693.00 535.00 C 679.38 535.02 664.74 534.99 651.00 535.00 C 637.26 535.01 623.79 535.00 610.00 535.00 C 596.21 535.00 581.82 535.00 568.00 535.00 C 554.18 535.00 540.83 535.00 527.00 535.00 C 513.17 535.00 498.83 535.01 485.00 535.00 C 471.17 534.99 457.82 535.02 444.00 535.00 C 430.18 534.98 415.79 535.05 402.00 535.00 C 388.21 534.95 374.73 535.11 361.00 535.00 C 347.27 534.89 332.61 535.24 319.00 535.00 C 305.39 534.76 291.33 535.55 278.00 535.00 C 264.67 534.45 248.73 536.19 236.00 535.00 C 223.27 533.81 209.18 538.28 199.75 533.81 C 190.32 529.34 194.26 510.02 194.00 500.00 C 193.74 489.98 190.30 470.09 202.00 466.00
M 366.00 699.00 
C 360.67 699.00 355.33 699.00 350.00 699.00
C 351.67 653.59 351.67 606.38 350.00 561.00
C 362.58 555.55 367.46 562.81 366.00 574.00 C 364.54 585.19 366.66 595.20 366.00 606.00 C 365.34 616.80 366.25 626.44 366.00 637.00 C 365.75 647.56 366.04 658.61 366.00 669.00 C 365.96 679.39 365.82 689.53 366.00 699.00
M 458.00 560.00 
C 457.98 605.50 458.01 652.81 458.00 699.00
C 453.00 699.00 448.00 699.00 443.00 699.00
C 444.67 653.25 444.66 605.75 443.00 560.00
C 447.57 561.89 453.39 561.21 458.00 560.00
M 550.00 560.00 
C 552.33 605.83 550.33 652.75 551.00 699.00
C 546.00 699.00 541.00 699.00 536.00 699.00
C 536.00 653.00 536.00 607.00 536.00 561.00
C 540.63 560.52 545.80 562.08 550.00 560.00 Z"/>
</g>
<g fill="#000000" fill-opacity="0.00" stroke="None">
<path d="
M 691.00 162.00 
C 647.97 159.67 602.75 161.67 560.00 161.00
C 555.50 171.67 559.27 187.38 558.00 199.00
C 579.08 200.59 602.92 200.31 625.00 200.00 C 647.08 199.69 671.61 201.86 692.00 198.00
C 691.40 186.92 693.13 172.83 691.00 162.00 Z"/>
</g>
<g fill="#000000" fill-opacity="0.00" stroke="None">
<path d="
M 667.00 224.00 
C 638.33 224.00 609.67 224.00 581.00 224.00
C 559.92 267.12 545.32 306.23 535.00 351.00
C 548.33 356.27 559.08 364.09 571.31 370.69 C 583.53 377.30 597.20 384.86 608.75 391.81 C 620.30 398.76 631.80 402.94 644.10 410.90 C 656.40 418.86 666.29 421.77 678.92 431.08 C 691.56 440.39 715.71 441.65 733.00 440.00
C 729.09 401.38 721.63 362.21 710.59 326.75 C 699.55 291.30 685.78 258.54 667.00 224.00 Z"/>
</g>
<g fill="#000000" fill-opacity="0.01" stroke="None">
<path d="
M 429.00 364.00 
C 407.25 348.75 383.84 338.67 356.25 340.80 C 328.66 342.93 313.94 349.14 293.23 367.23 C 272.52 385.32 260.54 413.54 258.00 439.00
C 288.47 441.33 320.09 439.34 351.00 440.00
C 375.47 413.91 405.07 391.06 429.00 364.00 Z"/>
</g>
<g fill="#000000" fill-opacity="0.00" stroke="None">
<path d="
M 638.00 439.00 
C 588.79 409.38 531.89 379.30 484.00 350.00
C 453.20 379.45 421.00 409.98 392.00 440.00
C 473.26 437.65 557.49 439.69 638.00 439.00 Z"/>
</g>
<g fill="#000000" fill-opacity="0.00" stroke="None">
<path d="
M 202.00 466.00 
C 190.30 470.09 193.74 489.98 194.00 500.00 C 194.26 510.02 190.32 529.34 199.75 533.81 C 209.18 538.28 223.27 533.81 236.00 535.00 C 248.73 536.19 264.67 534.45 278.00 535.00 C 291.33 535.55 305.39 534.76 319.00 535.00 C 332.61 535.24 347.27 534.89 361.00 535.00 C 374.73 535.11 388.21 534.95 402.00 535.00 C 415.79 535.05 430.18 534.98 444.00 535.00 C 457.82 535.02 471.17 534.99 485.00 535.00 C 498.83 535.01 513.17 535.00 527.00 535.00 C 540.83 535.00 554.18 535.00 568.00 535.00 C 581.82 535.00 596.21 535.00 610.00 535.00 C 623.79 535.00 637.26 535.01 651.00 535.00 C 664.74 534.99 679.38 535.02 693.00 535.00 C 706.62 534.98 720.65 535.04 734.00 535.00 C 747.35 534.96 763.22 535.08 776.00 535.00 C 788.78 534.92 797.93 536.68 799.40 524.74 C 800.88 512.81 798.92 497.12 800.00 484.00 C 801.08 470.88 794.66 464.61 781.00 466.00 C 767.34 467.39 752.76 465.36 739.00 466.00 C 725.24 466.64 711.80 465.72 698.00 466.00 C 684.20 466.28 669.82 465.87 656.00 466.00 C 642.18 466.13 628.83 465.94 615.00 466.00 C 601.17 466.06 586.83 465.97 573.00 466.00 C 559.17 466.03 545.83 465.98 532.00 466.00 C 518.17 466.02 503.83 465.98 490.00 466.00 C 476.17 466.02 462.82 465.97 449.00 466.00 C 435.18 466.03 420.80 465.93 407.00 466.00 C 393.20 466.07 379.75 465.84 366.00 466.00 C 352.25 466.16 337.65 465.66 324.00 466.00 C 310.35 466.34 296.40 465.23 283.00 466.00 C 269.60 466.77 253.89 464.33 241.00 466.00 C 228.11 467.67 212.99 462.16 202.00 466.00 Z"/>
</g>
<g fill="#000000" fill-opacity="0.05" stroke="None">
<path d="
M 366.00 699.00 
C 365.82 689.53 365.96 679.39 366.00 669.00 C 366.04 658.61 365.75 647.56 366.00 637.00 C 366.25 626.44 365.34 616.80 366.00 606.00 C 366.66 595.20 364.54 585.19 366.00 574.00 C 367.46 562.81 362.58 555.55 350.00 561.00
C 351.67 606.38 351.67 653.59 350.00 699.00
C 355.33 699.00 360.67 699.00 366.00 699.00 Z"/>
</g>
<g fill="#000000" fill-opacity="0.02" stroke="None">
<path d="
M 458.00 560.00 
C 453.39 561.21 447.57 561.89 443.00 560.00
C 444.66 605.75 444.67 653.25 443.00 699.00
C 448.00 699.00 453.00 699.00 458.00 699.00
C 458.01 652.81 457.98 605.50 458.00 560.00 Z"/>
</g>
<g fill="#000000" fill-opacity="0.07" stroke="None">
<path d="
M 550.00 560.00 
C 545.80 562.08 540.63 560.52 536.00 561.00
C 536.00 607.00 536.00 653.00 536.00 699.00
C 541.00 699.00 546.00 699.00 551.00 699.00
C 550.33 652.75 552.33 605.83 550.00 560.00 Z"/>
</g>
<g fill="#000000" fill-opacity="0.98" stroke="None">
<path d="
M 713.00 608.00 
C 668.66 609.93 622.73 641.53 602.77 680.77 C 582.81 720.01 583.82 765.19 607.68 805.32 C 631.54 845.45 680.13 871.97 726.93 869.93 C 773.72 867.88 814.48 841.10 837.90 799.90 C 861.32 758.70 858.57 711.40 833.39 671.75 C 808.22 632.10 760.49 605.94 713.00 608.00
M 710.00 629.00 
C 737.96 624.94 757.14 635.46 778.77 646.57 C 800.39 657.68 820.32 685.38 827.26 707.75 C 834.21 730.12 832.02 762.67 822.81 783.25 C 813.59 803.82 790.05 826.03 769.25 836.39 C 748.44 846.76 722.20 850.59 696.78 845.22 C 671.35 839.86 651.05 826.85 633.70 805.30 C 616.35 783.75 609.63 760.22 610.78 732.78 C 611.93 705.34 620.89 684.70 640.75 663.75 C 660.60 642.80 684.60 632.69 710.00 629.00 Z"/>
</g>
<g fill="#000000" fill-opacity="0.01" stroke="None">
<path d="
M 710.00 629.00 
C 684.60 632.69 660.60 642.80 640.75 663.75 C 620.89 684.70 611.93 705.34 610.78 732.78 C 609.63 760.22 616.35 783.75 633.70 805.30 C 651.05 826.85 671.35 839.86 696.78 845.22 C 722.20 850.59 748.44 846.76 769.25 836.39 C 790.05 826.03 813.59 803.82 822.81 783.25 C 832.02 762.67 834.21 730.12 827.26 707.75 C 820.32 685.38 800.39 657.68 778.77 646.57 C 757.14 635.46 737.96 624.94 710.00 629.00
M 733.00 676.00 
C 733.00 693.00 733.00 710.00 733.00 727.00
C 750.53 727.06 769.18 726.91 786.00 727.00
C 783.75 734.17 785.60 742.41 785.00 750.00
C 768.17 747.68 750.25 749.65 733.00 749.00
C 733.00 766.33 733.00 783.67 733.00 801.00
C 725.33 801.00 717.67 801.00 710.00 801.00
C 710.00 783.67 710.00 766.33 710.00 749.00
C 692.00 749.00 674.00 749.00 656.00 749.00
C 656.00 741.67 656.00 734.33 656.00 727.00
C 674.00 727.00 692.00 727.00 710.00 727.00
C 710.00 710.00 710.00 693.00 710.00 676.00
C 717.67 676.00 725.33 676.00 733.00 676.00 Z"/>
</g>
<g fill="#000000" fill-opacity="0.99" stroke="None">
<path d="
M 733.00 676.00 
C 725.33 676.00 717.67 676.00 710.00 676.00
C 710.00 693.00 710.00 710.00 710.00 727.00
C 692.00 727.00 674.00 727.00 656.00 727.00
C 656.00 734.33 656.00 741.67 656.00 749.00
C 674.00 749.00 692.00 749.00 710.00 749.00
C 710.00 766.33 710.00 783.67 710.00 801.00
C 717.67 801.00 725.33 801.00 733.00 801.00
C 733.00 783.67 733.00 766.33 733.00 749.00
C 750.25 749.65 768.17 747.68 785.00 750.00
C 785.60 742.41 783.75 734.17 786.00 727.00
C 769.18 726.91 750.53 727.06 733.00 727.00
C 733.00 710.00 733.00 693.00 733.00 676.00 Z"/>
</g>
</svg>