<svg xmlns="http://www.w3.org/2000/svg" xmlns:v="https://svgstorm.com" viewBox="178.24 91.76 824.19 824.19" width="100%" height="100%">
<g fill="None" fill-opacity="0.0" stroke="#000000" stroke-opacity="0.00" stroke-width="0.3"><path d=" M 0.00 1024.00  L 1024.00 1024.00 L 1024.00 0.00 L 0.00 0.00 L 0.00 1024.00 M 387.00 193.00  C 399.96 200.42 411.45 210.68 425.00 219.00 C 449.28 195.10 509.56 195.53 516.39 236.75 C 523.23 277.97 497.43 303.54 477.00 336.00 C 486.78 342.72 512.45 363.16 499.75 373.75 C 487.04 384.33 471.51 356.94 461.00 350.00 C 431.65 375.51 403.44 399.15 362.92 393.07 C 322.39 386.98 323.30 327.38 345.00 302.00 C 338.67 291.08 330.91 279.89 323.68 269.32 C 316.45 258.75 301.29 273.69 289.75 270.80 C 278.22 267.91 265.72 262.27 260.89 252.11 C 256.07 241.94 255.37 229.18 259.21 217.77 C 263.05 206.36 268.00 196.61 274.19 186.75 C 280.38 176.88 291.81 164.98 301.10 156.10 C 310.39 147.22 323.07 140.05 334.25 135.20 C 345.43 130.35 356.90 129.22 368.70 132.31 C 380.50 135.39 388.34 146.75 390.80 158.25 C 393.26 169.75 391.07 182.40 387.00 193.00 M 863.00 586.00  C 854.94 582.43 846.46 579.47 838.00 579.00 C 838.01 468.33 837.99 357.67 838.00 247.00 C 820.56 246.96 803.48 247.06 786.00 247.00 C 768.52 246.94 750.49 247.10 733.00 247.00 C 715.51 246.90 697.40 247.22 680.00 247.00 C 662.60 246.78 644.12 247.49 627.00 247.00 C 609.88 246.51 590.48 248.09 574.00 247.00 C 557.52 245.91 540.29 252.57 532.00 240.00 C 533.52 237.97 533.29 235.04 532.00 233.00 C 533.75 230.59 537.06 228.88 538.00 226.00 C 559.70 226.20 582.54 225.77 605.00 226.00 C 627.46 226.23 652.68 225.58 675.00 226.00 C 697.32 226.42 722.41 225.11 744.00 226.00 C 765.59 226.89 794.13 224.07 814.00 226.00 C 833.87 227.93 860.70 216.52 862.99 238.01 C 865.29 259.49 861.95 285.60 863.00 308.00 C 864.05 330.40 862.53 354.17 863.00 377.00 C 863.47 399.83 862.78 423.98 863.00 447.00 C 863.22 470.02 862.89 492.89 863.00 516.00 C 863.11 539.11 862.91 562.83 863.00 586.00 M 376.00 412.00  C 389.84 422.35 382.90 442.32 384.00 462.00 C 385.10 481.68 383.50 505.42 384.00 526.00 C 384.50 546.58 383.77 569.02 384.00 590.00 C 384.23 610.98 383.88 632.85 384.00 654.00 C 384.12 675.15 383.91 696.80 384.00 718.00 C 480.91 717.33 578.54 719.34 675.00 717.00 C 675.02 726.07 676.95 733.34 678.00 742.00 C 652.92 741.96 628.11 742.05 603.00 742.00 C 577.89 741.95 552.10 742.10 527.00 742.00 C 501.90 741.90 477.04 742.22 452.00 742.00 C 426.97 741.78 400.89 742.48 376.00 742.00 C 351.11 741.52 361.13 713.15 360.00 691.00 C 358.87 668.85 360.34 638.36 360.00 615.00 C 359.66 591.64 359.76 563.39 360.00 540.00 C 360.24 516.61 359.04 486.26 360.00 464.00 C 360.96 441.74 351.76 412.17 376.00 412.00 M 269.00 736.00  C 314.48 745.88 358.86 759.62 404.25 771.80 C 449.63 783.99 494.31 797.09 539.70 809.31 C 585.09 821.53 630.92 834.18 677.00 846.00 C 681.76 825.33 688.89 803.82 693.00 783.00 C 700.13 790.10 704.89 799.76 714.00 808.00 C 711.11 820.84 704.95 834.85 703.20 847.25 C 701.45 859.65 696.54 878.48 681.25 873.41 C 665.96 868.33 656.88 867.47 642.92 863.07 C 628.96 858.66 617.80 856.15 604.25 852.61 C 590.70 849.06 578.97 844.81 565.77 841.23 C 552.57 837.65 540.74 835.23 527.75 831.20 C 514.76 827.17 501.44 824.57 488.75 820.81 C 476.06 817.04 462.59 813.41 449.92 810.07 C 437.24 806.72 424.17 802.70 411.25 799.41 C 398.34 796.11 385.62 791.97 372.30 788.69 C 358.99 785.42 347.73 781.40 334.25 778.61 C 320.77 775.81 310.19 769.64 295.77 767.23 C 281.35 764.81 273.84 758.84 257.75 757.20 C 241.67 755.56 240.02 741.68 245.80 727.75 C 251.58 713.82 251.99 700.91 256.64 687.30 C 261.30 673.69 262.36 661.52 266.39 648.25 C 270.42 634.97 273.80 621.66 277.31 608.30 C 280.82 594.94 283.85 582.55 287.59 569.25 C 291.34 555.96 294.14 542.73 297.21 529.77 C 300.29 516.81 306.12 503.15 308.26 490.25 C 310.41 477.35 317.52 463.80 318.64 451.30 C 319.76 438.80 328.55 418.40 341.70 428.30 C 354.85 438.20 340.74 451.88 339.41 464.75 C 338.08 477.62 332.39 491.74 329.65 504.70 C 326.91 517.65 322.02 531.25 319.21 544.23 C 316.41 557.21 312.14 570.00 309.20 582.25 C 306.26 594.50 302.54 607.96 299.07 621.08 C 295.60 634.20 292.71 646.55 289.40 658.75 C 286.09 670.96 283.01 683.00 279.94 696.08 C 276.86 709.17 271.37 722.69 269.00 736.00 M 803.00 583.00  C 840.50 580.41 869.50 592.57 897.30 616.70 C 925.09 640.84 940.04 672.63 940.34 706.68 C 940.64 740.73 932.41 773.80 906.25 799.25 C 880.08 824.69 854.34 839.58 817.78 840.22 C 781.22 840.86 753.22 833.10 727.23 808.77 C 701.24 784.43 684.06 758.38 682.60 722.25 C 681.15 686.12 688.37 654.46 713.10 628.10 C 737.83 601.74 768.31 585.40 803.00 583.00 Z"/>
</g>
<g fill="None" fill-opacity="0.0" stroke="#000000" stroke-opacity="0.98" stroke-width="0.3"><path d=" M 387.00 193.00  C 391.07 182.40 393.26 169.75 390.80 158.25 C 388.34 146.75 380.50 135.39 368.70 132.31 C 356.90 129.22 345.43 130.35 334.25 135.20 C 323.07 140.05 310.39 147.22 301.10 156.10 C 291.81 164.98 280.38 176.88 274.19 186.75 C 268.00 196.61 263.05 206.36 259.21 217.77 C 255.37 229.18 256.07 241.94 260.89 252.11 C 265.72 262.27 278.22 267.91 289.75 270.80 C 301.29 273.69 316.45 258.75 323.68 269.32 C 330.91 279.89 338.67 291.08 345.00 302.00 C 323.30 327.38 322.39 386.98 362.92 393.07 C 403.44 399.15 431.65 375.51 461.00 350.00 C 471.51 356.94 487.04 384.33 499.75 373.75 C 512.45 363.16 486.78 342.72 477.00 336.00 C 497.43 303.54 523.23 277.97 516.39 236.75 C 509.56 195.53 449.28 195.10 425.00 219.00 C 411.45 210.68 399.96 200.42 387.00 193.00 M 352.00 152.00  C 371.04 149.14 372.09 169.78 364.23 184.23 C 356.37 198.68 348.95 212.18 334.30 224.30 C 319.66 236.43 314.16 239.87 297.25 245.39 C 280.33 250.91 275.68 229.68 283.39 217.25 C 291.10 204.82 297.76 191.50 311.25 179.25 C 324.73 167.00 334.53 154.63 352.00 152.00 M 423.00 245.00  C 423.53 261.09 411.18 270.78 401.25 283.25 C 391.32 295.71 371.09 304.83 362.30 289.70 C 353.50 274.58 347.86 267.95 339.00 253.00 C 355.64 243.16 368.87 227.87 378.00 212.00 C 393.72 223.04 407.90 233.21 423.00 245.00 M 360.00 317.00  C 371.26 321.36 382.58 319.99 393.23 315.23 C 403.88 310.47 414.41 302.02 423.92 291.92 C 433.43 281.81 437.45 273.51 442.20 262.75 C 446.94 252.00 444.69 241.08 442.00 231.00 C 455.49 223.09 492.84 217.31 494.20 242.25 C 495.55 267.19 485.84 280.35 475.09 298.10 C 464.35 315.85 443.01 338.33 425.97 349.97 C 408.92 361.61 387.21 376.86 364.75 371.80 C 342.30 366.74 353.88 328.67 360.00 317.00 Z"/>
</g>
<g fill="None" fill-opacity="0.0" stroke="#000000" stroke-opacity="0.02" stroke-width="0.3"><path d=" M 352.00 152.00  C 334.53 154.63 324.73 167.00 311.25 179.25 C 297.76 191.50 291.10 204.82 283.39 217.25 C 275.68 229.68 280.33 250.91 297.25 245.39 C 314.16 239.87 319.66 236.43 334.30 224.30 C 348.95 212.18 356.37 198.68 364.23 184.23 C 372.09 169.78 371.04 149.14 352.00 152.00 Z"/>
</g>
<g fill="None" fill-opacity="0.0" stroke="#000000" stroke-opacity="0.01" stroke-width="0.3"><path d=" M 423.00 245.00  C 407.90 233.21 393.72 223.04 378.00 212.00 C 368.87 227.87 355.64 243.16 339.00 253.00 C 347.86 267.95 353.50 274.58 362.30 289.70 C 371.09 304.83 391.32 295.71 401.25 283.25 C 411.18 270.78 423.53 261.09 423.00 245.00 Z"/>
</g>
<g fill="None" fill-opacity="0.0" stroke="#000000" stroke-opacity="0.01" stroke-width="0.3"><path d=" M 360.00 317.00  C 353.88 328.67 342.30 366.74 364.75 371.80 C 387.21 376.86 408.92 361.61 425.97 349.97 C 443.01 338.33 464.35 315.85 475.09 298.10 C 485.84 280.35 495.55 267.19 494.20 242.25 C 492.84 217.31 455.49 223.09 442.00 231.00 C 444.69 241.08 446.94 252.00 442.20 262.75 C 437.45 273.51 433.43 281.81 423.92 291.92 C 414.41 302.02 403.88 310.47 393.23 315.23 C 382.58 319.99 371.26 321.36 360.00 317.00 Z"/>
</g>
<g fill="None" fill-opacity="0.0" stroke="#000000" stroke-opacity="0.98" stroke-width="0.3"><path d=" M 863.00 586.00  C 862.91 562.83 863.11 539.11 863.00 516.00 C 862.89 492.89 863.22 470.02 863.00 447.00 C 862.78 423.98 863.47 399.83 863.00 377.00 C 862.53 354.17 864.05 330.40 863.00 308.00 C 861.95 285.60 865.29 259.49 862.99 238.01 C 860.70 216.52 833.87 227.93 814.00 226.00 C 794.13 224.07 765.59 226.89 744.00 226.00 C 722.41 225.11 697.32 226.42 675.00 226.00 C 652.68 225.58 627.46 226.23 605.00 226.00 C 582.54 225.77 559.70 226.20 538.00 226.00 C 537.06 228.88 533.75 230.59 532.00 233.00 C 533.29 235.04 533.52 237.97 532.00 240.00 C 540.29 252.57 557.52 245.91 574.00 247.00 C 590.48 248.09 609.88 246.51 627.00 247.00 C 644.12 247.49 662.60 246.78 680.00 247.00 C 697.40 247.22 715.51 246.90 733.00 247.00 C 750.49 247.10 768.52 246.94 786.00 247.00 C 803.48 247.06 820.56 246.96 838.00 247.00 C 837.99 357.67 838.01 468.33 838.00 579.00 C 846.46 579.47 854.94 582.43 863.00 586.00 Z"/>
</g>
<g fill="None" fill-opacity="0.0" stroke="#000000" stroke-opacity="0.98" stroke-width="0.3"><path d=" M 376.00 412.00  C 351.76 412.17 360.96 441.74 360.00 464.00 C 359.04 486.26 360.24 516.61 360.00 540.00 C 359.76 563.39 359.66 591.64 360.00 615.00 C 360.34 638.36 358.87 668.85 360.00 691.00 C 361.13 713.15 351.11 741.52 376.00 742.00 C 400.89 742.48 426.97 741.78 452.00 742.00 C 477.04 742.22 501.90 741.90 527.00 742.00 C 552.10 742.10 577.89 741.95 603.00 742.00 C 628.11 742.05 652.92 741.96 678.00 742.00 C 676.95 733.34 675.02 726.07 675.00 717.00 C 578.54 719.34 480.91 717.33 384.00 718.00 C 383.91 696.80 384.12 675.15 384.00 654.00 C 383.88 632.85 384.23 610.98 384.00 590.00 C 383.77 569.02 384.50 546.58 384.00 526.00 C 383.50 505.42 385.10 481.68 384.00 462.00 C 382.90 442.32 389.84 422.35 376.00 412.00 Z"/>
</g>
<g fill="None" fill-opacity="0.0" stroke="#000000" stroke-opacity="0.98" stroke-width="0.3"><path d=" M 269.00 736.00  C 271.37 722.69 276.86 709.17 279.94 696.08 C 283.01 683.00 286.09 670.96 289.40 658.75 C 292.71 646.55 295.60 634.20 299.07 621.08 C 302.54 607.96 306.26 594.50 309.20 582.25 C 312.14 570.00 316.41 557.21 319.21 544.23 C 322.02 531.25 326.91 517.65 329.65 504.70 C 332.39 491.74 338.08 477.62 339.41 464.75 C 340.74 451.88 354.85 438.20 341.70 428.30 C 328.55 418.40 319.76 438.80 318.64 451.30 C 317.52 463.80 310.41 477.35 308.26 490.25 C 306.12 503.15 300.29 516.81 297.21 529.77 C 294.14 542.73 291.34 555.96 287.59 569.25 C 283.85 582.55 280.82 594.94 277.31 608.30 C 273.80 621.66 270.42 634.97 266.39 648.25 C 262.36 661.52 261.30 673.69 256.64 687.30 C 251.99 700.91 251.58 713.82 245.80 727.75 C 240.02 741.68 241.67 755.56 257.75 757.20 C 273.84 758.84 281.35 764.81 295.77 767.23 C 310.19 769.64 320.77 775.81 334.25 778.61 C 347.73 781.40 358.99 785.42 372.30 788.69 C 385.62 791.97 398.34 796.11 411.25 799.41 C 424.17 802.70 437.24 806.72 449.92 810.07 C 462.59 813.41 476.06 817.04 488.75 820.81 C 501.44 824.57 514.76 827.17 527.75 831.20 C 540.74 835.23 552.57 837.65 565.77 841.23 C 578.97 844.81 590.70 849.06 604.25 852.61 C 617.80 856.15 628.96 858.66 642.92 863.07 C 656.88 867.47 665.96 868.33 681.25 873.41 C 696.54 878.48 701.45 859.65 703.20 847.25 C 704.95 834.85 711.11 820.84 714.00 808.00 C 704.89 799.76 700.13 790.10 693.00 783.00 C 688.89 803.82 681.76 825.33 677.00 846.00 C 630.92 834.18 585.09 821.53 539.70 809.31 C 494.31 797.09 449.63 783.99 404.25 771.80 C 358.86 759.62 314.48 745.88 269.00 736.00 Z"/>
</g>
<g fill="None" fill-opacity="0.0" stroke="#000000" stroke-opacity="0.98" stroke-width="0.3"><path d=" M 803.00 583.00  C 768.31 585.40 737.83 601.74 713.10 628.10 C 688.37 654.46 681.15 686.12 682.60 722.25 C 684.06 758.38 701.24 784.43 727.23 808.77 C 753.22 833.10 781.22 840.86 817.78 840.22 C 854.34 839.58 880.08 824.69 906.25 799.25 C 932.41 773.80 940.64 740.73 940.34 706.68 C 940.04 672.63 925.09 640.84 897.30 616.70 C 869.50 592.57 840.50 580.41 803.00 583.00 M 803.00 604.00  C 831.45 600.26 853.62 611.58 875.89 626.11 C 898.17 640.63 911.71 665.97 917.20 690.25 C 922.68 714.52 917.16 741.29 907.29 760.30 C 897.41 779.31 874.04 802.88 852.92 810.92 C 831.81 818.96 800.98 820.72 778.25 814.61 C 755.51 808.49 731.43 786.76 718.68 766.32 C 705.94 745.88 701.28 720.44 704.60 695.25 C 707.93 670.05 718.15 652.25 738.08 633.08 C 758.02 613.92 775.13 607.66 803.00 604.00 Z"/>
</g>
<g fill="None" fill-opacity="0.0" stroke="#000000" stroke-opacity="0.00" stroke-width="0.3"><path d=" M 803.00 604.00  C 775.13 607.66 758.02 613.92 738.08 633.08 C 718.15 652.25 707.93 670.05 704.60 695.25 C 701.28 720.44 705.94 745.88 718.68 766.32 C 731.43 786.76 755.51 808.49 778.25 814.61 C 800.98 820.72 831.81 818.96 852.92 810.92 C 874.04 802.88 897.41 779.31 907.29 760.30 C 917.16 741.29 922.68 714.52 917.20 690.25 C 911.71 665.97 898.17 640.63 875.89 626.11 C 853.62 611.58 831.45 600.26 803.00 604.00 M 824.00 652.00  C 821.68 668.50 823.65 686.08 823.00 703.00 C 841.00 703.00 859.00 703.00 877.00 703.00 C 877.59 709.93 875.77 717.51 878.00 724.00 C 860.50 724.08 841.19 723.94 823.00 724.00 C 824.65 731.67 824.20 739.86 824.00 748.00 C 823.80 756.14 824.73 764.79 824.00 773.00 C 823.27 781.21 807.78 775.13 802.00 777.00 C 802.00 759.33 802.00 741.67 802.00 724.00 C 783.33 724.00 764.67 724.00 746.00 724.00 C 746.00 717.00 746.00 710.00 746.00 703.00 C 765.00 703.00 784.00 703.00 803.00 703.00 C 800.68 686.17 802.66 668.25 802.00 651.00 C 808.49 651.95 817.27 649.51 824.00 652.00 Z"/>
</g>
<g fill="None" fill-opacity="0.0" stroke="#000000" stroke-opacity="0.98" stroke-width="0.3"><path d=" M 824.00 652.00  C 817.27 649.51 808.49 651.95 802.00 651.00 C 802.66 668.25 800.68 686.17 803.00 703.00 C 784.00 703.00 765.00 703.00 746.00 703.00 C 746.00 710.00 746.00 717.00 746.00 724.00 C 764.67 724.00 783.33 724.00 802.00 724.00 C 802.00 741.67 802.00 759.33 802.00 777.00 C 807.78 775.13 823.27 781.21 824.00 773.00 C 824.73 764.79 823.80 756.14 824.00 748.00 C 824.20 739.86 824.65 731.67 823.00 724.00 C 841.19 723.94 860.50 724.08 878.00 724.00 C 875.77 717.51 877.59 709.93 877.00 703.00 C 859.00 703.00 841.00 703.00 823.00 703.00 C 823.65 686.08 821.68 668.50 824.00 652.00 Z"/>
</g>
<g fill="#000000" fill-opacity="0.00" stroke="None">
<path d=" M 0.00 1024.00  L 1024.00 1024.00 L 1024.00 0.00 L 0.00 0.00 L 0.00 1024.00 M 387.00 193.00  C 399.96 200.42 411.45 210.68 425.00 219.00 C 449.28 195.10 509.56 195.53 516.39 236.75 C 523.23 277.97 497.43 303.54 477.00 336.00 C 486.78 342.72 512.45 363.16 499.75 373.75 C 487.04 384.33 471.51 356.94 461.00 350.00 C 431.65 375.51 403.44 399.15 362.92 393.07 C 322.39 386.98 323.30 327.38 345.00 302.00 C 338.67 291.08 330.91 279.89 323.68 269.32 C 316.45 258.75 301.29 273.69 289.75 270.80 C 278.22 267.91 265.72 262.27 260.89 252.11 C 256.07 241.94 255.37 229.18 259.21 217.77 C 263.05 206.36 268.00 196.61 274.19 186.75 C 280.38 176.88 291.81 164.98 301.10 156.10 C 310.39 147.22 323.07 140.05 334.25 135.20 C 345.43 130.35 356.90 129.22 368.70 132.31 C 380.50 135.39 388.34 146.75 390.80 158.25 C 393.26 169.75 391.07 182.40 387.00 193.00 M 863.00 586.00  C 854.94 582.43 846.46 579.47 838.00 579.00 C 838.01 468.33 837.99 357.67 838.00 247.00 C 820.56 246.96 803.48 247.06 786.00 247.00 C 768.52 246.94 750.49 247.10 733.00 247.00 C 715.51 246.90 697.40 247.22 680.00 247.00 C 662.60 246.78 644.12 247.49 627.00 247.00 C 609.88 246.51 590.48 248.09 574.00 247.00 C 557.52 245.91 540.29 252.57 532.00 240.00 C 533.52 237.97 533.29 235.04 532.00 233.00 C 533.75 230.59 537.06 228.88 538.00 226.00 C 559.70 226.20 582.54 225.77 605.00 226.00 C 627.46 226.23 652.68 225.58 675.00 226.00 C 697.32 226.42 722.41 225.11 744.00 226.00 C 765.59 226.89 794.13 224.07 814.00 226.00 C 833.87 227.93 860.70 216.52 862.99 238.01 C 865.29 259.49 861.95 285.60 863.00 308.00 C 864.05 330.40 862.53 354.17 863.00 377.00 C 863.47 399.83 862.78 423.98 863.00 447.00 C 863.22 470.02 862.89 492.89 863.00 516.00 C 863.11 539.11 862.91 562.83 863.00 586.00 M 376.00 412.00  C 389.84 422.35 382.90 442.32 384.00 462.00 C 385.10 481.68 383.50 505.42 384.00 526.00 C 384.50 546.58 383.77 569.02 384.00 590.00 C 384.23 610.98 383.88 632.85 384.00 654.00 C 384.12 675.15 383.91 696.80 384.00 718.00 C 480.91 717.33 578.54 719.34 675.00 717.00 C 675.02 726.07 676.95 733.34 678.00 742.00 C 652.92 741.96 628.11 742.05 603.00 742.00 C 577.89 741.95 552.10 742.10 527.00 742.00 C 501.90 741.90 477.04 742.22 452.00 742.00 C 426.97 741.78 400.89 742.48 376.00 742.00 C 351.11 741.52 361.13 713.15 360.00 691.00 C 358.87 668.85 360.34 638.36 360.00 615.00 C 359.66 591.64 359.76 563.39 360.00 540.00 C 360.24 516.61 359.04 486.26 360.00 464.00 C 360.96 441.74 351.76 412.17 376.00 412.00 M 269.00 736.00  C 314.48 745.88 358.86 759.62 404.25 771.80 C 449.63 783.99 494.31 797.09 539.70 809.31 C 585.09 821.53 630.92 834.18 677.00 846.00 C 681.76 825.33 688.89 803.82 693.00 783.00 C 700.13 790.10 704.89 799.76 714.00 808.00 C 711.11 820.84 704.95 834.85 703.20 847.25 C 701.45 859.65 696.54 878.48 681.25 873.41 C 665.96 868.33 656.88 867.47 642.92 863.07 C 628.96 858.66 617.80 856.15 604.25 852.61 C 590.70 849.06 578.97 844.81 565.77 841.23 C 552.57 837.65 540.74 835.23 527.75 831.20 C 514.76 827.17 501.44 824.57 488.75 820.81 C 476.06 817.04 462.59 813.41 449.92 810.07 C 437.24 806.72 424.17 802.70 411.25 799.41 C 398.34 796.11 385.62 791.97 372.30 788.69 C 358.99 785.42 347.73 781.40 334.25 778.61 C 320.77 775.81 310.19 769.64 295.77 767.23 C 281.35 764.81 273.84 758.84 257.75 757.20 C 241.67 755.56 240.02 741.68 245.80 727.75 C 251.58 713.82 251.99 700.91 256.64 687.30 C 261.30 673.69 262.36 661.52 266.39 648.25 C 270.42 634.97 273.80 621.66 277.31 608.30 C 280.82 594.94 283.85 582.55 287.59 569.25 C 291.34 555.96 294.14 542.73 297.21 529.77 C 300.29 516.81 306.12 503.15 308.26 490.25 C 310.41 477.35 317.52 463.80 318.64 451.30 C 319.76 438.80 328.55 418.40 341.70 428.30 C 354.85 438.20 340.74 451.88 339.41 464.75 C 338.08 477.62 332.39 491.74 329.65 504.70 C 326.91 517.65 322.02 531.25 319.21 544.23 C 316.41 557.21 312.14 570.00 309.20 582.25 C 306.26 594.50 302.54 607.96 299.07 621.08 C 295.60 634.20 292.71 646.55 289.40 658.75 C 286.09 670.96 283.01 683.00 279.94 696.08 C 276.86 709.17 271.37 722.69 269.00 736.00 M 803.00 583.00  C 840.50 580.41 869.50 592.57 897.30 616.70 C 925.09 640.84 940.04 672.63 940.34 706.68 C 940.64 740.73 932.41 773.80 906.25 799.25 C 880.08 824.69 854.34 839.58 817.78 840.22 C 781.22 840.86 753.22 833.10 727.23 808.77 C 701.24 784.43 684.06 758.38 682.60 722.25 C 681.15 686.12 688.37 654.46 713.10 628.10 C 737.83 601.74 768.31 585.40 803.00 583.00 Z"/>
</g>
<g fill="#000000" fill-opacity="0.98" stroke="None">
<path d=" M 387.00 193.00  C 391.07 182.40 393.26 169.75 390.80 158.25 C 388.34 146.75 380.50 135.39 368.70 132.31 C 356.90 129.22 345.43 130.35 334.25 135.20 C 323.07 140.05 310.39 147.22 301.10 156.10 C 291.81 164.98 280.38 176.88 274.19 186.75 C 268.00 196.61 263.05 206.36 259.21 217.77 C 255.37 229.18 256.07 241.94 260.89 252.11 C 265.72 262.27 278.22 267.91 289.75 270.80 C 301.29 273.69 316.45 258.75 323.68 269.32 C 330.91 279.89 338.67 291.08 345.00 302.00 C 323.30 327.38 322.39 386.98 362.92 393.07 C 403.44 399.15 431.65 375.51 461.00 350.00 C 471.51 356.94 487.04 384.33 499.75 373.75 C 512.45 363.16 486.78 342.72 477.00 336.00 C 497.43 303.54 523.23 277.97 516.39 236.75 C 509.56 195.53 449.28 195.10 425.00 219.00 C 411.45 210.68 399.96 200.42 387.00 193.00 M 352.00 152.00  C 371.04 149.14 372.09 169.78 364.23 184.23 C 356.37 198.68 348.95 212.18 334.30 224.30 C 319.66 236.43 314.16 239.87 297.25 245.39 C 280.33 250.91 275.68 229.68 283.39 217.25 C 291.10 204.82 297.76 191.50 311.25 179.25 C 324.73 167.00 334.53 154.63 352.00 152.00 M 423.00 245.00  C 423.53 261.09 411.18 270.78 401.25 283.25 C 391.32 295.71 371.09 304.83 362.30 289.70 C 353.50 274.58 347.86 267.95 339.00 253.00 C 355.64 243.16 368.87 227.87 378.00 212.00 C 393.72 223.04 407.90 233.21 423.00 245.00 M 360.00 317.00  C 371.26 321.36 382.58 319.99 393.23 315.23 C 403.88 310.47 414.41 302.02 423.92 291.92 C 433.43 281.81 437.45 273.51 442.20 262.75 C 446.94 252.00 444.69 241.08 442.00 231.00 C 455.49 223.09 492.84 217.31 494.20 242.25 C 495.55 267.19 485.84 280.35 475.09 298.10 C 464.35 315.85 443.01 338.33 425.97 349.97 C 408.92 361.61 387.21 376.86 364.75 371.80 C 342.30 366.74 353.88 328.67 360.00 317.00 Z"/>
</g>
<g fill="#000000" fill-opacity="0.02" stroke="None">
<path d=" M 352.00 152.00  C 334.53 154.63 324.73 167.00 311.25 179.25 C 297.76 191.50 291.10 204.82 283.39 217.25 C 275.68 229.68 280.33 250.91 297.25 245.39 C 314.16 239.87 319.66 236.43 334.30 224.30 C 348.95 212.18 356.37 198.68 364.23 184.23 C 372.09 169.78 371.04 149.14 352.00 152.00 Z"/>
</g>
<g fill="#000000" fill-opacity="0.01" stroke="None">
<path d=" M 423.00 245.00  C 407.90 233.21 393.72 223.04 378.00 212.00 C 368.87 227.87 355.64 243.16 339.00 253.00 C 347.86 267.95 353.50 274.58 362.30 289.70 C 371.09 304.83 391.32 295.71 401.25 283.25 C 411.18 270.78 423.53 261.09 423.00 245.00 Z"/>
</g>
<g fill="#000000" fill-opacity="0.01" stroke="None">
<path d=" M 360.00 317.00  C 353.88 328.67 342.30 366.74 364.75 371.80 C 387.21 376.86 408.92 361.61 425.97 349.97 C 443.01 338.33 464.35 315.85 475.09 298.10 C 485.84 280.35 495.55 267.19 494.20 242.25 C 492.84 217.31 455.49 223.09 442.00 231.00 C 444.69 241.08 446.94 252.00 442.20 262.75 C 437.45 273.51 433.43 281.81 423.92 291.92 C 414.41 302.02 403.88 310.47 393.23 315.23 C 382.58 319.99 371.26 321.36 360.00 317.00 Z"/>
</g>
<g fill="#000000" fill-opacity="0.98" stroke="None">
<path d=" M 863.00 586.00  C 862.91 562.83 863.11 539.11 863.00 516.00 C 862.89 492.89 863.22 470.02 863.00 447.00 C 862.78 423.98 863.47 399.83 863.00 377.00 C 862.53 354.17 864.05 330.40 863.00 308.00 C 861.95 285.60 865.29 259.49 862.99 238.01 C 860.70 216.52 833.87 227.93 814.00 226.00 C 794.13 224.07 765.59 226.89 744.00 226.00 C 722.41 225.11 697.32 226.42 675.00 226.00 C 652.68 225.58 627.46 226.23 605.00 226.00 C 582.54 225.77 559.70 226.20 538.00 226.00 C 537.06 228.88 533.75 230.59 532.00 233.00 C 533.29 235.04 533.52 237.97 532.00 240.00 C 540.29 252.57 557.52 245.91 574.00 247.00 C 590.48 248.09 609.88 246.51 627.00 247.00 C 644.12 247.49 662.60 246.78 680.00 247.00 C 697.40 247.22 715.51 246.90 733.00 247.00 C 750.49 247.10 768.52 246.94 786.00 247.00 C 803.48 247.06 820.56 246.96 838.00 247.00 C 837.99 357.67 838.01 468.33 838.00 579.00 C 846.46 579.47 854.94 582.43 863.00 586.00 Z"/>
</g>
<g fill="#000000" fill-opacity="0.98" stroke="None">
<path d=" M 376.00 412.00  C 351.76 412.17 360.96 441.74 360.00 464.00 C 359.04 486.26 360.24 516.61 360.00 540.00 C 359.76 563.39 359.66 591.64 360.00 615.00 C 360.34 638.36 358.87 668.85 360.00 691.00 C 361.13 713.15 351.11 741.52 376.00 742.00 C 400.89 742.48 426.97 741.78 452.00 742.00 C 477.04 742.22 501.90 741.90 527.00 742.00 C 552.10 742.10 577.89 741.95 603.00 742.00 C 628.11 742.05 652.92 741.96 678.00 742.00 C 676.95 733.34 675.02 726.07 675.00 717.00 C 578.54 719.34 480.91 717.33 384.00 718.00 C 383.91 696.80 384.12 675.15 384.00 654.00 C 383.88 632.85 384.23 610.98 384.00 590.00 C 383.77 569.02 384.50 546.58 384.00 526.00 C 383.50 505.42 385.10 481.68 384.00 462.00 C 382.90 442.32 389.84 422.35 376.00 412.00 Z"/>
</g>
<g fill="#000000" fill-opacity="0.98" stroke="None">
<path d=" M 269.00 736.00  C 271.37 722.69 276.86 709.17 279.94 696.08 C 283.01 683.00 286.09 670.96 289.40 658.75 C 292.71 646.55 295.60 634.20 299.07 621.08 C 302.54 607.96 306.26 594.50 309.20 582.25 C 312.14 570.00 316.41 557.21 319.21 544.23 C 322.02 531.25 326.91 517.65 329.65 504.70 C 332.39 491.74 338.08 477.62 339.41 464.75 C 340.74 451.88 354.85 438.20 341.70 428.30 C 328.55 418.40 319.76 438.80 318.64 451.30 C 317.52 463.80 310.41 477.35 308.26 490.25 C 306.12 503.15 300.29 516.81 297.21 529.77 C 294.14 542.73 291.34 555.96 287.59 569.25 C 283.85 582.55 280.82 594.94 277.31 608.30 C 273.80 621.66 270.42 634.97 266.39 648.25 C 262.36 661.52 261.30 673.69 256.64 687.30 C 251.99 700.91 251.58 713.82 245.80 727.75 C 240.02 741.68 241.67 755.56 257.75 757.20 C 273.84 758.84 281.35 764.81 295.77 767.23 C 310.19 769.64 320.77 775.81 334.25 778.61 C 347.73 781.40 358.99 785.42 372.30 788.69 C 385.62 791.97 398.34 796.11 411.25 799.41 C 424.17 802.70 437.24 806.72 449.92 810.07 C 462.59 813.41 476.06 817.04 488.75 820.81 C 501.44 824.57 514.76 827.17 527.75 831.20 C 540.74 835.23 552.57 837.65 565.77 841.23 C 578.97 844.81 590.70 849.06 604.25 852.61 C 617.80 856.15 628.96 858.66 642.92 863.07 C 656.88 867.47 665.96 868.33 681.25 873.41 C 696.54 878.48 701.45 859.65 703.20 847.25 C 704.95 834.85 711.11 820.84 714.00 808.00 C 704.89 799.76 700.13 790.10 693.00 783.00 C 688.89 803.82 681.76 825.33 677.00 846.00 C 630.92 834.18 585.09 821.53 539.70 809.31 C 494.31 797.09 449.63 783.99 404.25 771.80 C 358.86 759.62 314.48 745.88 269.00 736.00 Z"/>
</g>
<g fill="#000000" fill-opacity="0.98" stroke="None">
<path d=" M 803.00 583.00  C 768.31 585.40 737.83 601.74 713.10 628.10 C 688.37 654.46 681.15 686.12 682.60 722.25 C 684.06 758.38 701.24 784.43 727.23 808.77 C 753.22 833.10 781.22 840.86 817.78 840.22 C 854.34 839.58 880.08 824.69 906.25 799.25 C 932.41 773.80 940.64 740.73 940.34 706.68 C 940.04 672.63 925.09 640.84 897.30 616.70 C 869.50 592.57 840.50 580.41 803.00 583.00 M 803.00 604.00  C 831.45 600.26 853.62 611.58 875.89 626.11 C 898.17 640.63 911.71 665.97 917.20 690.25 C 922.68 714.52 917.16 741.29 907.29 760.30 C 897.41 779.31 874.04 802.88 852.92 810.92 C 831.81 818.96 800.98 820.72 778.25 814.61 C 755.51 808.49 731.43 786.76 718.68 766.32 C 705.94 745.88 701.28 720.44 704.60 695.25 C 707.93 670.05 718.15 652.25 738.08 633.08 C 758.02 613.92 775.13 607.66 803.00 604.00 Z"/>
</g>
<g fill="#000000" fill-opacity="0.00" stroke="None">
<path d=" M 803.00 604.00  C 775.13 607.66 758.02 613.92 738.08 633.08 C 718.15 652.25 707.93 670.05 704.60 695.25 C 701.28 720.44 705.94 745.88 718.68 766.32 C 731.43 786.76 755.51 808.49 778.25 814.61 C 800.98 820.72 831.81 818.96 852.92 810.92 C 874.04 802.88 897.41 779.31 907.29 760.30 C 917.16 741.29 922.68 714.52 917.20 690.25 C 911.71 665.97 898.17 640.63 875.89 626.11 C 853.62 611.58 831.45 600.26 803.00 604.00 M 824.00 652.00  C 821.68 668.50 823.65 686.08 823.00 703.00 C 841.00 703.00 859.00 703.00 877.00 703.00 C 877.59 709.93 875.77 717.51 878.00 724.00 C 860.50 724.08 841.19 723.94 823.00 724.00 C 824.65 731.67 824.20 739.86 824.00 748.00 C 823.80 756.14 824.73 764.79 824.00 773.00 C 823.27 781.21 807.78 775.13 802.00 777.00 C 802.00 759.33 802.00 741.67 802.00 724.00 C 783.33 724.00 764.67 724.00 746.00 724.00 C 746.00 717.00 746.00 710.00 746.00 703.00 C 765.00 703.00 784.00 703.00 803.00 703.00 C 800.68 686.17 802.66 668.25 802.00 651.00 C 808.49 651.95 817.27 649.51 824.00 652.00 Z"/>
</g>
<g fill="#000000" fill-opacity="0.98" stroke="None">
<path d=" M 824.00 652.00  C 817.27 649.51 808.49 651.95 802.00 651.00 C 802.66 668.25 800.68 686.17 803.00 703.00 C 784.00 703.00 765.00 703.00 746.00 703.00 C 746.00 710.00 746.00 717.00 746.00 724.00 C 764.67 724.00 783.33 724.00 802.00 724.00 C 802.00 741.67 802.00 759.33 802.00 777.00 C 807.78 775.13 823.27 781.21 824.00 773.00 C 824.73 764.79 823.80 756.14 824.00 748.00 C 824.20 739.86 824.65 731.67 823.00 724.00 C 841.19 723.94 860.50 724.08 878.00 724.00 C 875.77 717.51 877.59 709.93 877.00 703.00 C 859.00 703.00 841.00 703.00 823.00 703.00 C 823.65 686.08 821.68 668.50 824.00 652.00 Z"/>
</g>
</svg>
