<svg xmlns="http://www.w3.org/2000/svg" xmlns:v="https://svgstorm.com" viewBox="371.46 116.29 764.32 764.32" width="100%" height="100%">
<g fill="None" fill-opacity="0.0" stroke="#000000" stroke-opacity="0.00" stroke-width="0.3"><path d=" M 0.00 1024.00  L 1536.00 1024.00 L 1536.00 0.00 L 0.00 0.00 L 0.00 1024.00 M 670.00 171.00  C 714.48 166.68 755.10 179.23 788.30 205.70 C 821.49 232.18 844.25 269.98 846.80 311.25 C 849.35 352.52 838.64 398.75 808.25 429.25 C 777.86 459.75 745.32 478.92 702.33 480.67 C 659.33 482.41 620.14 474.36 587.90 446.10 C 555.66 417.84 533.88 383.42 530.22 341.78 C 526.56 300.14 538.10 253.72 568.25 223.25 C 598.40 192.78 630.06 174.88 670.00 171.00 M 659.00 517.00  C 667.30 516.56 676.87 518.51 687.00 518.00 C 697.13 517.49 707.36 517.20 717.00 518.00 C 726.64 518.80 733.40 518.55 742.07 519.93 C 750.74 521.30 754.64 519.18 763.75 521.60 C 772.86 524.03 773.81 522.12 785.01 524.99 C 796.21 527.86 812.38 531.19 821.30 535.71 C 830.21 540.23 832.25 537.95 840.25 542.76 C 848.25 547.56 853.29 547.79 859.25 551.19 C 865.21 554.59 868.15 557.21 877.25 562.75 C 886.34 568.30 875.89 574.63 867.77 577.77 C 859.65 580.91 855.20 586.27 848.75 591.75 C 842.30 597.23 837.31 603.29 833.70 610.70 C 830.08 618.10 822.91 623.01 820.23 631.23 C 817.55 639.45 815.23 647.53 812.22 656.22 C 809.22 664.92 808.57 675.42 807.02 685.02 C 805.48 694.63 807.61 707.40 809.33 716.67 C 811.05 725.94 811.81 735.55 814.32 744.68 C 816.83 753.81 819.81 760.14 824.26 768.74 C 828.70 777.34 832.19 780.06 839.23 787.77 C 846.27 795.48 828.63 795.92 819.00 795.00 C 809.37 794.08 795.53 795.42 785.00 795.00 C 774.47 794.58 761.88 795.19 751.00 795.00 C 740.12 794.81 729.07 795.08 718.00 795.00 C 706.93 794.92 695.17 795.04 684.00 795.00 C 672.83 794.96 661.17 795.02 650.00 795.00 C 638.83 794.98 628.16 795.02 617.00 795.00 C 605.84 794.98 594.15 795.02 583.00 795.00 C 571.85 794.98 561.12 795.05 550.00 795.00 C 538.88 794.95 527.06 795.10 516.00 795.00 C 504.94 794.90 492.82 795.23 482.00 795.00 C 471.18 794.77 459.32 795.52 449.00 795.00 C 438.68 794.48 427.76 796.64 419.75 793.81 C 411.74 790.97 408.20 784.47 407.20 776.75 C 406.20 769.03 407.79 754.69 407.61 747.25 C 407.42 739.81 408.51 732.61 409.60 725.25 C 410.70 717.88 411.90 711.28 413.21 703.77 C 414.53 696.27 416.70 692.61 418.39 684.25 C 420.09 675.89 422.71 676.71 425.77 665.77 C 428.83 654.83 439.51 636.09 445.71 626.70 C 451.92 617.30 453.85 614.17 459.90 606.90 C 465.95 599.64 469.20 595.24 475.75 588.75 C 482.31 582.26 486.67 578.50 493.23 573.23 C 499.79 567.97 506.65 563.02 512.89 558.89 C 519.14 554.77 526.05 550.86 533.23 547.23 C 540.41 543.60 547.04 539.92 553.75 537.41 C 560.46 534.91 565.52 532.64 571.75 530.74 C 577.98 528.83 583.34 526.57 590.23 525.23 C 597.12 523.88 603.77 522.50 611.22 521.22 C 618.67 519.94 625.10 519.66 633.02 519.02 C 640.95 518.39 650.00 517.47 659.00 517.00 M 945.00 564.00  C 990.57 559.79 1040.43 581.14 1067.97 621.03 C 1095.51 660.91 1101.04 707.10 1080.81 750.25 C 1060.58 793.40 1018.57 821.09 972.32 825.66 C 926.07 830.23 874.25 809.38 847.22 770.78 C 820.20 732.17 813.54 685.32 833.92 639.92 C 854.31 594.53 900.69 568.09 945.00 564.00 Z"/>
</g>
<g fill="None" fill-opacity="0.0" stroke="#000000" stroke-opacity="1.00" stroke-width="0.3"><path d=" M 670.00 171.00  C 630.06 174.88 598.40 192.78 568.25 223.25 C 538.10 253.72 526.56 300.14 530.22 341.78 C 533.88 383.42 555.66 417.84 587.90 446.10 C 620.14 474.36 659.33 482.41 702.33 480.67 C 745.32 478.92 777.86 459.75 808.25 429.25 C 838.64 398.75 849.35 352.52 846.80 311.25 C 844.25 269.98 821.49 232.18 788.30 205.70 C 755.10 179.23 714.48 166.68 670.00 171.00 Z"/>
</g>
<g fill="None" fill-opacity="0.0" stroke="#000000" stroke-opacity="1.00" stroke-width="0.3"><path d=" M 659.00 517.00  C 650.00 517.47 640.95 518.39 633.02 519.02 C 625.10 519.66 618.67 519.94 611.22 521.22 C 603.77 522.50 597.12 523.88 590.23 525.23 C 583.34 526.57 577.98 528.83 571.75 530.74 C 565.52 532.64 560.46 534.91 553.75 537.41 C 547.04 539.92 540.41 543.60 533.23 547.23 C 526.05 550.86 519.14 554.77 512.89 558.89 C 506.65 563.02 499.79 567.97 493.23 573.23 C 486.67 578.50 482.31 582.26 475.75 588.75 C 469.20 595.24 465.95 599.64 459.90 606.90 C 453.85 614.17 451.92 617.30 445.71 626.70 C 439.51 636.09 428.83 654.83 425.77 665.77 C 422.71 676.71 420.09 675.89 418.39 684.25 C 416.70 692.61 414.53 696.27 413.21 703.77 C 411.90 711.28 410.70 717.88 409.60 725.25 C 408.51 732.61 407.42 739.81 407.61 747.25 C 407.79 754.69 406.20 769.03 407.20 776.75 C 408.20 784.47 411.74 790.97 419.75 793.81 C 427.76 796.64 438.68 794.48 449.00 795.00 C 459.32 795.52 471.18 794.77 482.00 795.00 C 492.82 795.23 504.94 794.90 516.00 795.00 C 527.06 795.10 538.88 794.95 550.00 795.00 C 561.12 795.05 571.85 794.98 583.00 795.00 C 594.15 795.02 605.84 794.98 617.00 795.00 C 628.16 795.02 638.83 794.98 650.00 795.00 C 661.17 795.02 672.83 794.96 684.00 795.00 C 695.17 795.04 706.93 794.92 718.00 795.00 C 729.07 795.08 740.12 794.81 751.00 795.00 C 761.88 795.19 774.47 794.58 785.00 795.00 C 795.53 795.42 809.37 794.08 819.00 795.00 C 828.63 795.92 846.27 795.48 839.23 787.77 C 832.19 780.06 828.70 777.34 824.26 768.74 C 819.81 760.14 816.83 753.81 814.32 744.68 C 811.81 735.55 811.05 725.94 809.33 716.67 C 807.61 707.40 805.48 694.63 807.02 685.02 C 808.57 675.42 809.22 664.92 812.22 656.22 C 815.23 647.53 817.55 639.45 820.23 631.23 C 822.91 623.01 830.08 618.10 833.70 610.70 C 837.31 603.29 842.30 597.23 848.75 591.75 C 855.20 586.27 859.65 580.91 867.77 577.77 C 875.89 574.63 886.34 568.30 877.25 562.75 C 868.15 557.21 865.21 554.59 859.25 551.19 C 853.29 547.79 848.25 547.56 840.25 542.76 C 832.25 537.95 830.21 540.23 821.30 535.71 C 812.38 531.19 796.21 527.86 785.01 524.99 C 773.81 522.12 772.86 524.03 763.75 521.60 C 754.64 519.18 750.74 521.30 742.07 519.93 C 733.40 518.55 726.64 518.80 717.00 518.00 C 707.36 517.20 697.13 517.49 687.00 518.00 C 676.87 518.51 667.30 516.56 659.00 517.00 Z"/>
</g>
<g fill="None" fill-opacity="0.0" stroke="#000000" stroke-opacity="0.99" stroke-width="0.3"><path d=" M 945.00 564.00  C 900.69 568.09 854.31 594.53 833.92 639.92 C 813.54 685.32 820.20 732.17 847.22 770.78 C 874.25 809.38 926.07 830.23 972.32 825.66 C 1018.57 821.09 1060.58 793.40 1080.81 750.25 C 1101.04 707.10 1095.51 660.91 1067.97 621.03 C 1040.43 581.14 990.57 559.79 945.00 564.00 M 1011.00 617.00  C 968.57 661.09 922.27 703.09 881.00 747.00 C 851.22 713.91 858.45 660.78 889.75 629.75 C 921.05 598.72 973.84 591.65 1011.00 617.00 M 1040.00 647.00  C 1061.74 682.86 1055.54 731.82 1025.25 761.25 C 994.95 790.67 946.19 796.77 910.00 775.00 C 953.16 730.99 995.81 688.40 1040.00 647.00 Z"/>
</g>
<g fill="None" fill-opacity="0.0" stroke="#FFFFFF" stroke-opacity="1.00" stroke-width="0.3"><path d=" M 1011.00 617.00  C 973.84 591.65 921.05 598.72 889.75 629.75 C 858.45 660.78 851.22 713.91 881.00 747.00 C 922.27 703.09 968.57 661.09 1011.00 617.00 Z"/>
</g>
<g fill="None" fill-opacity="0.0" stroke="#FFFFFF" stroke-opacity="0.99" stroke-width="0.3"><path d=" M 1040.00 647.00  C 995.81 688.40 953.16 730.99 910.00 775.00 C 946.19 796.77 994.95 790.67 1025.25 761.25 C 1055.54 731.82 1061.74 682.86 1040.00 647.00 Z"/>
</g>
<g fill="#000000" fill-opacity="0.00" stroke="None">
<path d=" M 0.00 1024.00  L 1536.00 1024.00 L 1536.00 0.00 L 0.00 0.00 L 0.00 1024.00 M 670.00 171.00  C 714.48 166.68 755.10 179.23 788.30 205.70 C 821.49 232.18 844.25 269.98 846.80 311.25 C 849.35 352.52 838.64 398.75 808.25 429.25 C 777.86 459.75 745.32 478.92 702.33 480.67 C 659.33 482.41 620.14 474.36 587.90 446.10 C 555.66 417.84 533.88 383.42 530.22 341.78 C 526.56 300.14 538.10 253.72 568.25 223.25 C 598.40 192.78 630.06 174.88 670.00 171.00 M 659.00 517.00  C 667.30 516.56 676.87 518.51 687.00 518.00 C 697.13 517.49 707.36 517.20 717.00 518.00 C 726.64 518.80 733.40 518.55 742.07 519.93 C 750.74 521.30 754.64 519.18 763.75 521.60 C 772.86 524.03 773.81 522.12 785.01 524.99 C 796.21 527.86 812.38 531.19 821.30 535.71 C 830.21 540.23 832.25 537.95 840.25 542.76 C 848.25 547.56 853.29 547.79 859.25 551.19 C 865.21 554.59 868.15 557.21 877.25 562.75 C 886.34 568.30 875.89 574.63 867.77 577.77 C 859.65 580.91 855.20 586.27 848.75 591.75 C 842.30 597.23 837.31 603.29 833.70 610.70 C 830.08 618.10 822.91 623.01 820.23 631.23 C 817.55 639.45 815.23 647.53 812.22 656.22 C 809.22 664.92 808.57 675.42 807.02 685.02 C 805.48 694.63 807.61 707.40 809.33 716.67 C 811.05 725.94 811.81 735.55 814.32 744.68 C 816.83 753.81 819.81 760.14 824.26 768.74 C 828.70 777.34 832.19 780.06 839.23 787.77 C 846.27 795.48 828.63 795.92 819.00 795.00 C 809.37 794.08 795.53 795.42 785.00 795.00 C 774.47 794.58 761.88 795.19 751.00 795.00 C 740.12 794.81 729.07 795.08 718.00 795.00 C 706.93 794.92 695.17 795.04 684.00 795.00 C 672.83 794.96 661.17 795.02 650.00 795.00 C 638.83 794.98 628.16 795.02 617.00 795.00 C 605.84 794.98 594.15 795.02 583.00 795.00 C 571.85 794.98 561.12 795.05 550.00 795.00 C 538.88 794.95 527.06 795.10 516.00 795.00 C 504.94 794.90 492.82 795.23 482.00 795.00 C 471.18 794.77 459.32 795.52 449.00 795.00 C 438.68 794.48 427.76 796.64 419.75 793.81 C 411.74 790.97 408.20 784.47 407.20 776.75 C 406.20 769.03 407.79 754.69 407.61 747.25 C 407.42 739.81 408.51 732.61 409.60 725.25 C 410.70 717.88 411.90 711.28 413.21 703.77 C 414.53 696.27 416.70 692.61 418.39 684.25 C 420.09 675.89 422.71 676.71 425.77 665.77 C 428.83 654.83 439.51 636.09 445.71 626.70 C 451.92 617.30 453.85 614.17 459.90 606.90 C 465.95 599.64 469.20 595.24 475.75 588.75 C 482.31 582.26 486.67 578.50 493.23 573.23 C 499.79 567.97 506.65 563.02 512.89 558.89 C 519.14 554.77 526.05 550.86 533.23 547.23 C 540.41 543.60 547.04 539.92 553.75 537.41 C 560.46 534.91 565.52 532.64 571.75 530.74 C 577.98 528.83 583.34 526.57 590.23 525.23 C 597.12 523.88 603.77 522.50 611.22 521.22 C 618.67 519.94 625.10 519.66 633.02 519.02 C 640.95 518.39 650.00 517.47 659.00 517.00 M 945.00 564.00  C 990.57 559.79 1040.43 581.14 1067.97 621.03 C 1095.51 660.91 1101.04 707.10 1080.81 750.25 C 1060.58 793.40 1018.57 821.09 972.32 825.66 C 926.07 830.23 874.25 809.38 847.22 770.78 C 820.20 732.17 813.54 685.32 833.92 639.92 C 854.31 594.53 900.69 568.09 945.00 564.00 Z"/>
</g>
<g fill="#000000" fill-opacity="1.00" stroke="None">
<path d=" M 670.00 171.00  C 630.06 174.88 598.40 192.78 568.25 223.25 C 538.10 253.72 526.56 300.14 530.22 341.78 C 533.88 383.42 555.66 417.84 587.90 446.10 C 620.14 474.36 659.33 482.41 702.33 480.67 C 745.32 478.92 777.86 459.75 808.25 429.25 C 838.64 398.75 849.35 352.52 846.80 311.25 C 844.25 269.98 821.49 232.18 788.30 205.70 C 755.10 179.23 714.48 166.68 670.00 171.00 Z"/>
</g>
<g fill="#000000" fill-opacity="1.00" stroke="None">
<path d=" M 659.00 517.00  C 650.00 517.47 640.95 518.39 633.02 519.02 C 625.10 519.66 618.67 519.94 611.22 521.22 C 603.77 522.50 597.12 523.88 590.23 525.23 C 583.34 526.57 577.98 528.83 571.75 530.74 C 565.52 532.64 560.46 534.91 553.75 537.41 C 547.04 539.92 540.41 543.60 533.23 547.23 C 526.05 550.86 519.14 554.77 512.89 558.89 C 506.65 563.02 499.79 567.97 493.23 573.23 C 486.67 578.50 482.31 582.26 475.75 588.75 C 469.20 595.24 465.95 599.64 459.90 606.90 C 453.85 614.17 451.92 617.30 445.71 626.70 C 439.51 636.09 428.83 654.83 425.77 665.77 C 422.71 676.71 420.09 675.89 418.39 684.25 C 416.70 692.61 414.53 696.27 413.21 703.77 C 411.90 711.28 410.70 717.88 409.60 725.25 C 408.51 732.61 407.42 739.81 407.61 747.25 C 407.79 754.69 406.20 769.03 407.20 776.75 C 408.20 784.47 411.74 790.97 419.75 793.81 C 427.76 796.64 438.68 794.48 449.00 795.00 C 459.32 795.52 471.18 794.77 482.00 795.00 C 492.82 795.23 504.94 794.90 516.00 795.00 C 527.06 795.10 538.88 794.95 550.00 795.00 C 561.12 795.05 571.85 794.98 583.00 795.00 C 594.15 795.02 605.84 794.98 617.00 795.00 C 628.16 795.02 638.83 794.98 650.00 795.00 C 661.17 795.02 672.83 794.96 684.00 795.00 C 695.17 795.04 706.93 794.92 718.00 795.00 C 729.07 795.08 740.12 794.81 751.00 795.00 C 761.88 795.19 774.47 794.58 785.00 795.00 C 795.53 795.42 809.37 794.08 819.00 795.00 C 828.63 795.92 846.27 795.48 839.23 787.77 C 832.19 780.06 828.70 777.34 824.26 768.74 C 819.81 760.14 816.83 753.81 814.32 744.68 C 811.81 735.55 811.05 725.94 809.33 716.67 C 807.61 707.40 805.48 694.63 807.02 685.02 C 808.57 675.42 809.22 664.92 812.22 656.22 C 815.23 647.53 817.55 639.45 820.23 631.23 C 822.91 623.01 830.08 618.10 833.70 610.70 C 837.31 603.29 842.30 597.23 848.75 591.75 C 855.20 586.27 859.65 580.91 867.77 577.77 C 875.89 574.63 886.34 568.30 877.25 562.75 C 868.15 557.21 865.21 554.59 859.25 551.19 C 853.29 547.79 848.25 547.56 840.25 542.76 C 832.25 537.95 830.21 540.23 821.30 535.71 C 812.38 531.19 796.21 527.86 785.01 524.99 C 773.81 522.12 772.86 524.03 763.75 521.60 C 754.64 519.18 750.74 521.30 742.07 519.93 C 733.40 518.55 726.64 518.80 717.00 518.00 C 707.36 517.20 697.13 517.49 687.00 518.00 C 676.87 518.51 667.30 516.56 659.00 517.00 Z"/>
</g>
<g fill="#000000" fill-opacity="0.99" stroke="None">
<path d=" M 945.00 564.00  C 900.69 568.09 854.31 594.53 833.92 639.92 C 813.54 685.32 820.20 732.17 847.22 770.78 C 874.25 809.38 926.07 830.23 972.32 825.66 C 1018.57 821.09 1060.58 793.40 1080.81 750.25 C 1101.04 707.10 1095.51 660.91 1067.97 621.03 C 1040.43 581.14 990.57 559.79 945.00 564.00 M 1011.00 617.00  C 968.57 661.09 922.27 703.09 881.00 747.00 C 851.22 713.91 858.45 660.78 889.75 629.75 C 921.05 598.72 973.84 591.65 1011.00 617.00 M 1040.00 647.00  C 1061.74 682.86 1055.54 731.82 1025.25 761.25 C 994.95 790.67 946.19 796.77 910.00 775.00 C 953.16 730.99 995.81 688.40 1040.00 647.00 Z"/>
</g>
<g fill="#FFFFFF" fill-opacity="1.00" stroke="None">
<path d=" M 1011.00 617.00  C 973.84 591.65 921.05 598.72 889.75 629.75 C 858.45 660.78 851.22 713.91 881.00 747.00 C 922.27 703.09 968.57 661.09 1011.00 617.00 Z"/>
</g>
<g fill="#FFFFFF" fill-opacity="0.99" stroke="None">
<path d=" M 1040.00 647.00  C 995.81 688.40 953.16 730.99 910.00 775.00 C 946.19 796.77 994.95 790.67 1025.25 761.25 C 1055.54 731.82 1061.74 682.86 1040.00 647.00 Z"/>
</g>
</svg>
