<svg xmlns="http://www.w3.org/2000/svg" xmlns:v="https://svgstorm.com"
viewBox = "0 0 1536 1024"
width="1536"
height="1024">
<g fill="None" fill-opacity="0.0" stroke="#000000" stroke-opacity="0.00" stroke-width="0.3"><path d="
M 0.00 1024.00 
L 1536.00 1024.00
L 1536.00 0.00
L 0.00 0.00
L 0.00 1024.00
M 1000.00 577.00 
C 990.95 572.27 980.76 570.68 971.00 571.00
C 971.00 466.33 971.00 361.67 971.00 257.00
C 944.45 260.86 916.79 258.72 889.00 259.00 C 861.21 259.28 831.97 259.21 804.00 259.00 C 776.03 258.79 746.92 259.84 719.00 259.00 C 691.08 258.16 663.26 257.69 635.00 258.00 C 606.74 258.31 578.28 257.76 550.00 258.00
C 550.00 436.00 550.00 614.00 550.00 792.00
C 568.15 791.96 585.81 792.06 604.00 792.00 C 622.19 791.94 640.74 792.11 659.00 792.00 C 677.26 791.89 695.74 792.23 714.00 792.00 C 732.26 791.77 750.77 792.51 769.00 792.00 C 787.23 791.49 804.78 793.15 823.00 792.00 C 841.22 790.85 859.74 794.50 878.00 792.00 C 896.26 789.50 901.32 807.04 896.01 823.01 C 890.69 838.97 867.99 830.52 852.00 832.00 C 836.02 833.48 815.22 831.35 798.00 832.00 C 780.78 832.65 760.76 831.71 743.00 832.00 C 725.24 832.29 705.93 831.89 688.00 832.00 C 670.07 832.11 650.83 831.99 633.00 832.00 C 615.17 832.01 596.49 832.08 579.00 832.00 C 561.51 831.92 540.73 832.23 524.00 832.00 C 507.27 831.77 491.01 832.77 477.92 831.07 C 464.83 829.37 457.72 826.14 447.08 818.92 C 436.45 811.69 427.32 802.73 422.87 791.08 C 418.42 779.43 417.69 769.48 418.00 753.00 C 418.31 736.52 417.86 715.46 418.00 698.00 C 418.14 680.54 417.94 660.86 418.00 643.00 C 418.06 625.14 417.97 607.06 418.00 589.00 C 418.03 570.94 417.99 552.19 418.00 534.00 C 418.01 515.81 418.00 497.21 418.00 479.00 C 418.00 460.79 418.02 442.16 418.00 424.00 C 417.98 405.84 418.04 388.10 418.00 370.00 C 417.96 351.90 418.09 333.00 418.00 315.00 C 417.91 297.00 418.20 277.67 418.00 260.00 C 417.80 242.33 418.44 221.90 418.00 205.00 C 417.56 188.10 418.88 180.36 423.71 168.70 C 428.55 157.03 436.26 146.18 447.03 139.03 C 457.81 131.88 465.11 126.39 478.75 124.41 C 492.38 122.42 510.25 123.16 527.00 123.00 C 543.75 122.84 563.42 123.07 581.00 123.00 C 598.58 122.93 618.03 123.03 636.00 123.00 C 653.97 122.97 672.88 123.02 691.00 123.00 C 709.12 122.98 727.87 123.01 746.00 123.00 C 764.13 122.99 781.90 123.01 800.00 123.00 C 818.10 122.99 836.96 123.02 855.00 123.00 C 873.04 122.98 892.23 123.05 910.00 123.00 C 927.77 122.95 947.87 123.11 965.00 123.00 C 982.13 122.89 1001.21 118.36 1000.00 138.00 C 998.79 157.64 1000.54 174.09 1000.00 193.00 C 999.46 211.91 1000.25 229.44 1000.00 248.00 C 999.75 266.56 1000.11 284.63 1000.00 303.00 C 999.89 321.37 1000.05 338.70 1000.00 357.00 C 999.95 375.30 1000.02 393.68 1000.00 412.00 C 999.98 430.32 1000.01 448.67 1000.00 467.00 C 999.99 485.33 1000.01 503.67 1000.00 522.00 C 999.99 540.33 1000.00 558.67 1000.00 577.00
M 822.00 359.00 
C 851.72 346.08 888.80 359.45 901.39 389.75 C 913.99 420.06 890.84 456.66 859.00 460.00
C 862.47 475.59 859.12 486.09 861.98 502.03 C 864.83 517.96 860.76 528.55 864.66 545.68 C 868.57 562.81 858.86 574.05 839.00 571.00 C 819.14 567.95 799.00 572.08 780.00 571.00 C 761.00 569.92 738.71 570.84 721.00 571.00 C 703.29 571.16 683.91 573.54 683.01 555.99 C 682.11 538.44 685.11 525.92 684.79 508.77 C 684.47 491.63 685.40 476.16 686.00 460.00
C 653.93 456.03 631.56 422.35 642.19 390.75 C 652.83 359.16 692.64 346.32 722.00 359.00
C 731.13 338.91 750.57 330.47 771.01 329.99 C 791.45 329.52 816.22 339.50 822.00 359.00
M 1052.00 741.00 
C 1071.06 753.78 1088.76 766.40 1106.89 780.11 C 1125.03 793.81 1142.52 804.17 1159.75 819.25 C 1176.98 834.33 1151.77 861.59 1133.75 851.24 C 1115.73 840.90 1099.62 826.86 1082.30 812.70 C 1064.98 798.55 1046.77 784.72 1031.00 769.00
C 994.76 794.64 946.00 797.58 905.31 776.70 C 864.61 755.81 842.92 704.18 852.31 662.30 C 861.70 620.42 893.55 589.12 935.74 580.40 C 977.94 571.68 1024.30 588.58 1050.11 623.89 C 1075.91 659.21 1075.59 707.21 1052.00 741.00
M 638.00 635.00 
C 651.70 631.40 669.72 636.41 685.00 635.00 C 700.28 633.59 719.66 635.30 735.00 635.00 C 750.34 634.70 770.48 634.40 785.00 635.00 C 799.52 635.60 819.95 632.51 830.25 636.19 C 840.56 639.87 840.22 659.24 828.25 661.59 C 816.29 663.95 796.66 662.97 782.00 663.00 C 767.34 663.03 747.36 663.23 732.00 663.00 C 716.64 662.77 697.18 663.64 682.00 663.00 C 666.82 662.36 648.83 665.28 635.75 661.20 C 622.67 657.12 626.81 637.95 638.00 635.00 Z"/>
</g>
<g fill="None" fill-opacity="0.0" stroke="#000000" stroke-opacity="0.99" stroke-width="0.3"><path d="
M 1000.00 577.00 
C 1000.00 558.67 999.99 540.33 1000.00 522.00 C 1000.01 503.67 999.99 485.33 1000.00 467.00 C 1000.01 448.67 999.98 430.32 1000.00 412.00 C 1000.02 393.68 999.95 375.30 1000.00 357.00 C 1000.05 338.70 999.89 321.37 1000.00 303.00 C 1000.11 284.63 999.75 266.56 1000.00 248.00 C 1000.25 229.44 999.46 211.91 1000.00 193.00 C 1000.54 174.09 998.79 157.64 1000.00 138.00 C 1001.21 118.36 982.13 122.89 965.00 123.00 C 947.87 123.11 927.77 122.95 910.00 123.00 C 892.23 123.05 873.04 122.98 855.00 123.00 C 836.96 123.02 818.10 122.99 800.00 123.00 C 781.90 123.01 764.13 122.99 746.00 123.00 C 727.87 123.01 709.12 122.98 691.00 123.00 C 672.88 123.02 653.97 122.97 636.00 123.00 C 618.03 123.03 598.58 122.93 581.00 123.00 C 563.42 123.07 543.75 122.84 527.00 123.00 C 510.25 123.16 492.38 122.42 478.75 124.41 C 465.11 126.39 457.81 131.88 447.03 139.03 C 436.26 146.18 428.55 157.03 423.71 168.70 C 418.88 180.36 417.56 188.10 418.00 205.00 C 418.44 221.90 417.80 242.33 418.00 260.00 C 418.20 277.67 417.91 297.00 418.00 315.00 C 418.09 333.00 417.96 351.90 418.00 370.00 C 418.04 388.10 417.98 405.84 418.00 424.00 C 418.02 442.16 418.00 460.79 418.00 479.00 C 418.00 497.21 418.01 515.81 418.00 534.00 C 417.99 552.19 418.03 570.94 418.00 589.00 C 417.97 607.06 418.06 625.14 418.00 643.00 C 417.94 660.86 418.14 680.54 418.00 698.00 C 417.86 715.46 418.31 736.52 418.00 753.00 C 417.69 769.48 418.42 779.43 422.87 791.08 C 427.32 802.73 436.45 811.69 447.08 818.92 C 457.72 826.14 464.83 829.37 477.92 831.07 C 491.01 832.77 507.27 831.77 524.00 832.00 C 540.73 832.23 561.51 831.92 579.00 832.00 C 596.49 832.08 615.17 832.01 633.00 832.00 C 650.83 831.99 670.07 832.11 688.00 832.00 C 705.93 831.89 725.24 832.29 743.00 832.00 C 760.76 831.71 780.78 832.65 798.00 832.00 C 815.22 831.35 836.02 833.48 852.00 832.00 C 867.99 830.52 890.69 838.97 896.01 823.01 C 901.32 807.04 896.26 789.50 878.00 792.00 C 859.74 794.50 841.22 790.85 823.00 792.00 C 804.78 793.15 787.23 791.49 769.00 792.00 C 750.77 792.51 732.26 791.77 714.00 792.00 C 695.74 792.23 677.26 791.89 659.00 792.00 C 640.74 792.11 622.19 791.94 604.00 792.00 C 585.81 792.06 568.15 791.96 550.00 792.00
C 550.00 614.00 550.00 436.00 550.00 258.00
C 578.28 257.76 606.74 258.31 635.00 258.00 C 663.26 257.69 691.08 258.16 719.00 259.00 C 746.92 259.84 776.03 258.79 804.00 259.00 C 831.97 259.21 861.21 259.28 889.00 259.00 C 916.79 258.72 944.45 260.86 971.00 257.00
C 971.00 361.67 971.00 466.33 971.00 571.00
C 980.76 570.68 990.95 572.27 1000.00 577.00
M 972.00 155.00 
C 969.83 178.87 971.55 203.72 971.00 228.00
C 936.60 227.86 901.31 228.18 867.00 228.00 C 832.69 227.82 796.97 228.35 763.00 228.00 C 729.03 227.65 692.18 228.75 659.00 228.00 C 625.82 227.25 586.40 229.64 555.00 228.00 C 523.60 226.36 492.08 234.09 470.75 221.81 C 449.42 209.53 448.67 175.25 471.68 162.68 C 494.69 150.11 527.50 157.41 559.00 156.00 C 590.50 154.59 628.76 155.10 662.00 155.00 C 695.24 154.90 731.01 156.47 765.00 156.00 C 798.99 155.53 834.81 156.44 869.00 156.00 C 903.19 155.56 938.21 157.15 972.00 155.00
M 519.00 258.00 
C 519.00 436.00 519.00 614.00 519.00 792.00
C 495.75 789.89 471.04 795.37 457.92 774.08 C 444.79 752.79 450.33 726.41 450.00 698.00 C 449.67 669.59 449.04 638.58 449.00 610.00 C 448.97 581.41 450.10 549.61 449.00 520.00 C 447.90 490.39 449.68 459.06 449.00 429.00 C 448.32 398.94 449.72 367.20 449.00 337.00 C 448.28 306.80 451.52 276.82 449.00 247.00
C 466.42 259.07 492.40 258.76 519.00 258.00 Z"/>
</g>
<g fill="None" fill-opacity="0.0" stroke="#000000" stroke-opacity="0.00" stroke-width="0.3"><path d="
M 972.00 155.00 
C 938.21 157.15 903.19 155.56 869.00 156.00 C 834.81 156.44 798.99 155.53 765.00 156.00 C 731.01 156.47 695.24 154.90 662.00 155.00 C 628.76 155.10 590.50 154.59 559.00 156.00 C 527.50 157.41 494.69 150.11 471.68 162.68 C 448.67 175.25 449.42 209.53 470.75 221.81 C 492.08 234.09 523.60 226.36 555.00 228.00 C 586.40 229.64 625.82 227.25 659.00 228.00 C 692.18 228.75 729.03 227.65 763.00 228.00 C 796.97 228.35 832.69 227.82 867.00 228.00 C 901.31 228.18 936.60 227.86 971.00 228.00
C 971.55 203.72 969.83 178.87 972.00 155.00 Z"/>
</g>
<g fill="None" fill-opacity="0.0" stroke="#000000" stroke-opacity="0.01" stroke-width="0.3"><path d="
M 519.00 258.00 
C 492.40 258.76 466.42 259.07 449.00 247.00
C 451.52 276.82 448.28 306.80 449.00 337.00 C 449.72 367.20 448.32 398.94 449.00 429.00 C 449.68 459.06 447.90 490.39 449.00 520.00 C 450.10 549.61 448.97 581.41 449.00 610.00 C 449.04 638.58 449.67 669.59 450.00 698.00 C 450.33 726.41 444.79 752.79 457.92 774.08 C 471.04 795.37 495.75 789.89 519.00 792.00
C 519.00 614.00 519.00 436.00 519.00 258.00 Z"/>
</g>
<g fill="None" fill-opacity="0.0" stroke="#000000" stroke-opacity="0.98" stroke-width="0.3"><path d="
M 822.00 359.00 
C 816.22 339.50 791.45 329.52 771.01 329.99 C 750.57 330.47 731.13 338.91 722.00 359.00
C 692.64 346.32 652.83 359.16 642.19 390.75 C 631.56 422.35 653.93 456.03 686.00 460.00
C 685.40 476.16 684.47 491.63 684.79 508.77 C 685.11 525.92 682.11 538.44 683.01 555.99 C 683.91 573.54 703.29 571.16 721.00 571.00 C 738.71 570.84 761.00 569.92 780.00 571.00 C 799.00 572.08 819.14 567.95 839.00 571.00 C 858.86 574.05 868.57 562.81 864.66 545.68 C 860.76 528.55 864.83 517.96 861.98 502.03 C 859.12 486.09 862.47 475.59 859.00 460.00
C 890.84 456.66 913.99 420.06 901.39 389.75 C 888.80 359.45 851.72 346.08 822.00 359.00
M 833.00 541.00 
C 793.67 541.00 754.33 541.00 715.00 541.00
C 716.02 526.35 716.85 511.14 717.00 496.00 C 717.15 480.86 716.98 465.11 718.00 450.00 C 719.02 434.89 703.57 435.92 692.75 434.80 C 681.94 433.68 673.43 422.16 670.80 411.75 C 668.18 401.35 676.45 387.45 686.25 385.20 C 696.04 382.95 709.94 380.13 716.70 389.30 C 723.45 398.48 741.15 400.69 742.93 387.92 C 744.72 375.15 749.15 366.25 760.75 361.61 C 772.35 356.96 784.92 359.02 794.23 367.77 C 803.54 376.52 797.92 388.73 808.75 395.39 C 819.58 402.06 826.64 387.88 836.75 384.41 C 846.85 380.93 859.70 382.94 867.23 390.77 C 874.76 398.60 878.57 411.01 871.09 421.10 C 863.62 431.19 855.74 436.46 841.78 435.22 C 827.82 433.98 826.50 453.29 828.35 464.70 C 830.20 476.11 829.50 490.64 830.60 502.75 C 831.70 514.86 830.90 528.52 833.00 541.00 Z"/>
</g>
<g fill="None" fill-opacity="0.0" stroke="#000000" stroke-opacity="0.00" stroke-width="0.3"><path d="
M 833.00 541.00 
C 830.90 528.52 831.70 514.86 830.60 502.75 C 829.50 490.64 830.20 476.11 828.35 464.70 C 826.50 453.29 827.82 433.98 841.78 435.22 C 855.74 436.46 863.62 431.19 871.09 421.10 C 878.57 411.01 874.76 398.60 867.23 390.77 C 859.70 382.94 846.85 380.93 836.75 384.41 C 826.64 387.88 819.58 402.06 808.75 395.39 C 797.92 388.73 803.54 376.52 794.23 367.77 C 784.92 359.02 772.35 356.96 760.75 361.61 C 749.15 366.25 744.72 375.15 742.93 387.92 C 741.15 400.69 723.45 398.48 716.70 389.30 C 709.94 380.13 696.04 382.95 686.25 385.20 C 676.45 387.45 668.18 401.35 670.80 411.75 C 673.43 422.16 681.94 433.68 692.75 434.80 C 703.57 435.92 719.02 434.89 718.00 450.00 C 716.98 465.11 717.15 480.86 717.00 496.00 C 716.85 511.14 716.02 526.35 715.00 541.00
C 754.33 541.00 793.67 541.00 833.00 541.00 Z"/>
</g>
<g fill="None" fill-opacity="0.0" stroke="#000000" stroke-opacity="0.98" stroke-width="0.3"><path d="
M 1052.00 741.00 
C 1075.59 707.21 1075.91 659.21 1050.11 623.89 C 1024.30 588.58 977.94 571.68 935.74 580.40 C 893.55 589.12 861.70 620.42 852.31 662.30 C 842.92 704.18 864.61 755.81 905.31 776.70 C 946.00 797.58 994.76 794.64 1031.00 769.00
C 1046.77 784.72 1064.98 798.55 1082.30 812.70 C 1099.62 826.86 1115.73 840.90 1133.75 851.24 C 1151.77 861.59 1176.98 834.33 1159.75 819.25 C 1142.52 804.17 1125.03 793.81 1106.89 780.11 C 1088.76 766.40 1071.06 753.78 1052.00 741.00
M 948.00 602.00 
C 993.31 594.14 1036.29 630.22 1042.40 670.75 C 1048.50 711.28 1019.52 758.21 975.77 763.77 C 932.02 769.34 886.77 746.26 878.02 698.97 C 869.28 651.69 901.94 609.99 948.00 602.00 Z"/>
</g>
<g fill="None" fill-opacity="0.0" stroke="#000000" stroke-opacity="0.00" stroke-width="0.3"><path d="
M 948.00 602.00 
C 901.94 609.99 869.28 651.69 878.02 698.97 C 886.77 746.26 932.02 769.34 975.77 763.77 C 1019.52 758.21 1048.50 711.28 1042.40 670.75 C 1036.29 630.22 993.31 594.14 948.00 602.00 Z"/>
</g>
<g fill="None" fill-opacity="0.0" stroke="#000000" stroke-opacity="0.96" stroke-width="0.3"><path d="
M 638.00 635.00 
C 626.81 637.95 622.67 657.12 635.75 661.20 C 648.83 665.28 666.82 662.36 682.00 663.00 C 697.18 663.64 716.64 662.77 732.00 663.00 C 747.36 663.23 767.34 663.03 782.00 663.00 C 796.66 662.97 816.29 663.95 828.25 661.59 C 840.22 659.24 840.56 639.87 830.25 636.19 C 819.95 632.51 799.52 635.60 785.00 635.00 C 770.48 634.40 750.34 634.70 735.00 635.00 C 719.66 635.30 700.28 633.59 685.00 635.00 C 669.72 636.41 651.70 631.40 638.00 635.00 Z"/>
</g>
<g fill="#000000" fill-opacity="0.00" stroke="None">
<path d="
M 0.00 1024.00 
L 1536.00 1024.00
L 1536.00 0.00
L 0.00 0.00
L 0.00 1024.00
M 1000.00 577.00 
C 990.95 572.27 980.76 570.68 971.00 571.00
C 971.00 466.33 971.00 361.67 971.00 257.00
C 944.45 260.86 916.79 258.72 889.00 259.00 C 861.21 259.28 831.97 259.21 804.00 259.00 C 776.03 258.79 746.92 259.84 719.00 259.00 C 691.08 258.16 663.26 257.69 635.00 258.00 C 606.74 258.31 578.28 257.76 550.00 258.00
C 550.00 436.00 550.00 614.00 550.00 792.00
C 568.15 791.96 585.81 792.06 604.00 792.00 C 622.19 791.94 640.74 792.11 659.00 792.00 C 677.26 791.89 695.74 792.23 714.00 792.00 C 732.26 791.77 750.77 792.51 769.00 792.00 C 787.23 791.49 804.78 793.15 823.00 792.00 C 841.22 790.85 859.74 794.50 878.00 792.00 C 896.26 789.50 901.32 807.04 896.01 823.01 C 890.69 838.97 867.99 830.52 852.00 832.00 C 836.02 833.48 815.22 831.35 798.00 832.00 C 780.78 832.65 760.76 831.71 743.00 832.00 C 725.24 832.29 705.93 831.89 688.00 832.00 C 670.07 832.11 650.83 831.99 633.00 832.00 C 615.17 832.01 596.49 832.08 579.00 832.00 C 561.51 831.92 540.73 832.23 524.00 832.00 C 507.27 831.77 491.01 832.77 477.92 831.07 C 464.83 829.37 457.72 826.14 447.08 818.92 C 436.45 811.69 427.32 802.73 422.87 791.08 C 418.42 779.43 417.69 769.48 418.00 753.00 C 418.31 736.52 417.86 715.46 418.00 698.00 C 418.14 680.54 417.94 660.86 418.00 643.00 C 418.06 625.14 417.97 607.06 418.00 589.00 C 418.03 570.94 417.99 552.19 418.00 534.00 C 418.01 515.81 418.00 497.21 418.00 479.00 C 418.00 460.79 418.02 442.16 418.00 424.00 C 417.98 405.84 418.04 388.10 418.00 370.00 C 417.96 351.90 418.09 333.00 418.00 315.00 C 417.91 297.00 418.20 277.67 418.00 260.00 C 417.80 242.33 418.44 221.90 418.00 205.00 C 417.56 188.10 418.88 180.36 423.71 168.70 C 428.55 157.03 436.26 146.18 447.03 139.03 C 457.81 131.88 465.11 126.39 478.75 124.41 C 492.38 122.42 510.25 123.16 527.00 123.00 C 543.75 122.84 563.42 123.07 581.00 123.00 C 598.58 122.93 618.03 123.03 636.00 123.00 C 653.97 122.97 672.88 123.02 691.00 123.00 C 709.12 122.98 727.87 123.01 746.00 123.00 C 764.13 122.99 781.90 123.01 800.00 123.00 C 818.10 122.99 836.96 123.02 855.00 123.00 C 873.04 122.98 892.23 123.05 910.00 123.00 C 927.77 122.95 947.87 123.11 965.00 123.00 C 982.13 122.89 1001.21 118.36 1000.00 138.00 C 998.79 157.64 1000.54 174.09 1000.00 193.00 C 999.46 211.91 1000.25 229.44 1000.00 248.00 C 999.75 266.56 1000.11 284.63 1000.00 303.00 C 999.89 321.37 1000.05 338.70 1000.00 357.00 C 999.95 375.30 1000.02 393.68 1000.00 412.00 C 999.98 430.32 1000.01 448.67 1000.00 467.00 C 999.99 485.33 1000.01 503.67 1000.00 522.00 C 999.99 540.33 1000.00 558.67 1000.00 577.00
M 822.00 359.00 
C 851.72 346.08 888.80 359.45 901.39 389.75 C 913.99 420.06 890.84 456.66 859.00 460.00
C 862.47 475.59 859.12 486.09 861.98 502.03 C 864.83 517.96 860.76 528.55 864.66 545.68 C 868.57 562.81 858.86 574.05 839.00 571.00 C 819.14 567.95 799.00 572.08 780.00 571.00 C 761.00 569.92 738.71 570.84 721.00 571.00 C 703.29 571.16 683.91 573.54 683.01 555.99 C 682.11 538.44 685.11 525.92 684.79 508.77 C 684.47 491.63 685.40 476.16 686.00 460.00
C 653.93 456.03 631.56 422.35 642.19 390.75 C 652.83 359.16 692.64 346.32 722.00 359.00
C 731.13 338.91 750.57 330.47 771.01 329.99 C 791.45 329.52 816.22 339.50 822.00 359.00
M 1052.00 741.00 
C 1071.06 753.78 1088.76 766.40 1106.89 780.11 C 1125.03 793.81 1142.52 804.17 1159.75 819.25 C 1176.98 834.33 1151.77 861.59 1133.75 851.24 C 1115.73 840.90 1099.62 826.86 1082.30 812.70 C 1064.98 798.55 1046.77 784.72 1031.00 769.00
C 994.76 794.64 946.00 797.58 905.31 776.70 C 864.61 755.81 842.92 704.18 852.31 662.30 C 861.70 620.42 893.55 589.12 935.74 580.40 C 977.94 571.68 1024.30 588.58 1050.11 623.89 C 1075.91 659.21 1075.59 707.21 1052.00 741.00
M 638.00 635.00 
C 651.70 631.40 669.72 636.41 685.00 635.00 C 700.28 633.59 719.66 635.30 735.00 635.00 C 750.34 634.70 770.48 634.40 785.00 635.00 C 799.52 635.60 819.95 632.51 830.25 636.19 C 840.56 639.87 840.22 659.24 828.25 661.59 C 816.29 663.95 796.66 662.97 782.00 663.00 C 767.34 663.03 747.36 663.23 732.00 663.00 C 716.64 662.77 697.18 663.64 682.00 663.00 C 666.82 662.36 648.83 665.28 635.75 661.20 C 622.67 657.12 626.81 637.95 638.00 635.00 Z"/>
</g>
<g fill="#000000" fill-opacity="0.99" stroke="None">
<path d="
M 1000.00 577.00 
C 1000.00 558.67 999.99 540.33 1000.00 522.00 C 1000.01 503.67 999.99 485.33 1000.00 467.00 C 1000.01 448.67 999.98 430.32 1000.00 412.00 C 1000.02 393.68 999.95 375.30 1000.00 357.00 C 1000.05 338.70 999.89 321.37 1000.00 303.00 C 1000.11 284.63 999.75 266.56 1000.00 248.00 C 1000.25 229.44 999.46 211.91 1000.00 193.00 C 1000.54 174.09 998.79 157.64 1000.00 138.00 C 1001.21 118.36 982.13 122.89 965.00 123.00 C 947.87 123.11 927.77 122.95 910.00 123.00 C 892.23 123.05 873.04 122.98 855.00 123.00 C 836.96 123.02 818.10 122.99 800.00 123.00 C 781.90 123.01 764.13 122.99 746.00 123.00 C 727.87 123.01 709.12 122.98 691.00 123.00 C 672.88 123.02 653.97 122.97 636.00 123.00 C 618.03 123.03 598.58 122.93 581.00 123.00 C 563.42 123.07 543.75 122.84 527.00 123.00 C 510.25 123.16 492.38 122.42 478.75 124.41 C 465.11 126.39 457.81 131.88 447.03 139.03 C 436.26 146.18 428.55 157.03 423.71 168.70 C 418.88 180.36 417.56 188.10 418.00 205.00 C 418.44 221.90 417.80 242.33 418.00 260.00 C 418.20 277.67 417.91 297.00 418.00 315.00 C 418.09 333.00 417.96 351.90 418.00 370.00 C 418.04 388.10 417.98 405.84 418.00 424.00 C 418.02 442.16 418.00 460.79 418.00 479.00 C 418.00 497.21 418.01 515.81 418.00 534.00 C 417.99 552.19 418.03 570.94 418.00 589.00 C 417.97 607.06 418.06 625.14 418.00 643.00 C 417.94 660.86 418.14 680.54 418.00 698.00 C 417.86 715.46 418.31 736.52 418.00 753.00 C 417.69 769.48 418.42 779.43 422.87 791.08 C 427.32 802.73 436.45 811.69 447.08 818.92 C 457.72 826.14 464.83 829.37 477.92 831.07 C 491.01 832.77 507.27 831.77 524.00 832.00 C 540.73 832.23 561.51 831.92 579.00 832.00 C 596.49 832.08 615.17 832.01 633.00 832.00 C 650.83 831.99 670.07 832.11 688.00 832.00 C 705.93 831.89 725.24 832.29 743.00 832.00 C 760.76 831.71 780.78 832.65 798.00 832.00 C 815.22 831.35 836.02 833.48 852.00 832.00 C 867.99 830.52 890.69 838.97 896.01 823.01 C 901.32 807.04 896.26 789.50 878.00 792.00 C 859.74 794.50 841.22 790.85 823.00 792.00 C 804.78 793.15 787.23 791.49 769.00 792.00 C 750.77 792.51 732.26 791.77 714.00 792.00 C 695.74 792.23 677.26 791.89 659.00 792.00 C 640.74 792.11 622.19 791.94 604.00 792.00 C 585.81 792.06 568.15 791.96 550.00 792.00
C 550.00 614.00 550.00 436.00 550.00 258.00
C 578.28 257.76 606.74 258.31 635.00 258.00 C 663.26 257.69 691.08 258.16 719.00 259.00 C 746.92 259.84 776.03 258.79 804.00 259.00 C 831.97 259.21 861.21 259.28 889.00 259.00 C 916.79 258.72 944.45 260.86 971.00 257.00
C 971.00 361.67 971.00 466.33 971.00 571.00
C 980.76 570.68 990.95 572.27 1000.00 577.00
M 972.00 155.00 
C 969.83 178.87 971.55 203.72 971.00 228.00
C 936.60 227.86 901.31 228.18 867.00 228.00 C 832.69 227.82 796.97 228.35 763.00 228.00 C 729.03 227.65 692.18 228.75 659.00 228.00 C 625.82 227.25 586.40 229.64 555.00 228.00 C 523.60 226.36 492.08 234.09 470.75 221.81 C 449.42 209.53 448.67 175.25 471.68 162.68 C 494.69 150.11 527.50 157.41 559.00 156.00 C 590.50 154.59 628.76 155.10 662.00 155.00 C 695.24 154.90 731.01 156.47 765.00 156.00 C 798.99 155.53 834.81 156.44 869.00 156.00 C 903.19 155.56 938.21 157.15 972.00 155.00
M 519.00 258.00 
C 519.00 436.00 519.00 614.00 519.00 792.00
C 495.75 789.89 471.04 795.37 457.92 774.08 C 444.79 752.79 450.33 726.41 450.00 698.00 C 449.67 669.59 449.04 638.58 449.00 610.00 C 448.97 581.41 450.10 549.61 449.00 520.00 C 447.90 490.39 449.68 459.06 449.00 429.00 C 448.32 398.94 449.72 367.20 449.00 337.00 C 448.28 306.80 451.52 276.82 449.00 247.00
C 466.42 259.07 492.40 258.76 519.00 258.00 Z"/>
</g>
<g fill="#000000" fill-opacity="0.00" stroke="None">
<path d="
M 972.00 155.00 
C 938.21 157.15 903.19 155.56 869.00 156.00 C 834.81 156.44 798.99 155.53 765.00 156.00 C 731.01 156.47 695.24 154.90 662.00 155.00 C 628.76 155.10 590.50 154.59 559.00 156.00 C 527.50 157.41 494.69 150.11 471.68 162.68 C 448.67 175.25 449.42 209.53 470.75 221.81 C 492.08 234.09 523.60 226.36 555.00 228.00 C 586.40 229.64 625.82 227.25 659.00 228.00 C 692.18 228.75 729.03 227.65 763.00 228.00 C 796.97 228.35 832.69 227.82 867.00 228.00 C 901.31 228.18 936.60 227.86 971.00 228.00
C 971.55 203.72 969.83 178.87 972.00 155.00 Z"/>
</g>
<g fill="#000000" fill-opacity="0.01" stroke="None">
<path d="
M 519.00 258.00 
C 492.40 258.76 466.42 259.07 449.00 247.00
C 451.52 276.82 448.28 306.80 449.00 337.00 C 449.72 367.20 448.32 398.94 449.00 429.00 C 449.68 459.06 447.90 490.39 449.00 520.00 C 450.10 549.61 448.97 581.41 449.00 610.00 C 449.04 638.58 449.67 669.59 450.00 698.00 C 450.33 726.41 444.79 752.79 457.92 774.08 C 471.04 795.37 495.75 789.89 519.00 792.00
C 519.00 614.00 519.00 436.00 519.00 258.00 Z"/>
</g>
<g fill="#000000" fill-opacity="0.98" stroke="None">
<path d="
M 822.00 359.00 
C 816.22 339.50 791.45 329.52 771.01 329.99 C 750.57 330.47 731.13 338.91 722.00 359.00
C 692.64 346.32 652.83 359.16 642.19 390.75 C 631.56 422.35 653.93 456.03 686.00 460.00
C 685.40 476.16 684.47 491.63 684.79 508.77 C 685.11 525.92 682.11 538.44 683.01 555.99 C 683.91 573.54 703.29 571.16 721.00 571.00 C 738.71 570.84 761.00 569.92 780.00 571.00 C 799.00 572.08 819.14 567.95 839.00 571.00 C 858.86 574.05 868.57 562.81 864.66 545.68 C 860.76 528.55 864.83 517.96 861.98 502.03 C 859.12 486.09 862.47 475.59 859.00 460.00
C 890.84 456.66 913.99 420.06 901.39 389.75 C 888.80 359.45 851.72 346.08 822.00 359.00
M 833.00 541.00 
C 793.67 541.00 754.33 541.00 715.00 541.00
C 716.02 526.35 716.85 511.14 717.00 496.00 C 717.15 480.86 716.98 465.11 718.00 450.00 C 719.02 434.89 703.57 435.92 692.75 434.80 C 681.94 433.68 673.43 422.16 670.80 411.75 C 668.18 401.35 676.45 387.45 686.25 385.20 C 696.04 382.95 709.94 380.13 716.70 389.30 C 723.45 398.48 741.15 400.69 742.93 387.92 C 744.72 375.15 749.15 366.25 760.75 361.61 C 772.35 356.96 784.92 359.02 794.23 367.77 C 803.54 376.52 797.92 388.73 808.75 395.39 C 819.58 402.06 826.64 387.88 836.75 384.41 C 846.85 380.93 859.70 382.94 867.23 390.77 C 874.76 398.60 878.57 411.01 871.09 421.10 C 863.62 431.19 855.74 436.46 841.78 435.22 C 827.82 433.98 826.50 453.29 828.35 464.70 C 830.20 476.11 829.50 490.64 830.60 502.75 C 831.70 514.86 830.90 528.52 833.00 541.00 Z"/>
</g>
<g fill="#000000" fill-opacity="0.00" stroke="None">
<path d="
M 833.00 541.00 
C 830.90 528.52 831.70 514.86 830.60 502.75 C 829.50 490.64 830.20 476.11 828.35 464.70 C 826.50 453.29 827.82 433.98 841.78 435.22 C 855.74 436.46 863.62 431.19 871.09 421.10 C 878.57 411.01 874.76 398.60 867.23 390.77 C 859.70 382.94 846.85 380.93 836.75 384.41 C 826.64 387.88 819.58 402.06 808.75 395.39 C 797.92 388.73 803.54 376.52 794.23 367.77 C 784.92 359.02 772.35 356.96 760.75 361.61 C 749.15 366.25 744.72 375.15 742.93 387.92 C 741.15 400.69 723.45 398.48 716.70 389.30 C 709.94 380.13 696.04 382.95 686.25 385.20 C 676.45 387.45 668.18 401.35 670.80 411.75 C 673.43 422.16 681.94 433.68 692.75 434.80 C 703.57 435.92 719.02 434.89 718.00 450.00 C 716.98 465.11 717.15 480.86 717.00 496.00 C 716.85 511.14 716.02 526.35 715.00 541.00
C 754.33 541.00 793.67 541.00 833.00 541.00 Z"/>
</g>
<g fill="#000000" fill-opacity="0.98" stroke="None">
<path d="
M 1052.00 741.00 
C 1075.59 707.21 1075.91 659.21 1050.11 623.89 C 1024.30 588.58 977.94 571.68 935.74 580.40 C 893.55 589.12 861.70 620.42 852.31 662.30 C 842.92 704.18 864.61 755.81 905.31 776.70 C 946.00 797.58 994.76 794.64 1031.00 769.00
C 1046.77 784.72 1064.98 798.55 1082.30 812.70 C 1099.62 826.86 1115.73 840.90 1133.75 851.24 C 1151.77 861.59 1176.98 834.33 1159.75 819.25 C 1142.52 804.17 1125.03 793.81 1106.89 780.11 C 1088.76 766.40 1071.06 753.78 1052.00 741.00
M 948.00 602.00 
C 993.31 594.14 1036.29 630.22 1042.40 670.75 C 1048.50 711.28 1019.52 758.21 975.77 763.77 C 932.02 769.34 886.77 746.26 878.02 698.97 C 869.28 651.69 901.94 609.99 948.00 602.00 Z"/>
</g>
<g fill="#000000" fill-opacity="0.00" stroke="None">
<path d="
M 948.00 602.00 
C 901.94 609.99 869.28 651.69 878.02 698.97 C 886.77 746.26 932.02 769.34 975.77 763.77 C 1019.52 758.21 1048.50 711.28 1042.40 670.75 C 1036.29 630.22 993.31 594.14 948.00 602.00 Z"/>
</g>
<g fill="#000000" fill-opacity="0.96" stroke="None">
<path d="
M 638.00 635.00 
C 626.81 637.95 622.67 657.12 635.75 661.20 C 648.83 665.28 666.82 662.36 682.00 663.00 C 697.18 663.64 716.64 662.77 732.00 663.00 C 747.36 663.23 767.34 663.03 782.00 663.00 C 796.66 662.97 816.29 663.95 828.25 661.59 C 840.22 659.24 840.56 639.87 830.25 636.19 C 819.95 632.51 799.52 635.60 785.00 635.00 C 770.48 634.40 750.34 634.70 735.00 635.00 C 719.66 635.30 700.28 633.59 685.00 635.00 C 669.72 636.41 651.70 631.40 638.00 635.00 Z"/>
</g>
</svg>