<svg xmlns="http://www.w3.org/2000/svg" xmlns:v="https://svgstorm.com" viewBox="374.97 81.64 813.52 813.52" width="100%" height="100%">
<g fill="None" fill-opacity="0.0" stroke="#000000" stroke-opacity="0.00" stroke-width="0.3"><path d=" M 0.00 1024.00  L 1536.00 1024.00 L 1536.00 0.00 L 0.00 0.00 L 0.00 1024.00 M 897.00 221.00  C 912.78 250.27 926.04 277.03 935.59 310.75 C 945.14 344.48 953.30 378.05 952.00 416.00 C 975.93 414.60 1002.11 411.30 1020.10 423.90 C 1038.09 436.50 1029.88 464.00 1032.00 486.00 C 1034.12 508.00 1018.66 521.35 1000.00 520.00 C 997.74 536.36 997.09 551.66 996.00 569.00 C 986.55 567.04 980.68 564.03 971.00 563.00 C 972.55 555.88 970.36 549.60 972.20 542.75 C 974.04 535.90 971.97 527.30 975.00 521.00 C 942.83 518.67 909.59 520.66 877.00 520.00 C 877.00 534.67 877.00 549.33 877.00 564.00 C 869.00 564.00 861.00 564.00 853.00 564.00 C 853.00 549.33 853.00 534.67 853.00 520.00 C 849.54 521.42 845.11 519.12 841.00 520.00 C 842.61 534.43 842.70 550.60 841.00 565.00 C 833.50 562.75 824.92 564.61 817.00 564.00 C 817.00 549.33 817.00 534.67 817.00 520.00 C 810.33 520.00 803.67 520.00 797.00 520.00 C 798.38 537.10 798.58 558.84 798.00 576.00 C 797.42 593.16 799.44 618.36 798.00 634.00 C 796.56 649.64 803.83 673.98 790.92 679.92 C 778.02 685.87 752.40 684.61 741.70 679.29 C 731.00 673.97 735.47 650.72 735.00 635.00 C 734.53 619.28 735.06 594.32 735.00 577.00 C 734.94 559.68 734.23 537.31 736.00 520.00 C 727.33 520.00 718.67 520.00 710.00 520.00 C 712.27 535.88 710.41 552.68 711.00 569.00 C 711.59 585.32 710.24 602.76 711.00 619.00 C 711.76 635.24 710.01 652.39 710.00 668.00 C 710.00 683.61 693.25 682.64 680.00 682.00 C 666.75 681.36 647.42 686.09 646.21 669.77 C 645.01 653.45 646.42 636.50 646.00 620.00 C 645.58 603.50 646.22 586.58 646.00 570.00 C 645.78 553.42 646.16 536.60 646.00 520.00 C 640.43 520.49 633.25 519.66 627.00 520.00 C 629.15 535.83 627.54 552.75 628.00 569.00 C 628.46 585.25 627.47 602.90 628.00 619.00 C 628.53 635.10 627.40 652.93 627.22 668.22 C 627.04 683.51 610.55 682.72 597.00 682.00 C 583.45 681.28 568.01 685.45 566.61 670.25 C 565.20 655.05 566.24 637.11 566.00 621.00 C 565.76 604.89 566.13 587.49 566.00 571.00 C 565.87 554.51 566.09 536.62 566.00 520.00 C 535.25 521.66 502.75 521.66 472.00 520.00 C 473.60 529.25 474.10 540.74 475.20 550.25 C 476.30 559.75 477.64 568.51 480.59 576.75 C 483.54 585.00 484.98 592.76 487.93 601.08 C 490.88 609.40 492.69 616.81 495.19 625.25 C 497.70 633.69 500.74 640.83 503.76 649.25 C 506.77 657.67 506.47 665.04 510.39 673.75 C 514.32 682.47 513.22 689.07 518.97 698.03 C 524.73 706.99 536.50 704.21 550.00 704.00 C 563.50 703.79 582.36 704.07 597.00 704.00 C 611.64 703.93 628.91 703.99 644.00 704.00 C 659.09 704.01 675.85 703.89 691.00 704.00 C 706.15 704.11 723.12 703.72 738.00 704.00 C 752.88 704.28 770.92 703.37 785.00 704.00 C 799.08 704.63 817.60 699.90 822.19 710.25 C 826.78 720.61 829.79 724.16 833.00 734.00 C 804.56 732.02 773.73 733.19 745.00 733.00 C 716.27 732.81 684.12 732.98 656.00 733.00 C 627.88 733.02 592.40 732.77 566.00 733.00 C 539.60 733.23 516.06 736.87 500.75 721.25 C 485.45 705.62 487.76 690.30 481.20 673.75 C 474.64 657.20 472.19 642.64 467.20 625.75 C 462.21 608.87 457.73 593.66 453.24 576.75 C 448.76 559.85 450.19 538.64 448.00 520.00 C 433.77 520.73 414.34 512.82 415.34 493.32 C 416.34 473.83 411.95 447.10 420.90 430.90 C 429.85 414.70 454.54 414.05 475.00 416.00 C 472.58 370.17 508.79 321.33 550.25 305.25 C 591.70 289.17 645.95 295.85 677.00 326.00 C 687.58 319.69 693.26 309.01 703.30 303.30 C 713.33 297.58 724.43 306.99 733.00 312.00 C 740.30 280.66 755.08 250.88 770.00 222.00 C 748.06 212.18 752.98 193.13 752.00 168.00 C 751.02 142.87 768.21 135.83 793.00 137.00 C 817.79 138.17 850.60 137.84 875.00 137.00 C 899.40 136.16 916.06 141.58 915.00 165.00 C 913.94 188.42 921.00 215.10 897.00 221.00 M 1034.00 726.00  C 1050.81 737.86 1068.60 749.17 1085.08 760.92 C 1101.57 772.66 1120.42 782.33 1135.97 796.04 C 1151.51 809.74 1129.60 840.97 1111.75 830.80 C 1093.90 820.64 1077.64 804.77 1061.32 793.68 C 1045.00 782.59 1030.38 769.07 1014.00 756.00 C 988.60 777.69 946.91 786.13 911.77 778.23 C 876.63 770.33 846.64 747.27 833.69 712.30 C 820.74 677.34 823.86 641.35 846.30 610.30 C 868.74 579.24 908.26 563.06 945.68 565.66 C 983.10 568.27 1019.71 592.61 1037.11 624.89 C 1054.50 657.17 1052.28 695.58 1034.00 726.00 Z"/>
</g>
<g fill="None" fill-opacity="0.0" stroke="#000000" stroke-opacity="0.98" stroke-width="0.3"><path d=" M 897.00 221.00  C 921.00 215.10 913.94 188.42 915.00 165.00 C 916.06 141.58 899.40 136.16 875.00 137.00 C 850.60 137.84 817.79 138.17 793.00 137.00 C 768.21 135.83 751.02 142.87 752.00 168.00 C 752.98 193.13 748.06 212.18 770.00 222.00 C 755.08 250.88 740.30 280.66 733.00 312.00 C 724.43 306.99 713.33 297.58 703.30 303.30 C 693.26 309.01 687.58 319.69 677.00 326.00 C 645.95 295.85 591.70 289.17 550.25 305.25 C 508.79 321.33 472.58 370.17 475.00 416.00 C 454.54 414.05 429.85 414.70 420.90 430.90 C 411.95 447.10 416.34 473.83 415.34 493.32 C 414.34 512.82 433.77 520.73 448.00 520.00 C 450.19 538.64 448.76 559.85 453.24 576.75 C 457.73 593.66 462.21 608.87 467.20 625.75 C 472.19 642.64 474.64 657.20 481.20 673.75 C 487.76 690.30 485.45 705.62 500.75 721.25 C 516.06 736.87 539.60 733.23 566.00 733.00 C 592.40 732.77 627.88 733.02 656.00 733.00 C 684.12 732.98 716.27 732.81 745.00 733.00 C 773.73 733.19 804.56 732.02 833.00 734.00 C 829.79 724.16 826.78 720.61 822.19 710.25 C 817.60 699.90 799.08 704.63 785.00 704.00 C 770.92 703.37 752.88 704.28 738.00 704.00 C 723.12 703.72 706.15 704.11 691.00 704.00 C 675.85 703.89 659.09 704.01 644.00 704.00 C 628.91 703.99 611.64 703.93 597.00 704.00 C 582.36 704.07 563.50 703.79 550.00 704.00 C 536.50 704.21 524.73 706.99 518.97 698.03 C 513.22 689.07 514.32 682.47 510.39 673.75 C 506.47 665.04 506.77 657.67 503.76 649.25 C 500.74 640.83 497.70 633.69 495.19 625.25 C 492.69 616.81 490.88 609.40 487.93 601.08 C 484.98 592.76 483.54 585.00 480.59 576.75 C 477.64 568.51 476.30 559.75 475.20 550.25 C 474.10 540.74 473.60 529.25 472.00 520.00 C 502.75 521.66 535.25 521.66 566.00 520.00 C 566.09 536.62 565.87 554.51 566.00 571.00 C 566.13 587.49 565.76 604.89 566.00 621.00 C 566.24 637.11 565.20 655.05 566.61 670.25 C 568.01 685.45 583.45 681.28 597.00 682.00 C 610.55 682.72 627.04 683.51 627.22 668.22 C 627.40 652.93 628.53 635.10 628.00 619.00 C 627.47 602.90 628.46 585.25 628.00 569.00 C 627.54 552.75 629.15 535.83 627.00 520.00 C 633.25 519.66 640.43 520.49 646.00 520.00 C 646.16 536.60 645.78 553.42 646.00 570.00 C 646.22 586.58 645.58 603.50 646.00 620.00 C 646.42 636.50 645.01 653.45 646.21 669.77 C 647.42 686.09 666.75 681.36 680.00 682.00 C 693.25 682.64 710.00 683.61 710.00 668.00 C 710.01 652.39 711.76 635.24 711.00 619.00 C 710.24 602.76 711.59 585.32 711.00 569.00 C 710.41 552.68 712.27 535.88 710.00 520.00 C 718.67 520.00 727.33 520.00 736.00 520.00 C 734.23 537.31 734.94 559.68 735.00 577.00 C 735.06 594.32 734.53 619.28 735.00 635.00 C 735.47 650.72 731.00 673.97 741.70 679.29 C 752.40 684.61 778.02 685.87 790.92 679.92 C 803.83 673.98 796.56 649.64 798.00 634.00 C 799.44 618.36 797.42 593.16 798.00 576.00 C 798.58 558.84 798.38 537.10 797.00 520.00 C 803.67 520.00 810.33 520.00 817.00 520.00 C 817.00 534.67 817.00 549.33 817.00 564.00 C 824.92 564.61 833.50 562.75 841.00 565.00 C 842.70 550.60 842.61 534.43 841.00 520.00 C 845.11 519.12 849.54 521.42 853.00 520.00 C 853.00 534.67 853.00 549.33 853.00 564.00 C 861.00 564.00 869.00 564.00 877.00 564.00 C 877.00 549.33 877.00 534.67 877.00 520.00 C 909.59 520.66 942.83 518.67 975.00 521.00 C 971.97 527.30 974.04 535.90 972.20 542.75 C 970.36 549.60 972.55 555.88 971.00 563.00 C 980.68 564.03 986.55 567.04 996.00 569.00 C 997.09 551.66 997.74 536.36 1000.00 520.00 C 1018.66 521.35 1034.12 508.00 1032.00 486.00 C 1029.88 464.00 1038.09 436.50 1020.10 423.90 C 1002.11 411.30 975.93 414.60 952.00 416.00 C 953.30 378.05 945.14 344.48 935.59 310.75 C 926.04 277.03 912.78 250.27 897.00 221.00 M 890.00 161.00  C 889.82 170.32 890.39 187.74 890.00 197.00 C 873.71 199.68 858.69 196.81 841.00 198.00 C 823.32 199.19 807.67 196.08 789.00 198.00 C 770.33 199.92 778.52 174.95 777.00 162.00 C 812.70 158.00 853.84 160.00 890.00 161.00 M 868.00 225.00  C 899.94 283.75 921.12 343.66 924.00 416.00 C 897.13 405.17 871.23 388.85 841.92 373.08 C 812.62 357.30 786.22 340.96 757.00 325.00 C 767.80 290.98 781.29 256.76 800.00 224.00 C 821.47 226.29 845.53 224.37 868.00 225.00 M 658.00 342.00  C 631.00 366.50 601.48 389.99 576.00 416.00 C 551.59 414.33 525.38 414.33 501.00 416.00 C 501.18 380.68 523.47 346.15 556.08 330.08 C 588.68 314.00 631.34 319.90 658.00 342.00 M 714.00 329.00  C 763.60 357.89 811.59 387.01 862.00 413.00 C 854.29 418.92 841.24 415.32 830.00 416.00 C 818.76 416.68 805.62 415.70 794.00 416.00 C 782.38 416.30 769.74 415.88 758.00 416.00 C 746.26 416.12 734.80 415.99 723.00 416.00 C 711.20 416.01 698.84 416.09 687.00 416.00 C 675.16 415.91 662.76 416.25 651.00 416.00 C 639.24 415.75 626.87 417.02 616.00 415.00 C 649.40 389.27 681.29 356.78 714.00 329.00 M 448.00 440.00  C 460.92 436.16 477.29 441.67 492.00 440.00 C 506.71 438.33 523.77 440.75 539.00 440.00 C 554.23 439.25 570.53 440.34 586.00 440.00 C 601.47 439.66 617.43 440.15 633.00 440.00 C 648.57 439.85 664.39 440.06 680.00 440.00 C 695.61 439.94 711.39 440.00 727.00 440.00 C 742.61 440.00 758.43 439.95 774.00 440.00 C 789.57 440.05 805.53 439.85 821.00 440.00 C 836.47 440.15 852.75 439.66 868.00 440.00 C 883.25 440.34 900.26 439.25 915.00 440.00 C 929.74 440.75 948.38 438.34 962.00 440.00 C 975.62 441.66 994.76 434.82 1003.70 443.30 C 1012.65 451.77 1005.06 468.42 1007.00 483.00 C 1008.94 497.58 992.71 497.18 979.00 496.00 C 965.29 494.82 946.78 496.53 932.00 496.00 C 917.22 495.47 900.27 496.24 885.00 496.00 C 869.73 495.76 853.49 496.10 838.00 496.00 C 822.51 495.90 806.58 496.04 791.00 496.00 C 775.42 495.96 759.62 495.99 744.00 496.00 C 728.38 496.01 712.64 495.95 697.00 496.00 C 681.36 496.05 665.63 495.87 650.00 496.00 C 634.37 496.13 618.59 495.70 603.00 496.00 C 587.41 496.30 571.50 495.32 556.00 496.00 C 540.50 496.68 524.30 494.50 509.00 496.00 C 493.70 497.50 476.87 492.68 462.00 496.00 C 447.13 499.32 436.86 490.84 440.00 477.00 C 443.14 463.16 432.78 444.52 448.00 440.00 M 602.00 520.00  C 600.34 565.08 600.33 611.95 602.00 657.00 C 598.53 656.87 595.16 656.87 592.00 658.00 C 592.01 612.84 591.99 565.86 592.00 520.00 C 595.33 520.00 598.67 520.00 602.00 520.00 M 684.00 520.00  C 683.99 564.83 684.01 611.47 684.00 657.00 C 680.00 657.00 676.00 657.00 672.00 657.00 C 672.00 611.33 672.00 565.67 672.00 520.00 C 676.34 519.24 680.14 521.46 684.00 520.00 M 772.00 520.00  C 772.01 564.83 771.99 611.47 772.00 657.00 C 768.33 657.00 764.67 657.00 761.00 657.00 C 760.34 611.75 762.33 565.80 760.00 521.00 C 763.58 520.07 768.30 520.61 772.00 520.00 Z"/>
</g>
<g fill="None" fill-opacity="0.0" stroke="#000000" stroke-opacity="0.00" stroke-width="0.3"><path d=" M 890.00 161.00  C 853.84 160.00 812.70 158.00 777.00 162.00 C 778.52 174.95 770.33 199.92 789.00 198.00 C 807.67 196.08 823.32 199.19 841.00 198.00 C 858.69 196.81 873.71 199.68 890.00 197.00 C 890.39 187.74 889.82 170.32 890.00 161.00 Z"/>
</g>
<g fill="None" fill-opacity="0.0" stroke="#000000" stroke-opacity="0.01" stroke-width="0.3"><path d=" M 868.00 225.00  C 845.53 224.37 821.47 226.29 800.00 224.00 C 781.29 256.76 767.80 290.98 757.00 325.00 C 786.22 340.96 812.62 357.30 841.92 373.08 C 871.23 388.85 897.13 405.17 924.00 416.00 C 921.12 343.66 899.94 283.75 868.00 225.00 Z"/>
</g>
<g fill="None" fill-opacity="0.0" stroke="#000000" stroke-opacity="0.01" stroke-width="0.3"><path d=" M 658.00 342.00  C 631.34 319.90 588.68 314.00 556.08 330.08 C 523.47 346.15 501.18 380.68 501.00 416.00 C 525.38 414.33 551.59 414.33 576.00 416.00 C 601.48 389.99 631.00 366.50 658.00 342.00 Z"/>
</g>
<g fill="None" fill-opacity="0.0" stroke="#000000" stroke-opacity="0.01" stroke-width="0.3"><path d=" M 714.00 329.00  C 681.29 356.78 649.40 389.27 616.00 415.00 C 626.87 417.02 639.24 415.75 651.00 416.00 C 662.76 416.25 675.16 415.91 687.00 416.00 C 698.84 416.09 711.20 416.01 723.00 416.00 C 734.80 415.99 746.26 416.12 758.00 416.00 C 769.74 415.88 782.38 416.30 794.00 416.00 C 805.62 415.70 818.76 416.68 830.00 416.00 C 841.24 415.32 854.29 418.92 862.00 413.00 C 811.59 387.01 763.60 357.89 714.00 329.00 Z"/>
</g>
<g fill="None" fill-opacity="0.0" stroke="#000000" stroke-opacity="0.00" stroke-width="0.3"><path d=" M 448.00 440.00  C 432.78 444.52 443.14 463.16 440.00 477.00 C 436.86 490.84 447.13 499.32 462.00 496.00 C 476.87 492.68 493.70 497.50 509.00 496.00 C 524.30 494.50 540.50 496.68 556.00 496.00 C 571.50 495.32 587.41 496.30 603.00 496.00 C 618.59 495.70 634.37 496.13 650.00 496.00 C 665.63 495.87 681.36 496.05 697.00 496.00 C 712.64 495.95 728.38 496.01 744.00 496.00 C 759.62 495.99 775.42 495.96 791.00 496.00 C 806.58 496.04 822.51 495.90 838.00 496.00 C 853.49 496.10 869.73 495.76 885.00 496.00 C 900.27 496.24 917.22 495.47 932.00 496.00 C 946.78 496.53 965.29 494.82 979.00 496.00 C 992.71 497.18 1008.94 497.58 1007.00 483.00 C 1005.06 468.42 1012.65 451.77 1003.70 443.30 C 994.76 434.82 975.62 441.66 962.00 440.00 C 948.38 438.34 929.74 440.75 915.00 440.00 C 900.26 439.25 883.25 440.34 868.00 440.00 C 852.75 439.66 836.47 440.15 821.00 440.00 C 805.53 439.85 789.57 440.05 774.00 440.00 C 758.43 439.95 742.61 440.00 727.00 440.00 C 711.39 440.00 695.61 439.94 680.00 440.00 C 664.39 440.06 648.57 439.85 633.00 440.00 C 617.43 440.15 601.47 439.66 586.00 440.00 C 570.53 440.34 554.23 439.25 539.00 440.00 C 523.77 440.75 506.71 438.33 492.00 440.00 C 477.29 441.67 460.92 436.16 448.00 440.00 Z"/>
</g>
<g fill="None" fill-opacity="0.0" stroke="#000000" stroke-opacity="0.01" stroke-width="0.3"><path d=" M 602.00 520.00  C 598.67 520.00 595.33 520.00 592.00 520.00 C 591.99 565.86 592.01 612.84 592.00 658.00 C 595.16 656.87 598.53 656.87 602.00 657.00 C 600.33 611.95 600.34 565.08 602.00 520.00 Z"/>
</g>
<g fill="None" fill-opacity="0.0" stroke="#000000" stroke-opacity="0.03" stroke-width="0.3"><path d=" M 684.00 520.00  C 680.14 521.46 676.34 519.24 672.00 520.00 C 672.00 565.67 672.00 611.33 672.00 657.00 C 676.00 657.00 680.00 657.00 684.00 657.00 C 684.01 611.47 683.99 564.83 684.00 520.00 Z"/>
</g>
<g fill="None" fill-opacity="0.0" stroke="#000000" stroke-opacity="0.00" stroke-width="0.3"><path d=" M 772.00 520.00  C 768.30 520.61 763.58 520.07 760.00 521.00 C 762.33 565.80 760.34 611.75 761.00 657.00 C 764.67 657.00 768.33 657.00 772.00 657.00 C 771.99 611.47 772.01 564.83 772.00 520.00 Z"/>
</g>
<g fill="None" fill-opacity="0.0" stroke="#000000" stroke-opacity="0.98" stroke-width="0.3"><path d=" M 1034.00 726.00  C 1052.28 695.58 1054.50 657.17 1037.11 624.89 C 1019.71 592.61 983.10 568.27 945.68 565.66 C 908.26 563.06 868.74 579.24 846.30 610.30 C 823.86 641.35 820.74 677.34 833.69 712.30 C 846.64 747.27 876.63 770.33 911.77 778.23 C 946.91 786.13 988.60 777.69 1014.00 756.00 C 1030.38 769.07 1045.00 782.59 1061.32 793.68 C 1077.64 804.77 1093.90 820.64 1111.75 830.80 C 1129.60 840.97 1151.51 809.74 1135.97 796.04 C 1120.42 782.33 1101.57 772.66 1085.08 760.92 C 1068.60 749.17 1050.81 737.86 1034.00 726.00 M 928.00 588.00  C 964.71 584.53 1000.49 607.00 1016.31 641.69 C 1032.12 676.39 1017.70 715.28 989.30 738.30 C 960.90 761.32 921.76 761.40 892.11 743.89 C 862.45 726.39 846.72 686.68 854.40 653.25 C 862.08 619.81 893.28 591.28 928.00 588.00 Z"/>
</g>
<g fill="None" fill-opacity="0.0" stroke="#000000" stroke-opacity="0.00" stroke-width="0.3"><path d=" M 928.00 588.00  C 893.28 591.28 862.08 619.81 854.40 653.25 C 846.72 686.68 862.45 726.39 892.11 743.89 C 921.76 761.40 960.90 761.32 989.30 738.30 C 1017.70 715.28 1032.12 676.39 1016.31 641.69 C 1000.49 607.00 964.71 584.53 928.00 588.00 Z"/>
</g>
<g fill="#000000" fill-opacity="0.00" stroke="None">
<path d=" M 0.00 1024.00  L 1536.00 1024.00 L 1536.00 0.00 L 0.00 0.00 L 0.00 1024.00 M 897.00 221.00  C 912.78 250.27 926.04 277.03 935.59 310.75 C 945.14 344.48 953.30 378.05 952.00 416.00 C 975.93 414.60 1002.11 411.30 1020.10 423.90 C 1038.09 436.50 1029.88 464.00 1032.00 486.00 C 1034.12 508.00 1018.66 521.35 1000.00 520.00 C 997.74 536.36 997.09 551.66 996.00 569.00 C 986.55 567.04 980.68 564.03 971.00 563.00 C 972.55 555.88 970.36 549.60 972.20 542.75 C 974.04 535.90 971.97 527.30 975.00 521.00 C 942.83 518.67 909.59 520.66 877.00 520.00 C 877.00 534.67 877.00 549.33 877.00 564.00 C 869.00 564.00 861.00 564.00 853.00 564.00 C 853.00 549.33 853.00 534.67 853.00 520.00 C 849.54 521.42 845.11 519.12 841.00 520.00 C 842.61 534.43 842.70 550.60 841.00 565.00 C 833.50 562.75 824.92 564.61 817.00 564.00 C 817.00 549.33 817.00 534.67 817.00 520.00 C 810.33 520.00 803.67 520.00 797.00 520.00 C 798.38 537.10 798.58 558.84 798.00 576.00 C 797.42 593.16 799.44 618.36 798.00 634.00 C 796.56 649.64 803.83 673.98 790.92 679.92 C 778.02 685.87 752.40 684.61 741.70 679.29 C 731.00 673.97 735.47 650.72 735.00 635.00 C 734.53 619.28 735.06 594.32 735.00 577.00 C 734.94 559.68 734.23 537.31 736.00 520.00 C 727.33 520.00 718.67 520.00 710.00 520.00 C 712.27 535.88 710.41 552.68 711.00 569.00 C 711.59 585.32 710.24 602.76 711.00 619.00 C 711.76 635.24 710.01 652.39 710.00 668.00 C 710.00 683.61 693.25 682.64 680.00 682.00 C 666.75 681.36 647.42 686.09 646.21 669.77 C 645.01 653.45 646.42 636.50 646.00 620.00 C 645.58 603.50 646.22 586.58 646.00 570.00 C 645.78 553.42 646.16 536.60 646.00 520.00 C 640.43 520.49 633.25 519.66 627.00 520.00 C 629.15 535.83 627.54 552.75 628.00 569.00 C 628.46 585.25 627.47 602.90 628.00 619.00 C 628.53 635.10 627.40 652.93 627.22 668.22 C 627.04 683.51 610.55 682.72 597.00 682.00 C 583.45 681.28 568.01 685.45 566.61 670.25 C 565.20 655.05 566.24 637.11 566.00 621.00 C 565.76 604.89 566.13 587.49 566.00 571.00 C 565.87 554.51 566.09 536.62 566.00 520.00 C 535.25 521.66 502.75 521.66 472.00 520.00 C 473.60 529.25 474.10 540.74 475.20 550.25 C 476.30 559.75 477.64 568.51 480.59 576.75 C 483.54 585.00 484.98 592.76 487.93 601.08 C 490.88 609.40 492.69 616.81 495.19 625.25 C 497.70 633.69 500.74 640.83 503.76 649.25 C 506.77 657.67 506.47 665.04 510.39 673.75 C 514.32 682.47 513.22 689.07 518.97 698.03 C 524.73 706.99 536.50 704.21 550.00 704.00 C 563.50 703.79 582.36 704.07 597.00 704.00 C 611.64 703.93 628.91 703.99 644.00 704.00 C 659.09 704.01 675.85 703.89 691.00 704.00 C 706.15 704.11 723.12 703.72 738.00 704.00 C 752.88 704.28 770.92 703.37 785.00 704.00 C 799.08 704.63 817.60 699.90 822.19 710.25 C 826.78 720.61 829.79 724.16 833.00 734.00 C 804.56 732.02 773.73 733.19 745.00 733.00 C 716.27 732.81 684.12 732.98 656.00 733.00 C 627.88 733.02 592.40 732.77 566.00 733.00 C 539.60 733.23 516.06 736.87 500.75 721.25 C 485.45 705.62 487.76 690.30 481.20 673.75 C 474.64 657.20 472.19 642.64 467.20 625.75 C 462.21 608.87 457.73 593.66 453.24 576.75 C 448.76 559.85 450.19 538.64 448.00 520.00 C 433.77 520.73 414.34 512.82 415.34 493.32 C 416.34 473.83 411.95 447.10 420.90 430.90 C 429.85 414.70 454.54 414.05 475.00 416.00 C 472.58 370.17 508.79 321.33 550.25 305.25 C 591.70 289.17 645.95 295.85 677.00 326.00 C 687.58 319.69 693.26 309.01 703.30 303.30 C 713.33 297.58 724.43 306.99 733.00 312.00 C 740.30 280.66 755.08 250.88 770.00 222.00 C 748.06 212.18 752.98 193.13 752.00 168.00 C 751.02 142.87 768.21 135.83 793.00 137.00 C 817.79 138.17 850.60 137.84 875.00 137.00 C 899.40 136.16 916.06 141.58 915.00 165.00 C 913.94 188.42 921.00 215.10 897.00 221.00 M 1034.00 726.00  C 1050.81 737.86 1068.60 749.17 1085.08 760.92 C 1101.57 772.66 1120.42 782.33 1135.97 796.04 C 1151.51 809.74 1129.60 840.97 1111.75 830.80 C 1093.90 820.64 1077.64 804.77 1061.32 793.68 C 1045.00 782.59 1030.38 769.07 1014.00 756.00 C 988.60 777.69 946.91 786.13 911.77 778.23 C 876.63 770.33 846.64 747.27 833.69 712.30 C 820.74 677.34 823.86 641.35 846.30 610.30 C 868.74 579.24 908.26 563.06 945.68 565.66 C 983.10 568.27 1019.71 592.61 1037.11 624.89 C 1054.50 657.17 1052.28 695.58 1034.00 726.00 Z"/>
</g>
<g fill="#000000" fill-opacity="0.98" stroke="None">
<path d=" M 897.00 221.00  C 921.00 215.10 913.94 188.42 915.00 165.00 C 916.06 141.58 899.40 136.16 875.00 137.00 C 850.60 137.84 817.79 138.17 793.00 137.00 C 768.21 135.83 751.02 142.87 752.00 168.00 C 752.98 193.13 748.06 212.18 770.00 222.00 C 755.08 250.88 740.30 280.66 733.00 312.00 C 724.43 306.99 713.33 297.58 703.30 303.30 C 693.26 309.01 687.58 319.69 677.00 326.00 C 645.95 295.85 591.70 289.17 550.25 305.25 C 508.79 321.33 472.58 370.17 475.00 416.00 C 454.54 414.05 429.85 414.70 420.90 430.90 C 411.95 447.10 416.34 473.83 415.34 493.32 C 414.34 512.82 433.77 520.73 448.00 520.00 C 450.19 538.64 448.76 559.85 453.24 576.75 C 457.73 593.66 462.21 608.87 467.20 625.75 C 472.19 642.64 474.64 657.20 481.20 673.75 C 487.76 690.30 485.45 705.62 500.75 721.25 C 516.06 736.87 539.60 733.23 566.00 733.00 C 592.40 732.77 627.88 733.02 656.00 733.00 C 684.12 732.98 716.27 732.81 745.00 733.00 C 773.73 733.19 804.56 732.02 833.00 734.00 C 829.79 724.16 826.78 720.61 822.19 710.25 C 817.60 699.90 799.08 704.63 785.00 704.00 C 770.92 703.37 752.88 704.28 738.00 704.00 C 723.12 703.72 706.15 704.11 691.00 704.00 C 675.85 703.89 659.09 704.01 644.00 704.00 C 628.91 703.99 611.64 703.93 597.00 704.00 C 582.36 704.07 563.50 703.79 550.00 704.00 C 536.50 704.21 524.73 706.99 518.97 698.03 C 513.22 689.07 514.32 682.47 510.39 673.75 C 506.47 665.04 506.77 657.67 503.76 649.25 C 500.74 640.83 497.70 633.69 495.19 625.25 C 492.69 616.81 490.88 609.40 487.93 601.08 C 484.98 592.76 483.54 585.00 480.59 576.75 C 477.64 568.51 476.30 559.75 475.20 550.25 C 474.10 540.74 473.60 529.25 472.00 520.00 C 502.75 521.66 535.25 521.66 566.00 520.00 C 566.09 536.62 565.87 554.51 566.00 571.00 C 566.13 587.49 565.76 604.89 566.00 621.00 C 566.24 637.11 565.20 655.05 566.61 670.25 C 568.01 685.45 583.45 681.28 597.00 682.00 C 610.55 682.72 627.04 683.51 627.22 668.22 C 627.40 652.93 628.53 635.10 628.00 619.00 C 627.47 602.90 628.46 585.25 628.00 569.00 C 627.54 552.75 629.15 535.83 627.00 520.00 C 633.25 519.66 640.43 520.49 646.00 520.00 C 646.16 536.60 645.78 553.42 646.00 570.00 C 646.22 586.58 645.58 603.50 646.00 620.00 C 646.42 636.50 645.01 653.45 646.21 669.77 C 647.42 686.09 666.75 681.36 680.00 682.00 C 693.25 682.64 710.00 683.61 710.00 668.00 C 710.01 652.39 711.76 635.24 711.00 619.00 C 710.24 602.76 711.59 585.32 711.00 569.00 C 710.41 552.68 712.27 535.88 710.00 520.00 C 718.67 520.00 727.33 520.00 736.00 520.00 C 734.23 537.31 734.94 559.68 735.00 577.00 C 735.06 594.32 734.53 619.28 735.00 635.00 C 735.47 650.72 731.00 673.97 741.70 679.29 C 752.40 684.61 778.02 685.87 790.92 679.92 C 803.83 673.98 796.56 649.64 798.00 634.00 C 799.44 618.36 797.42 593.16 798.00 576.00 C 798.58 558.84 798.38 537.10 797.00 520.00 C 803.67 520.00 810.33 520.00 817.00 520.00 C 817.00 534.67 817.00 549.33 817.00 564.00 C 824.92 564.61 833.50 562.75 841.00 565.00 C 842.70 550.60 842.61 534.43 841.00 520.00 C 845.11 519.12 849.54 521.42 853.00 520.00 C 853.00 534.67 853.00 549.33 853.00 564.00 C 861.00 564.00 869.00 564.00 877.00 564.00 C 877.00 549.33 877.00 534.67 877.00 520.00 C 909.59 520.66 942.83 518.67 975.00 521.00 C 971.97 527.30 974.04 535.90 972.20 542.75 C 970.36 549.60 972.55 555.88 971.00 563.00 C 980.68 564.03 986.55 567.04 996.00 569.00 C 997.09 551.66 997.74 536.36 1000.00 520.00 C 1018.66 521.35 1034.12 508.00 1032.00 486.00 C 1029.88 464.00 1038.09 436.50 1020.10 423.90 C 1002.11 411.30 975.93 414.60 952.00 416.00 C 953.30 378.05 945.14 344.48 935.59 310.75 C 926.04 277.03 912.78 250.27 897.00 221.00 M 890.00 161.00  C 889.82 170.32 890.39 187.74 890.00 197.00 C 873.71 199.68 858.69 196.81 841.00 198.00 C 823.32 199.19 807.67 196.08 789.00 198.00 C 770.33 199.92 778.52 174.95 777.00 162.00 C 812.70 158.00 853.84 160.00 890.00 161.00 M 868.00 225.00  C 899.94 283.75 921.12 343.66 924.00 416.00 C 897.13 405.17 871.23 388.85 841.92 373.08 C 812.62 357.30 786.22 340.96 757.00 325.00 C 767.80 290.98 781.29 256.76 800.00 224.00 C 821.47 226.29 845.53 224.37 868.00 225.00 M 658.00 342.00  C 631.00 366.50 601.48 389.99 576.00 416.00 C 551.59 414.33 525.38 414.33 501.00 416.00 C 501.18 380.68 523.47 346.15 556.08 330.08 C 588.68 314.00 631.34 319.90 658.00 342.00 M 714.00 329.00  C 763.60 357.89 811.59 387.01 862.00 413.00 C 854.29 418.92 841.24 415.32 830.00 416.00 C 818.76 416.68 805.62 415.70 794.00 416.00 C 782.38 416.30 769.74 415.88 758.00 416.00 C 746.26 416.12 734.80 415.99 723.00 416.00 C 711.20 416.01 698.84 416.09 687.00 416.00 C 675.16 415.91 662.76 416.25 651.00 416.00 C 639.24 415.75 626.87 417.02 616.00 415.00 C 649.40 389.27 681.29 356.78 714.00 329.00 M 448.00 440.00  C 460.92 436.16 477.29 441.67 492.00 440.00 C 506.71 438.33 523.77 440.75 539.00 440.00 C 554.23 439.25 570.53 440.34 586.00 440.00 C 601.47 439.66 617.43 440.15 633.00 440.00 C 648.57 439.85 664.39 440.06 680.00 440.00 C 695.61 439.94 711.39 440.00 727.00 440.00 C 742.61 440.00 758.43 439.95 774.00 440.00 C 789.57 440.05 805.53 439.85 821.00 440.00 C 836.47 440.15 852.75 439.66 868.00 440.00 C 883.25 440.34 900.26 439.25 915.00 440.00 C 929.74 440.75 948.38 438.34 962.00 440.00 C 975.62 441.66 994.76 434.82 1003.70 443.30 C 1012.65 451.77 1005.06 468.42 1007.00 483.00 C 1008.94 497.58 992.71 497.18 979.00 496.00 C 965.29 494.82 946.78 496.53 932.00 496.00 C 917.22 495.47 900.27 496.24 885.00 496.00 C 869.73 495.76 853.49 496.10 838.00 496.00 C 822.51 495.90 806.58 496.04 791.00 496.00 C 775.42 495.96 759.62 495.99 744.00 496.00 C 728.38 496.01 712.64 495.95 697.00 496.00 C 681.36 496.05 665.63 495.87 650.00 496.00 C 634.37 496.13 618.59 495.70 603.00 496.00 C 587.41 496.30 571.50 495.32 556.00 496.00 C 540.50 496.68 524.30 494.50 509.00 496.00 C 493.70 497.50 476.87 492.68 462.00 496.00 C 447.13 499.32 436.86 490.84 440.00 477.00 C 443.14 463.16 432.78 444.52 448.00 440.00 M 602.00 520.00  C 600.34 565.08 600.33 611.95 602.00 657.00 C 598.53 656.87 595.16 656.87 592.00 658.00 C 592.01 612.84 591.99 565.86 592.00 520.00 C 595.33 520.00 598.67 520.00 602.00 520.00 M 684.00 520.00  C 683.99 564.83 684.01 611.47 684.00 657.00 C 680.00 657.00 676.00 657.00 672.00 657.00 C 672.00 611.33 672.00 565.67 672.00 520.00 C 676.34 519.24 680.14 521.46 684.00 520.00 M 772.00 520.00  C 772.01 564.83 771.99 611.47 772.00 657.00 C 768.33 657.00 764.67 657.00 761.00 657.00 C 760.34 611.75 762.33 565.80 760.00 521.00 C 763.58 520.07 768.30 520.61 772.00 520.00 Z"/>
</g>
<g fill="#000000" fill-opacity="0.00" stroke="None">
<path d=" M 890.00 161.00  C 853.84 160.00 812.70 158.00 777.00 162.00 C 778.52 174.95 770.33 199.92 789.00 198.00 C 807.67 196.08 823.32 199.19 841.00 198.00 C 858.69 196.81 873.71 199.68 890.00 197.00 C 890.39 187.74 889.82 170.32 890.00 161.00 Z"/>
</g>
<g fill="#000000" fill-opacity="0.01" stroke="None">
<path d=" M 868.00 225.00  C 845.53 224.37 821.47 226.29 800.00 224.00 C 781.29 256.76 767.80 290.98 757.00 325.00 C 786.22 340.96 812.62 357.30 841.92 373.08 C 871.23 388.85 897.13 405.17 924.00 416.00 C 921.12 343.66 899.94 283.75 868.00 225.00 Z"/>
</g>
<g fill="#000000" fill-opacity="0.01" stroke="None">
<path d=" M 658.00 342.00  C 631.34 319.90 588.68 314.00 556.08 330.08 C 523.47 346.15 501.18 380.68 501.00 416.00 C 525.38 414.33 551.59 414.33 576.00 416.00 C 601.48 389.99 631.00 366.50 658.00 342.00 Z"/>
</g>
<g fill="#000000" fill-opacity="0.01" stroke="None">
<path d=" M 714.00 329.00  C 681.29 356.78 649.40 389.27 616.00 415.00 C 626.87 417.02 639.24 415.75 651.00 416.00 C 662.76 416.25 675.16 415.91 687.00 416.00 C 698.84 416.09 711.20 416.01 723.00 416.00 C 734.80 415.99 746.26 416.12 758.00 416.00 C 769.74 415.88 782.38 416.30 794.00 416.00 C 805.62 415.70 818.76 416.68 830.00 416.00 C 841.24 415.32 854.29 418.92 862.00 413.00 C 811.59 387.01 763.60 357.89 714.00 329.00 Z"/>
</g>
<g fill="#000000" fill-opacity="0.00" stroke="None">
<path d=" M 448.00 440.00  C 432.78 444.52 443.14 463.16 440.00 477.00 C 436.86 490.84 447.13 499.32 462.00 496.00 C 476.87 492.68 493.70 497.50 509.00 496.00 C 524.30 494.50 540.50 496.68 556.00 496.00 C 571.50 495.32 587.41 496.30 603.00 496.00 C 618.59 495.70 634.37 496.13 650.00 496.00 C 665.63 495.87 681.36 496.05 697.00 496.00 C 712.64 495.95 728.38 496.01 744.00 496.00 C 759.62 495.99 775.42 495.96 791.00 496.00 C 806.58 496.04 822.51 495.90 838.00 496.00 C 853.49 496.10 869.73 495.76 885.00 496.00 C 900.27 496.24 917.22 495.47 932.00 496.00 C 946.78 496.53 965.29 494.82 979.00 496.00 C 992.71 497.18 1008.94 497.58 1007.00 483.00 C 1005.06 468.42 1012.65 451.77 1003.70 443.30 C 994.76 434.82 975.62 441.66 962.00 440.00 C 948.38 438.34 929.74 440.75 915.00 440.00 C 900.26 439.25 883.25 440.34 868.00 440.00 C 852.75 439.66 836.47 440.15 821.00 440.00 C 805.53 439.85 789.57 440.05 774.00 440.00 C 758.43 439.95 742.61 440.00 727.00 440.00 C 711.39 440.00 695.61 439.94 680.00 440.00 C 664.39 440.06 648.57 439.85 633.00 440.00 C 617.43 440.15 601.47 439.66 586.00 440.00 C 570.53 440.34 554.23 439.25 539.00 440.00 C 523.77 440.75 506.71 438.33 492.00 440.00 C 477.29 441.67 460.92 436.16 448.00 440.00 Z"/>
</g>
<g fill="#000000" fill-opacity="0.01" stroke="None">
<path d=" M 602.00 520.00  C 598.67 520.00 595.33 520.00 592.00 520.00 C 591.99 565.86 592.01 612.84 592.00 658.00 C 595.16 656.87 598.53 656.87 602.00 657.00 C 600.33 611.95 600.34 565.08 602.00 520.00 Z"/>
</g>
<g fill="#000000" fill-opacity="0.03" stroke="None">
<path d=" M 684.00 520.00  C 680.14 521.46 676.34 519.24 672.00 520.00 C 672.00 565.67 672.00 611.33 672.00 657.00 C 676.00 657.00 680.00 657.00 684.00 657.00 C 684.01 611.47 683.99 564.83 684.00 520.00 Z"/>
</g>
<g fill="#000000" fill-opacity="0.00" stroke="None">
<path d=" M 772.00 520.00  C 768.30 520.61 763.58 520.07 760.00 521.00 C 762.33 565.80 760.34 611.75 761.00 657.00 C 764.67 657.00 768.33 657.00 772.00 657.00 C 771.99 611.47 772.01 564.83 772.00 520.00 Z"/>
</g>
<g fill="#000000" fill-opacity="0.98" stroke="None">
<path d=" M 1034.00 726.00  C 1052.28 695.58 1054.50 657.17 1037.11 624.89 C 1019.71 592.61 983.10 568.27 945.68 565.66 C 908.26 563.06 868.74 579.24 846.30 610.30 C 823.86 641.35 820.74 677.34 833.69 712.30 C 846.64 747.27 876.63 770.33 911.77 778.23 C 946.91 786.13 988.60 777.69 1014.00 756.00 C 1030.38 769.07 1045.00 782.59 1061.32 793.68 C 1077.64 804.77 1093.90 820.64 1111.75 830.80 C 1129.60 840.97 1151.51 809.74 1135.97 796.04 C 1120.42 782.33 1101.57 772.66 1085.08 760.92 C 1068.60 749.17 1050.81 737.86 1034.00 726.00 M 928.00 588.00  C 964.71 584.53 1000.49 607.00 1016.31 641.69 C 1032.12 676.39 1017.70 715.28 989.30 738.30 C 960.90 761.32 921.76 761.40 892.11 743.89 C 862.45 726.39 846.72 686.68 854.40 653.25 C 862.08 619.81 893.28 591.28 928.00 588.00 Z"/>
</g>
<g fill="#000000" fill-opacity="0.00" stroke="None">
<path d=" M 928.00 588.00  C 893.28 591.28 862.08 619.81 854.40 653.25 C 846.72 686.68 862.45 726.39 892.11 743.89 C 921.76 761.40 960.90 761.32 989.30 738.30 C 1017.70 715.28 1032.12 676.39 1016.31 641.69 C 1000.49 607.00 964.71 584.53 928.00 588.00 Z"/>
</g>
</svg>
