<svg xmlns="http://www.w3.org/2000/svg" xmlns:v="https://svgstorm.com" viewBox="352.67 67.01 863.75 863.75" width="100%" height="100%">
<g fill="None" fill-opacity="0.0" stroke="#000000" stroke-opacity="0.00" stroke-width="0.3"><path d=" M 0.00 1024.00  L 1536.00 1024.00 L 1536.00 0.00 L 0.00 0.00 L 0.00 1024.00 M 993.00 579.00  C 984.00 579.00 975.00 579.00 966.00 579.00 C 966.64 476.76 965.03 372.68 966.00 272.00 C 820.98 274.34 673.72 272.33 529.00 273.00 C 531.33 459.83 529.34 647.75 530.00 835.00 C 636.00 835.00 742.00 835.00 848.00 835.00 C 848.00 844.67 848.00 854.33 848.00 864.00 C 826.30 863.97 804.71 864.04 783.00 864.00 C 761.29 863.96 738.64 864.07 717.00 864.00 C 695.36 863.93 673.44 864.15 652.00 864.00 C 630.56 863.85 606.99 864.32 586.00 864.00 C 565.01 863.68 539.87 864.69 520.00 864.00 C 500.13 863.31 473.62 865.66 456.75 863.80 C 439.89 861.94 431.41 857.49 419.32 847.68 C 407.23 837.87 400.53 826.70 396.41 812.25 C 392.29 797.80 394.88 779.65 394.00 760.00 C 393.12 740.35 394.40 714.83 394.00 694.00 C 393.60 673.17 394.18 650.38 394.00 629.00 C 393.82 607.62 394.07 584.60 394.00 563.00 C 393.93 541.40 394.01 519.67 394.00 498.00 C 393.99 476.33 393.97 453.63 394.00 432.00 C 394.03 410.37 393.90 388.46 394.00 367.00 C 394.10 345.54 393.76 322.03 394.00 301.00 C 394.24 279.97 393.46 254.97 394.00 235.00 C 394.54 215.03 391.93 199.54 397.40 185.25 C 402.87 170.97 411.72 157.18 424.89 148.89 C 438.07 140.61 441.93 137.21 460.03 136.02 C 478.12 134.84 504.84 136.50 525.00 136.00 C 545.16 135.50 569.95 136.20 591.00 136.00 C 612.05 135.80 634.55 136.04 656.00 136.00 C 677.45 135.96 700.42 135.90 722.00 136.00 C 743.58 136.10 765.45 135.68 787.00 136.00 C 808.55 136.32 831.68 135.27 853.00 136.00 C 874.32 136.73 898.36 134.38 919.00 136.00 C 939.64 137.62 963.11 132.12 981.75 136.40 C 1000.40 140.67 991.42 166.53 993.00 185.00 C 994.58 203.47 992.30 229.63 993.00 250.00 C 993.70 270.37 992.68 294.77 993.00 316.00 C 993.32 337.23 992.85 360.43 993.00 382.00 C 993.15 403.57 992.94 425.25 993.00 447.00 C 993.06 468.75 992.97 491.13 993.00 513.00 C 993.03 534.87 992.98 557.10 993.00 579.00 M 797.00 380.00  C 828.98 364.89 867.83 380.81 881.30 412.70 C 894.78 444.58 871.08 487.99 835.00 489.00 C 834.61 500.45 837.28 511.71 837.80 523.25 C 838.33 534.78 840.00 548.22 840.93 560.08 C 841.87 571.94 846.21 590.62 828.99 590.01 C 811.77 589.39 793.48 590.04 776.00 590.00 C 758.52 589.96 739.50 589.53 722.00 590.00 C 704.50 590.47 685.18 588.70 668.00 590.00 C 650.82 591.30 652.08 576.45 653.00 564.00 C 653.91 551.54 655.15 537.02 655.80 524.75 C 656.45 512.49 656.62 501.44 658.00 489.00 C 625.30 488.44 599.19 451.59 607.93 418.92 C 616.68 386.25 658.79 361.91 691.00 380.00 C 710.15 334.94 780.57 336.83 797.00 380.00 M 1076.00 704.00  C 1064.22 704.71 1049.99 705.98 1039.93 706.93 C 1029.86 707.87 1022.42 707.30 1012.75 709.80 C 1003.09 712.30 996.44 713.77 986.92 717.92 C 977.40 722.07 966.90 729.62 961.70 738.70 C 956.49 747.77 953.89 754.90 952.36 763.70 C 950.82 772.50 954.07 786.58 953.80 794.25 C 953.53 801.91 961.74 818.53 951.92 821.92 C 942.11 825.32 933.77 807.11 929.10 800.90 C 924.42 794.69 919.97 782.20 916.81 774.75 C 913.64 767.30 910.83 757.97 909.61 749.25 C 908.38 740.53 906.07 726.26 908.20 716.75 C 910.33 707.24 910.66 701.21 914.92 691.92 C 919.18 682.62 926.16 671.46 933.25 664.25 C 940.34 657.04 951.12 651.36 957.75 647.61 C 964.38 643.86 973.25 640.18 982.25 637.80 C 991.24 635.42 998.27 632.57 1007.75 631.61 C 1017.23 630.64 1025.31 628.32 1036.25 628.20 C 1047.19 628.08 1063.94 625.44 1076.00 628.00 C 1075.65 614.36 1072.24 583.05 1087.03 583.98 C 1101.82 584.91 1109.22 598.94 1119.25 607.19 C 1129.27 615.45 1141.62 627.64 1150.75 636.25 C 1159.88 644.86 1177.16 656.87 1175.22 668.22 C 1173.29 679.57 1155.93 689.69 1147.25 699.25 C 1138.57 708.81 1126.10 720.58 1116.25 729.25 C 1106.41 737.93 1097.55 756.65 1083.75 752.24 C 1069.96 747.84 1075.41 718.08 1076.00 704.00 M 971.00 607.00  C 973.27 610.19 975.14 614.01 972.00 618.00 C 957.64 616.84 948.72 630.61 933.00 629.00 C 917.28 627.39 901.02 629.89 892.10 642.10 C 883.18 654.31 886.15 669.42 886.00 688.00 C 885.85 706.58 885.49 731.43 886.00 750.00 C 886.51 768.57 884.40 793.64 886.22 810.22 C 888.04 826.80 895.78 834.11 909.75 838.39 C 923.73 842.68 949.32 841.01 967.00 841.00 C 984.68 840.99 1010.91 841.55 1029.00 841.00 C 1047.09 840.45 1066.16 843.93 1080.70 836.69 C 1095.23 829.46 1100.04 814.96 1098.00 798.00 C 1095.96 781.04 1099.56 766.18 1114.00 760.00 C 1115.43 760.17 1118.02 762.38 1120.00 761.00 C 1120.67 787.47 1129.17 819.07 1112.68 840.68 C 1096.19 862.29 1078.06 864.33 1048.00 864.00 C 1017.94 863.67 977.00 863.26 946.00 864.00 C 915.00 864.74 895.47 864.74 876.75 845.25 C 858.03 825.75 860.92 807.52 861.00 777.00 C 861.08 746.48 862.07 704.52 861.00 675.00 C 859.93 645.48 863.47 630.31 887.07 615.07 C 910.67 599.84 942.34 610.08 971.00 607.00 M 836.00 669.00  C 834.26 678.13 834.47 688.86 836.00 698.00 C 813.43 698.14 789.43 697.82 767.00 698.00 C 744.57 698.18 718.80 697.65 697.00 698.00 C 675.20 698.35 648.21 697.25 628.00 698.00 C 607.79 698.75 607.05 669.13 627.03 669.02 C 647.00 668.92 674.26 669.03 696.00 669.00 C 717.74 668.97 743.50 669.02 766.00 669.00 C 788.50 668.98 813.29 669.01 836.00 669.00 Z"/>
</g>
<g fill="None" fill-opacity="0.0" stroke="#000000" stroke-opacity="0.98" stroke-width="0.3"><path d=" M 993.00 579.00  C 992.98 557.10 993.03 534.87 993.00 513.00 C 992.97 491.13 993.06 468.75 993.00 447.00 C 992.94 425.25 993.15 403.57 993.00 382.00 C 992.85 360.43 993.32 337.23 993.00 316.00 C 992.68 294.77 993.70 270.37 993.00 250.00 C 992.30 229.63 994.58 203.47 993.00 185.00 C 991.42 166.53 1000.40 140.67 981.75 136.40 C 963.11 132.12 939.64 137.62 919.00 136.00 C 898.36 134.38 874.32 136.73 853.00 136.00 C 831.68 135.27 808.55 136.32 787.00 136.00 C 765.45 135.68 743.58 136.10 722.00 136.00 C 700.42 135.90 677.45 135.96 656.00 136.00 C 634.55 136.04 612.05 135.80 591.00 136.00 C 569.95 136.20 545.16 135.50 525.00 136.00 C 504.84 136.50 478.12 134.84 460.03 136.02 C 441.93 137.21 438.07 140.61 424.89 148.89 C 411.72 157.18 402.87 170.97 397.40 185.25 C 391.93 199.54 394.54 215.03 394.00 235.00 C 393.46 254.97 394.24 279.97 394.00 301.00 C 393.76 322.03 394.10 345.54 394.00 367.00 C 393.90 388.46 394.03 410.37 394.00 432.00 C 393.97 453.63 393.99 476.33 394.00 498.00 C 394.01 519.67 393.93 541.40 394.00 563.00 C 394.07 584.60 393.82 607.62 394.00 629.00 C 394.18 650.38 393.60 673.17 394.00 694.00 C 394.40 714.83 393.12 740.35 394.00 760.00 C 394.88 779.65 392.29 797.80 396.41 812.25 C 400.53 826.70 407.23 837.87 419.32 847.68 C 431.41 857.49 439.89 861.94 456.75 863.80 C 473.62 865.66 500.13 863.31 520.00 864.00 C 539.87 864.69 565.01 863.68 586.00 864.00 C 606.99 864.32 630.56 863.85 652.00 864.00 C 673.44 864.15 695.36 863.93 717.00 864.00 C 738.64 864.07 761.29 863.96 783.00 864.00 C 804.71 864.04 826.30 863.97 848.00 864.00 C 848.00 854.33 848.00 844.67 848.00 835.00 C 742.00 835.00 636.00 835.00 530.00 835.00 C 529.34 647.75 531.33 459.83 529.00 273.00 C 673.72 272.33 820.98 274.34 966.00 272.00 C 965.03 372.68 966.64 476.76 966.00 579.00 C 975.00 579.00 984.00 579.00 993.00 579.00 M 966.00 164.00  C 966.00 190.33 966.00 216.67 966.00 243.00 C 929.97 242.90 892.93 243.13 857.00 243.00 C 821.07 242.87 783.55 243.25 748.00 243.00 C 712.45 242.75 673.66 243.54 639.00 243.00 C 604.34 242.46 562.64 244.19 530.00 243.00 C 497.36 241.81 462.18 248.87 441.23 235.43 C 420.28 221.98 418.50 190.75 440.68 174.68 C 462.86 158.61 497.02 165.91 530.00 165.00 C 562.98 164.09 604.20 165.46 639.00 165.00 C 673.81 164.54 712.39 165.31 748.00 165.00 C 783.61 164.69 821.07 165.36 857.00 165.00 C 892.93 164.64 930.43 166.11 966.00 164.00 M 501.00 272.00  C 501.00 459.67 501.00 647.33 501.00 835.00 C 476.14 835.41 443.58 839.46 430.74 817.26 C 417.91 795.06 425.44 768.33 424.00 738.00 C 422.56 707.67 424.65 673.25 424.00 642.00 C 423.35 610.75 424.30 577.68 424.00 546.00 C 423.70 514.32 424.14 481.90 424.00 450.00 C 423.86 418.10 424.07 386.05 424.00 354.00 C 423.93 321.95 424.05 289.12 424.00 257.00 C 443.03 274.19 470.91 274.78 501.00 272.00 Z"/>
</g>
<g fill="None" fill-opacity="0.0" stroke="#000000" stroke-opacity="0.00" stroke-width="0.3"><path d=" M 966.00 164.00  C 930.43 166.11 892.93 164.64 857.00 165.00 C 821.07 165.36 783.61 164.69 748.00 165.00 C 712.39 165.31 673.81 164.54 639.00 165.00 C 604.20 165.46 562.98 164.09 530.00 165.00 C 497.02 165.91 462.86 158.61 440.68 174.68 C 418.50 190.75 420.28 221.98 441.23 235.43 C 462.18 248.87 497.36 241.81 530.00 243.00 C 562.64 244.19 604.34 242.46 639.00 243.00 C 673.66 243.54 712.45 242.75 748.00 243.00 C 783.55 243.25 821.07 242.87 857.00 243.00 C 892.93 243.13 929.97 242.90 966.00 243.00 C 966.00 216.67 966.00 190.33 966.00 164.00 Z"/>
</g>
<g fill="None" fill-opacity="0.0" stroke="#000000" stroke-opacity="0.01" stroke-width="0.3"><path d=" M 501.00 272.00  C 470.91 274.78 443.03 274.19 424.00 257.00 C 424.05 289.12 423.93 321.95 424.00 354.00 C 424.07 386.05 423.86 418.10 424.00 450.00 C 424.14 481.90 423.70 514.32 424.00 546.00 C 424.30 577.68 423.35 610.75 424.00 642.00 C 424.65 673.25 422.56 707.67 424.00 738.00 C 425.44 768.33 417.91 795.06 430.74 817.26 C 443.58 839.46 476.14 835.41 501.00 835.00 C 501.00 647.33 501.00 459.67 501.00 272.00 Z"/>
</g>
<g fill="None" fill-opacity="0.0" stroke="#000000" stroke-opacity="0.98" stroke-width="0.3"><path d=" M 797.00 380.00  C 780.57 336.83 710.15 334.94 691.00 380.00 C 658.79 361.91 616.68 386.25 607.93 418.92 C 599.19 451.59 625.30 488.44 658.00 489.00 C 656.62 501.44 656.45 512.49 655.80 524.75 C 655.15 537.02 653.91 551.54 653.00 564.00 C 652.08 576.45 650.82 591.30 668.00 590.00 C 685.18 588.70 704.50 590.47 722.00 590.00 C 739.50 589.53 758.52 589.96 776.00 590.00 C 793.48 590.04 811.77 589.39 828.99 590.01 C 846.21 590.62 841.87 571.94 840.93 560.08 C 840.00 548.22 838.33 534.78 837.80 523.25 C 837.28 511.71 834.61 500.45 835.00 489.00 C 871.08 487.99 894.78 444.58 881.30 412.70 C 867.83 380.81 828.98 364.89 797.00 380.00 M 812.00 562.00  C 769.95 561.97 725.84 562.02 683.00 562.00 C 684.80 548.28 683.29 534.97 685.21 521.77 C 687.14 508.57 684.97 500.64 687.60 487.25 C 690.24 473.86 683.53 460.23 668.99 462.01 C 654.46 463.79 645.26 456.28 639.23 444.77 C 633.20 433.26 636.42 422.36 642.97 412.97 C 649.51 403.57 665.14 400.91 675.75 403.59 C 686.36 406.28 690.42 419.83 704.25 418.20 C 718.08 416.57 713.84 396.71 720.11 387.11 C 726.37 377.50 738.59 372.69 749.25 374.20 C 759.90 375.70 775.19 386.21 774.19 397.25 C 773.20 408.29 784.01 425.50 795.25 417.20 C 806.49 408.89 814.40 400.60 827.22 402.78 C 840.04 404.96 848.85 408.89 853.92 422.08 C 859.00 435.27 855.39 441.54 847.77 451.77 C 840.15 462.00 827.37 460.83 815.25 462.40 C 803.12 463.97 803.76 481.44 805.20 492.25 C 806.64 503.06 807.35 516.13 808.20 527.25 C 809.04 538.36 809.83 550.57 812.00 562.00 Z"/>
</g>
<g fill="None" fill-opacity="0.0" stroke="#000000" stroke-opacity="0.01" stroke-width="0.3"><path d=" M 812.00 562.00  C 809.83 550.57 809.04 538.36 808.20 527.25 C 807.35 516.13 806.64 503.06 805.20 492.25 C 803.76 481.44 803.12 463.97 815.25 462.40 C 827.37 460.83 840.15 462.00 847.77 451.77 C 855.39 441.54 859.00 435.27 853.92 422.08 C 848.85 408.89 840.04 404.96 827.22 402.78 C 814.40 400.60 806.49 408.89 795.25 417.20 C 784.01 425.50 773.20 408.29 774.19 397.25 C 775.19 386.21 759.90 375.70 749.25 374.20 C 738.59 372.69 726.37 377.50 720.11 387.11 C 713.84 396.71 718.08 416.57 704.25 418.20 C 690.42 419.83 686.36 406.28 675.75 403.59 C 665.14 400.91 649.51 403.57 642.97 412.97 C 636.42 422.36 633.20 433.26 639.23 444.77 C 645.26 456.28 654.46 463.79 668.99 462.01 C 683.53 460.23 690.24 473.86 687.60 487.25 C 684.97 500.64 687.14 508.57 685.21 521.77 C 683.29 534.97 684.80 548.28 683.00 562.00 C 725.84 562.02 769.95 561.97 812.00 562.00 Z"/>
</g>
<g fill="None" fill-opacity="0.0" stroke="#000000" stroke-opacity="0.99" stroke-width="0.3"><path d=" M 1076.00 704.00  C 1075.41 718.08 1069.96 747.84 1083.75 752.24 C 1097.55 756.65 1106.41 737.93 1116.25 729.25 C 1126.10 720.58 1138.57 708.81 1147.25 699.25 C 1155.93 689.69 1173.29 679.57 1175.22 668.22 C 1177.16 656.87 1159.88 644.86 1150.75 636.25 C 1141.62 627.64 1129.27 615.45 1119.25 607.19 C 1109.22 598.94 1101.82 584.91 1087.03 583.98 C 1072.24 583.05 1075.65 614.36 1076.00 628.00 C 1063.94 625.44 1047.19 628.08 1036.25 628.20 C 1025.31 628.32 1017.23 630.64 1007.75 631.61 C 998.27 632.57 991.24 635.42 982.25 637.80 C 973.25 640.18 964.38 643.86 957.75 647.61 C 951.12 651.36 940.34 657.04 933.25 664.25 C 926.16 671.46 919.18 682.62 914.92 691.92 C 910.66 701.21 910.33 707.24 908.20 716.75 C 906.07 726.26 908.38 740.53 909.61 749.25 C 910.83 757.97 913.64 767.30 916.81 774.75 C 919.97 782.20 924.42 794.69 929.10 800.90 C 933.77 807.11 942.11 825.32 951.92 821.92 C 961.74 818.53 953.53 801.91 953.80 794.25 C 954.07 786.58 950.82 772.50 952.36 763.70 C 953.89 754.90 956.49 747.77 961.70 738.70 C 966.90 729.62 977.40 722.07 986.92 717.92 C 996.44 713.77 1003.09 712.30 1012.75 709.80 C 1022.42 707.30 1029.86 707.87 1039.93 706.93 C 1049.99 705.98 1064.22 704.71 1076.00 704.00 Z"/>
</g>
<g fill="None" fill-opacity="0.0" stroke="#000000" stroke-opacity="0.98" stroke-width="0.3"><path d=" M 971.00 607.00  C 942.34 610.08 910.67 599.84 887.07 615.07 C 863.47 630.31 859.93 645.48 861.00 675.00 C 862.07 704.52 861.08 746.48 861.00 777.00 C 860.92 807.52 858.03 825.75 876.75 845.25 C 895.47 864.74 915.00 864.74 946.00 864.00 C 977.00 863.26 1017.94 863.67 1048.00 864.00 C 1078.06 864.33 1096.19 862.29 1112.68 840.68 C 1129.17 819.07 1120.67 787.47 1120.00 761.00 C 1118.02 762.38 1115.43 760.17 1114.00 760.00 C 1099.56 766.18 1095.96 781.04 1098.00 798.00 C 1100.04 814.96 1095.23 829.46 1080.70 836.69 C 1066.16 843.93 1047.09 840.45 1029.00 841.00 C 1010.91 841.55 984.68 840.99 967.00 841.00 C 949.32 841.01 923.73 842.68 909.75 838.39 C 895.78 834.11 888.04 826.80 886.22 810.22 C 884.40 793.64 886.51 768.57 886.00 750.00 C 885.49 731.43 885.85 706.58 886.00 688.00 C 886.15 669.42 883.18 654.31 892.10 642.10 C 901.02 629.89 917.28 627.39 933.00 629.00 C 948.72 630.61 957.64 616.84 972.00 618.00 C 975.14 614.01 973.27 610.19 971.00 607.00 Z"/>
</g>
<g fill="None" fill-opacity="0.0" stroke="#000000" stroke-opacity="0.99" stroke-width="0.3"><path d=" M 836.00 669.00  C 813.29 669.01 788.50 668.98 766.00 669.00 C 743.50 669.02 717.74 668.97 696.00 669.00 C 674.26 669.03 647.00 668.92 627.03 669.02 C 607.05 669.13 607.79 698.75 628.00 698.00 C 648.21 697.25 675.20 698.35 697.00 698.00 C 718.80 697.65 744.57 698.18 767.00 698.00 C 789.43 697.82 813.43 698.14 836.00 698.00 C 834.47 688.86 834.26 678.13 836.00 669.00 Z"/>
</g>
<g fill="#000000" fill-opacity="0.00" stroke="None">
<path d=" M 0.00 1024.00  L 1536.00 1024.00 L 1536.00 0.00 L 0.00 0.00 L 0.00 1024.00 M 993.00 579.00  C 984.00 579.00 975.00 579.00 966.00 579.00 C 966.64 476.76 965.03 372.68 966.00 272.00 C 820.98 274.34 673.72 272.33 529.00 273.00 C 531.33 459.83 529.34 647.75 530.00 835.00 C 636.00 835.00 742.00 835.00 848.00 835.00 C 848.00 844.67 848.00 854.33 848.00 864.00 C 826.30 863.97 804.71 864.04 783.00 864.00 C 761.29 863.96 738.64 864.07 717.00 864.00 C 695.36 863.93 673.44 864.15 652.00 864.00 C 630.56 863.85 606.99 864.32 586.00 864.00 C 565.01 863.68 539.87 864.69 520.00 864.00 C 500.13 863.31 473.62 865.66 456.75 863.80 C 439.89 861.94 431.41 857.49 419.32 847.68 C 407.23 837.87 400.53 826.70 396.41 812.25 C 392.29 797.80 394.88 779.65 394.00 760.00 C 393.12 740.35 394.40 714.83 394.00 694.00 C 393.60 673.17 394.18 650.38 394.00 629.00 C 393.82 607.62 394.07 584.60 394.00 563.00 C 393.93 541.40 394.01 519.67 394.00 498.00 C 393.99 476.33 393.97 453.63 394.00 432.00 C 394.03 410.37 393.90 388.46 394.00 367.00 C 394.10 345.54 393.76 322.03 394.00 301.00 C 394.24 279.97 393.46 254.97 394.00 235.00 C 394.54 215.03 391.93 199.54 397.40 185.25 C 402.87 170.97 411.72 157.18 424.89 148.89 C 438.07 140.61 441.93 137.21 460.03 136.02 C 478.12 134.84 504.84 136.50 525.00 136.00 C 545.16 135.50 569.95 136.20 591.00 136.00 C 612.05 135.80 634.55 136.04 656.00 136.00 C 677.45 135.96 700.42 135.90 722.00 136.00 C 743.58 136.10 765.45 135.68 787.00 136.00 C 808.55 136.32 831.68 135.27 853.00 136.00 C 874.32 136.73 898.36 134.38 919.00 136.00 C 939.64 137.62 963.11 132.12 981.75 136.40 C 1000.40 140.67 991.42 166.53 993.00 185.00 C 994.58 203.47 992.30 229.63 993.00 250.00 C 993.70 270.37 992.68 294.77 993.00 316.00 C 993.32 337.23 992.85 360.43 993.00 382.00 C 993.15 403.57 992.94 425.25 993.00 447.00 C 993.06 468.75 992.97 491.13 993.00 513.00 C 993.03 534.87 992.98 557.10 993.00 579.00 M 797.00 380.00  C 828.98 364.89 867.83 380.81 881.30 412.70 C 894.78 444.58 871.08 487.99 835.00 489.00 C 834.61 500.45 837.28 511.71 837.80 523.25 C 838.33 534.78 840.00 548.22 840.93 560.08 C 841.87 571.94 846.21 590.62 828.99 590.01 C 811.77 589.39 793.48 590.04 776.00 590.00 C 758.52 589.96 739.50 589.53 722.00 590.00 C 704.50 590.47 685.18 588.70 668.00 590.00 C 650.82 591.30 652.08 576.45 653.00 564.00 C 653.91 551.54 655.15 537.02 655.80 524.75 C 656.45 512.49 656.62 501.44 658.00 489.00 C 625.30 488.44 599.19 451.59 607.93 418.92 C 616.68 386.25 658.79 361.91 691.00 380.00 C 710.15 334.94 780.57 336.83 797.00 380.00 M 1076.00 704.00  C 1064.22 704.71 1049.99 705.98 1039.93 706.93 C 1029.86 707.87 1022.42 707.30 1012.75 709.80 C 1003.09 712.30 996.44 713.77 986.92 717.92 C 977.40 722.07 966.90 729.62 961.70 738.70 C 956.49 747.77 953.89 754.90 952.36 763.70 C 950.82 772.50 954.07 786.58 953.80 794.25 C 953.53 801.91 961.74 818.53 951.92 821.92 C 942.11 825.32 933.77 807.11 929.10 800.90 C 924.42 794.69 919.97 782.20 916.81 774.75 C 913.64 767.30 910.83 757.97 909.61 749.25 C 908.38 740.53 906.07 726.26 908.20 716.75 C 910.33 707.24 910.66 701.21 914.92 691.92 C 919.18 682.62 926.16 671.46 933.25 664.25 C 940.34 657.04 951.12 651.36 957.75 647.61 C 964.38 643.86 973.25 640.18 982.25 637.80 C 991.24 635.42 998.27 632.57 1007.75 631.61 C 1017.23 630.64 1025.31 628.32 1036.25 628.20 C 1047.19 628.08 1063.94 625.44 1076.00 628.00 C 1075.65 614.36 1072.24 583.05 1087.03 583.98 C 1101.82 584.91 1109.22 598.94 1119.25 607.19 C 1129.27 615.45 1141.62 627.64 1150.75 636.25 C 1159.88 644.86 1177.16 656.87 1175.22 668.22 C 1173.29 679.57 1155.93 689.69 1147.25 699.25 C 1138.57 708.81 1126.10 720.58 1116.25 729.25 C 1106.41 737.93 1097.55 756.65 1083.75 752.24 C 1069.96 747.84 1075.41 718.08 1076.00 704.00 M 971.00 607.00  C 973.27 610.19 975.14 614.01 972.00 618.00 C 957.64 616.84 948.72 630.61 933.00 629.00 C 917.28 627.39 901.02 629.89 892.10 642.10 C 883.18 654.31 886.15 669.42 886.00 688.00 C 885.85 706.58 885.49 731.43 886.00 750.00 C 886.51 768.57 884.40 793.64 886.22 810.22 C 888.04 826.80 895.78 834.11 909.75 838.39 C 923.73 842.68 949.32 841.01 967.00 841.00 C 984.68 840.99 1010.91 841.55 1029.00 841.00 C 1047.09 840.45 1066.16 843.93 1080.70 836.69 C 1095.23 829.46 1100.04 814.96 1098.00 798.00 C 1095.96 781.04 1099.56 766.18 1114.00 760.00 C 1115.43 760.17 1118.02 762.38 1120.00 761.00 C 1120.67 787.47 1129.17 819.07 1112.68 840.68 C 1096.19 862.29 1078.06 864.33 1048.00 864.00 C 1017.94 863.67 977.00 863.26 946.00 864.00 C 915.00 864.74 895.47 864.74 876.75 845.25 C 858.03 825.75 860.92 807.52 861.00 777.00 C 861.08 746.48 862.07 704.52 861.00 675.00 C 859.93 645.48 863.47 630.31 887.07 615.07 C 910.67 599.84 942.34 610.08 971.00 607.00 M 836.00 669.00  C 834.26 678.13 834.47 688.86 836.00 698.00 C 813.43 698.14 789.43 697.82 767.00 698.00 C 744.57 698.18 718.80 697.65 697.00 698.00 C 675.20 698.35 648.21 697.25 628.00 698.00 C 607.79 698.75 607.05 669.13 627.03 669.02 C 647.00 668.92 674.26 669.03 696.00 669.00 C 717.74 668.97 743.50 669.02 766.00 669.00 C 788.50 668.98 813.29 669.01 836.00 669.00 Z"/>
</g>
<g fill="#000000" fill-opacity="0.98" stroke="None">
<path d=" M 993.00 579.00  C 992.98 557.10 993.03 534.87 993.00 513.00 C 992.97 491.13 993.06 468.75 993.00 447.00 C 992.94 425.25 993.15 403.57 993.00 382.00 C 992.85 360.43 993.32 337.23 993.00 316.00 C 992.68 294.77 993.70 270.37 993.00 250.00 C 992.30 229.63 994.58 203.47 993.00 185.00 C 991.42 166.53 1000.40 140.67 981.75 136.40 C 963.11 132.12 939.64 137.62 919.00 136.00 C 898.36 134.38 874.32 136.73 853.00 136.00 C 831.68 135.27 808.55 136.32 787.00 136.00 C 765.45 135.68 743.58 136.10 722.00 136.00 C 700.42 135.90 677.45 135.96 656.00 136.00 C 634.55 136.04 612.05 135.80 591.00 136.00 C 569.95 136.20 545.16 135.50 525.00 136.00 C 504.84 136.50 478.12 134.84 460.03 136.02 C 441.93 137.21 438.07 140.61 424.89 148.89 C 411.72 157.18 402.87 170.97 397.40 185.25 C 391.93 199.54 394.54 215.03 394.00 235.00 C 393.46 254.97 394.24 279.97 394.00 301.00 C 393.76 322.03 394.10 345.54 394.00 367.00 C 393.90 388.46 394.03 410.37 394.00 432.00 C 393.97 453.63 393.99 476.33 394.00 498.00 C 394.01 519.67 393.93 541.40 394.00 563.00 C 394.07 584.60 393.82 607.62 394.00 629.00 C 394.18 650.38 393.60 673.17 394.00 694.00 C 394.40 714.83 393.12 740.35 394.00 760.00 C 394.88 779.65 392.29 797.80 396.41 812.25 C 400.53 826.70 407.23 837.87 419.32 847.68 C 431.41 857.49 439.89 861.94 456.75 863.80 C 473.62 865.66 500.13 863.31 520.00 864.00 C 539.87 864.69 565.01 863.68 586.00 864.00 C 606.99 864.32 630.56 863.85 652.00 864.00 C 673.44 864.15 695.36 863.93 717.00 864.00 C 738.64 864.07 761.29 863.96 783.00 864.00 C 804.71 864.04 826.30 863.97 848.00 864.00 C 848.00 854.33 848.00 844.67 848.00 835.00 C 742.00 835.00 636.00 835.00 530.00 835.00 C 529.34 647.75 531.33 459.83 529.00 273.00 C 673.72 272.33 820.98 274.34 966.00 272.00 C 965.03 372.68 966.64 476.76 966.00 579.00 C 975.00 579.00 984.00 579.00 993.00 579.00 M 966.00 164.00  C 966.00 190.33 966.00 216.67 966.00 243.00 C 929.97 242.90 892.93 243.13 857.00 243.00 C 821.07 242.87 783.55 243.25 748.00 243.00 C 712.45 242.75 673.66 243.54 639.00 243.00 C 604.34 242.46 562.64 244.19 530.00 243.00 C 497.36 241.81 462.18 248.87 441.23 235.43 C 420.28 221.98 418.50 190.75 440.68 174.68 C 462.86 158.61 497.02 165.91 530.00 165.00 C 562.98 164.09 604.20 165.46 639.00 165.00 C 673.81 164.54 712.39 165.31 748.00 165.00 C 783.61 164.69 821.07 165.36 857.00 165.00 C 892.93 164.64 930.43 166.11 966.00 164.00 M 501.00 272.00  C 501.00 459.67 501.00 647.33 501.00 835.00 C 476.14 835.41 443.58 839.46 430.74 817.26 C 417.91 795.06 425.44 768.33 424.00 738.00 C 422.56 707.67 424.65 673.25 424.00 642.00 C 423.35 610.75 424.30 577.68 424.00 546.00 C 423.70 514.32 424.14 481.90 424.00 450.00 C 423.86 418.10 424.07 386.05 424.00 354.00 C 423.93 321.95 424.05 289.12 424.00 257.00 C 443.03 274.19 470.91 274.78 501.00 272.00 Z"/>
</g>
<g fill="#000000" fill-opacity="0.00" stroke="None">
<path d=" M 966.00 164.00  C 930.43 166.11 892.93 164.64 857.00 165.00 C 821.07 165.36 783.61 164.69 748.00 165.00 C 712.39 165.31 673.81 164.54 639.00 165.00 C 604.20 165.46 562.98 164.09 530.00 165.00 C 497.02 165.91 462.86 158.61 440.68 174.68 C 418.50 190.75 420.28 221.98 441.23 235.43 C 462.18 248.87 497.36 241.81 530.00 243.00 C 562.64 244.19 604.34 242.46 639.00 243.00 C 673.66 243.54 712.45 242.75 748.00 243.00 C 783.55 243.25 821.07 242.87 857.00 243.00 C 892.93 243.13 929.97 242.90 966.00 243.00 C 966.00 216.67 966.00 190.33 966.00 164.00 Z"/>
</g>
<g fill="#000000" fill-opacity="0.01" stroke="None">
<path d=" M 501.00 272.00  C 470.91 274.78 443.03 274.19 424.00 257.00 C 424.05 289.12 423.93 321.95 424.00 354.00 C 424.07 386.05 423.86 418.10 424.00 450.00 C 424.14 481.90 423.70 514.32 424.00 546.00 C 424.30 577.68 423.35 610.75 424.00 642.00 C 424.65 673.25 422.56 707.67 424.00 738.00 C 425.44 768.33 417.91 795.06 430.74 817.26 C 443.58 839.46 476.14 835.41 501.00 835.00 C 501.00 647.33 501.00 459.67 501.00 272.00 Z"/>
</g>
<g fill="#000000" fill-opacity="0.98" stroke="None">
<path d=" M 797.00 380.00  C 780.57 336.83 710.15 334.94 691.00 380.00 C 658.79 361.91 616.68 386.25 607.93 418.92 C 599.19 451.59 625.30 488.44 658.00 489.00 C 656.62 501.44 656.45 512.49 655.80 524.75 C 655.15 537.02 653.91 551.54 653.00 564.00 C 652.08 576.45 650.82 591.30 668.00 590.00 C 685.18 588.70 704.50 590.47 722.00 590.00 C 739.50 589.53 758.52 589.96 776.00 590.00 C 793.48 590.04 811.77 589.39 828.99 590.01 C 846.21 590.62 841.87 571.94 840.93 560.08 C 840.00 548.22 838.33 534.78 837.80 523.25 C 837.28 511.71 834.61 500.45 835.00 489.00 C 871.08 487.99 894.78 444.58 881.30 412.70 C 867.83 380.81 828.98 364.89 797.00 380.00 M 812.00 562.00  C 769.95 561.97 725.84 562.02 683.00 562.00 C 684.80 548.28 683.29 534.97 685.21 521.77 C 687.14 508.57 684.97 500.64 687.60 487.25 C 690.24 473.86 683.53 460.23 668.99 462.01 C 654.46 463.79 645.26 456.28 639.23 444.77 C 633.20 433.26 636.42 422.36 642.97 412.97 C 649.51 403.57 665.14 400.91 675.75 403.59 C 686.36 406.28 690.42 419.83 704.25 418.20 C 718.08 416.57 713.84 396.71 720.11 387.11 C 726.37 377.50 738.59 372.69 749.25 374.20 C 759.90 375.70 775.19 386.21 774.19 397.25 C 773.20 408.29 784.01 425.50 795.25 417.20 C 806.49 408.89 814.40 400.60 827.22 402.78 C 840.04 404.96 848.85 408.89 853.92 422.08 C 859.00 435.27 855.39 441.54 847.77 451.77 C 840.15 462.00 827.37 460.83 815.25 462.40 C 803.12 463.97 803.76 481.44 805.20 492.25 C 806.64 503.06 807.35 516.13 808.20 527.25 C 809.04 538.36 809.83 550.57 812.00 562.00 Z"/>
</g>
<g fill="#000000" fill-opacity="0.01" stroke="None">
<path d=" M 812.00 562.00  C 809.83 550.57 809.04 538.36 808.20 527.25 C 807.35 516.13 806.64 503.06 805.20 492.25 C 803.76 481.44 803.12 463.97 815.25 462.40 C 827.37 460.83 840.15 462.00 847.77 451.77 C 855.39 441.54 859.00 435.27 853.92 422.08 C 848.85 408.89 840.04 404.96 827.22 402.78 C 814.40 400.60 806.49 408.89 795.25 417.20 C 784.01 425.50 773.20 408.29 774.19 397.25 C 775.19 386.21 759.90 375.70 749.25 374.20 C 738.59 372.69 726.37 377.50 720.11 387.11 C 713.84 396.71 718.08 416.57 704.25 418.20 C 690.42 419.83 686.36 406.28 675.75 403.59 C 665.14 400.91 649.51 403.57 642.97 412.97 C 636.42 422.36 633.20 433.26 639.23 444.77 C 645.26 456.28 654.46 463.79 668.99 462.01 C 683.53 460.23 690.24 473.86 687.60 487.25 C 684.97 500.64 687.14 508.57 685.21 521.77 C 683.29 534.97 684.80 548.28 683.00 562.00 C 725.84 562.02 769.95 561.97 812.00 562.00 Z"/>
</g>
<g fill="#000000" fill-opacity="0.99" stroke="None">
<path d=" M 1076.00 704.00  C 1075.41 718.08 1069.96 747.84 1083.75 752.24 C 1097.55 756.65 1106.41 737.93 1116.25 729.25 C 1126.10 720.58 1138.57 708.81 1147.25 699.25 C 1155.93 689.69 1173.29 679.57 1175.22 668.22 C 1177.16 656.87 1159.88 644.86 1150.75 636.25 C 1141.62 627.64 1129.27 615.45 1119.25 607.19 C 1109.22 598.94 1101.82 584.91 1087.03 583.98 C 1072.24 583.05 1075.65 614.36 1076.00 628.00 C 1063.94 625.44 1047.19 628.08 1036.25 628.20 C 1025.31 628.32 1017.23 630.64 1007.75 631.61 C 998.27 632.57 991.24 635.42 982.25 637.80 C 973.25 640.18 964.38 643.86 957.75 647.61 C 951.12 651.36 940.34 657.04 933.25 664.25 C 926.16 671.46 919.18 682.62 914.92 691.92 C 910.66 701.21 910.33 707.24 908.20 716.75 C 906.07 726.26 908.38 740.53 909.61 749.25 C 910.83 757.97 913.64 767.30 916.81 774.75 C 919.97 782.20 924.42 794.69 929.10 800.90 C 933.77 807.11 942.11 825.32 951.92 821.92 C 961.74 818.53 953.53 801.91 953.80 794.25 C 954.07 786.58 950.82 772.50 952.36 763.70 C 953.89 754.90 956.49 747.77 961.70 738.70 C 966.90 729.62 977.40 722.07 986.92 717.92 C 996.44 713.77 1003.09 712.30 1012.75 709.80 C 1022.42 707.30 1029.86 707.87 1039.93 706.93 C 1049.99 705.98 1064.22 704.71 1076.00 704.00 Z"/>
</g>
<g fill="#000000" fill-opacity="0.98" stroke="None">
<path d=" M 971.00 607.00  C 942.34 610.08 910.67 599.84 887.07 615.07 C 863.47 630.31 859.93 645.48 861.00 675.00 C 862.07 704.52 861.08 746.48 861.00 777.00 C 860.92 807.52 858.03 825.75 876.75 845.25 C 895.47 864.74 915.00 864.74 946.00 864.00 C 977.00 863.26 1017.94 863.67 1048.00 864.00 C 1078.06 864.33 1096.19 862.29 1112.68 840.68 C 1129.17 819.07 1120.67 787.47 1120.00 761.00 C 1118.02 762.38 1115.43 760.17 1114.00 760.00 C 1099.56 766.18 1095.96 781.04 1098.00 798.00 C 1100.04 814.96 1095.23 829.46 1080.70 836.69 C 1066.16 843.93 1047.09 840.45 1029.00 841.00 C 1010.91 841.55 984.68 840.99 967.00 841.00 C 949.32 841.01 923.73 842.68 909.75 838.39 C 895.78 834.11 888.04 826.80 886.22 810.22 C 884.40 793.64 886.51 768.57 886.00 750.00 C 885.49 731.43 885.85 706.58 886.00 688.00 C 886.15 669.42 883.18 654.31 892.10 642.10 C 901.02 629.89 917.28 627.39 933.00 629.00 C 948.72 630.61 957.64 616.84 972.00 618.00 C 975.14 614.01 973.27 610.19 971.00 607.00 Z"/>
</g>
<g fill="#000000" fill-opacity="0.99" stroke="None">
<path d=" M 836.00 669.00  C 813.29 669.01 788.50 668.98 766.00 669.00 C 743.50 669.02 717.74 668.97 696.00 669.00 C 674.26 669.03 647.00 668.92 627.03 669.02 C 607.05 669.13 607.79 698.75 628.00 698.00 C 648.21 697.25 675.20 698.35 697.00 698.00 C 718.80 697.65 744.57 698.18 767.00 698.00 C 789.43 697.82 813.43 698.14 836.00 698.00 C 834.47 688.86 834.26 678.13 836.00 669.00 Z"/>
</g>
</svg>
