<svg xmlns="http://www.w3.org/2000/svg" xmlns:v="https://svgstorm.com"
viewBox = "0 0 1024 1024"
width="1024"
height="1024">
<g fill="None" fill-opacity="0.0" stroke="#000000" stroke-opacity="0.00" stroke-width="0.3"><path d="
M 0.00 1024.00 
L 1024.00 1024.00
L 1024.00 0.00
L 0.00 0.00
L 0.00 1024.00
M 398.00 154.00 
C 417.11 153.53 441.51 150.41 459.25 154.76 C 476.99 159.11 470.11 186.74 470.00 202.00
C 494.55 201.68 522.82 202.43 547.00 202.00 C 571.18 201.57 593.15 197.42 591.00 224.00 C 588.85 250.58 591.98 275.74 591.00 302.00 C 590.02 328.26 591.46 353.88 591.00 380.00 C 590.55 406.12 591.24 431.94 591.00 458.00 C 590.76 484.06 591.18 509.95 591.00 536.00
C 630.75 535.81 667.48 556.00 693.00 588.00
C 703.42 586.59 716.21 583.25 716.93 571.92 C 717.66 560.59 721.20 551.20 731.75 546.74 C 742.31 542.28 755.21 553.25 755.58 562.77 C 755.94 572.29 760.86 586.77 773.08 585.93 C 785.30 585.10 798.75 595.17 798.99 607.01 C 799.24 618.85 786.94 628.38 774.77 628.77 C 762.60 629.16 755.95 638.18 756.21 650.23 C 756.48 662.28 742.67 671.76 732.25 667.61 C 721.83 663.45 719.11 652.49 717.00 642.00
C 717.88 692.14 709.15 732.79 685.00 773.00
C 690.77 768.33 698.29 761.25 704.70 754.70 C 711.10 748.15 717.48 740.66 723.92 733.92 C 730.36 727.17 737.38 719.93 743.00 713.00
C 762.60 735.67 787.17 754.35 806.00 777.00
C 785.71 801.48 762.95 819.57 742.75 842.75 C 722.55 865.94 699.16 886.54 679.08 910.08 C 659.00 933.63 632.95 948.75 606.90 931.09 C 580.85 913.44 582.33 879.41 605.00 859.00
C 596.06 866.39 582.04 872.05 572.25 876.26 C 562.46 880.48 548.77 879.36 537.30 878.69 C 525.84 878.02 521.64 865.30 511.08 871.13 C 500.53 876.96 487.53 883.18 474.75 880.80 C 461.98 878.42 456.69 877.44 445.25 872.61 C 433.80 867.78 425.75 861.13 415.26 854.74 C 404.77 848.36 398.58 834.15 383.00 833.00 C 367.42 831.85 347.65 832.94 331.00 833.00 C 314.35 833.06 294.38 831.50 277.00 832.00 C 259.62 832.50 240.33 832.15 223.00 832.00 C 205.67 831.85 185.83 832.90 169.00 832.00 C 152.17 831.10 130.55 834.24 115.00 832.00 C 99.45 829.76 80.71 839.22 73.30 827.70 C 65.89 816.17 72.74 795.75 71.00 780.00 C 69.26 764.25 71.79 743.00 71.00 726.00 C 70.21 709.00 71.35 689.58 71.00 672.00 C 70.65 654.42 71.15 635.88 71.00 618.00 C 70.85 600.12 71.07 580.98 71.00 563.00 C 70.93 545.02 71.02 526.95 71.00 509.00 C 70.98 491.05 70.99 472.89 71.00 455.00 C 71.01 437.11 70.95 418.76 71.00 401.00 C 71.05 383.24 70.88 364.47 71.00 347.00 C 71.12 329.53 70.74 309.82 71.00 293.00 C 71.26 276.18 70.41 254.38 71.00 239.00 C 71.59 223.62 65.95 205.23 82.25 202.20 C 98.55 199.17 116.58 203.39 134.00 202.00 C 151.42 200.61 171.36 203.04 189.00 202.00
C 190.70 189.07 186.39 174.72 189.80 162.75 C 193.21 150.79 207.08 154.41 219.00 154.00 C 230.92 153.59 249.02 155.13 261.00 153.00
C 257.53 115.04 295.04 80.19 332.00 82.00 C 368.96 83.81 398.66 117.01 398.00 154.00
M 909.00 546.00 
C 920.97 542.77 931.24 554.01 931.93 566.08 C 932.63 578.16 942.72 583.40 955.70 584.31 C 968.67 585.21 971.95 606.03 961.70 612.70 C 951.46 619.38 937.21 614.98 932.68 625.68 C 928.15 636.38 930.50 651.55 914.92 651.93 C 899.34 652.31 898.68 639.12 895.80 627.75 C 892.93 616.39 880.21 618.70 869.25 614.61 C 858.29 610.51 857.50 591.58 866.77 586.43 C 876.04 581.27 888.24 583.70 893.39 574.25 C 898.55 564.80 895.50 549.64 909.00 546.00
M 825.00 760.00 
C 802.25 741.07 782.22 717.06 760.00 697.00
C 774.76 680.14 792.08 664.63 806.75 649.74 C 821.42 634.84 848.50 636.07 864.90 651.10 C 881.30 666.12 886.12 692.20 871.68 709.68 C 857.24 727.16 839.03 741.86 825.00 760.00
M 901.00 735.00 
C 914.52 731.92 925.24 744.88 925.80 758.25 C 926.36 771.62 937.76 776.88 951.25 777.19 C 964.73 777.51 970.62 801.23 957.92 807.92 C 945.21 814.61 930.33 811.15 927.41 824.75 C 924.48 838.34 922.06 852.04 907.92 853.07 C 893.79 854.10 888.06 843.44 886.69 830.30 C 885.32 817.17 875.99 812.32 861.77 811.23 C 847.55 810.13 840.63 793.90 850.25 783.25 C 859.87 772.60 878.19 778.00 883.40 766.25 C 888.61 754.50 886.69 738.26 901.00 735.00 Z"/>
</g>
<g fill="None" fill-opacity="0.0" stroke="#000000" stroke-opacity="0.99" stroke-width="0.3"><path d="
M 398.00 154.00 
C 398.66 117.01 368.96 83.81 332.00 82.00 C 295.04 80.19 257.53 115.04 261.00 153.00
C 249.02 155.13 230.92 153.59 219.00 154.00 C 207.08 154.41 193.21 150.79 189.80 162.75 C 186.39 174.72 190.70 189.07 189.00 202.00
C 171.36 203.04 151.42 200.61 134.00 202.00 C 116.58 203.39 98.55 199.17 82.25 202.20 C 65.95 205.23 71.59 223.62 71.00 239.00 C 70.41 254.38 71.26 276.18 71.00 293.00 C 70.74 309.82 71.12 329.53 71.00 347.00 C 70.88 364.47 71.05 383.24 71.00 401.00 C 70.95 418.76 71.01 437.11 71.00 455.00 C 70.99 472.89 70.98 491.05 71.00 509.00 C 71.02 526.95 70.93 545.02 71.00 563.00 C 71.07 580.98 70.85 600.12 71.00 618.00 C 71.15 635.88 70.65 654.42 71.00 672.00 C 71.35 689.58 70.21 709.00 71.00 726.00 C 71.79 743.00 69.26 764.25 71.00 780.00 C 72.74 795.75 65.89 816.17 73.30 827.70 C 80.71 839.22 99.45 829.76 115.00 832.00 C 130.55 834.24 152.17 831.10 169.00 832.00 C 185.83 832.90 205.67 831.85 223.00 832.00 C 240.33 832.15 259.62 832.50 277.00 832.00 C 294.38 831.50 314.35 833.06 331.00 833.00 C 347.65 832.94 367.42 831.85 383.00 833.00 C 398.58 834.15 404.77 848.36 415.26 854.74 C 425.75 861.13 433.80 867.78 445.25 872.61 C 456.69 877.44 461.98 878.42 474.75 880.80 C 487.53 883.18 500.53 876.96 511.08 871.13 C 521.64 865.30 525.84 878.02 537.30 878.69 C 548.77 879.36 562.46 880.48 572.25 876.26 C 582.04 872.05 596.06 866.39 605.00 859.00
C 582.33 879.41 580.85 913.44 606.90 931.09 C 632.95 948.75 659.00 933.63 679.08 910.08 C 699.16 886.54 722.55 865.94 742.75 842.75 C 762.95 819.57 785.71 801.48 806.00 777.00
C 787.17 754.35 762.60 735.67 743.00 713.00
C 737.38 719.93 730.36 727.17 723.92 733.92 C 717.48 740.66 711.10 748.15 704.70 754.70 C 698.29 761.25 690.77 768.33 685.00 773.00
C 709.15 732.79 717.88 692.14 717.00 642.00
C 719.11 652.49 721.83 663.45 732.25 667.61 C 742.67 671.76 756.48 662.28 756.21 650.23 C 755.95 638.18 762.60 629.16 774.77 628.77 C 786.94 628.38 799.24 618.85 798.99 607.01 C 798.75 595.17 785.30 585.10 773.08 585.93 C 760.86 586.77 755.94 572.29 755.58 562.77 C 755.21 553.25 742.31 542.28 731.75 546.74 C 721.20 551.20 717.66 560.59 716.93 571.92 C 716.21 583.25 703.42 586.59 693.00 588.00
C 667.48 556.00 630.75 535.81 591.00 536.00
C 591.18 509.95 590.76 484.06 591.00 458.00 C 591.24 431.94 590.55 406.12 591.00 380.00 C 591.46 353.88 590.02 328.26 591.00 302.00 C 591.98 275.74 588.85 250.58 591.00 224.00 C 593.15 197.42 571.18 201.57 547.00 202.00 C 522.82 202.43 494.55 201.68 470.00 202.00
C 470.11 186.74 476.99 159.11 459.25 154.76 C 441.51 150.41 417.11 153.53 398.00 154.00
M 445.00 178.00 
C 445.00 201.00 445.00 224.00 445.00 247.00
C 368.00 247.00 291.00 247.00 214.00 247.00
C 214.00 224.00 214.00 201.00 214.00 178.00
C 233.36 175.65 258.81 180.78 277.22 178.78 C 295.64 176.77 282.78 157.15 285.40 145.25 C 288.01 133.34 295.77 118.28 308.68 111.68 C 321.59 105.08 334.86 104.14 348.08 110.92 C 361.29 117.71 369.25 131.01 372.77 143.23 C 376.30 155.45 362.88 178.06 381.75 178.40 C 400.63 178.73 425.12 177.32 445.00 178.00
M 189.00 227.00 
C 191.47 242.06 181.24 271.61 202.01 271.99 C 222.78 272.37 244.97 271.90 266.00 272.00 C 287.03 272.10 308.90 272.10 330.00 272.00 C 351.10 271.90 373.00 272.38 394.00 272.00 C 415.00 271.62 437.31 272.90 458.00 272.00 C 478.69 271.10 466.97 241.74 470.00 227.00
C 502.33 227.00 534.67 227.00 567.00 227.00
C 565.33 330.08 565.34 434.95 567.00 538.00
C 550.97 540.20 540.27 546.22 527.00 555.00
C 527.86 537.33 525.85 516.33 527.00 499.00 C 528.15 481.67 524.80 459.11 527.00 443.00 C 529.20 426.89 523.46 413.24 508.25 418.40 C 493.04 423.55 502.57 449.20 501.00 462.00
C 473.23 431.88 429.91 427.64 396.00 443.00
C 392.64 459.07 401.71 473.17 409.71 487.30 C 417.70 501.42 434.65 517.45 449.70 522.30 C 464.74 527.16 484.87 528.76 501.00 524.00
C 501.00 534.67 501.00 545.33 501.00 556.00
C 474.53 534.13 435.08 531.52 401.92 539.93 C 368.76 548.34 334.38 577.41 320.81 609.25 C 307.24 641.10 308.90 683.21 319.59 715.75 C 330.28 748.30 344.54 780.08 368.00 806.00
C 347.30 810.05 324.43 807.48 302.00 808.00 C 279.57 808.52 255.66 807.76 233.00 808.00 C 210.34 808.24 187.77 807.87 165.00 808.00 C 142.23 808.13 118.82 807.91 96.00 808.00
C 96.00 614.00 96.00 420.00 96.00 226.00
C 126.50 228.33 158.08 226.34 189.00 227.00
M 496.00 502.00 
C 463.40 511.56 435.25 490.31 422.00 460.00
C 454.82 453.38 485.02 471.61 496.00 502.00
M 689.00 626.00 
C 692.77 637.78 693.02 649.39 693.00 663.00 C 692.98 676.61 692.05 687.59 689.21 699.23 C 686.37 710.87 684.80 717.92 680.69 728.70 C 676.59 739.47 671.75 751.21 665.70 761.70 C 659.64 772.18 652.71 783.00 645.08 793.08 C 637.44 803.15 628.66 812.45 619.75 821.75 C 610.84 831.04 599.06 839.26 590.30 844.30 C 581.54 849.34 571.73 854.43 560.75 855.20 C 549.78 855.96 536.88 859.00 527.32 848.68 C 517.76 838.37 504.32 847.58 495.30 853.30 C 486.28 859.01 473.11 857.54 462.75 854.80 C 452.39 852.07 440.17 844.91 431.32 838.68 C 422.47 832.45 411.43 821.85 403.08 812.92 C 394.73 803.98 385.36 792.13 378.92 783.08 C 372.47 774.04 365.79 761.44 360.87 753.08 C 355.95 744.72 354.32 738.30 349.61 727.25 C 344.89 716.20 342.06 709.82 339.41 698.25 C 336.75 686.68 335.51 676.81 335.00 664.00 C 334.50 651.19 336.65 637.84 340.26 627.25 C 343.88 616.65 348.36 606.61 355.92 596.92 C 363.49 587.23 374.49 577.92 385.10 572.10 C 395.71 566.27 407.69 561.73 418.68 559.68 C 429.67 557.62 441.89 557.95 453.74 559.40 C 465.60 560.86 473.31 566.91 485.03 571.97 C 496.76 577.03 499.96 593.25 512.08 594.93 C 524.21 596.62 532.23 578.76 542.03 573.03 C 551.84 567.31 562.02 561.23 573.23 560.21 C 584.44 559.20 603.30 558.25 613.75 561.39 C 624.21 564.54 638.17 570.13 646.30 576.70 C 654.42 583.28 669.34 590.79 672.19 601.25 C 675.05 611.71 674.75 625.83 689.00 626.00 Z"/>
</g>
<g fill="None" fill-opacity="0.0" stroke="#000000" stroke-opacity="0.00" stroke-width="0.3"><path d="
M 445.00 178.00 
C 425.12 177.32 400.63 178.73 381.75 178.40 C 362.88 178.06 376.30 155.45 372.77 143.23 C 369.25 131.01 361.29 117.71 348.08 110.92 C 334.86 104.14 321.59 105.08 308.68 111.68 C 295.77 118.28 288.01 133.34 285.40 145.25 C 282.78 157.15 295.64 176.77 277.22 178.78 C 258.81 180.78 233.36 175.65 214.00 178.00
C 214.00 201.00 214.00 224.00 214.00 247.00
C 291.00 247.00 368.00 247.00 445.00 247.00
C 445.00 224.00 445.00 201.00 445.00 178.00 Z"/>
</g>
<g fill="None" fill-opacity="0.0" stroke="#000000" stroke-opacity="0.00" stroke-width="0.3"><path d="
M 189.00 227.00 
C 158.08 226.34 126.50 228.33 96.00 226.00
C 96.00 420.00 96.00 614.00 96.00 808.00
C 118.82 807.91 142.23 808.13 165.00 808.00 C 187.77 807.87 210.34 808.24 233.00 808.00 C 255.66 807.76 279.57 808.52 302.00 808.00 C 324.43 807.48 347.30 810.05 368.00 806.00
C 344.54 780.08 330.28 748.30 319.59 715.75 C 308.90 683.21 307.24 641.10 320.81 609.25 C 334.38 577.41 368.76 548.34 401.92 539.93 C 435.08 531.52 474.53 534.13 501.00 556.00
C 501.00 545.33 501.00 534.67 501.00 524.00
C 484.87 528.76 464.74 527.16 449.70 522.30 C 434.65 517.45 417.70 501.42 409.71 487.30 C 401.71 473.17 392.64 459.07 396.00 443.00
C 429.91 427.64 473.23 431.88 501.00 462.00
C 502.57 449.20 493.04 423.55 508.25 418.40 C 523.46 413.24 529.20 426.89 527.00 443.00 C 524.80 459.11 528.15 481.67 527.00 499.00 C 525.85 516.33 527.86 537.33 527.00 555.00
C 540.27 546.22 550.97 540.20 567.00 538.00
C 565.34 434.95 565.33 330.08 567.00 227.00
C 534.67 227.00 502.33 227.00 470.00 227.00
C 466.97 241.74 478.69 271.10 458.00 272.00 C 437.31 272.90 415.00 271.62 394.00 272.00 C 373.00 272.38 351.10 271.90 330.00 272.00 C 308.90 272.10 287.03 272.10 266.00 272.00 C 244.97 271.90 222.78 272.37 202.01 271.99 C 181.24 271.61 191.47 242.06 189.00 227.00
M 168.00 361.00 
C 186.40 363.08 205.11 361.66 224.00 362.00 C 242.89 362.34 263.09 361.72 282.00 362.00 C 300.91 362.28 321.35 361.59 340.00 362.00 C 358.65 362.41 380.06 361.19 398.00 362.00 C 415.94 362.81 439.69 360.25 456.00 362.00 C 472.31 363.75 495.38 354.44 499.26 370.75 C 503.15 387.07 482.93 387.04 467.00 386.00 C 451.07 384.96 426.75 386.41 409.00 386.00 C 391.25 385.59 369.52 386.04 351.00 386.00 C 332.48 385.96 311.75 385.70 293.00 386.00 C 274.25 386.30 253.59 385.15 235.00 386.00 C 216.41 386.85 194.92 384.05 177.00 386.00 C 159.08 387.95 153.94 369.62 168.00 361.00
M 168.00 479.00 
C 179.96 475.44 196.39 480.45 210.00 479.00 C 223.61 477.55 241.28 479.47 255.00 479.00 C 268.72 478.53 285.92 478.74 299.00 479.00 C 312.08 479.26 330.15 476.93 339.89 481.11 C 349.64 485.28 347.68 502.15 336.25 503.59 C 324.83 505.03 307.27 503.78 294.00 504.00 C 280.73 504.22 262.65 504.21 249.00 504.00 C 235.35 503.79 218.23 504.81 205.00 504.00 C 191.77 503.19 175.16 506.57 165.25 502.61 C 155.33 498.65 158.29 481.89 168.00 479.00
M 168.00 590.00 
C 181.93 587.02 204.88 590.76 220.00 590.00 C 235.12 589.24 258.68 588.83 271.75 590.40 C 284.82 591.96 283.14 614.39 270.25 615.26 C 257.36 616.14 233.92 616.03 219.00 616.00 C 204.08 615.97 181.51 616.41 168.25 614.74 C 155.00 613.07 157.72 592.20 168.00 590.00 Z"/>
</g>
<g fill="None" fill-opacity="0.0" stroke="#000000" stroke-opacity="1.00" stroke-width="0.3"><path d="
M 168.00 361.00 
C 153.94 369.62 159.08 387.95 177.00 386.00 C 194.92 384.05 216.41 386.85 235.00 386.00 C 253.59 385.15 274.25 386.30 293.00 386.00 C 311.75 385.70 332.48 385.96 351.00 386.00 C 369.52 386.04 391.25 385.59 409.00 386.00 C 426.75 386.41 451.07 384.96 467.00 386.00 C 482.93 387.04 503.15 387.07 499.26 370.75 C 495.38 354.44 472.31 363.75 456.00 362.00 C 439.69 360.25 415.94 362.81 398.00 362.00 C 380.06 361.19 358.65 362.41 340.00 362.00 C 321.35 361.59 300.91 362.28 282.00 362.00 C 263.09 361.72 242.89 362.34 224.00 362.00 C 205.11 361.66 186.40 363.08 168.00 361.00 Z"/>
</g>
<g fill="None" fill-opacity="0.0" stroke="#000000" stroke-opacity="0.02" stroke-width="0.3"><path d="
M 496.00 502.00 
C 485.02 471.61 454.82 453.38 422.00 460.00
C 435.25 490.31 463.40 511.56 496.00 502.00 Z"/>
</g>
<g fill="None" fill-opacity="0.0" stroke="#000000" stroke-opacity="0.99" stroke-width="0.3"><path d="
M 168.00 479.00 
C 158.29 481.89 155.33 498.65 165.25 502.61 C 175.16 506.57 191.77 503.19 205.00 504.00 C 218.23 504.81 235.35 503.79 249.00 504.00 C 262.65 504.21 280.73 504.22 294.00 504.00 C 307.27 503.78 324.83 505.03 336.25 503.59 C 347.68 502.15 349.64 485.28 339.89 481.11 C 330.15 476.93 312.08 479.26 299.00 479.00 C 285.92 478.74 268.72 478.53 255.00 479.00 C 241.28 479.47 223.61 477.55 210.00 479.00 C 196.39 480.45 179.96 475.44 168.00 479.00 Z"/>
</g>
<g fill="None" fill-opacity="0.0" stroke="#000000" stroke-opacity="0.98" stroke-width="0.3"><path d="
M 909.00 546.00 
C 895.50 549.64 898.55 564.80 893.39 574.25 C 888.24 583.70 876.04 581.27 866.77 586.43 C 857.50 591.58 858.29 610.51 869.25 614.61 C 880.21 618.70 892.93 616.39 895.80 627.75 C 898.68 639.12 899.34 652.31 914.92 651.93 C 930.50 651.55 928.15 636.38 932.68 625.68 C 937.21 614.98 951.46 619.38 961.70 612.70 C 971.95 606.03 968.67 585.21 955.70 584.31 C 942.72 583.40 932.63 578.16 931.93 566.08 C 931.24 554.01 920.97 542.77 909.00 546.00 Z"/>
</g>
<g fill="None" fill-opacity="0.0" stroke="#000000" stroke-opacity="0.00" stroke-width="0.3"><path d="
M 689.00 626.00 
C 674.75 625.83 675.05 611.71 672.19 601.25 C 669.34 590.79 654.42 583.28 646.30 576.70 C 638.17 570.13 624.21 564.54 613.75 561.39 C 603.30 558.25 584.44 559.20 573.23 560.21 C 562.02 561.23 551.84 567.31 542.03 573.03 C 532.23 578.76 524.21 596.62 512.08 594.93 C 499.96 593.25 496.76 577.03 485.03 571.97 C 473.31 566.91 465.60 560.86 453.74 559.40 C 441.89 557.95 429.67 557.62 418.68 559.68 C 407.69 561.73 395.71 566.27 385.10 572.10 C 374.49 577.92 363.49 587.23 355.92 596.92 C 348.36 606.61 343.88 616.65 340.26 627.25 C 336.65 637.84 334.50 651.19 335.00 664.00 C 335.51 676.81 336.75 686.68 339.41 698.25 C 342.06 709.82 344.89 716.20 349.61 727.25 C 354.32 738.30 355.95 744.72 360.87 753.08 C 365.79 761.44 372.47 774.04 378.92 783.08 C 385.36 792.13 394.73 803.98 403.08 812.92 C 411.43 821.85 422.47 832.45 431.32 838.68 C 440.17 844.91 452.39 852.07 462.75 854.80 C 473.11 857.54 486.28 859.01 495.30 853.30 C 504.32 847.58 517.76 838.37 527.32 848.68 C 536.88 859.00 549.78 855.96 560.75 855.20 C 571.73 854.43 581.54 849.34 590.30 844.30 C 599.06 839.26 610.84 831.04 619.75 821.75 C 628.66 812.45 637.44 803.15 645.08 793.08 C 652.71 783.00 659.64 772.18 665.70 761.70 C 671.75 751.21 676.59 739.47 680.69 728.70 C 684.80 717.92 686.37 710.87 689.21 699.23 C 692.05 687.59 692.98 676.61 693.00 663.00 C 693.02 649.39 692.77 637.78 689.00 626.00 Z"/>
</g>
<g fill="None" fill-opacity="0.0" stroke="#000000" stroke-opacity="0.97" stroke-width="0.3"><path d="
M 168.00 590.00 
C 157.72 592.20 155.00 613.07 168.25 614.74 C 181.51 616.41 204.08 615.97 219.00 616.00 C 233.92 616.03 257.36 616.14 270.25 615.26 C 283.14 614.39 284.82 591.96 271.75 590.40 C 258.68 588.83 235.12 589.24 220.00 590.00 C 204.88 590.76 181.93 587.02 168.00 590.00 Z"/>
</g>
<g fill="None" fill-opacity="0.0" stroke="#000000" stroke-opacity="0.98" stroke-width="0.3"><path d="
M 825.00 760.00 
C 839.03 741.86 857.24 727.16 871.68 709.68 C 886.12 692.20 881.30 666.12 864.90 651.10 C 848.50 636.07 821.42 634.84 806.75 649.74 C 792.08 664.63 774.76 680.14 760.00 697.00
C 782.22 717.06 802.25 741.07 825.00 760.00 Z"/>
</g>
<g fill="None" fill-opacity="0.0" stroke="#000000" stroke-opacity="0.99" stroke-width="0.3"><path d="
M 901.00 735.00 
C 886.69 738.26 888.61 754.50 883.40 766.25 C 878.19 778.00 859.87 772.60 850.25 783.25 C 840.63 793.90 847.55 810.13 861.77 811.23 C 875.99 812.32 885.32 817.17 886.69 830.30 C 888.06 843.44 893.79 854.10 907.92 853.07 C 922.06 852.04 924.48 838.34 927.41 824.75 C 930.33 811.15 945.21 814.61 957.92 807.92 C 970.62 801.23 964.73 777.51 951.25 777.19 C 937.76 776.88 926.36 771.62 925.80 758.25 C 925.24 744.88 914.52 731.92 901.00 735.00 Z"/>
</g>
<g fill="#000000" fill-opacity="0.00" stroke="None">
<path d="
M 0.00 1024.00 
L 1024.00 1024.00
L 1024.00 0.00
L 0.00 0.00
L 0.00 1024.00
M 398.00 154.00 
C 417.11 153.53 441.51 150.41 459.25 154.76 C 476.99 159.11 470.11 186.74 470.00 202.00
C 494.55 201.68 522.82 202.43 547.00 202.00 C 571.18 201.57 593.15 197.42 591.00 224.00 C 588.85 250.58 591.98 275.74 591.00 302.00 C 590.02 328.26 591.46 353.88 591.00 380.00 C 590.55 406.12 591.24 431.94 591.00 458.00 C 590.76 484.06 591.18 509.95 591.00 536.00
C 630.75 535.81 667.48 556.00 693.00 588.00
C 703.42 586.59 716.21 583.25 716.93 571.92 C 717.66 560.59 721.20 551.20 731.75 546.74 C 742.31 542.28 755.21 553.25 755.58 562.77 C 755.94 572.29 760.86 586.77 773.08 585.93 C 785.30 585.10 798.75 595.17 798.99 607.01 C 799.24 618.85 786.94 628.38 774.77 628.77 C 762.60 629.16 755.95 638.18 756.21 650.23 C 756.48 662.28 742.67 671.76 732.25 667.61 C 721.83 663.45 719.11 652.49 717.00 642.00
C 717.88 692.14 709.15 732.79 685.00 773.00
C 690.77 768.33 698.29 761.25 704.70 754.70 C 711.10 748.15 717.48 740.66 723.92 733.92 C 730.36 727.17 737.38 719.93 743.00 713.00
C 762.60 735.67 787.17 754.35 806.00 777.00
C 785.71 801.48 762.95 819.57 742.75 842.75 C 722.55 865.94 699.16 886.54 679.08 910.08 C 659.00 933.63 632.95 948.75 606.90 931.09 C 580.85 913.44 582.33 879.41 605.00 859.00
C 596.06 866.39 582.04 872.05 572.25 876.26 C 562.46 880.48 548.77 879.36 537.30 878.69 C 525.84 878.02 521.64 865.30 511.08 871.13 C 500.53 876.96 487.53 883.18 474.75 880.80 C 461.98 878.42 456.69 877.44 445.25 872.61 C 433.80 867.78 425.75 861.13 415.26 854.74 C 404.77 848.36 398.58 834.15 383.00 833.00 C 367.42 831.85 347.65 832.94 331.00 833.00 C 314.35 833.06 294.38 831.50 277.00 832.00 C 259.62 832.50 240.33 832.15 223.00 832.00 C 205.67 831.85 185.83 832.90 169.00 832.00 C 152.17 831.10 130.55 834.24 115.00 832.00 C 99.45 829.76 80.71 839.22 73.30 827.70 C 65.89 816.17 72.74 795.75 71.00 780.00 C 69.26 764.25 71.79 743.00 71.00 726.00 C 70.21 709.00 71.35 689.58 71.00 672.00 C 70.65 654.42 71.15 635.88 71.00 618.00 C 70.85 600.12 71.07 580.98 71.00 563.00 C 70.93 545.02 71.02 526.95 71.00 509.00 C 70.98 491.05 70.99 472.89 71.00 455.00 C 71.01 437.11 70.95 418.76 71.00 401.00 C 71.05 383.24 70.88 364.47 71.00 347.00 C 71.12 329.53 70.74 309.82 71.00 293.00 C 71.26 276.18 70.41 254.38 71.00 239.00 C 71.59 223.62 65.95 205.23 82.25 202.20 C 98.55 199.17 116.58 203.39 134.00 202.00 C 151.42 200.61 171.36 203.04 189.00 202.00
C 190.70 189.07 186.39 174.72 189.80 162.75 C 193.21 150.79 207.08 154.41 219.00 154.00 C 230.92 153.59 249.02 155.13 261.00 153.00
C 257.53 115.04 295.04 80.19 332.00 82.00 C 368.96 83.81 398.66 117.01 398.00 154.00
M 909.00 546.00 
C 920.97 542.77 931.24 554.01 931.93 566.08 C 932.63 578.16 942.72 583.40 955.70 584.31 C 968.67 585.21 971.95 606.03 961.70 612.70 C 951.46 619.38 937.21 614.98 932.68 625.68 C 928.15 636.38 930.50 651.55 914.92 651.93 C 899.34 652.31 898.68 639.12 895.80 627.75 C 892.93 616.39 880.21 618.70 869.25 614.61 C 858.29 610.51 857.50 591.58 866.77 586.43 C 876.04 581.27 888.24 583.70 893.39 574.25 C 898.55 564.80 895.50 549.64 909.00 546.00
M 825.00 760.00 
C 802.25 741.07 782.22 717.06 760.00 697.00
C 774.76 680.14 792.08 664.63 806.75 649.74 C 821.42 634.84 848.50 636.07 864.90 651.10 C 881.30 666.12 886.12 692.20 871.68 709.68 C 857.24 727.16 839.03 741.86 825.00 760.00
M 901.00 735.00 
C 914.52 731.92 925.24 744.88 925.80 758.25 C 926.36 771.62 937.76 776.88 951.25 777.19 C 964.73 777.51 970.62 801.23 957.92 807.92 C 945.21 814.61 930.33 811.15 927.41 824.75 C 924.48 838.34 922.06 852.04 907.92 853.07 C 893.79 854.10 888.06 843.44 886.69 830.30 C 885.32 817.17 875.99 812.32 861.77 811.23 C 847.55 810.13 840.63 793.90 850.25 783.25 C 859.87 772.60 878.19 778.00 883.40 766.25 C 888.61 754.50 886.69 738.26 901.00 735.00 Z"/>
</g>
<g fill="#000000" fill-opacity="0.99" stroke="None">
<path d="
M 398.00 154.00 
C 398.66 117.01 368.96 83.81 332.00 82.00 C 295.04 80.19 257.53 115.04 261.00 153.00
C 249.02 155.13 230.92 153.59 219.00 154.00 C 207.08 154.41 193.21 150.79 189.80 162.75 C 186.39 174.72 190.70 189.07 189.00 202.00
C 171.36 203.04 151.42 200.61 134.00 202.00 C 116.58 203.39 98.55 199.17 82.25 202.20 C 65.95 205.23 71.59 223.62 71.00 239.00 C 70.41 254.38 71.26 276.18 71.00 293.00 C 70.74 309.82 71.12 329.53 71.00 347.00 C 70.88 364.47 71.05 383.24 71.00 401.00 C 70.95 418.76 71.01 437.11 71.00 455.00 C 70.99 472.89 70.98 491.05 71.00 509.00 C 71.02 526.95 70.93 545.02 71.00 563.00 C 71.07 580.98 70.85 600.12 71.00 618.00 C 71.15 635.88 70.65 654.42 71.00 672.00 C 71.35 689.58 70.21 709.00 71.00 726.00 C 71.79 743.00 69.26 764.25 71.00 780.00 C 72.74 795.75 65.89 816.17 73.30 827.70 C 80.71 839.22 99.45 829.76 115.00 832.00 C 130.55 834.24 152.17 831.10 169.00 832.00 C 185.83 832.90 205.67 831.85 223.00 832.00 C 240.33 832.15 259.62 832.50 277.00 832.00 C 294.38 831.50 314.35 833.06 331.00 833.00 C 347.65 832.94 367.42 831.85 383.00 833.00 C 398.58 834.15 404.77 848.36 415.26 854.74 C 425.75 861.13 433.80 867.78 445.25 872.61 C 456.69 877.44 461.98 878.42 474.75 880.80 C 487.53 883.18 500.53 876.96 511.08 871.13 C 521.64 865.30 525.84 878.02 537.30 878.69 C 548.77 879.36 562.46 880.48 572.25 876.26 C 582.04 872.05 596.06 866.39 605.00 859.00
C 582.33 879.41 580.85 913.44 606.90 931.09 C 632.95 948.75 659.00 933.63 679.08 910.08 C 699.16 886.54 722.55 865.94 742.75 842.75 C 762.95 819.57 785.71 801.48 806.00 777.00
C 787.17 754.35 762.60 735.67 743.00 713.00
C 737.38 719.93 730.36 727.17 723.92 733.92 C 717.48 740.66 711.10 748.15 704.70 754.70 C 698.29 761.25 690.77 768.33 685.00 773.00
C 709.15 732.79 717.88 692.14 717.00 642.00
C 719.11 652.49 721.83 663.45 732.25 667.61 C 742.67 671.76 756.48 662.28 756.21 650.23 C 755.95 638.18 762.60 629.16 774.77 628.77 C 786.94 628.38 799.24 618.85 798.99 607.01 C 798.75 595.17 785.30 585.10 773.08 585.93 C 760.86 586.77 755.94 572.29 755.58 562.77 C 755.21 553.25 742.31 542.28 731.75 546.74 C 721.20 551.20 717.66 560.59 716.93 571.92 C 716.21 583.25 703.42 586.59 693.00 588.00
C 667.48 556.00 630.75 535.81 591.00 536.00
C 591.18 509.95 590.76 484.06 591.00 458.00 C 591.24 431.94 590.55 406.12 591.00 380.00 C 591.46 353.88 590.02 328.26 591.00 302.00 C 591.98 275.74 588.85 250.58 591.00 224.00 C 593.15 197.42 571.18 201.57 547.00 202.00 C 522.82 202.43 494.55 201.68 470.00 202.00
C 470.11 186.74 476.99 159.11 459.25 154.76 C 441.51 150.41 417.11 153.53 398.00 154.00
M 445.00 178.00 
C 445.00 201.00 445.00 224.00 445.00 247.00
C 368.00 247.00 291.00 247.00 214.00 247.00
C 214.00 224.00 214.00 201.00 214.00 178.00
C 233.36 175.65 258.81 180.78 277.22 178.78 C 295.64 176.77 282.78 157.15 285.40 145.25 C 288.01 133.34 295.77 118.28 308.68 111.68 C 321.59 105.08 334.86 104.14 348.08 110.92 C 361.29 117.71 369.25 131.01 372.77 143.23 C 376.30 155.45 362.88 178.06 381.75 178.40 C 400.63 178.73 425.12 177.32 445.00 178.00
M 189.00 227.00 
C 191.47 242.06 181.24 271.61 202.01 271.99 C 222.78 272.37 244.97 271.90 266.00 272.00 C 287.03 272.10 308.90 272.10 330.00 272.00 C 351.10 271.90 373.00 272.38 394.00 272.00 C 415.00 271.62 437.31 272.90 458.00 272.00 C 478.69 271.10 466.97 241.74 470.00 227.00
C 502.33 227.00 534.67 227.00 567.00 227.00
C 565.33 330.08 565.34 434.95 567.00 538.00
C 550.97 540.20 540.27 546.22 527.00 555.00
C 527.86 537.33 525.85 516.33 527.00 499.00 C 528.15 481.67 524.80 459.11 527.00 443.00 C 529.20 426.89 523.46 413.24 508.25 418.40 C 493.04 423.55 502.57 449.20 501.00 462.00
C 473.23 431.88 429.91 427.64 396.00 443.00
C 392.64 459.07 401.71 473.17 409.71 487.30 C 417.70 501.42 434.65 517.45 449.70 522.30 C 464.74 527.16 484.87 528.76 501.00 524.00
C 501.00 534.67 501.00 545.33 501.00 556.00
C 474.53 534.13 435.08 531.52 401.92 539.93 C 368.76 548.34 334.38 577.41 320.81 609.25 C 307.24 641.10 308.90 683.21 319.59 715.75 C 330.28 748.30 344.54 780.08 368.00 806.00
C 347.30 810.05 324.43 807.48 302.00 808.00 C 279.57 808.52 255.66 807.76 233.00 808.00 C 210.34 808.24 187.77 807.87 165.00 808.00 C 142.23 808.13 118.82 807.91 96.00 808.00
C 96.00 614.00 96.00 420.00 96.00 226.00
C 126.50 228.33 158.08 226.34 189.00 227.00
M 496.00 502.00 
C 463.40 511.56 435.25 490.31 422.00 460.00
C 454.82 453.38 485.02 471.61 496.00 502.00
M 689.00 626.00 
C 692.77 637.78 693.02 649.39 693.00 663.00 C 692.98 676.61 692.05 687.59 689.21 699.23 C 686.37 710.87 684.80 717.92 680.69 728.70 C 676.59 739.47 671.75 751.21 665.70 761.70 C 659.64 772.18 652.71 783.00 645.08 793.08 C 637.44 803.15 628.66 812.45 619.75 821.75 C 610.84 831.04 599.06 839.26 590.30 844.30 C 581.54 849.34 571.73 854.43 560.75 855.20 C 549.78 855.96 536.88 859.00 527.32 848.68 C 517.76 838.37 504.32 847.58 495.30 853.30 C 486.28 859.01 473.11 857.54 462.75 854.80 C 452.39 852.07 440.17 844.91 431.32 838.68 C 422.47 832.45 411.43 821.85 403.08 812.92 C 394.73 803.98 385.36 792.13 378.92 783.08 C 372.47 774.04 365.79 761.44 360.87 753.08 C 355.95 744.72 354.32 738.30 349.61 727.25 C 344.89 716.20 342.06 709.82 339.41 698.25 C 336.75 686.68 335.51 676.81 335.00 664.00 C 334.50 651.19 336.65 637.84 340.26 627.25 C 343.88 616.65 348.36 606.61 355.92 596.92 C 363.49 587.23 374.49 577.92 385.10 572.10 C 395.71 566.27 407.69 561.73 418.68 559.68 C 429.67 557.62 441.89 557.95 453.74 559.40 C 465.60 560.86 473.31 566.91 485.03 571.97 C 496.76 577.03 499.96 593.25 512.08 594.93 C 524.21 596.62 532.23 578.76 542.03 573.03 C 551.84 567.31 562.02 561.23 573.23 560.21 C 584.44 559.20 603.30 558.25 613.75 561.39 C 624.21 564.54 638.17 570.13 646.30 576.70 C 654.42 583.28 669.34 590.79 672.19 601.25 C 675.05 611.71 674.75 625.83 689.00 626.00 Z"/>
</g>
<g fill="#000000" fill-opacity="0.00" stroke="None">
<path d="
M 445.00 178.00 
C 425.12 177.32 400.63 178.73 381.75 178.40 C 362.88 178.06 376.30 155.45 372.77 143.23 C 369.25 131.01 361.29 117.71 348.08 110.92 C 334.86 104.14 321.59 105.08 308.68 111.68 C 295.77 118.28 288.01 133.34 285.40 145.25 C 282.78 157.15 295.64 176.77 277.22 178.78 C 258.81 180.78 233.36 175.65 214.00 178.00
C 214.00 201.00 214.00 224.00 214.00 247.00
C 291.00 247.00 368.00 247.00 445.00 247.00
C 445.00 224.00 445.00 201.00 445.00 178.00 Z"/>
</g>
<g fill="#000000" fill-opacity="0.00" stroke="None">
<path d="
M 189.00 227.00 
C 158.08 226.34 126.50 228.33 96.00 226.00
C 96.00 420.00 96.00 614.00 96.00 808.00
C 118.82 807.91 142.23 808.13 165.00 808.00 C 187.77 807.87 210.34 808.24 233.00 808.00 C 255.66 807.76 279.57 808.52 302.00 808.00 C 324.43 807.48 347.30 810.05 368.00 806.00
C 344.54 780.08 330.28 748.30 319.59 715.75 C 308.90 683.21 307.24 641.10 320.81 609.25 C 334.38 577.41 368.76 548.34 401.92 539.93 C 435.08 531.52 474.53 534.13 501.00 556.00
C 501.00 545.33 501.00 534.67 501.00 524.00
C 484.87 528.76 464.74 527.16 449.70 522.30 C 434.65 517.45 417.70 501.42 409.71 487.30 C 401.71 473.17 392.64 459.07 396.00 443.00
C 429.91 427.64 473.23 431.88 501.00 462.00
C 502.57 449.20 493.04 423.55 508.25 418.40 C 523.46 413.24 529.20 426.89 527.00 443.00 C 524.80 459.11 528.15 481.67 527.00 499.00 C 525.85 516.33 527.86 537.33 527.00 555.00
C 540.27 546.22 550.97 540.20 567.00 538.00
C 565.34 434.95 565.33 330.08 567.00 227.00
C 534.67 227.00 502.33 227.00 470.00 227.00
C 466.97 241.74 478.69 271.10 458.00 272.00 C 437.31 272.90 415.00 271.62 394.00 272.00 C 373.00 272.38 351.10 271.90 330.00 272.00 C 308.90 272.10 287.03 272.10 266.00 272.00 C 244.97 271.90 222.78 272.37 202.01 271.99 C 181.24 271.61 191.47 242.06 189.00 227.00
M 168.00 361.00 
C 186.40 363.08 205.11 361.66 224.00 362.00 C 242.89 362.34 263.09 361.72 282.00 362.00 C 300.91 362.28 321.35 361.59 340.00 362.00 C 358.65 362.41 380.06 361.19 398.00 362.00 C 415.94 362.81 439.69 360.25 456.00 362.00 C 472.31 363.75 495.38 354.44 499.26 370.75 C 503.15 387.07 482.93 387.04 467.00 386.00 C 451.07 384.96 426.75 386.41 409.00 386.00 C 391.25 385.59 369.52 386.04 351.00 386.00 C 332.48 385.96 311.75 385.70 293.00 386.00 C 274.25 386.30 253.59 385.15 235.00 386.00 C 216.41 386.85 194.92 384.05 177.00 386.00 C 159.08 387.95 153.94 369.62 168.00 361.00
M 168.00 479.00 
C 179.96 475.44 196.39 480.45 210.00 479.00 C 223.61 477.55 241.28 479.47 255.00 479.00 C 268.72 478.53 285.92 478.74 299.00 479.00 C 312.08 479.26 330.15 476.93 339.89 481.11 C 349.64 485.28 347.68 502.15 336.25 503.59 C 324.83 505.03 307.27 503.78 294.00 504.00 C 280.73 504.22 262.65 504.21 249.00 504.00 C 235.35 503.79 218.23 504.81 205.00 504.00 C 191.77 503.19 175.16 506.57 165.25 502.61 C 155.33 498.65 158.29 481.89 168.00 479.00
M 168.00 590.00 
C 181.93 587.02 204.88 590.76 220.00 590.00 C 235.12 589.24 258.68 588.83 271.75 590.40 C 284.82 591.96 283.14 614.39 270.25 615.26 C 257.36 616.14 233.92 616.03 219.00 616.00 C 204.08 615.97 181.51 616.41 168.25 614.74 C 155.00 613.07 157.72 592.20 168.00 590.00 Z"/>
</g>
<g fill="#000000" fill-opacity="1.00" stroke="None">
<path d="
M 168.00 361.00 
C 153.94 369.62 159.08 387.95 177.00 386.00 C 194.92 384.05 216.41 386.85 235.00 386.00 C 253.59 385.15 274.25 386.30 293.00 386.00 C 311.75 385.70 332.48 385.96 351.00 386.00 C 369.52 386.04 391.25 385.59 409.00 386.00 C 426.75 386.41 451.07 384.96 467.00 386.00 C 482.93 387.04 503.15 387.07 499.26 370.75 C 495.38 354.44 472.31 363.75 456.00 362.00 C 439.69 360.25 415.94 362.81 398.00 362.00 C 380.06 361.19 358.65 362.41 340.00 362.00 C 321.35 361.59 300.91 362.28 282.00 362.00 C 263.09 361.72 242.89 362.34 224.00 362.00 C 205.11 361.66 186.40 363.08 168.00 361.00 Z"/>
</g>
<g fill="#000000" fill-opacity="0.02" stroke="None">
<path d="
M 496.00 502.00 
C 485.02 471.61 454.82 453.38 422.00 460.00
C 435.25 490.31 463.40 511.56 496.00 502.00 Z"/>
</g>
<g fill="#000000" fill-opacity="0.99" stroke="None">
<path d="
M 168.00 479.00 
C 158.29 481.89 155.33 498.65 165.25 502.61 C 175.16 506.57 191.77 503.19 205.00 504.00 C 218.23 504.81 235.35 503.79 249.00 504.00 C 262.65 504.21 280.73 504.22 294.00 504.00 C 307.27 503.78 324.83 505.03 336.25 503.59 C 347.68 502.15 349.64 485.28 339.89 481.11 C 330.15 476.93 312.08 479.26 299.00 479.00 C 285.92 478.74 268.72 478.53 255.00 479.00 C 241.28 479.47 223.61 477.55 210.00 479.00 C 196.39 480.45 179.96 475.44 168.00 479.00 Z"/>
</g>
<g fill="#000000" fill-opacity="0.98" stroke="None">
<path d="
M 909.00 546.00 
C 895.50 549.64 898.55 564.80 893.39 574.25 C 888.24 583.70 876.04 581.27 866.77 586.43 C 857.50 591.58 858.29 610.51 869.25 614.61 C 880.21 618.70 892.93 616.39 895.80 627.75 C 898.68 639.12 899.34 652.31 914.92 651.93 C 930.50 651.55 928.15 636.38 932.68 625.68 C 937.21 614.98 951.46 619.38 961.70 612.70 C 971.95 606.03 968.67 585.21 955.70 584.31 C 942.72 583.40 932.63 578.16 931.93 566.08 C 931.24 554.01 920.97 542.77 909.00 546.00 Z"/>
</g>
<g fill="#000000" fill-opacity="0.00" stroke="None">
<path d="
M 689.00 626.00 
C 674.75 625.83 675.05 611.71 672.19 601.25 C 669.34 590.79 654.42 583.28 646.30 576.70 C 638.17 570.13 624.21 564.54 613.75 561.39 C 603.30 558.25 584.44 559.20 573.23 560.21 C 562.02 561.23 551.84 567.31 542.03 573.03 C 532.23 578.76 524.21 596.62 512.08 594.93 C 499.96 593.25 496.76 577.03 485.03 571.97 C 473.31 566.91 465.60 560.86 453.74 559.40 C 441.89 557.95 429.67 557.62 418.68 559.68 C 407.69 561.73 395.71 566.27 385.10 572.10 C 374.49 577.92 363.49 587.23 355.92 596.92 C 348.36 606.61 343.88 616.65 340.26 627.25 C 336.65 637.84 334.50 651.19 335.00 664.00 C 335.51 676.81 336.75 686.68 339.41 698.25 C 342.06 709.82 344.89 716.20 349.61 727.25 C 354.32 738.30 355.95 744.72 360.87 753.08 C 365.79 761.44 372.47 774.04 378.92 783.08 C 385.36 792.13 394.73 803.98 403.08 812.92 C 411.43 821.85 422.47 832.45 431.32 838.68 C 440.17 844.91 452.39 852.07 462.75 854.80 C 473.11 857.54 486.28 859.01 495.30 853.30 C 504.32 847.58 517.76 838.37 527.32 848.68 C 536.88 859.00 549.78 855.96 560.75 855.20 C 571.73 854.43 581.54 849.34 590.30 844.30 C 599.06 839.26 610.84 831.04 619.75 821.75 C 628.66 812.45 637.44 803.15 645.08 793.08 C 652.71 783.00 659.64 772.18 665.70 761.70 C 671.75 751.21 676.59 739.47 680.69 728.70 C 684.80 717.92 686.37 710.87 689.21 699.23 C 692.05 687.59 692.98 676.61 693.00 663.00 C 693.02 649.39 692.77 637.78 689.00 626.00 Z"/>
</g>
<g fill="#000000" fill-opacity="0.97" stroke="None">
<path d="
M 168.00 590.00 
C 157.72 592.20 155.00 613.07 168.25 614.74 C 181.51 616.41 204.08 615.97 219.00 616.00 C 233.92 616.03 257.36 616.14 270.25 615.26 C 283.14 614.39 284.82 591.96 271.75 590.40 C 258.68 588.83 235.12 589.24 220.00 590.00 C 204.88 590.76 181.93 587.02 168.00 590.00 Z"/>
</g>
<g fill="#000000" fill-opacity="0.98" stroke="None">
<path d="
M 825.00 760.00 
C 839.03 741.86 857.24 727.16 871.68 709.68 C 886.12 692.20 881.30 666.12 864.90 651.10 C 848.50 636.07 821.42 634.84 806.75 649.74 C 792.08 664.63 774.76 680.14 760.00 697.00
C 782.22 717.06 802.25 741.07 825.00 760.00 Z"/>
</g>
<g fill="#000000" fill-opacity="0.99" stroke="None">
<path d="
M 901.00 735.00 
C 886.69 738.26 888.61 754.50 883.40 766.25 C 878.19 778.00 859.87 772.60 850.25 783.25 C 840.63 793.90 847.55 810.13 861.77 811.23 C 875.99 812.32 885.32 817.17 886.69 830.30 C 888.06 843.44 893.79 854.10 907.92 853.07 C 922.06 852.04 924.48 838.34 927.41 824.75 C 930.33 811.15 945.21 814.61 957.92 807.92 C 970.62 801.23 964.73 777.51 951.25 777.19 C 937.76 776.88 926.36 771.62 925.80 758.25 C 925.24 744.88 914.52 731.92 901.00 735.00 Z"/>
</g>
</svg>