<svg xmlns="http://www.w3.org/2000/svg" xmlns:v="https://svgstorm.com"
viewBox = "0 0 1024 1024"
width="1024"
height="1024">
<g fill="None" fill-opacity="0.0" stroke="#000000" stroke-opacity="0.00" stroke-width="0.3"><path d="
M 0.00 1024.00 
L 1024.00 1024.00
L 1024.00 0.00
L 0.00 0.00
L 0.00 1024.00
M 378.00 129.00 
C 422.43 129.39 462.47 143.95 494.75 176.25 C 527.04 208.54 539.45 246.48 541.02 290.02 C 542.60 333.57 525.69 376.16 495.25 408.25 C 464.82 440.35 424.23 457.91 381.00 456.00 C 337.77 454.09 302.64 437.95 272.75 406.25 C 242.87 374.55 230.21 339.66 227.61 297.25 C 225.00 254.84 239.73 215.25 267.90 182.90 C 296.07 150.55 336.83 128.64 378.00 129.00
M 681.00 752.00 
C 704.52 729.01 726.34 702.67 752.00 681.00
C 761.66 690.57 771.68 700.46 781.30 709.70 C 790.93 718.93 800.60 730.48 811.00 737.00
C 791.41 756.28 773.73 776.42 754.25 795.25 C 734.76 814.08 716.07 834.45 696.25 853.25 C 676.42 872.05 645.54 870.57 630.10 846.90 C 614.66 823.23 631.89 791.03 656.00 777.00
C 621.73 774.93 586.08 776.32 551.00 776.00 C 515.92 775.68 480.14 776.22 445.00 776.00 C 409.86 775.78 372.95 776.27 338.00 776.00 C 303.05 775.73 266.38 776.49 232.00 776.00 C 197.62 775.51 159.42 776.91 126.33 776.33 C 93.24 775.75 101.66 739.81 103.92 718.92 C 106.18 698.03 111.86 679.00 119.92 658.92 C 127.98 638.83 141.46 615.43 156.10 597.10 C 170.73 578.77 190.74 557.24 209.92 543.92 C 229.09 530.59 246.46 521.43 266.08 514.07 C 285.70 506.70 302.37 501.43 324.25 498.20 C 346.12 494.97 379.63 493.12 404.68 494.34 C 429.73 495.56 450.28 498.37 472.74 503.60 C 495.21 508.82 509.40 514.19 532.08 524.92 C 554.76 535.66 575.11 550.47 594.30 567.70 C 613.48 584.94 630.48 605.46 642.57 624.77 C 654.67 644.08 664.19 665.23 670.39 685.75 C 676.60 706.27 681.60 727.90 681.00 752.00
M 766.00 558.00 
C 777.30 560.29 789.15 558.17 797.75 567.25 C 806.34 576.34 800.28 594.21 787.75 594.80 C 775.22 595.39 763.17 600.70 763.80 613.25 C 764.43 625.79 751.45 637.11 739.25 633.61 C 727.05 630.10 724.49 611.35 724.00 601.00
C 710.96 595.26 686.53 597.59 686.98 577.97 C 687.42 558.35 712.01 561.01 724.00 556.00
C 725.20 543.39 727.27 521.91 744.75 522.60 C 762.23 523.30 762.20 544.77 766.00 558.00
M 934.00 553.00 
C 945.04 554.89 966.31 556.70 965.00 573.00 C 963.69 589.30 944.27 587.26 934.00 590.00
C 931.72 599.81 931.02 619.24 915.92 619.92 C 900.83 620.61 899.87 600.42 897.00 590.00
C 887.69 589.18 875.79 588.60 868.70 580.30 C 861.61 572.00 868.26 556.25 880.25 556.20 C 892.24 556.15 899.88 551.99 899.21 539.77 C 898.54 527.55 914.12 518.48 923.08 524.92 C 932.03 531.37 931.35 541.97 934.00 553.00
M 829.00 721.00 
C 809.48 703.88 789.62 683.31 771.00 664.00
C 779.76 656.11 787.02 644.92 796.25 637.25 C 805.48 629.58 815.33 617.70 823.77 612.43 C 832.21 607.15 844.97 608.00 854.23 610.77 C 863.49 613.54 872.69 621.30 878.92 632.08 C 885.16 642.85 883.90 657.27 878.87 666.92 C 873.84 676.57 861.01 685.20 853.25 694.25 C 845.49 703.29 833.40 711.09 829.00 721.00
M 932.00 717.00 
C 943.28 722.84 961.22 716.21 964.59 733.75 C 967.96 751.29 946.10 750.34 935.77 754.21 C 925.44 758.09 932.47 785.82 915.30 785.31 C 898.14 784.80 896.54 769.66 896.00 757.00
C 885.22 751.98 861.87 753.71 861.08 736.92 C 860.28 720.13 880.17 719.63 892.00 719.00
C 897.87 708.93 895.07 687.25 912.03 686.02 C 928.99 684.79 930.31 705.02 932.00 717.00 Z"/>
</g>
<g fill="None" fill-opacity="0.0" stroke="#000000" stroke-opacity="1.00" stroke-width="0.3"><path d="
M 378.00 129.00 
C 336.83 128.64 296.07 150.55 267.90 182.90 C 239.73 215.25 225.00 254.84 227.61 297.25 C 230.21 339.66 242.87 374.55 272.75 406.25 C 302.64 437.95 337.77 454.09 381.00 456.00 C 424.23 457.91 464.82 440.35 495.25 408.25 C 525.69 376.16 542.60 333.57 541.02 290.02 C 539.45 246.48 527.04 208.54 494.75 176.25 C 462.47 143.95 422.43 129.39 378.00 129.00 Z"/>
</g>
<g fill="None" fill-opacity="0.0" stroke="#000000" stroke-opacity="1.00" stroke-width="0.3"><path d="
M 681.00 752.00 
C 681.60 727.90 676.60 706.27 670.39 685.75 C 664.19 665.23 654.67 644.08 642.57 624.77 C 630.48 605.46 613.48 584.94 594.30 567.70 C 575.11 550.47 554.76 535.66 532.08 524.92 C 509.40 514.19 495.21 508.82 472.74 503.60 C 450.28 498.37 429.73 495.56 404.68 494.34 C 379.63 493.12 346.12 494.97 324.25 498.20 C 302.37 501.43 285.70 506.70 266.08 514.07 C 246.46 521.43 229.09 530.59 209.92 543.92 C 190.74 557.24 170.73 578.77 156.10 597.10 C 141.46 615.43 127.98 638.83 119.92 658.92 C 111.86 679.00 106.18 698.03 103.92 718.92 C 101.66 739.81 93.24 775.75 126.33 776.33 C 159.42 776.91 197.62 775.51 232.00 776.00 C 266.38 776.49 303.05 775.73 338.00 776.00 C 372.95 776.27 409.86 775.78 445.00 776.00 C 480.14 776.22 515.92 775.68 551.00 776.00 C 586.08 776.32 621.73 774.93 656.00 777.00
C 631.89 791.03 614.66 823.23 630.10 846.90 C 645.54 870.57 676.42 872.05 696.25 853.25 C 716.07 834.45 734.76 814.08 754.25 795.25 C 773.73 776.42 791.41 756.28 811.00 737.00
C 800.60 730.48 790.93 718.93 781.30 709.70 C 771.68 700.46 761.66 690.57 752.00 681.00
C 726.34 702.67 704.52 729.01 681.00 752.00 Z"/>
</g>
<g fill="None" fill-opacity="0.0" stroke="#000000" stroke-opacity="0.99" stroke-width="0.3"><path d="
M 766.00 558.00 
C 762.20 544.77 762.23 523.30 744.75 522.60 C 727.27 521.91 725.20 543.39 724.00 556.00
C 712.01 561.01 687.42 558.35 686.98 577.97 C 686.53 597.59 710.96 595.26 724.00 601.00
C 724.49 611.35 727.05 630.10 739.25 633.61 C 751.45 637.11 764.43 625.79 763.80 613.25 C 763.17 600.70 775.22 595.39 787.75 594.80 C 800.28 594.21 806.34 576.34 797.75 567.25 C 789.15 558.17 777.30 560.29 766.00 558.00 Z"/>
</g>
<g fill="None" fill-opacity="0.0" stroke="#000000" stroke-opacity="0.98" stroke-width="0.3"><path d="
M 934.00 553.00 
C 931.35 541.97 932.03 531.37 923.08 524.92 C 914.12 518.48 898.54 527.55 899.21 539.77 C 899.88 551.99 892.24 556.15 880.25 556.20 C 868.26 556.25 861.61 572.00 868.70 580.30 C 875.79 588.60 887.69 589.18 897.00 590.00
C 899.87 600.42 900.83 620.61 915.92 619.92 C 931.02 619.24 931.72 599.81 934.00 590.00
C 944.27 587.26 963.69 589.30 965.00 573.00 C 966.31 556.70 945.04 554.89 934.00 553.00 Z"/>
</g>
<g fill="None" fill-opacity="0.0" stroke="#000000" stroke-opacity="0.99" stroke-width="0.3"><path d="
M 829.00 721.00 
C 833.40 711.09 845.49 703.29 853.25 694.25 C 861.01 685.20 873.84 676.57 878.87 666.92 C 883.90 657.27 885.16 642.85 878.92 632.08 C 872.69 621.30 863.49 613.54 854.23 610.77 C 844.97 608.00 832.21 607.15 823.77 612.43 C 815.33 617.70 805.48 629.58 796.25 637.25 C 787.02 644.92 779.76 656.11 771.00 664.00
C 789.62 683.31 809.48 703.88 829.00 721.00 Z"/>
</g>
<g fill="None" fill-opacity="0.0" stroke="#000000" stroke-opacity="0.98" stroke-width="0.3"><path d="
M 932.00 717.00 
C 930.31 705.02 928.99 684.79 912.03 686.02 C 895.07 687.25 897.87 708.93 892.00 719.00
C 880.17 719.63 860.28 720.13 861.08 736.92 C 861.87 753.71 885.22 751.98 896.00 757.00
C 896.54 769.66 898.14 784.80 915.30 785.31 C 932.47 785.82 925.44 758.09 935.77 754.21 C 946.10 750.34 967.96 751.29 964.59 733.75 C 961.22 716.21 943.28 722.84 932.00 717.00 Z"/>
</g>
<g fill="#000000" fill-opacity="0.00" stroke="None">
<path d="
M 0.00 1024.00 
L 1024.00 1024.00
L 1024.00 0.00
L 0.00 0.00
L 0.00 1024.00
M 378.00 129.00 
C 422.43 129.39 462.47 143.95 494.75 176.25 C 527.04 208.54 539.45 246.48 541.02 290.02 C 542.60 333.57 525.69 376.16 495.25 408.25 C 464.82 440.35 424.23 457.91 381.00 456.00 C 337.77 454.09 302.64 437.95 272.75 406.25 C 242.87 374.55 230.21 339.66 227.61 297.25 C 225.00 254.84 239.73 215.25 267.90 182.90 C 296.07 150.55 336.83 128.64 378.00 129.00
M 681.00 752.00 
C 704.52 729.01 726.34 702.67 752.00 681.00
C 761.66 690.57 771.68 700.46 781.30 709.70 C 790.93 718.93 800.60 730.48 811.00 737.00
C 791.41 756.28 773.73 776.42 754.25 795.25 C 734.76 814.08 716.07 834.45 696.25 853.25 C 676.42 872.05 645.54 870.57 630.10 846.90 C 614.66 823.23 631.89 791.03 656.00 777.00
C 621.73 774.93 586.08 776.32 551.00 776.00 C 515.92 775.68 480.14 776.22 445.00 776.00 C 409.86 775.78 372.95 776.27 338.00 776.00 C 303.05 775.73 266.38 776.49 232.00 776.00 C 197.62 775.51 159.42 776.91 126.33 776.33 C 93.24 775.75 101.66 739.81 103.92 718.92 C 106.18 698.03 111.86 679.00 119.92 658.92 C 127.98 638.83 141.46 615.43 156.10 597.10 C 170.73 578.77 190.74 557.24 209.92 543.92 C 229.09 530.59 246.46 521.43 266.08 514.07 C 285.70 506.70 302.37 501.43 324.25 498.20 C 346.12 494.97 379.63 493.12 404.68 494.34 C 429.73 495.56 450.28 498.37 472.74 503.60 C 495.21 508.82 509.40 514.19 532.08 524.92 C 554.76 535.66 575.11 550.47 594.30 567.70 C 613.48 584.94 630.48 605.46 642.57 624.77 C 654.67 644.08 664.19 665.23 670.39 685.75 C 676.60 706.27 681.60 727.90 681.00 752.00
M 766.00 558.00 
C 777.30 560.29 789.15 558.17 797.75 567.25 C 806.34 576.34 800.28 594.21 787.75 594.80 C 775.22 595.39 763.17 600.70 763.80 613.25 C 764.43 625.79 751.45 637.11 739.25 633.61 C 727.05 630.10 724.49 611.35 724.00 601.00
C 710.96 595.26 686.53 597.59 686.98 577.97 C 687.42 558.35 712.01 561.01 724.00 556.00
C 725.20 543.39 727.27 521.91 744.75 522.60 C 762.23 523.30 762.20 544.77 766.00 558.00
M 934.00 553.00 
C 945.04 554.89 966.31 556.70 965.00 573.00 C 963.69 589.30 944.27 587.26 934.00 590.00
C 931.72 599.81 931.02 619.24 915.92 619.92 C 900.83 620.61 899.87 600.42 897.00 590.00
C 887.69 589.18 875.79 588.60 868.70 580.30 C 861.61 572.00 868.26 556.25 880.25 556.20 C 892.24 556.15 899.88 551.99 899.21 539.77 C 898.54 527.55 914.12 518.48 923.08 524.92 C 932.03 531.37 931.35 541.97 934.00 553.00
M 829.00 721.00 
C 809.48 703.88 789.62 683.31 771.00 664.00
C 779.76 656.11 787.02 644.92 796.25 637.25 C 805.48 629.58 815.33 617.70 823.77 612.43 C 832.21 607.15 844.97 608.00 854.23 610.77 C 863.49 613.54 872.69 621.30 878.92 632.08 C 885.16 642.85 883.90 657.27 878.87 666.92 C 873.84 676.57 861.01 685.20 853.25 694.25 C 845.49 703.29 833.40 711.09 829.00 721.00
M 932.00 717.00 
C 943.28 722.84 961.22 716.21 964.59 733.75 C 967.96 751.29 946.10 750.34 935.77 754.21 C 925.44 758.09 932.47 785.82 915.30 785.31 C 898.14 784.80 896.54 769.66 896.00 757.00
C 885.22 751.98 861.87 753.71 861.08 736.92 C 860.28 720.13 880.17 719.63 892.00 719.00
C 897.87 708.93 895.07 687.25 912.03 686.02 C 928.99 684.79 930.31 705.02 932.00 717.00 Z"/>
</g>
<g fill="#000000" fill-opacity="1.00" stroke="None">
<path d="
M 378.00 129.00 
C 336.83 128.64 296.07 150.55 267.90 182.90 C 239.73 215.25 225.00 254.84 227.61 297.25 C 230.21 339.66 242.87 374.55 272.75 406.25 C 302.64 437.95 337.77 454.09 381.00 456.00 C 424.23 457.91 464.82 440.35 495.25 408.25 C 525.69 376.16 542.60 333.57 541.02 290.02 C 539.45 246.48 527.04 208.54 494.75 176.25 C 462.47 143.95 422.43 129.39 378.00 129.00 Z"/>
</g>
<g fill="#000000" fill-opacity="1.00" stroke="None">
<path d="
M 681.00 752.00 
C 681.60 727.90 676.60 706.27 670.39 685.75 C 664.19 665.23 654.67 644.08 642.57 624.77 C 630.48 605.46 613.48 584.94 594.30 567.70 C 575.11 550.47 554.76 535.66 532.08 524.92 C 509.40 514.19 495.21 508.82 472.74 503.60 C 450.28 498.37 429.73 495.56 404.68 494.34 C 379.63 493.12 346.12 494.97 324.25 498.20 C 302.37 501.43 285.70 506.70 266.08 514.07 C 246.46 521.43 229.09 530.59 209.92 543.92 C 190.74 557.24 170.73 578.77 156.10 597.10 C 141.46 615.43 127.98 638.83 119.92 658.92 C 111.86 679.00 106.18 698.03 103.92 718.92 C 101.66 739.81 93.24 775.75 126.33 776.33 C 159.42 776.91 197.62 775.51 232.00 776.00 C 266.38 776.49 303.05 775.73 338.00 776.00 C 372.95 776.27 409.86 775.78 445.00 776.00 C 480.14 776.22 515.92 775.68 551.00 776.00 C 586.08 776.32 621.73 774.93 656.00 777.00
C 631.89 791.03 614.66 823.23 630.10 846.90 C 645.54 870.57 676.42 872.05 696.25 853.25 C 716.07 834.45 734.76 814.08 754.25 795.25 C 773.73 776.42 791.41 756.28 811.00 737.00
C 800.60 730.48 790.93 718.93 781.30 709.70 C 771.68 700.46 761.66 690.57 752.00 681.00
C 726.34 702.67 704.52 729.01 681.00 752.00 Z"/>
</g>
<g fill="#000000" fill-opacity="0.99" stroke="None">
<path d="
M 766.00 558.00 
C 762.20 544.77 762.23 523.30 744.75 522.60 C 727.27 521.91 725.20 543.39 724.00 556.00
C 712.01 561.01 687.42 558.35 686.98 577.97 C 686.53 597.59 710.96 595.26 724.00 601.00
C 724.49 611.35 727.05 630.10 739.25 633.61 C 751.45 637.11 764.43 625.79 763.80 613.25 C 763.17 600.70 775.22 595.39 787.75 594.80 C 800.28 594.21 806.34 576.34 797.75 567.25 C 789.15 558.17 777.30 560.29 766.00 558.00 Z"/>
</g>
<g fill="#000000" fill-opacity="0.98" stroke="None">
<path d="
M 934.00 553.00 
C 931.35 541.97 932.03 531.37 923.08 524.92 C 914.12 518.48 898.54 527.55 899.21 539.77 C 899.88 551.99 892.24 556.15 880.25 556.20 C 868.26 556.25 861.61 572.00 868.70 580.30 C 875.79 588.60 887.69 589.18 897.00 590.00
C 899.87 600.42 900.83 620.61 915.92 619.92 C 931.02 619.24 931.72 599.81 934.00 590.00
C 944.27 587.26 963.69 589.30 965.00 573.00 C 966.31 556.70 945.04 554.89 934.00 553.00 Z"/>
</g>
<g fill="#000000" fill-opacity="0.99" stroke="None">
<path d="
M 829.00 721.00 
C 833.40 711.09 845.49 703.29 853.25 694.25 C 861.01 685.20 873.84 676.57 878.87 666.92 C 883.90 657.27 885.16 642.85 878.92 632.08 C 872.69 621.30 863.49 613.54 854.23 610.77 C 844.97 608.00 832.21 607.15 823.77 612.43 C 815.33 617.70 805.48 629.58 796.25 637.25 C 787.02 644.92 779.76 656.11 771.00 664.00
C 789.62 683.31 809.48 703.88 829.00 721.00 Z"/>
</g>
<g fill="#000000" fill-opacity="0.98" stroke="None">
<path d="
M 932.00 717.00 
C 930.31 705.02 928.99 684.79 912.03 686.02 C 895.07 687.25 897.87 708.93 892.00 719.00
C 880.17 719.63 860.28 720.13 861.08 736.92 C 861.87 753.71 885.22 751.98 896.00 757.00
C 896.54 769.66 898.14 784.80 915.30 785.31 C 932.47 785.82 925.44 758.09 935.77 754.21 C 946.10 750.34 967.96 751.29 964.59 733.75 C 961.22 716.21 943.28 722.84 932.00 717.00 Z"/>
</g>
</svg>