<svg xmlns="http://www.w3.org/2000/svg" xmlns:v="https://svgstorm.com" viewBox="15.39 17.69 1008.43 1008.43" width="100%" height="100%">
<g fill="None" fill-opacity="0.0" stroke="#000000" stroke-opacity="0.00" stroke-width="0.3"><path d=" M 0.00 1024.00  L 1024.00 1024.00 L 1024.00 0.00 L 0.00 0.00 L 0.00 1024.00 M 765.00 647.00  C 764.11 653.51 761.98 660.78 760.41 666.75 C 758.84 672.73 757.82 680.88 751.00 682.00 C 751.58 693.85 750.22 711.76 751.00 723.00 C 751.78 734.24 763.62 738.13 769.75 746.25 C 775.88 754.37 783.78 759.16 790.25 766.75 C 796.72 774.34 804.96 780.20 811.00 788.00 C 792.37 806.83 772.23 826.90 753.25 846.25 C 734.27 865.59 713.24 883.53 695.25 904.25 C 677.25 924.96 654.04 937.45 628.92 924.08 C 603.81 910.70 603.24 877.16 619.00 858.00 C 599.60 859.87 579.86 858.80 560.00 859.00 C 540.14 859.20 519.95 858.89 500.00 859.00 C 480.05 859.11 460.00 858.92 440.00 859.00 C 420.00 859.08 400.05 858.89 380.00 859.00 C 359.95 859.11 340.13 858.79 320.00 859.00 C 299.87 859.21 280.31 858.55 260.00 859.00 C 239.69 859.45 220.69 858.00 200.00 859.00 C 179.31 860.00 161.53 856.79 140.00 859.00 C 118.47 861.21 122.18 840.23 123.00 822.00 C 93.53 828.72 63.23 812.40 64.67 783.33 C 66.11 754.26 95.99 744.99 123.00 750.00 C 121.35 734.56 121.35 717.44 123.00 702.00 C 94.80 705.28 67.07 697.88 64.40 668.25 C 61.72 638.61 94.20 624.88 123.00 631.00 C 123.00 614.67 123.00 598.33 123.00 582.00 C 93.88 588.24 64.31 573.57 65.00 544.00 C 65.69 514.43 94.74 506.08 123.00 510.00 C 123.00 494.00 123.00 478.00 123.00 462.00 C 94.53 468.07 64.84 455.96 64.98 426.97 C 65.12 397.98 93.39 384.73 123.00 391.00 C 123.00 375.00 123.00 359.00 123.00 343.00 C 95.23 347.48 68.03 338.77 64.80 309.75 C 61.57 280.74 93.15 262.63 122.00 271.00 C 124.39 255.30 122.25 237.40 123.00 222.00 C 95.94 225.61 67.17 218.77 64.20 188.75 C 61.23 158.74 94.45 141.53 123.00 149.00 C 122.37 138.75 124.29 127.81 122.00 118.00 C 132.97 106.36 150.10 111.85 168.00 111.00 C 185.90 110.15 207.41 111.39 226.00 111.00 C 244.59 110.61 264.09 111.17 283.00 111.00 C 301.91 110.83 321.95 111.07 341.00 111.00 C 360.05 110.93 378.89 111.02 398.00 111.00 C 417.11 110.98 436.87 110.97 456.00 111.00 C 475.13 111.03 493.88 110.91 513.00 111.00 C 532.12 111.09 551.93 110.79 571.00 111.00 C 590.07 111.21 610.15 110.53 629.00 111.00 C 647.85 111.47 667.60 109.94 686.00 111.00 C 704.40 112.06 726.28 108.54 743.67 111.33 C 761.06 114.12 752.54 135.56 754.00 152.00 C 755.46 168.44 753.35 192.08 754.00 210.00 C 754.65 227.92 753.74 248.37 754.00 267.00 C 754.26 285.63 753.95 306.06 754.00 325.00 C 754.05 343.94 754.14 364.01 754.00 383.00 C 753.86 401.99 754.42 421.07 754.00 440.00 C 753.58 458.93 754.96 479.29 754.00 498.00 C 753.04 516.71 756.19 536.83 754.00 555.00 C 751.81 573.17 760.32 578.02 762.31 592.70 C 764.30 607.38 776.30 605.95 788.25 608.20 C 800.19 610.45 807.41 629.17 797.70 637.70 C 787.98 646.22 775.30 644.49 765.00 647.00 M 902.00 638.00  C 892.30 633.11 884.23 635.87 873.92 630.08 C 863.62 624.29 867.20 607.62 876.10 604.09 C 885.00 600.57 897.93 602.42 901.40 594.25 C 904.87 586.09 904.24 571.74 914.23 567.23 C 924.22 562.72 935.49 571.38 935.76 581.25 C 936.02 591.11 940.38 601.30 951.08 600.93 C 961.79 600.57 970.32 606.46 972.21 616.23 C 974.11 626.00 961.26 635.21 950.77 634.77 C 940.28 634.34 934.85 643.21 934.80 654.25 C 934.76 665.28 917.76 671.32 911.08 663.92 C 904.40 656.51 903.11 648.50 902.00 638.00 M 830.00 772.00  C 809.29 755.17 785.55 731.87 768.00 710.00 C 791.84 691.17 806.54 662.71 832.25 655.81 C 857.95 648.90 889.82 676.54 884.98 705.03 C 880.14 733.51 846.75 746.50 830.00 772.00 M 911.00 743.00  C 921.18 740.33 934.20 749.24 933.80 760.25 C 933.40 771.26 942.07 781.61 953.25 780.80 C 964.42 779.99 977.98 791.74 973.61 803.75 C 969.23 815.76 958.38 816.58 946.92 818.92 C 935.47 821.27 935.27 830.63 932.81 843.25 C 930.34 855.87 912.66 860.24 904.08 850.92 C 895.51 841.59 901.33 829.85 893.29 821.70 C 885.24 813.54 873.27 819.62 864.90 812.09 C 856.53 804.57 856.97 787.82 868.68 783.68 C 880.39 779.54 892.42 781.21 895.39 770.25 C 898.37 759.28 899.89 745.91 911.00 743.00 Z"/>
</g>
<g fill="None" fill-opacity="0.0" stroke="#000000" stroke-opacity="0.98" stroke-width="0.3"><path d=" M 765.00 647.00  C 775.30 644.49 787.98 646.22 797.70 637.70 C 807.41 629.17 800.19 610.45 788.25 608.20 C 776.30 605.95 764.30 607.38 762.31 592.70 C 760.32 578.02 751.81 573.17 754.00 555.00 C 756.19 536.83 753.04 516.71 754.00 498.00 C 754.96 479.29 753.58 458.93 754.00 440.00 C 754.42 421.07 753.86 401.99 754.00 383.00 C 754.14 364.01 754.05 343.94 754.00 325.00 C 753.95 306.06 754.26 285.63 754.00 267.00 C 753.74 248.37 754.65 227.92 754.00 210.00 C 753.35 192.08 755.46 168.44 754.00 152.00 C 752.54 135.56 761.06 114.12 743.67 111.33 C 726.28 108.54 704.40 112.06 686.00 111.00 C 667.60 109.94 647.85 111.47 629.00 111.00 C 610.15 110.53 590.07 111.21 571.00 111.00 C 551.93 110.79 532.12 111.09 513.00 111.00 C 493.88 110.91 475.13 111.03 456.00 111.00 C 436.87 110.97 417.11 110.98 398.00 111.00 C 378.89 111.02 360.05 110.93 341.00 111.00 C 321.95 111.07 301.91 110.83 283.00 111.00 C 264.09 111.17 244.59 110.61 226.00 111.00 C 207.41 111.39 185.90 110.15 168.00 111.00 C 150.10 111.85 132.97 106.36 122.00 118.00 C 124.29 127.81 122.37 138.75 123.00 149.00 C 94.45 141.53 61.23 158.74 64.20 188.75 C 67.17 218.77 95.94 225.61 123.00 222.00 C 122.25 237.40 124.39 255.30 122.00 271.00 C 93.15 262.63 61.57 280.74 64.80 309.75 C 68.03 338.77 95.23 347.48 123.00 343.00 C 123.00 359.00 123.00 375.00 123.00 391.00 C 93.39 384.73 65.12 397.98 64.98 426.97 C 64.84 455.96 94.53 468.07 123.00 462.00 C 123.00 478.00 123.00 494.00 123.00 510.00 C 94.74 506.08 65.69 514.43 65.00 544.00 C 64.31 573.57 93.88 588.24 123.00 582.00 C 123.00 598.33 123.00 614.67 123.00 631.00 C 94.20 624.88 61.72 638.61 64.40 668.25 C 67.07 697.88 94.80 705.28 123.00 702.00 C 121.35 717.44 121.35 734.56 123.00 750.00 C 95.99 744.99 66.11 754.26 64.67 783.33 C 63.23 812.40 93.53 828.72 123.00 822.00 C 122.18 840.23 118.47 861.21 140.00 859.00 C 161.53 856.79 179.31 860.00 200.00 859.00 C 220.69 858.00 239.69 859.45 260.00 859.00 C 280.31 858.55 299.87 859.21 320.00 859.00 C 340.13 858.79 359.95 859.11 380.00 859.00 C 400.05 858.89 420.00 859.08 440.00 859.00 C 460.00 858.92 480.05 859.11 500.00 859.00 C 519.95 858.89 540.14 859.20 560.00 859.00 C 579.86 858.80 599.60 859.87 619.00 858.00 C 603.24 877.16 603.81 910.70 628.92 924.08 C 654.04 937.45 677.25 924.96 695.25 904.25 C 713.24 883.53 734.27 865.59 753.25 846.25 C 772.23 826.90 792.37 806.83 811.00 788.00 C 804.96 780.20 796.72 774.34 790.25 766.75 C 783.78 759.16 775.88 754.37 769.75 746.25 C 763.62 738.13 751.78 734.24 751.00 723.00 C 750.22 711.76 751.58 693.85 751.00 682.00 C 757.82 680.88 758.84 672.73 760.41 666.75 C 761.98 660.78 764.11 653.51 765.00 647.00 M 732.00 132.00  C 731.99 150.01 732.01 167.99 732.00 186.00 C 731.99 204.01 732.02 221.98 732.00 240.00 C 731.98 258.02 732.04 275.96 732.00 294.00 C 731.96 312.04 732.09 331.03 732.00 349.00 C 731.91 366.97 732.20 385.25 732.00 403.00 C 731.80 420.75 732.45 439.63 732.00 457.00 C 731.55 474.37 733.01 494.43 732.00 511.00 C 730.99 527.57 734.19 551.23 732.00 566.00 C 729.81 580.77 725.88 586.92 722.94 599.08 C 719.99 611.24 702.19 604.45 693.25 610.59 C 684.32 616.74 679.36 631.75 691.03 638.97 C 702.69 646.19 709.26 643.96 722.00 649.00 C 724.16 659.56 722.65 667.00 728.92 677.08 C 735.20 687.15 730.22 705.09 732.00 719.00 C 733.78 732.91 732.61 747.59 721.75 754.75 C 710.89 761.92 707.27 770.03 698.25 778.25 C 689.23 786.47 683.52 793.85 674.75 802.75 C 665.98 811.66 659.55 815.46 651.25 826.25 C 642.95 837.04 633.24 839.74 618.00 838.00 C 602.76 836.26 585.56 838.80 570.00 838.00 C 554.44 837.20 538.70 838.35 523.00 838.00 C 507.30 837.65 490.75 838.16 475.00 838.00 C 459.25 837.84 443.75 838.07 428.00 838.00 C 412.25 837.93 396.80 838.03 381.00 838.00 C 365.20 837.97 348.82 838.01 333.00 838.00 C 317.18 837.99 301.84 838.01 286.00 838.00 C 270.16 837.99 253.85 838.00 238.00 838.00 C 222.15 838.00 206.86 838.00 191.00 838.00 C 175.14 838.00 158.90 838.00 143.00 838.00 C 143.00 602.67 143.00 367.33 143.00 132.00 C 339.33 132.00 535.67 132.00 732.00 132.00 M 123.00 203.00  C 116.51 201.84 104.35 202.91 98.75 202.20 C 93.15 201.49 87.91 198.19 85.68 192.32 C 83.45 186.45 83.69 179.36 86.80 175.75 C 89.91 172.14 96.05 167.43 102.03 168.02 C 108.00 168.62 123.77 164.41 123.00 174.00 C 122.23 183.59 123.58 193.39 123.00 203.00 M 122.00 289.00  C 124.30 300.17 122.36 312.42 123.00 324.00 C 105.72 323.43 86.55 327.93 84.98 307.97 C 83.40 288.02 105.79 289.60 122.00 289.00 M 123.00 410.00  C 123.82 420.35 121.91 426.20 123.00 437.00 C 124.09 447.80 111.05 442.24 104.00 443.00 C 96.95 443.76 93.37 441.85 89.23 437.77 C 85.09 433.69 83.37 429.68 84.60 423.25 C 85.84 416.82 90.12 412.11 96.75 410.41 C 103.38 408.71 115.45 410.83 123.00 410.00 M 123.00 529.00  C 122.54 540.31 124.05 552.09 122.00 563.00 C 111.47 560.31 97.67 566.82 90.75 559.81 C 83.82 552.80 81.27 542.81 88.11 535.11 C 94.94 527.40 111.91 530.87 123.00 529.00 M 122.00 683.00  C 111.71 681.04 109.90 683.64 98.75 682.80 C 87.61 681.96 79.85 664.69 87.13 657.08 C 94.41 649.47 95.26 651.72 103.67 650.67 C 112.08 649.62 124.29 647.38 123.00 658.00 C 121.71 668.62 124.14 674.85 122.00 683.00 M 123.00 769.00  C 123.00 780.33 123.00 791.67 123.00 803.00 C 107.38 803.30 82.31 804.40 84.22 783.78 C 86.13 763.16 108.12 771.10 123.00 769.00 Z"/>
</g>
<g fill="None" fill-opacity="0.0" stroke="#000000" stroke-opacity="0.00" stroke-width="0.3"><path d=" M 732.00 132.00  C 535.67 132.00 339.33 132.00 143.00 132.00 C 143.00 367.33 143.00 602.67 143.00 838.00 C 158.90 838.00 175.14 838.00 191.00 838.00 C 206.86 838.00 222.15 838.00 238.00 838.00 C 253.85 838.00 270.16 837.99 286.00 838.00 C 301.84 838.01 317.18 837.99 333.00 838.00 C 348.82 838.01 365.20 837.97 381.00 838.00 C 396.80 838.03 412.25 837.93 428.00 838.00 C 443.75 838.07 459.25 837.84 475.00 838.00 C 490.75 838.16 507.30 837.65 523.00 838.00 C 538.70 838.35 554.44 837.20 570.00 838.00 C 585.56 838.80 602.76 836.26 618.00 838.00 C 633.24 839.74 642.95 837.04 651.25 826.25 C 659.55 815.46 665.98 811.66 674.75 802.75 C 683.52 793.85 689.23 786.47 698.25 778.25 C 707.27 770.03 710.89 761.92 721.75 754.75 C 732.61 747.59 733.78 732.91 732.00 719.00 C 730.22 705.09 735.20 687.15 728.92 677.08 C 722.65 667.00 724.16 659.56 722.00 649.00 C 709.26 643.96 702.69 646.19 691.03 638.97 C 679.36 631.75 684.32 616.74 693.25 610.59 C 702.19 604.45 719.99 611.24 722.94 599.08 C 725.88 586.92 729.81 580.77 732.00 566.00 C 734.19 551.23 730.99 527.57 732.00 511.00 C 733.01 494.43 731.55 474.37 732.00 457.00 C 732.45 439.63 731.80 420.75 732.00 403.00 C 732.20 385.25 731.91 366.97 732.00 349.00 C 732.09 331.03 731.96 312.04 732.00 294.00 C 732.04 275.96 731.98 258.02 732.00 240.00 C 732.02 221.98 731.99 204.01 732.00 186.00 C 732.01 167.99 731.99 150.01 732.00 132.00 M 466.00 259.00  C 539.30 269.92 609.72 336.58 616.00 412.00 C 627.14 412.15 644.03 407.68 642.00 422.00 C 639.97 436.33 645.23 454.31 641.67 467.67 C 638.11 481.03 619.11 472.26 606.00 474.00 C 592.89 475.74 573.37 473.19 559.00 474.00 C 544.63 474.81 527.94 473.62 513.00 474.00 C 498.06 474.38 482.24 473.81 467.00 474.00 C 451.76 474.19 435.34 473.86 420.00 474.00 C 404.66 474.14 389.34 473.82 374.00 474.00 C 358.66 474.18 343.34 473.67 328.00 474.00 C 312.66 474.33 296.24 473.31 281.00 474.00 C 265.76 474.69 249.95 472.45 235.00 474.00 C 220.05 475.55 221.35 462.21 222.00 449.00 C 222.65 435.79 218.87 419.57 227.00 411.00 C 238.38 410.39 248.47 417.99 250.31 403.30 C 252.15 388.61 258.27 373.18 263.92 359.92 C 269.56 346.66 272.79 344.38 278.70 334.70 C 284.62 325.02 289.44 320.52 296.30 312.30 C 303.16 304.07 310.13 300.02 317.22 294.22 C 324.32 288.43 332.43 282.68 340.07 279.07 C 347.71 275.47 353.75 270.79 362.25 268.81 C 370.75 266.82 371.58 261.85 382.08 262.07 C 392.58 262.28 399.22 254.84 397.00 243.00 C 394.78 231.16 394.97 216.76 404.70 212.70 C 414.44 208.64 430.39 213.52 441.00 212.00 C 451.61 210.48 462.96 211.46 465.26 221.75 C 467.57 232.04 465.07 247.52 466.00 259.00 M 640.00 553.00  C 647.65 566.97 641.60 576.06 625.00 574.00 C 608.40 571.94 590.73 574.95 574.00 574.00 C 557.27 573.05 540.79 574.42 524.00 574.00 C 507.21 573.58 489.81 574.19 473.00 574.00 C 456.19 573.81 439.81 574.08 423.00 574.00 C 406.19 573.92 388.79 574.03 372.00 574.00 C 355.21 573.97 338.74 574.01 322.00 574.00 C 305.26 573.99 287.62 573.98 271.00 574.00 C 254.38 574.02 237.80 573.94 222.00 574.00 C 217.05 567.31 217.03 558.63 222.00 553.00 C 360.20 553.00 501.70 553.00 640.00 553.00 M 272.00 641.00  C 277.86 633.64 282.67 628.30 287.30 617.30 C 291.92 606.29 302.49 598.24 316.00 604.00 C 320.33 615.61 316.95 628.39 318.00 641.00 C 319.05 653.61 316.66 667.28 318.00 680.00 C 319.34 692.72 318.73 705.18 305.00 704.00 C 291.27 702.81 297.00 692.08 296.00 680.00 C 295.00 667.92 296.01 653.82 297.00 642.00 C 289.35 651.22 284.90 663.53 277.00 673.00 C 273.17 673.83 271.65 671.07 269.00 672.00 C 264.01 661.09 258.03 652.50 252.00 643.00 C 252.79 654.27 250.82 668.65 252.00 681.00 C 253.18 693.35 252.34 705.00 239.00 704.00 C 225.66 703.00 230.21 691.11 230.00 679.00 C 229.79 666.89 229.10 649.95 230.00 638.00 C 230.90 626.05 225.13 610.54 234.75 604.61 C 244.38 598.67 256.62 606.35 258.91 615.10 C 261.19 623.85 270.72 631.24 272.00 641.00 M 412.00 605.00  C 413.43 610.01 415.33 615.93 411.00 621.00 C 397.50 620.87 382.20 621.09 368.00 621.00 C 368.00 627.67 368.00 634.33 368.00 641.00 C 375.75 639.35 387.49 639.29 393.92 641.13 C 400.35 642.97 398.33 654.77 395.00 659.00 C 386.00 659.00 377.00 659.00 368.00 659.00 C 368.00 667.67 368.00 676.33 368.00 685.00 C 382.21 684.91 397.51 685.13 411.00 685.00 C 417.17 694.52 414.58 704.96 401.00 704.00 C 387.42 703.04 374.65 703.44 361.00 704.00 C 347.35 704.56 344.18 698.82 346.00 686.00 C 347.82 673.18 344.18 657.94 346.00 646.00 C 347.82 634.06 343.17 618.07 345.40 608.26 C 347.63 598.44 365.11 605.53 375.00 604.00 C 384.89 602.47 402.70 603.82 412.00 605.00 M 513.00 604.00  C 513.12 619.37 516.46 643.02 514.00 659.00 C 511.54 674.98 522.25 699.87 507.25 703.40 C 492.26 706.92 486.45 688.39 479.22 677.78 C 471.99 667.16 463.70 654.71 457.00 643.00 C 458.01 658.03 452.21 674.13 456.00 690.00 C 459.79 705.87 436.02 710.04 435.98 694.97 C 435.93 679.91 435.61 661.92 436.00 647.00 C 436.39 632.08 433.94 615.08 438.00 604.00 C 443.23 604.52 450.71 603.95 456.00 604.00 C 467.99 623.18 480.83 640.82 492.00 661.00 C 492.24 647.75 495.12 635.27 493.00 621.00 C 490.88 606.73 498.66 598.69 513.00 604.00 M 564.00 606.00  C 562.45 620.50 566.01 640.14 564.00 655.00 C 561.99 669.86 565.63 683.65 581.22 682.22 C 596.81 680.79 593.95 666.34 594.00 652.00 C 594.05 637.66 593.37 617.05 595.00 605.00 C 601.39 602.58 611.46 602.00 617.00 606.00 C 614.99 626.91 620.06 660.40 616.07 680.08 C 612.07 699.77 592.24 704.72 576.33 704.67 C 560.42 704.62 541.99 694.61 540.23 675.77 C 538.47 656.93 540.30 623.25 541.00 605.00 C 548.35 602.26 558.38 601.90 564.00 606.00 M 512.00 749.00  C 496.18 746.96 480.34 748.29 464.00 748.00 C 447.66 747.71 430.46 748.19 414.00 748.00 C 397.54 747.81 380.45 748.21 364.00 748.00 C 347.55 747.79 330.29 748.38 314.00 748.00 C 297.71 747.62 279.87 748.79 264.00 748.00 C 248.13 747.21 231.45 751.17 219.00 745.00 C 219.39 740.78 219.21 735.16 219.00 731.00 C 231.03 723.66 246.94 727.76 262.00 727.00 C 277.06 726.24 293.57 727.43 309.00 727.00 C 324.43 726.57 340.35 727.38 356.00 727.00 C 371.65 726.62 388.27 727.58 404.00 727.00 C 419.73 726.42 435.26 728.19 451.00 727.00 C 466.74 725.81 482.20 729.59 498.00 727.00 C 513.80 724.41 524.43 736.51 512.00 749.00 M 547.00 743.00  C 544.58 728.24 554.96 725.29 568.00 727.00 C 581.04 728.71 596.49 725.16 609.00 727.00 C 621.51 728.84 639.54 720.54 643.00 735.00 C 646.46 749.47 635.45 749.57 623.00 748.00 C 610.55 746.43 594.39 749.57 582.00 748.00 C 569.61 746.43 554.25 752.90 547.00 743.00 Z"/>
</g>
<g fill="None" fill-opacity="0.0" stroke="#000000" stroke-opacity="0.04" stroke-width="0.3"><path d=" M 123.00 203.00  C 123.58 193.39 122.23 183.59 123.00 174.00 C 123.77 164.41 108.00 168.62 102.03 168.02 C 96.05 167.43 89.91 172.14 86.80 175.75 C 83.69 179.36 83.45 186.45 85.68 192.32 C 87.91 198.19 93.15 201.49 98.75 202.20 C 104.35 202.91 116.51 201.84 123.00 203.00 Z"/>
</g>
<g fill="None" fill-opacity="0.0" stroke="#000000" stroke-opacity="0.98" stroke-width="0.3"><path d=" M 466.00 259.00  C 465.07 247.52 467.57 232.04 465.26 221.75 C 462.96 211.46 451.61 210.48 441.00 212.00 C 430.39 213.52 414.44 208.64 404.70 212.70 C 394.97 216.76 394.78 231.16 397.00 243.00 C 399.22 254.84 392.58 262.28 382.08 262.07 C 371.58 261.85 370.75 266.82 362.25 268.81 C 353.75 270.79 347.71 275.47 340.07 279.07 C 332.43 282.68 324.32 288.43 317.22 294.22 C 310.13 300.02 303.16 304.07 296.30 312.30 C 289.44 320.52 284.62 325.02 278.70 334.70 C 272.79 344.38 269.56 346.66 263.92 359.92 C 258.27 373.18 252.15 388.61 250.31 403.30 C 248.47 417.99 238.38 410.39 227.00 411.00 C 218.87 419.57 222.65 435.79 222.00 449.00 C 221.35 462.21 220.05 475.55 235.00 474.00 C 249.95 472.45 265.76 474.69 281.00 474.00 C 296.24 473.31 312.66 474.33 328.00 474.00 C 343.34 473.67 358.66 474.18 374.00 474.00 C 389.34 473.82 404.66 474.14 420.00 474.00 C 435.34 473.86 451.76 474.19 467.00 474.00 C 482.24 473.81 498.06 474.38 513.00 474.00 C 527.94 473.62 544.63 474.81 559.00 474.00 C 573.37 473.19 592.89 475.74 606.00 474.00 C 619.11 472.26 638.11 481.03 641.67 467.67 C 645.23 454.31 639.97 436.33 642.00 422.00 C 644.03 407.68 627.14 412.15 616.00 412.00 C 609.72 336.58 539.30 269.92 466.00 259.00 M 444.00 231.00  C 444.00 239.67 444.00 248.33 444.00 257.00 C 436.14 256.20 426.63 257.55 418.00 257.00 C 418.62 248.08 416.73 238.48 419.00 230.00 C 426.84 232.26 435.75 230.38 444.00 231.00 M 595.00 412.00  C 510.93 411.33 424.32 413.34 340.00 411.00 C 331.75 422.51 336.78 434.10 354.00 432.00 C 371.22 429.90 389.46 432.95 407.00 432.00 C 424.54 431.05 443.34 432.48 461.00 432.00 C 478.66 431.52 496.35 432.32 514.00 432.00 C 531.65 431.68 549.37 432.37 567.00 432.00 C 584.63 431.63 602.83 433.11 620.00 431.00 C 620.00 438.33 620.00 445.67 620.00 453.00 C 495.00 453.00 370.00 453.00 245.00 453.00 C 245.00 445.67 245.00 438.33 245.00 431.00 C 254.53 429.98 270.07 432.36 279.00 431.00 C 287.93 429.64 304.29 434.69 308.92 428.92 C 313.54 423.15 310.80 410.48 302.92 411.07 C 295.04 411.66 277.94 410.59 270.00 411.00 C 276.78 374.81 293.90 338.79 325.68 313.68 C 357.46 288.57 392.02 275.51 434.00 277.00 C 475.98 278.49 505.22 289.00 536.23 311.77 C 567.25 334.54 590.51 376.18 595.00 412.00 Z"/>
</g>
<g fill="None" fill-opacity="0.0" stroke="#000000" stroke-opacity="0.04" stroke-width="0.3"><path d=" M 444.00 231.00  C 435.75 230.38 426.84 232.26 419.00 230.00 C 416.73 238.48 418.62 248.08 418.00 257.00 C 426.63 257.55 436.14 256.20 444.00 257.00 C 444.00 248.33 444.00 239.67 444.00 231.00 Z"/>
</g>
<g fill="None" fill-opacity="0.0" stroke="#000000" stroke-opacity="0.01" stroke-width="0.3"><path d=" M 595.00 412.00  C 590.51 376.18 567.25 334.54 536.23 311.77 C 505.22 289.00 475.98 278.49 434.00 277.00 C 392.02 275.51 357.46 288.57 325.68 313.68 C 293.90 338.79 276.78 374.81 270.00 411.00 C 277.94 410.59 295.04 411.66 302.92 411.07 C 310.80 410.48 313.54 423.15 308.92 428.92 C 304.29 434.69 287.93 429.64 279.00 431.00 C 270.07 432.36 254.53 429.98 245.00 431.00 C 245.00 438.33 245.00 445.67 245.00 453.00 C 370.00 453.00 495.00 453.00 620.00 453.00 C 620.00 445.67 620.00 438.33 620.00 431.00 C 602.83 433.11 584.63 431.63 567.00 432.00 C 549.37 432.37 531.65 431.68 514.00 432.00 C 496.35 432.32 478.66 431.52 461.00 432.00 C 443.34 432.48 424.54 431.05 407.00 432.00 C 389.46 432.95 371.22 429.90 354.00 432.00 C 336.78 434.10 331.75 422.51 340.00 411.00 C 424.32 413.34 510.93 411.33 595.00 412.00 Z"/>
</g>
<g fill="None" fill-opacity="0.0" stroke="#000000" stroke-opacity="0.04" stroke-width="0.3"><path d=" M 122.00 289.00  C 105.79 289.60 83.40 288.02 84.98 307.97 C 86.55 327.93 105.72 323.43 123.00 324.00 C 122.36 312.42 124.30 300.17 122.00 289.00 Z"/>
</g>
<g fill="None" fill-opacity="0.0" stroke="#000000" stroke-opacity="0.04" stroke-width="0.3"><path d=" M 123.00 410.00  C 115.45 410.83 103.38 408.71 96.75 410.41 C 90.12 412.11 85.84 416.82 84.60 423.25 C 83.37 429.68 85.09 433.69 89.23 437.77 C 93.37 441.85 96.95 443.76 104.00 443.00 C 111.05 442.24 124.09 447.80 123.00 437.00 C 121.91 426.20 123.82 420.35 123.00 410.00 Z"/>
</g>
<g fill="None" fill-opacity="0.0" stroke="#000000" stroke-opacity="0.04" stroke-width="0.3"><path d=" M 123.00 529.00  C 111.91 530.87 94.94 527.40 88.11 535.11 C 81.27 542.81 83.82 552.80 90.75 559.81 C 97.67 566.82 111.47 560.31 122.00 563.00 C 124.05 552.09 122.54 540.31 123.00 529.00 Z"/>
</g>
<g fill="None" fill-opacity="0.0" stroke="#000000" stroke-opacity="0.97" stroke-width="0.3"><path d=" M 640.00 553.00  C 501.70 553.00 360.20 553.00 222.00 553.00 C 217.03 558.63 217.05 567.31 222.00 574.00 C 237.80 573.94 254.38 574.02 271.00 574.00 C 287.62 573.98 305.26 573.99 322.00 574.00 C 338.74 574.01 355.21 573.97 372.00 574.00 C 388.79 574.03 406.19 573.92 423.00 574.00 C 439.81 574.08 456.19 573.81 473.00 574.00 C 489.81 574.19 507.21 573.58 524.00 574.00 C 540.79 574.42 557.27 573.05 574.00 574.00 C 590.73 574.95 608.40 571.94 625.00 574.00 C 641.60 576.06 647.65 566.97 640.00 553.00 Z"/>
</g>
<g fill="None" fill-opacity="0.0" stroke="#000000" stroke-opacity="0.98" stroke-width="0.3"><path d=" M 902.00 638.00  C 903.11 648.50 904.40 656.51 911.08 663.92 C 917.76 671.32 934.76 665.28 934.80 654.25 C 934.85 643.21 940.28 634.34 950.77 634.77 C 961.26 635.21 974.11 626.00 972.21 616.23 C 970.32 606.46 961.79 600.57 951.08 600.93 C 940.38 601.30 936.02 591.11 935.76 581.25 C 935.49 571.38 924.22 562.72 914.23 567.23 C 904.24 571.74 904.87 586.09 901.40 594.25 C 897.93 602.42 885.00 600.57 876.10 604.09 C 867.20 607.62 863.62 624.29 873.92 630.08 C 884.23 635.87 892.30 633.11 902.00 638.00 Z"/>
</g>
<g fill="None" fill-opacity="0.0" stroke="#000000" stroke-opacity="0.98" stroke-width="0.3"><path d=" M 272.00 641.00  C 270.72 631.24 261.19 623.85 258.91 615.10 C 256.62 606.35 244.38 598.67 234.75 604.61 C 225.13 610.54 230.90 626.05 230.00 638.00 C 229.10 649.95 229.79 666.89 230.00 679.00 C 230.21 691.11 225.66 703.00 239.00 704.00 C 252.34 705.00 253.18 693.35 252.00 681.00 C 250.82 668.65 252.79 654.27 252.00 643.00 C 258.03 652.50 264.01 661.09 269.00 672.00 C 271.65 671.07 273.17 673.83 277.00 673.00 C 284.90 663.53 289.35 651.22 297.00 642.00 C 296.01 653.82 295.00 667.92 296.00 680.00 C 297.00 692.08 291.27 702.81 305.00 704.00 C 318.73 705.18 319.34 692.72 318.00 680.00 C 316.66 667.28 319.05 653.61 318.00 641.00 C 316.95 628.39 320.33 615.61 316.00 604.00 C 302.49 598.24 291.92 606.29 287.30 617.30 C 282.67 628.30 277.86 633.64 272.00 641.00 Z"/>
</g>
<g fill="None" fill-opacity="0.0" stroke="#000000" stroke-opacity="0.98" stroke-width="0.3"><path d=" M 412.00 605.00  C 402.70 603.82 384.89 602.47 375.00 604.00 C 365.11 605.53 347.63 598.44 345.40 608.26 C 343.17 618.07 347.82 634.06 346.00 646.00 C 344.18 657.94 347.82 673.18 346.00 686.00 C 344.18 698.82 347.35 704.56 361.00 704.00 C 374.65 703.44 387.42 703.04 401.00 704.00 C 414.58 704.96 417.17 694.52 411.00 685.00 C 397.51 685.13 382.21 684.91 368.00 685.00 C 368.00 676.33 368.00 667.67 368.00 659.00 C 377.00 659.00 386.00 659.00 395.00 659.00 C 398.33 654.77 400.35 642.97 393.92 641.13 C 387.49 639.29 375.75 639.35 368.00 641.00 C 368.00 634.33 368.00 627.67 368.00 621.00 C 382.20 621.09 397.50 620.87 411.00 621.00 C 415.33 615.93 413.43 610.01 412.00 605.00 Z"/>
</g>
<g fill="None" fill-opacity="0.0" stroke="#000000" stroke-opacity="0.98" stroke-width="0.3"><path d=" M 513.00 604.00  C 498.66 598.69 490.88 606.73 493.00 621.00 C 495.12 635.27 492.24 647.75 492.00 661.00 C 480.83 640.82 467.99 623.18 456.00 604.00 C 450.71 603.95 443.23 604.52 438.00 604.00 C 433.94 615.08 436.39 632.08 436.00 647.00 C 435.61 661.92 435.93 679.91 435.98 694.97 C 436.02 710.04 459.79 705.87 456.00 690.00 C 452.21 674.13 458.01 658.03 457.00 643.00 C 463.70 654.71 471.99 667.16 479.22 677.78 C 486.45 688.39 492.26 706.92 507.25 703.40 C 522.25 699.87 511.54 674.98 514.00 659.00 C 516.46 643.02 513.12 619.37 513.00 604.00 Z"/>
</g>
<g fill="None" fill-opacity="0.0" stroke="#000000" stroke-opacity="0.97" stroke-width="0.3"><path d=" M 564.00 606.00  C 558.38 601.90 548.35 602.26 541.00 605.00 C 540.30 623.25 538.47 656.93 540.23 675.77 C 541.99 694.61 560.42 704.62 576.33 704.67 C 592.24 704.72 612.07 699.77 616.07 680.08 C 620.06 660.40 614.99 626.91 617.00 606.00 C 611.46 602.00 601.39 602.58 595.00 605.00 C 593.37 617.05 594.05 637.66 594.00 652.00 C 593.95 666.34 596.81 680.79 581.22 682.22 C 565.63 683.65 561.99 669.86 564.00 655.00 C 566.01 640.14 562.45 620.50 564.00 606.00 Z"/>
</g>
<g fill="None" fill-opacity="0.0" stroke="#000000" stroke-opacity="0.04" stroke-width="0.3"><path d=" M 122.00 683.00  C 124.14 674.85 121.71 668.62 123.00 658.00 C 124.29 647.38 112.08 649.62 103.67 650.67 C 95.26 651.72 94.41 649.47 87.13 657.08 C 79.85 664.69 87.61 681.96 98.75 682.80 C 109.90 683.64 111.71 681.04 122.00 683.00 Z"/>
</g>
<g fill="None" fill-opacity="0.0" stroke="#000000" stroke-opacity="0.99" stroke-width="0.3"><path d=" M 830.00 772.00  C 846.75 746.50 880.14 733.51 884.98 705.03 C 889.82 676.54 857.95 648.90 832.25 655.81 C 806.54 662.71 791.84 691.17 768.00 710.00 C 785.55 731.87 809.29 755.17 830.00 772.00 Z"/>
</g>
<g fill="None" fill-opacity="0.0" stroke="#000000" stroke-opacity="0.95" stroke-width="0.3"><path d=" M 512.00 749.00  C 524.43 736.51 513.80 724.41 498.00 727.00 C 482.20 729.59 466.74 725.81 451.00 727.00 C 435.26 728.19 419.73 726.42 404.00 727.00 C 388.27 727.58 371.65 726.62 356.00 727.00 C 340.35 727.38 324.43 726.57 309.00 727.00 C 293.57 727.43 277.06 726.24 262.00 727.00 C 246.94 727.76 231.03 723.66 219.00 731.00 C 219.21 735.16 219.39 740.78 219.00 745.00 C 231.45 751.17 248.13 747.21 264.00 748.00 C 279.87 748.79 297.71 747.62 314.00 748.00 C 330.29 748.38 347.55 747.79 364.00 748.00 C 380.45 748.21 397.54 747.81 414.00 748.00 C 430.46 748.19 447.66 747.71 464.00 748.00 C 480.34 748.29 496.18 746.96 512.00 749.00 Z"/>
</g>
<g fill="None" fill-opacity="0.0" stroke="#000000" stroke-opacity="0.95" stroke-width="0.3"><path d=" M 547.00 743.00  C 554.25 752.90 569.61 746.43 582.00 748.00 C 594.39 749.57 610.55 746.43 623.00 748.00 C 635.45 749.57 646.46 749.47 643.00 735.00 C 639.54 720.54 621.51 728.84 609.00 727.00 C 596.49 725.16 581.04 728.71 568.00 727.00 C 554.96 725.29 544.58 728.24 547.00 743.00 Z"/>
</g>
<g fill="None" fill-opacity="0.0" stroke="#000000" stroke-opacity="0.98" stroke-width="0.3"><path d=" M 911.00 743.00  C 899.89 745.91 898.37 759.28 895.39 770.25 C 892.42 781.21 880.39 779.54 868.68 783.68 C 856.97 787.82 856.53 804.57 864.90 812.09 C 873.27 819.62 885.24 813.54 893.29 821.70 C 901.33 829.85 895.51 841.59 904.08 850.92 C 912.66 860.24 930.34 855.87 932.81 843.25 C 935.27 830.63 935.47 821.27 946.92 818.92 C 958.38 816.58 969.23 815.76 973.61 803.75 C 977.98 791.74 964.42 779.99 953.25 780.80 C 942.07 781.61 933.40 771.26 933.80 760.25 C 934.20 749.24 921.18 740.33 911.00 743.00 Z"/>
</g>
<g fill="None" fill-opacity="0.0" stroke="#000000" stroke-opacity="0.04" stroke-width="0.3"><path d=" M 123.00 769.00  C 108.12 771.10 86.13 763.16 84.22 783.78 C 82.31 804.40 107.38 803.30 123.00 803.00 C 123.00 791.67 123.00 780.33 123.00 769.00 Z"/>
</g>
<g fill="#000000" fill-opacity="0.00" stroke="None">
<path d=" M 0.00 1024.00  L 1024.00 1024.00 L 1024.00 0.00 L 0.00 0.00 L 0.00 1024.00 M 765.00 647.00  C 764.11 653.51 761.98 660.78 760.41 666.75 C 758.84 672.73 757.82 680.88 751.00 682.00 C 751.58 693.85 750.22 711.76 751.00 723.00 C 751.78 734.24 763.62 738.13 769.75 746.25 C 775.88 754.37 783.78 759.16 790.25 766.75 C 796.72 774.34 804.96 780.20 811.00 788.00 C 792.37 806.83 772.23 826.90 753.25 846.25 C 734.27 865.59 713.24 883.53 695.25 904.25 C 677.25 924.96 654.04 937.45 628.92 924.08 C 603.81 910.70 603.24 877.16 619.00 858.00 C 599.60 859.87 579.86 858.80 560.00 859.00 C 540.14 859.20 519.95 858.89 500.00 859.00 C 480.05 859.11 460.00 858.92 440.00 859.00 C 420.00 859.08 400.05 858.89 380.00 859.00 C 359.95 859.11 340.13 858.79 320.00 859.00 C 299.87 859.21 280.31 858.55 260.00 859.00 C 239.69 859.45 220.69 858.00 200.00 859.00 C 179.31 860.00 161.53 856.79 140.00 859.00 C 118.47 861.21 122.18 840.23 123.00 822.00 C 93.53 828.72 63.23 812.40 64.67 783.33 C 66.11 754.26 95.99 744.99 123.00 750.00 C 121.35 734.56 121.35 717.44 123.00 702.00 C 94.80 705.28 67.07 697.88 64.40 668.25 C 61.72 638.61 94.20 624.88 123.00 631.00 C 123.00 614.67 123.00 598.33 123.00 582.00 C 93.88 588.24 64.31 573.57 65.00 544.00 C 65.69 514.43 94.74 506.08 123.00 510.00 C 123.00 494.00 123.00 478.00 123.00 462.00 C 94.53 468.07 64.84 455.96 64.98 426.97 C 65.12 397.98 93.39 384.73 123.00 391.00 C 123.00 375.00 123.00 359.00 123.00 343.00 C 95.23 347.48 68.03 338.77 64.80 309.75 C 61.57 280.74 93.15 262.63 122.00 271.00 C 124.39 255.30 122.25 237.40 123.00 222.00 C 95.94 225.61 67.17 218.77 64.20 188.75 C 61.23 158.74 94.45 141.53 123.00 149.00 C 122.37 138.75 124.29 127.81 122.00 118.00 C 132.97 106.36 150.10 111.85 168.00 111.00 C 185.90 110.15 207.41 111.39 226.00 111.00 C 244.59 110.61 264.09 111.17 283.00 111.00 C 301.91 110.83 321.95 111.07 341.00 111.00 C 360.05 110.93 378.89 111.02 398.00 111.00 C 417.11 110.98 436.87 110.97 456.00 111.00 C 475.13 111.03 493.88 110.91 513.00 111.00 C 532.12 111.09 551.93 110.79 571.00 111.00 C 590.07 111.21 610.15 110.53 629.00 111.00 C 647.85 111.47 667.60 109.94 686.00 111.00 C 704.40 112.06 726.28 108.54 743.67 111.33 C 761.06 114.12 752.54 135.56 754.00 152.00 C 755.46 168.44 753.35 192.08 754.00 210.00 C 754.65 227.92 753.74 248.37 754.00 267.00 C 754.26 285.63 753.95 306.06 754.00 325.00 C 754.05 343.94 754.14 364.01 754.00 383.00 C 753.86 401.99 754.42 421.07 754.00 440.00 C 753.58 458.93 754.96 479.29 754.00 498.00 C 753.04 516.71 756.19 536.83 754.00 555.00 C 751.81 573.17 760.32 578.02 762.31 592.70 C 764.30 607.38 776.30 605.95 788.25 608.20 C 800.19 610.45 807.41 629.17 797.70 637.70 C 787.98 646.22 775.30 644.49 765.00 647.00 M 902.00 638.00  C 892.30 633.11 884.23 635.87 873.92 630.08 C 863.62 624.29 867.20 607.62 876.10 604.09 C 885.00 600.57 897.93 602.42 901.40 594.25 C 904.87 586.09 904.24 571.74 914.23 567.23 C 924.22 562.72 935.49 571.38 935.76 581.25 C 936.02 591.11 940.38 601.30 951.08 600.93 C 961.79 600.57 970.32 606.46 972.21 616.23 C 974.11 626.00 961.26 635.21 950.77 634.77 C 940.28 634.34 934.85 643.21 934.80 654.25 C 934.76 665.28 917.76 671.32 911.08 663.92 C 904.40 656.51 903.11 648.50 902.00 638.00 M 830.00 772.00  C 809.29 755.17 785.55 731.87 768.00 710.00 C 791.84 691.17 806.54 662.71 832.25 655.81 C 857.95 648.90 889.82 676.54 884.98 705.03 C 880.14 733.51 846.75 746.50 830.00 772.00 M 911.00 743.00  C 921.18 740.33 934.20 749.24 933.80 760.25 C 933.40 771.26 942.07 781.61 953.25 780.80 C 964.42 779.99 977.98 791.74 973.61 803.75 C 969.23 815.76 958.38 816.58 946.92 818.92 C 935.47 821.27 935.27 830.63 932.81 843.25 C 930.34 855.87 912.66 860.24 904.08 850.92 C 895.51 841.59 901.33 829.85 893.29 821.70 C 885.24 813.54 873.27 819.62 864.90 812.09 C 856.53 804.57 856.97 787.82 868.68 783.68 C 880.39 779.54 892.42 781.21 895.39 770.25 C 898.37 759.28 899.89 745.91 911.00 743.00 Z"/>
</g>
<g fill="#000000" fill-opacity="0.98" stroke="None">
<path d=" M 765.00 647.00  C 775.30 644.49 787.98 646.22 797.70 637.70 C 807.41 629.17 800.19 610.45 788.25 608.20 C 776.30 605.95 764.30 607.38 762.31 592.70 C 760.32 578.02 751.81 573.17 754.00 555.00 C 756.19 536.83 753.04 516.71 754.00 498.00 C 754.96 479.29 753.58 458.93 754.00 440.00 C 754.42 421.07 753.86 401.99 754.00 383.00 C 754.14 364.01 754.05 343.94 754.00 325.00 C 753.95 306.06 754.26 285.63 754.00 267.00 C 753.74 248.37 754.65 227.92 754.00 210.00 C 753.35 192.08 755.46 168.44 754.00 152.00 C 752.54 135.56 761.06 114.12 743.67 111.33 C 726.28 108.54 704.40 112.06 686.00 111.00 C 667.60 109.94 647.85 111.47 629.00 111.00 C 610.15 110.53 590.07 111.21 571.00 111.00 C 551.93 110.79 532.12 111.09 513.00 111.00 C 493.88 110.91 475.13 111.03 456.00 111.00 C 436.87 110.97 417.11 110.98 398.00 111.00 C 378.89 111.02 360.05 110.93 341.00 111.00 C 321.95 111.07 301.91 110.83 283.00 111.00 C 264.09 111.17 244.59 110.61 226.00 111.00 C 207.41 111.39 185.90 110.15 168.00 111.00 C 150.10 111.85 132.97 106.36 122.00 118.00 C 124.29 127.81 122.37 138.75 123.00 149.00 C 94.45 141.53 61.23 158.74 64.20 188.75 C 67.17 218.77 95.94 225.61 123.00 222.00 C 122.25 237.40 124.39 255.30 122.00 271.00 C 93.15 262.63 61.57 280.74 64.80 309.75 C 68.03 338.77 95.23 347.48 123.00 343.00 C 123.00 359.00 123.00 375.00 123.00 391.00 C 93.39 384.73 65.12 397.98 64.98 426.97 C 64.84 455.96 94.53 468.07 123.00 462.00 C 123.00 478.00 123.00 494.00 123.00 510.00 C 94.74 506.08 65.69 514.43 65.00 544.00 C 64.31 573.57 93.88 588.24 123.00 582.00 C 123.00 598.33 123.00 614.67 123.00 631.00 C 94.20 624.88 61.72 638.61 64.40 668.25 C 67.07 697.88 94.80 705.28 123.00 702.00 C 121.35 717.44 121.35 734.56 123.00 750.00 C 95.99 744.99 66.11 754.26 64.67 783.33 C 63.23 812.40 93.53 828.72 123.00 822.00 C 122.18 840.23 118.47 861.21 140.00 859.00 C 161.53 856.79 179.31 860.00 200.00 859.00 C 220.69 858.00 239.69 859.45 260.00 859.00 C 280.31 858.55 299.87 859.21 320.00 859.00 C 340.13 858.79 359.95 859.11 380.00 859.00 C 400.05 858.89 420.00 859.08 440.00 859.00 C 460.00 858.92 480.05 859.11 500.00 859.00 C 519.95 858.89 540.14 859.20 560.00 859.00 C 579.86 858.80 599.60 859.87 619.00 858.00 C 603.24 877.16 603.81 910.70 628.92 924.08 C 654.04 937.45 677.25 924.96 695.25 904.25 C 713.24 883.53 734.27 865.59 753.25 846.25 C 772.23 826.90 792.37 806.83 811.00 788.00 C 804.96 780.20 796.72 774.34 790.25 766.75 C 783.78 759.16 775.88 754.37 769.75 746.25 C 763.62 738.13 751.78 734.24 751.00 723.00 C 750.22 711.76 751.58 693.85 751.00 682.00 C 757.82 680.88 758.84 672.73 760.41 666.75 C 761.98 660.78 764.11 653.51 765.00 647.00 M 732.00 132.00  C 731.99 150.01 732.01 167.99 732.00 186.00 C 731.99 204.01 732.02 221.98 732.00 240.00 C 731.98 258.02 732.04 275.96 732.00 294.00 C 731.96 312.04 732.09 331.03 732.00 349.00 C 731.91 366.97 732.20 385.25 732.00 403.00 C 731.80 420.75 732.45 439.63 732.00 457.00 C 731.55 474.37 733.01 494.43 732.00 511.00 C 730.99 527.57 734.19 551.23 732.00 566.00 C 729.81 580.77 725.88 586.92 722.94 599.08 C 719.99 611.24 702.19 604.45 693.25 610.59 C 684.32 616.74 679.36 631.75 691.03 638.97 C 702.69 646.19 709.26 643.96 722.00 649.00 C 724.16 659.56 722.65 667.00 728.92 677.08 C 735.20 687.15 730.22 705.09 732.00 719.00 C 733.78 732.91 732.61 747.59 721.75 754.75 C 710.89 761.92 707.27 770.03 698.25 778.25 C 689.23 786.47 683.52 793.85 674.75 802.75 C 665.98 811.66 659.55 815.46 651.25 826.25 C 642.95 837.04 633.24 839.74 618.00 838.00 C 602.76 836.26 585.56 838.80 570.00 838.00 C 554.44 837.20 538.70 838.35 523.00 838.00 C 507.30 837.65 490.75 838.16 475.00 838.00 C 459.25 837.84 443.75 838.07 428.00 838.00 C 412.25 837.93 396.80 838.03 381.00 838.00 C 365.20 837.97 348.82 838.01 333.00 838.00 C 317.18 837.99 301.84 838.01 286.00 838.00 C 270.16 837.99 253.85 838.00 238.00 838.00 C 222.15 838.00 206.86 838.00 191.00 838.00 C 175.14 838.00 158.90 838.00 143.00 838.00 C 143.00 602.67 143.00 367.33 143.00 132.00 C 339.33 132.00 535.67 132.00 732.00 132.00 M 123.00 203.00  C 116.51 201.84 104.35 202.91 98.75 202.20 C 93.15 201.49 87.91 198.19 85.68 192.32 C 83.45 186.45 83.69 179.36 86.80 175.75 C 89.91 172.14 96.05 167.43 102.03 168.02 C 108.00 168.62 123.77 164.41 123.00 174.00 C 122.23 183.59 123.58 193.39 123.00 203.00 M 122.00 289.00  C 124.30 300.17 122.36 312.42 123.00 324.00 C 105.72 323.43 86.55 327.93 84.98 307.97 C 83.40 288.02 105.79 289.60 122.00 289.00 M 123.00 410.00  C 123.82 420.35 121.91 426.20 123.00 437.00 C 124.09 447.80 111.05 442.24 104.00 443.00 C 96.95 443.76 93.37 441.85 89.23 437.77 C 85.09 433.69 83.37 429.68 84.60 423.25 C 85.84 416.82 90.12 412.11 96.75 410.41 C 103.38 408.71 115.45 410.83 123.00 410.00 M 123.00 529.00  C 122.54 540.31 124.05 552.09 122.00 563.00 C 111.47 560.31 97.67 566.82 90.75 559.81 C 83.82 552.80 81.27 542.81 88.11 535.11 C 94.94 527.40 111.91 530.87 123.00 529.00 M 122.00 683.00  C 111.71 681.04 109.90 683.64 98.75 682.80 C 87.61 681.96 79.85 664.69 87.13 657.08 C 94.41 649.47 95.26 651.72 103.67 650.67 C 112.08 649.62 124.29 647.38 123.00 658.00 C 121.71 668.62 124.14 674.85 122.00 683.00 M 123.00 769.00  C 123.00 780.33 123.00 791.67 123.00 803.00 C 107.38 803.30 82.31 804.40 84.22 783.78 C 86.13 763.16 108.12 771.10 123.00 769.00 Z"/>
</g>
<g fill="#000000" fill-opacity="0.00" stroke="None">
<path d=" M 732.00 132.00  C 535.67 132.00 339.33 132.00 143.00 132.00 C 143.00 367.33 143.00 602.67 143.00 838.00 C 158.90 838.00 175.14 838.00 191.00 838.00 C 206.86 838.00 222.15 838.00 238.00 838.00 C 253.85 838.00 270.16 837.99 286.00 838.00 C 301.84 838.01 317.18 837.99 333.00 838.00 C 348.82 838.01 365.20 837.97 381.00 838.00 C 396.80 838.03 412.25 837.93 428.00 838.00 C 443.75 838.07 459.25 837.84 475.00 838.00 C 490.75 838.16 507.30 837.65 523.00 838.00 C 538.70 838.35 554.44 837.20 570.00 838.00 C 585.56 838.80 602.76 836.26 618.00 838.00 C 633.24 839.74 642.95 837.04 651.25 826.25 C 659.55 815.46 665.98 811.66 674.75 802.75 C 683.52 793.85 689.23 786.47 698.25 778.25 C 707.27 770.03 710.89 761.92 721.75 754.75 C 732.61 747.59 733.78 732.91 732.00 719.00 C 730.22 705.09 735.20 687.15 728.92 677.08 C 722.65 667.00 724.16 659.56 722.00 649.00 C 709.26 643.96 702.69 646.19 691.03 638.97 C 679.36 631.75 684.32 616.74 693.25 610.59 C 702.19 604.45 719.99 611.24 722.94 599.08 C 725.88 586.92 729.81 580.77 732.00 566.00 C 734.19 551.23 730.99 527.57 732.00 511.00 C 733.01 494.43 731.55 474.37 732.00 457.00 C 732.45 439.63 731.80 420.75 732.00 403.00 C 732.20 385.25 731.91 366.97 732.00 349.00 C 732.09 331.03 731.96 312.04 732.00 294.00 C 732.04 275.96 731.98 258.02 732.00 240.00 C 732.02 221.98 731.99 204.01 732.00 186.00 C 732.01 167.99 731.99 150.01 732.00 132.00 M 466.00 259.00  C 539.30 269.92 609.72 336.58 616.00 412.00 C 627.14 412.15 644.03 407.68 642.00 422.00 C 639.97 436.33 645.23 454.31 641.67 467.67 C 638.11 481.03 619.11 472.26 606.00 474.00 C 592.89 475.74 573.37 473.19 559.00 474.00 C 544.63 474.81 527.94 473.62 513.00 474.00 C 498.06 474.38 482.24 473.81 467.00 474.00 C 451.76 474.19 435.34 473.86 420.00 474.00 C 404.66 474.14 389.34 473.82 374.00 474.00 C 358.66 474.18 343.34 473.67 328.00 474.00 C 312.66 474.33 296.24 473.31 281.00 474.00 C 265.76 474.69 249.95 472.45 235.00 474.00 C 220.05 475.55 221.35 462.21 222.00 449.00 C 222.65 435.79 218.87 419.57 227.00 411.00 C 238.38 410.39 248.47 417.99 250.31 403.30 C 252.15 388.61 258.27 373.18 263.92 359.92 C 269.56 346.66 272.79 344.38 278.70 334.70 C 284.62 325.02 289.44 320.52 296.30 312.30 C 303.16 304.07 310.13 300.02 317.22 294.22 C 324.32 288.43 332.43 282.68 340.07 279.07 C 347.71 275.47 353.75 270.79 362.25 268.81 C 370.75 266.82 371.58 261.85 382.08 262.07 C 392.58 262.28 399.22 254.84 397.00 243.00 C 394.78 231.16 394.97 216.76 404.70 212.70 C 414.44 208.64 430.39 213.52 441.00 212.00 C 451.61 210.48 462.96 211.46 465.26 221.75 C 467.57 232.04 465.07 247.52 466.00 259.00 M 640.00 553.00  C 647.65 566.97 641.60 576.06 625.00 574.00 C 608.40 571.94 590.73 574.95 574.00 574.00 C 557.27 573.05 540.79 574.42 524.00 574.00 C 507.21 573.58 489.81 574.19 473.00 574.00 C 456.19 573.81 439.81 574.08 423.00 574.00 C 406.19 573.92 388.79 574.03 372.00 574.00 C 355.21 573.97 338.74 574.01 322.00 574.00 C 305.26 573.99 287.62 573.98 271.00 574.00 C 254.38 574.02 237.80 573.94 222.00 574.00 C 217.05 567.31 217.03 558.63 222.00 553.00 C 360.20 553.00 501.70 553.00 640.00 553.00 M 272.00 641.00  C 277.86 633.64 282.67 628.30 287.30 617.30 C 291.92 606.29 302.49 598.24 316.00 604.00 C 320.33 615.61 316.95 628.39 318.00 641.00 C 319.05 653.61 316.66 667.28 318.00 680.00 C 319.34 692.72 318.73 705.18 305.00 704.00 C 291.27 702.81 297.00 692.08 296.00 680.00 C 295.00 667.92 296.01 653.82 297.00 642.00 C 289.35 651.22 284.90 663.53 277.00 673.00 C 273.17 673.83 271.65 671.07 269.00 672.00 C 264.01 661.09 258.03 652.50 252.00 643.00 C 252.79 654.27 250.82 668.65 252.00 681.00 C 253.18 693.35 252.34 705.00 239.00 704.00 C 225.66 703.00 230.21 691.11 230.00 679.00 C 229.79 666.89 229.10 649.95 230.00 638.00 C 230.90 626.05 225.13 610.54 234.75 604.61 C 244.38 598.67 256.62 606.35 258.91 615.10 C 261.19 623.85 270.72 631.24 272.00 641.00 M 412.00 605.00  C 413.43 610.01 415.33 615.93 411.00 621.00 C 397.50 620.87 382.20 621.09 368.00 621.00 C 368.00 627.67 368.00 634.33 368.00 641.00 C 375.75 639.35 387.49 639.29 393.92 641.13 C 400.35 642.97 398.33 654.77 395.00 659.00 C 386.00 659.00 377.00 659.00 368.00 659.00 C 368.00 667.67 368.00 676.33 368.00 685.00 C 382.21 684.91 397.51 685.13 411.00 685.00 C 417.17 694.52 414.58 704.96 401.00 704.00 C 387.42 703.04 374.65 703.44 361.00 704.00 C 347.35 704.56 344.18 698.82 346.00 686.00 C 347.82 673.18 344.18 657.94 346.00 646.00 C 347.82 634.06 343.17 618.07 345.40 608.26 C 347.63 598.44 365.11 605.53 375.00 604.00 C 384.89 602.47 402.70 603.82 412.00 605.00 M 513.00 604.00  C 513.12 619.37 516.46 643.02 514.00 659.00 C 511.54 674.98 522.25 699.87 507.25 703.40 C 492.26 706.92 486.45 688.39 479.22 677.78 C 471.99 667.16 463.70 654.71 457.00 643.00 C 458.01 658.03 452.21 674.13 456.00 690.00 C 459.79 705.87 436.02 710.04 435.98 694.97 C 435.93 679.91 435.61 661.92 436.00 647.00 C 436.39 632.08 433.94 615.08 438.00 604.00 C 443.23 604.52 450.71 603.95 456.00 604.00 C 467.99 623.18 480.83 640.82 492.00 661.00 C 492.24 647.75 495.12 635.27 493.00 621.00 C 490.88 606.73 498.66 598.69 513.00 604.00 M 564.00 606.00  C 562.45 620.50 566.01 640.14 564.00 655.00 C 561.99 669.86 565.63 683.65 581.22 682.22 C 596.81 680.79 593.95 666.34 594.00 652.00 C 594.05 637.66 593.37 617.05 595.00 605.00 C 601.39 602.58 611.46 602.00 617.00 606.00 C 614.99 626.91 620.06 660.40 616.07 680.08 C 612.07 699.77 592.24 704.72 576.33 704.67 C 560.42 704.62 541.99 694.61 540.23 675.77 C 538.47 656.93 540.30 623.25 541.00 605.00 C 548.35 602.26 558.38 601.90 564.00 606.00 M 512.00 749.00  C 496.18 746.96 480.34 748.29 464.00 748.00 C 447.66 747.71 430.46 748.19 414.00 748.00 C 397.54 747.81 380.45 748.21 364.00 748.00 C 347.55 747.79 330.29 748.38 314.00 748.00 C 297.71 747.62 279.87 748.79 264.00 748.00 C 248.13 747.21 231.45 751.17 219.00 745.00 C 219.39 740.78 219.21 735.16 219.00 731.00 C 231.03 723.66 246.94 727.76 262.00 727.00 C 277.06 726.24 293.57 727.43 309.00 727.00 C 324.43 726.57 340.35 727.38 356.00 727.00 C 371.65 726.62 388.27 727.58 404.00 727.00 C 419.73 726.42 435.26 728.19 451.00 727.00 C 466.74 725.81 482.20 729.59 498.00 727.00 C 513.80 724.41 524.43 736.51 512.00 749.00 M 547.00 743.00  C 544.58 728.24 554.96 725.29 568.00 727.00 C 581.04 728.71 596.49 725.16 609.00 727.00 C 621.51 728.84 639.54 720.54 643.00 735.00 C 646.46 749.47 635.45 749.57 623.00 748.00 C 610.55 746.43 594.39 749.57 582.00 748.00 C 569.61 746.43 554.25 752.90 547.00 743.00 Z"/>
</g>
<g fill="#000000" fill-opacity="0.04" stroke="None">
<path d=" M 123.00 203.00  C 123.58 193.39 122.23 183.59 123.00 174.00 C 123.77 164.41 108.00 168.62 102.03 168.02 C 96.05 167.43 89.91 172.14 86.80 175.75 C 83.69 179.36 83.45 186.45 85.68 192.32 C 87.91 198.19 93.15 201.49 98.75 202.20 C 104.35 202.91 116.51 201.84 123.00 203.00 Z"/>
</g>
<g fill="#000000" fill-opacity="0.98" stroke="None">
<path d=" M 466.00 259.00  C 465.07 247.52 467.57 232.04 465.26 221.75 C 462.96 211.46 451.61 210.48 441.00 212.00 C 430.39 213.52 414.44 208.64 404.70 212.70 C 394.97 216.76 394.78 231.16 397.00 243.00 C 399.22 254.84 392.58 262.28 382.08 262.07 C 371.58 261.85 370.75 266.82 362.25 268.81 C 353.75 270.79 347.71 275.47 340.07 279.07 C 332.43 282.68 324.32 288.43 317.22 294.22 C 310.13 300.02 303.16 304.07 296.30 312.30 C 289.44 320.52 284.62 325.02 278.70 334.70 C 272.79 344.38 269.56 346.66 263.92 359.92 C 258.27 373.18 252.15 388.61 250.31 403.30 C 248.47 417.99 238.38 410.39 227.00 411.00 C 218.87 419.57 222.65 435.79 222.00 449.00 C 221.35 462.21 220.05 475.55 235.00 474.00 C 249.95 472.45 265.76 474.69 281.00 474.00 C 296.24 473.31 312.66 474.33 328.00 474.00 C 343.34 473.67 358.66 474.18 374.00 474.00 C 389.34 473.82 404.66 474.14 420.00 474.00 C 435.34 473.86 451.76 474.19 467.00 474.00 C 482.24 473.81 498.06 474.38 513.00 474.00 C 527.94 473.62 544.63 474.81 559.00 474.00 C 573.37 473.19 592.89 475.74 606.00 474.00 C 619.11 472.26 638.11 481.03 641.67 467.67 C 645.23 454.31 639.97 436.33 642.00 422.00 C 644.03 407.68 627.14 412.15 616.00 412.00 C 609.72 336.58 539.30 269.92 466.00 259.00 M 444.00 231.00  C 444.00 239.67 444.00 248.33 444.00 257.00 C 436.14 256.20 426.63 257.55 418.00 257.00 C 418.62 248.08 416.73 238.48 419.00 230.00 C 426.84 232.26 435.75 230.38 444.00 231.00 M 595.00 412.00  C 510.93 411.33 424.32 413.34 340.00 411.00 C 331.75 422.51 336.78 434.10 354.00 432.00 C 371.22 429.90 389.46 432.95 407.00 432.00 C 424.54 431.05 443.34 432.48 461.00 432.00 C 478.66 431.52 496.35 432.32 514.00 432.00 C 531.65 431.68 549.37 432.37 567.00 432.00 C 584.63 431.63 602.83 433.11 620.00 431.00 C 620.00 438.33 620.00 445.67 620.00 453.00 C 495.00 453.00 370.00 453.00 245.00 453.00 C 245.00 445.67 245.00 438.33 245.00 431.00 C 254.53 429.98 270.07 432.36 279.00 431.00 C 287.93 429.64 304.29 434.69 308.92 428.92 C 313.54 423.15 310.80 410.48 302.92 411.07 C 295.04 411.66 277.94 410.59 270.00 411.00 C 276.78 374.81 293.90 338.79 325.68 313.68 C 357.46 288.57 392.02 275.51 434.00 277.00 C 475.98 278.49 505.22 289.00 536.23 311.77 C 567.25 334.54 590.51 376.18 595.00 412.00 Z"/>
</g>
<g fill="#000000" fill-opacity="0.04" stroke="None">
<path d=" M 444.00 231.00  C 435.75 230.38 426.84 232.26 419.00 230.00 C 416.73 238.48 418.62 248.08 418.00 257.00 C 426.63 257.55 436.14 256.20 444.00 257.00 C 444.00 248.33 444.00 239.67 444.00 231.00 Z"/>
</g>
<g fill="#000000" fill-opacity="0.01" stroke="None">
<path d=" M 595.00 412.00  C 590.51 376.18 567.25 334.54 536.23 311.77 C 505.22 289.00 475.98 278.49 434.00 277.00 C 392.02 275.51 357.46 288.57 325.68 313.68 C 293.90 338.79 276.78 374.81 270.00 411.00 C 277.94 410.59 295.04 411.66 302.92 411.07 C 310.80 410.48 313.54 423.15 308.92 428.92 C 304.29 434.69 287.93 429.64 279.00 431.00 C 270.07 432.36 254.53 429.98 245.00 431.00 C 245.00 438.33 245.00 445.67 245.00 453.00 C 370.00 453.00 495.00 453.00 620.00 453.00 C 620.00 445.67 620.00 438.33 620.00 431.00 C 602.83 433.11 584.63 431.63 567.00 432.00 C 549.37 432.37 531.65 431.68 514.00 432.00 C 496.35 432.32 478.66 431.52 461.00 432.00 C 443.34 432.48 424.54 431.05 407.00 432.00 C 389.46 432.95 371.22 429.90 354.00 432.00 C 336.78 434.10 331.75 422.51 340.00 411.00 C 424.32 413.34 510.93 411.33 595.00 412.00 Z"/>
</g>
<g fill="#000000" fill-opacity="0.04" stroke="None">
<path d=" M 122.00 289.00  C 105.79 289.60 83.40 288.02 84.98 307.97 C 86.55 327.93 105.72 323.43 123.00 324.00 C 122.36 312.42 124.30 300.17 122.00 289.00 Z"/>
</g>
<g fill="#000000" fill-opacity="0.04" stroke="None">
<path d=" M 123.00 410.00  C 115.45 410.83 103.38 408.71 96.75 410.41 C 90.12 412.11 85.84 416.82 84.60 423.25 C 83.37 429.68 85.09 433.69 89.23 437.77 C 93.37 441.85 96.95 443.76 104.00 443.00 C 111.05 442.24 124.09 447.80 123.00 437.00 C 121.91 426.20 123.82 420.35 123.00 410.00 Z"/>
</g>
<g fill="#000000" fill-opacity="0.04" stroke="None">
<path d=" M 123.00 529.00  C 111.91 530.87 94.94 527.40 88.11 535.11 C 81.27 542.81 83.82 552.80 90.75 559.81 C 97.67 566.82 111.47 560.31 122.00 563.00 C 124.05 552.09 122.54 540.31 123.00 529.00 Z"/>
</g>
<g fill="#000000" fill-opacity="0.97" stroke="None">
<path d=" M 640.00 553.00  C 501.70 553.00 360.20 553.00 222.00 553.00 C 217.03 558.63 217.05 567.31 222.00 574.00 C 237.80 573.94 254.38 574.02 271.00 574.00 C 287.62 573.98 305.26 573.99 322.00 574.00 C 338.74 574.01 355.21 573.97 372.00 574.00 C 388.79 574.03 406.19 573.92 423.00 574.00 C 439.81 574.08 456.19 573.81 473.00 574.00 C 489.81 574.19 507.21 573.58 524.00 574.00 C 540.79 574.42 557.27 573.05 574.00 574.00 C 590.73 574.95 608.40 571.94 625.00 574.00 C 641.60 576.06 647.65 566.97 640.00 553.00 Z"/>
</g>
<g fill="#000000" fill-opacity="0.98" stroke="None">
<path d=" M 902.00 638.00  C 903.11 648.50 904.40 656.51 911.08 663.92 C 917.76 671.32 934.76 665.28 934.80 654.25 C 934.85 643.21 940.28 634.34 950.77 634.77 C 961.26 635.21 974.11 626.00 972.21 616.23 C 970.32 606.46 961.79 600.57 951.08 600.93 C 940.38 601.30 936.02 591.11 935.76 581.25 C 935.49 571.38 924.22 562.72 914.23 567.23 C 904.24 571.74 904.87 586.09 901.40 594.25 C 897.93 602.42 885.00 600.57 876.10 604.09 C 867.20 607.62 863.62 624.29 873.92 630.08 C 884.23 635.87 892.30 633.11 902.00 638.00 Z"/>
</g>
<g fill="#000000" fill-opacity="0.98" stroke="None">
<path d=" M 272.00 641.00  C 270.72 631.24 261.19 623.85 258.91 615.10 C 256.62 606.35 244.38 598.67 234.75 604.61 C 225.13 610.54 230.90 626.05 230.00 638.00 C 229.10 649.95 229.79 666.89 230.00 679.00 C 230.21 691.11 225.66 703.00 239.00 704.00 C 252.34 705.00 253.18 693.35 252.00 681.00 C 250.82 668.65 252.79 654.27 252.00 643.00 C 258.03 652.50 264.01 661.09 269.00 672.00 C 271.65 671.07 273.17 673.83 277.00 673.00 C 284.90 663.53 289.35 651.22 297.00 642.00 C 296.01 653.82 295.00 667.92 296.00 680.00 C 297.00 692.08 291.27 702.81 305.00 704.00 C 318.73 705.18 319.34 692.72 318.00 680.00 C 316.66 667.28 319.05 653.61 318.00 641.00 C 316.95 628.39 320.33 615.61 316.00 604.00 C 302.49 598.24 291.92 606.29 287.30 617.30 C 282.67 628.30 277.86 633.64 272.00 641.00 Z"/>
</g>
<g fill="#000000" fill-opacity="0.98" stroke="None">
<path d=" M 412.00 605.00  C 402.70 603.82 384.89 602.47 375.00 604.00 C 365.11 605.53 347.63 598.44 345.40 608.26 C 343.17 618.07 347.82 634.06 346.00 646.00 C 344.18 657.94 347.82 673.18 346.00 686.00 C 344.18 698.82 347.35 704.56 361.00 704.00 C 374.65 703.44 387.42 703.04 401.00 704.00 C 414.58 704.96 417.17 694.52 411.00 685.00 C 397.51 685.13 382.21 684.91 368.00 685.00 C 368.00 676.33 368.00 667.67 368.00 659.00 C 377.00 659.00 386.00 659.00 395.00 659.00 C 398.33 654.77 400.35 642.97 393.92 641.13 C 387.49 639.29 375.75 639.35 368.00 641.00 C 368.00 634.33 368.00 627.67 368.00 621.00 C 382.20 621.09 397.50 620.87 411.00 621.00 C 415.33 615.93 413.43 610.01 412.00 605.00 Z"/>
</g>
<g fill="#000000" fill-opacity="0.98" stroke="None">
<path d=" M 513.00 604.00  C 498.66 598.69 490.88 606.73 493.00 621.00 C 495.12 635.27 492.24 647.75 492.00 661.00 C 480.83 640.82 467.99 623.18 456.00 604.00 C 450.71 603.95 443.23 604.52 438.00 604.00 C 433.94 615.08 436.39 632.08 436.00 647.00 C 435.61 661.92 435.93 679.91 435.98 694.97 C 436.02 710.04 459.79 705.87 456.00 690.00 C 452.21 674.13 458.01 658.03 457.00 643.00 C 463.70 654.71 471.99 667.16 479.22 677.78 C 486.45 688.39 492.26 706.92 507.25 703.40 C 522.25 699.87 511.54 674.98 514.00 659.00 C 516.46 643.02 513.12 619.37 513.00 604.00 Z"/>
</g>
<g fill="#000000" fill-opacity="0.97" stroke="None">
<path d=" M 564.00 606.00  C 558.38 601.90 548.35 602.26 541.00 605.00 C 540.30 623.25 538.47 656.93 540.23 675.77 C 541.99 694.61 560.42 704.62 576.33 704.67 C 592.24 704.72 612.07 699.77 616.07 680.08 C 620.06 660.40 614.99 626.91 617.00 606.00 C 611.46 602.00 601.39 602.58 595.00 605.00 C 593.37 617.05 594.05 637.66 594.00 652.00 C 593.95 666.34 596.81 680.79 581.22 682.22 C 565.63 683.65 561.99 669.86 564.00 655.00 C 566.01 640.14 562.45 620.50 564.00 606.00 Z"/>
</g>
<g fill="#000000" fill-opacity="0.04" stroke="None">
<path d=" M 122.00 683.00  C 124.14 674.85 121.71 668.62 123.00 658.00 C 124.29 647.38 112.08 649.62 103.67 650.67 C 95.26 651.72 94.41 649.47 87.13 657.08 C 79.85 664.69 87.61 681.96 98.75 682.80 C 109.90 683.64 111.71 681.04 122.00 683.00 Z"/>
</g>
<g fill="#000000" fill-opacity="0.99" stroke="None">
<path d=" M 830.00 772.00  C 846.75 746.50 880.14 733.51 884.98 705.03 C 889.82 676.54 857.95 648.90 832.25 655.81 C 806.54 662.71 791.84 691.17 768.00 710.00 C 785.55 731.87 809.29 755.17 830.00 772.00 Z"/>
</g>
<g fill="#000000" fill-opacity="0.95" stroke="None">
<path d=" M 512.00 749.00  C 524.43 736.51 513.80 724.41 498.00 727.00 C 482.20 729.59 466.74 725.81 451.00 727.00 C 435.26 728.19 419.73 726.42 404.00 727.00 C 388.27 727.58 371.65 726.62 356.00 727.00 C 340.35 727.38 324.43 726.57 309.00 727.00 C 293.57 727.43 277.06 726.24 262.00 727.00 C 246.94 727.76 231.03 723.66 219.00 731.00 C 219.21 735.16 219.39 740.78 219.00 745.00 C 231.45 751.17 248.13 747.21 264.00 748.00 C 279.87 748.79 297.71 747.62 314.00 748.00 C 330.29 748.38 347.55 747.79 364.00 748.00 C 380.45 748.21 397.54 747.81 414.00 748.00 C 430.46 748.19 447.66 747.71 464.00 748.00 C 480.34 748.29 496.18 746.96 512.00 749.00 Z"/>
</g>
<g fill="#000000" fill-opacity="0.95" stroke="None">
<path d=" M 547.00 743.00  C 554.25 752.90 569.61 746.43 582.00 748.00 C 594.39 749.57 610.55 746.43 623.00 748.00 C 635.45 749.57 646.46 749.47 643.00 735.00 C 639.54 720.54 621.51 728.84 609.00 727.00 C 596.49 725.16 581.04 728.71 568.00 727.00 C 554.96 725.29 544.58 728.24 547.00 743.00 Z"/>
</g>
<g fill="#000000" fill-opacity="0.98" stroke="None">
<path d=" M 911.00 743.00  C 899.89 745.91 898.37 759.28 895.39 770.25 C 892.42 781.21 880.39 779.54 868.68 783.68 C 856.97 787.82 856.53 804.57 864.90 812.09 C 873.27 819.62 885.24 813.54 893.29 821.70 C 901.33 829.85 895.51 841.59 904.08 850.92 C 912.66 860.24 930.34 855.87 932.81 843.25 C 935.27 830.63 935.47 821.27 946.92 818.92 C 958.38 816.58 969.23 815.76 973.61 803.75 C 977.98 791.74 964.42 779.99 953.25 780.80 C 942.07 781.61 933.40 771.26 933.80 760.25 C 934.20 749.24 921.18 740.33 911.00 743.00 Z"/>
</g>
<g fill="#000000" fill-opacity="0.04" stroke="None">
<path d=" M 123.00 769.00  C 108.12 771.10 86.13 763.16 84.22 783.78 C 82.31 804.40 107.38 803.30 123.00 803.00 C 123.00 791.67 123.00 780.33 123.00 769.00 Z"/>
</g>
</svg>
