<svg xmlns="http://www.w3.org/2000/svg" xmlns:v="https://svgstorm.com"
viewBox = "0 0 1024 1024"
width="1024"
height="1024">
<g fill="None" fill-opacity="0.0" stroke="#000000" stroke-opacity="0.00" stroke-width="0.3"><path d="
M 0.00 1024.00 
L 1024.00 1024.00
L 1024.00 0.00
L 0.00 0.00
L 0.00 1024.00
M 494.00 243.00 
C 412.76 242.33 330.80 244.33 250.00 242.00
C 249.19 226.81 250.41 206.25 254.26 194.25 C 258.12 182.25 269.36 174.62 279.25 169.20 C 289.14 163.78 310.84 169.02 313.65 154.31 C 316.45 139.59 313.53 125.98 321.13 115.08 C 328.73 104.18 340.72 91.83 352.25 88.24 C 363.78 84.66 377.22 84.85 389.68 88.32 C 402.14 91.80 415.45 103.08 422.11 113.89 C 428.76 124.71 429.55 136.23 430.33 151.67 C 431.11 167.11 445.26 163.56 457.25 166.80 C 469.24 170.04 484.85 179.77 489.71 192.30 C 494.57 204.84 494.66 226.48 494.00 243.00
M 242.00 187.00 
C 240.35 194.77 240.35 204.26 242.00 212.00
C 226.89 211.09 224.71 239.19 241.00 238.00
C 245.33 256.05 264.10 248.12 282.00 249.00 C 299.90 249.88 323.25 248.76 342.00 249.00 C 360.75 249.24 383.23 249.25 402.00 249.00 C 420.77 248.75 444.04 249.89 462.00 249.00 C 479.96 248.11 499.67 255.83 505.00 238.00
C 518.69 238.66 518.30 212.14 505.00 213.00
C 502.24 204.86 505.71 195.15 503.00 187.00
C 533.57 186.98 558.95 185.68 579.75 207.25 C 600.54 228.82 605.65 242.75 605.00 276.00 C 604.35 309.25 605.39 351.85 605.00 387.00 C 604.61 422.15 605.40 463.34 605.00 499.00 C 604.60 534.66 607.01 569.65 606.00 605.00 C 604.99 640.36 605.35 676.76 606.00 713.00
C 590.99 727.43 575.04 742.23 560.75 757.75 C 546.47 773.27 525.93 785.31 529.00 806.00
C 499.42 805.92 468.44 806.10 439.00 806.00 C 409.56 805.90 376.82 806.20 348.00 806.00 C 319.18 805.80 285.26 806.42 258.00 806.00 C 230.74 805.58 205.94 808.32 186.25 800.61 C 166.55 792.89 152.51 777.05 143.68 756.32 C 134.84 735.60 139.52 716.80 139.00 689.00 C 138.48 661.20 139.20 626.92 139.00 598.00 C 138.80 569.08 139.00 537.23 139.00 508.00 C 139.00 478.77 138.80 445.92 139.00 417.00 C 139.20 388.08 138.46 353.65 139.00 326.00 C 139.54 298.35 136.95 268.61 140.59 246.25 C 144.24 223.90 158.27 210.28 175.68 197.68 C 193.09 185.08 217.05 186.78 242.00 187.00
M 645.00 563.00 
C 632.11 560.86 623.24 561.85 613.75 553.25 C 604.27 544.65 610.86 524.73 623.25 523.20 C 635.64 521.67 648.10 519.91 648.65 507.31 C 649.19 494.70 654.93 484.05 666.75 482.40 C 678.57 480.74 689.60 493.09 689.77 505.23 C 689.95 517.37 698.10 521.63 710.25 521.80 C 722.39 521.97 734.97 535.53 729.24 547.25 C 723.51 558.96 716.24 559.97 702.92 561.93 C 689.59 563.89 690.95 576.33 687.61 588.75 C 684.26 601.17 664.29 606.80 656.08 595.92 C 647.88 585.03 650.51 575.71 645.00 563.00
M 850.00 482.00 
C 863.39 479.68 870.39 492.83 871.20 505.25 C 872.00 517.67 884.46 517.33 895.75 519.39 C 907.05 521.46 912.96 538.38 902.92 546.92 C 892.88 555.46 878.06 550.06 872.87 557.92 C 867.68 565.77 871.48 585.70 857.75 587.76 C 844.03 589.81 836.85 580.74 836.07 567.92 C 835.29 555.09 827.06 552.39 813.25 551.61 C 799.44 550.82 794.78 531.96 803.30 523.30 C 811.82 514.65 827.67 521.79 833.19 511.75 C 838.71 501.71 835.27 484.55 850.00 482.00
M 765.00 686.00 
C 742.82 669.26 724.55 644.52 702.00 627.00
C 725.23 608.25 739.02 578.21 766.70 570.69 C 794.37 563.17 823.87 592.17 818.60 619.75 C 813.33 647.33 782.22 662.42 765.00 686.00
M 686.00 643.00 
C 694.48 653.42 703.72 661.09 713.25 670.75 C 722.78 680.42 729.26 688.95 740.25 698.75 C 751.23 708.55 733.33 718.34 724.75 726.75 C 716.17 735.16 706.75 746.94 697.25 755.25 C 687.75 763.55 678.56 773.32 669.25 782.25 C 659.94 791.18 651.45 801.16 641.75 809.75 C 632.05 818.34 622.76 827.74 614.23 837.23 C 605.70 846.72 595.29 851.93 584.25 853.26 C 573.21 854.60 559.95 851.93 550.70 843.30 C 541.46 834.66 535.29 827.81 534.20 814.75 C 533.11 801.70 537.52 790.23 546.75 780.75 C 555.99 771.28 564.64 761.50 574.75 752.75 C 584.86 744.00 592.86 734.50 601.92 724.92 C 610.98 715.34 620.27 706.41 629.75 697.75 C 639.24 689.09 647.80 679.14 657.25 670.25 C 666.69 661.35 674.81 648.83 686.00 643.00
M 872.00 742.00 
C 870.68 750.92 869.56 758.78 866.61 767.75 C 863.66 776.72 847.91 784.06 839.75 778.20 C 831.60 772.34 826.39 764.96 826.23 753.77 C 826.07 742.58 819.61 738.77 808.92 738.07 C 798.23 737.36 791.28 733.26 785.87 725.08 C 780.46 716.90 787.11 703.32 796.23 700.23 C 805.35 697.14 815.37 695.66 824.00 694.00
C 827.54 682.82 827.03 670.30 835.25 661.25 C 843.48 652.20 859.25 658.09 865.30 666.70 C 871.35 675.31 866.70 691.24 877.08 694.93 C 887.46 698.63 898.75 697.05 906.75 705.25 C 914.75 713.45 912.78 728.23 901.92 733.92 C 891.06 739.62 882.81 737.24 872.00 742.00 Z"/>
</g>
<g fill="None" fill-opacity="0.0" stroke="#000000" stroke-opacity="0.99" stroke-width="0.3"><path d="
M 494.00 243.00 
C 494.66 226.48 494.57 204.84 489.71 192.30 C 484.85 179.77 469.24 170.04 457.25 166.80 C 445.26 163.56 431.11 167.11 430.33 151.67 C 429.55 136.23 428.76 124.71 422.11 113.89 C 415.45 103.08 402.14 91.80 389.68 88.32 C 377.22 84.85 363.78 84.66 352.25 88.24 C 340.72 91.83 328.73 104.18 321.13 115.08 C 313.53 125.98 316.45 139.59 313.65 154.31 C 310.84 169.02 289.14 163.78 279.25 169.20 C 269.36 174.62 258.12 182.25 254.26 194.25 C 250.41 206.25 249.19 226.81 250.00 242.00
C 330.80 244.33 412.76 242.33 494.00 243.00 Z"/>
</g>
<g fill="None" fill-opacity="0.0" stroke="#000000" stroke-opacity="0.98" stroke-width="0.3"><path d="
M 242.00 187.00 
C 217.05 186.78 193.09 185.08 175.68 197.68 C 158.27 210.28 144.24 223.90 140.59 246.25 C 136.95 268.61 139.54 298.35 139.00 326.00 C 138.46 353.65 139.20 388.08 139.00 417.00 C 138.80 445.92 139.00 478.77 139.00 508.00 C 139.00 537.23 138.80 569.08 139.00 598.00 C 139.20 626.92 138.48 661.20 139.00 689.00 C 139.52 716.80 134.84 735.60 143.68 756.32 C 152.51 777.05 166.55 792.89 186.25 800.61 C 205.94 808.32 230.74 805.58 258.00 806.00 C 285.26 806.42 319.18 805.80 348.00 806.00 C 376.82 806.20 409.56 805.90 439.00 806.00 C 468.44 806.10 499.42 805.92 529.00 806.00
C 525.93 785.31 546.47 773.27 560.75 757.75 C 575.04 742.23 590.99 727.43 606.00 713.00
C 605.35 676.76 604.99 640.36 606.00 605.00 C 607.01 569.65 604.60 534.66 605.00 499.00 C 605.40 463.34 604.61 422.15 605.00 387.00 C 605.39 351.85 604.35 309.25 605.00 276.00 C 605.65 242.75 600.54 228.82 579.75 207.25 C 558.95 185.68 533.57 186.98 503.00 187.00
C 505.71 195.15 502.24 204.86 505.00 213.00
C 518.30 212.14 518.69 238.66 505.00 238.00
C 499.67 255.83 479.96 248.11 462.00 249.00 C 444.04 249.89 420.77 248.75 402.00 249.00 C 383.23 249.25 360.75 249.24 342.00 249.00 C 323.25 248.76 299.90 249.88 282.00 249.00 C 264.10 248.12 245.33 256.05 241.00 238.00
C 224.71 239.19 226.89 211.09 242.00 212.00
C 240.35 204.26 240.35 194.77 242.00 187.00
M 569.00 304.00 
C 566.98 334.90 568.25 366.66 568.00 398.00 C 567.75 429.34 568.10 462.83 568.00 494.00 C 567.90 525.17 568.01 559.55 568.00 590.00 C 567.99 620.45 567.93 657.30 568.00 686.00 C 568.07 714.70 574.78 745.17 550.11 759.11 C 525.43 773.05 499.40 764.43 469.00 766.00 C 438.60 767.57 403.63 765.97 373.00 766.00 C 342.37 766.03 306.93 767.49 277.00 766.00 C 247.07 764.51 218.36 772.82 193.77 759.23 C 169.18 745.64 176.72 716.73 176.00 688.00 C 175.28 659.27 176.33 622.51 176.00 592.00 C 175.67 561.49 176.15 527.31 176.00 496.00 C 175.85 464.69 176.08 431.64 176.00 400.00 C 175.92 368.36 176.06 335.73 176.00 304.00
C 307.00 304.00 438.00 304.00 569.00 304.00 Z"/>
</g>
<g fill="None" fill-opacity="0.0" stroke="#000000" stroke-opacity="0.01" stroke-width="0.3"><path d="
M 569.00 304.00 
C 438.00 304.00 307.00 304.00 176.00 304.00
C 176.06 335.73 175.92 368.36 176.00 400.00 C 176.08 431.64 175.85 464.69 176.00 496.00 C 176.15 527.31 175.67 561.49 176.00 592.00 C 176.33 622.51 175.28 659.27 176.00 688.00 C 176.72 716.73 169.18 745.64 193.77 759.23 C 218.36 772.82 247.07 764.51 277.00 766.00 C 306.93 767.49 342.37 766.03 373.00 766.00 C 403.63 765.97 438.60 767.57 469.00 766.00 C 499.40 764.43 525.43 773.05 550.11 759.11 C 574.78 745.17 568.07 714.70 568.00 686.00 C 567.93 657.30 567.99 620.45 568.00 590.00 C 568.01 559.55 567.90 525.17 568.00 494.00 C 568.10 462.83 567.75 429.34 568.00 398.00 C 568.25 366.66 566.98 334.90 569.00 304.00
M 494.00 402.00 
C 492.83 410.07 494.76 420.66 494.00 430.00
C 413.92 428.33 332.05 428.33 252.00 430.00
C 251.70 419.79 248.03 406.87 255.00 399.00
C 274.16 399.18 294.03 398.80 314.00 399.00 C 333.97 399.20 356.02 398.66 376.00 399.00 C 395.98 399.34 417.38 398.27 437.00 399.00 C 456.62 399.73 477.47 396.07 494.00 402.00
M 494.00 445.00 
C 493.66 454.25 494.24 465.08 494.00 475.00
C 413.92 473.33 332.05 473.33 252.00 475.00
C 252.00 465.00 252.00 455.00 252.00 445.00
C 331.94 446.68 414.77 446.65 494.00 445.00
M 288.00 559.00 
C 300.75 557.05 313.75 558.17 327.00 558.00 C 340.25 557.83 354.71 557.98 368.00 558.00 C 381.29 558.02 395.93 557.77 409.00 558.00 C 422.07 558.23 436.46 557.38 449.00 558.00 C 461.54 558.62 478.59 556.61 490.00 558.00 C 501.41 559.39 493.75 588.67 483.00 580.00
C 480.40 591.60 481.91 603.03 478.00 615.00
C 470.87 615.20 474.16 625.90 472.61 631.75 C 471.05 637.60 472.58 646.11 470.00 652.00
C 467.97 650.81 466.36 651.71 464.00 652.00
C 467.40 669.03 464.38 684.44 446.00 682.00 C 427.62 679.56 411.18 683.51 394.00 682.00 C 376.82 680.49 357.88 683.59 342.00 682.00 C 326.12 680.41 307.66 685.95 296.70 679.29 C 285.73 672.63 288.60 659.07 284.80 649.75 C 281.00 640.44 279.89 629.74 276.69 620.30 C 273.49 610.87 272.47 601.41 269.20 591.75 C 265.93 582.09 264.91 572.40 261.81 562.75 C 258.70 553.10 256.87 542.00 246.32 536.68 C 235.77 531.37 218.93 533.57 205.00 533.00
C 206.65 524.90 206.65 515.07 205.00 507.00
C 215.54 507.66 233.36 505.97 244.00 507.00 C 254.64 508.03 261.06 512.56 268.30 515.71 C 275.53 518.86 275.57 531.00 279.58 536.77 C 283.58 542.54 284.04 552.98 288.00 559.00
M 336.00 688.00 
C 350.11 686.84 362.26 701.07 358.69 716.70 C 355.12 732.33 330.30 738.77 319.92 724.08 C 309.53 709.40 320.41 689.29 336.00 688.00
M 423.00 688.00 
C 438.76 689.02 448.01 710.80 437.90 723.90 C 427.79 737.00 405.10 734.77 399.29 719.70 C 393.48 704.62 405.52 686.87 423.00 688.00 Z"/>
</g>
<g fill="None" fill-opacity="0.0" stroke="#000000" stroke-opacity="0.99" stroke-width="0.3"><path d="
M 494.00 402.00 
C 477.47 396.07 456.62 399.73 437.00 399.00 C 417.38 398.27 395.98 399.34 376.00 399.00 C 356.02 398.66 333.97 399.20 314.00 399.00 C 294.03 398.80 274.16 399.18 255.00 399.00
C 248.03 406.87 251.70 419.79 252.00 430.00
C 332.05 428.33 413.92 428.33 494.00 430.00
C 494.76 420.66 492.83 410.07 494.00 402.00 Z"/>
</g>
<g fill="None" fill-opacity="0.0" stroke="#000000" stroke-opacity="1.00" stroke-width="0.3"><path d="
M 494.00 445.00 
C 414.77 446.65 331.94 446.68 252.00 445.00
C 252.00 455.00 252.00 465.00 252.00 475.00
C 332.05 473.33 413.92 473.33 494.00 475.00
C 494.24 465.08 493.66 454.25 494.00 445.00 Z"/>
</g>
<g fill="None" fill-opacity="0.0" stroke="#000000" stroke-opacity="0.99" stroke-width="0.3"><path d="
M 645.00 563.00 
C 650.51 575.71 647.88 585.03 656.08 595.92 C 664.29 606.80 684.26 601.17 687.61 588.75 C 690.95 576.33 689.59 563.89 702.92 561.93 C 716.24 559.97 723.51 558.96 729.24 547.25 C 734.97 535.53 722.39 521.97 710.25 521.80 C 698.10 521.63 689.95 517.37 689.77 505.23 C 689.60 493.09 678.57 480.74 666.75 482.40 C 654.93 484.05 649.19 494.70 648.65 507.31 C 648.10 519.91 635.64 521.67 623.25 523.20 C 610.86 524.73 604.27 544.65 613.75 553.25 C 623.24 561.85 632.11 560.86 645.00 563.00 Z"/>
</g>
<g fill="None" fill-opacity="0.0" stroke="#000000" stroke-opacity="0.98" stroke-width="0.3"><path d="
M 850.00 482.00 
C 835.27 484.55 838.71 501.71 833.19 511.75 C 827.67 521.79 811.82 514.65 803.30 523.30 C 794.78 531.96 799.44 550.82 813.25 551.61 C 827.06 552.39 835.29 555.09 836.07 567.92 C 836.85 580.74 844.03 589.81 857.75 587.76 C 871.48 585.70 867.68 565.77 872.87 557.92 C 878.06 550.06 892.88 555.46 902.92 546.92 C 912.96 538.38 907.05 521.46 895.75 519.39 C 884.46 517.33 872.00 517.67 871.20 505.25 C 870.39 492.83 863.39 479.68 850.00 482.00 Z"/>
</g>
<g fill="None" fill-opacity="0.0" stroke="#000000" stroke-opacity="0.99" stroke-width="0.3"><path d="
M 288.00 559.00 
C 284.04 552.98 283.58 542.54 279.58 536.77 C 275.57 531.00 275.53 518.86 268.30 515.71 C 261.06 512.56 254.64 508.03 244.00 507.00 C 233.36 505.97 215.54 507.66 205.00 507.00
C 206.65 515.07 206.65 524.90 205.00 533.00
C 218.93 533.57 235.77 531.37 246.32 536.68 C 256.87 542.00 258.70 553.10 261.81 562.75 C 264.91 572.40 265.93 582.09 269.20 591.75 C 272.47 601.41 273.49 610.87 276.69 620.30 C 279.89 629.74 281.00 640.44 284.80 649.75 C 288.60 659.07 285.73 672.63 296.70 679.29 C 307.66 685.95 326.12 680.41 342.00 682.00 C 357.88 683.59 376.82 680.49 394.00 682.00 C 411.18 683.51 427.62 679.56 446.00 682.00 C 464.38 684.44 467.40 669.03 464.00 652.00
C 466.36 651.71 467.97 650.81 470.00 652.00
C 472.58 646.11 471.05 637.60 472.61 631.75 C 474.16 625.90 470.87 615.20 478.00 615.00
C 481.91 603.03 480.40 591.60 483.00 580.00
C 493.75 588.67 501.41 559.39 490.00 558.00 C 478.59 556.61 461.54 558.62 449.00 558.00 C 436.46 557.38 422.07 558.23 409.00 558.00 C 395.93 557.77 381.29 558.02 368.00 558.00 C 354.71 557.98 340.25 557.83 327.00 558.00 C 313.75 558.17 300.75 557.05 288.00 559.00 Z"/>
</g>
<g fill="None" fill-opacity="0.0" stroke="#000000" stroke-opacity="0.99" stroke-width="0.3"><path d="
M 765.00 686.00 
C 782.22 662.42 813.33 647.33 818.60 619.75 C 823.87 592.17 794.37 563.17 766.70 570.69 C 739.02 578.21 725.23 608.25 702.00 627.00
C 724.55 644.52 742.82 669.26 765.00 686.00 Z"/>
</g>
<g fill="None" fill-opacity="0.0" stroke="#000000" stroke-opacity="0.99" stroke-width="0.3"><path d="
M 686.00 643.00 
C 674.81 648.83 666.69 661.35 657.25 670.25 C 647.80 679.14 639.24 689.09 629.75 697.75 C 620.27 706.41 610.98 715.34 601.92 724.92 C 592.86 734.50 584.86 744.00 574.75 752.75 C 564.64 761.50 555.99 771.28 546.75 780.75 C 537.52 790.23 533.11 801.70 534.20 814.75 C 535.29 827.81 541.46 834.66 550.70 843.30 C 559.95 851.93 573.21 854.60 584.25 853.26 C 595.29 851.93 605.70 846.72 614.23 837.23 C 622.76 827.74 632.05 818.34 641.75 809.75 C 651.45 801.16 659.94 791.18 669.25 782.25 C 678.56 773.32 687.75 763.55 697.25 755.25 C 706.75 746.94 716.17 735.16 724.75 726.75 C 733.33 718.34 751.23 708.55 740.25 698.75 C 729.26 688.95 722.78 680.42 713.25 670.75 C 703.72 661.09 694.48 653.42 686.00 643.00 Z"/>
</g>
<g fill="None" fill-opacity="0.0" stroke="#000000" stroke-opacity="0.99" stroke-width="0.3"><path d="
M 872.00 742.00 
C 882.81 737.24 891.06 739.62 901.92 733.92 C 912.78 728.23 914.75 713.45 906.75 705.25 C 898.75 697.05 887.46 698.63 877.08 694.93 C 866.70 691.24 871.35 675.31 865.30 666.70 C 859.25 658.09 843.48 652.20 835.25 661.25 C 827.03 670.30 827.54 682.82 824.00 694.00
C 815.37 695.66 805.35 697.14 796.23 700.23 C 787.11 703.32 780.46 716.90 785.87 725.08 C 791.28 733.26 798.23 737.36 808.92 738.07 C 819.61 738.77 826.07 742.58 826.23 753.77 C 826.39 764.96 831.60 772.34 839.75 778.20 C 847.91 784.06 863.66 776.72 866.61 767.75 C 869.56 758.78 870.68 750.92 872.00 742.00 Z"/>
</g>
<g fill="None" fill-opacity="0.0" stroke="#000000" stroke-opacity="0.98" stroke-width="0.3"><path d="
M 336.00 688.00 
C 320.41 689.29 309.53 709.40 319.92 724.08 C 330.30 738.77 355.12 732.33 358.69 716.70 C 362.26 701.07 350.11 686.84 336.00 688.00 Z"/>
</g>
<g fill="None" fill-opacity="0.0" stroke="#000000" stroke-opacity="0.98" stroke-width="0.3"><path d="
M 423.00 688.00 
C 405.52 686.87 393.48 704.62 399.29 719.70 C 405.10 734.77 427.79 737.00 437.90 723.90 C 448.01 710.80 438.76 689.02 423.00 688.00 Z"/>
</g>
<g fill="#000000" fill-opacity="0.00" stroke="None">
<path d="
M 0.00 1024.00 
L 1024.00 1024.00
L 1024.00 0.00
L 0.00 0.00
L 0.00 1024.00
M 494.00 243.00 
C 412.76 242.33 330.80 244.33 250.00 242.00
C 249.19 226.81 250.41 206.25 254.26 194.25 C 258.12 182.25 269.36 174.62 279.25 169.20 C 289.14 163.78 310.84 169.02 313.65 154.31 C 316.45 139.59 313.53 125.98 321.13 115.08 C 328.73 104.18 340.72 91.83 352.25 88.24 C 363.78 84.66 377.22 84.85 389.68 88.32 C 402.14 91.80 415.45 103.08 422.11 113.89 C 428.76 124.71 429.55 136.23 430.33 151.67 C 431.11 167.11 445.26 163.56 457.25 166.80 C 469.24 170.04 484.85 179.77 489.71 192.30 C 494.57 204.84 494.66 226.48 494.00 243.00
M 242.00 187.00 
C 240.35 194.77 240.35 204.26 242.00 212.00
C 226.89 211.09 224.71 239.19 241.00 238.00
C 245.33 256.05 264.10 248.12 282.00 249.00 C 299.90 249.88 323.25 248.76 342.00 249.00 C 360.75 249.24 383.23 249.25 402.00 249.00 C 420.77 248.75 444.04 249.89 462.00 249.00 C 479.96 248.11 499.67 255.83 505.00 238.00
C 518.69 238.66 518.30 212.14 505.00 213.00
C 502.24 204.86 505.71 195.15 503.00 187.00
C 533.57 186.98 558.95 185.68 579.75 207.25 C 600.54 228.82 605.65 242.75 605.00 276.00 C 604.35 309.25 605.39 351.85 605.00 387.00 C 604.61 422.15 605.40 463.34 605.00 499.00 C 604.60 534.66 607.01 569.65 606.00 605.00 C 604.99 640.36 605.35 676.76 606.00 713.00
C 590.99 727.43 575.04 742.23 560.75 757.75 C 546.47 773.27 525.93 785.31 529.00 806.00
C 499.42 805.92 468.44 806.10 439.00 806.00 C 409.56 805.90 376.82 806.20 348.00 806.00 C 319.18 805.80 285.26 806.42 258.00 806.00 C 230.74 805.58 205.94 808.32 186.25 800.61 C 166.55 792.89 152.51 777.05 143.68 756.32 C 134.84 735.60 139.52 716.80 139.00 689.00 C 138.48 661.20 139.20 626.92 139.00 598.00 C 138.80 569.08 139.00 537.23 139.00 508.00 C 139.00 478.77 138.80 445.92 139.00 417.00 C 139.20 388.08 138.46 353.65 139.00 326.00 C 139.54 298.35 136.95 268.61 140.59 246.25 C 144.24 223.90 158.27 210.28 175.68 197.68 C 193.09 185.08 217.05 186.78 242.00 187.00
M 645.00 563.00 
C 632.11 560.86 623.24 561.85 613.75 553.25 C 604.27 544.65 610.86 524.73 623.25 523.20 C 635.64 521.67 648.10 519.91 648.65 507.31 C 649.19 494.70 654.93 484.05 666.75 482.40 C 678.57 480.74 689.60 493.09 689.77 505.23 C 689.95 517.37 698.10 521.63 710.25 521.80 C 722.39 521.97 734.97 535.53 729.24 547.25 C 723.51 558.96 716.24 559.97 702.92 561.93 C 689.59 563.89 690.95 576.33 687.61 588.75 C 684.26 601.17 664.29 606.80 656.08 595.92 C 647.88 585.03 650.51 575.71 645.00 563.00
M 850.00 482.00 
C 863.39 479.68 870.39 492.83 871.20 505.25 C 872.00 517.67 884.46 517.33 895.75 519.39 C 907.05 521.46 912.96 538.38 902.92 546.92 C 892.88 555.46 878.06 550.06 872.87 557.92 C 867.68 565.77 871.48 585.70 857.75 587.76 C 844.03 589.81 836.85 580.74 836.07 567.92 C 835.29 555.09 827.06 552.39 813.25 551.61 C 799.44 550.82 794.78 531.96 803.30 523.30 C 811.82 514.65 827.67 521.79 833.19 511.75 C 838.71 501.71 835.27 484.55 850.00 482.00
M 765.00 686.00 
C 742.82 669.26 724.55 644.52 702.00 627.00
C 725.23 608.25 739.02 578.21 766.70 570.69 C 794.37 563.17 823.87 592.17 818.60 619.75 C 813.33 647.33 782.22 662.42 765.00 686.00
M 686.00 643.00 
C 694.48 653.42 703.72 661.09 713.25 670.75 C 722.78 680.42 729.26 688.95 740.25 698.75 C 751.23 708.55 733.33 718.34 724.75 726.75 C 716.17 735.16 706.75 746.94 697.25 755.25 C 687.75 763.55 678.56 773.32 669.25 782.25 C 659.94 791.18 651.45 801.16 641.75 809.75 C 632.05 818.34 622.76 827.74 614.23 837.23 C 605.70 846.72 595.29 851.93 584.25 853.26 C 573.21 854.60 559.95 851.93 550.70 843.30 C 541.46 834.66 535.29 827.81 534.20 814.75 C 533.11 801.70 537.52 790.23 546.75 780.75 C 555.99 771.28 564.64 761.50 574.75 752.75 C 584.86 744.00 592.86 734.50 601.92 724.92 C 610.98 715.34 620.27 706.41 629.75 697.75 C 639.24 689.09 647.80 679.14 657.25 670.25 C 666.69 661.35 674.81 648.83 686.00 643.00
M 872.00 742.00 
C 870.68 750.92 869.56 758.78 866.61 767.75 C 863.66 776.72 847.91 784.06 839.75 778.20 C 831.60 772.34 826.39 764.96 826.23 753.77 C 826.07 742.58 819.61 738.77 808.92 738.07 C 798.23 737.36 791.28 733.26 785.87 725.08 C 780.46 716.90 787.11 703.32 796.23 700.23 C 805.35 697.14 815.37 695.66 824.00 694.00
C 827.54 682.82 827.03 670.30 835.25 661.25 C 843.48 652.20 859.25 658.09 865.30 666.70 C 871.35 675.31 866.70 691.24 877.08 694.93 C 887.46 698.63 898.75 697.05 906.75 705.25 C 914.75 713.45 912.78 728.23 901.92 733.92 C 891.06 739.62 882.81 737.24 872.00 742.00 Z"/>
</g>
<g fill="#000000" fill-opacity="0.99" stroke="None">
<path d="
M 494.00 243.00 
C 494.66 226.48 494.57 204.84 489.71 192.30 C 484.85 179.77 469.24 170.04 457.25 166.80 C 445.26 163.56 431.11 167.11 430.33 151.67 C 429.55 136.23 428.76 124.71 422.11 113.89 C 415.45 103.08 402.14 91.80 389.68 88.32 C 377.22 84.85 363.78 84.66 352.25 88.24 C 340.72 91.83 328.73 104.18 321.13 115.08 C 313.53 125.98 316.45 139.59 313.65 154.31 C 310.84 169.02 289.14 163.78 279.25 169.20 C 269.36 174.62 258.12 182.25 254.26 194.25 C 250.41 206.25 249.19 226.81 250.00 242.00
C 330.80 244.33 412.76 242.33 494.00 243.00 Z"/>
</g>
<g fill="#000000" fill-opacity="0.98" stroke="None">
<path d="
M 242.00 187.00 
C 217.05 186.78 193.09 185.08 175.68 197.68 C 158.27 210.28 144.24 223.90 140.59 246.25 C 136.95 268.61 139.54 298.35 139.00 326.00 C 138.46 353.65 139.20 388.08 139.00 417.00 C 138.80 445.92 139.00 478.77 139.00 508.00 C 139.00 537.23 138.80 569.08 139.00 598.00 C 139.20 626.92 138.48 661.20 139.00 689.00 C 139.52 716.80 134.84 735.60 143.68 756.32 C 152.51 777.05 166.55 792.89 186.25 800.61 C 205.94 808.32 230.74 805.58 258.00 806.00 C 285.26 806.42 319.18 805.80 348.00 806.00 C 376.82 806.20 409.56 805.90 439.00 806.00 C 468.44 806.10 499.42 805.92 529.00 806.00
C 525.93 785.31 546.47 773.27 560.75 757.75 C 575.04 742.23 590.99 727.43 606.00 713.00
C 605.35 676.76 604.99 640.36 606.00 605.00 C 607.01 569.65 604.60 534.66 605.00 499.00 C 605.40 463.34 604.61 422.15 605.00 387.00 C 605.39 351.85 604.35 309.25 605.00 276.00 C 605.65 242.75 600.54 228.82 579.75 207.25 C 558.95 185.68 533.57 186.98 503.00 187.00
C 505.71 195.15 502.24 204.86 505.00 213.00
C 518.30 212.14 518.69 238.66 505.00 238.00
C 499.67 255.83 479.96 248.11 462.00 249.00 C 444.04 249.89 420.77 248.75 402.00 249.00 C 383.23 249.25 360.75 249.24 342.00 249.00 C 323.25 248.76 299.90 249.88 282.00 249.00 C 264.10 248.12 245.33 256.05 241.00 238.00
C 224.71 239.19 226.89 211.09 242.00 212.00
C 240.35 204.26 240.35 194.77 242.00 187.00
M 569.00 304.00 
C 566.98 334.90 568.25 366.66 568.00 398.00 C 567.75 429.34 568.10 462.83 568.00 494.00 C 567.90 525.17 568.01 559.55 568.00 590.00 C 567.99 620.45 567.93 657.30 568.00 686.00 C 568.07 714.70 574.78 745.17 550.11 759.11 C 525.43 773.05 499.40 764.43 469.00 766.00 C 438.60 767.57 403.63 765.97 373.00 766.00 C 342.37 766.03 306.93 767.49 277.00 766.00 C 247.07 764.51 218.36 772.82 193.77 759.23 C 169.18 745.64 176.72 716.73 176.00 688.00 C 175.28 659.27 176.33 622.51 176.00 592.00 C 175.67 561.49 176.15 527.31 176.00 496.00 C 175.85 464.69 176.08 431.64 176.00 400.00 C 175.92 368.36 176.06 335.73 176.00 304.00
C 307.00 304.00 438.00 304.00 569.00 304.00 Z"/>
</g>
<g fill="#000000" fill-opacity="0.01" stroke="None">
<path d="
M 569.00 304.00 
C 438.00 304.00 307.00 304.00 176.00 304.00
C 176.06 335.73 175.92 368.36 176.00 400.00 C 176.08 431.64 175.85 464.69 176.00 496.00 C 176.15 527.31 175.67 561.49 176.00 592.00 C 176.33 622.51 175.28 659.27 176.00 688.00 C 176.72 716.73 169.18 745.64 193.77 759.23 C 218.36 772.82 247.07 764.51 277.00 766.00 C 306.93 767.49 342.37 766.03 373.00 766.00 C 403.63 765.97 438.60 767.57 469.00 766.00 C 499.40 764.43 525.43 773.05 550.11 759.11 C 574.78 745.17 568.07 714.70 568.00 686.00 C 567.93 657.30 567.99 620.45 568.00 590.00 C 568.01 559.55 567.90 525.17 568.00 494.00 C 568.10 462.83 567.75 429.34 568.00 398.00 C 568.25 366.66 566.98 334.90 569.00 304.00
M 494.00 402.00 
C 492.83 410.07 494.76 420.66 494.00 430.00
C 413.92 428.33 332.05 428.33 252.00 430.00
C 251.70 419.79 248.03 406.87 255.00 399.00
C 274.16 399.18 294.03 398.80 314.00 399.00 C 333.97 399.20 356.02 398.66 376.00 399.00 C 395.98 399.34 417.38 398.27 437.00 399.00 C 456.62 399.73 477.47 396.07 494.00 402.00
M 494.00 445.00 
C 493.66 454.25 494.24 465.08 494.00 475.00
C 413.92 473.33 332.05 473.33 252.00 475.00
C 252.00 465.00 252.00 455.00 252.00 445.00
C 331.94 446.68 414.77 446.65 494.00 445.00
M 288.00 559.00 
C 300.75 557.05 313.75 558.17 327.00 558.00 C 340.25 557.83 354.71 557.98 368.00 558.00 C 381.29 558.02 395.93 557.77 409.00 558.00 C 422.07 558.23 436.46 557.38 449.00 558.00 C 461.54 558.62 478.59 556.61 490.00 558.00 C 501.41 559.39 493.75 588.67 483.00 580.00
C 480.40 591.60 481.91 603.03 478.00 615.00
C 470.87 615.20 474.16 625.90 472.61 631.75 C 471.05 637.60 472.58 646.11 470.00 652.00
C 467.97 650.81 466.36 651.71 464.00 652.00
C 467.40 669.03 464.38 684.44 446.00 682.00 C 427.62 679.56 411.18 683.51 394.00 682.00 C 376.82 680.49 357.88 683.59 342.00 682.00 C 326.12 680.41 307.66 685.95 296.70 679.29 C 285.73 672.63 288.60 659.07 284.80 649.75 C 281.00 640.44 279.89 629.74 276.69 620.30 C 273.49 610.87 272.47 601.41 269.20 591.75 C 265.93 582.09 264.91 572.40 261.81 562.75 C 258.70 553.10 256.87 542.00 246.32 536.68 C 235.77 531.37 218.93 533.57 205.00 533.00
C 206.65 524.90 206.65 515.07 205.00 507.00
C 215.54 507.66 233.36 505.97 244.00 507.00 C 254.64 508.03 261.06 512.56 268.30 515.71 C 275.53 518.86 275.57 531.00 279.58 536.77 C 283.58 542.54 284.04 552.98 288.00 559.00
M 336.00 688.00 
C 350.11 686.84 362.26 701.07 358.69 716.70 C 355.12 732.33 330.30 738.77 319.92 724.08 C 309.53 709.40 320.41 689.29 336.00 688.00
M 423.00 688.00 
C 438.76 689.02 448.01 710.80 437.90 723.90 C 427.79 737.00 405.10 734.77 399.29 719.70 C 393.48 704.62 405.52 686.87 423.00 688.00 Z"/>
</g>
<g fill="#000000" fill-opacity="0.99" stroke="None">
<path d="
M 494.00 402.00 
C 477.47 396.07 456.62 399.73 437.00 399.00 C 417.38 398.27 395.98 399.34 376.00 399.00 C 356.02 398.66 333.97 399.20 314.00 399.00 C 294.03 398.80 274.16 399.18 255.00 399.00
C 248.03 406.87 251.70 419.79 252.00 430.00
C 332.05 428.33 413.92 428.33 494.00 430.00
C 494.76 420.66 492.83 410.07 494.00 402.00 Z"/>
</g>
<g fill="#000000" fill-opacity="1.00" stroke="None">
<path d="
M 494.00 445.00 
C 414.77 446.65 331.94 446.68 252.00 445.00
C 252.00 455.00 252.00 465.00 252.00 475.00
C 332.05 473.33 413.92 473.33 494.00 475.00
C 494.24 465.08 493.66 454.25 494.00 445.00 Z"/>
</g>
<g fill="#000000" fill-opacity="0.99" stroke="None">
<path d="
M 645.00 563.00 
C 650.51 575.71 647.88 585.03 656.08 595.92 C 664.29 606.80 684.26 601.17 687.61 588.75 C 690.95 576.33 689.59 563.89 702.92 561.93 C 716.24 559.97 723.51 558.96 729.24 547.25 C 734.97 535.53 722.39 521.97 710.25 521.80 C 698.10 521.63 689.95 517.37 689.77 505.23 C 689.60 493.09 678.57 480.74 666.75 482.40 C 654.93 484.05 649.19 494.70 648.65 507.31 C 648.10 519.91 635.64 521.67 623.25 523.20 C 610.86 524.73 604.27 544.65 613.75 553.25 C 623.24 561.85 632.11 560.86 645.00 563.00 Z"/>
</g>
<g fill="#000000" fill-opacity="0.98" stroke="None">
<path d="
M 850.00 482.00 
C 835.27 484.55 838.71 501.71 833.19 511.75 C 827.67 521.79 811.82 514.65 803.30 523.30 C 794.78 531.96 799.44 550.82 813.25 551.61 C 827.06 552.39 835.29 555.09 836.07 567.92 C 836.85 580.74 844.03 589.81 857.75 587.76 C 871.48 585.70 867.68 565.77 872.87 557.92 C 878.06 550.06 892.88 555.46 902.92 546.92 C 912.96 538.38 907.05 521.46 895.75 519.39 C 884.46 517.33 872.00 517.67 871.20 505.25 C 870.39 492.83 863.39 479.68 850.00 482.00 Z"/>
</g>
<g fill="#000000" fill-opacity="0.99" stroke="None">
<path d="
M 288.00 559.00 
C 284.04 552.98 283.58 542.54 279.58 536.77 C 275.57 531.00 275.53 518.86 268.30 515.71 C 261.06 512.56 254.64 508.03 244.00 507.00 C 233.36 505.97 215.54 507.66 205.00 507.00
C 206.65 515.07 206.65 524.90 205.00 533.00
C 218.93 533.57 235.77 531.37 246.32 536.68 C 256.87 542.00 258.70 553.10 261.81 562.75 C 264.91 572.40 265.93 582.09 269.20 591.75 C 272.47 601.41 273.49 610.87 276.69 620.30 C 279.89 629.74 281.00 640.44 284.80 649.75 C 288.60 659.07 285.73 672.63 296.70 679.29 C 307.66 685.95 326.12 680.41 342.00 682.00 C 357.88 683.59 376.82 680.49 394.00 682.00 C 411.18 683.51 427.62 679.56 446.00 682.00 C 464.38 684.44 467.40 669.03 464.00 652.00
C 466.36 651.71 467.97 650.81 470.00 652.00
C 472.58 646.11 471.05 637.60 472.61 631.75 C 474.16 625.90 470.87 615.20 478.00 615.00
C 481.91 603.03 480.40 591.60 483.00 580.00
C 493.75 588.67 501.41 559.39 490.00 558.00 C 478.59 556.61 461.54 558.62 449.00 558.00 C 436.46 557.38 422.07 558.23 409.00 558.00 C 395.93 557.77 381.29 558.02 368.00 558.00 C 354.71 557.98 340.25 557.83 327.00 558.00 C 313.75 558.17 300.75 557.05 288.00 559.00 Z"/>
</g>
<g fill="#000000" fill-opacity="0.99" stroke="None">
<path d="
M 765.00 686.00 
C 782.22 662.42 813.33 647.33 818.60 619.75 C 823.87 592.17 794.37 563.17 766.70 570.69 C 739.02 578.21 725.23 608.25 702.00 627.00
C 724.55 644.52 742.82 669.26 765.00 686.00 Z"/>
</g>
<g fill="#000000" fill-opacity="0.99" stroke="None">
<path d="
M 686.00 643.00 
C 674.81 648.83 666.69 661.35 657.25 670.25 C 647.80 679.14 639.24 689.09 629.75 697.75 C 620.27 706.41 610.98 715.34 601.92 724.92 C 592.86 734.50 584.86 744.00 574.75 752.75 C 564.64 761.50 555.99 771.28 546.75 780.75 C 537.52 790.23 533.11 801.70 534.20 814.75 C 535.29 827.81 541.46 834.66 550.70 843.30 C 559.95 851.93 573.21 854.60 584.25 853.26 C 595.29 851.93 605.70 846.72 614.23 837.23 C 622.76 827.74 632.05 818.34 641.75 809.75 C 651.45 801.16 659.94 791.18 669.25 782.25 C 678.56 773.32 687.75 763.55 697.25 755.25 C 706.75 746.94 716.17 735.16 724.75 726.75 C 733.33 718.34 751.23 708.55 740.25 698.75 C 729.26 688.95 722.78 680.42 713.25 670.75 C 703.72 661.09 694.48 653.42 686.00 643.00 Z"/>
</g>
<g fill="#000000" fill-opacity="0.99" stroke="None">
<path d="
M 872.00 742.00 
C 882.81 737.24 891.06 739.62 901.92 733.92 C 912.78 728.23 914.75 713.45 906.75 705.25 C 898.75 697.05 887.46 698.63 877.08 694.93 C 866.70 691.24 871.35 675.31 865.30 666.70 C 859.25 658.09 843.48 652.20 835.25 661.25 C 827.03 670.30 827.54 682.82 824.00 694.00
C 815.37 695.66 805.35 697.14 796.23 700.23 C 787.11 703.32 780.46 716.90 785.87 725.08 C 791.28 733.26 798.23 737.36 808.92 738.07 C 819.61 738.77 826.07 742.58 826.23 753.77 C 826.39 764.96 831.60 772.34 839.75 778.20 C 847.91 784.06 863.66 776.72 866.61 767.75 C 869.56 758.78 870.68 750.92 872.00 742.00 Z"/>
</g>
<g fill="#000000" fill-opacity="0.98" stroke="None">
<path d="
M 336.00 688.00 
C 320.41 689.29 309.53 709.40 319.92 724.08 C 330.30 738.77 355.12 732.33 358.69 716.70 C 362.26 701.07 350.11 686.84 336.00 688.00 Z"/>
</g>
<g fill="#000000" fill-opacity="0.98" stroke="None">
<path d="
M 423.00 688.00 
C 405.52 686.87 393.48 704.62 399.29 719.70 C 405.10 734.77 427.79 737.00 437.90 723.90 C 448.01 710.80 438.76 689.02 423.00 688.00 Z"/>
</g>
</svg>