<svg xmlns="http://www.w3.org/2000/svg" xmlns:v="https://svgstorm.com" viewBox="243.49 21.65 934.78 934.78" width="100%" height="100%">
<g fill="None" fill-opacity="0.0" stroke="#000000" stroke-opacity="0.00" stroke-width="0.3"><path d=" M 0.00 1024.00  L 1536.00 1024.00 L 1536.00 0.00 L 0.00 0.00 L 0.00 1024.00 M 654.00 121.00  C 673.56 121.06 694.59 120.92 714.00 121.00 C 733.41 121.08 725.17 145.67 727.00 161.00 C 750.34 162.60 783.66 158.87 806.00 161.00 C 828.34 163.13 862.46 150.72 864.00 177.00 C 865.54 203.28 863.34 230.61 864.00 257.00 C 864.66 283.39 863.79 309.57 864.00 336.00 C 864.21 362.43 864.09 389.59 864.00 416.00 C 863.91 442.41 864.90 469.07 863.00 495.00 C 909.23 491.44 944.08 502.18 975.75 533.25 C 1007.42 564.32 1017.30 602.72 1014.00 649.00 C 1003.33 649.00 992.67 649.00 982.00 649.00 C 984.82 633.99 984.66 613.36 980.69 598.30 C 976.73 583.25 971.87 570.17 960.22 556.78 C 948.58 543.39 932.79 534.67 918.77 529.23 C 904.76 523.79 885.04 522.41 869.26 523.40 C 853.47 524.39 842.01 528.77 827.75 532.80 C 813.49 536.83 801.71 550.61 786.97 559.97 C 772.23 569.34 755.70 544.46 742.25 539.61 C 728.80 534.75 717.76 525.75 701.77 524.23 C 685.78 522.70 665.26 521.33 649.26 525.60 C 633.25 529.86 622.24 533.06 608.70 543.70 C 595.17 554.35 584.01 568.57 579.61 582.75 C 575.20 596.94 570.23 618.34 573.20 635.25 C 576.17 652.15 578.53 663.17 583.80 678.25 C 589.07 693.33 596.82 708.20 605.30 723.70 C 613.78 739.21 625.53 754.73 636.70 768.30 C 647.88 781.87 661.12 795.96 675.08 806.92 C 689.05 817.87 701.72 825.51 718.75 832.59 C 735.77 839.68 751.12 830.07 767.08 826.07 C 783.03 822.07 796.80 831.99 811.75 835.39 C 826.71 838.80 844.83 830.36 857.00 827.00 C 858.69 836.80 865.67 845.51 869.00 857.00 C 861.20 858.25 854.19 864.16 845.75 865.76 C 837.32 867.36 824.08 869.72 814.00 869.00 C 803.92 868.28 795.89 864.72 788.25 861.61 C 780.60 858.49 768.54 856.52 760.25 861.39 C 751.96 866.26 745.27 868.77 734.92 868.93 C 724.56 869.10 715.14 866.98 706.25 864.61 C 697.35 862.23 690.72 857.23 680.77 853.23 C 670.82 849.23 665.22 839.66 654.70 834.30 C 644.17 828.94 625.99 834.46 612.00 833.00 C 598.01 831.54 579.89 833.65 565.00 833.00 C 550.11 832.35 533.28 833.26 518.00 833.00 C 502.72 832.74 486.40 833.06 471.00 833.00 C 455.60 832.94 439.35 832.89 424.00 833.00 C 408.65 833.11 392.08 832.64 377.00 833.00 C 361.92 833.36 344.42 832.16 330.00 833.00 C 315.58 833.84 304.49 832.71 305.00 817.00 C 305.50 801.28 304.78 786.64 305.00 771.00 C 305.22 755.36 304.90 739.65 305.00 724.00 C 305.10 708.35 304.95 692.66 305.00 677.00 C 305.05 661.34 304.98 645.66 305.00 630.00 C 305.02 614.34 304.99 598.66 305.00 583.00 C 305.01 567.34 304.99 551.64 305.00 536.00 C 305.01 520.36 304.98 504.62 305.00 489.00 C 305.02 473.38 304.96 457.56 305.00 442.00 C 305.04 426.44 304.91 411.53 305.00 396.00 C 305.09 380.47 304.80 364.52 305.00 349.00 C 305.20 333.48 304.56 317.42 305.00 302.00 C 305.44 286.58 304.02 270.16 305.00 255.00 C 305.98 239.84 302.84 222.55 305.00 208.00 C 307.16 193.45 299.72 178.30 305.39 167.25 C 311.06 156.19 333.16 162.05 346.00 161.00 C 358.84 159.95 378.81 161.55 393.00 161.00 C 407.19 160.45 425.44 161.41 440.00 161.00 C 441.37 145.74 433.95 120.30 454.00 121.00 C 474.06 121.71 494.88 120.47 515.00 121.00 C 518.46 87.36 552.57 64.14 585.00 65.00 C 617.43 65.86 650.30 88.44 654.00 121.00 M 88.00 276.00  C 87.98 280.04 86.14 281.13 85.00 285.00 C 89.67 282.10 87.23 291.01 84.00 292.00 C 85.14 288.37 87.30 285.66 82.00 286.00 C 87.29 282.82 82.09 277.34 88.00 276.00 M 88.00 476.00  C 87.26 478.32 87.06 481.48 85.00 483.00 C 88.61 483.55 87.46 486.89 84.00 487.00 C 84.31 484.12 84.61 481.08 86.00 478.00 C 81.05 479.84 83.49 475.88 85.00 473.00 C 86.36 474.32 84.08 478.56 88.00 476.00 M 982.00 661.00  C 1017.47 658.76 1047.91 670.09 1074.90 692.10 C 1101.89 714.11 1118.77 744.10 1120.40 778.74 C 1122.03 813.39 1113.92 843.44 1089.25 870.25 C 1064.57 897.06 1033.04 913.94 996.98 912.98 C 960.91 912.01 931.04 906.47 904.90 883.10 C 878.76 859.73 862.50 830.27 861.98 795.97 C 861.46 761.68 868.98 728.18 893.77 703.77 C 918.56 679.36 947.45 663.18 982.00 661.00 Z"/>
</g>
<g fill="None" fill-opacity="0.0" stroke="#000000" stroke-opacity="0.96" stroke-width="0.3"><path d=" M 654.00 121.00  C 650.30 88.44 617.43 65.86 585.00 65.00 C 552.57 64.14 518.46 87.36 515.00 121.00 C 494.88 120.47 474.06 121.71 454.00 121.00 C 433.95 120.30 441.37 145.74 440.00 161.00 C 425.44 161.41 407.19 160.45 393.00 161.00 C 378.81 161.55 358.84 159.95 346.00 161.00 C 333.16 162.05 311.06 156.19 305.39 167.25 C 299.72 178.30 307.16 193.45 305.00 208.00 C 302.84 222.55 305.98 239.84 305.00 255.00 C 304.02 270.16 305.44 286.58 305.00 302.00 C 304.56 317.42 305.20 333.48 305.00 349.00 C 304.80 364.52 305.09 380.47 305.00 396.00 C 304.91 411.53 305.04 426.44 305.00 442.00 C 304.96 457.56 305.02 473.38 305.00 489.00 C 304.98 504.62 305.01 520.36 305.00 536.00 C 304.99 551.64 305.01 567.34 305.00 583.00 C 304.99 598.66 305.02 614.34 305.00 630.00 C 304.98 645.66 305.05 661.34 305.00 677.00 C 304.95 692.66 305.10 708.35 305.00 724.00 C 304.90 739.65 305.22 755.36 305.00 771.00 C 304.78 786.64 305.50 801.28 305.00 817.00 C 304.49 832.71 315.58 833.84 330.00 833.00 C 344.42 832.16 361.92 833.36 377.00 833.00 C 392.08 832.64 408.65 833.11 424.00 833.00 C 439.35 832.89 455.60 832.94 471.00 833.00 C 486.40 833.06 502.72 832.74 518.00 833.00 C 533.28 833.26 550.11 832.35 565.00 833.00 C 579.89 833.65 598.01 831.54 612.00 833.00 C 625.99 834.46 644.17 828.94 654.70 834.30 C 665.22 839.66 670.82 849.23 680.77 853.23 C 690.72 857.23 697.35 862.23 706.25 864.61 C 715.14 866.98 724.56 869.10 734.92 868.93 C 745.27 868.77 751.96 866.26 760.25 861.39 C 768.54 856.52 780.60 858.49 788.25 861.61 C 795.89 864.72 803.92 868.28 814.00 869.00 C 824.08 869.72 837.32 867.36 845.75 865.76 C 854.19 864.16 861.20 858.25 869.00 857.00 C 865.67 845.51 858.69 836.80 857.00 827.00 C 844.83 830.36 826.71 838.80 811.75 835.39 C 796.80 831.99 783.03 822.07 767.08 826.07 C 751.12 830.07 735.77 839.68 718.75 832.59 C 701.72 825.51 689.05 817.87 675.08 806.92 C 661.12 795.96 647.88 781.87 636.70 768.30 C 625.53 754.73 613.78 739.21 605.30 723.70 C 596.82 708.20 589.07 693.33 583.80 678.25 C 578.53 663.17 576.17 652.15 573.20 635.25 C 570.23 618.34 575.20 596.94 579.61 582.75 C 584.01 568.57 595.17 554.35 608.70 543.70 C 622.24 533.06 633.25 529.86 649.26 525.60 C 665.26 521.33 685.78 522.70 701.77 524.23 C 717.76 525.75 728.80 534.75 742.25 539.61 C 755.70 544.46 772.23 569.34 786.97 559.97 C 801.71 550.61 813.49 536.83 827.75 532.80 C 842.01 528.77 853.47 524.39 869.26 523.40 C 885.04 522.41 904.76 523.79 918.77 529.23 C 932.79 534.67 948.58 543.39 960.22 556.78 C 971.87 570.17 976.73 583.25 980.69 598.30 C 984.66 613.36 984.82 633.99 982.00 649.00 C 992.67 649.00 1003.33 649.00 1014.00 649.00 C 1017.30 602.72 1007.42 564.32 975.75 533.25 C 944.08 502.18 909.23 491.44 863.00 495.00 C 864.90 469.07 863.91 442.41 864.00 416.00 C 864.09 389.59 864.21 362.43 864.00 336.00 C 863.79 309.57 864.66 283.39 864.00 257.00 C 863.34 230.61 865.54 203.28 864.00 177.00 C 862.46 150.72 828.34 163.13 806.00 161.00 C 783.66 158.87 750.34 162.60 727.00 161.00 C 725.17 145.67 733.41 121.08 714.00 121.00 C 694.59 120.92 673.56 121.06 654.00 121.00 M 696.00 151.00  C 696.00 173.00 696.00 195.00 696.00 217.00 C 621.67 217.00 547.33 217.00 473.00 217.00 C 472.75 194.98 473.75 172.65 472.00 151.00 C 492.06 148.77 515.87 153.62 535.22 151.78 C 554.57 149.93 544.06 125.03 550.13 113.08 C 556.20 101.13 570.57 93.20 585.67 94.33 C 600.77 95.46 611.36 102.14 618.71 113.30 C 626.07 124.47 612.40 149.87 631.75 151.59 C 651.09 153.32 675.96 149.06 696.00 151.00 M 441.00 193.00  C 438.04 205.68 441.56 219.97 440.00 233.00 C 438.44 246.03 446.58 250.43 457.01 250.01 C 467.44 249.58 475.54 250.63 487.03 250.02 C 498.51 249.42 505.63 251.33 517.74 250.60 C 529.86 249.86 539.56 250.78 550.68 250.34 C 561.80 249.90 573.21 250.46 583.22 250.22 C 593.24 249.98 604.97 250.79 614.75 250.40 C 624.53 250.00 631.76 251.37 642.22 250.78 C 652.68 250.19 664.25 250.43 673.89 251.11 C 683.54 251.79 696.67 248.43 709.00 250.00 C 721.33 251.57 728.61 245.17 727.00 232.00 C 725.39 218.83 728.36 204.71 727.00 192.00 C 743.67 193.70 763.07 193.18 780.00 193.00 C 796.93 192.82 815.78 194.20 830.00 192.00 C 830.00 295.67 830.00 399.33 830.00 503.00 C 817.83 506.17 810.01 512.16 799.00 519.00 C 799.83 499.72 797.89 478.05 799.00 459.00 C 800.11 439.95 796.88 417.17 799.00 399.00 C 801.12 380.83 782.99 378.61 770.70 384.71 C 758.41 390.81 769.22 421.95 764.00 433.00 C 738.13 392.77 676.50 388.18 638.00 413.00 C 648.53 464.79 708.82 509.36 765.00 494.00 C 764.64 503.18 765.26 512.08 766.00 521.00 C 718.82 490.86 658.97 483.76 605.90 509.91 C 552.83 536.05 528.65 603.94 543.20 657.25 C 557.75 710.55 578.06 751.86 616.00 796.00 C 523.00 796.00 430.00 796.00 337.00 796.00 C 336.86 593.75 337.23 387.72 337.00 192.00 C 371.17 194.33 406.42 192.34 441.00 193.00 M 757.00 468.00  C 723.90 473.18 691.74 454.62 679.00 427.00 C 713.03 424.78 740.70 440.26 757.00 468.00 Z"/>
</g>
<g fill="None" fill-opacity="0.0" stroke="#000000" stroke-opacity="0.00" stroke-width="0.3"><path d=" M 696.00 151.00  C 675.96 149.06 651.09 153.32 631.75 151.59 C 612.40 149.87 626.07 124.47 618.71 113.30 C 611.36 102.14 600.77 95.46 585.67 94.33 C 570.57 93.20 556.20 101.13 550.13 113.08 C 544.06 125.03 554.57 149.93 535.22 151.78 C 515.87 153.62 492.06 148.77 472.00 151.00 C 473.75 172.65 472.75 194.98 473.00 217.00 C 547.33 217.00 621.67 217.00 696.00 217.00 C 696.00 195.00 696.00 173.00 696.00 151.00 Z"/>
</g>
<g fill="None" fill-opacity="0.0" stroke="#000000" stroke-opacity="0.00" stroke-width="0.3"><path d=" M 441.00 193.00  C 406.42 192.34 371.17 194.33 337.00 192.00 C 337.23 387.72 336.86 593.75 337.00 796.00 C 430.00 796.00 523.00 796.00 616.00 796.00 C 578.06 751.86 557.75 710.55 543.20 657.25 C 528.65 603.94 552.83 536.05 605.90 509.91 C 658.97 483.76 718.82 490.86 766.00 521.00 C 765.26 512.08 764.64 503.18 765.00 494.00 C 708.82 509.36 648.53 464.79 638.00 413.00 C 676.50 388.18 738.13 392.77 764.00 433.00 C 769.22 421.95 758.41 390.81 770.70 384.71 C 782.99 378.61 801.12 380.83 799.00 399.00 C 796.88 417.17 800.11 439.95 799.00 459.00 C 797.89 478.05 799.83 499.72 799.00 519.00 C 810.01 512.16 817.83 506.17 830.00 503.00 C 830.00 399.33 830.00 295.67 830.00 192.00 C 815.78 194.20 796.93 192.82 780.00 193.00 C 763.07 193.18 743.67 193.70 727.00 192.00 C 728.36 204.71 725.39 218.83 727.00 232.00 C 728.61 245.17 721.33 251.57 709.00 250.00 C 696.67 248.43 683.54 251.79 673.89 251.11 C 664.25 250.43 652.68 250.19 642.22 250.78 C 631.76 251.37 624.53 250.00 614.75 250.40 C 604.97 250.79 593.24 249.98 583.22 250.22 C 573.21 250.46 561.80 249.90 550.68 250.34 C 539.56 250.78 529.86 249.86 517.74 250.60 C 505.63 251.33 498.51 249.42 487.03 250.02 C 475.54 250.63 467.44 249.58 457.01 250.01 C 446.58 250.43 438.44 246.03 440.00 233.00 C 441.56 219.97 438.04 205.68 441.00 193.00 M 408.00 323.00  C 422.67 319.15 441.52 324.71 458.00 323.00 C 474.48 321.29 493.12 323.75 510.00 323.00 C 526.88 322.25 545.02 323.29 562.00 323.00 C 578.98 322.71 597.15 323.03 614.00 323.00 C 630.85 322.97 649.60 322.78 666.00 323.00 C 682.40 323.22 702.68 322.38 718.00 323.00 C 733.32 323.62 754.39 320.69 766.08 324.92 C 777.78 329.15 777.57 348.92 765.90 351.90 C 754.23 354.88 732.11 352.39 717.00 353.00 C 701.89 353.61 681.30 352.75 665.00 353.00 C 648.70 353.25 629.79 352.95 613.00 353.00 C 596.21 353.05 577.93 353.11 561.00 353.00 C 544.07 352.89 525.80 353.34 509.00 353.00 C 492.20 352.66 473.31 353.79 457.00 353.00 C 440.69 352.21 422.25 355.17 407.75 352.20 C 393.26 349.23 398.53 325.48 408.00 323.00 M 410.00 429.00  C 420.89 427.00 435.28 431.62 448.00 430.00 C 460.72 428.38 475.97 430.93 489.00 430.00 C 502.03 429.07 518.20 430.90 531.00 430.00 C 543.80 429.10 560.17 431.48 572.00 430.00 C 583.83 428.52 592.62 431.66 594.80 440.25 C 596.97 448.84 594.37 457.50 585.23 459.58 C 576.09 461.65 559.93 459.30 548.00 460.00 C 536.07 460.70 519.80 459.57 507.00 460.00 C 494.20 460.43 477.94 459.54 465.00 460.00 C 452.06 460.46 436.46 459.20 424.00 460.00 C 411.54 460.80 404.36 459.50 400.20 450.75 C 396.04 442.00 402.91 430.30 410.00 429.00 M 410.00 535.00  C 423.07 531.87 444.64 535.77 459.00 535.00 C 473.36 534.23 491.83 532.81 501.92 537.13 C 512.01 541.45 512.38 563.21 499.75 564.19 C 487.12 565.17 466.32 565.92 452.00 565.00 C 437.68 564.08 416.64 568.21 405.10 562.90 C 393.56 557.59 398.72 537.71 410.00 535.00 Z"/>
</g>
<g fill="None" fill-opacity="0.0" stroke="#C3C3C3" stroke-opacity="0.00" stroke-width="0.3"><path d=" M 88.00 276.00  C 82.09 277.34 87.29 282.82 82.00 286.00 C 87.30 285.66 85.14 288.37 84.00 292.00 C 87.23 291.01 89.67 282.10 85.00 285.00 C 86.14 281.13 87.98 280.04 88.00 276.00 Z"/>
</g>
<g fill="None" fill-opacity="0.0" stroke="#000000" stroke-opacity="0.97" stroke-width="0.3"><path d=" M 408.00 323.00  C 398.53 325.48 393.26 349.23 407.75 352.20 C 422.25 355.17 440.69 352.21 457.00 353.00 C 473.31 353.79 492.20 352.66 509.00 353.00 C 525.80 353.34 544.07 352.89 561.00 353.00 C 577.93 353.11 596.21 353.05 613.00 353.00 C 629.79 352.95 648.70 353.25 665.00 353.00 C 681.30 352.75 701.89 353.61 717.00 353.00 C 732.11 352.39 754.23 354.88 765.90 351.90 C 777.57 348.92 777.78 329.15 766.08 324.92 C 754.39 320.69 733.32 323.62 718.00 323.00 C 702.68 322.38 682.40 323.22 666.00 323.00 C 649.60 322.78 630.85 322.97 614.00 323.00 C 597.15 323.03 578.98 322.71 562.00 323.00 C 545.02 323.29 526.88 322.25 510.00 323.00 C 493.12 323.75 474.48 321.29 458.00 323.00 C 441.52 324.71 422.67 319.15 408.00 323.00 Z"/>
</g>
<g fill="None" fill-opacity="0.0" stroke="#000000" stroke-opacity="0.02" stroke-width="0.3"><path d=" M 757.00 468.00  C 740.70 440.26 713.03 424.78 679.00 427.00 C 691.74 454.62 723.90 473.18 757.00 468.00 Z"/>
</g>
<g fill="None" fill-opacity="0.0" stroke="#000000" stroke-opacity="0.96" stroke-width="0.3"><path d=" M 410.00 429.00  C 402.91 430.30 396.04 442.00 400.20 450.75 C 404.36 459.50 411.54 460.80 424.00 460.00 C 436.46 459.20 452.06 460.46 465.00 460.00 C 477.94 459.54 494.20 460.43 507.00 460.00 C 519.80 459.57 536.07 460.70 548.00 460.00 C 559.93 459.30 576.09 461.65 585.23 459.58 C 594.37 457.50 596.97 448.84 594.80 440.25 C 592.62 431.66 583.83 428.52 572.00 430.00 C 560.17 431.48 543.80 429.10 531.00 430.00 C 518.20 430.90 502.03 429.07 489.00 430.00 C 475.97 430.93 460.72 428.38 448.00 430.00 C 435.28 431.62 420.89 427.00 410.00 429.00 Z"/>
</g>
<g fill="None" fill-opacity="0.0" stroke="#B0B0B0" stroke-opacity="0.00" stroke-width="0.3"><path d=" M 88.00 476.00  C 84.08 478.56 86.36 474.32 85.00 473.00 C 83.49 475.88 81.05 479.84 86.00 478.00 C 84.61 481.08 84.31 484.12 84.00 487.00 C 87.46 486.89 88.61 483.55 85.00 483.00 C 87.06 481.48 87.26 478.32 88.00 476.00 Z"/>
</g>
<g fill="None" fill-opacity="0.0" stroke="#000000" stroke-opacity="0.96" stroke-width="0.3"><path d=" M 410.00 535.00  C 398.72 537.71 393.56 557.59 405.10 562.90 C 416.64 568.21 437.68 564.08 452.00 565.00 C 466.32 565.92 487.12 565.17 499.75 564.19 C 512.38 563.21 512.01 541.45 501.92 537.13 C 491.83 532.81 473.36 534.23 459.00 535.00 C 444.64 535.77 423.07 531.87 410.00 535.00 Z"/>
</g>
<g fill="None" fill-opacity="0.0" stroke="#000000" stroke-opacity="0.96" stroke-width="0.3"><path d=" M 982.00 661.00  C 947.45 663.18 918.56 679.36 893.77 703.77 C 868.98 728.18 861.46 761.68 861.98 795.97 C 862.50 830.27 878.76 859.73 904.90 883.10 C 931.04 906.47 960.91 912.01 996.98 912.98 C 1033.04 913.94 1064.57 897.06 1089.25 870.25 C 1113.92 843.44 1122.03 813.39 1120.40 778.74 C 1118.77 744.10 1101.89 714.11 1074.90 692.10 C 1047.91 670.09 1017.47 658.76 982.00 661.00 M 983.00 685.00  C 1015.48 681.59 1042.30 693.69 1065.25 714.75 C 1088.19 735.82 1097.55 769.15 1094.20 799.25 C 1090.85 829.34 1071.44 858.67 1044.71 874.71 C 1017.97 890.74 982.42 891.12 955.30 881.69 C 928.18 872.26 905.40 849.59 895.61 822.25 C 885.81 794.91 887.02 758.17 905.11 732.11 C 923.19 706.04 952.31 688.22 983.00 685.00 Z"/>
</g>
<g fill="None" fill-opacity="0.0" stroke="#000000" stroke-opacity="0.01" stroke-width="0.3"><path d=" M 983.00 685.00  C 952.31 688.22 923.19 706.04 905.11 732.11 C 887.02 758.17 885.81 794.91 895.61 822.25 C 905.40 849.59 928.18 872.26 955.30 881.69 C 982.42 891.12 1017.97 890.74 1044.71 874.71 C 1071.44 858.67 1090.85 829.34 1094.20 799.25 C 1097.55 769.15 1088.19 735.82 1065.25 714.75 C 1042.30 693.69 1015.48 681.59 983.00 685.00 M 1000.00 709.00  C 1009.05 721.06 1004.01 738.25 1005.00 754.00 C 1005.99 769.75 1004.26 788.02 1005.00 804.00 C 1018.22 795.15 1033.92 774.89 1044.00 792.00 C 1039.79 808.66 1024.35 809.01 1014.30 821.30 C 1004.24 833.59 990.13 834.93 979.70 823.30 C 969.27 811.68 957.44 809.66 947.00 798.00 C 947.35 795.53 948.09 792.56 947.00 790.00 C 948.94 789.30 951.42 787.12 952.00 785.00 C 965.27 783.85 971.40 796.63 983.00 803.00 C 982.98 773.47 983.03 742.81 983.00 714.00 C 988.01 708.59 993.37 708.53 1000.00 709.00 M 1055.00 834.00  C 1060.46 839.26 1062.99 845.90 1056.00 852.00 C 1040.45 852.24 1022.15 851.61 1006.00 852.00 C 989.85 852.39 969.55 851.23 954.00 852.00 C 938.45 852.77 919.59 853.59 927.00 836.00 C 968.45 831.39 1013.36 835.30 1055.00 834.00 Z"/>
</g>
<g fill="None" fill-opacity="0.0" stroke="#000000" stroke-opacity="0.96" stroke-width="0.3"><path d=" M 1000.00 709.00  C 993.37 708.53 988.01 708.59 983.00 714.00 C 983.03 742.81 982.98 773.47 983.00 803.00 C 971.40 796.63 965.27 783.85 952.00 785.00 C 951.42 787.12 948.94 789.30 947.00 790.00 C 948.09 792.56 947.35 795.53 947.00 798.00 C 957.44 809.66 969.27 811.68 979.70 823.30 C 990.13 834.93 1004.24 833.59 1014.30 821.30 C 1024.35 809.01 1039.79 808.66 1044.00 792.00 C 1033.92 774.89 1018.22 795.15 1005.00 804.00 C 1004.26 788.02 1005.99 769.75 1005.00 754.00 C 1004.01 738.25 1009.05 721.06 1000.00 709.00 Z"/>
</g>
<g fill="None" fill-opacity="0.0" stroke="#000000" stroke-opacity="0.94" stroke-width="0.3"><path d=" M 1055.00 834.00  C 1013.36 835.30 968.45 831.39 927.00 836.00 C 919.59 853.59 938.45 852.77 954.00 852.00 C 969.55 851.23 989.85 852.39 1006.00 852.00 C 1022.15 851.61 1040.45 852.24 1056.00 852.00 C 1062.99 845.90 1060.46 839.26 1055.00 834.00 Z"/>
</g>
<g fill="#000000" fill-opacity="0.00" stroke="None">
<path d=" M 0.00 1024.00  L 1536.00 1024.00 L 1536.00 0.00 L 0.00 0.00 L 0.00 1024.00 M 654.00 121.00  C 673.56 121.06 694.59 120.92 714.00 121.00 C 733.41 121.08 725.17 145.67 727.00 161.00 C 750.34 162.60 783.66 158.87 806.00 161.00 C 828.34 163.13 862.46 150.72 864.00 177.00 C 865.54 203.28 863.34 230.61 864.00 257.00 C 864.66 283.39 863.79 309.57 864.00 336.00 C 864.21 362.43 864.09 389.59 864.00 416.00 C 863.91 442.41 864.90 469.07 863.00 495.00 C 909.23 491.44 944.08 502.18 975.75 533.25 C 1007.42 564.32 1017.30 602.72 1014.00 649.00 C 1003.33 649.00 992.67 649.00 982.00 649.00 C 984.82 633.99 984.66 613.36 980.69 598.30 C 976.73 583.25 971.87 570.17 960.22 556.78 C 948.58 543.39 932.79 534.67 918.77 529.23 C 904.76 523.79 885.04 522.41 869.26 523.40 C 853.47 524.39 842.01 528.77 827.75 532.80 C 813.49 536.83 801.71 550.61 786.97 559.97 C 772.23 569.34 755.70 544.46 742.25 539.61 C 728.80 534.75 717.76 525.75 701.77 524.23 C 685.78 522.70 665.26 521.33 649.26 525.60 C 633.25 529.86 622.24 533.06 608.70 543.70 C 595.17 554.35 584.01 568.57 579.61 582.75 C 575.20 596.94 570.23 618.34 573.20 635.25 C 576.17 652.15 578.53 663.17 583.80 678.25 C 589.07 693.33 596.82 708.20 605.30 723.70 C 613.78 739.21 625.53 754.73 636.70 768.30 C 647.88 781.87 661.12 795.96 675.08 806.92 C 689.05 817.87 701.72 825.51 718.75 832.59 C 735.77 839.68 751.12 830.07 767.08 826.07 C 783.03 822.07 796.80 831.99 811.75 835.39 C 826.71 838.80 844.83 830.36 857.00 827.00 C 858.69 836.80 865.67 845.51 869.00 857.00 C 861.20 858.25 854.19 864.16 845.75 865.76 C 837.32 867.36 824.08 869.72 814.00 869.00 C 803.92 868.28 795.89 864.72 788.25 861.61 C 780.60 858.49 768.54 856.52 760.25 861.39 C 751.96 866.26 745.27 868.77 734.92 868.93 C 724.56 869.10 715.14 866.98 706.25 864.61 C 697.35 862.23 690.72 857.23 680.77 853.23 C 670.82 849.23 665.22 839.66 654.70 834.30 C 644.17 828.94 625.99 834.46 612.00 833.00 C 598.01 831.54 579.89 833.65 565.00 833.00 C 550.11 832.35 533.28 833.26 518.00 833.00 C 502.72 832.74 486.40 833.06 471.00 833.00 C 455.60 832.94 439.35 832.89 424.00 833.00 C 408.65 833.11 392.08 832.64 377.00 833.00 C 361.92 833.36 344.42 832.16 330.00 833.00 C 315.58 833.84 304.49 832.71 305.00 817.00 C 305.50 801.28 304.78 786.64 305.00 771.00 C 305.22 755.36 304.90 739.65 305.00 724.00 C 305.10 708.35 304.95 692.66 305.00 677.00 C 305.05 661.34 304.98 645.66 305.00 630.00 C 305.02 614.34 304.99 598.66 305.00 583.00 C 305.01 567.34 304.99 551.64 305.00 536.00 C 305.01 520.36 304.98 504.62 305.00 489.00 C 305.02 473.38 304.96 457.56 305.00 442.00 C 305.04 426.44 304.91 411.53 305.00 396.00 C 305.09 380.47 304.80 364.52 305.00 349.00 C 305.20 333.48 304.56 317.42 305.00 302.00 C 305.44 286.58 304.02 270.16 305.00 255.00 C 305.98 239.84 302.84 222.55 305.00 208.00 C 307.16 193.45 299.72 178.30 305.39 167.25 C 311.06 156.19 333.16 162.05 346.00 161.00 C 358.84 159.95 378.81 161.55 393.00 161.00 C 407.19 160.45 425.44 161.41 440.00 161.00 C 441.37 145.74 433.95 120.30 454.00 121.00 C 474.06 121.71 494.88 120.47 515.00 121.00 C 518.46 87.36 552.57 64.14 585.00 65.00 C 617.43 65.86 650.30 88.44 654.00 121.00 M 88.00 276.00  C 87.98 280.04 86.14 281.13 85.00 285.00 C 89.67 282.10 87.23 291.01 84.00 292.00 C 85.14 288.37 87.30 285.66 82.00 286.00 C 87.29 282.82 82.09 277.34 88.00 276.00 M 88.00 476.00  C 87.26 478.32 87.06 481.48 85.00 483.00 C 88.61 483.55 87.46 486.89 84.00 487.00 C 84.31 484.12 84.61 481.08 86.00 478.00 C 81.05 479.84 83.49 475.88 85.00 473.00 C 86.36 474.32 84.08 478.56 88.00 476.00 M 982.00 661.00  C 1017.47 658.76 1047.91 670.09 1074.90 692.10 C 1101.89 714.11 1118.77 744.10 1120.40 778.74 C 1122.03 813.39 1113.92 843.44 1089.25 870.25 C 1064.57 897.06 1033.04 913.94 996.98 912.98 C 960.91 912.01 931.04 906.47 904.90 883.10 C 878.76 859.73 862.50 830.27 861.98 795.97 C 861.46 761.68 868.98 728.18 893.77 703.77 C 918.56 679.36 947.45 663.18 982.00 661.00 Z"/>
</g>
<g fill="#000000" fill-opacity="0.96" stroke="None">
<path d=" M 654.00 121.00  C 650.30 88.44 617.43 65.86 585.00 65.00 C 552.57 64.14 518.46 87.36 515.00 121.00 C 494.88 120.47 474.06 121.71 454.00 121.00 C 433.95 120.30 441.37 145.74 440.00 161.00 C 425.44 161.41 407.19 160.45 393.00 161.00 C 378.81 161.55 358.84 159.95 346.00 161.00 C 333.16 162.05 311.06 156.19 305.39 167.25 C 299.72 178.30 307.16 193.45 305.00 208.00 C 302.84 222.55 305.98 239.84 305.00 255.00 C 304.02 270.16 305.44 286.58 305.00 302.00 C 304.56 317.42 305.20 333.48 305.00 349.00 C 304.80 364.52 305.09 380.47 305.00 396.00 C 304.91 411.53 305.04 426.44 305.00 442.00 C 304.96 457.56 305.02 473.38 305.00 489.00 C 304.98 504.62 305.01 520.36 305.00 536.00 C 304.99 551.64 305.01 567.34 305.00 583.00 C 304.99 598.66 305.02 614.34 305.00 630.00 C 304.98 645.66 305.05 661.34 305.00 677.00 C 304.95 692.66 305.10 708.35 305.00 724.00 C 304.90 739.65 305.22 755.36 305.00 771.00 C 304.78 786.64 305.50 801.28 305.00 817.00 C 304.49 832.71 315.58 833.84 330.00 833.00 C 344.42 832.16 361.92 833.36 377.00 833.00 C 392.08 832.64 408.65 833.11 424.00 833.00 C 439.35 832.89 455.60 832.94 471.00 833.00 C 486.40 833.06 502.72 832.74 518.00 833.00 C 533.28 833.26 550.11 832.35 565.00 833.00 C 579.89 833.65 598.01 831.54 612.00 833.00 C 625.99 834.46 644.17 828.94 654.70 834.30 C 665.22 839.66 670.82 849.23 680.77 853.23 C 690.72 857.23 697.35 862.23 706.25 864.61 C 715.14 866.98 724.56 869.10 734.92 868.93 C 745.27 868.77 751.96 866.26 760.25 861.39 C 768.54 856.52 780.60 858.49 788.25 861.61 C 795.89 864.72 803.92 868.28 814.00 869.00 C 824.08 869.72 837.32 867.36 845.75 865.76 C 854.19 864.16 861.20 858.25 869.00 857.00 C 865.67 845.51 858.69 836.80 857.00 827.00 C 844.83 830.36 826.71 838.80 811.75 835.39 C 796.80 831.99 783.03 822.07 767.08 826.07 C 751.12 830.07 735.77 839.68 718.75 832.59 C 701.72 825.51 689.05 817.87 675.08 806.92 C 661.12 795.96 647.88 781.87 636.70 768.30 C 625.53 754.73 613.78 739.21 605.30 723.70 C 596.82 708.20 589.07 693.33 583.80 678.25 C 578.53 663.17 576.17 652.15 573.20 635.25 C 570.23 618.34 575.20 596.94 579.61 582.75 C 584.01 568.57 595.17 554.35 608.70 543.70 C 622.24 533.06 633.25 529.86 649.26 525.60 C 665.26 521.33 685.78 522.70 701.77 524.23 C 717.76 525.75 728.80 534.75 742.25 539.61 C 755.70 544.46 772.23 569.34 786.97 559.97 C 801.71 550.61 813.49 536.83 827.75 532.80 C 842.01 528.77 853.47 524.39 869.26 523.40 C 885.04 522.41 904.76 523.79 918.77 529.23 C 932.79 534.67 948.58 543.39 960.22 556.78 C 971.87 570.17 976.73 583.25 980.69 598.30 C 984.66 613.36 984.82 633.99 982.00 649.00 C 992.67 649.00 1003.33 649.00 1014.00 649.00 C 1017.30 602.72 1007.42 564.32 975.75 533.25 C 944.08 502.18 909.23 491.44 863.00 495.00 C 864.90 469.07 863.91 442.41 864.00 416.00 C 864.09 389.59 864.21 362.43 864.00 336.00 C 863.79 309.57 864.66 283.39 864.00 257.00 C 863.34 230.61 865.54 203.28 864.00 177.00 C 862.46 150.72 828.34 163.13 806.00 161.00 C 783.66 158.87 750.34 162.60 727.00 161.00 C 725.17 145.67 733.41 121.08 714.00 121.00 C 694.59 120.92 673.56 121.06 654.00 121.00 M 696.00 151.00  C 696.00 173.00 696.00 195.00 696.00 217.00 C 621.67 217.00 547.33 217.00 473.00 217.00 C 472.75 194.98 473.75 172.65 472.00 151.00 C 492.06 148.77 515.87 153.62 535.22 151.78 C 554.57 149.93 544.06 125.03 550.13 113.08 C 556.20 101.13 570.57 93.20 585.67 94.33 C 600.77 95.46 611.36 102.14 618.71 113.30 C 626.07 124.47 612.40 149.87 631.75 151.59 C 651.09 153.32 675.96 149.06 696.00 151.00 M 441.00 193.00  C 438.04 205.68 441.56 219.97 440.00 233.00 C 438.44 246.03 446.58 250.43 457.01 250.01 C 467.44 249.58 475.54 250.63 487.03 250.02 C 498.51 249.42 505.63 251.33 517.74 250.60 C 529.86 249.86 539.56 250.78 550.68 250.34 C 561.80 249.90 573.21 250.46 583.22 250.22 C 593.24 249.98 604.97 250.79 614.75 250.40 C 624.53 250.00 631.76 251.37 642.22 250.78 C 652.68 250.19 664.25 250.43 673.89 251.11 C 683.54 251.79 696.67 248.43 709.00 250.00 C 721.33 251.57 728.61 245.17 727.00 232.00 C 725.39 218.83 728.36 204.71 727.00 192.00 C 743.67 193.70 763.07 193.18 780.00 193.00 C 796.93 192.82 815.78 194.20 830.00 192.00 C 830.00 295.67 830.00 399.33 830.00 503.00 C 817.83 506.17 810.01 512.16 799.00 519.00 C 799.83 499.72 797.89 478.05 799.00 459.00 C 800.11 439.95 796.88 417.17 799.00 399.00 C 801.12 380.83 782.99 378.61 770.70 384.71 C 758.41 390.81 769.22 421.95 764.00 433.00 C 738.13 392.77 676.50 388.18 638.00 413.00 C 648.53 464.79 708.82 509.36 765.00 494.00 C 764.64 503.18 765.26 512.08 766.00 521.00 C 718.82 490.86 658.97 483.76 605.90 509.91 C 552.83 536.05 528.65 603.94 543.20 657.25 C 557.75 710.55 578.06 751.86 616.00 796.00 C 523.00 796.00 430.00 796.00 337.00 796.00 C 336.86 593.75 337.23 387.72 337.00 192.00 C 371.17 194.33 406.42 192.34 441.00 193.00 M 757.00 468.00  C 723.90 473.18 691.74 454.62 679.00 427.00 C 713.03 424.78 740.70 440.26 757.00 468.00 Z"/>
</g>
<g fill="#000000" fill-opacity="0.00" stroke="None">
<path d=" M 696.00 151.00  C 675.96 149.06 651.09 153.32 631.75 151.59 C 612.40 149.87 626.07 124.47 618.71 113.30 C 611.36 102.14 600.77 95.46 585.67 94.33 C 570.57 93.20 556.20 101.13 550.13 113.08 C 544.06 125.03 554.57 149.93 535.22 151.78 C 515.87 153.62 492.06 148.77 472.00 151.00 C 473.75 172.65 472.75 194.98 473.00 217.00 C 547.33 217.00 621.67 217.00 696.00 217.00 C 696.00 195.00 696.00 173.00 696.00 151.00 Z"/>
</g>
<g fill="#000000" fill-opacity="0.00" stroke="None">
<path d=" M 441.00 193.00  C 406.42 192.34 371.17 194.33 337.00 192.00 C 337.23 387.72 336.86 593.75 337.00 796.00 C 430.00 796.00 523.00 796.00 616.00 796.00 C 578.06 751.86 557.75 710.55 543.20 657.25 C 528.65 603.94 552.83 536.05 605.90 509.91 C 658.97 483.76 718.82 490.86 766.00 521.00 C 765.26 512.08 764.64 503.18 765.00 494.00 C 708.82 509.36 648.53 464.79 638.00 413.00 C 676.50 388.18 738.13 392.77 764.00 433.00 C 769.22 421.95 758.41 390.81 770.70 384.71 C 782.99 378.61 801.12 380.83 799.00 399.00 C 796.88 417.17 800.11 439.95 799.00 459.00 C 797.89 478.05 799.83 499.72 799.00 519.00 C 810.01 512.16 817.83 506.17 830.00 503.00 C 830.00 399.33 830.00 295.67 830.00 192.00 C 815.78 194.20 796.93 192.82 780.00 193.00 C 763.07 193.18 743.67 193.70 727.00 192.00 C 728.36 204.71 725.39 218.83 727.00 232.00 C 728.61 245.17 721.33 251.57 709.00 250.00 C 696.67 248.43 683.54 251.79 673.89 251.11 C 664.25 250.43 652.68 250.19 642.22 250.78 C 631.76 251.37 624.53 250.00 614.75 250.40 C 604.97 250.79 593.24 249.98 583.22 250.22 C 573.21 250.46 561.80 249.90 550.68 250.34 C 539.56 250.78 529.86 249.86 517.74 250.60 C 505.63 251.33 498.51 249.42 487.03 250.02 C 475.54 250.63 467.44 249.58 457.01 250.01 C 446.58 250.43 438.44 246.03 440.00 233.00 C 441.56 219.97 438.04 205.68 441.00 193.00 M 408.00 323.00  C 422.67 319.15 441.52 324.71 458.00 323.00 C 474.48 321.29 493.12 323.75 510.00 323.00 C 526.88 322.25 545.02 323.29 562.00 323.00 C 578.98 322.71 597.15 323.03 614.00 323.00 C 630.85 322.97 649.60 322.78 666.00 323.00 C 682.40 323.22 702.68 322.38 718.00 323.00 C 733.32 323.62 754.39 320.69 766.08 324.92 C 777.78 329.15 777.57 348.92 765.90 351.90 C 754.23 354.88 732.11 352.39 717.00 353.00 C 701.89 353.61 681.30 352.75 665.00 353.00 C 648.70 353.25 629.79 352.95 613.00 353.00 C 596.21 353.05 577.93 353.11 561.00 353.00 C 544.07 352.89 525.80 353.34 509.00 353.00 C 492.20 352.66 473.31 353.79 457.00 353.00 C 440.69 352.21 422.25 355.17 407.75 352.20 C 393.26 349.23 398.53 325.48 408.00 323.00 M 410.00 429.00  C 420.89 427.00 435.28 431.62 448.00 430.00 C 460.72 428.38 475.97 430.93 489.00 430.00 C 502.03 429.07 518.20 430.90 531.00 430.00 C 543.80 429.10 560.17 431.48 572.00 430.00 C 583.83 428.52 592.62 431.66 594.80 440.25 C 596.97 448.84 594.37 457.50 585.23 459.58 C 576.09 461.65 559.93 459.30 548.00 460.00 C 536.07 460.70 519.80 459.57 507.00 460.00 C 494.20 460.43 477.94 459.54 465.00 460.00 C 452.06 460.46 436.46 459.20 424.00 460.00 C 411.54 460.80 404.36 459.50 400.20 450.75 C 396.04 442.00 402.91 430.30 410.00 429.00 M 410.00 535.00  C 423.07 531.87 444.64 535.77 459.00 535.00 C 473.36 534.23 491.83 532.81 501.92 537.13 C 512.01 541.45 512.38 563.21 499.75 564.19 C 487.12 565.17 466.32 565.92 452.00 565.00 C 437.68 564.08 416.64 568.21 405.10 562.90 C 393.56 557.59 398.72 537.71 410.00 535.00 Z"/>
</g>
<g fill="#C3C3C3" fill-opacity="0.00" stroke="None">
<path d=" M 88.00 276.00  C 82.09 277.34 87.29 282.82 82.00 286.00 C 87.30 285.66 85.14 288.37 84.00 292.00 C 87.23 291.01 89.67 282.10 85.00 285.00 C 86.14 281.13 87.98 280.04 88.00 276.00 Z"/>
</g>
<g fill="#000000" fill-opacity="0.97" stroke="None">
<path d=" M 408.00 323.00  C 398.53 325.48 393.26 349.23 407.75 352.20 C 422.25 355.17 440.69 352.21 457.00 353.00 C 473.31 353.79 492.20 352.66 509.00 353.00 C 525.80 353.34 544.07 352.89 561.00 353.00 C 577.93 353.11 596.21 353.05 613.00 353.00 C 629.79 352.95 648.70 353.25 665.00 353.00 C 681.30 352.75 701.89 353.61 717.00 353.00 C 732.11 352.39 754.23 354.88 765.90 351.90 C 777.57 348.92 777.78 329.15 766.08 324.92 C 754.39 320.69 733.32 323.62 718.00 323.00 C 702.68 322.38 682.40 323.22 666.00 323.00 C 649.60 322.78 630.85 322.97 614.00 323.00 C 597.15 323.03 578.98 322.71 562.00 323.00 C 545.02 323.29 526.88 322.25 510.00 323.00 C 493.12 323.75 474.48 321.29 458.00 323.00 C 441.52 324.71 422.67 319.15 408.00 323.00 Z"/>
</g>
<g fill="#000000" fill-opacity="0.02" stroke="None">
<path d=" M 757.00 468.00  C 740.70 440.26 713.03 424.78 679.00 427.00 C 691.74 454.62 723.90 473.18 757.00 468.00 Z"/>
</g>
<g fill="#000000" fill-opacity="0.96" stroke="None">
<path d=" M 410.00 429.00  C 402.91 430.30 396.04 442.00 400.20 450.75 C 404.36 459.50 411.54 460.80 424.00 460.00 C 436.46 459.20 452.06 460.46 465.00 460.00 C 477.94 459.54 494.20 460.43 507.00 460.00 C 519.80 459.57 536.07 460.70 548.00 460.00 C 559.93 459.30 576.09 461.65 585.23 459.58 C 594.37 457.50 596.97 448.84 594.80 440.25 C 592.62 431.66 583.83 428.52 572.00 430.00 C 560.17 431.48 543.80 429.10 531.00 430.00 C 518.20 430.90 502.03 429.07 489.00 430.00 C 475.97 430.93 460.72 428.38 448.00 430.00 C 435.28 431.62 420.89 427.00 410.00 429.00 Z"/>
</g>
<g fill="#B0B0B0" fill-opacity="0.00" stroke="None">
<path d=" M 88.00 476.00  C 84.08 478.56 86.36 474.32 85.00 473.00 C 83.49 475.88 81.05 479.84 86.00 478.00 C 84.61 481.08 84.31 484.12 84.00 487.00 C 87.46 486.89 88.61 483.55 85.00 483.00 C 87.06 481.48 87.26 478.32 88.00 476.00 Z"/>
</g>
<g fill="#000000" fill-opacity="0.96" stroke="None">
<path d=" M 410.00 535.00  C 398.72 537.71 393.56 557.59 405.10 562.90 C 416.64 568.21 437.68 564.08 452.00 565.00 C 466.32 565.92 487.12 565.17 499.75 564.19 C 512.38 563.21 512.01 541.45 501.92 537.13 C 491.83 532.81 473.36 534.23 459.00 535.00 C 444.64 535.77 423.07 531.87 410.00 535.00 Z"/>
</g>
<g fill="#000000" fill-opacity="0.96" stroke="None">
<path d=" M 982.00 661.00  C 947.45 663.18 918.56 679.36 893.77 703.77 C 868.98 728.18 861.46 761.68 861.98 795.97 C 862.50 830.27 878.76 859.73 904.90 883.10 C 931.04 906.47 960.91 912.01 996.98 912.98 C 1033.04 913.94 1064.57 897.06 1089.25 870.25 C 1113.92 843.44 1122.03 813.39 1120.40 778.74 C 1118.77 744.10 1101.89 714.11 1074.90 692.10 C 1047.91 670.09 1017.47 658.76 982.00 661.00 M 983.00 685.00  C 1015.48 681.59 1042.30 693.69 1065.25 714.75 C 1088.19 735.82 1097.55 769.15 1094.20 799.25 C 1090.85 829.34 1071.44 858.67 1044.71 874.71 C 1017.97 890.74 982.42 891.12 955.30 881.69 C 928.18 872.26 905.40 849.59 895.61 822.25 C 885.81 794.91 887.02 758.17 905.11 732.11 C 923.19 706.04 952.31 688.22 983.00 685.00 Z"/>
</g>
<g fill="#000000" fill-opacity="0.01" stroke="None">
<path d=" M 983.00 685.00  C 952.31 688.22 923.19 706.04 905.11 732.11 C 887.02 758.17 885.81 794.91 895.61 822.25 C 905.40 849.59 928.18 872.26 955.30 881.69 C 982.42 891.12 1017.97 890.74 1044.71 874.71 C 1071.44 858.67 1090.85 829.34 1094.20 799.25 C 1097.55 769.15 1088.19 735.82 1065.25 714.75 C 1042.30 693.69 1015.48 681.59 983.00 685.00 M 1000.00 709.00  C 1009.05 721.06 1004.01 738.25 1005.00 754.00 C 1005.99 769.75 1004.26 788.02 1005.00 804.00 C 1018.22 795.15 1033.92 774.89 1044.00 792.00 C 1039.79 808.66 1024.35 809.01 1014.30 821.30 C 1004.24 833.59 990.13 834.93 979.70 823.30 C 969.27 811.68 957.44 809.66 947.00 798.00 C 947.35 795.53 948.09 792.56 947.00 790.00 C 948.94 789.30 951.42 787.12 952.00 785.00 C 965.27 783.85 971.40 796.63 983.00 803.00 C 982.98 773.47 983.03 742.81 983.00 714.00 C 988.01 708.59 993.37 708.53 1000.00 709.00 M 1055.00 834.00  C 1060.46 839.26 1062.99 845.90 1056.00 852.00 C 1040.45 852.24 1022.15 851.61 1006.00 852.00 C 989.85 852.39 969.55 851.23 954.00 852.00 C 938.45 852.77 919.59 853.59 927.00 836.00 C 968.45 831.39 1013.36 835.30 1055.00 834.00 Z"/>
</g>
<g fill="#000000" fill-opacity="0.96" stroke="None">
<path d=" M 1000.00 709.00  C 993.37 708.53 988.01 708.59 983.00 714.00 C 983.03 742.81 982.98 773.47 983.00 803.00 C 971.40 796.63 965.27 783.85 952.00 785.00 C 951.42 787.12 948.94 789.30 947.00 790.00 C 948.09 792.56 947.35 795.53 947.00 798.00 C 957.44 809.66 969.27 811.68 979.70 823.30 C 990.13 834.93 1004.24 833.59 1014.30 821.30 C 1024.35 809.01 1039.79 808.66 1044.00 792.00 C 1033.92 774.89 1018.22 795.15 1005.00 804.00 C 1004.26 788.02 1005.99 769.75 1005.00 754.00 C 1004.01 738.25 1009.05 721.06 1000.00 709.00 Z"/>
</g>
<g fill="#000000" fill-opacity="0.94" stroke="None">
<path d=" M 1055.00 834.00  C 1013.36 835.30 968.45 831.39 927.00 836.00 C 919.59 853.59 938.45 852.77 954.00 852.00 C 969.55 851.23 989.85 852.39 1006.00 852.00 C 1022.15 851.61 1040.45 852.24 1056.00 852.00 C 1062.99 845.90 1060.46 839.26 1055.00 834.00 Z"/>
</g>
</svg>
