<svg xmlns="http://www.w3.org/2000/svg" xmlns:v="https://svgstorm.com" viewBox="360.08 117.52 850.63 850.63" width="100%" height="100%">
<g fill="None" fill-opacity="0.0" stroke="#000000" stroke-opacity="0.00" stroke-width="0.3"><path d=" M 0.00 1024.00  L 1536.00 1024.00 L 1536.00 0.00 L 0.00 0.00 L 0.00 1024.00 M 671.00 171.00  C 700.90 166.66 732.14 175.88 756.75 186.39 C 781.37 196.90 811.20 225.37 826.30 250.70 C 841.39 276.03 847.85 302.47 846.67 332.67 C 845.49 362.87 837.47 386.99 819.70 413.70 C 801.92 440.40 772.72 459.87 746.25 470.39 C 719.78 480.92 688.59 483.41 658.78 478.22 C 628.96 473.03 604.36 461.68 580.90 440.10 C 557.44 418.51 541.39 390.92 534.41 363.25 C 527.42 335.59 529.17 304.17 537.59 278.25 C 546.01 252.33 565.24 222.74 589.92 203.92 C 614.59 185.09 641.65 175.26 671.00 171.00 M 839.00 795.00  C 819.02 794.94 798.84 795.04 778.00 795.00 C 757.16 794.96 735.02 795.05 714.00 795.00 C 692.98 794.95 670.99 795.09 650.00 795.00 C 629.01 794.91 606.73 795.18 586.00 795.00 C 565.27 794.82 542.06 795.40 522.00 795.00 C 501.94 794.60 476.54 795.89 458.00 795.00 C 439.46 794.11 415.46 800.44 407.10 785.90 C 398.74 771.36 407.21 748.65 406.93 734.93 C 406.64 721.21 410.45 711.42 413.19 698.75 C 415.94 686.08 421.06 678.28 425.77 665.77 C 430.48 653.26 438.88 639.42 447.10 627.10 C 455.32 614.78 464.85 603.68 476.25 592.25 C 487.65 580.82 498.28 571.35 511.03 563.03 C 523.78 554.72 533.82 548.57 545.70 543.69 C 557.58 538.81 566.61 534.72 578.75 531.61 C 590.89 528.50 602.60 525.05 616.25 523.20 C 629.90 521.35 645.48 521.05 661.00 520.00 C 676.52 518.95 702.68 519.75 717.70 520.65 C 732.71 521.55 747.07 522.17 760.68 524.32 C 774.29 526.48 784.09 528.23 797.25 531.80 C 810.40 535.37 818.11 538.87 832.22 544.78 C 846.34 550.68 855.87 557.38 868.25 565.75 C 880.64 574.11 892.23 582.93 903.75 594.25 C 915.27 605.57 923.27 617.46 932.32 629.68 C 941.37 641.90 946.34 652.82 953.92 666.08 C 961.50 679.33 945.32 687.80 935.25 699.25 C 925.17 710.69 912.33 718.80 902.25 730.25 C 892.17 741.69 880.94 751.95 870.30 762.30 C 859.67 772.65 848.96 784.44 839.00 795.00 M 1122.00 678.00  C 1108.64 667.73 1097.12 652.33 1084.25 640.75 C 1071.37 629.17 1056.11 617.48 1047.00 603.00 C 1063.59 590.51 1073.08 572.03 1091.25 563.81 C 1109.42 555.60 1126.00 576.53 1139.25 588.75 C 1152.50 600.98 1172.04 617.93 1162.08 635.08 C 1152.11 652.23 1133.35 660.25 1122.00 678.00 M 1040.00 614.00  C 1063.50 638.79 1087.29 663.34 1113.00 686.00 C 1047.75 750.52 984.73 817.26 918.00 882.00 C 892.10 860.61 870.75 831.18 844.00 811.00 C 859.25 794.44 874.90 777.09 891.75 760.75 C 908.60 744.42 924.08 727.96 940.75 711.75 C 957.43 695.54 973.38 678.74 990.25 663.25 C 1007.11 647.76 1022.43 627.22 1040.00 614.00 M 836.00 824.00  C 857.90 845.55 882.62 866.93 903.00 889.00 C 886.66 893.62 869.34 899.37 853.00 905.00 C 850.98 899.48 843.44 894.63 838.75 889.25 C 834.06 883.87 827.74 878.22 822.00 874.00 C 826.38 856.78 829.42 839.48 836.00 824.00 M 841.00 910.00  C 829.08 911.51 820.74 916.39 809.00 919.00 C 812.78 908.63 815.67 898.69 817.00 888.00 C 824.64 894.93 834.91 902.65 841.00 910.00 Z"/>
</g>
<g fill="None" fill-opacity="0.0" stroke="#000000" stroke-opacity="1.00" stroke-width="0.3"><path d=" M 671.00 171.00  C 641.65 175.26 614.59 185.09 589.92 203.92 C 565.24 222.74 546.01 252.33 537.59 278.25 C 529.17 304.17 527.42 335.59 534.41 363.25 C 541.39 390.92 557.44 418.51 580.90 440.10 C 604.36 461.68 628.96 473.03 658.78 478.22 C 688.59 483.41 719.78 480.92 746.25 470.39 C 772.72 459.87 801.92 440.40 819.70 413.70 C 837.47 386.99 845.49 362.87 846.67 332.67 C 847.85 302.47 841.39 276.03 826.30 250.70 C 811.20 225.37 781.37 196.90 756.75 186.39 C 732.14 175.88 700.90 166.66 671.00 171.00 Z"/>
</g>
<g fill="None" fill-opacity="0.0" stroke="#000000" stroke-opacity="1.00" stroke-width="0.3"><path d=" M 839.00 795.00  C 848.96 784.44 859.67 772.65 870.30 762.30 C 880.94 751.95 892.17 741.69 902.25 730.25 C 912.33 718.80 925.17 710.69 935.25 699.25 C 945.32 687.80 961.50 679.33 953.92 666.08 C 946.34 652.82 941.37 641.90 932.32 629.68 C 923.27 617.46 915.27 605.57 903.75 594.25 C 892.23 582.93 880.64 574.11 868.25 565.75 C 855.87 557.38 846.34 550.68 832.22 544.78 C 818.11 538.87 810.40 535.37 797.25 531.80 C 784.09 528.23 774.29 526.48 760.68 524.32 C 747.07 522.17 732.71 521.55 717.70 520.65 C 702.68 519.75 676.52 518.95 661.00 520.00 C 645.48 521.05 629.90 521.35 616.25 523.20 C 602.60 525.05 590.89 528.50 578.75 531.61 C 566.61 534.72 557.58 538.81 545.70 543.69 C 533.82 548.57 523.78 554.72 511.03 563.03 C 498.28 571.35 487.65 580.82 476.25 592.25 C 464.85 603.68 455.32 614.78 447.10 627.10 C 438.88 639.42 430.48 653.26 425.77 665.77 C 421.06 678.28 415.94 686.08 413.19 698.75 C 410.45 711.42 406.64 721.21 406.93 734.93 C 407.21 748.65 398.74 771.36 407.10 785.90 C 415.46 800.44 439.46 794.11 458.00 795.00 C 476.54 795.89 501.94 794.60 522.00 795.00 C 542.06 795.40 565.27 794.82 586.00 795.00 C 606.73 795.18 629.01 794.91 650.00 795.00 C 670.99 795.09 692.98 794.95 714.00 795.00 C 735.02 795.05 757.16 794.96 778.00 795.00 C 798.84 795.04 819.02 794.94 839.00 795.00 Z"/>
</g>
<g fill="None" fill-opacity="0.0" stroke="#000000" stroke-opacity="0.99" stroke-width="0.3"><path d=" M 1122.00 678.00  C 1133.35 660.25 1152.11 652.23 1162.08 635.08 C 1172.04 617.93 1152.50 600.98 1139.25 588.75 C 1126.00 576.53 1109.42 555.60 1091.25 563.81 C 1073.08 572.03 1063.59 590.51 1047.00 603.00 C 1056.11 617.48 1071.37 629.17 1084.25 640.75 C 1097.12 652.33 1108.64 667.73 1122.00 678.00 Z"/>
</g>
<g fill="None" fill-opacity="0.0" stroke="#000000" stroke-opacity="0.99" stroke-width="0.3"><path d=" M 1040.00 614.00  C 1022.43 627.22 1007.11 647.76 990.25 663.25 C 973.38 678.74 957.43 695.54 940.75 711.75 C 924.08 727.96 908.60 744.42 891.75 760.75 C 874.90 777.09 859.25 794.44 844.00 811.00 C 870.75 831.18 892.10 860.61 918.00 882.00 C 984.73 817.26 1047.75 750.52 1113.00 686.00 C 1087.29 663.34 1063.50 638.79 1040.00 614.00 Z"/>
</g>
<g fill="None" fill-opacity="0.0" stroke="#000000" stroke-opacity="0.98" stroke-width="0.3"><path d=" M 836.00 824.00  C 829.42 839.48 826.38 856.78 822.00 874.00 C 827.74 878.22 834.06 883.87 838.75 889.25 C 843.44 894.63 850.98 899.48 853.00 905.00 C 869.34 899.37 886.66 893.62 903.00 889.00 C 882.62 866.93 857.90 845.55 836.00 824.00 Z"/>
</g>
<g fill="None" fill-opacity="0.0" stroke="#000000" stroke-opacity="0.94" stroke-width="0.3"><path d=" M 841.00 910.00  C 834.91 902.65 824.64 894.93 817.00 888.00 C 815.67 898.69 812.78 908.63 809.00 919.00 C 820.74 916.39 829.08 911.51 841.00 910.00 Z"/>
</g>
<g fill="#000000" fill-opacity="0.00" stroke="None">
<path d=" M 0.00 1024.00  L 1536.00 1024.00 L 1536.00 0.00 L 0.00 0.00 L 0.00 1024.00 M 671.00 171.00  C 700.90 166.66 732.14 175.88 756.75 186.39 C 781.37 196.90 811.20 225.37 826.30 250.70 C 841.39 276.03 847.85 302.47 846.67 332.67 C 845.49 362.87 837.47 386.99 819.70 413.70 C 801.92 440.40 772.72 459.87 746.25 470.39 C 719.78 480.92 688.59 483.41 658.78 478.22 C 628.96 473.03 604.36 461.68 580.90 440.10 C 557.44 418.51 541.39 390.92 534.41 363.25 C 527.42 335.59 529.17 304.17 537.59 278.25 C 546.01 252.33 565.24 222.74 589.92 203.92 C 614.59 185.09 641.65 175.26 671.00 171.00 M 839.00 795.00  C 819.02 794.94 798.84 795.04 778.00 795.00 C 757.16 794.96 735.02 795.05 714.00 795.00 C 692.98 794.95 670.99 795.09 650.00 795.00 C 629.01 794.91 606.73 795.18 586.00 795.00 C 565.27 794.82 542.06 795.40 522.00 795.00 C 501.94 794.60 476.54 795.89 458.00 795.00 C 439.46 794.11 415.46 800.44 407.10 785.90 C 398.74 771.36 407.21 748.65 406.93 734.93 C 406.64 721.21 410.45 711.42 413.19 698.75 C 415.94 686.08 421.06 678.28 425.77 665.77 C 430.48 653.26 438.88 639.42 447.10 627.10 C 455.32 614.78 464.85 603.68 476.25 592.25 C 487.65 580.82 498.28 571.35 511.03 563.03 C 523.78 554.72 533.82 548.57 545.70 543.69 C 557.58 538.81 566.61 534.72 578.75 531.61 C 590.89 528.50 602.60 525.05 616.25 523.20 C 629.90 521.35 645.48 521.05 661.00 520.00 C 676.52 518.95 702.68 519.75 717.70 520.65 C 732.71 521.55 747.07 522.17 760.68 524.32 C 774.29 526.48 784.09 528.23 797.25 531.80 C 810.40 535.37 818.11 538.87 832.22 544.78 C 846.34 550.68 855.87 557.38 868.25 565.75 C 880.64 574.11 892.23 582.93 903.75 594.25 C 915.27 605.57 923.27 617.46 932.32 629.68 C 941.37 641.90 946.34 652.82 953.92 666.08 C 961.50 679.33 945.32 687.80 935.25 699.25 C 925.17 710.69 912.33 718.80 902.25 730.25 C 892.17 741.69 880.94 751.95 870.30 762.30 C 859.67 772.65 848.96 784.44 839.00 795.00 M 1122.00 678.00  C 1108.64 667.73 1097.12 652.33 1084.25 640.75 C 1071.37 629.17 1056.11 617.48 1047.00 603.00 C 1063.59 590.51 1073.08 572.03 1091.25 563.81 C 1109.42 555.60 1126.00 576.53 1139.25 588.75 C 1152.50 600.98 1172.04 617.93 1162.08 635.08 C 1152.11 652.23 1133.35 660.25 1122.00 678.00 M 1040.00 614.00  C 1063.50 638.79 1087.29 663.34 1113.00 686.00 C 1047.75 750.52 984.73 817.26 918.00 882.00 C 892.10 860.61 870.75 831.18 844.00 811.00 C 859.25 794.44 874.90 777.09 891.75 760.75 C 908.60 744.42 924.08 727.96 940.75 711.75 C 957.43 695.54 973.38 678.74 990.25 663.25 C 1007.11 647.76 1022.43 627.22 1040.00 614.00 M 836.00 824.00  C 857.90 845.55 882.62 866.93 903.00 889.00 C 886.66 893.62 869.34 899.37 853.00 905.00 C 850.98 899.48 843.44 894.63 838.75 889.25 C 834.06 883.87 827.74 878.22 822.00 874.00 C 826.38 856.78 829.42 839.48 836.00 824.00 M 841.00 910.00  C 829.08 911.51 820.74 916.39 809.00 919.00 C 812.78 908.63 815.67 898.69 817.00 888.00 C 824.64 894.93 834.91 902.65 841.00 910.00 Z"/>
</g>
<g fill="#000000" fill-opacity="1.00" stroke="None">
<path d=" M 671.00 171.00  C 641.65 175.26 614.59 185.09 589.92 203.92 C 565.24 222.74 546.01 252.33 537.59 278.25 C 529.17 304.17 527.42 335.59 534.41 363.25 C 541.39 390.92 557.44 418.51 580.90 440.10 C 604.36 461.68 628.96 473.03 658.78 478.22 C 688.59 483.41 719.78 480.92 746.25 470.39 C 772.72 459.87 801.92 440.40 819.70 413.70 C 837.47 386.99 845.49 362.87 846.67 332.67 C 847.85 302.47 841.39 276.03 826.30 250.70 C 811.20 225.37 781.37 196.90 756.75 186.39 C 732.14 175.88 700.90 166.66 671.00 171.00 Z"/>
</g>
<g fill="#000000" fill-opacity="1.00" stroke="None">
<path d=" M 839.00 795.00  C 848.96 784.44 859.67 772.65 870.30 762.30 C 880.94 751.95 892.17 741.69 902.25 730.25 C 912.33 718.80 925.17 710.69 935.25 699.25 C 945.32 687.80 961.50 679.33 953.92 666.08 C 946.34 652.82 941.37 641.90 932.32 629.68 C 923.27 617.46 915.27 605.57 903.75 594.25 C 892.23 582.93 880.64 574.11 868.25 565.75 C 855.87 557.38 846.34 550.68 832.22 544.78 C 818.11 538.87 810.40 535.37 797.25 531.80 C 784.09 528.23 774.29 526.48 760.68 524.32 C 747.07 522.17 732.71 521.55 717.70 520.65 C 702.68 519.75 676.52 518.95 661.00 520.00 C 645.48 521.05 629.90 521.35 616.25 523.20 C 602.60 525.05 590.89 528.50 578.75 531.61 C 566.61 534.72 557.58 538.81 545.70 543.69 C 533.82 548.57 523.78 554.72 511.03 563.03 C 498.28 571.35 487.65 580.82 476.25 592.25 C 464.85 603.68 455.32 614.78 447.10 627.10 C 438.88 639.42 430.48 653.26 425.77 665.77 C 421.06 678.28 415.94 686.08 413.19 698.75 C 410.45 711.42 406.64 721.21 406.93 734.93 C 407.21 748.65 398.74 771.36 407.10 785.90 C 415.46 800.44 439.46 794.11 458.00 795.00 C 476.54 795.89 501.94 794.60 522.00 795.00 C 542.06 795.40 565.27 794.82 586.00 795.00 C 606.73 795.18 629.01 794.91 650.00 795.00 C 670.99 795.09 692.98 794.95 714.00 795.00 C 735.02 795.05 757.16 794.96 778.00 795.00 C 798.84 795.04 819.02 794.94 839.00 795.00 Z"/>
</g>
<g fill="#000000" fill-opacity="0.99" stroke="None">
<path d=" M 1122.00 678.00  C 1133.35 660.25 1152.11 652.23 1162.08 635.08 C 1172.04 617.93 1152.50 600.98 1139.25 588.75 C 1126.00 576.53 1109.42 555.60 1091.25 563.81 C 1073.08 572.03 1063.59 590.51 1047.00 603.00 C 1056.11 617.48 1071.37 629.17 1084.25 640.75 C 1097.12 652.33 1108.64 667.73 1122.00 678.00 Z"/>
</g>
<g fill="#000000" fill-opacity="0.99" stroke="None">
<path d=" M 1040.00 614.00  C 1022.43 627.22 1007.11 647.76 990.25 663.25 C 973.38 678.74 957.43 695.54 940.75 711.75 C 924.08 727.96 908.60 744.42 891.75 760.75 C 874.90 777.09 859.25 794.44 844.00 811.00 C 870.75 831.18 892.10 860.61 918.00 882.00 C 984.73 817.26 1047.75 750.52 1113.00 686.00 C 1087.29 663.34 1063.50 638.79 1040.00 614.00 Z"/>
</g>
<g fill="#000000" fill-opacity="0.98" stroke="None">
<path d=" M 836.00 824.00  C 829.42 839.48 826.38 856.78 822.00 874.00 C 827.74 878.22 834.06 883.87 838.75 889.25 C 843.44 894.63 850.98 899.48 853.00 905.00 C 869.34 899.37 886.66 893.62 903.00 889.00 C 882.62 866.93 857.90 845.55 836.00 824.00 Z"/>
</g>
<g fill="#000000" fill-opacity="0.94" stroke="None">
<path d=" M 841.00 910.00  C 834.91 902.65 824.64 894.93 817.00 888.00 C 815.67 898.69 812.78 908.63 809.00 919.00 C 820.74 916.39 829.08 911.51 841.00 910.00 Z"/>
</g>
</svg>
