<svg xmlns="http://www.w3.org/2000/svg" xmlns:v="https://svgstorm.com"
viewBox = "0 0 1536 1024"
width="1536"
height="1024">
<g fill="None" fill-opacity="0.0" stroke="#000000" stroke-opacity="0.00" stroke-width="0.3"><path d="
M 0.00 1024.00 
L 1536.00 1024.00
L 1536.00 0.00
L 0.00 0.00
L 0.00 1024.00
M 751.00 169.00 
C 768.94 170.83 788.27 166.21 805.25 169.80 C 822.23 173.39 812.54 197.83 815.00 212.00
C 837.03 212.47 866.74 211.38 888.00 212.00 C 909.27 212.63 937.54 204.89 938.00 230.00 C 938.46 255.11 937.84 278.25 938.00 303.00 C 938.16 327.75 938.02 352.43 938.00 377.00 C 937.98 401.57 938.21 425.57 938.00 450.00 C 937.79 474.43 938.99 499.06 937.00 523.00
C 981.10 521.48 1023.02 547.33 1045.77 585.23 C 1068.52 623.13 1059.24 669.21 1045.00 707.00
C 1071.12 681.03 1098.43 651.16 1126.00 627.00
C 1145.19 649.43 1168.02 669.23 1189.00 689.00
C 1184.04 696.46 1176.08 703.23 1169.25 710.25 C 1162.41 717.26 1155.19 724.23 1148.25 731.25 C 1141.30 738.26 1134.83 744.66 1127.75 751.75 C 1120.67 758.84 1113.42 765.39 1106.75 772.75 C 1100.07 780.10 1092.75 785.75 1086.23 793.23 C 1079.72 800.71 1072.04 806.60 1065.25 814.25 C 1058.46 821.90 1051.71 826.38 1044.75 834.75 C 1037.79 843.12 1030.90 845.78 1023.75 855.75 C 1016.61 865.73 1008.95 861.24 1002.75 852.25 C 996.54 843.26 988.31 839.48 981.25 831.75 C 974.19 824.03 967.40 817.98 960.00 811.00
C 959.15 814.66 955.24 817.48 952.00 819.00
C 969.16 836.84 988.42 855.33 1006.00 872.00
C 996.90 874.91 987.46 877.51 978.92 879.93 C 970.37 882.36 958.34 889.26 952.70 879.30 C 947.06 869.33 931.63 866.20 934.19 856.75 C 936.76 847.30 940.80 839.43 943.00 829.00
C 934.50 836.24 927.20 842.23 918.70 846.71 C 910.19 851.19 901.28 851.25 891.00 853.00 C 880.72 854.74 870.35 848.61 861.90 845.10 C 853.45 841.59 846.96 853.85 837.30 852.31 C 827.65 850.77 818.41 853.80 809.25 850.61 C 800.09 847.41 792.50 846.99 782.77 841.23 C 773.04 835.47 763.98 832.65 755.90 824.10 C 747.83 815.55 732.79 817.93 719.00 818.00 C 705.21 818.07 689.38 817.95 675.00 818.00 C 660.62 818.05 644.64 817.93 630.00 818.00 C 615.36 818.07 600.77 817.86 586.00 818.00 C 571.23 818.14 555.86 817.70 541.00 818.00 C 526.14 818.30 511.96 817.33 497.00 818.00 C 482.04 818.67 468.26 816.51 453.00 818.00 C 437.74 819.49 432.53 810.79 434.00 796.00 C 435.47 781.21 433.35 766.81 434.00 752.00 C 434.65 737.19 433.70 721.80 434.00 707.00 C 434.30 692.20 433.86 677.77 434.00 663.00 C 434.14 648.23 433.94 633.81 434.00 619.00 C 434.06 604.19 433.97 588.82 434.00 574.00 C 434.03 559.18 433.98 544.82 434.00 530.00 C 434.02 515.18 433.97 499.82 434.00 485.00 C 434.03 470.18 433.95 455.80 434.00 441.00 C 434.05 426.20 433.89 410.76 434.00 396.00 C 434.11 381.24 433.75 366.65 434.00 352.00 C 434.25 337.35 433.44 322.53 434.00 308.00 C 434.56 293.47 432.79 277.23 434.00 263.00 C 435.21 248.77 431.14 233.78 434.20 220.75 C 437.25 207.73 453.55 212.73 466.00 212.00 C 478.45 211.27 496.36 212.37 510.00 212.00 C 523.64 211.63 541.02 212.28 555.00 212.00
C 557.02 199.14 548.87 173.04 564.75 169.74 C 580.63 166.44 600.49 169.85 617.00 170.00
C 614.40 133.16 648.50 102.00 684.00 102.00 C 719.51 102.00 754.45 132.45 751.00 169.00
M 1197.00 682.00 
C 1177.06 661.28 1153.72 639.87 1134.00 619.00
C 1147.33 607.65 1157.14 592.84 1171.22 583.22 C 1185.31 573.61 1201.45 593.62 1212.25 603.75 C 1223.05 613.88 1241.87 630.31 1233.61 644.75 C 1225.34 659.19 1207.87 668.64 1197.00 682.00
M 931.00 873.00 
C 934.97 879.10 943.73 884.45 947.00 891.00
C 937.74 891.31 930.26 895.55 921.00 898.00
C 925.90 889.96 924.81 879.40 931.00 873.00 Z"/>
</g>
<g fill="None" fill-opacity="0.0" stroke="#000000" stroke-opacity="0.98" stroke-width="0.3"><path d="
M 751.00 169.00 
C 754.45 132.45 719.51 102.00 684.00 102.00 C 648.50 102.00 614.40 133.16 617.00 170.00
C 600.49 169.85 580.63 166.44 564.75 169.74 C 548.87 173.04 557.02 199.14 555.00 212.00
C 541.02 212.28 523.64 211.63 510.00 212.00 C 496.36 212.37 478.45 211.27 466.00 212.00 C 453.55 212.73 437.25 207.73 434.20 220.75 C 431.14 233.78 435.21 248.77 434.00 263.00 C 432.79 277.23 434.56 293.47 434.00 308.00 C 433.44 322.53 434.25 337.35 434.00 352.00 C 433.75 366.65 434.11 381.24 434.00 396.00 C 433.89 410.76 434.05 426.20 434.00 441.00 C 433.95 455.80 434.03 470.18 434.00 485.00 C 433.97 499.82 434.02 515.18 434.00 530.00 C 433.98 544.82 434.03 559.18 434.00 574.00 C 433.97 588.82 434.06 604.19 434.00 619.00 C 433.94 633.81 434.14 648.23 434.00 663.00 C 433.86 677.77 434.30 692.20 434.00 707.00 C 433.70 721.80 434.65 737.19 434.00 752.00 C 433.35 766.81 435.47 781.21 434.00 796.00 C 432.53 810.79 437.74 819.49 453.00 818.00 C 468.26 816.51 482.04 818.67 497.00 818.00 C 511.96 817.33 526.14 818.30 541.00 818.00 C 555.86 817.70 571.23 818.14 586.00 818.00 C 600.77 817.86 615.36 818.07 630.00 818.00 C 644.64 817.93 660.62 818.05 675.00 818.00 C 689.38 817.95 705.21 818.07 719.00 818.00 C 732.79 817.93 747.83 815.55 755.90 824.10 C 763.98 832.65 773.04 835.47 782.77 841.23 C 792.50 846.99 800.09 847.41 809.25 850.61 C 818.41 853.80 827.65 850.77 837.30 852.31 C 846.96 853.85 853.45 841.59 861.90 845.10 C 870.35 848.61 880.72 854.74 891.00 853.00 C 901.28 851.25 910.19 851.19 918.70 846.71 C 927.20 842.23 934.50 836.24 943.00 829.00
C 940.80 839.43 936.76 847.30 934.19 856.75 C 931.63 866.20 947.06 869.33 952.70 879.30 C 958.34 889.26 970.37 882.36 978.92 879.93 C 987.46 877.51 996.90 874.91 1006.00 872.00
C 988.42 855.33 969.16 836.84 952.00 819.00
C 955.24 817.48 959.15 814.66 960.00 811.00
C 967.40 817.98 974.19 824.03 981.25 831.75 C 988.31 839.48 996.54 843.26 1002.75 852.25 C 1008.95 861.24 1016.61 865.73 1023.75 855.75 C 1030.90 845.78 1037.79 843.12 1044.75 834.75 C 1051.71 826.38 1058.46 821.90 1065.25 814.25 C 1072.04 806.60 1079.72 800.71 1086.23 793.23 C 1092.75 785.75 1100.07 780.10 1106.75 772.75 C 1113.42 765.39 1120.67 758.84 1127.75 751.75 C 1134.83 744.66 1141.30 738.26 1148.25 731.25 C 1155.19 724.23 1162.41 717.26 1169.25 710.25 C 1176.08 703.23 1184.04 696.46 1189.00 689.00
C 1168.02 669.23 1145.19 649.43 1126.00 627.00
C 1098.43 651.16 1071.12 681.03 1045.00 707.00
C 1059.24 669.21 1068.52 623.13 1045.77 585.23 C 1023.02 547.33 981.10 521.48 937.00 523.00
C 938.99 499.06 937.79 474.43 938.00 450.00 C 938.21 425.57 937.98 401.57 938.00 377.00 C 938.02 352.43 938.16 327.75 938.00 303.00 C 937.84 278.25 938.46 255.11 938.00 230.00 C 937.54 204.89 909.27 212.63 888.00 212.00 C 866.74 211.38 837.03 212.47 815.00 212.00
C 812.54 197.83 822.23 173.39 805.25 169.80 C 788.27 166.21 768.94 170.83 751.00 169.00
M 790.00 194.00 
C 788.36 214.42 788.32 236.61 790.00 257.00
C 720.47 257.01 649.83 256.99 581.00 257.00
C 581.00 236.00 581.00 215.00 581.00 194.00
C 597.81 194.74 621.17 196.97 636.75 193.74 C 652.34 190.51 641.88 174.16 644.20 162.75 C 646.52 151.34 653.41 137.02 666.03 131.03 C 678.65 125.05 689.41 124.36 702.23 130.77 C 715.06 137.18 720.77 147.80 724.39 158.75 C 728.02 169.70 718.14 190.74 733.25 193.80 C 748.36 196.86 773.50 194.82 790.00 194.00
M 555.00 237.00 
C 558.68 250.24 546.28 280.70 565.25 282.80 C 584.22 284.90 605.45 282.28 625.00 283.00 C 644.55 283.72 666.30 282.85 686.00 283.00 C 705.70 283.15 726.46 283.34 746.00 283.00 C 765.54 282.66 786.44 284.41 805.22 282.22 C 824.00 280.03 811.22 251.22 815.00 237.00
C 847.33 237.00 879.67 237.00 912.00 237.00
C 912.00 333.00 912.00 429.00 912.00 525.00
C 898.22 525.41 884.41 534.33 873.00 541.00
C 873.92 523.57 871.77 503.13 873.00 486.00 C 874.23 468.87 870.68 445.95 873.00 430.00 C 875.32 414.05 866.54 400.90 852.30 408.31 C 838.06 415.71 850.06 442.70 846.00 456.00
C 836.78 443.03 824.41 434.75 811.25 429.74 C 798.09 424.72 781.95 426.98 767.25 427.40 C 752.56 427.82 745.16 438.01 749.60 451.75 C 754.05 465.50 757.06 475.93 767.30 487.70 C 777.55 499.47 789.93 508.57 803.23 512.77 C 816.53 516.97 832.51 517.94 846.00 514.00
C 846.58 520.40 848.65 532.67 847.00 539.00 C 845.35 545.33 837.42 534.61 832.78 533.22 C 828.13 531.84 822.49 527.43 816.75 526.20 C 811.01 524.97 809.41 523.49 801.97 523.02 C 794.53 522.55 792.08 521.74 781.00 522.00 C 769.92 522.26 756.00 524.79 746.75 527.19 C 737.50 529.60 736.95 531.63 730.25 533.59 C 723.56 535.56 718.63 539.77 713.70 542.70 C 708.78 545.63 703.92 548.07 698.97 551.97 C 694.03 555.88 690.49 560.67 686.10 565.10 C 681.70 569.53 677.23 575.34 674.68 580.68 C 672.13 586.02 667.75 590.60 666.25 596.25 C 664.74 601.89 662.75 606.91 661.24 612.25 C 659.74 617.58 660.56 621.73 659.80 627.25 C 659.04 632.76 658.22 643.01 659.00 650.00 C 659.78 656.99 658.92 659.16 660.20 666.25 C 661.48 673.33 661.83 673.48 663.80 682.25 C 665.77 691.01 669.89 702.49 672.39 710.75 C 674.90 719.01 676.62 718.20 678.39 724.75 C 680.17 731.30 684.42 733.41 686.77 740.23 C 689.12 747.05 693.42 751.53 696.71 757.30 C 699.99 763.06 702.70 768.41 706.32 773.68 C 709.94 778.95 714.78 783.05 718.00 789.00
C 705.19 789.00 692.86 789.00 680.00 789.00 C 667.14 789.00 653.92 789.01 641.00 789.00 C 628.08 788.99 614.92 789.02 602.00 789.00 C 589.08 788.98 575.87 789.04 563.00 789.00 C 550.13 788.96 536.72 789.08 524.00 789.00 C 511.28 788.92 498.49 789.18 486.00 789.00 C 473.51 788.82 457.29 793.92 459.00 779.00 C 460.71 764.08 458.11 753.81 459.00 740.00 C 459.89 726.19 458.34 714.24 459.00 701.00 C 459.66 687.76 458.12 674.84 459.00 662.00 C 459.88 649.16 460.22 638.00 460.00 625.00 C 459.78 612.00 460.10 598.99 460.00 586.00 C 459.90 573.01 460.05 559.98 460.00 547.00 C 459.95 534.02 460.02 520.96 460.00 508.00 C 459.98 495.04 460.01 481.91 460.00 469.00 C 459.99 456.09 460.01 443.91 460.00 431.00 C 459.99 418.09 460.02 404.95 460.00 392.00 C 459.98 379.05 460.05 365.95 460.00 353.00 C 459.95 340.05 460.11 326.92 460.00 314.00 C 459.89 301.08 460.23 287.84 460.00 275.00 C 459.77 262.16 460.96 249.37 459.00 237.00
C 491.00 237.00 523.00 237.00 555.00 237.00
M 775.00 450.00 
C 784.82 449.11 792.97 449.44 801.70 452.31 C 810.43 455.18 815.24 458.56 822.75 465.25 C 830.25 471.95 830.93 476.67 836.20 486.25 C 841.46 495.82 829.19 493.49 820.78 492.22 C 812.37 490.96 808.83 490.21 802.70 486.30 C 796.57 482.38 788.97 477.83 784.30 470.70 C 779.63 463.57 776.93 457.02 775.00 450.00
M 772.00 545.00 
C 789.38 542.04 804.39 548.72 819.25 552.19 C 834.11 555.66 847.80 582.61 862.68 581.34 C 877.56 580.06 887.68 556.89 903.75 552.61 C 919.83 548.32 938.71 540.87 956.25 546.20 C 973.78 551.52 985.20 555.40 999.03 565.97 C 1012.86 576.54 1023.80 593.68 1028.59 608.75 C 1033.38 623.82 1034.13 643.08 1031.80 659.25 C 1029.48 675.41 1025.19 686.84 1019.20 702.25 C 1013.21 717.66 1003.34 732.10 994.30 746.30 C 985.25 760.49 972.95 776.87 960.25 789.25 C 947.55 801.63 931.45 817.09 918.08 822.13 C 904.71 827.17 886.99 836.31 872.90 824.10 C 858.82 811.88 842.65 830.16 825.00 829.00 C 807.35 827.84 798.41 822.00 784.90 814.10 C 771.39 806.19 756.23 790.91 744.75 778.25 C 733.27 765.60 721.16 747.26 713.08 732.92 C 704.99 718.59 700.68 709.82 695.81 694.75 C 690.93 679.69 686.07 666.55 685.35 649.31 C 684.64 632.06 686.52 616.91 692.80 601.75 C 699.08 586.59 715.01 569.22 729.25 561.25 C 743.49 553.28 755.16 547.87 772.00 545.00 Z"/>
</g>
<g fill="None" fill-opacity="0.0" stroke="#000000" stroke-opacity="0.00" stroke-width="0.3"><path d="
M 790.00 194.00 
C 773.50 194.82 748.36 196.86 733.25 193.80 C 718.14 190.74 728.02 169.70 724.39 158.75 C 720.77 147.80 715.06 137.18 702.23 130.77 C 689.41 124.36 678.65 125.05 666.03 131.03 C 653.41 137.02 646.52 151.34 644.20 162.75 C 641.88 174.16 652.34 190.51 636.75 193.74 C 621.17 196.97 597.81 194.74 581.00 194.00
C 581.00 215.00 581.00 236.00 581.00 257.00
C 649.83 256.99 720.47 257.01 790.00 257.00
C 788.32 236.61 788.36 214.42 790.00 194.00 Z"/>
</g>
<g fill="None" fill-opacity="0.0" stroke="#000000" stroke-opacity="0.00" stroke-width="0.3"><path d="
M 555.00 237.00 
C 523.00 237.00 491.00 237.00 459.00 237.00
C 460.96 249.37 459.77 262.16 460.00 275.00 C 460.23 287.84 459.89 301.08 460.00 314.00 C 460.11 326.92 459.95 340.05 460.00 353.00 C 460.05 365.95 459.98 379.05 460.00 392.00 C 460.02 404.95 459.99 418.09 460.00 431.00 C 460.01 443.91 459.99 456.09 460.00 469.00 C 460.01 481.91 459.98 495.04 460.00 508.00 C 460.02 520.96 459.95 534.02 460.00 547.00 C 460.05 559.98 459.90 573.01 460.00 586.00 C 460.10 598.99 459.78 612.00 460.00 625.00 C 460.22 638.00 459.88 649.16 459.00 662.00 C 458.12 674.84 459.66 687.76 459.00 701.00 C 458.34 714.24 459.89 726.19 459.00 740.00 C 458.11 753.81 460.71 764.08 459.00 779.00 C 457.29 793.92 473.51 788.82 486.00 789.00 C 498.49 789.18 511.28 788.92 524.00 789.00 C 536.72 789.08 550.13 788.96 563.00 789.00 C 575.87 789.04 589.08 788.98 602.00 789.00 C 614.92 789.02 628.08 788.99 641.00 789.00 C 653.92 789.01 667.14 789.00 680.00 789.00 C 692.86 789.00 705.19 789.00 718.00 789.00
C 714.78 783.05 709.94 778.95 706.32 773.68 C 702.70 768.41 699.99 763.06 696.71 757.30 C 693.42 751.53 689.12 747.05 686.77 740.23 C 684.42 733.41 680.17 731.30 678.39 724.75 C 676.62 718.20 674.90 719.01 672.39 710.75 C 669.89 702.49 665.77 691.01 663.80 682.25 C 661.83 673.48 661.48 673.33 660.20 666.25 C 658.92 659.16 659.78 656.99 659.00 650.00 C 658.22 643.01 659.04 632.76 659.80 627.25 C 660.56 621.73 659.74 617.58 661.24 612.25 C 662.75 606.91 664.74 601.89 666.25 596.25 C 667.75 590.60 672.13 586.02 674.68 580.68 C 677.23 575.34 681.70 569.53 686.10 565.10 C 690.49 560.67 694.03 555.88 698.97 551.97 C 703.92 548.07 708.78 545.63 713.70 542.70 C 718.63 539.77 723.56 535.56 730.25 533.59 C 736.95 531.63 737.50 529.60 746.75 527.19 C 756.00 524.79 769.92 522.26 781.00 522.00 C 792.08 521.74 794.53 522.55 801.97 523.02 C 809.41 523.49 811.01 524.97 816.75 526.20 C 822.49 527.43 828.13 531.84 832.78 533.22 C 837.42 534.61 845.35 545.33 847.00 539.00 C 848.65 532.67 846.58 520.40 846.00 514.00
C 832.51 517.94 816.53 516.97 803.23 512.77 C 789.93 508.57 777.55 499.47 767.30 487.70 C 757.06 475.93 754.05 465.50 749.60 451.75 C 745.16 438.01 752.56 427.82 767.25 427.40 C 781.95 426.98 798.09 424.72 811.25 429.74 C 824.41 434.75 836.78 443.03 846.00 456.00
C 850.06 442.70 838.06 415.71 852.30 408.31 C 866.54 400.90 875.32 414.05 873.00 430.00 C 870.68 445.95 874.23 468.87 873.00 486.00 C 871.77 503.13 873.92 523.57 873.00 541.00
C 884.41 534.33 898.22 525.41 912.00 525.00
C 912.00 429.00 912.00 333.00 912.00 237.00
C 879.67 237.00 847.33 237.00 815.00 237.00
C 811.22 251.22 824.00 280.03 805.22 282.22 C 786.44 284.41 765.54 282.66 746.00 283.00 C 726.46 283.34 705.70 283.15 686.00 283.00 C 666.30 282.85 644.55 283.72 625.00 283.00 C 605.45 282.28 584.22 284.90 565.25 282.80 C 546.28 280.70 558.68 250.24 555.00 237.00
M 832.00 354.00 
C 843.36 355.92 850.74 377.29 832.92 378.93 C 815.10 380.57 792.81 378.24 774.00 379.00 C 755.19 379.76 734.24 378.51 715.00 379.00 C 695.76 379.49 675.39 378.45 656.00 379.00 C 636.61 379.55 616.35 378.03 597.00 379.00 C 577.65 379.97 557.10 376.97 538.00 379.00 C 518.90 381.03 517.88 354.51 537.07 354.07 C 556.26 353.64 576.57 354.04 596.00 354.00 C 615.43 353.96 635.48 353.78 655.00 354.00 C 674.52 354.22 694.49 353.38 714.00 354.00 C 733.51 354.62 753.61 352.55 773.00 354.00 C 792.39 355.45 812.90 350.77 832.00 354.00
M 531.00 459.00 
C 543.44 455.30 560.94 460.51 575.00 459.00 C 589.06 457.49 607.98 459.49 622.00 459.00 C 636.02 458.51 656.13 458.78 669.00 459.00 C 681.87 459.22 698.52 454.83 699.93 470.08 C 701.35 485.33 680.87 483.71 668.00 483.00 C 655.13 482.29 634.89 483.61 621.00 483.00 C 607.11 482.39 588.86 483.92 575.00 483.00 C 561.14 482.08 542.57 485.01 530.25 482.61 C 517.93 480.20 521.72 461.76 531.00 459.00
M 532.00 569.00 
C 544.41 566.52 564.66 569.48 578.00 569.00 C 591.34 568.52 613.43 567.73 624.75 569.40 C 636.07 571.06 635.29 591.19 623.25 592.39 C 611.21 593.60 590.77 595.05 577.00 594.00 C 563.23 592.95 543.46 596.20 530.75 592.80 C 518.05 589.41 521.81 571.04 532.00 569.00 Z"/>
</g>
<g fill="None" fill-opacity="0.0" stroke="#000000" stroke-opacity="0.96" stroke-width="0.3"><path d="
M 832.00 354.00 
C 812.90 350.77 792.39 355.45 773.00 354.00 C 753.61 352.55 733.51 354.62 714.00 354.00 C 694.49 353.38 674.52 354.22 655.00 354.00 C 635.48 353.78 615.43 353.96 596.00 354.00 C 576.57 354.04 556.26 353.64 537.07 354.07 C 517.88 354.51 518.90 381.03 538.00 379.00 C 557.10 376.97 577.65 379.97 597.00 379.00 C 616.35 378.03 636.61 379.55 656.00 379.00 C 675.39 378.45 695.76 379.49 715.00 379.00 C 734.24 378.51 755.19 379.76 774.00 379.00 C 792.81 378.24 815.10 380.57 832.92 378.93 C 850.74 377.29 843.36 355.92 832.00 354.00 Z"/>
</g>
<g fill="None" fill-opacity="0.0" stroke="#000000" stroke-opacity="0.03" stroke-width="0.3"><path d="
M 775.00 450.00 
C 776.93 457.02 779.63 463.57 784.30 470.70 C 788.97 477.83 796.57 482.38 802.70 486.30 C 808.83 490.21 812.37 490.96 820.78 492.22 C 829.19 493.49 841.46 495.82 836.20 486.25 C 830.93 476.67 830.25 471.95 822.75 465.25 C 815.24 458.56 810.43 455.18 801.70 452.31 C 792.97 449.44 784.82 449.11 775.00 450.00 Z"/>
</g>
<g fill="None" fill-opacity="0.0" stroke="#000000" stroke-opacity="0.99" stroke-width="0.3"><path d="
M 531.00 459.00 
C 521.72 461.76 517.93 480.20 530.25 482.61 C 542.57 485.01 561.14 482.08 575.00 483.00 C 588.86 483.92 607.11 482.39 621.00 483.00 C 634.89 483.61 655.13 482.29 668.00 483.00 C 680.87 483.71 701.35 485.33 699.93 470.08 C 698.52 454.83 681.87 459.22 669.00 459.00 C 656.13 458.78 636.02 458.51 622.00 459.00 C 607.98 459.49 589.06 457.49 575.00 459.00 C 560.94 460.51 543.44 455.30 531.00 459.00 Z"/>
</g>
<g fill="None" fill-opacity="0.0" stroke="#000000" stroke-opacity="0.00" stroke-width="0.3"><path d="
M 772.00 545.00 
C 755.16 547.87 743.49 553.28 729.25 561.25 C 715.01 569.22 699.08 586.59 692.80 601.75 C 686.52 616.91 684.64 632.06 685.35 649.31 C 686.07 666.55 690.93 679.69 695.81 694.75 C 700.68 709.82 704.99 718.59 713.08 732.92 C 721.16 747.26 733.27 765.60 744.75 778.25 C 756.23 790.91 771.39 806.19 784.90 814.10 C 798.41 822.00 807.35 827.84 825.00 829.00 C 842.65 830.16 858.82 811.88 872.90 824.10 C 886.99 836.31 904.71 827.17 918.08 822.13 C 931.45 817.09 947.55 801.63 960.25 789.25 C 972.95 776.87 985.25 760.49 994.30 746.30 C 1003.34 732.10 1013.21 717.66 1019.20 702.25 C 1025.19 686.84 1029.48 675.41 1031.80 659.25 C 1034.13 643.08 1033.38 623.82 1028.59 608.75 C 1023.80 593.68 1012.86 576.54 999.03 565.97 C 985.20 555.40 973.78 551.52 956.25 546.20 C 938.71 540.87 919.83 548.32 903.75 552.61 C 887.68 556.89 877.56 580.06 862.68 581.34 C 847.80 582.61 834.11 555.66 819.25 552.19 C 804.39 548.72 789.38 542.04 772.00 545.00 Z"/>
</g>
<g fill="None" fill-opacity="0.0" stroke="#000000" stroke-opacity="0.96" stroke-width="0.3"><path d="
M 532.00 569.00 
C 521.81 571.04 518.05 589.41 530.75 592.80 C 543.46 596.20 563.23 592.95 577.00 594.00 C 590.77 595.05 611.21 593.60 623.25 592.39 C 635.29 591.19 636.07 571.06 624.75 569.40 C 613.43 567.73 591.34 568.52 578.00 569.00 C 564.66 569.48 544.41 566.52 532.00 569.00 Z"/>
</g>
<g fill="None" fill-opacity="0.0" stroke="#000000" stroke-opacity="0.99" stroke-width="0.3"><path d="
M 1197.00 682.00 
C 1207.87 668.64 1225.34 659.19 1233.61 644.75 C 1241.87 630.31 1223.05 613.88 1212.25 603.75 C 1201.45 593.62 1185.31 573.61 1171.22 583.22 C 1157.14 592.84 1147.33 607.65 1134.00 619.00
C 1153.72 639.87 1177.06 661.28 1197.00 682.00 Z"/>
</g>
<g fill="None" fill-opacity="0.0" stroke="#000000" stroke-opacity="0.93" stroke-width="0.3"><path d="
M 931.00 873.00 
C 924.81 879.40 925.90 889.96 921.00 898.00
C 930.26 895.55 937.74 891.31 947.00 891.00
C 943.73 884.45 934.97 879.10 931.00 873.00 Z"/>
</g>
<g fill="#000000" fill-opacity="0.00" stroke="None">
<path d="
M 0.00 1024.00 
L 1536.00 1024.00
L 1536.00 0.00
L 0.00 0.00
L 0.00 1024.00
M 751.00 169.00 
C 768.94 170.83 788.27 166.21 805.25 169.80 C 822.23 173.39 812.54 197.83 815.00 212.00
C 837.03 212.47 866.74 211.38 888.00 212.00 C 909.27 212.63 937.54 204.89 938.00 230.00 C 938.46 255.11 937.84 278.25 938.00 303.00 C 938.16 327.75 938.02 352.43 938.00 377.00 C 937.98 401.57 938.21 425.57 938.00 450.00 C 937.79 474.43 938.99 499.06 937.00 523.00
C 981.10 521.48 1023.02 547.33 1045.77 585.23 C 1068.52 623.13 1059.24 669.21 1045.00 707.00
C 1071.12 681.03 1098.43 651.16 1126.00 627.00
C 1145.19 649.43 1168.02 669.23 1189.00 689.00
C 1184.04 696.46 1176.08 703.23 1169.25 710.25 C 1162.41 717.26 1155.19 724.23 1148.25 731.25 C 1141.30 738.26 1134.83 744.66 1127.75 751.75 C 1120.67 758.84 1113.42 765.39 1106.75 772.75 C 1100.07 780.10 1092.75 785.75 1086.23 793.23 C 1079.72 800.71 1072.04 806.60 1065.25 814.25 C 1058.46 821.90 1051.71 826.38 1044.75 834.75 C 1037.79 843.12 1030.90 845.78 1023.75 855.75 C 1016.61 865.73 1008.95 861.24 1002.75 852.25 C 996.54 843.26 988.31 839.48 981.25 831.75 C 974.19 824.03 967.40 817.98 960.00 811.00
C 959.15 814.66 955.24 817.48 952.00 819.00
C 969.16 836.84 988.42 855.33 1006.00 872.00
C 996.90 874.91 987.46 877.51 978.92 879.93 C 970.37 882.36 958.34 889.26 952.70 879.30 C 947.06 869.33 931.63 866.20 934.19 856.75 C 936.76 847.30 940.80 839.43 943.00 829.00
C 934.50 836.24 927.20 842.23 918.70 846.71 C 910.19 851.19 901.28 851.25 891.00 853.00 C 880.72 854.74 870.35 848.61 861.90 845.10 C 853.45 841.59 846.96 853.85 837.30 852.31 C 827.65 850.77 818.41 853.80 809.25 850.61 C 800.09 847.41 792.50 846.99 782.77 841.23 C 773.04 835.47 763.98 832.65 755.90 824.10 C 747.83 815.55 732.79 817.93 719.00 818.00 C 705.21 818.07 689.38 817.95 675.00 818.00 C 660.62 818.05 644.64 817.93 630.00 818.00 C 615.36 818.07 600.77 817.86 586.00 818.00 C 571.23 818.14 555.86 817.70 541.00 818.00 C 526.14 818.30 511.96 817.33 497.00 818.00 C 482.04 818.67 468.26 816.51 453.00 818.00 C 437.74 819.49 432.53 810.79 434.00 796.00 C 435.47 781.21 433.35 766.81 434.00 752.00 C 434.65 737.19 433.70 721.80 434.00 707.00 C 434.30 692.20 433.86 677.77 434.00 663.00 C 434.14 648.23 433.94 633.81 434.00 619.00 C 434.06 604.19 433.97 588.82 434.00 574.00 C 434.03 559.18 433.98 544.82 434.00 530.00 C 434.02 515.18 433.97 499.82 434.00 485.00 C 434.03 470.18 433.95 455.80 434.00 441.00 C 434.05 426.20 433.89 410.76 434.00 396.00 C 434.11 381.24 433.75 366.65 434.00 352.00 C 434.25 337.35 433.44 322.53 434.00 308.00 C 434.56 293.47 432.79 277.23 434.00 263.00 C 435.21 248.77 431.14 233.78 434.20 220.75 C 437.25 207.73 453.55 212.73 466.00 212.00 C 478.45 211.27 496.36 212.37 510.00 212.00 C 523.64 211.63 541.02 212.28 555.00 212.00
C 557.02 199.14 548.87 173.04 564.75 169.74 C 580.63 166.44 600.49 169.85 617.00 170.00
C 614.40 133.16 648.50 102.00 684.00 102.00 C 719.51 102.00 754.45 132.45 751.00 169.00
M 1197.00 682.00 
C 1177.06 661.28 1153.72 639.87 1134.00 619.00
C 1147.33 607.65 1157.14 592.84 1171.22 583.22 C 1185.31 573.61 1201.45 593.62 1212.25 603.75 C 1223.05 613.88 1241.87 630.31 1233.61 644.75 C 1225.34 659.19 1207.87 668.64 1197.00 682.00
M 931.00 873.00 
C 934.97 879.10 943.73 884.45 947.00 891.00
C 937.74 891.31 930.26 895.55 921.00 898.00
C 925.90 889.96 924.81 879.40 931.00 873.00 Z"/>
</g>
<g fill="#000000" fill-opacity="0.98" stroke="None">
<path d="
M 751.00 169.00 
C 754.45 132.45 719.51 102.00 684.00 102.00 C 648.50 102.00 614.40 133.16 617.00 170.00
C 600.49 169.85 580.63 166.44 564.75 169.74 C 548.87 173.04 557.02 199.14 555.00 212.00
C 541.02 212.28 523.64 211.63 510.00 212.00 C 496.36 212.37 478.45 211.27 466.00 212.00 C 453.55 212.73 437.25 207.73 434.20 220.75 C 431.14 233.78 435.21 248.77 434.00 263.00 C 432.79 277.23 434.56 293.47 434.00 308.00 C 433.44 322.53 434.25 337.35 434.00 352.00 C 433.75 366.65 434.11 381.24 434.00 396.00 C 433.89 410.76 434.05 426.20 434.00 441.00 C 433.95 455.80 434.03 470.18 434.00 485.00 C 433.97 499.82 434.02 515.18 434.00 530.00 C 433.98 544.82 434.03 559.18 434.00 574.00 C 433.97 588.82 434.06 604.19 434.00 619.00 C 433.94 633.81 434.14 648.23 434.00 663.00 C 433.86 677.77 434.30 692.20 434.00 707.00 C 433.70 721.80 434.65 737.19 434.00 752.00 C 433.35 766.81 435.47 781.21 434.00 796.00 C 432.53 810.79 437.74 819.49 453.00 818.00 C 468.26 816.51 482.04 818.67 497.00 818.00 C 511.96 817.33 526.14 818.30 541.00 818.00 C 555.86 817.70 571.23 818.14 586.00 818.00 C 600.77 817.86 615.36 818.07 630.00 818.00 C 644.64 817.93 660.62 818.05 675.00 818.00 C 689.38 817.95 705.21 818.07 719.00 818.00 C 732.79 817.93 747.83 815.55 755.90 824.10 C 763.98 832.65 773.04 835.47 782.77 841.23 C 792.50 846.99 800.09 847.41 809.25 850.61 C 818.41 853.80 827.65 850.77 837.30 852.31 C 846.96 853.85 853.45 841.59 861.90 845.10 C 870.35 848.61 880.72 854.74 891.00 853.00 C 901.28 851.25 910.19 851.19 918.70 846.71 C 927.20 842.23 934.50 836.24 943.00 829.00
C 940.80 839.43 936.76 847.30 934.19 856.75 C 931.63 866.20 947.06 869.33 952.70 879.30 C 958.34 889.26 970.37 882.36 978.92 879.93 C 987.46 877.51 996.90 874.91 1006.00 872.00
C 988.42 855.33 969.16 836.84 952.00 819.00
C 955.24 817.48 959.15 814.66 960.00 811.00
C 967.40 817.98 974.19 824.03 981.25 831.75 C 988.31 839.48 996.54 843.26 1002.75 852.25 C 1008.95 861.24 1016.61 865.73 1023.75 855.75 C 1030.90 845.78 1037.79 843.12 1044.75 834.75 C 1051.71 826.38 1058.46 821.90 1065.25 814.25 C 1072.04 806.60 1079.72 800.71 1086.23 793.23 C 1092.75 785.75 1100.07 780.10 1106.75 772.75 C 1113.42 765.39 1120.67 758.84 1127.75 751.75 C 1134.83 744.66 1141.30 738.26 1148.25 731.25 C 1155.19 724.23 1162.41 717.26 1169.25 710.25 C 1176.08 703.23 1184.04 696.46 1189.00 689.00
C 1168.02 669.23 1145.19 649.43 1126.00 627.00
C 1098.43 651.16 1071.12 681.03 1045.00 707.00
C 1059.24 669.21 1068.52 623.13 1045.77 585.23 C 1023.02 547.33 981.10 521.48 937.00 523.00
C 938.99 499.06 937.79 474.43 938.00 450.00 C 938.21 425.57 937.98 401.57 938.00 377.00 C 938.02 352.43 938.16 327.75 938.00 303.00 C 937.84 278.25 938.46 255.11 938.00 230.00 C 937.54 204.89 909.27 212.63 888.00 212.00 C 866.74 211.38 837.03 212.47 815.00 212.00
C 812.54 197.83 822.23 173.39 805.25 169.80 C 788.27 166.21 768.94 170.83 751.00 169.00
M 790.00 194.00 
C 788.36 214.42 788.32 236.61 790.00 257.00
C 720.47 257.01 649.83 256.99 581.00 257.00
C 581.00 236.00 581.00 215.00 581.00 194.00
C 597.81 194.74 621.17 196.97 636.75 193.74 C 652.34 190.51 641.88 174.16 644.20 162.75 C 646.52 151.34 653.41 137.02 666.03 131.03 C 678.65 125.05 689.41 124.36 702.23 130.77 C 715.06 137.18 720.77 147.80 724.39 158.75 C 728.02 169.70 718.14 190.74 733.25 193.80 C 748.36 196.86 773.50 194.82 790.00 194.00
M 555.00 237.00 
C 558.68 250.24 546.28 280.70 565.25 282.80 C 584.22 284.90 605.45 282.28 625.00 283.00 C 644.55 283.72 666.30 282.85 686.00 283.00 C 705.70 283.15 726.46 283.34 746.00 283.00 C 765.54 282.66 786.44 284.41 805.22 282.22 C 824.00 280.03 811.22 251.22 815.00 237.00
C 847.33 237.00 879.67 237.00 912.00 237.00
C 912.00 333.00 912.00 429.00 912.00 525.00
C 898.22 525.41 884.41 534.33 873.00 541.00
C 873.92 523.57 871.77 503.13 873.00 486.00 C 874.23 468.87 870.68 445.95 873.00 430.00 C 875.32 414.05 866.54 400.90 852.30 408.31 C 838.06 415.71 850.06 442.70 846.00 456.00
C 836.78 443.03 824.41 434.75 811.25 429.74 C 798.09 424.72 781.95 426.98 767.25 427.40 C 752.56 427.82 745.16 438.01 749.60 451.75 C 754.05 465.50 757.06 475.93 767.30 487.70 C 777.55 499.47 789.93 508.57 803.23 512.77 C 816.53 516.97 832.51 517.94 846.00 514.00
C 846.58 520.40 848.65 532.67 847.00 539.00 C 845.35 545.33 837.42 534.61 832.78 533.22 C 828.13 531.84 822.49 527.43 816.75 526.20 C 811.01 524.97 809.41 523.49 801.97 523.02 C 794.53 522.55 792.08 521.74 781.00 522.00 C 769.92 522.26 756.00 524.79 746.75 527.19 C 737.50 529.60 736.95 531.63 730.25 533.59 C 723.56 535.56 718.63 539.77 713.70 542.70 C 708.78 545.63 703.92 548.07 698.97 551.97 C 694.03 555.88 690.49 560.67 686.10 565.10 C 681.70 569.53 677.23 575.34 674.68 580.68 C 672.13 586.02 667.75 590.60 666.25 596.25 C 664.74 601.89 662.75 606.91 661.24 612.25 C 659.74 617.58 660.56 621.73 659.80 627.25 C 659.04 632.76 658.22 643.01 659.00 650.00 C 659.78 656.99 658.92 659.16 660.20 666.25 C 661.48 673.33 661.83 673.48 663.80 682.25 C 665.77 691.01 669.89 702.49 672.39 710.75 C 674.90 719.01 676.62 718.20 678.39 724.75 C 680.17 731.30 684.42 733.41 686.77 740.23 C 689.12 747.05 693.42 751.53 696.71 757.30 C 699.99 763.06 702.70 768.41 706.32 773.68 C 709.94 778.95 714.78 783.05 718.00 789.00
C 705.19 789.00 692.86 789.00 680.00 789.00 C 667.14 789.00 653.92 789.01 641.00 789.00 C 628.08 788.99 614.92 789.02 602.00 789.00 C 589.08 788.98 575.87 789.04 563.00 789.00 C 550.13 788.96 536.72 789.08 524.00 789.00 C 511.28 788.92 498.49 789.18 486.00 789.00 C 473.51 788.82 457.29 793.92 459.00 779.00 C 460.71 764.08 458.11 753.81 459.00 740.00 C 459.89 726.19 458.34 714.24 459.00 701.00 C 459.66 687.76 458.12 674.84 459.00 662.00 C 459.88 649.16 460.22 638.00 460.00 625.00 C 459.78 612.00 460.10 598.99 460.00 586.00 C 459.90 573.01 460.05 559.98 460.00 547.00 C 459.95 534.02 460.02 520.96 460.00 508.00 C 459.98 495.04 460.01 481.91 460.00 469.00 C 459.99 456.09 460.01 443.91 460.00 431.00 C 459.99 418.09 460.02 404.95 460.00 392.00 C 459.98 379.05 460.05 365.95 460.00 353.00 C 459.95 340.05 460.11 326.92 460.00 314.00 C 459.89 301.08 460.23 287.84 460.00 275.00 C 459.77 262.16 460.96 249.37 459.00 237.00
C 491.00 237.00 523.00 237.00 555.00 237.00
M 775.00 450.00 
C 784.82 449.11 792.97 449.44 801.70 452.31 C 810.43 455.18 815.24 458.56 822.75 465.25 C 830.25 471.95 830.93 476.67 836.20 486.25 C 841.46 495.82 829.19 493.49 820.78 492.22 C 812.37 490.96 808.83 490.21 802.70 486.30 C 796.57 482.38 788.97 477.83 784.30 470.70 C 779.63 463.57 776.93 457.02 775.00 450.00
M 772.00 545.00 
C 789.38 542.04 804.39 548.72 819.25 552.19 C 834.11 555.66 847.80 582.61 862.68 581.34 C 877.56 580.06 887.68 556.89 903.75 552.61 C 919.83 548.32 938.71 540.87 956.25 546.20 C 973.78 551.52 985.20 555.40 999.03 565.97 C 1012.86 576.54 1023.80 593.68 1028.59 608.75 C 1033.38 623.82 1034.13 643.08 1031.80 659.25 C 1029.48 675.41 1025.19 686.84 1019.20 702.25 C 1013.21 717.66 1003.34 732.10 994.30 746.30 C 985.25 760.49 972.95 776.87 960.25 789.25 C 947.55 801.63 931.45 817.09 918.08 822.13 C 904.71 827.17 886.99 836.31 872.90 824.10 C 858.82 811.88 842.65 830.16 825.00 829.00 C 807.35 827.84 798.41 822.00 784.90 814.10 C 771.39 806.19 756.23 790.91 744.75 778.25 C 733.27 765.60 721.16 747.26 713.08 732.92 C 704.99 718.59 700.68 709.82 695.81 694.75 C 690.93 679.69 686.07 666.55 685.35 649.31 C 684.64 632.06 686.52 616.91 692.80 601.75 C 699.08 586.59 715.01 569.22 729.25 561.25 C 743.49 553.28 755.16 547.87 772.00 545.00 Z"/>
</g>
<g fill="#000000" fill-opacity="0.00" stroke="None">
<path d="
M 790.00 194.00 
C 773.50 194.82 748.36 196.86 733.25 193.80 C 718.14 190.74 728.02 169.70 724.39 158.75 C 720.77 147.80 715.06 137.18 702.23 130.77 C 689.41 124.36 678.65 125.05 666.03 131.03 C 653.41 137.02 646.52 151.34 644.20 162.75 C 641.88 174.16 652.34 190.51 636.75 193.74 C 621.17 196.97 597.81 194.74 581.00 194.00
C 581.00 215.00 581.00 236.00 581.00 257.00
C 649.83 256.99 720.47 257.01 790.00 257.00
C 788.32 236.61 788.36 214.42 790.00 194.00 Z"/>
</g>
<g fill="#000000" fill-opacity="0.00" stroke="None">
<path d="
M 555.00 237.00 
C 523.00 237.00 491.00 237.00 459.00 237.00
C 460.96 249.37 459.77 262.16 460.00 275.00 C 460.23 287.84 459.89 301.08 460.00 314.00 C 460.11 326.92 459.95 340.05 460.00 353.00 C 460.05 365.95 459.98 379.05 460.00 392.00 C 460.02 404.95 459.99 418.09 460.00 431.00 C 460.01 443.91 459.99 456.09 460.00 469.00 C 460.01 481.91 459.98 495.04 460.00 508.00 C 460.02 520.96 459.95 534.02 460.00 547.00 C 460.05 559.98 459.90 573.01 460.00 586.00 C 460.10 598.99 459.78 612.00 460.00 625.00 C 460.22 638.00 459.88 649.16 459.00 662.00 C 458.12 674.84 459.66 687.76 459.00 701.00 C 458.34 714.24 459.89 726.19 459.00 740.00 C 458.11 753.81 460.71 764.08 459.00 779.00 C 457.29 793.92 473.51 788.82 486.00 789.00 C 498.49 789.18 511.28 788.92 524.00 789.00 C 536.72 789.08 550.13 788.96 563.00 789.00 C 575.87 789.04 589.08 788.98 602.00 789.00 C 614.92 789.02 628.08 788.99 641.00 789.00 C 653.92 789.01 667.14 789.00 680.00 789.00 C 692.86 789.00 705.19 789.00 718.00 789.00
C 714.78 783.05 709.94 778.95 706.32 773.68 C 702.70 768.41 699.99 763.06 696.71 757.30 C 693.42 751.53 689.12 747.05 686.77 740.23 C 684.42 733.41 680.17 731.30 678.39 724.75 C 676.62 718.20 674.90 719.01 672.39 710.75 C 669.89 702.49 665.77 691.01 663.80 682.25 C 661.83 673.48 661.48 673.33 660.20 666.25 C 658.92 659.16 659.78 656.99 659.00 650.00 C 658.22 643.01 659.04 632.76 659.80 627.25 C 660.56 621.73 659.74 617.58 661.24 612.25 C 662.75 606.91 664.74 601.89 666.25 596.25 C 667.75 590.60 672.13 586.02 674.68 580.68 C 677.23 575.34 681.70 569.53 686.10 565.10 C 690.49 560.67 694.03 555.88 698.97 551.97 C 703.92 548.07 708.78 545.63 713.70 542.70 C 718.63 539.77 723.56 535.56 730.25 533.59 C 736.95 531.63 737.50 529.60 746.75 527.19 C 756.00 524.79 769.92 522.26 781.00 522.00 C 792.08 521.74 794.53 522.55 801.97 523.02 C 809.41 523.49 811.01 524.97 816.75 526.20 C 822.49 527.43 828.13 531.84 832.78 533.22 C 837.42 534.61 845.35 545.33 847.00 539.00 C 848.65 532.67 846.58 520.40 846.00 514.00
C 832.51 517.94 816.53 516.97 803.23 512.77 C 789.93 508.57 777.55 499.47 767.30 487.70 C 757.06 475.93 754.05 465.50 749.60 451.75 C 745.16 438.01 752.56 427.82 767.25 427.40 C 781.95 426.98 798.09 424.72 811.25 429.74 C 824.41 434.75 836.78 443.03 846.00 456.00
C 850.06 442.70 838.06 415.71 852.30 408.31 C 866.54 400.90 875.32 414.05 873.00 430.00 C 870.68 445.95 874.23 468.87 873.00 486.00 C 871.77 503.13 873.92 523.57 873.00 541.00
C 884.41 534.33 898.22 525.41 912.00 525.00
C 912.00 429.00 912.00 333.00 912.00 237.00
C 879.67 237.00 847.33 237.00 815.00 237.00
C 811.22 251.22 824.00 280.03 805.22 282.22 C 786.44 284.41 765.54 282.66 746.00 283.00 C 726.46 283.34 705.70 283.15 686.00 283.00 C 666.30 282.85 644.55 283.72 625.00 283.00 C 605.45 282.28 584.22 284.90 565.25 282.80 C 546.28 280.70 558.68 250.24 555.00 237.00
M 832.00 354.00 
C 843.36 355.92 850.74 377.29 832.92 378.93 C 815.10 380.57 792.81 378.24 774.00 379.00 C 755.19 379.76 734.24 378.51 715.00 379.00 C 695.76 379.49 675.39 378.45 656.00 379.00 C 636.61 379.55 616.35 378.03 597.00 379.00 C 577.65 379.97 557.10 376.97 538.00 379.00 C 518.90 381.03 517.88 354.51 537.07 354.07 C 556.26 353.64 576.57 354.04 596.00 354.00 C 615.43 353.96 635.48 353.78 655.00 354.00 C 674.52 354.22 694.49 353.38 714.00 354.00 C 733.51 354.62 753.61 352.55 773.00 354.00 C 792.39 355.45 812.90 350.77 832.00 354.00
M 531.00 459.00 
C 543.44 455.30 560.94 460.51 575.00 459.00 C 589.06 457.49 607.98 459.49 622.00 459.00 C 636.02 458.51 656.13 458.78 669.00 459.00 C 681.87 459.22 698.52 454.83 699.93 470.08 C 701.35 485.33 680.87 483.71 668.00 483.00 C 655.13 482.29 634.89 483.61 621.00 483.00 C 607.11 482.39 588.86 483.92 575.00 483.00 C 561.14 482.08 542.57 485.01 530.25 482.61 C 517.93 480.20 521.72 461.76 531.00 459.00
M 532.00 569.00 
C 544.41 566.52 564.66 569.48 578.00 569.00 C 591.34 568.52 613.43 567.73 624.75 569.40 C 636.07 571.06 635.29 591.19 623.25 592.39 C 611.21 593.60 590.77 595.05 577.00 594.00 C 563.23 592.95 543.46 596.20 530.75 592.80 C 518.05 589.41 521.81 571.04 532.00 569.00 Z"/>
</g>
<g fill="#000000" fill-opacity="0.96" stroke="None">
<path d="
M 832.00 354.00 
C 812.90 350.77 792.39 355.45 773.00 354.00 C 753.61 352.55 733.51 354.62 714.00 354.00 C 694.49 353.38 674.52 354.22 655.00 354.00 C 635.48 353.78 615.43 353.96 596.00 354.00 C 576.57 354.04 556.26 353.64 537.07 354.07 C 517.88 354.51 518.90 381.03 538.00 379.00 C 557.10 376.97 577.65 379.97 597.00 379.00 C 616.35 378.03 636.61 379.55 656.00 379.00 C 675.39 378.45 695.76 379.49 715.00 379.00 C 734.24 378.51 755.19 379.76 774.00 379.00 C 792.81 378.24 815.10 380.57 832.92 378.93 C 850.74 377.29 843.36 355.92 832.00 354.00 Z"/>
</g>
<g fill="#000000" fill-opacity="0.03" stroke="None">
<path d="
M 775.00 450.00 
C 776.93 457.02 779.63 463.57 784.30 470.70 C 788.97 477.83 796.57 482.38 802.70 486.30 C 808.83 490.21 812.37 490.96 820.78 492.22 C 829.19 493.49 841.46 495.82 836.20 486.25 C 830.93 476.67 830.25 471.95 822.75 465.25 C 815.24 458.56 810.43 455.18 801.70 452.31 C 792.97 449.44 784.82 449.11 775.00 450.00 Z"/>
</g>
<g fill="#000000" fill-opacity="0.99" stroke="None">
<path d="
M 531.00 459.00 
C 521.72 461.76 517.93 480.20 530.25 482.61 C 542.57 485.01 561.14 482.08 575.00 483.00 C 588.86 483.92 607.11 482.39 621.00 483.00 C 634.89 483.61 655.13 482.29 668.00 483.00 C 680.87 483.71 701.35 485.33 699.93 470.08 C 698.52 454.83 681.87 459.22 669.00 459.00 C 656.13 458.78 636.02 458.51 622.00 459.00 C 607.98 459.49 589.06 457.49 575.00 459.00 C 560.94 460.51 543.44 455.30 531.00 459.00 Z"/>
</g>
<g fill="#000000" fill-opacity="0.00" stroke="None">
<path d="
M 772.00 545.00 
C 755.16 547.87 743.49 553.28 729.25 561.25 C 715.01 569.22 699.08 586.59 692.80 601.75 C 686.52 616.91 684.64 632.06 685.35 649.31 C 686.07 666.55 690.93 679.69 695.81 694.75 C 700.68 709.82 704.99 718.59 713.08 732.92 C 721.16 747.26 733.27 765.60 744.75 778.25 C 756.23 790.91 771.39 806.19 784.90 814.10 C 798.41 822.00 807.35 827.84 825.00 829.00 C 842.65 830.16 858.82 811.88 872.90 824.10 C 886.99 836.31 904.71 827.17 918.08 822.13 C 931.45 817.09 947.55 801.63 960.25 789.25 C 972.95 776.87 985.25 760.49 994.30 746.30 C 1003.34 732.10 1013.21 717.66 1019.20 702.25 C 1025.19 686.84 1029.48 675.41 1031.80 659.25 C 1034.13 643.08 1033.38 623.82 1028.59 608.75 C 1023.80 593.68 1012.86 576.54 999.03 565.97 C 985.20 555.40 973.78 551.52 956.25 546.20 C 938.71 540.87 919.83 548.32 903.75 552.61 C 887.68 556.89 877.56 580.06 862.68 581.34 C 847.80 582.61 834.11 555.66 819.25 552.19 C 804.39 548.72 789.38 542.04 772.00 545.00 Z"/>
</g>
<g fill="#000000" fill-opacity="0.96" stroke="None">
<path d="
M 532.00 569.00 
C 521.81 571.04 518.05 589.41 530.75 592.80 C 543.46 596.20 563.23 592.95 577.00 594.00 C 590.77 595.05 611.21 593.60 623.25 592.39 C 635.29 591.19 636.07 571.06 624.75 569.40 C 613.43 567.73 591.34 568.52 578.00 569.00 C 564.66 569.48 544.41 566.52 532.00 569.00 Z"/>
</g>
<g fill="#000000" fill-opacity="0.99" stroke="None">
<path d="
M 1197.00 682.00 
C 1207.87 668.64 1225.34 659.19 1233.61 644.75 C 1241.87 630.31 1223.05 613.88 1212.25 603.75 C 1201.45 593.62 1185.31 573.61 1171.22 583.22 C 1157.14 592.84 1147.33 607.65 1134.00 619.00
C 1153.72 639.87 1177.06 661.28 1197.00 682.00 Z"/>
</g>
<g fill="#000000" fill-opacity="0.93" stroke="None">
<path d="
M 931.00 873.00 
C 924.81 879.40 925.90 889.96 921.00 898.00
C 930.26 895.55 937.74 891.31 947.00 891.00
C 943.73 884.45 934.97 879.10 931.00 873.00 Z"/>
</g>
</svg>