<svg xmlns="http://www.w3.org/2000/svg" xmlns:v="https://svgstorm.com" viewBox="73.42 53 912.47 912.47" width="100%" height="100%">
<g fill="None" fill-opacity="0.0" stroke="#000000" stroke-opacity="0.00" stroke-width="0.3"><path d=" M 0.00 1024.00  L 1024.00 1024.00 L 1024.00 0.00 L 0.00 0.00 L 0.00 1024.00 M 767.00 629.00  C 755.55 636.67 746.20 650.74 735.00 659.00 C 737.33 517.50 735.34 374.92 736.00 233.00 C 587.59 234.67 437.38 234.67 289.00 233.00 C 290.67 416.41 290.67 601.62 289.00 785.00 C 395.92 784.34 503.50 786.33 610.00 784.00 C 600.09 793.43 595.78 804.00 583.25 812.25 C 570.72 820.50 548.49 814.75 532.00 816.00 C 515.51 817.25 494.46 815.45 477.00 816.00 C 459.54 816.55 439.85 815.78 422.00 816.00 C 404.15 816.22 384.91 815.96 367.00 816.00 C 349.09 816.04 329.70 816.11 312.00 816.00 C 294.30 815.89 274.06 816.33 257.00 816.00 C 239.94 815.67 218.28 816.94 203.25 815.61 C 188.21 814.27 186.29 810.56 174.70 803.30 C 163.12 796.03 156.46 786.16 151.81 774.75 C 147.16 763.33 146.78 751.35 147.00 735.00 C 147.22 718.65 146.90 697.45 147.00 680.00 C 147.10 662.55 146.96 642.97 147.00 625.00 C 147.04 607.03 146.98 588.24 147.00 570.00 C 147.02 551.76 146.99 532.33 147.00 514.00 C 147.01 495.67 147.00 477.31 147.00 459.00 C 147.00 440.69 147.01 422.27 147.00 404.00 C 146.99 385.73 147.03 367.19 147.00 349.00 C 146.97 330.81 147.06 312.01 147.00 294.00 C 146.94 275.99 147.13 256.61 147.00 239.00 C 146.87 221.39 147.29 200.72 147.00 184.00 C 146.71 167.28 146.46 150.09 150.76 137.75 C 155.06 125.42 160.43 115.32 172.08 108.08 C 183.73 100.84 188.53 95.64 204.22 95.22 C 219.91 94.80 240.73 96.69 258.00 96.00 C 275.27 95.31 295.14 96.31 313.00 96.00 C 330.86 95.69 349.87 96.13 368.00 96.00 C 386.13 95.87 404.73 96.05 423.00 96.00 C 441.27 95.95 459.63 96.00 478.00 96.00 C 496.37 96.00 515.63 95.95 534.00 96.00 C 552.37 96.05 570.71 95.87 589.00 96.00 C 607.29 96.13 625.82 95.69 644.00 96.00 C 662.18 96.31 681.04 95.31 699.00 96.00 C 716.96 96.69 736.52 94.48 754.00 96.00 C 771.48 97.52 766.26 116.14 767.00 132.00 C 767.74 147.86 766.67 169.69 767.00 187.00 C 767.33 204.31 766.85 225.09 767.00 243.00 C 767.15 260.91 766.93 279.85 767.00 298.00 C 767.07 316.15 766.97 334.75 767.00 353.00 C 767.03 371.25 766.99 389.69 767.00 408.00 C 767.01 426.31 766.99 444.66 767.00 463.00 C 767.01 481.34 767.00 499.61 767.00 518.00 C 767.00 536.39 767.00 554.53 767.00 573.00 C 767.00 591.47 767.00 610.48 767.00 629.00 M 563.00 346.00  C 595.52 330.36 631.74 348.56 643.59 381.75 C 655.44 414.95 631.85 454.53 599.00 459.00 C 601.45 471.25 601.83 484.52 602.00 497.00 C 602.16 509.48 604.65 525.29 604.78 537.22 C 604.91 549.16 610.20 567.33 595.30 570.64 C 580.40 573.95 560.13 571.45 543.00 572.00 C 525.88 572.55 504.65 571.84 487.00 572.00 C 469.35 572.16 449.63 572.14 432.00 572.00 C 414.37 571.86 416.00 554.15 417.33 541.33 C 418.66 528.51 417.82 513.76 419.00 500.00 C 420.18 486.24 419.96 473.30 422.00 459.00 C 410.10 456.42 398.21 451.73 389.25 439.75 C 380.28 427.78 376.49 418.11 376.00 403.00 C 375.51 387.89 379.68 373.29 389.11 362.11 C 398.54 350.92 409.10 344.69 421.75 341.41 C 434.39 338.12 449.07 343.46 460.00 345.00 C 475.80 302.08 546.01 301.23 563.00 346.00 M 861.00 683.00  C 848.47 674.51 836.53 658.14 824.25 648.41 C 811.97 638.69 798.38 624.54 790.00 613.00 C 805.85 600.37 817.18 584.91 833.03 572.03 C 848.88 559.16 867.74 578.49 879.75 591.25 C 891.76 604.00 912.85 621.86 902.07 639.08 C 891.28 656.31 871.96 665.95 861.00 683.00 M 390.00 625.00  C 407.58 621.15 429.78 626.61 449.00 625.00 C 468.22 623.39 490.70 625.47 510.00 625.00 C 529.30 624.53 552.32 624.65 571.00 625.00 C 589.68 625.35 614.79 623.44 631.67 625.33 C 648.55 627.22 646.28 652.96 631.25 653.40 C 616.22 653.84 591.21 654.24 573.00 654.00 C 554.79 653.76 531.00 654.17 512.00 654.00 C 493.00 653.83 469.90 654.20 451.00 654.00 C 432.10 653.80 408.77 654.44 392.11 653.89 C 375.44 653.34 377.67 627.70 390.00 625.00 M 780.00 625.00  C 802.54 648.75 825.55 670.62 849.00 691.00 C 842.07 700.66 833.01 709.80 823.77 718.77 C 814.53 727.74 808.02 737.03 797.92 745.92 C 787.82 754.80 783.59 763.51 771.75 772.75 C 759.92 782.00 770.33 800.84 763.29 811.30 C 756.25 821.77 731.94 817.91 720.00 817.00 C 698.11 843.27 671.58 866.07 649.00 891.00 C 640.32 887.72 633.64 877.82 624.92 871.08 C 616.20 864.34 610.43 854.37 602.23 847.77 C 594.03 841.17 585.98 831.75 578.00 826.00 C 644.62 758.47 712.68 690.61 780.00 625.00 M 635.00 897.00  C 618.97 900.77 605.60 907.57 589.00 911.00 C 585.26 905.87 579.89 899.41 574.75 895.25 C 569.60 891.09 564.14 884.62 559.00 883.00 C 563.24 866.93 567.77 853.38 571.00 837.00 C 592.99 856.57 613.14 878.16 635.00 897.00 M 576.00 914.00  C 567.39 918.86 557.56 919.67 548.00 924.00 C 550.80 914.27 553.75 906.39 555.00 896.00 C 563.18 900.10 568.44 908.73 576.00 914.00 Z"/>
</g>
<g fill="None" fill-opacity="0.0" stroke="#000000" stroke-opacity="0.98" stroke-width="0.3"><path d=" M 767.00 629.00  C 767.00 610.48 767.00 591.47 767.00 573.00 C 767.00 554.53 767.00 536.39 767.00 518.00 C 767.00 499.61 767.01 481.34 767.00 463.00 C 766.99 444.66 767.01 426.31 767.00 408.00 C 766.99 389.69 767.03 371.25 767.00 353.00 C 766.97 334.75 767.07 316.15 767.00 298.00 C 766.93 279.85 767.15 260.91 767.00 243.00 C 766.85 225.09 767.33 204.31 767.00 187.00 C 766.67 169.69 767.74 147.86 767.00 132.00 C 766.26 116.14 771.48 97.52 754.00 96.00 C 736.52 94.48 716.96 96.69 699.00 96.00 C 681.04 95.31 662.18 96.31 644.00 96.00 C 625.82 95.69 607.29 96.13 589.00 96.00 C 570.71 95.87 552.37 96.05 534.00 96.00 C 515.63 95.95 496.37 96.00 478.00 96.00 C 459.63 96.00 441.27 95.95 423.00 96.00 C 404.73 96.05 386.13 95.87 368.00 96.00 C 349.87 96.13 330.86 95.69 313.00 96.00 C 295.14 96.31 275.27 95.31 258.00 96.00 C 240.73 96.69 219.91 94.80 204.22 95.22 C 188.53 95.64 183.73 100.84 172.08 108.08 C 160.43 115.32 155.06 125.42 150.76 137.75 C 146.46 150.09 146.71 167.28 147.00 184.00 C 147.29 200.72 146.87 221.39 147.00 239.00 C 147.13 256.61 146.94 275.99 147.00 294.00 C 147.06 312.01 146.97 330.81 147.00 349.00 C 147.03 367.19 146.99 385.73 147.00 404.00 C 147.01 422.27 147.00 440.69 147.00 459.00 C 147.00 477.31 147.01 495.67 147.00 514.00 C 146.99 532.33 147.02 551.76 147.00 570.00 C 146.98 588.24 147.04 607.03 147.00 625.00 C 146.96 642.97 147.10 662.55 147.00 680.00 C 146.90 697.45 147.22 718.65 147.00 735.00 C 146.78 751.35 147.16 763.33 151.81 774.75 C 156.46 786.16 163.12 796.03 174.70 803.30 C 186.29 810.56 188.21 814.27 203.25 815.61 C 218.28 816.94 239.94 815.67 257.00 816.00 C 274.06 816.33 294.30 815.89 312.00 816.00 C 329.70 816.11 349.09 816.04 367.00 816.00 C 384.91 815.96 404.15 816.22 422.00 816.00 C 439.85 815.78 459.54 816.55 477.00 816.00 C 494.46 815.45 515.51 817.25 532.00 816.00 C 548.49 814.75 570.72 820.50 583.25 812.25 C 595.78 804.00 600.09 793.43 610.00 784.00 C 503.50 786.33 395.92 784.34 289.00 785.00 C 290.67 601.62 290.67 416.41 289.00 233.00 C 437.38 234.67 587.59 234.67 736.00 233.00 C 735.34 374.92 737.33 517.50 735.00 659.00 C 746.20 650.74 755.55 636.67 767.00 629.00 M 736.00 124.00  C 736.00 150.67 736.00 177.33 736.00 204.00 C 704.66 203.98 673.34 204.02 642.00 204.00 C 610.66 203.98 578.24 204.04 547.00 204.00 C 515.76 203.96 482.85 204.08 452.00 204.00 C 421.15 203.92 386.91 204.18 357.00 204.00 C 327.09 203.82 290.86 204.40 263.00 204.00 C 235.14 203.60 205.45 208.95 189.70 192.30 C 173.95 175.65 171.18 154.29 187.10 136.10 C 203.02 117.91 235.28 126.06 263.00 125.00 C 290.72 123.94 327.16 125.49 357.00 125.00 C 386.84 124.51 421.19 125.27 452.00 125.00 C 482.81 124.73 515.79 125.22 547.00 125.00 C 578.21 124.78 610.70 125.32 642.00 125.00 C 673.30 124.68 705.16 126.07 736.00 124.00 M 259.00 233.00  C 259.00 417.00 259.00 601.00 259.00 785.00 C 233.04 783.69 202.77 790.85 187.75 771.25 C 172.73 751.64 180.09 726.61 179.00 697.00 C 177.91 667.39 179.51 632.73 179.00 602.00 C 178.49 571.27 179.28 538.24 179.00 507.00 C 178.72 475.76 179.22 443.46 179.00 412.00 C 178.78 380.54 179.32 348.53 179.00 317.00 C 178.68 285.47 180.07 253.13 178.00 222.00 C 197.93 238.64 229.17 231.65 259.00 233.00 Z"/>
</g>
<g fill="None" fill-opacity="0.0" stroke="#000000" stroke-opacity="0.00" stroke-width="0.3"><path d=" M 736.00 124.00  C 705.16 126.07 673.30 124.68 642.00 125.00 C 610.70 125.32 578.21 124.78 547.00 125.00 C 515.79 125.22 482.81 124.73 452.00 125.00 C 421.19 125.27 386.84 124.51 357.00 125.00 C 327.16 125.49 290.72 123.94 263.00 125.00 C 235.28 126.06 203.02 117.91 187.10 136.10 C 171.18 154.29 173.95 175.65 189.70 192.30 C 205.45 208.95 235.14 203.60 263.00 204.00 C 290.86 204.40 327.09 203.82 357.00 204.00 C 386.91 204.18 421.15 203.92 452.00 204.00 C 482.85 204.08 515.76 203.96 547.00 204.00 C 578.24 204.04 610.66 203.98 642.00 204.00 C 673.34 204.02 704.66 203.98 736.00 204.00 C 736.00 177.33 736.00 150.67 736.00 124.00 Z"/>
</g>
<g fill="None" fill-opacity="0.0" stroke="#000000" stroke-opacity="0.00" stroke-width="0.3"><path d=" M 259.00 233.00  C 229.17 231.65 197.93 238.64 178.00 222.00 C 180.07 253.13 178.68 285.47 179.00 317.00 C 179.32 348.53 178.78 380.54 179.00 412.00 C 179.22 443.46 178.72 475.76 179.00 507.00 C 179.28 538.24 178.49 571.27 179.00 602.00 C 179.51 632.73 177.91 667.39 179.00 697.00 C 180.09 726.61 172.73 751.64 187.75 771.25 C 202.77 790.85 233.04 783.69 259.00 785.00 C 259.00 601.00 259.00 417.00 259.00 233.00 Z"/>
</g>
<g fill="None" fill-opacity="0.0" stroke="#000000" stroke-opacity="0.98" stroke-width="0.3"><path d=" M 563.00 346.00  C 546.01 301.23 475.80 302.08 460.00 345.00 C 449.07 343.46 434.39 338.12 421.75 341.41 C 409.10 344.69 398.54 350.92 389.11 362.11 C 379.68 373.29 375.51 387.89 376.00 403.00 C 376.49 418.11 380.28 427.78 389.25 439.75 C 398.21 451.73 410.10 456.42 422.00 459.00 C 419.96 473.30 420.18 486.24 419.00 500.00 C 417.82 513.76 418.66 528.51 417.33 541.33 C 416.00 554.15 414.37 571.86 432.00 572.00 C 449.63 572.14 469.35 572.16 487.00 572.00 C 504.65 571.84 525.88 572.55 543.00 572.00 C 560.13 571.45 580.40 573.95 595.30 570.64 C 610.20 567.33 604.91 549.16 604.78 537.22 C 604.65 525.29 602.16 509.48 602.00 497.00 C 601.83 484.52 601.45 471.25 599.00 459.00 C 631.85 454.53 655.44 414.95 643.59 381.75 C 631.74 348.56 595.52 330.36 563.00 346.00 M 575.00 540.00  C 532.67 540.00 490.33 540.00 448.00 540.00 C 448.38 522.56 450.19 507.75 450.65 490.31 C 451.10 472.87 451.39 464.77 452.93 445.92 C 454.47 427.07 433.20 430.70 419.92 426.08 C 406.65 421.45 403.18 400.89 407.76 389.75 C 412.33 378.62 428.23 368.10 440.25 371.20 C 452.27 374.30 465.62 392.56 477.03 382.03 C 488.44 371.50 480.72 357.78 494.08 348.08 C 507.45 338.38 521.98 342.19 532.75 351.25 C 543.53 360.31 534.67 380.99 550.25 384.76 C 565.83 388.52 573.32 369.68 588.03 371.02 C 602.73 372.36 613.73 383.06 616.20 396.25 C 618.66 409.43 610.45 426.78 595.92 427.93 C 581.38 429.09 567.41 430.84 569.80 447.25 C 572.19 463.65 570.31 476.93 572.00 493.00 C 573.69 509.07 573.08 523.40 575.00 540.00 Z"/>
</g>
<g fill="None" fill-opacity="0.0" stroke="#000000" stroke-opacity="0.01" stroke-width="0.3"><path d=" M 575.00 540.00  C 573.08 523.40 573.69 509.07 572.00 493.00 C 570.31 476.93 572.19 463.65 569.80 447.25 C 567.41 430.84 581.38 429.09 595.92 427.93 C 610.45 426.78 618.66 409.43 616.20 396.25 C 613.73 383.06 602.73 372.36 588.03 371.02 C 573.32 369.68 565.83 388.52 550.25 384.76 C 534.67 380.99 543.53 360.31 532.75 351.25 C 521.98 342.19 507.45 338.38 494.08 348.08 C 480.72 357.78 488.44 371.50 477.03 382.03 C 465.62 392.56 452.27 374.30 440.25 371.20 C 428.23 368.10 412.33 378.62 407.76 389.75 C 403.18 400.89 406.65 421.45 419.92 426.08 C 433.20 430.70 454.47 427.07 452.93 445.92 C 451.39 464.77 451.10 472.87 450.65 490.31 C 450.19 507.75 448.38 522.56 448.00 540.00 C 490.33 540.00 532.67 540.00 575.00 540.00 Z"/>
</g>
<g fill="None" fill-opacity="0.0" stroke="#000000" stroke-opacity="0.99" stroke-width="0.3"><path d=" M 861.00 683.00  C 871.96 665.95 891.28 656.31 902.07 639.08 C 912.85 621.86 891.76 604.00 879.75 591.25 C 867.74 578.49 848.88 559.16 833.03 572.03 C 817.18 584.91 805.85 600.37 790.00 613.00 C 798.38 624.54 811.97 638.69 824.25 648.41 C 836.53 658.14 848.47 674.51 861.00 683.00 Z"/>
</g>
<g fill="None" fill-opacity="0.0" stroke="#000000" stroke-opacity="1.00" stroke-width="0.3"><path d=" M 390.00 625.00  C 377.67 627.70 375.44 653.34 392.11 653.89 C 408.77 654.44 432.10 653.80 451.00 654.00 C 469.90 654.20 493.00 653.83 512.00 654.00 C 531.00 654.17 554.79 653.76 573.00 654.00 C 591.21 654.24 616.22 653.84 631.25 653.40 C 646.28 652.96 648.55 627.22 631.67 625.33 C 614.79 623.44 589.68 625.35 571.00 625.00 C 552.32 624.65 529.30 624.53 510.00 625.00 C 490.70 625.47 468.22 623.39 449.00 625.00 C 429.78 626.61 407.58 621.15 390.00 625.00 Z"/>
</g>
<g fill="None" fill-opacity="0.0" stroke="#000000" stroke-opacity="0.99" stroke-width="0.3"><path d=" M 780.00 625.00  C 712.68 690.61 644.62 758.47 578.00 826.00 C 585.98 831.75 594.03 841.17 602.23 847.77 C 610.43 854.37 616.20 864.34 624.92 871.08 C 633.64 877.82 640.32 887.72 649.00 891.00 C 671.58 866.07 698.11 843.27 720.00 817.00 C 731.94 817.91 756.25 821.77 763.29 811.30 C 770.33 800.84 759.92 782.00 771.75 772.75 C 783.59 763.51 787.82 754.80 797.92 745.92 C 808.02 737.03 814.53 727.74 823.77 718.77 C 833.01 709.80 842.07 700.66 849.00 691.00 C 825.55 670.62 802.54 648.75 780.00 625.00 Z"/>
</g>
<g fill="None" fill-opacity="0.0" stroke="#000000" stroke-opacity="0.98" stroke-width="0.3"><path d=" M 635.00 897.00  C 613.14 878.16 592.99 856.57 571.00 837.00 C 567.77 853.38 563.24 866.93 559.00 883.00 C 564.14 884.62 569.60 891.09 574.75 895.25 C 579.89 899.41 585.26 905.87 589.00 911.00 C 605.60 907.57 618.97 900.77 635.00 897.00 Z"/>
</g>
<g fill="None" fill-opacity="0.0" stroke="#000000" stroke-opacity="0.94" stroke-width="0.3"><path d=" M 576.00 914.00  C 568.44 908.73 563.18 900.10 555.00 896.00 C 553.75 906.39 550.80 914.27 548.00 924.00 C 557.56 919.67 567.39 918.86 576.00 914.00 Z"/>
</g>
<g fill="#000000" fill-opacity="0.00" stroke="None">
<path d=" M 0.00 1024.00  L 1024.00 1024.00 L 1024.00 0.00 L 0.00 0.00 L 0.00 1024.00 M 767.00 629.00  C 755.55 636.67 746.20 650.74 735.00 659.00 C 737.33 517.50 735.34 374.92 736.00 233.00 C 587.59 234.67 437.38 234.67 289.00 233.00 C 290.67 416.41 290.67 601.62 289.00 785.00 C 395.92 784.34 503.50 786.33 610.00 784.00 C 600.09 793.43 595.78 804.00 583.25 812.25 C 570.72 820.50 548.49 814.75 532.00 816.00 C 515.51 817.25 494.46 815.45 477.00 816.00 C 459.54 816.55 439.85 815.78 422.00 816.00 C 404.15 816.22 384.91 815.96 367.00 816.00 C 349.09 816.04 329.70 816.11 312.00 816.00 C 294.30 815.89 274.06 816.33 257.00 816.00 C 239.94 815.67 218.28 816.94 203.25 815.61 C 188.21 814.27 186.29 810.56 174.70 803.30 C 163.12 796.03 156.46 786.16 151.81 774.75 C 147.16 763.33 146.78 751.35 147.00 735.00 C 147.22 718.65 146.90 697.45 147.00 680.00 C 147.10 662.55 146.96 642.97 147.00 625.00 C 147.04 607.03 146.98 588.24 147.00 570.00 C 147.02 551.76 146.99 532.33 147.00 514.00 C 147.01 495.67 147.00 477.31 147.00 459.00 C 147.00 440.69 147.01 422.27 147.00 404.00 C 146.99 385.73 147.03 367.19 147.00 349.00 C 146.97 330.81 147.06 312.01 147.00 294.00 C 146.94 275.99 147.13 256.61 147.00 239.00 C 146.87 221.39 147.29 200.72 147.00 184.00 C 146.71 167.28 146.46 150.09 150.76 137.75 C 155.06 125.42 160.43 115.32 172.08 108.08 C 183.73 100.84 188.53 95.64 204.22 95.22 C 219.91 94.80 240.73 96.69 258.00 96.00 C 275.27 95.31 295.14 96.31 313.00 96.00 C 330.86 95.69 349.87 96.13 368.00 96.00 C 386.13 95.87 404.73 96.05 423.00 96.00 C 441.27 95.95 459.63 96.00 478.00 96.00 C 496.37 96.00 515.63 95.95 534.00 96.00 C 552.37 96.05 570.71 95.87 589.00 96.00 C 607.29 96.13 625.82 95.69 644.00 96.00 C 662.18 96.31 681.04 95.31 699.00 96.00 C 716.96 96.69 736.52 94.48 754.00 96.00 C 771.48 97.52 766.26 116.14 767.00 132.00 C 767.74 147.86 766.67 169.69 767.00 187.00 C 767.33 204.31 766.85 225.09 767.00 243.00 C 767.15 260.91 766.93 279.85 767.00 298.00 C 767.07 316.15 766.97 334.75 767.00 353.00 C 767.03 371.25 766.99 389.69 767.00 408.00 C 767.01 426.31 766.99 444.66 767.00 463.00 C 767.01 481.34 767.00 499.61 767.00 518.00 C 767.00 536.39 767.00 554.53 767.00 573.00 C 767.00 591.47 767.00 610.48 767.00 629.00 M 563.00 346.00  C 595.52 330.36 631.74 348.56 643.59 381.75 C 655.44 414.95 631.85 454.53 599.00 459.00 C 601.45 471.25 601.83 484.52 602.00 497.00 C 602.16 509.48 604.65 525.29 604.78 537.22 C 604.91 549.16 610.20 567.33 595.30 570.64 C 580.40 573.95 560.13 571.45 543.00 572.00 C 525.88 572.55 504.65 571.84 487.00 572.00 C 469.35 572.16 449.63 572.14 432.00 572.00 C 414.37 571.86 416.00 554.15 417.33 541.33 C 418.66 528.51 417.82 513.76 419.00 500.00 C 420.18 486.24 419.96 473.30 422.00 459.00 C 410.10 456.42 398.21 451.73 389.25 439.75 C 380.28 427.78 376.49 418.11 376.00 403.00 C 375.51 387.89 379.68 373.29 389.11 362.11 C 398.54 350.92 409.10 344.69 421.75 341.41 C 434.39 338.12 449.07 343.46 460.00 345.00 C 475.80 302.08 546.01 301.23 563.00 346.00 M 861.00 683.00  C 848.47 674.51 836.53 658.14 824.25 648.41 C 811.97 638.69 798.38 624.54 790.00 613.00 C 805.85 600.37 817.18 584.91 833.03 572.03 C 848.88 559.16 867.74 578.49 879.75 591.25 C 891.76 604.00 912.85 621.86 902.07 639.08 C 891.28 656.31 871.96 665.95 861.00 683.00 M 390.00 625.00  C 407.58 621.15 429.78 626.61 449.00 625.00 C 468.22 623.39 490.70 625.47 510.00 625.00 C 529.30 624.53 552.32 624.65 571.00 625.00 C 589.68 625.35 614.79 623.44 631.67 625.33 C 648.55 627.22 646.28 652.96 631.25 653.40 C 616.22 653.84 591.21 654.24 573.00 654.00 C 554.79 653.76 531.00 654.17 512.00 654.00 C 493.00 653.83 469.90 654.20 451.00 654.00 C 432.10 653.80 408.77 654.44 392.11 653.89 C 375.44 653.34 377.67 627.70 390.00 625.00 M 780.00 625.00  C 802.54 648.75 825.55 670.62 849.00 691.00 C 842.07 700.66 833.01 709.80 823.77 718.77 C 814.53 727.74 808.02 737.03 797.92 745.92 C 787.82 754.80 783.59 763.51 771.75 772.75 C 759.92 782.00 770.33 800.84 763.29 811.30 C 756.25 821.77 731.94 817.91 720.00 817.00 C 698.11 843.27 671.58 866.07 649.00 891.00 C 640.32 887.72 633.64 877.82 624.92 871.08 C 616.20 864.34 610.43 854.37 602.23 847.77 C 594.03 841.17 585.98 831.75 578.00 826.00 C 644.62 758.47 712.68 690.61 780.00 625.00 M 635.00 897.00  C 618.97 900.77 605.60 907.57 589.00 911.00 C 585.26 905.87 579.89 899.41 574.75 895.25 C 569.60 891.09 564.14 884.62 559.00 883.00 C 563.24 866.93 567.77 853.38 571.00 837.00 C 592.99 856.57 613.14 878.16 635.00 897.00 M 576.00 914.00  C 567.39 918.86 557.56 919.67 548.00 924.00 C 550.80 914.27 553.75 906.39 555.00 896.00 C 563.18 900.10 568.44 908.73 576.00 914.00 Z"/>
</g>
<g fill="#000000" fill-opacity="0.98" stroke="None">
<path d=" M 767.00 629.00  C 767.00 610.48 767.00 591.47 767.00 573.00 C 767.00 554.53 767.00 536.39 767.00 518.00 C 767.00 499.61 767.01 481.34 767.00 463.00 C 766.99 444.66 767.01 426.31 767.00 408.00 C 766.99 389.69 767.03 371.25 767.00 353.00 C 766.97 334.75 767.07 316.15 767.00 298.00 C 766.93 279.85 767.15 260.91 767.00 243.00 C 766.85 225.09 767.33 204.31 767.00 187.00 C 766.67 169.69 767.74 147.86 767.00 132.00 C 766.26 116.14 771.48 97.52 754.00 96.00 C 736.52 94.48 716.96 96.69 699.00 96.00 C 681.04 95.31 662.18 96.31 644.00 96.00 C 625.82 95.69 607.29 96.13 589.00 96.00 C 570.71 95.87 552.37 96.05 534.00 96.00 C 515.63 95.95 496.37 96.00 478.00 96.00 C 459.63 96.00 441.27 95.95 423.00 96.00 C 404.73 96.05 386.13 95.87 368.00 96.00 C 349.87 96.13 330.86 95.69 313.00 96.00 C 295.14 96.31 275.27 95.31 258.00 96.00 C 240.73 96.69 219.91 94.80 204.22 95.22 C 188.53 95.64 183.73 100.84 172.08 108.08 C 160.43 115.32 155.06 125.42 150.76 137.75 C 146.46 150.09 146.71 167.28 147.00 184.00 C 147.29 200.72 146.87 221.39 147.00 239.00 C 147.13 256.61 146.94 275.99 147.00 294.00 C 147.06 312.01 146.97 330.81 147.00 349.00 C 147.03 367.19 146.99 385.73 147.00 404.00 C 147.01 422.27 147.00 440.69 147.00 459.00 C 147.00 477.31 147.01 495.67 147.00 514.00 C 146.99 532.33 147.02 551.76 147.00 570.00 C 146.98 588.24 147.04 607.03 147.00 625.00 C 146.96 642.97 147.10 662.55 147.00 680.00 C 146.90 697.45 147.22 718.65 147.00 735.00 C 146.78 751.35 147.16 763.33 151.81 774.75 C 156.46 786.16 163.12 796.03 174.70 803.30 C 186.29 810.56 188.21 814.27 203.25 815.61 C 218.28 816.94 239.94 815.67 257.00 816.00 C 274.06 816.33 294.30 815.89 312.00 816.00 C 329.70 816.11 349.09 816.04 367.00 816.00 C 384.91 815.96 404.15 816.22 422.00 816.00 C 439.85 815.78 459.54 816.55 477.00 816.00 C 494.46 815.45 515.51 817.25 532.00 816.00 C 548.49 814.75 570.72 820.50 583.25 812.25 C 595.78 804.00 600.09 793.43 610.00 784.00 C 503.50 786.33 395.92 784.34 289.00 785.00 C 290.67 601.62 290.67 416.41 289.00 233.00 C 437.38 234.67 587.59 234.67 736.00 233.00 C 735.34 374.92 737.33 517.50 735.00 659.00 C 746.20 650.74 755.55 636.67 767.00 629.00 M 736.00 124.00  C 736.00 150.67 736.00 177.33 736.00 204.00 C 704.66 203.98 673.34 204.02 642.00 204.00 C 610.66 203.98 578.24 204.04 547.00 204.00 C 515.76 203.96 482.85 204.08 452.00 204.00 C 421.15 203.92 386.91 204.18 357.00 204.00 C 327.09 203.82 290.86 204.40 263.00 204.00 C 235.14 203.60 205.45 208.95 189.70 192.30 C 173.95 175.65 171.18 154.29 187.10 136.10 C 203.02 117.91 235.28 126.06 263.00 125.00 C 290.72 123.94 327.16 125.49 357.00 125.00 C 386.84 124.51 421.19 125.27 452.00 125.00 C 482.81 124.73 515.79 125.22 547.00 125.00 C 578.21 124.78 610.70 125.32 642.00 125.00 C 673.30 124.68 705.16 126.07 736.00 124.00 M 259.00 233.00  C 259.00 417.00 259.00 601.00 259.00 785.00 C 233.04 783.69 202.77 790.85 187.75 771.25 C 172.73 751.64 180.09 726.61 179.00 697.00 C 177.91 667.39 179.51 632.73 179.00 602.00 C 178.49 571.27 179.28 538.24 179.00 507.00 C 178.72 475.76 179.22 443.46 179.00 412.00 C 178.78 380.54 179.32 348.53 179.00 317.00 C 178.68 285.47 180.07 253.13 178.00 222.00 C 197.93 238.64 229.17 231.65 259.00 233.00 Z"/>
</g>
<g fill="#000000" fill-opacity="0.00" stroke="None">
<path d=" M 736.00 124.00  C 705.16 126.07 673.30 124.68 642.00 125.00 C 610.70 125.32 578.21 124.78 547.00 125.00 C 515.79 125.22 482.81 124.73 452.00 125.00 C 421.19 125.27 386.84 124.51 357.00 125.00 C 327.16 125.49 290.72 123.94 263.00 125.00 C 235.28 126.06 203.02 117.91 187.10 136.10 C 171.18 154.29 173.95 175.65 189.70 192.30 C 205.45 208.95 235.14 203.60 263.00 204.00 C 290.86 204.40 327.09 203.82 357.00 204.00 C 386.91 204.18 421.15 203.92 452.00 204.00 C 482.85 204.08 515.76 203.96 547.00 204.00 C 578.24 204.04 610.66 203.98 642.00 204.00 C 673.34 204.02 704.66 203.98 736.00 204.00 C 736.00 177.33 736.00 150.67 736.00 124.00 Z"/>
</g>
<g fill="#000000" fill-opacity="0.00" stroke="None">
<path d=" M 259.00 233.00  C 229.17 231.65 197.93 238.64 178.00 222.00 C 180.07 253.13 178.68 285.47 179.00 317.00 C 179.32 348.53 178.78 380.54 179.00 412.00 C 179.22 443.46 178.72 475.76 179.00 507.00 C 179.28 538.24 178.49 571.27 179.00 602.00 C 179.51 632.73 177.91 667.39 179.00 697.00 C 180.09 726.61 172.73 751.64 187.75 771.25 C 202.77 790.85 233.04 783.69 259.00 785.00 C 259.00 601.00 259.00 417.00 259.00 233.00 Z"/>
</g>
<g fill="#000000" fill-opacity="0.98" stroke="None">
<path d=" M 563.00 346.00  C 546.01 301.23 475.80 302.08 460.00 345.00 C 449.07 343.46 434.39 338.12 421.75 341.41 C 409.10 344.69 398.54 350.92 389.11 362.11 C 379.68 373.29 375.51 387.89 376.00 403.00 C 376.49 418.11 380.28 427.78 389.25 439.75 C 398.21 451.73 410.10 456.42 422.00 459.00 C 419.96 473.30 420.18 486.24 419.00 500.00 C 417.82 513.76 418.66 528.51 417.33 541.33 C 416.00 554.15 414.37 571.86 432.00 572.00 C 449.63 572.14 469.35 572.16 487.00 572.00 C 504.65 571.84 525.88 572.55 543.00 572.00 C 560.13 571.45 580.40 573.95 595.30 570.64 C 610.20 567.33 604.91 549.16 604.78 537.22 C 604.65 525.29 602.16 509.48 602.00 497.00 C 601.83 484.52 601.45 471.25 599.00 459.00 C 631.85 454.53 655.44 414.95 643.59 381.75 C 631.74 348.56 595.52 330.36 563.00 346.00 M 575.00 540.00  C 532.67 540.00 490.33 540.00 448.00 540.00 C 448.38 522.56 450.19 507.75 450.65 490.31 C 451.10 472.87 451.39 464.77 452.93 445.92 C 454.47 427.07 433.20 430.70 419.92 426.08 C 406.65 421.45 403.18 400.89 407.76 389.75 C 412.33 378.62 428.23 368.10 440.25 371.20 C 452.27 374.30 465.62 392.56 477.03 382.03 C 488.44 371.50 480.72 357.78 494.08 348.08 C 507.45 338.38 521.98 342.19 532.75 351.25 C 543.53 360.31 534.67 380.99 550.25 384.76 C 565.83 388.52 573.32 369.68 588.03 371.02 C 602.73 372.36 613.73 383.06 616.20 396.25 C 618.66 409.43 610.45 426.78 595.92 427.93 C 581.38 429.09 567.41 430.84 569.80 447.25 C 572.19 463.65 570.31 476.93 572.00 493.00 C 573.69 509.07 573.08 523.40 575.00 540.00 Z"/>
</g>
<g fill="#000000" fill-opacity="0.01" stroke="None">
<path d=" M 575.00 540.00  C 573.08 523.40 573.69 509.07 572.00 493.00 C 570.31 476.93 572.19 463.65 569.80 447.25 C 567.41 430.84 581.38 429.09 595.92 427.93 C 610.45 426.78 618.66 409.43 616.20 396.25 C 613.73 383.06 602.73 372.36 588.03 371.02 C 573.32 369.68 565.83 388.52 550.25 384.76 C 534.67 380.99 543.53 360.31 532.75 351.25 C 521.98 342.19 507.45 338.38 494.08 348.08 C 480.72 357.78 488.44 371.50 477.03 382.03 C 465.62 392.56 452.27 374.30 440.25 371.20 C 428.23 368.10 412.33 378.62 407.76 389.75 C 403.18 400.89 406.65 421.45 419.92 426.08 C 433.20 430.70 454.47 427.07 452.93 445.92 C 451.39 464.77 451.10 472.87 450.65 490.31 C 450.19 507.75 448.38 522.56 448.00 540.00 C 490.33 540.00 532.67 540.00 575.00 540.00 Z"/>
</g>
<g fill="#000000" fill-opacity="0.99" stroke="None">
<path d=" M 861.00 683.00  C 871.96 665.95 891.28 656.31 902.07 639.08 C 912.85 621.86 891.76 604.00 879.75 591.25 C 867.74 578.49 848.88 559.16 833.03 572.03 C 817.18 584.91 805.85 600.37 790.00 613.00 C 798.38 624.54 811.97 638.69 824.25 648.41 C 836.53 658.14 848.47 674.51 861.00 683.00 Z"/>
</g>
<g fill="#000000" fill-opacity="1.00" stroke="None">
<path d=" M 390.00 625.00  C 377.67 627.70 375.44 653.34 392.11 653.89 C 408.77 654.44 432.10 653.80 451.00 654.00 C 469.90 654.20 493.00 653.83 512.00 654.00 C 531.00 654.17 554.79 653.76 573.00 654.00 C 591.21 654.24 616.22 653.84 631.25 653.40 C 646.28 652.96 648.55 627.22 631.67 625.33 C 614.79 623.44 589.68 625.35 571.00 625.00 C 552.32 624.65 529.30 624.53 510.00 625.00 C 490.70 625.47 468.22 623.39 449.00 625.00 C 429.78 626.61 407.58 621.15 390.00 625.00 Z"/>
</g>
<g fill="#000000" fill-opacity="0.99" stroke="None">
<path d=" M 780.00 625.00  C 712.68 690.61 644.62 758.47 578.00 826.00 C 585.98 831.75 594.03 841.17 602.23 847.77 C 610.43 854.37 616.20 864.34 624.92 871.08 C 633.64 877.82 640.32 887.72 649.00 891.00 C 671.58 866.07 698.11 843.27 720.00 817.00 C 731.94 817.91 756.25 821.77 763.29 811.30 C 770.33 800.84 759.92 782.00 771.75 772.75 C 783.59 763.51 787.82 754.80 797.92 745.92 C 808.02 737.03 814.53 727.74 823.77 718.77 C 833.01 709.80 842.07 700.66 849.00 691.00 C 825.55 670.62 802.54 648.75 780.00 625.00 Z"/>
</g>
<g fill="#000000" fill-opacity="0.98" stroke="None">
<path d=" M 635.00 897.00  C 613.14 878.16 592.99 856.57 571.00 837.00 C 567.77 853.38 563.24 866.93 559.00 883.00 C 564.14 884.62 569.60 891.09 574.75 895.25 C 579.89 899.41 585.26 905.87 589.00 911.00 C 605.60 907.57 618.97 900.77 635.00 897.00 Z"/>
</g>
<g fill="#000000" fill-opacity="0.94" stroke="None">
<path d=" M 576.00 914.00  C 568.44 908.73 563.18 900.10 555.00 896.00 C 553.75 906.39 550.80 914.27 548.00 924.00 C 557.56 919.67 567.39 918.86 576.00 914.00 Z"/>
</g>
</svg>
