<svg xmlns="http://www.w3.org/2000/svg" xmlns:v="https://svgstorm.com" viewBox="106.02 23.36 912.18 912.18" width="100%" height="100%">
<g fill="None" fill-opacity="0.0" stroke="#000000" stroke-opacity="0.00" stroke-width="0.3"><path d=" M 0.00 1024.00  L 1024.00 1024.00 L 1024.00 0.00 L 0.00 0.00 L 0.00 1024.00 M 484.00 66.00  C 496.01 64.82 508.81 66.64 519.25 70.76 C 529.69 74.88 542.57 82.40 549.70 92.30 C 556.83 102.19 561.94 112.67 562.98 124.03 C 564.02 135.39 561.05 154.08 576.00 153.00 C 590.95 151.92 602.78 155.55 613.03 162.97 C 623.28 170.39 630.26 183.43 629.80 194.25 C 629.34 205.06 636.34 229.78 620.00 231.00 C 603.65 232.21 583.14 230.56 566.00 231.00 C 548.86 231.44 528.24 231.00 511.00 231.00 C 493.76 231.00 473.70 231.46 457.00 231.00 C 440.30 230.54 418.28 232.24 403.00 231.00 C 387.72 229.76 363.86 237.21 360.20 222.75 C 356.54 208.29 360.59 190.44 363.92 178.92 C 367.25 167.40 382.93 157.55 391.77 154.42 C 400.61 151.30 425.59 157.37 426.76 144.75 C 427.92 132.13 425.77 117.61 430.92 107.92 C 436.07 98.23 439.37 89.25 450.68 81.68 C 461.99 74.11 470.98 67.28 484.00 66.00 M 352.00 172.00  C 346.98 187.84 344.76 205.63 347.20 225.25 C 349.64 244.86 370.30 241.08 391.00 241.00 C 411.70 240.92 440.18 240.93 462.00 241.00 C 483.82 241.07 510.16 240.72 532.00 241.00 C 553.84 241.28 582.23 240.35 603.00 241.00 C 623.77 241.65 642.12 243.27 642.98 222.97 C 643.84 202.67 644.20 186.27 637.00 172.00 C 661.67 171.54 685.31 170.67 703.30 179.71 C 721.30 188.75 735.99 199.45 744.92 220.08 C 753.85 240.70 750.82 262.26 751.00 290.00 C 751.18 317.74 750.89 351.03 751.00 380.00 C 751.11 408.97 750.90 440.48 751.00 470.00 C 751.10 499.52 750.83 530.25 751.00 560.00 C 751.17 589.75 750.23 620.58 752.00 650.00 C 738.05 662.42 724.38 678.15 710.00 691.00 C 710.00 558.00 710.00 425.00 710.00 292.00 C 566.67 292.00 423.33 292.00 280.00 292.00 C 279.96 327.50 280.05 363.55 280.00 399.00 C 279.95 434.45 280.10 471.86 280.00 507.00 C 279.90 542.14 280.22 580.74 280.00 615.00 C 279.78 649.26 280.48 690.79 280.00 723.00 C 279.52 755.21 276.95 781.29 301.25 798.75 C 325.56 816.20 353.39 807.37 387.00 809.00 C 420.61 810.63 460.50 808.54 495.00 809.00 C 529.50 809.46 567.22 810.30 601.00 807.00 C 597.00 822.06 592.11 834.95 587.00 850.00 C 560.11 849.89 530.63 850.10 503.00 850.00 C 475.37 849.90 444.15 850.17 417.00 850.00 C 389.85 849.83 356.67 850.35 331.00 850.00 C 305.33 849.65 291.42 849.44 273.90 837.10 C 256.38 824.76 244.97 811.50 240.24 791.75 C 235.52 772.00 238.85 745.88 238.00 720.00 C 237.15 694.12 238.39 661.36 238.00 634.00 C 237.61 606.64 238.21 575.96 238.00 548.00 C 237.79 520.04 238.16 490.10 238.00 462.00 C 237.84 433.90 238.22 402.74 238.00 375.00 C 237.78 347.26 238.42 315.63 238.00 289.00 C 237.58 262.37 237.19 242.08 244.77 221.77 C 252.35 201.47 267.14 188.04 285.75 178.75 C 304.35 169.45 327.21 172.58 352.00 172.00 M 626.00 440.00  C 538.33 440.00 450.67 440.00 363.00 440.00 C 361.77 422.52 361.40 405.94 381.00 408.00 C 400.60 410.06 418.69 407.23 438.00 408.00 C 457.31 408.77 475.79 408.01 495.00 408.00 C 514.21 407.99 532.74 408.79 552.00 408.00 C 571.26 407.21 589.51 410.09 609.00 408.00 C 628.49 405.91 627.02 422.62 626.00 440.00 M 626.00 456.00  C 625.90 468.33 630.30 486.77 615.00 485.00 C 599.70 483.23 589.25 485.77 575.00 485.00 C 560.75 484.23 548.81 485.29 535.00 485.00 C 521.19 484.71 508.69 485.00 495.00 485.00 C 481.31 485.00 468.81 484.71 455.00 485.00 C 441.19 485.29 429.24 484.23 415.00 485.00 C 400.76 485.77 390.29 483.23 375.00 485.00 C 359.71 486.77 364.09 468.32 364.00 456.00 C 450.63 457.67 539.98 457.67 626.00 456.00 M 400.00 571.00  C 473.35 570.99 549.67 571.01 623.00 571.00 C 621.98 578.84 619.66 585.18 620.00 593.00 C 617.14 594.69 614.90 596.22 611.00 596.00 C 608.30 622.61 600.86 650.94 597.00 678.00 C 584.98 680.01 597.74 701.66 580.99 701.99 C 564.24 702.32 547.65 701.52 531.00 702.00 C 514.35 702.48 496.43 701.05 480.00 702.00 C 463.57 702.96 445.91 699.89 430.00 702.00 C 414.09 704.11 405.18 698.17 404.02 684.97 C 402.86 671.77 398.67 668.44 397.23 657.77 C 395.78 647.10 392.95 637.43 390.69 627.30 C 388.43 617.18 386.29 608.43 383.23 598.77 C 380.17 589.11 379.46 580.71 375.61 571.25 C 371.76 561.79 367.76 551.75 358.25 546.61 C 348.73 541.47 329.36 545.08 316.00 544.00 C 316.00 535.00 316.00 526.00 316.00 517.00 C 336.48 517.41 362.31 513.02 375.92 527.08 C 389.52 541.15 392.45 555.72 400.00 571.00 M 848.00 689.00  C 826.72 670.49 806.81 649.25 787.00 629.00 C 800.84 620.67 807.93 605.21 822.03 597.03 C 836.14 588.86 850.85 608.23 861.25 617.75 C 871.65 627.27 888.70 643.24 880.61 655.75 C 872.52 668.26 858.17 676.87 848.00 689.00 M 779.00 638.00  C 800.08 656.64 818.62 678.34 840.00 696.00 C 787.98 752.66 728.76 804.47 677.00 861.00 C 656.82 841.53 635.69 820.61 616.00 800.00 C 670.97 747.93 724.70 690.45 779.00 638.00 M 452.00 708.00  C 468.44 705.74 481.95 722.25 476.20 738.25 C 470.45 754.25 448.58 756.48 438.23 743.77 C 427.88 731.06 435.98 710.20 452.00 708.00 M 543.00 708.00  C 559.19 706.30 573.61 721.94 568.07 738.08 C 562.54 754.21 541.57 757.12 530.77 746.23 C 519.96 735.34 525.30 709.86 543.00 708.00 M 613.00 812.00  C 628.67 832.28 651.05 848.37 668.00 867.00 C 651.73 870.36 637.92 876.98 622.00 882.00 C 615.55 870.42 593.02 860.01 599.39 847.25 C 605.77 834.49 606.27 823.94 613.00 812.00 M 611.00 886.00  C 601.16 885.68 592.82 894.07 583.00 893.00 C 584.83 883.26 589.15 875.82 591.00 866.00 C 596.19 872.70 606.64 878.12 611.00 886.00 Z"/>
</g>
<g fill="None" fill-opacity="0.0" stroke="#000000" stroke-opacity="0.99" stroke-width="0.3"><path d=" M 484.00 66.00  C 470.98 67.28 461.99 74.11 450.68 81.68 C 439.37 89.25 436.07 98.23 430.92 107.92 C 425.77 117.61 427.92 132.13 426.76 144.75 C 425.59 157.37 400.61 151.30 391.77 154.42 C 382.93 157.55 367.25 167.40 363.92 178.92 C 360.59 190.44 356.54 208.29 360.20 222.75 C 363.86 237.21 387.72 229.76 403.00 231.00 C 418.28 232.24 440.30 230.54 457.00 231.00 C 473.70 231.46 493.76 231.00 511.00 231.00 C 528.24 231.00 548.86 231.44 566.00 231.00 C 583.14 230.56 603.65 232.21 620.00 231.00 C 636.34 229.78 629.34 205.06 629.80 194.25 C 630.26 183.43 623.28 170.39 613.03 162.97 C 602.78 155.55 590.95 151.92 576.00 153.00 C 561.05 154.08 564.02 135.39 562.98 124.03 C 561.94 112.67 556.83 102.19 549.70 92.30 C 542.57 82.40 529.69 74.88 519.25 70.76 C 508.81 66.64 496.01 64.82 484.00 66.00 Z"/>
</g>
<g fill="None" fill-opacity="0.0" stroke="#000000" stroke-opacity="0.99" stroke-width="0.3"><path d=" M 352.00 172.00  C 327.21 172.58 304.35 169.45 285.75 178.75 C 267.14 188.04 252.35 201.47 244.77 221.77 C 237.19 242.08 237.58 262.37 238.00 289.00 C 238.42 315.63 237.78 347.26 238.00 375.00 C 238.22 402.74 237.84 433.90 238.00 462.00 C 238.16 490.10 237.79 520.04 238.00 548.00 C 238.21 575.96 237.61 606.64 238.00 634.00 C 238.39 661.36 237.15 694.12 238.00 720.00 C 238.85 745.88 235.52 772.00 240.24 791.75 C 244.97 811.50 256.38 824.76 273.90 837.10 C 291.42 849.44 305.33 849.65 331.00 850.00 C 356.67 850.35 389.85 849.83 417.00 850.00 C 444.15 850.17 475.37 849.90 503.00 850.00 C 530.63 850.10 560.11 849.89 587.00 850.00 C 592.11 834.95 597.00 822.06 601.00 807.00 C 567.22 810.30 529.50 809.46 495.00 809.00 C 460.50 808.54 420.61 810.63 387.00 809.00 C 353.39 807.37 325.56 816.20 301.25 798.75 C 276.95 781.29 279.52 755.21 280.00 723.00 C 280.48 690.79 279.78 649.26 280.00 615.00 C 280.22 580.74 279.90 542.14 280.00 507.00 C 280.10 471.86 279.95 434.45 280.00 399.00 C 280.05 363.55 279.96 327.50 280.00 292.00 C 423.33 292.00 566.67 292.00 710.00 292.00 C 710.00 425.00 710.00 558.00 710.00 691.00 C 724.38 678.15 738.05 662.42 752.00 650.00 C 750.23 620.58 751.17 589.75 751.00 560.00 C 750.83 530.25 751.10 499.52 751.00 470.00 C 750.90 440.48 751.11 408.97 751.00 380.00 C 750.89 351.03 751.18 317.74 751.00 290.00 C 750.82 262.26 753.85 240.70 744.92 220.08 C 735.99 199.45 721.30 188.75 703.30 179.71 C 685.31 170.67 661.67 171.54 637.00 172.00 C 644.20 186.27 643.84 202.67 642.98 222.97 C 642.12 243.27 623.77 241.65 603.00 241.00 C 582.23 240.35 553.84 241.28 532.00 241.00 C 510.16 240.72 483.82 241.07 462.00 241.00 C 440.18 240.93 411.70 240.92 391.00 241.00 C 370.30 241.08 349.64 244.86 347.20 225.25 C 344.76 205.63 346.98 187.84 352.00 172.00 Z"/>
</g>
<g fill="None" fill-opacity="0.0" stroke="#000000" stroke-opacity="0.98" stroke-width="0.3"><path d=" M 626.00 440.00  C 627.02 422.62 628.49 405.91 609.00 408.00 C 589.51 410.09 571.26 407.21 552.00 408.00 C 532.74 408.79 514.21 407.99 495.00 408.00 C 475.79 408.01 457.31 408.77 438.00 408.00 C 418.69 407.23 400.60 410.06 381.00 408.00 C 361.40 405.94 361.77 422.52 363.00 440.00 C 450.67 440.00 538.33 440.00 626.00 440.00 Z"/>
</g>
<g fill="None" fill-opacity="0.0" stroke="#000000" stroke-opacity="0.96" stroke-width="0.3"><path d=" M 626.00 456.00  C 539.98 457.67 450.63 457.67 364.00 456.00 C 364.09 468.32 359.71 486.77 375.00 485.00 C 390.29 483.23 400.76 485.77 415.00 485.00 C 429.24 484.23 441.19 485.29 455.00 485.00 C 468.81 484.71 481.31 485.00 495.00 485.00 C 508.69 485.00 521.19 484.71 535.00 485.00 C 548.81 485.29 560.75 484.23 575.00 485.00 C 589.25 485.77 599.70 483.23 615.00 485.00 C 630.30 486.77 625.90 468.33 626.00 456.00 Z"/>
</g>
<g fill="None" fill-opacity="0.0" stroke="#000000" stroke-opacity="0.99" stroke-width="0.3"><path d=" M 400.00 571.00  C 392.45 555.72 389.52 541.15 375.92 527.08 C 362.31 513.02 336.48 517.41 316.00 517.00 C 316.00 526.00 316.00 535.00 316.00 544.00 C 329.36 545.08 348.73 541.47 358.25 546.61 C 367.76 551.75 371.76 561.79 375.61 571.25 C 379.46 580.71 380.17 589.11 383.23 598.77 C 386.29 608.43 388.43 617.18 390.69 627.30 C 392.95 637.43 395.78 647.10 397.23 657.77 C 398.67 668.44 402.86 671.77 404.02 684.97 C 405.18 698.17 414.09 704.11 430.00 702.00 C 445.91 699.89 463.57 702.96 480.00 702.00 C 496.43 701.05 514.35 702.48 531.00 702.00 C 547.65 701.52 564.24 702.32 580.99 701.99 C 597.74 701.66 584.98 680.01 597.00 678.00 C 600.86 650.94 608.30 622.61 611.00 596.00 C 614.90 596.22 617.14 594.69 620.00 593.00 C 619.66 585.18 621.98 578.84 623.00 571.00 C 549.67 571.01 473.35 570.99 400.00 571.00 Z"/>
</g>
<g fill="None" fill-opacity="0.0" stroke="#000000" stroke-opacity="0.99" stroke-width="0.3"><path d=" M 848.00 689.00  C 858.17 676.87 872.52 668.26 880.61 655.75 C 888.70 643.24 871.65 627.27 861.25 617.75 C 850.85 608.23 836.14 588.86 822.03 597.03 C 807.93 605.21 800.84 620.67 787.00 629.00 C 806.81 649.25 826.72 670.49 848.00 689.00 Z"/>
</g>
<g fill="None" fill-opacity="0.0" stroke="#000000" stroke-opacity="0.99" stroke-width="0.3"><path d=" M 779.00 638.00  C 724.70 690.45 670.97 747.93 616.00 800.00 C 635.69 820.61 656.82 841.53 677.00 861.00 C 728.76 804.47 787.98 752.66 840.00 696.00 C 818.62 678.34 800.08 656.64 779.00 638.00 Z"/>
</g>
<g fill="None" fill-opacity="0.0" stroke="#000000" stroke-opacity="0.98" stroke-width="0.3"><path d=" M 452.00 708.00  C 435.98 710.20 427.88 731.06 438.23 743.77 C 448.58 756.48 470.45 754.25 476.20 738.25 C 481.95 722.25 468.44 705.74 452.00 708.00 Z"/>
</g>
<g fill="None" fill-opacity="0.0" stroke="#000000" stroke-opacity="0.98" stroke-width="0.3"><path d=" M 543.00 708.00  C 525.30 709.86 519.96 735.34 530.77 746.23 C 541.57 757.12 562.54 754.21 568.07 738.08 C 573.61 721.94 559.19 706.30 543.00 708.00 Z"/>
</g>
<g fill="None" fill-opacity="0.0" stroke="#000000" stroke-opacity="0.98" stroke-width="0.3"><path d=" M 613.00 812.00  C 606.27 823.94 605.77 834.49 599.39 847.25 C 593.02 860.01 615.55 870.42 622.00 882.00 C 637.92 876.98 651.73 870.36 668.00 867.00 C 651.05 848.37 628.67 832.28 613.00 812.00 Z"/>
</g>
<g fill="None" fill-opacity="0.0" stroke="#000000" stroke-opacity="0.94" stroke-width="0.3"><path d=" M 611.00 886.00  C 606.64 878.12 596.19 872.70 591.00 866.00 C 589.15 875.82 584.83 883.26 583.00 893.00 C 592.82 894.07 601.16 885.68 611.00 886.00 Z"/>
</g>
<g fill="#000000" fill-opacity="0.00" stroke="None">
<path d=" M 0.00 1024.00  L 1024.00 1024.00 L 1024.00 0.00 L 0.00 0.00 L 0.00 1024.00 M 484.00 66.00  C 496.01 64.82 508.81 66.64 519.25 70.76 C 529.69 74.88 542.57 82.40 549.70 92.30 C 556.83 102.19 561.94 112.67 562.98 124.03 C 564.02 135.39 561.05 154.08 576.00 153.00 C 590.95 151.92 602.78 155.55 613.03 162.97 C 623.28 170.39 630.26 183.43 629.80 194.25 C 629.34 205.06 636.34 229.78 620.00 231.00 C 603.65 232.21 583.14 230.56 566.00 231.00 C 548.86 231.44 528.24 231.00 511.00 231.00 C 493.76 231.00 473.70 231.46 457.00 231.00 C 440.30 230.54 418.28 232.24 403.00 231.00 C 387.72 229.76 363.86 237.21 360.20 222.75 C 356.54 208.29 360.59 190.44 363.92 178.92 C 367.25 167.40 382.93 157.55 391.77 154.42 C 400.61 151.30 425.59 157.37 426.76 144.75 C 427.92 132.13 425.77 117.61 430.92 107.92 C 436.07 98.23 439.37 89.25 450.68 81.68 C 461.99 74.11 470.98 67.28 484.00 66.00 M 352.00 172.00  C 346.98 187.84 344.76 205.63 347.20 225.25 C 349.64 244.86 370.30 241.08 391.00 241.00 C 411.70 240.92 440.18 240.93 462.00 241.00 C 483.82 241.07 510.16 240.72 532.00 241.00 C 553.84 241.28 582.23 240.35 603.00 241.00 C 623.77 241.65 642.12 243.27 642.98 222.97 C 643.84 202.67 644.20 186.27 637.00 172.00 C 661.67 171.54 685.31 170.67 703.30 179.71 C 721.30 188.75 735.99 199.45 744.92 220.08 C 753.85 240.70 750.82 262.26 751.00 290.00 C 751.18 317.74 750.89 351.03 751.00 380.00 C 751.11 408.97 750.90 440.48 751.00 470.00 C 751.10 499.52 750.83 530.25 751.00 560.00 C 751.17 589.75 750.23 620.58 752.00 650.00 C 738.05 662.42 724.38 678.15 710.00 691.00 C 710.00 558.00 710.00 425.00 710.00 292.00 C 566.67 292.00 423.33 292.00 280.00 292.00 C 279.96 327.50 280.05 363.55 280.00 399.00 C 279.95 434.45 280.10 471.86 280.00 507.00 C 279.90 542.14 280.22 580.74 280.00 615.00 C 279.78 649.26 280.48 690.79 280.00 723.00 C 279.52 755.21 276.95 781.29 301.25 798.75 C 325.56 816.20 353.39 807.37 387.00 809.00 C 420.61 810.63 460.50 808.54 495.00 809.00 C 529.50 809.46 567.22 810.30 601.00 807.00 C 597.00 822.06 592.11 834.95 587.00 850.00 C 560.11 849.89 530.63 850.10 503.00 850.00 C 475.37 849.90 444.15 850.17 417.00 850.00 C 389.85 849.83 356.67 850.35 331.00 850.00 C 305.33 849.65 291.42 849.44 273.90 837.10 C 256.38 824.76 244.97 811.50 240.24 791.75 C 235.52 772.00 238.85 745.88 238.00 720.00 C 237.15 694.12 238.39 661.36 238.00 634.00 C 237.61 606.64 238.21 575.96 238.00 548.00 C 237.79 520.04 238.16 490.10 238.00 462.00 C 237.84 433.90 238.22 402.74 238.00 375.00 C 237.78 347.26 238.42 315.63 238.00 289.00 C 237.58 262.37 237.19 242.08 244.77 221.77 C 252.35 201.47 267.14 188.04 285.75 178.75 C 304.35 169.45 327.21 172.58 352.00 172.00 M 626.00 440.00  C 538.33 440.00 450.67 440.00 363.00 440.00 C 361.77 422.52 361.40 405.94 381.00 408.00 C 400.60 410.06 418.69 407.23 438.00 408.00 C 457.31 408.77 475.79 408.01 495.00 408.00 C 514.21 407.99 532.74 408.79 552.00 408.00 C 571.26 407.21 589.51 410.09 609.00 408.00 C 628.49 405.91 627.02 422.62 626.00 440.00 M 626.00 456.00  C 625.90 468.33 630.30 486.77 615.00 485.00 C 599.70 483.23 589.25 485.77 575.00 485.00 C 560.75 484.23 548.81 485.29 535.00 485.00 C 521.19 484.71 508.69 485.00 495.00 485.00 C 481.31 485.00 468.81 484.71 455.00 485.00 C 441.19 485.29 429.24 484.23 415.00 485.00 C 400.76 485.77 390.29 483.23 375.00 485.00 C 359.71 486.77 364.09 468.32 364.00 456.00 C 450.63 457.67 539.98 457.67 626.00 456.00 M 400.00 571.00  C 473.35 570.99 549.67 571.01 623.00 571.00 C 621.98 578.84 619.66 585.18 620.00 593.00 C 617.14 594.69 614.90 596.22 611.00 596.00 C 608.30 622.61 600.86 650.94 597.00 678.00 C 584.98 680.01 597.74 701.66 580.99 701.99 C 564.24 702.32 547.65 701.52 531.00 702.00 C 514.35 702.48 496.43 701.05 480.00 702.00 C 463.57 702.96 445.91 699.89 430.00 702.00 C 414.09 704.11 405.18 698.17 404.02 684.97 C 402.86 671.77 398.67 668.44 397.23 657.77 C 395.78 647.10 392.95 637.43 390.69 627.30 C 388.43 617.18 386.29 608.43 383.23 598.77 C 380.17 589.11 379.46 580.71 375.61 571.25 C 371.76 561.79 367.76 551.75 358.25 546.61 C 348.73 541.47 329.36 545.08 316.00 544.00 C 316.00 535.00 316.00 526.00 316.00 517.00 C 336.48 517.41 362.31 513.02 375.92 527.08 C 389.52 541.15 392.45 555.72 400.00 571.00 M 848.00 689.00  C 826.72 670.49 806.81 649.25 787.00 629.00 C 800.84 620.67 807.93 605.21 822.03 597.03 C 836.14 588.86 850.85 608.23 861.25 617.75 C 871.65 627.27 888.70 643.24 880.61 655.75 C 872.52 668.26 858.17 676.87 848.00 689.00 M 779.00 638.00  C 800.08 656.64 818.62 678.34 840.00 696.00 C 787.98 752.66 728.76 804.47 677.00 861.00 C 656.82 841.53 635.69 820.61 616.00 800.00 C 670.97 747.93 724.70 690.45 779.00 638.00 M 452.00 708.00  C 468.44 705.74 481.95 722.25 476.20 738.25 C 470.45 754.25 448.58 756.48 438.23 743.77 C 427.88 731.06 435.98 710.20 452.00 708.00 M 543.00 708.00  C 559.19 706.30 573.61 721.94 568.07 738.08 C 562.54 754.21 541.57 757.12 530.77 746.23 C 519.96 735.34 525.30 709.86 543.00 708.00 M 613.00 812.00  C 628.67 832.28 651.05 848.37 668.00 867.00 C 651.73 870.36 637.92 876.98 622.00 882.00 C 615.55 870.42 593.02 860.01 599.39 847.25 C 605.77 834.49 606.27 823.94 613.00 812.00 M 611.00 886.00  C 601.16 885.68 592.82 894.07 583.00 893.00 C 584.83 883.26 589.15 875.82 591.00 866.00 C 596.19 872.70 606.64 878.12 611.00 886.00 Z"/>
</g>
<g fill="#000000" fill-opacity="0.99" stroke="None">
<path d=" M 484.00 66.00  C 470.98 67.28 461.99 74.11 450.68 81.68 C 439.37 89.25 436.07 98.23 430.92 107.92 C 425.77 117.61 427.92 132.13 426.76 144.75 C 425.59 157.37 400.61 151.30 391.77 154.42 C 382.93 157.55 367.25 167.40 363.92 178.92 C 360.59 190.44 356.54 208.29 360.20 222.75 C 363.86 237.21 387.72 229.76 403.00 231.00 C 418.28 232.24 440.30 230.54 457.00 231.00 C 473.70 231.46 493.76 231.00 511.00 231.00 C 528.24 231.00 548.86 231.44 566.00 231.00 C 583.14 230.56 603.65 232.21 620.00 231.00 C 636.34 229.78 629.34 205.06 629.80 194.25 C 630.26 183.43 623.28 170.39 613.03 162.97 C 602.78 155.55 590.95 151.92 576.00 153.00 C 561.05 154.08 564.02 135.39 562.98 124.03 C 561.94 112.67 556.83 102.19 549.70 92.30 C 542.57 82.40 529.69 74.88 519.25 70.76 C 508.81 66.64 496.01 64.82 484.00 66.00 Z"/>
</g>
<g fill="#000000" fill-opacity="0.99" stroke="None">
<path d=" M 352.00 172.00  C 327.21 172.58 304.35 169.45 285.75 178.75 C 267.14 188.04 252.35 201.47 244.77 221.77 C 237.19 242.08 237.58 262.37 238.00 289.00 C 238.42 315.63 237.78 347.26 238.00 375.00 C 238.22 402.74 237.84 433.90 238.00 462.00 C 238.16 490.10 237.79 520.04 238.00 548.00 C 238.21 575.96 237.61 606.64 238.00 634.00 C 238.39 661.36 237.15 694.12 238.00 720.00 C 238.85 745.88 235.52 772.00 240.24 791.75 C 244.97 811.50 256.38 824.76 273.90 837.10 C 291.42 849.44 305.33 849.65 331.00 850.00 C 356.67 850.35 389.85 849.83 417.00 850.00 C 444.15 850.17 475.37 849.90 503.00 850.00 C 530.63 850.10 560.11 849.89 587.00 850.00 C 592.11 834.95 597.00 822.06 601.00 807.00 C 567.22 810.30 529.50 809.46 495.00 809.00 C 460.50 808.54 420.61 810.63 387.00 809.00 C 353.39 807.37 325.56 816.20 301.25 798.75 C 276.95 781.29 279.52 755.21 280.00 723.00 C 280.48 690.79 279.78 649.26 280.00 615.00 C 280.22 580.74 279.90 542.14 280.00 507.00 C 280.10 471.86 279.95 434.45 280.00 399.00 C 280.05 363.55 279.96 327.50 280.00 292.00 C 423.33 292.00 566.67 292.00 710.00 292.00 C 710.00 425.00 710.00 558.00 710.00 691.00 C 724.38 678.15 738.05 662.42 752.00 650.00 C 750.23 620.58 751.17 589.75 751.00 560.00 C 750.83 530.25 751.10 499.52 751.00 470.00 C 750.90 440.48 751.11 408.97 751.00 380.00 C 750.89 351.03 751.18 317.74 751.00 290.00 C 750.82 262.26 753.85 240.70 744.92 220.08 C 735.99 199.45 721.30 188.75 703.30 179.71 C 685.31 170.67 661.67 171.54 637.00 172.00 C 644.20 186.27 643.84 202.67 642.98 222.97 C 642.12 243.27 623.77 241.65 603.00 241.00 C 582.23 240.35 553.84 241.28 532.00 241.00 C 510.16 240.72 483.82 241.07 462.00 241.00 C 440.18 240.93 411.70 240.92 391.00 241.00 C 370.30 241.08 349.64 244.86 347.20 225.25 C 344.76 205.63 346.98 187.84 352.00 172.00 Z"/>
</g>
<g fill="#000000" fill-opacity="0.98" stroke="None">
<path d=" M 626.00 440.00  C 627.02 422.62 628.49 405.91 609.00 408.00 C 589.51 410.09 571.26 407.21 552.00 408.00 C 532.74 408.79 514.21 407.99 495.00 408.00 C 475.79 408.01 457.31 408.77 438.00 408.00 C 418.69 407.23 400.60 410.06 381.00 408.00 C 361.40 405.94 361.77 422.52 363.00 440.00 C 450.67 440.00 538.33 440.00 626.00 440.00 Z"/>
</g>
<g fill="#000000" fill-opacity="0.96" stroke="None">
<path d=" M 626.00 456.00  C 539.98 457.67 450.63 457.67 364.00 456.00 C 364.09 468.32 359.71 486.77 375.00 485.00 C 390.29 483.23 400.76 485.77 415.00 485.00 C 429.24 484.23 441.19 485.29 455.00 485.00 C 468.81 484.71 481.31 485.00 495.00 485.00 C 508.69 485.00 521.19 484.71 535.00 485.00 C 548.81 485.29 560.75 484.23 575.00 485.00 C 589.25 485.77 599.70 483.23 615.00 485.00 C 630.30 486.77 625.90 468.33 626.00 456.00 Z"/>
</g>
<g fill="#000000" fill-opacity="0.99" stroke="None">
<path d=" M 400.00 571.00  C 392.45 555.72 389.52 541.15 375.92 527.08 C 362.31 513.02 336.48 517.41 316.00 517.00 C 316.00 526.00 316.00 535.00 316.00 544.00 C 329.36 545.08 348.73 541.47 358.25 546.61 C 367.76 551.75 371.76 561.79 375.61 571.25 C 379.46 580.71 380.17 589.11 383.23 598.77 C 386.29 608.43 388.43 617.18 390.69 627.30 C 392.95 637.43 395.78 647.10 397.23 657.77 C 398.67 668.44 402.86 671.77 404.02 684.97 C 405.18 698.17 414.09 704.11 430.00 702.00 C 445.91 699.89 463.57 702.96 480.00 702.00 C 496.43 701.05 514.35 702.48 531.00 702.00 C 547.65 701.52 564.24 702.32 580.99 701.99 C 597.74 701.66 584.98 680.01 597.00 678.00 C 600.86 650.94 608.30 622.61 611.00 596.00 C 614.90 596.22 617.14 594.69 620.00 593.00 C 619.66 585.18 621.98 578.84 623.00 571.00 C 549.67 571.01 473.35 570.99 400.00 571.00 Z"/>
</g>
<g fill="#000000" fill-opacity="0.99" stroke="None">
<path d=" M 848.00 689.00  C 858.17 676.87 872.52 668.26 880.61 655.75 C 888.70 643.24 871.65 627.27 861.25 617.75 C 850.85 608.23 836.14 588.86 822.03 597.03 C 807.93 605.21 800.84 620.67 787.00 629.00 C 806.81 649.25 826.72 670.49 848.00 689.00 Z"/>
</g>
<g fill="#000000" fill-opacity="0.99" stroke="None">
<path d=" M 779.00 638.00  C 724.70 690.45 670.97 747.93 616.00 800.00 C 635.69 820.61 656.82 841.53 677.00 861.00 C 728.76 804.47 787.98 752.66 840.00 696.00 C 818.62 678.34 800.08 656.64 779.00 638.00 Z"/>
</g>
<g fill="#000000" fill-opacity="0.98" stroke="None">
<path d=" M 452.00 708.00  C 435.98 710.20 427.88 731.06 438.23 743.77 C 448.58 756.48 470.45 754.25 476.20 738.25 C 481.95 722.25 468.44 705.74 452.00 708.00 Z"/>
</g>
<g fill="#000000" fill-opacity="0.98" stroke="None">
<path d=" M 543.00 708.00  C 525.30 709.86 519.96 735.34 530.77 746.23 C 541.57 757.12 562.54 754.21 568.07 738.08 C 573.61 721.94 559.19 706.30 543.00 708.00 Z"/>
</g>
<g fill="#000000" fill-opacity="0.98" stroke="None">
<path d=" M 613.00 812.00  C 606.27 823.94 605.77 834.49 599.39 847.25 C 593.02 860.01 615.55 870.42 622.00 882.00 C 637.92 876.98 651.73 870.36 668.00 867.00 C 651.05 848.37 628.67 832.28 613.00 812.00 Z"/>
</g>
<g fill="#000000" fill-opacity="0.94" stroke="None">
<path d=" M 611.00 886.00  C 606.64 878.12 596.19 872.70 591.00 866.00 C 589.15 875.82 584.83 883.26 583.00 893.00 C 592.82 894.07 601.16 885.68 611.00 886.00 Z"/>
</g>
</svg>
