<svg xmlns="http://www.w3.org/2000/svg" xmlns:v="https://svgstorm.com"
viewBox="389 102 785 785"
width="785"
height="785">
<g fill="None" fill-opacity="0.0" stroke="#000000" stroke-opacity="0.00" stroke-width="0.3"><path d="
M 0.00 1024.00 
L 1536.00 1024.00
L 1536.00 0.00
L 0.00 0.00
L 0.00 1024.00
M 694.00 113.00 
C 720.69 108.45 748.13 114.41 771.25 120.80 C 794.37 127.19 819.11 145.70 836.92 164.08 C 854.73 182.46 867.64 206.40 874.59 228.75 C 881.54 251.11 885.37 279.02 881.60 303.75 C 877.84 328.49 872.04 346.48 860.69 367.69 C 849.35 388.90 828.40 411.65 806.32 426.32 C 784.24 440.99 762.93 449.49 737.75 451.80 C 712.57 454.11 683.89 451.98 662.25 444.61 C 640.60 437.23 617.68 420.99 599.75 402.25 C 581.82 383.51 567.75 359.61 560.20 336.75 C 552.65 313.89 549.44 286.67 551.60 261.25 C 553.76 235.83 560.74 216.58 572.57 195.23 C 584.41 173.89 604.67 151.05 626.30 137.30 C 647.92 123.54 670.15 117.06 694.00 113.00
M 992.00 609.00 
C 980.71 610.19 966.16 607.25 956.00 608.00 C 945.83 608.76 940.16 607.99 931.75 611.19 C 923.35 614.40 915.57 620.54 909.30 627.30 C 903.04 634.07 900.90 641.83 898.94 651.08 C 896.98 660.34 898.14 673.17 898.00 685.00 C 897.86 696.83 897.94 711.44 898.00 724.00 C 898.06 736.56 897.70 750.00 898.00 763.00 C 898.30 776.00 897.28 789.71 898.00 803.00 C 898.72 816.29 900.60 831.37 885.00 829.00 C 869.40 826.63 860.23 830.05 846.00 829.00 C 831.77 827.95 819.63 829.49 806.00 829.00 C 792.37 828.51 780.30 829.22 767.00 829.00 C 753.70 828.78 741.17 829.10 728.00 829.00 C 714.83 828.90 702.15 829.05 689.00 829.00 C 675.85 828.95 662.12 829.02 649.00 829.00 C 635.88 828.98 623.05 829.02 610.00 829.00 C 596.95 828.98 584.01 829.03 571.00 829.00 C 557.99 828.97 543.87 829.06 531.00 829.00 C 518.13 828.94 504.52 829.12 492.00 829.00 C 479.48 828.88 464.84 829.27 453.00 829.00 C 441.16 828.73 425.06 830.04 414.98 828.02 C 404.89 826.01 399.95 823.01 394.10 814.90 C 388.24 806.80 389.75 798.94 389.00 789.00 C 388.26 779.06 388.99 765.40 389.98 756.98 C 390.96 748.55 391.63 739.94 393.21 731.77 C 394.79 723.61 397.18 716.74 399.31 709.30 C 401.43 701.86 402.61 697.10 405.19 689.75 C 407.78 682.41 410.88 676.81 414.32 668.32 C 417.76 659.84 421.94 652.93 425.98 643.98 C 430.01 635.02 437.44 628.64 441.70 620.70 C 445.97 612.77 453.34 606.11 458.75 598.75 C 464.16 591.39 470.54 584.64 477.75 577.75 C 484.96 570.86 490.89 564.19 498.03 559.03 C 505.17 553.87 511.22 547.58 518.89 542.89 C 526.57 538.21 535.57 533.24 542.75 529.61 C 549.93 525.98 557.27 522.39 564.70 519.69 C 572.13 517.00 577.26 514.45 584.75 512.61 C 592.25 510.77 599.77 508.36 607.70 506.69 C 615.62 505.03 623.31 503.80 631.75 502.61 C 640.19 501.41 647.52 501.12 656.75 500.60 C 665.97 500.08 674.87 499.01 686.00 499.00 C 697.13 498.99 713.60 498.74 725.00 499.00 C 736.40 499.26 749.09 499.26 758.68 499.34 C 768.26 499.41 778.96 500.96 787.75 501.40 C 796.54 501.83 804.13 503.04 812.25 504.20 C 820.36 505.35 828.45 507.62 836.68 509.32 C 844.90 511.02 849.82 512.40 858.08 514.93 C 866.34 517.46 874.21 520.74 882.08 523.92 C 889.95 527.10 898.60 531.69 907.08 535.92 C 915.55 540.16 924.15 546.12 931.89 551.11 C 939.63 556.09 947.18 562.24 953.90 568.10 C 960.62 573.95 968.32 578.78 974.30 586.70 C 980.29 594.61 987.38 600.31 992.00 609.00
M 944.00 617.00 
C 963.85 614.14 989.37 618.07 1011.00 617.00 C 1032.63 615.93 1060.96 617.04 1082.00 617.00 C 1103.04 616.96 1128.21 614.38 1144.25 620.76 C 1160.28 627.13 1168.54 635.29 1172.19 652.25 C 1175.85 669.20 1173.55 696.53 1174.00 717.00 C 1174.45 737.47 1173.82 768.60 1174.00 789.00 C 1174.18 809.40 1175.80 831.61 1169.29 845.30 C 1162.78 859.00 1154.79 868.14 1137.75 872.20 C 1120.72 876.25 1094.60 875.29 1074.00 875.00 C 1053.40 874.71 1023.60 875.80 1003.00 875.00 C 982.40 874.20 956.39 878.03 939.97 872.02 C 923.55 866.02 912.54 855.66 907.74 839.25 C 902.93 822.83 906.93 796.30 906.00 776.00 C 905.07 755.70 906.38 724.10 906.00 704.00 C 905.62 683.90 904.02 658.11 910.77 643.77 C 917.52 629.43 928.46 619.24 944.00 617.00 Z"/>
</g>
<g fill="None" fill-opacity="0.0" stroke="#000000" stroke-opacity="1.00" stroke-width="0.3"><path d="
M 694.00 113.00 
C 670.15 117.06 647.92 123.54 626.30 137.30 C 604.67 151.05 584.41 173.89 572.57 195.23 C 560.74 216.58 553.76 235.83 551.60 261.25 C 549.44 286.67 552.65 313.89 560.20 336.75 C 567.75 359.61 581.82 383.51 599.75 402.25 C 617.68 420.99 640.60 437.23 662.25 444.61 C 683.89 451.98 712.57 454.11 737.75 451.80 C 762.93 449.49 784.24 440.99 806.32 426.32 C 828.40 411.65 849.35 388.90 860.69 367.69 C 872.04 346.48 877.84 328.49 881.60 303.75 C 885.37 279.02 881.54 251.11 874.59 228.75 C 867.64 206.40 854.73 182.46 836.92 164.08 C 819.11 145.70 794.37 127.19 771.25 120.80 C 748.13 114.41 720.69 108.45 694.00 113.00 Z"/>
</g>
<g fill="None" fill-opacity="0.0" stroke="#000000" stroke-opacity="0.99" stroke-width="0.3"><path d="
M 992.00 609.00 
C 987.38 600.31 980.29 594.61 974.30 586.70 C 968.32 578.78 960.62 573.95 953.90 568.10 C 947.18 562.24 939.63 556.09 931.89 551.11 C 924.15 546.12 915.55 540.16 907.08 535.92 C 898.60 531.69 889.95 527.10 882.08 523.92 C 874.21 520.74 866.34 517.46 858.08 514.93 C 849.82 512.40 844.90 511.02 836.68 509.32 C 828.45 507.62 820.36 505.35 812.25 504.20 C 804.13 503.04 796.54 501.83 787.75 501.40 C 778.96 500.96 768.26 499.41 758.68 499.34 C 749.09 499.26 736.40 499.26 725.00 499.00 C 713.60 498.74 697.13 498.99 686.00 499.00 C 674.87 499.01 665.97 500.08 656.75 500.60 C 647.52 501.12 640.19 501.41 631.75 502.61 C 623.31 503.80 615.62 505.03 607.70 506.69 C 599.77 508.36 592.25 510.77 584.75 512.61 C 577.26 514.45 572.13 517.00 564.70 519.69 C 557.27 522.39 549.93 525.98 542.75 529.61 C 535.57 533.24 526.57 538.21 518.89 542.89 C 511.22 547.58 505.17 553.87 498.03 559.03 C 490.89 564.19 484.96 570.86 477.75 577.75 C 470.54 584.64 464.16 591.39 458.75 598.75 C 453.34 606.11 445.97 612.77 441.70 620.70 C 437.44 628.64 430.01 635.02 425.98 643.98 C 421.94 652.93 417.76 659.84 414.32 668.32 C 410.88 676.81 407.78 682.41 405.19 689.75 C 402.61 697.10 401.43 701.86 399.31 709.30 C 397.18 716.74 394.79 723.61 393.21 731.77 C 391.63 739.94 390.96 748.55 389.98 756.98 C 388.99 765.40 388.26 779.06 389.00 789.00 C 389.75 798.94 388.24 806.80 394.10 814.90 C 399.95 823.01 404.89 826.01 414.98 828.02 C 425.06 830.04 441.16 828.73 453.00 829.00 C 464.84 829.27 479.48 828.88 492.00 829.00 C 504.52 829.12 518.13 828.94 531.00 829.00 C 543.87 829.06 557.99 828.97 571.00 829.00 C 584.01 829.03 596.95 828.98 610.00 829.00 C 623.05 829.02 635.88 828.98 649.00 829.00 C 662.12 829.02 675.85 828.95 689.00 829.00 C 702.15 829.05 714.83 828.90 728.00 829.00 C 741.17 829.10 753.70 828.78 767.00 829.00 C 780.30 829.22 792.37 828.51 806.00 829.00 C 819.63 829.49 831.77 827.95 846.00 829.00 C 860.23 830.05 869.40 826.63 885.00 829.00 C 900.60 831.37 898.72 816.29 898.00 803.00 C 897.28 789.71 898.30 776.00 898.00 763.00 C 897.70 750.00 898.06 736.56 898.00 724.00 C 897.94 711.44 897.86 696.83 898.00 685.00 C 898.14 673.17 896.98 660.34 898.94 651.08 C 900.90 641.83 903.04 634.07 909.30 627.30 C 915.57 620.54 923.35 614.40 931.75 611.19 C 940.16 607.99 945.83 608.76 956.00 608.00 C 966.16 607.25 980.71 610.19 992.00 609.00 Z"/>
</g>
<g fill="None" fill-opacity="0.0" stroke="#000000" stroke-opacity="0.98" stroke-width="0.3"><path d="
M 944.00 617.00 
C 928.46 619.24 917.52 629.43 910.77 643.77 C 904.02 658.11 905.62 683.90 906.00 704.00 C 906.38 724.10 905.07 755.70 906.00 776.00 C 906.93 796.30 902.93 822.83 907.74 839.25 C 912.54 855.66 923.55 866.02 939.97 872.02 C 956.39 878.03 982.40 874.20 1003.00 875.00 C 1023.60 875.80 1053.40 874.71 1074.00 875.00 C 1094.60 875.29 1120.72 876.25 1137.75 872.20 C 1154.79 868.14 1162.78 859.00 1169.29 845.30 C 1175.80 831.61 1174.18 809.40 1174.00 789.00 C 1173.82 768.60 1174.45 737.47 1174.00 717.00 C 1173.55 696.53 1175.85 669.20 1172.19 652.25 C 1168.54 635.29 1160.28 627.13 1144.25 620.76 C 1128.21 614.38 1103.04 616.96 1082.00 617.00 C 1060.96 617.04 1032.63 615.93 1011.00 617.00 C 989.37 618.07 963.85 614.14 944.00 617.00
M 947.00 635.00 
C 961.86 631.57 980.45 636.44 997.00 635.00 C 1013.55 633.56 1033.25 635.53 1050.00 635.00 C 1066.75 634.47 1085.56 634.92 1102.00 635.00 C 1118.44 635.08 1131.52 632.22 1143.29 640.71 C 1155.07 649.19 1155.32 663.01 1155.00 679.00 C 1154.68 694.99 1155.35 715.65 1155.00 732.00 C 1154.65 748.35 1155.62 768.07 1155.00 784.00 C 1154.38 799.93 1156.35 818.95 1153.80 832.25 C 1151.26 845.55 1142.80 853.76 1128.25 855.40 C 1113.70 857.03 1093.06 855.66 1077.00 856.00 C 1060.94 856.34 1040.40 855.84 1024.00 856.00 C 1007.60 856.16 987.99 855.93 972.00 856.00 C 956.01 856.07 945.27 857.47 935.10 847.90 C 924.93 838.33 925.02 831.79 925.00 816.00 C 924.98 800.21 924.99 779.00 925.00 763.00 C 925.01 747.00 924.96 726.18 925.00 711.00 C 925.04 695.82 924.63 671.85 925.60 659.26 C 926.56 646.66 933.54 638.11 947.00 635.00 Z"/>
</g>
<g fill="None" fill-opacity="0.0" stroke="#000000" stroke-opacity="0.01" stroke-width="0.3"><path d="
M 947.00 635.00 
C 933.54 638.11 926.56 646.66 925.60 659.26 C 924.63 671.85 925.04 695.82 925.00 711.00 C 924.96 726.18 925.01 747.00 925.00 763.00 C 924.99 779.00 924.98 800.21 925.00 816.00 C 925.02 831.79 924.93 838.33 935.10 847.90 C 945.27 857.47 956.01 856.07 972.00 856.00 C 987.99 855.93 1007.60 856.16 1024.00 856.00 C 1040.40 855.84 1060.94 856.34 1077.00 856.00 C 1093.06 855.66 1113.70 857.03 1128.25 855.40 C 1142.80 853.76 1151.26 845.55 1153.80 832.25 C 1156.35 818.95 1154.38 799.93 1155.00 784.00 C 1155.62 768.07 1154.65 748.35 1155.00 732.00 C 1155.35 715.65 1154.68 694.99 1155.00 679.00 C 1155.32 663.01 1155.07 649.19 1143.29 640.71 C 1131.52 632.22 1118.44 635.08 1102.00 635.00 C 1085.56 634.92 1066.75 634.47 1050.00 635.00 C 1033.25 635.53 1013.55 633.56 997.00 635.00 C 980.45 636.44 961.86 631.57 947.00 635.00
M 1044.00 726.00 
C 1054.13 715.42 1068.16 699.02 1080.25 689.25 C 1092.34 679.47 1104.55 656.79 1118.90 669.10 C 1133.25 681.41 1111.29 698.70 1099.75 708.75 C 1088.21 718.81 1073.16 734.60 1063.00 746.00
C 1074.95 755.24 1086.35 765.84 1097.75 776.25 C 1109.14 786.67 1119.02 797.02 1131.10 807.90 C 1143.18 818.78 1123.05 837.54 1111.08 826.92 C 1099.12 816.29 1088.15 807.31 1076.92 796.08 C 1065.69 784.86 1054.12 775.99 1044.00 764.00
C 1035.56 770.44 1027.44 778.66 1019.25 786.25 C 1011.06 793.84 1003.99 802.73 995.25 810.25 C 986.50 817.77 980.52 826.57 969.75 829.80 C 958.99 833.03 947.43 818.00 955.10 809.10 C 962.77 800.20 970.56 793.73 978.75 785.75 C 986.95 777.77 995.55 770.31 1003.25 762.25 C 1010.96 754.20 1025.94 748.87 1016.25 739.75 C 1006.57 730.62 1001.78 723.82 991.92 716.08 C 982.06 708.34 979.08 700.29 968.75 694.24 C 958.43 688.19 955.13 672.90 966.68 667.68 C 978.24 662.46 985.75 672.26 993.77 680.23 C 1001.78 688.20 1010.77 695.35 1018.70 703.30 C 1026.63 711.25 1034.92 719.91 1044.00 726.00 Z"/>
</g>
<g fill="None" fill-opacity="0.0" stroke="#000000" stroke-opacity="0.98" stroke-width="0.3"><path d="
M 1044.00 726.00 
C 1034.92 719.91 1026.63 711.25 1018.70 703.30 C 1010.77 695.35 1001.78 688.20 993.77 680.23 C 985.75 672.26 978.24 662.46 966.68 667.68 C 955.13 672.90 958.43 688.19 968.75 694.24 C 979.08 700.29 982.06 708.34 991.92 716.08 C 1001.78 723.82 1006.57 730.62 1016.25 739.75 C 1025.94 748.87 1010.96 754.20 1003.25 762.25 C 995.55 770.31 986.95 777.77 978.75 785.75 C 970.56 793.73 962.77 800.20 955.10 809.10 C 947.43 818.00 958.99 833.03 969.75 829.80 C 980.52 826.57 986.50 817.77 995.25 810.25 C 1003.99 802.73 1011.06 793.84 1019.25 786.25 C 1027.44 778.66 1035.56 770.44 1044.00 764.00
C 1054.12 775.99 1065.69 784.86 1076.92 796.08 C 1088.15 807.31 1099.12 816.29 1111.08 826.92 C 1123.05 837.54 1143.18 818.78 1131.10 807.90 C 1119.02 797.02 1109.14 786.67 1097.75 776.25 C 1086.35 765.84 1074.95 755.24 1063.00 746.00
C 1073.16 734.60 1088.21 718.81 1099.75 708.75 C 1111.29 698.70 1133.25 681.41 1118.90 669.10 C 1104.55 656.79 1092.34 679.47 1080.25 689.25 C 1068.16 699.02 1054.13 715.42 1044.00 726.00 Z"/>
</g>
<g fill="#000000" fill-opacity="0.00" stroke="None">
<path d="
M 0.00 1024.00 
L 1536.00 1024.00
L 1536.00 0.00
L 0.00 0.00
L 0.00 1024.00
M 694.00 113.00 
C 720.69 108.45 748.13 114.41 771.25 120.80 C 794.37 127.19 819.11 145.70 836.92 164.08 C 854.73 182.46 867.64 206.40 874.59 228.75 C 881.54 251.11 885.37 279.02 881.60 303.75 C 877.84 328.49 872.04 346.48 860.69 367.69 C 849.35 388.90 828.40 411.65 806.32 426.32 C 784.24 440.99 762.93 449.49 737.75 451.80 C 712.57 454.11 683.89 451.98 662.25 444.61 C 640.60 437.23 617.68 420.99 599.75 402.25 C 581.82 383.51 567.75 359.61 560.20 336.75 C 552.65 313.89 549.44 286.67 551.60 261.25 C 553.76 235.83 560.74 216.58 572.57 195.23 C 584.41 173.89 604.67 151.05 626.30 137.30 C 647.92 123.54 670.15 117.06 694.00 113.00
M 992.00 609.00 
C 980.71 610.19 966.16 607.25 956.00 608.00 C 945.83 608.76 940.16 607.99 931.75 611.19 C 923.35 614.40 915.57 620.54 909.30 627.30 C 903.04 634.07 900.90 641.83 898.94 651.08 C 896.98 660.34 898.14 673.17 898.00 685.00 C 897.86 696.83 897.94 711.44 898.00 724.00 C 898.06 736.56 897.70 750.00 898.00 763.00 C 898.30 776.00 897.28 789.71 898.00 803.00 C 898.72 816.29 900.60 831.37 885.00 829.00 C 869.40 826.63 860.23 830.05 846.00 829.00 C 831.77 827.95 819.63 829.49 806.00 829.00 C 792.37 828.51 780.30 829.22 767.00 829.00 C 753.70 828.78 741.17 829.10 728.00 829.00 C 714.83 828.90 702.15 829.05 689.00 829.00 C 675.85 828.95 662.12 829.02 649.00 829.00 C 635.88 828.98 623.05 829.02 610.00 829.00 C 596.95 828.98 584.01 829.03 571.00 829.00 C 557.99 828.97 543.87 829.06 531.00 829.00 C 518.13 828.94 504.52 829.12 492.00 829.00 C 479.48 828.88 464.84 829.27 453.00 829.00 C 441.16 828.73 425.06 830.04 414.98 828.02 C 404.89 826.01 399.95 823.01 394.10 814.90 C 388.24 806.80 389.75 798.94 389.00 789.00 C 388.26 779.06 388.99 765.40 389.98 756.98 C 390.96 748.55 391.63 739.94 393.21 731.77 C 394.79 723.61 397.18 716.74 399.31 709.30 C 401.43 701.86 402.61 697.10 405.19 689.75 C 407.78 682.41 410.88 676.81 414.32 668.32 C 417.76 659.84 421.94 652.93 425.98 643.98 C 430.01 635.02 437.44 628.64 441.70 620.70 C 445.97 612.77 453.34 606.11 458.75 598.75 C 464.16 591.39 470.54 584.64 477.75 577.75 C 484.96 570.86 490.89 564.19 498.03 559.03 C 505.17 553.87 511.22 547.58 518.89 542.89 C 526.57 538.21 535.57 533.24 542.75 529.61 C 549.93 525.98 557.27 522.39 564.70 519.69 C 572.13 517.00 577.26 514.45 584.75 512.61 C 592.25 510.77 599.77 508.36 607.70 506.69 C 615.62 505.03 623.31 503.80 631.75 502.61 C 640.19 501.41 647.52 501.12 656.75 500.60 C 665.97 500.08 674.87 499.01 686.00 499.00 C 697.13 498.99 713.60 498.74 725.00 499.00 C 736.40 499.26 749.09 499.26 758.68 499.34 C 768.26 499.41 778.96 500.96 787.75 501.40 C 796.54 501.83 804.13 503.04 812.25 504.20 C 820.36 505.35 828.45 507.62 836.68 509.32 C 844.90 511.02 849.82 512.40 858.08 514.93 C 866.34 517.46 874.21 520.74 882.08 523.92 C 889.95 527.10 898.60 531.69 907.08 535.92 C 915.55 540.16 924.15 546.12 931.89 551.11 C 939.63 556.09 947.18 562.24 953.90 568.10 C 960.62 573.95 968.32 578.78 974.30 586.70 C 980.29 594.61 987.38 600.31 992.00 609.00
M 944.00 617.00 
C 963.85 614.14 989.37 618.07 1011.00 617.00 C 1032.63 615.93 1060.96 617.04 1082.00 617.00 C 1103.04 616.96 1128.21 614.38 1144.25 620.76 C 1160.28 627.13 1168.54 635.29 1172.19 652.25 C 1175.85 669.20 1173.55 696.53 1174.00 717.00 C 1174.45 737.47 1173.82 768.60 1174.00 789.00 C 1174.18 809.40 1175.80 831.61 1169.29 845.30 C 1162.78 859.00 1154.79 868.14 1137.75 872.20 C 1120.72 876.25 1094.60 875.29 1074.00 875.00 C 1053.40 874.71 1023.60 875.80 1003.00 875.00 C 982.40 874.20 956.39 878.03 939.97 872.02 C 923.55 866.02 912.54 855.66 907.74 839.25 C 902.93 822.83 906.93 796.30 906.00 776.00 C 905.07 755.70 906.38 724.10 906.00 704.00 C 905.62 683.90 904.02 658.11 910.77 643.77 C 917.52 629.43 928.46 619.24 944.00 617.00 Z"/>
</g>
<g fill="#000000" fill-opacity="1.00" stroke="None">
<path d="
M 694.00 113.00 
C 670.15 117.06 647.92 123.54 626.30 137.30 C 604.67 151.05 584.41 173.89 572.57 195.23 C 560.74 216.58 553.76 235.83 551.60 261.25 C 549.44 286.67 552.65 313.89 560.20 336.75 C 567.75 359.61 581.82 383.51 599.75 402.25 C 617.68 420.99 640.60 437.23 662.25 444.61 C 683.89 451.98 712.57 454.11 737.75 451.80 C 762.93 449.49 784.24 440.99 806.32 426.32 C 828.40 411.65 849.35 388.90 860.69 367.69 C 872.04 346.48 877.84 328.49 881.60 303.75 C 885.37 279.02 881.54 251.11 874.59 228.75 C 867.64 206.40 854.73 182.46 836.92 164.08 C 819.11 145.70 794.37 127.19 771.25 120.80 C 748.13 114.41 720.69 108.45 694.00 113.00 Z"/>
</g>
<g fill="#000000" fill-opacity="0.99" stroke="None">
<path d="
M 992.00 609.00 
C 987.38 600.31 980.29 594.61 974.30 586.70 C 968.32 578.78 960.62 573.95 953.90 568.10 C 947.18 562.24 939.63 556.09 931.89 551.11 C 924.15 546.12 915.55 540.16 907.08 535.92 C 898.60 531.69 889.95 527.10 882.08 523.92 C 874.21 520.74 866.34 517.46 858.08 514.93 C 849.82 512.40 844.90 511.02 836.68 509.32 C 828.45 507.62 820.36 505.35 812.25 504.20 C 804.13 503.04 796.54 501.83 787.75 501.40 C 778.96 500.96 768.26 499.41 758.68 499.34 C 749.09 499.26 736.40 499.26 725.00 499.00 C 713.60 498.74 697.13 498.99 686.00 499.00 C 674.87 499.01 665.97 500.08 656.75 500.60 C 647.52 501.12 640.19 501.41 631.75 502.61 C 623.31 503.80 615.62 505.03 607.70 506.69 C 599.77 508.36 592.25 510.77 584.75 512.61 C 577.26 514.45 572.13 517.00 564.70 519.69 C 557.27 522.39 549.93 525.98 542.75 529.61 C 535.57 533.24 526.57 538.21 518.89 542.89 C 511.22 547.58 505.17 553.87 498.03 559.03 C 490.89 564.19 484.96 570.86 477.75 577.75 C 470.54 584.64 464.16 591.39 458.75 598.75 C 453.34 606.11 445.97 612.77 441.70 620.70 C 437.44 628.64 430.01 635.02 425.98 643.98 C 421.94 652.93 417.76 659.84 414.32 668.32 C 410.88 676.81 407.78 682.41 405.19 689.75 C 402.61 697.10 401.43 701.86 399.31 709.30 C 397.18 716.74 394.79 723.61 393.21 731.77 C 391.63 739.94 390.96 748.55 389.98 756.98 C 388.99 765.40 388.26 779.06 389.00 789.00 C 389.75 798.94 388.24 806.80 394.10 814.90 C 399.95 823.01 404.89 826.01 414.98 828.02 C 425.06 830.04 441.16 828.73 453.00 829.00 C 464.84 829.27 479.48 828.88 492.00 829.00 C 504.52 829.12 518.13 828.94 531.00 829.00 C 543.87 829.06 557.99 828.97 571.00 829.00 C 584.01 829.03 596.95 828.98 610.00 829.00 C 623.05 829.02 635.88 828.98 649.00 829.00 C 662.12 829.02 675.85 828.95 689.00 829.00 C 702.15 829.05 714.83 828.90 728.00 829.00 C 741.17 829.10 753.70 828.78 767.00 829.00 C 780.30 829.22 792.37 828.51 806.00 829.00 C 819.63 829.49 831.77 827.95 846.00 829.00 C 860.23 830.05 869.40 826.63 885.00 829.00 C 900.60 831.37 898.72 816.29 898.00 803.00 C 897.28 789.71 898.30 776.00 898.00 763.00 C 897.70 750.00 898.06 736.56 898.00 724.00 C 897.94 711.44 897.86 696.83 898.00 685.00 C 898.14 673.17 896.98 660.34 898.94 651.08 C 900.90 641.83 903.04 634.07 909.30 627.30 C 915.57 620.54 923.35 614.40 931.75 611.19 C 940.16 607.99 945.83 608.76 956.00 608.00 C 966.16 607.25 980.71 610.19 992.00 609.00 Z"/>
</g>
<g fill="#000000" fill-opacity="0.98" stroke="None">
<path d="
M 944.00 617.00 
C 928.46 619.24 917.52 629.43 910.77 643.77 C 904.02 658.11 905.62 683.90 906.00 704.00 C 906.38 724.10 905.07 755.70 906.00 776.00 C 906.93 796.30 902.93 822.83 907.74 839.25 C 912.54 855.66 923.55 866.02 939.97 872.02 C 956.39 878.03 982.40 874.20 1003.00 875.00 C 1023.60 875.80 1053.40 874.71 1074.00 875.00 C 1094.60 875.29 1120.72 876.25 1137.75 872.20 C 1154.79 868.14 1162.78 859.00 1169.29 845.30 C 1175.80 831.61 1174.18 809.40 1174.00 789.00 C 1173.82 768.60 1174.45 737.47 1174.00 717.00 C 1173.55 696.53 1175.85 669.20 1172.19 652.25 C 1168.54 635.29 1160.28 627.13 1144.25 620.76 C 1128.21 614.38 1103.04 616.96 1082.00 617.00 C 1060.96 617.04 1032.63 615.93 1011.00 617.00 C 989.37 618.07 963.85 614.14 944.00 617.00
M 947.00 635.00 
C 961.86 631.57 980.45 636.44 997.00 635.00 C 1013.55 633.56 1033.25 635.53 1050.00 635.00 C 1066.75 634.47 1085.56 634.92 1102.00 635.00 C 1118.44 635.08 1131.52 632.22 1143.29 640.71 C 1155.07 649.19 1155.32 663.01 1155.00 679.00 C 1154.68 694.99 1155.35 715.65 1155.00 732.00 C 1154.65 748.35 1155.62 768.07 1155.00 784.00 C 1154.38 799.93 1156.35 818.95 1153.80 832.25 C 1151.26 845.55 1142.80 853.76 1128.25 855.40 C 1113.70 857.03 1093.06 855.66 1077.00 856.00 C 1060.94 856.34 1040.40 855.84 1024.00 856.00 C 1007.60 856.16 987.99 855.93 972.00 856.00 C 956.01 856.07 945.27 857.47 935.10 847.90 C 924.93 838.33 925.02 831.79 925.00 816.00 C 924.98 800.21 924.99 779.00 925.00 763.00 C 925.01 747.00 924.96 726.18 925.00 711.00 C 925.04 695.82 924.63 671.85 925.60 659.26 C 926.56 646.66 933.54 638.11 947.00 635.00 Z"/>
</g>
<g fill="#000000" fill-opacity="0.01" stroke="None">
<path d="
M 947.00 635.00 
C 933.54 638.11 926.56 646.66 925.60 659.26 C 924.63 671.85 925.04 695.82 925.00 711.00 C 924.96 726.18 925.01 747.00 925.00 763.00 C 924.99 779.00 924.98 800.21 925.00 816.00 C 925.02 831.79 924.93 838.33 935.10 847.90 C 945.27 857.47 956.01 856.07 972.00 856.00 C 987.99 855.93 1007.60 856.16 1024.00 856.00 C 1040.40 855.84 1060.94 856.34 1077.00 856.00 C 1093.06 855.66 1113.70 857.03 1128.25 855.40 C 1142.80 853.76 1151.26 845.55 1153.80 832.25 C 1156.35 818.95 1154.38 799.93 1155.00 784.00 C 1155.62 768.07 1154.65 748.35 1155.00 732.00 C 1155.35 715.65 1154.68 694.99 1155.00 679.00 C 1155.32 663.01 1155.07 649.19 1143.29 640.71 C 1131.52 632.22 1118.44 635.08 1102.00 635.00 C 1085.56 634.92 1066.75 634.47 1050.00 635.00 C 1033.25 635.53 1013.55 633.56 997.00 635.00 C 980.45 636.44 961.86 631.57 947.00 635.00
M 1044.00 726.00 
C 1054.13 715.42 1068.16 699.02 1080.25 689.25 C 1092.34 679.47 1104.55 656.79 1118.90 669.10 C 1133.25 681.41 1111.29 698.70 1099.75 708.75 C 1088.21 718.81 1073.16 734.60 1063.00 746.00
C 1074.95 755.24 1086.35 765.84 1097.75 776.25 C 1109.14 786.67 1119.02 797.02 1131.10 807.90 C 1143.18 818.78 1123.05 837.54 1111.08 826.92 C 1099.12 816.29 1088.15 807.31 1076.92 796.08 C 1065.69 784.86 1054.12 775.99 1044.00 764.00
C 1035.56 770.44 1027.44 778.66 1019.25 786.25 C 1011.06 793.84 1003.99 802.73 995.25 810.25 C 986.50 817.77 980.52 826.57 969.75 829.80 C 958.99 833.03 947.43 818.00 955.10 809.10 C 962.77 800.20 970.56 793.73 978.75 785.75 C 986.95 777.77 995.55 770.31 1003.25 762.25 C 1010.96 754.20 1025.94 748.87 1016.25 739.75 C 1006.57 730.62 1001.78 723.82 991.92 716.08 C 982.06 708.34 979.08 700.29 968.75 694.24 C 958.43 688.19 955.13 672.90 966.68 667.68 C 978.24 662.46 985.75 672.26 993.77 680.23 C 1001.78 688.20 1010.77 695.35 1018.70 703.30 C 1026.63 711.25 1034.92 719.91 1044.00 726.00 Z"/>
</g>
<g fill="#000000" fill-opacity="0.98" stroke="None">
<path d="
M 1044.00 726.00 
C 1034.92 719.91 1026.63 711.25 1018.70 703.30 C 1010.77 695.35 1001.78 688.20 993.77 680.23 C 985.75 672.26 978.24 662.46 966.68 667.68 C 955.13 672.90 958.43 688.19 968.75 694.24 C 979.08 700.29 982.06 708.34 991.92 716.08 C 1001.78 723.82 1006.57 730.62 1016.25 739.75 C 1025.94 748.87 1010.96 754.20 1003.25 762.25 C 995.55 770.31 986.95 777.77 978.75 785.75 C 970.56 793.73 962.77 800.20 955.10 809.10 C 947.43 818.00 958.99 833.03 969.75 829.80 C 980.52 826.57 986.50 817.77 995.25 810.25 C 1003.99 802.73 1011.06 793.84 1019.25 786.25 C 1027.44 778.66 1035.56 770.44 1044.00 764.00
C 1054.12 775.99 1065.69 784.86 1076.92 796.08 C 1088.15 807.31 1099.12 816.29 1111.08 826.92 C 1123.05 837.54 1143.18 818.78 1131.10 807.90 C 1119.02 797.02 1109.14 786.67 1097.75 776.25 C 1086.35 765.84 1074.95 755.24 1063.00 746.00
C 1073.16 734.60 1088.21 718.81 1099.75 708.75 C 1111.29 698.70 1133.25 681.41 1118.90 669.10 C 1104.55 656.79 1092.34 679.47 1080.25 689.25 C 1068.16 699.02 1054.13 715.42 1044.00 726.00 Z"/>
</g>
</svg>