<svg xmlns="http://www.w3.org/2000/svg" xmlns:v="https://svgstorm.com" viewBox="348.83 43.71 879.55 879.55" width="100%" height="100%">
<g fill="None" fill-opacity="0.0" stroke="#000000" stroke-opacity="0.00" stroke-width="0.3"><path d=" M 0.00 1024.00  L 1536.00 1024.00 L 1536.00 0.00 L 0.00 0.00 L 0.00 1024.00 M 1079.00 456.00  C 1111.79 459.39 1140.19 447.79 1164.30 466.70 C 1188.40 485.62 1184.39 514.14 1184.00 546.00 C 1183.61 577.86 1183.42 621.84 1184.00 654.00 C 1184.58 686.16 1188.26 710.58 1164.30 729.30 C 1140.34 748.02 1109.82 742.45 1077.00 743.00 C 1044.18 743.55 1000.76 742.59 969.00 743.00 C 937.24 743.41 919.44 740.46 902.30 718.70 C 885.17 696.93 898.20 660.75 894.00 632.00 C 875.72 633.94 855.62 632.84 837.00 633.00 C 818.38 633.16 796.11 633.07 778.00 633.00 C 759.89 632.93 735.56 633.34 719.00 633.00 C 702.44 632.66 698.77 648.84 685.77 656.77 C 672.77 664.70 668.86 677.46 657.25 686.25 C 645.63 695.04 637.82 705.86 627.75 715.75 C 617.68 725.65 608.08 735.33 597.75 744.75 C 587.43 754.17 578.72 765.34 568.25 774.25 C 557.78 783.15 550.17 798.20 536.92 799.07 C 523.68 799.94 513.40 792.15 514.00 775.00 C 514.60 757.85 513.94 734.31 514.00 716.00 C 514.06 697.69 514.44 675.55 514.00 657.00 C 513.56 638.45 513.76 619.60 512.00 602.00 C 491.92 592.78 474.90 580.45 458.25 564.75 C 441.60 549.05 427.29 528.72 417.69 511.31 C 408.10 493.89 401.20 478.91 396.23 459.77 C 391.26 440.63 388.81 416.93 389.00 395.00 C 389.19 373.07 392.65 354.56 397.39 335.25 C 402.14 315.94 411.36 298.47 421.92 278.92 C 432.48 259.38 448.14 242.23 464.75 225.75 C 481.37 209.28 500.18 197.76 516.75 189.61 C 533.33 181.45 542.37 177.12 564.08 172.07 C 585.80 167.02 613.78 167.69 642.00 168.00 C 670.22 168.31 707.88 167.81 737.00 168.00 C 766.12 168.19 804.80 167.81 833.00 168.00 C 861.20 168.19 883.98 167.02 905.25 171.80 C 926.52 176.58 936.75 180.90 957.08 190.92 C 977.40 200.95 995.98 215.77 1012.75 231.25 C 1029.53 246.72 1041.91 264.92 1052.92 283.08 C 1063.92 301.24 1068.31 315.64 1074.19 335.25 C 1080.08 354.86 1082.88 371.46 1084.00 393.00 C 1085.12 414.54 1083.19 436.43 1079.00 456.00 Z"/>
</g>
<g fill="None" fill-opacity="0.0" stroke="#000000" stroke-opacity="0.98" stroke-width="0.3"><path d=" M 1079.00 456.00  C 1083.19 436.43 1085.12 414.54 1084.00 393.00 C 1082.88 371.46 1080.08 354.86 1074.19 335.25 C 1068.31 315.64 1063.92 301.24 1052.92 283.08 C 1041.91 264.92 1029.53 246.72 1012.75 231.25 C 995.98 215.77 977.40 200.95 957.08 190.92 C 936.75 180.90 926.52 176.58 905.25 171.80 C 883.98 167.02 861.20 168.19 833.00 168.00 C 804.80 167.81 766.12 168.19 737.00 168.00 C 707.88 167.81 670.22 168.31 642.00 168.00 C 613.78 167.69 585.80 167.02 564.08 172.07 C 542.37 177.12 533.33 181.45 516.75 189.61 C 500.18 197.76 481.37 209.28 464.75 225.75 C 448.14 242.23 432.48 259.38 421.92 278.92 C 411.36 298.47 402.14 315.94 397.39 335.25 C 392.65 354.56 389.19 373.07 389.00 395.00 C 388.81 416.93 391.26 440.63 396.23 459.77 C 401.20 478.91 408.10 493.89 417.69 511.31 C 427.29 528.72 441.60 549.05 458.25 564.75 C 474.90 580.45 491.92 592.78 512.00 602.00 C 513.76 619.60 513.56 638.45 514.00 657.00 C 514.44 675.55 514.06 697.69 514.00 716.00 C 513.94 734.31 514.60 757.85 514.00 775.00 C 513.40 792.15 523.68 799.94 536.92 799.07 C 550.17 798.20 557.78 783.15 568.25 774.25 C 578.72 765.34 587.43 754.17 597.75 744.75 C 608.08 735.33 617.68 725.65 627.75 715.75 C 637.82 705.86 645.63 695.04 657.25 686.25 C 668.86 677.46 672.77 664.70 685.77 656.77 C 698.77 648.84 702.44 632.66 719.00 633.00 C 735.56 633.34 759.89 632.93 778.00 633.00 C 796.11 633.07 818.38 633.16 837.00 633.00 C 855.62 632.84 875.72 633.94 894.00 632.00 C 898.20 660.75 885.17 696.93 902.30 718.70 C 919.44 740.46 937.24 743.41 969.00 743.00 C 1000.76 742.59 1044.18 743.55 1077.00 743.00 C 1109.82 742.45 1140.34 748.02 1164.30 729.30 C 1188.26 710.58 1184.58 686.16 1184.00 654.00 C 1183.42 621.84 1183.61 577.86 1184.00 546.00 C 1184.39 514.14 1188.40 485.62 1164.30 466.70 C 1140.19 447.79 1111.79 459.39 1079.00 456.00 M 1033.00 456.00  C 992.11 463.47 941.35 441.61 910.90 466.90 C 880.46 492.19 899.08 549.55 894.00 588.00 C 864.24 587.36 830.35 588.86 801.00 588.00 C 771.65 587.14 734.76 589.62 707.00 588.00 C 679.24 586.38 670.28 611.58 651.75 626.75 C 633.22 641.92 621.51 658.41 604.75 673.75 C 587.99 689.09 572.23 705.71 557.00 720.00 C 558.44 699.25 558.51 672.69 558.00 652.00 C 557.49 631.31 559.73 601.39 557.07 582.93 C 554.41 564.46 533.58 566.57 522.31 556.69 C 511.03 546.82 494.05 537.69 483.25 525.75 C 472.45 513.81 463.39 499.27 456.61 487.25 C 449.83 475.22 446.91 467.03 442.81 452.75 C 438.71 438.48 436.00 425.83 435.66 409.32 C 435.33 392.81 435.81 374.83 438.60 360.25 C 441.40 345.67 444.41 335.78 449.78 321.78 C 455.14 307.77 463.84 293.34 472.90 280.90 C 481.96 268.47 494.46 255.42 506.70 245.70 C 518.94 235.98 532.57 226.99 546.75 221.61 C 560.93 216.22 567.27 211.70 583.25 209.20 C 599.22 206.70 615.48 205.85 636.00 206.00 C 656.52 206.15 683.48 205.92 705.00 206.00 C 726.52 206.08 753.59 205.93 775.00 206.00 C 796.41 206.07 823.92 205.90 844.00 206.00 C 864.08 206.10 877.57 207.13 893.25 210.80 C 908.93 214.47 919.36 217.02 933.25 224.20 C 947.13 231.38 961.38 240.33 973.75 251.25 C 986.12 262.18 997.27 276.26 1005.70 288.30 C 1014.14 300.33 1020.93 315.47 1025.92 328.08 C 1030.91 340.69 1032.80 351.23 1035.60 364.75 C 1038.41 378.27 1039.09 395.87 1038.60 411.74 C 1038.11 427.62 1036.57 440.82 1033.00 456.00 M 937.00 477.00  C 949.70 474.63 966.74 479.68 982.00 478.00 C 997.26 476.32 1016.46 478.82 1032.00 478.00 C 1047.54 477.18 1066.94 478.51 1082.00 478.00 C 1097.06 477.49 1118.48 478.53 1132.00 478.00 C 1145.52 477.47 1153.31 481.79 1159.30 492.70 C 1165.29 503.62 1162.45 518.11 1163.00 533.00 C 1163.55 547.89 1162.73 567.48 1163.00 583.00 C 1163.27 598.52 1162.84 617.62 1163.00 633.00 C 1163.16 648.38 1162.84 668.61 1163.00 683.00 C 1163.16 697.39 1160.48 704.58 1151.10 713.10 C 1141.72 721.62 1134.86 720.38 1120.00 721.00 C 1105.14 721.62 1085.52 720.81 1070.00 721.00 C 1054.48 721.19 1035.42 721.12 1020.00 721.00 C 1004.58 720.88 984.48 721.51 970.00 721.00 C 955.52 720.49 942.71 722.94 933.25 717.61 C 923.79 712.27 916.53 705.45 915.80 692.75 C 915.08 680.06 916.32 659.71 916.00 645.00 C 915.68 630.29 915.86 610.06 916.00 595.00 C 916.14 579.94 915.30 559.34 916.00 545.00 C 916.70 530.66 914.39 510.67 915.20 499.75 C 916.01 488.84 927.46 478.78 937.00 477.00 Z"/>
</g>
<g fill="None" fill-opacity="0.0" stroke="#000000" stroke-opacity="0.00" stroke-width="0.3"><path d=" M 1033.00 456.00  C 1036.57 440.82 1038.11 427.62 1038.60 411.74 C 1039.09 395.87 1038.41 378.27 1035.60 364.75 C 1032.80 351.23 1030.91 340.69 1025.92 328.08 C 1020.93 315.47 1014.14 300.33 1005.70 288.30 C 997.27 276.26 986.12 262.18 973.75 251.25 C 961.38 240.33 947.13 231.38 933.25 224.20 C 919.36 217.02 908.93 214.47 893.25 210.80 C 877.57 207.13 864.08 206.10 844.00 206.00 C 823.92 205.90 796.41 206.07 775.00 206.00 C 753.59 205.93 726.52 206.08 705.00 206.00 C 683.48 205.92 656.52 206.15 636.00 206.00 C 615.48 205.85 599.22 206.70 583.25 209.20 C 567.27 211.70 560.93 216.22 546.75 221.61 C 532.57 226.99 518.94 235.98 506.70 245.70 C 494.46 255.42 481.96 268.47 472.90 280.90 C 463.84 293.34 455.14 307.77 449.78 321.78 C 444.41 335.78 441.40 345.67 438.60 360.25 C 435.81 374.83 435.33 392.81 435.66 409.32 C 436.00 425.83 438.71 438.48 442.81 452.75 C 446.91 467.03 449.83 475.22 456.61 487.25 C 463.39 499.27 472.45 513.81 483.25 525.75 C 494.05 537.69 511.03 546.82 522.31 556.69 C 533.58 566.57 554.41 564.46 557.07 582.93 C 559.73 601.39 557.49 631.31 558.00 652.00 C 558.51 672.69 558.44 699.25 557.00 720.00 C 572.23 705.71 587.99 689.09 604.75 673.75 C 621.51 658.41 633.22 641.92 651.75 626.75 C 670.28 611.58 679.24 586.38 707.00 588.00 C 734.76 589.62 771.65 587.14 801.00 588.00 C 830.35 588.86 864.24 587.36 894.00 588.00 C 899.08 549.55 880.46 492.19 910.90 466.90 C 941.35 441.61 992.11 463.47 1033.00 456.00 M 608.00 360.00  C 631.42 354.60 655.82 378.86 648.02 403.03 C 640.23 427.19 606.82 436.89 590.26 417.74 C 573.69 398.60 580.88 366.26 608.00 360.00 M 736.00 360.00  C 761.98 355.18 785.83 380.02 776.07 406.08 C 766.30 432.14 731.13 433.63 715.90 414.10 C 700.67 394.57 712.40 364.38 736.00 360.00 M 865.00 360.00  C 889.91 355.82 910.17 376.77 904.69 401.70 C 899.21 426.63 864.15 435.47 846.75 417.25 C 829.35 399.02 838.02 364.53 865.00 360.00 Z"/>
</g>
<g fill="None" fill-opacity="0.0" stroke="#000000" stroke-opacity="0.98" stroke-width="0.3"><path d=" M 608.00 360.00  C 580.88 366.26 573.69 398.60 590.26 417.74 C 606.82 436.89 640.23 427.19 648.02 403.03 C 655.82 378.86 631.42 354.60 608.00 360.00 Z"/>
</g>
<g fill="None" fill-opacity="0.0" stroke="#000000" stroke-opacity="0.98" stroke-width="0.3"><path d=" M 736.00 360.00  C 712.40 364.38 700.67 394.57 715.90 414.10 C 731.13 433.63 766.30 432.14 776.07 406.08 C 785.83 380.02 761.98 355.18 736.00 360.00 Z"/>
</g>
<g fill="None" fill-opacity="0.0" stroke="#000000" stroke-opacity="0.98" stroke-width="0.3"><path d=" M 865.00 360.00  C 838.02 364.53 829.35 399.02 846.75 417.25 C 864.15 435.47 899.21 426.63 904.69 401.70 C 910.17 376.77 889.91 355.82 865.00 360.00 Z"/>
</g>
<g fill="None" fill-opacity="0.0" stroke="#000000" stroke-opacity="0.01" stroke-width="0.3"><path d=" M 937.00 477.00  C 927.46 478.78 916.01 488.84 915.20 499.75 C 914.39 510.67 916.70 530.66 916.00 545.00 C 915.30 559.34 916.14 579.94 916.00 595.00 C 915.86 610.06 915.68 630.29 916.00 645.00 C 916.32 659.71 915.08 680.06 915.80 692.75 C 916.53 705.45 923.79 712.27 933.25 717.61 C 942.71 722.94 955.52 720.49 970.00 721.00 C 984.48 721.51 1004.58 720.88 1020.00 721.00 C 1035.42 721.12 1054.48 721.19 1070.00 721.00 C 1085.52 720.81 1105.14 721.62 1120.00 721.00 C 1134.86 720.38 1141.72 721.62 1151.10 713.10 C 1160.48 704.58 1163.16 697.39 1163.00 683.00 C 1162.84 668.61 1163.16 648.38 1163.00 633.00 C 1162.84 617.62 1163.27 598.52 1163.00 583.00 C 1162.73 567.48 1163.55 547.89 1163.00 533.00 C 1162.45 518.11 1165.29 503.62 1159.30 492.70 C 1153.31 481.79 1145.52 477.47 1132.00 478.00 C 1118.48 478.53 1097.06 477.49 1082.00 478.00 C 1066.94 478.51 1047.54 477.18 1032.00 478.00 C 1016.46 478.82 997.26 476.32 982.00 478.00 C 966.74 479.68 949.70 474.63 937.00 477.00 M 1041.00 578.00  C 1055.45 569.03 1069.00 548.03 1081.75 537.75 C 1094.50 527.48 1112.13 499.65 1126.70 513.30 C 1141.28 526.94 1113.95 544.10 1103.25 556.25 C 1092.55 568.40 1071.93 583.77 1062.00 597.00 C 1075.09 609.64 1096.18 623.76 1107.75 638.25 C 1119.31 652.75 1148.36 664.34 1135.90 681.90 C 1123.43 699.46 1099.91 675.91 1087.75 661.25 C 1075.59 646.59 1056.75 629.47 1042.00 617.00 C 1030.16 628.15 1019.94 639.18 1007.75 650.75 C 995.56 662.32 985.19 671.89 973.75 684.75 C 962.31 697.61 937.78 677.41 950.71 664.70 C 963.63 652.00 972.67 642.50 985.10 631.10 C 997.53 619.70 1007.39 607.67 1021.00 598.00 C 1010.67 584.06 990.74 569.33 979.75 556.25 C 968.76 543.17 940.80 528.90 955.23 514.23 C 969.67 499.56 986.62 526.20 998.75 537.25 C 1010.88 548.30 1029.87 564.89 1041.00 578.00 Z"/>
</g>
<g fill="None" fill-opacity="0.0" stroke="#000000" stroke-opacity="0.98" stroke-width="0.3"><path d=" M 1041.00 578.00  C 1029.87 564.89 1010.88 548.30 998.75 537.25 C 986.62 526.20 969.67 499.56 955.23 514.23 C 940.80 528.90 968.76 543.17 979.75 556.25 C 990.74 569.33 1010.67 584.06 1021.00 598.00 C 1007.39 607.67 997.53 619.70 985.10 631.10 C 972.67 642.50 963.63 652.00 950.71 664.70 C 937.78 677.41 962.31 697.61 973.75 684.75 C 985.19 671.89 995.56 662.32 1007.75 650.75 C 1019.94 639.18 1030.16 628.15 1042.00 617.00 C 1056.75 629.47 1075.59 646.59 1087.75 661.25 C 1099.91 675.91 1123.43 699.46 1135.90 681.90 C 1148.36 664.34 1119.31 652.75 1107.75 638.25 C 1096.18 623.76 1075.09 609.64 1062.00 597.00 C 1071.93 583.77 1092.55 568.40 1103.25 556.25 C 1113.95 544.10 1141.28 526.94 1126.70 513.30 C 1112.13 499.65 1094.50 527.48 1081.75 537.75 C 1069.00 548.03 1055.45 569.03 1041.00 578.00 Z"/>
</g>
<g fill="#000000" fill-opacity="0.00" stroke="None">
<path d=" M 0.00 1024.00  L 1536.00 1024.00 L 1536.00 0.00 L 0.00 0.00 L 0.00 1024.00 M 1079.00 456.00  C 1111.79 459.39 1140.19 447.79 1164.30 466.70 C 1188.40 485.62 1184.39 514.14 1184.00 546.00 C 1183.61 577.86 1183.42 621.84 1184.00 654.00 C 1184.58 686.16 1188.26 710.58 1164.30 729.30 C 1140.34 748.02 1109.82 742.45 1077.00 743.00 C 1044.18 743.55 1000.76 742.59 969.00 743.00 C 937.24 743.41 919.44 740.46 902.30 718.70 C 885.17 696.93 898.20 660.75 894.00 632.00 C 875.72 633.94 855.62 632.84 837.00 633.00 C 818.38 633.16 796.11 633.07 778.00 633.00 C 759.89 632.93 735.56 633.34 719.00 633.00 C 702.44 632.66 698.77 648.84 685.77 656.77 C 672.77 664.70 668.86 677.46 657.25 686.25 C 645.63 695.04 637.82 705.86 627.75 715.75 C 617.68 725.65 608.08 735.33 597.75 744.75 C 587.43 754.17 578.72 765.34 568.25 774.25 C 557.78 783.15 550.17 798.20 536.92 799.07 C 523.68 799.94 513.40 792.15 514.00 775.00 C 514.60 757.85 513.94 734.31 514.00 716.00 C 514.06 697.69 514.44 675.55 514.00 657.00 C 513.56 638.45 513.76 619.60 512.00 602.00 C 491.92 592.78 474.90 580.45 458.25 564.75 C 441.60 549.05 427.29 528.72 417.69 511.31 C 408.10 493.89 401.20 478.91 396.23 459.77 C 391.26 440.63 388.81 416.93 389.00 395.00 C 389.19 373.07 392.65 354.56 397.39 335.25 C 402.14 315.94 411.36 298.47 421.92 278.92 C 432.48 259.38 448.14 242.23 464.75 225.75 C 481.37 209.28 500.18 197.76 516.75 189.61 C 533.33 181.45 542.37 177.12 564.08 172.07 C 585.80 167.02 613.78 167.69 642.00 168.00 C 670.22 168.31 707.88 167.81 737.00 168.00 C 766.12 168.19 804.80 167.81 833.00 168.00 C 861.20 168.19 883.98 167.02 905.25 171.80 C 926.52 176.58 936.75 180.90 957.08 190.92 C 977.40 200.95 995.98 215.77 1012.75 231.25 C 1029.53 246.72 1041.91 264.92 1052.92 283.08 C 1063.92 301.24 1068.31 315.64 1074.19 335.25 C 1080.08 354.86 1082.88 371.46 1084.00 393.00 C 1085.12 414.54 1083.19 436.43 1079.00 456.00 Z"/>
</g>
<g fill="#000000" fill-opacity="0.98" stroke="None">
<path d=" M 1079.00 456.00  C 1083.19 436.43 1085.12 414.54 1084.00 393.00 C 1082.88 371.46 1080.08 354.86 1074.19 335.25 C 1068.31 315.64 1063.92 301.24 1052.92 283.08 C 1041.91 264.92 1029.53 246.72 1012.75 231.25 C 995.98 215.77 977.40 200.95 957.08 190.92 C 936.75 180.90 926.52 176.58 905.25 171.80 C 883.98 167.02 861.20 168.19 833.00 168.00 C 804.80 167.81 766.12 168.19 737.00 168.00 C 707.88 167.81 670.22 168.31 642.00 168.00 C 613.78 167.69 585.80 167.02 564.08 172.07 C 542.37 177.12 533.33 181.45 516.75 189.61 C 500.18 197.76 481.37 209.28 464.75 225.75 C 448.14 242.23 432.48 259.38 421.92 278.92 C 411.36 298.47 402.14 315.94 397.39 335.25 C 392.65 354.56 389.19 373.07 389.00 395.00 C 388.81 416.93 391.26 440.63 396.23 459.77 C 401.20 478.91 408.10 493.89 417.69 511.31 C 427.29 528.72 441.60 549.05 458.25 564.75 C 474.90 580.45 491.92 592.78 512.00 602.00 C 513.76 619.60 513.56 638.45 514.00 657.00 C 514.44 675.55 514.06 697.69 514.00 716.00 C 513.94 734.31 514.60 757.85 514.00 775.00 C 513.40 792.15 523.68 799.94 536.92 799.07 C 550.17 798.20 557.78 783.15 568.25 774.25 C 578.72 765.34 587.43 754.17 597.75 744.75 C 608.08 735.33 617.68 725.65 627.75 715.75 C 637.82 705.86 645.63 695.04 657.25 686.25 C 668.86 677.46 672.77 664.70 685.77 656.77 C 698.77 648.84 702.44 632.66 719.00 633.00 C 735.56 633.34 759.89 632.93 778.00 633.00 C 796.11 633.07 818.38 633.16 837.00 633.00 C 855.62 632.84 875.72 633.94 894.00 632.00 C 898.20 660.75 885.17 696.93 902.30 718.70 C 919.44 740.46 937.24 743.41 969.00 743.00 C 1000.76 742.59 1044.18 743.55 1077.00 743.00 C 1109.82 742.45 1140.34 748.02 1164.30 729.30 C 1188.26 710.58 1184.58 686.16 1184.00 654.00 C 1183.42 621.84 1183.61 577.86 1184.00 546.00 C 1184.39 514.14 1188.40 485.62 1164.30 466.70 C 1140.19 447.79 1111.79 459.39 1079.00 456.00 M 1033.00 456.00  C 992.11 463.47 941.35 441.61 910.90 466.90 C 880.46 492.19 899.08 549.55 894.00 588.00 C 864.24 587.36 830.35 588.86 801.00 588.00 C 771.65 587.14 734.76 589.62 707.00 588.00 C 679.24 586.38 670.28 611.58 651.75 626.75 C 633.22 641.92 621.51 658.41 604.75 673.75 C 587.99 689.09 572.23 705.71 557.00 720.00 C 558.44 699.25 558.51 672.69 558.00 652.00 C 557.49 631.31 559.73 601.39 557.07 582.93 C 554.41 564.46 533.58 566.57 522.31 556.69 C 511.03 546.82 494.05 537.69 483.25 525.75 C 472.45 513.81 463.39 499.27 456.61 487.25 C 449.83 475.22 446.91 467.03 442.81 452.75 C 438.71 438.48 436.00 425.83 435.66 409.32 C 435.33 392.81 435.81 374.83 438.60 360.25 C 441.40 345.67 444.41 335.78 449.78 321.78 C 455.14 307.77 463.84 293.34 472.90 280.90 C 481.96 268.47 494.46 255.42 506.70 245.70 C 518.94 235.98 532.57 226.99 546.75 221.61 C 560.93 216.22 567.27 211.70 583.25 209.20 C 599.22 206.70 615.48 205.85 636.00 206.00 C 656.52 206.15 683.48 205.92 705.00 206.00 C 726.52 206.08 753.59 205.93 775.00 206.00 C 796.41 206.07 823.92 205.90 844.00 206.00 C 864.08 206.10 877.57 207.13 893.25 210.80 C 908.93 214.47 919.36 217.02 933.25 224.20 C 947.13 231.38 961.38 240.33 973.75 251.25 C 986.12 262.18 997.27 276.26 1005.70 288.30 C 1014.14 300.33 1020.93 315.47 1025.92 328.08 C 1030.91 340.69 1032.80 351.23 1035.60 364.75 C 1038.41 378.27 1039.09 395.87 1038.60 411.74 C 1038.11 427.62 1036.57 440.82 1033.00 456.00 M 937.00 477.00  C 949.70 474.63 966.74 479.68 982.00 478.00 C 997.26 476.32 1016.46 478.82 1032.00 478.00 C 1047.54 477.18 1066.94 478.51 1082.00 478.00 C 1097.06 477.49 1118.48 478.53 1132.00 478.00 C 1145.52 477.47 1153.31 481.79 1159.30 492.70 C 1165.29 503.62 1162.45 518.11 1163.00 533.00 C 1163.55 547.89 1162.73 567.48 1163.00 583.00 C 1163.27 598.52 1162.84 617.62 1163.00 633.00 C 1163.16 648.38 1162.84 668.61 1163.00 683.00 C 1163.16 697.39 1160.48 704.58 1151.10 713.10 C 1141.72 721.62 1134.86 720.38 1120.00 721.00 C 1105.14 721.62 1085.52 720.81 1070.00 721.00 C 1054.48 721.19 1035.42 721.12 1020.00 721.00 C 1004.58 720.88 984.48 721.51 970.00 721.00 C 955.52 720.49 942.71 722.94 933.25 717.61 C 923.79 712.27 916.53 705.45 915.80 692.75 C 915.08 680.06 916.32 659.71 916.00 645.00 C 915.68 630.29 915.86 610.06 916.00 595.00 C 916.14 579.94 915.30 559.34 916.00 545.00 C 916.70 530.66 914.39 510.67 915.20 499.75 C 916.01 488.84 927.46 478.78 937.00 477.00 Z"/>
</g>
<g fill="#000000" fill-opacity="0.00" stroke="None">
<path d=" M 1033.00 456.00  C 1036.57 440.82 1038.11 427.62 1038.60 411.74 C 1039.09 395.87 1038.41 378.27 1035.60 364.75 C 1032.80 351.23 1030.91 340.69 1025.92 328.08 C 1020.93 315.47 1014.14 300.33 1005.70 288.30 C 997.27 276.26 986.12 262.18 973.75 251.25 C 961.38 240.33 947.13 231.38 933.25 224.20 C 919.36 217.02 908.93 214.47 893.25 210.80 C 877.57 207.13 864.08 206.10 844.00 206.00 C 823.92 205.90 796.41 206.07 775.00 206.00 C 753.59 205.93 726.52 206.08 705.00 206.00 C 683.48 205.92 656.52 206.15 636.00 206.00 C 615.48 205.85 599.22 206.70 583.25 209.20 C 567.27 211.70 560.93 216.22 546.75 221.61 C 532.57 226.99 518.94 235.98 506.70 245.70 C 494.46 255.42 481.96 268.47 472.90 280.90 C 463.84 293.34 455.14 307.77 449.78 321.78 C 444.41 335.78 441.40 345.67 438.60 360.25 C 435.81 374.83 435.33 392.81 435.66 409.32 C 436.00 425.83 438.71 438.48 442.81 452.75 C 446.91 467.03 449.83 475.22 456.61 487.25 C 463.39 499.27 472.45 513.81 483.25 525.75 C 494.05 537.69 511.03 546.82 522.31 556.69 C 533.58 566.57 554.41 564.46 557.07 582.93 C 559.73 601.39 557.49 631.31 558.00 652.00 C 558.51 672.69 558.44 699.25 557.00 720.00 C 572.23 705.71 587.99 689.09 604.75 673.75 C 621.51 658.41 633.22 641.92 651.75 626.75 C 670.28 611.58 679.24 586.38 707.00 588.00 C 734.76 589.62 771.65 587.14 801.00 588.00 C 830.35 588.86 864.24 587.36 894.00 588.00 C 899.08 549.55 880.46 492.19 910.90 466.90 C 941.35 441.61 992.11 463.47 1033.00 456.00 M 608.00 360.00  C 631.42 354.60 655.82 378.86 648.02 403.03 C 640.23 427.19 606.82 436.89 590.26 417.74 C 573.69 398.60 580.88 366.26 608.00 360.00 M 736.00 360.00  C 761.98 355.18 785.83 380.02 776.07 406.08 C 766.30 432.14 731.13 433.63 715.90 414.10 C 700.67 394.57 712.40 364.38 736.00 360.00 M 865.00 360.00  C 889.91 355.82 910.17 376.77 904.69 401.70 C 899.21 426.63 864.15 435.47 846.75 417.25 C 829.35 399.02 838.02 364.53 865.00 360.00 Z"/>
</g>
<g fill="#000000" fill-opacity="0.98" stroke="None">
<path d=" M 608.00 360.00  C 580.88 366.26 573.69 398.60 590.26 417.74 C 606.82 436.89 640.23 427.19 648.02 403.03 C 655.82 378.86 631.42 354.60 608.00 360.00 Z"/>
</g>
<g fill="#000000" fill-opacity="0.98" stroke="None">
<path d=" M 736.00 360.00  C 712.40 364.38 700.67 394.57 715.90 414.10 C 731.13 433.63 766.30 432.14 776.07 406.08 C 785.83 380.02 761.98 355.18 736.00 360.00 Z"/>
</g>
<g fill="#000000" fill-opacity="0.98" stroke="None">
<path d=" M 865.00 360.00  C 838.02 364.53 829.35 399.02 846.75 417.25 C 864.15 435.47 899.21 426.63 904.69 401.70 C 910.17 376.77 889.91 355.82 865.00 360.00 Z"/>
</g>
<g fill="#000000" fill-opacity="0.01" stroke="None">
<path d=" M 937.00 477.00  C 927.46 478.78 916.01 488.84 915.20 499.75 C 914.39 510.67 916.70 530.66 916.00 545.00 C 915.30 559.34 916.14 579.94 916.00 595.00 C 915.86 610.06 915.68 630.29 916.00 645.00 C 916.32 659.71 915.08 680.06 915.80 692.75 C 916.53 705.45 923.79 712.27 933.25 717.61 C 942.71 722.94 955.52 720.49 970.00 721.00 C 984.48 721.51 1004.58 720.88 1020.00 721.00 C 1035.42 721.12 1054.48 721.19 1070.00 721.00 C 1085.52 720.81 1105.14 721.62 1120.00 721.00 C 1134.86 720.38 1141.72 721.62 1151.10 713.10 C 1160.48 704.58 1163.16 697.39 1163.00 683.00 C 1162.84 668.61 1163.16 648.38 1163.00 633.00 C 1162.84 617.62 1163.27 598.52 1163.00 583.00 C 1162.73 567.48 1163.55 547.89 1163.00 533.00 C 1162.45 518.11 1165.29 503.62 1159.30 492.70 C 1153.31 481.79 1145.52 477.47 1132.00 478.00 C 1118.48 478.53 1097.06 477.49 1082.00 478.00 C 1066.94 478.51 1047.54 477.18 1032.00 478.00 C 1016.46 478.82 997.26 476.32 982.00 478.00 C 966.74 479.68 949.70 474.63 937.00 477.00 M 1041.00 578.00  C 1055.45 569.03 1069.00 548.03 1081.75 537.75 C 1094.50 527.48 1112.13 499.65 1126.70 513.30 C 1141.28 526.94 1113.95 544.10 1103.25 556.25 C 1092.55 568.40 1071.93 583.77 1062.00 597.00 C 1075.09 609.64 1096.18 623.76 1107.75 638.25 C 1119.31 652.75 1148.36 664.34 1135.90 681.90 C 1123.43 699.46 1099.91 675.91 1087.75 661.25 C 1075.59 646.59 1056.75 629.47 1042.00 617.00 C 1030.16 628.15 1019.94 639.18 1007.75 650.75 C 995.56 662.32 985.19 671.89 973.75 684.75 C 962.31 697.61 937.78 677.41 950.71 664.70 C 963.63 652.00 972.67 642.50 985.10 631.10 C 997.53 619.70 1007.39 607.67 1021.00 598.00 C 1010.67 584.06 990.74 569.33 979.75 556.25 C 968.76 543.17 940.80 528.90 955.23 514.23 C 969.67 499.56 986.62 526.20 998.75 537.25 C 1010.88 548.30 1029.87 564.89 1041.00 578.00 Z"/>
</g>
<g fill="#000000" fill-opacity="0.98" stroke="None">
<path d=" M 1041.00 578.00  C 1029.87 564.89 1010.88 548.30 998.75 537.25 C 986.62 526.20 969.67 499.56 955.23 514.23 C 940.80 528.90 968.76 543.17 979.75 556.25 C 990.74 569.33 1010.67 584.06 1021.00 598.00 C 1007.39 607.67 997.53 619.70 985.10 631.10 C 972.67 642.50 963.63 652.00 950.71 664.70 C 937.78 677.41 962.31 697.61 973.75 684.75 C 985.19 671.89 995.56 662.32 1007.75 650.75 C 1019.94 639.18 1030.16 628.15 1042.00 617.00 C 1056.75 629.47 1075.59 646.59 1087.75 661.25 C 1099.91 675.91 1123.43 699.46 1135.90 681.90 C 1148.36 664.34 1119.31 652.75 1107.75 638.25 C 1096.18 623.76 1075.09 609.64 1062.00 597.00 C 1071.93 583.77 1092.55 568.40 1103.25 556.25 C 1113.95 544.10 1141.28 526.94 1126.70 513.30 C 1112.13 499.65 1094.50 527.48 1081.75 537.75 C 1069.00 548.03 1055.45 569.03 1041.00 578.00 Z"/>
</g>
</svg>
