<svg xmlns="http://www.w3.org/2000/svg" xmlns:v="https://svgstorm.com"
viewBox="341 89 830 830"
width="830"
height="830">
<g fill="None" fill-opacity="0.0" stroke="#000000" stroke-opacity="0.00" stroke-width="0.3"><path d="
M 0.00 1024.00 
L 1536.00 1024.00
L 1536.00 0.00
L 0.00 0.00
L 0.00 1024.00
M 1084.00 706.00 
C 1077.13 699.81 1070.32 699.03 1060.00 699.00
C 1066.54 703.11 1077.73 705.88 1082.70 714.30 C 1087.68 722.71 1090.62 726.52 1091.00 739.00 C 1091.38 751.48 1090.81 768.71 1091.00 782.00 C 1091.19 795.29 1090.88 811.58 1091.00 825.00 C 1091.12 838.42 1090.87 855.07 1091.00 868.00 C 1091.13 880.93 1090.70 886.82 1085.87 895.92 C 1081.04 905.02 1073.48 911.12 1065.25 914.39 C 1057.02 917.67 1052.27 919.05 1040.00 919.00 C 1027.73 918.95 1010.18 919.02 997.00 919.00 C 983.82 918.98 967.31 919.00 954.00 919.00 C 940.69 919.00 923.77 918.97 911.00 919.00 C 898.23 919.03 891.94 918.63 882.30 914.69 C 872.66 910.75 866.12 901.22 861.23 892.77 C 856.34 884.32 860.42 871.65 856.00 863.00
C 859.03 865.91 853.29 865.97 854.00 869.00
C 834.26 868.99 814.76 869.01 795.00 869.00 C 775.24 868.99 754.74 869.02 735.00 869.00 C 715.26 868.98 695.64 869.04 676.00 869.00 C 656.36 868.96 635.42 869.07 616.00 869.00 C 596.58 868.93 574.80 869.16 556.00 869.00 C 537.20 868.84 514.45 869.37 497.00 869.00 C 479.55 868.63 471.51 866.59 459.08 860.87 C 446.66 855.15 436.47 846.40 429.07 832.93 C 421.68 819.45 420.27 813.01 421.00 796.00 C 421.73 778.99 420.67 754.61 421.00 736.00 C 421.33 717.39 420.85 695.28 421.00 676.00 C 421.15 656.72 420.93 636.61 421.00 617.00 C 421.07 597.39 420.96 576.78 421.00 557.00 C 421.04 537.22 420.97 516.80 421.00 497.00 C 421.03 477.20 420.96 457.78 421.00 438.00 C 421.04 418.22 420.93 397.74 421.00 378.00 C 421.07 358.26 420.84 337.52 421.00 318.00 C 421.16 298.48 420.64 278.08 421.00 259.00 C 421.36 239.92 420.22 217.17 421.00 199.00 C 421.78 180.83 419.04 161.09 421.21 146.77 C 423.38 132.45 429.89 123.46 439.75 112.75 C 449.61 102.04 457.40 97.27 470.25 93.24 C 483.10 89.22 496.05 90.26 514.00 90.00 C 531.95 89.74 554.97 90.12 574.00 90.00 C 593.03 89.88 614.52 90.06 634.00 90.00 C 653.48 89.94 673.30 90.04 693.00 90.00 C 712.70 89.96 733.17 90.04 753.00 90.00 C 772.83 89.96 793.16 90.06 813.00 90.00 C 832.84 89.94 852.16 90.13 872.00 90.00 C 891.84 89.87 912.14 90.28 932.00 90.00 C 951.86 89.72 972.23 90.61 992.00 90.00 C 1011.77 89.39 1031.36 91.37 1051.00 90.00 C 1070.64 88.63 1085.87 89.58 1084.00 111.00 C 1082.13 132.42 1084.83 150.43 1084.00 171.00 C 1083.17 191.57 1084.31 209.82 1084.00 230.00 C 1083.69 250.18 1084.41 269.34 1083.07 289.07 C 1081.73 308.81 1083.84 329.18 1083.00 349.00 C 1082.16 368.82 1083.76 387.33 1084.00 407.00 C 1084.24 426.67 1083.89 447.18 1084.00 467.00 C 1084.11 486.82 1083.95 507.16 1084.00 527.00 C 1084.05 546.84 1083.98 566.12 1084.00 586.00 C 1084.02 605.88 1083.99 626.06 1084.00 646.00 C 1084.01 665.94 1083.99 686.05 1084.00 706.00 Z"/>
</g>
<g fill="None" fill-opacity="0.0" stroke="#000000" stroke-opacity="0.98" stroke-width="0.3"><path d="
M 1084.00 706.00 
C 1083.99 686.05 1084.01 665.94 1084.00 646.00 C 1083.99 626.06 1084.02 605.88 1084.00 586.00 C 1083.98 566.12 1084.05 546.84 1084.00 527.00 C 1083.95 507.16 1084.11 486.82 1084.00 467.00 C 1083.89 447.18 1084.24 426.67 1084.00 407.00 C 1083.76 387.33 1082.16 368.82 1083.00 349.00 C 1083.84 329.18 1081.73 308.81 1083.07 289.07 C 1084.41 269.34 1083.69 250.18 1084.00 230.00 C 1084.31 209.82 1083.17 191.57 1084.00 171.00 C 1084.83 150.43 1082.13 132.42 1084.00 111.00 C 1085.87 89.58 1070.64 88.63 1051.00 90.00 C 1031.36 91.37 1011.77 89.39 992.00 90.00 C 972.23 90.61 951.86 89.72 932.00 90.00 C 912.14 90.28 891.84 89.87 872.00 90.00 C 852.16 90.13 832.84 89.94 813.00 90.00 C 793.16 90.06 772.83 89.96 753.00 90.00 C 733.17 90.04 712.70 89.96 693.00 90.00 C 673.30 90.04 653.48 89.94 634.00 90.00 C 614.52 90.06 593.03 89.88 574.00 90.00 C 554.97 90.12 531.95 89.74 514.00 90.00 C 496.05 90.26 483.10 89.22 470.25 93.24 C 457.40 97.27 449.61 102.04 439.75 112.75 C 429.89 123.46 423.38 132.45 421.21 146.77 C 419.04 161.09 421.78 180.83 421.00 199.00 C 420.22 217.17 421.36 239.92 421.00 259.00 C 420.64 278.08 421.16 298.48 421.00 318.00 C 420.84 337.52 421.07 358.26 421.00 378.00 C 420.93 397.74 421.04 418.22 421.00 438.00 C 420.96 457.78 421.03 477.20 421.00 497.00 C 420.97 516.80 421.04 537.22 421.00 557.00 C 420.96 576.78 421.07 597.39 421.00 617.00 C 420.93 636.61 421.15 656.72 421.00 676.00 C 420.85 695.28 421.33 717.39 421.00 736.00 C 420.67 754.61 421.73 778.99 421.00 796.00 C 420.27 813.01 421.68 819.45 429.07 832.93 C 436.47 846.40 446.66 855.15 459.08 860.87 C 471.51 866.59 479.55 868.63 497.00 869.00 C 514.45 869.37 537.20 868.84 556.00 869.00 C 574.80 869.16 596.58 868.93 616.00 869.00 C 635.42 869.07 656.36 868.96 676.00 869.00 C 695.64 869.04 715.26 868.98 735.00 869.00 C 754.74 869.02 775.24 868.99 795.00 869.00 C 814.76 869.01 834.26 868.99 854.00 869.00
C 853.29 865.97 859.03 865.91 856.00 863.00
C 860.42 871.65 856.34 884.32 861.23 892.77 C 866.12 901.22 872.66 910.75 882.30 914.69 C 891.94 918.63 898.23 919.03 911.00 919.00 C 923.77 918.97 940.69 919.00 954.00 919.00 C 967.31 919.00 983.82 918.98 997.00 919.00 C 1010.18 919.02 1027.73 918.95 1040.00 919.00 C 1052.27 919.05 1057.02 917.67 1065.25 914.39 C 1073.48 911.12 1081.04 905.02 1085.87 895.92 C 1090.70 886.82 1091.13 880.93 1091.00 868.00 C 1090.87 855.07 1091.12 838.42 1091.00 825.00 C 1090.88 811.58 1091.19 795.29 1091.00 782.00 C 1090.81 768.71 1091.38 751.48 1091.00 739.00 C 1090.62 726.52 1087.68 722.71 1082.70 714.30 C 1077.73 705.88 1066.54 703.11 1060.00 699.00
C 1070.32 699.03 1077.13 699.81 1084.00 706.00
M 1049.00 125.00 
C 1049.00 150.00 1049.00 175.00 1049.00 200.00
C 1023.67 200.01 998.33 199.99 973.00 200.00 C 947.67 200.01 922.33 199.98 897.00 200.00 C 871.67 200.02 846.32 199.96 821.00 200.00 C 795.68 200.04 769.19 199.92 744.00 200.00 C 718.81 200.08 692.85 199.83 668.00 200.00 C 643.15 200.17 616.17 199.61 592.00 200.00 C 567.83 200.39 537.66 199.16 515.00 200.00 C 492.34 200.84 475.04 201.02 464.20 184.75 C 453.36 168.48 452.40 156.99 463.71 140.71 C 475.01 124.42 491.49 124.42 514.00 125.00 C 536.51 125.58 566.89 124.74 591.00 125.00 C 615.11 125.26 642.18 124.88 667.00 125.00 C 691.82 125.12 717.81 124.95 743.00 125.00 C 768.19 125.05 794.66 124.98 820.00 125.00 C 845.34 125.02 870.61 124.99 896.00 125.00 C 921.39 125.01 946.54 124.99 972.00 125.00 C 997.47 125.01 1023.49 125.00 1049.00 125.00
M 531.00 236.00 
C 531.00 432.83 531.00 631.47 531.00 829.00
C 502.82 826.26 463.11 836.28 456.41 803.25 C 449.71 770.21 455.44 733.39 454.00 696.00 C 452.56 658.61 454.66 616.33 454.00 578.00 C 453.34 539.67 454.31 499.74 454.00 461.00 C 453.69 422.26 454.16 382.97 454.00 344.00 C 453.84 305.03 454.12 265.06 454.00 226.00
C 474.80 238.34 503.28 238.39 531.00 236.00
M 858.00 834.00 
C 858.17 842.26 860.35 850.85 858.00 859.00
C 856.68 851.56 856.11 841.10 857.00 834.00
C 852.43 821.63 828.88 829.67 815.00 828.00 C 801.12 826.33 780.42 828.75 765.00 828.00 C 749.58 827.25 731.12 828.34 715.00 828.00 C 698.88 827.66 681.46 828.16 665.00 828.00 C 648.54 827.84 631.67 828.08 615.00 828.00 C 598.33 827.92 580.75 828.06 564.00 828.00
C 564.00 630.66 564.00 433.34 564.00 236.00
C 725.66 236.00 887.34 236.00 1049.00 236.00
C 1047.06 261.13 1048.20 286.36 1048.00 312.00 C 1047.80 337.64 1048.06 364.28 1048.00 390.00 C 1047.94 415.72 1047.94 441.27 1048.00 467.00 C 1048.06 492.73 1047.79 519.33 1048.00 545.00 C 1048.21 570.67 1047.48 596.50 1048.00 622.00 C 1048.52 647.50 1045.96 673.70 1050.00 698.00
C 1023.39 698.93 989.92 696.76 964.00 698.00 C 938.08 699.24 906.16 694.37 884.75 700.76 C 863.34 707.14 857.86 723.58 858.00 748.00 C 858.14 772.42 857.89 808.52 858.00 834.00
M 895.00 713.00 
C 910.74 710.69 930.68 715.12 949.00 714.00 C 967.32 712.88 990.55 713.53 1009.00 714.00 C 1027.45 714.47 1044.38 710.39 1060.08 715.92 C 1075.78 721.45 1076.85 741.47 1076.00 758.00 C 1075.15 774.53 1076.44 800.20 1076.00 817.00 C 1075.56 833.80 1076.76 861.21 1075.01 876.01 C 1073.26 890.81 1067.70 901.58 1052.30 903.31 C 1036.91 905.03 1014.77 902.42 997.00 903.00 C 979.23 903.58 954.97 903.48 937.00 903.00 C 919.03 902.52 902.66 906.37 889.23 900.42 C 875.80 894.48 873.05 879.69 874.00 863.00 C 874.95 846.31 873.82 821.09 874.00 804.00 C 874.18 786.91 874.42 759.68 874.00 744.00 C 873.58 728.32 879.66 715.25 895.00 713.00 Z"/>
</g>
<g fill="None" fill-opacity="0.0" stroke="#000000" stroke-opacity="0.00" stroke-width="0.3"><path d="
M 1049.00 125.00 
C 1023.49 125.00 997.47 125.01 972.00 125.00 C 946.54 124.99 921.39 125.01 896.00 125.00 C 870.61 124.99 845.34 125.02 820.00 125.00 C 794.66 124.98 768.19 125.05 743.00 125.00 C 717.81 124.95 691.82 125.12 667.00 125.00 C 642.18 124.88 615.11 125.26 591.00 125.00 C 566.89 124.74 536.51 125.58 514.00 125.00 C 491.49 124.42 475.01 124.42 463.71 140.71 C 452.40 156.99 453.36 168.48 464.20 184.75 C 475.04 201.02 492.34 200.84 515.00 200.00 C 537.66 199.16 567.83 200.39 592.00 200.00 C 616.17 199.61 643.15 200.17 668.00 200.00 C 692.85 199.83 718.81 200.08 744.00 200.00 C 769.19 199.92 795.68 200.04 821.00 200.00 C 846.32 199.96 871.67 200.02 897.00 200.00 C 922.33 199.98 947.67 200.01 973.00 200.00 C 998.33 199.99 1023.67 200.01 1049.00 200.00
C 1049.00 175.00 1049.00 150.00 1049.00 125.00 Z"/>
</g>
<g fill="None" fill-opacity="0.0" stroke="#000000" stroke-opacity="0.01" stroke-width="0.3"><path d="
M 531.00 236.00 
C 503.28 238.39 474.80 238.34 454.00 226.00
C 454.12 265.06 453.84 305.03 454.00 344.00 C 454.16 382.97 453.69 422.26 454.00 461.00 C 454.31 499.74 453.34 539.67 454.00 578.00 C 454.66 616.33 452.56 658.61 454.00 696.00 C 455.44 733.39 449.71 770.21 456.41 803.25 C 463.11 836.28 502.82 826.26 531.00 829.00
C 531.00 631.47 531.00 432.83 531.00 236.00 Z"/>
</g>
<g fill="None" fill-opacity="0.0" stroke="#000000" stroke-opacity="0.00" stroke-width="0.3"><path d="
M 857.00 834.00 
C 857.06 834.16 858.00 834.00 858.00 834.00
C 857.89 808.52 858.14 772.42 858.00 748.00 C 857.86 723.58 863.34 707.14 884.75 700.76 C 906.16 694.37 938.08 699.24 964.00 698.00 C 989.92 696.76 1023.39 698.93 1050.00 698.00
C 1045.96 673.70 1048.52 647.50 1048.00 622.00 C 1047.48 596.50 1048.21 570.67 1048.00 545.00 C 1047.79 519.33 1048.06 492.73 1048.00 467.00 C 1047.94 441.27 1047.94 415.72 1048.00 390.00 C 1048.06 364.28 1047.80 337.64 1048.00 312.00 C 1048.20 286.36 1047.06 261.13 1049.00 236.00
C 887.34 236.00 725.66 236.00 564.00 236.00
C 564.00 433.34 564.00 630.66 564.00 828.00
C 580.75 828.06 598.33 827.92 615.00 828.00 C 631.67 828.08 648.54 827.84 665.00 828.00 C 681.46 828.16 698.88 827.66 715.00 828.00 C 731.12 828.34 749.58 827.25 765.00 828.00 C 780.42 828.75 801.12 826.33 815.00 828.00 C 828.88 829.67 852.43 821.63 857.00 834.00
M 870.00 353.00 
C 900.40 337.06 942.80 352.80 955.39 384.75 C 967.98 416.71 948.00 455.99 912.00 461.00
C 914.04 477.62 912.51 494.89 914.00 513.00 C 915.49 531.11 913.81 544.42 916.00 564.00 C 918.19 583.58 901.30 587.71 881.00 586.00 C 860.70 584.29 836.13 586.15 816.00 586.00 C 795.87 585.85 769.94 584.69 751.00 586.00 C 732.06 587.31 713.12 586.67 713.00 567.00 C 712.88 547.32 715.69 533.87 715.78 514.78 C 715.86 495.69 716.46 480.26 717.00 461.00
C 681.65 455.24 662.05 416.85 674.78 383.78 C 687.50 350.70 728.97 337.83 759.00 353.00
C 768.61 329.37 792.94 319.92 816.00 320.00 C 839.06 320.08 861.90 332.68 870.00 353.00
M 676.00 669.00 
C 689.44 668.23 704.66 671.01 719.00 670.00 C 733.34 668.99 748.58 670.49 763.00 670.00 C 777.42 669.51 792.66 670.31 807.00 670.00 C 821.34 669.69 836.96 670.32 851.00 670.00 C 865.04 669.68 881.68 670.55 895.00 670.00 C 908.32 669.45 926.10 671.25 937.22 669.78 C 948.35 668.31 953.81 685.28 945.70 690.70 C 937.60 696.12 920.68 692.54 908.00 693.00 C 895.32 693.46 887.28 693.45 875.92 696.93 C 864.55 700.42 846.21 697.08 833.00 698.00 C 819.79 698.92 802.80 697.49 789.00 698.00 C 775.20 698.51 758.80 697.56 745.00 698.00 C 731.20 698.44 714.22 697.34 701.00 698.00 C 687.78 698.66 674.74 698.03 668.03 690.97 C 661.32 683.91 667.13 669.51 676.00 669.00 Z"/>
</g>
<g fill="None" fill-opacity="0.0" stroke="#000000" stroke-opacity="0.99" stroke-width="0.3"><path d="
M 870.00 353.00 
C 861.90 332.68 839.06 320.08 816.00 320.00 C 792.94 319.92 768.61 329.37 759.00 353.00
C 728.97 337.83 687.50 350.70 674.78 383.78 C 662.05 416.85 681.65 455.24 717.00 461.00
C 716.46 480.26 715.86 495.69 715.78 514.78 C 715.69 533.87 712.88 547.32 713.00 567.00 C 713.12 586.67 732.06 587.31 751.00 586.00 C 769.94 584.69 795.87 585.85 816.00 586.00 C 836.13 586.15 860.70 584.29 881.00 586.00 C 901.30 587.71 918.19 583.58 916.00 564.00 C 913.81 544.42 915.49 531.11 914.00 513.00 C 912.51 494.89 914.04 477.62 912.00 461.00
C 948.00 455.99 967.98 416.71 955.39 384.75 C 942.80 352.80 900.40 337.06 870.00 353.00
M 881.00 552.00 
C 837.33 552.00 793.67 552.00 750.00 552.00
C 749.86 537.26 751.03 521.60 751.93 507.92 C 752.83 494.25 751.32 475.38 753.00 462.00 C 754.68 448.62 753.58 433.90 739.92 433.07 C 726.26 432.23 715.15 430.65 708.10 419.90 C 701.05 409.15 702.45 397.80 709.90 387.90 C 717.36 378.00 732.12 375.91 742.75 380.26 C 753.39 384.62 760.78 401.89 774.08 395.07 C 787.38 388.24 780.93 377.80 787.30 367.30 C 793.67 356.81 804.73 350.39 817.00 351.00 C 829.27 351.61 840.70 359.90 844.39 370.75 C 848.09 381.60 847.16 393.46 861.25 395.80 C 875.33 398.14 880.10 380.67 892.23 378.23 C 904.36 375.79 920.46 382.95 924.70 393.30 C 928.95 403.64 927.74 414.68 919.25 424.25 C 910.75 433.81 899.33 431.03 887.25 434.26 C 875.17 437.50 877.31 452.94 877.93 466.08 C 878.56 479.23 878.56 496.65 879.98 510.02 C 881.40 523.40 878.63 538.78 881.00 552.00 Z"/>
</g>
<g fill="None" fill-opacity="0.0" stroke="#000000" stroke-opacity="0.01" stroke-width="0.3"><path d="
M 881.00 552.00 
C 878.63 538.78 881.40 523.40 879.98 510.02 C 878.56 496.65 878.56 479.23 877.93 466.08 C 877.31 452.94 875.17 437.50 887.25 434.26 C 899.33 431.03 910.75 433.81 919.25 424.25 C 927.74 414.68 928.95 403.64 924.70 393.30 C 920.46 382.95 904.36 375.79 892.23 378.23 C 880.10 380.67 875.33 398.14 861.25 395.80 C 847.16 393.46 848.09 381.60 844.39 370.75 C 840.70 359.90 829.27 351.61 817.00 351.00 C 804.73 350.39 793.67 356.81 787.30 367.30 C 780.93 377.80 787.38 388.24 774.08 395.07 C 760.78 401.89 753.39 384.62 742.75 380.26 C 732.12 375.91 717.36 378.00 709.90 387.90 C 702.45 397.80 701.05 409.15 708.10 419.90 C 715.15 430.65 726.26 432.23 739.92 433.07 C 753.58 433.90 754.68 448.62 753.00 462.00 C 751.32 475.38 752.83 494.25 751.93 507.92 C 751.03 521.60 749.86 537.26 750.00 552.00
C 793.67 552.00 837.33 552.00 881.00 552.00 Z"/>
</g>
<g fill="None" fill-opacity="0.0" stroke="#000000" stroke-opacity="0.97" stroke-width="0.3"><path d="
M 676.00 669.00 
C 667.13 669.51 661.32 683.91 668.03 690.97 C 674.74 698.03 687.78 698.66 701.00 698.00 C 714.22 697.34 731.20 698.44 745.00 698.00 C 758.80 697.56 775.20 698.51 789.00 698.00 C 802.80 697.49 819.79 698.92 833.00 698.00 C 846.21 697.08 864.55 700.42 875.92 696.93 C 887.28 693.45 895.32 693.46 908.00 693.00 C 920.68 692.54 937.60 696.12 945.70 690.70 C 953.81 685.28 948.35 668.31 937.22 669.78 C 926.10 671.25 908.32 669.45 895.00 670.00 C 881.68 670.55 865.04 669.68 851.00 670.00 C 836.96 670.32 821.34 669.69 807.00 670.00 C 792.66 670.31 777.42 669.51 763.00 670.00 C 748.58 670.49 733.34 668.99 719.00 670.00 C 704.66 671.01 689.44 668.23 676.00 669.00 Z"/>
</g>
<g fill="None" fill-opacity="0.0" stroke="#000000" stroke-opacity="0.01" stroke-width="0.3"><path d="
M 895.00 713.00 
C 879.66 715.25 873.58 728.32 874.00 744.00 C 874.42 759.68 874.18 786.91 874.00 804.00 C 873.82 821.09 874.95 846.31 874.00 863.00 C 873.05 879.69 875.80 894.48 889.23 900.42 C 902.66 906.37 919.03 902.52 937.00 903.00 C 954.97 903.48 979.23 903.58 997.00 903.00 C 1014.77 902.42 1036.91 905.03 1052.30 903.31 C 1067.70 901.58 1073.26 890.81 1075.01 876.01 C 1076.76 861.21 1075.56 833.80 1076.00 817.00 C 1076.44 800.20 1075.15 774.53 1076.00 758.00 C 1076.85 741.47 1075.78 721.45 1060.08 715.92 C 1044.38 710.39 1027.45 714.47 1009.00 714.00 C 990.55 713.53 967.32 712.88 949.00 714.00 C 930.68 715.12 910.74 710.69 895.00 713.00
M 995.00 804.00 
C 1014.59 824.58 1037.52 844.45 1057.00 864.00
C 1059.64 873.36 1050.51 884.25 1040.93 882.07 C 1031.35 879.90 1026.53 869.23 1017.77 863.23 C 1009.01 857.23 1002.64 845.64 994.75 840.25 C 986.86 834.86 978.30 819.92 971.08 829.08 C 963.87 838.24 954.85 843.03 947.25 851.25 C 939.66 859.48 931.20 865.52 924.23 874.23 C 917.26 882.94 905.53 885.72 898.70 876.30 C 891.87 866.88 900.45 856.33 909.30 850.30 C 918.15 844.27 924.69 834.86 932.75 827.75 C 940.82 820.65 949.49 811.92 958.00 806.00
C 952.88 798.88 943.98 793.92 937.75 787.25 C 931.53 780.57 924.27 774.83 917.90 768.10 C 911.53 761.37 903.41 756.75 905.60 748.25 C 907.79 739.76 917.64 734.45 924.30 740.71 C 930.97 746.98 939.07 752.64 944.77 760.23 C 950.47 767.82 958.66 768.87 964.25 777.75 C 969.84 786.63 978.97 791.00 985.25 781.25 C 991.53 771.50 998.38 769.77 1005.23 762.23 C 1012.08 754.69 1018.54 749.50 1025.25 742.25 C 1031.97 735.01 1042.18 738.20 1046.30 745.70 C 1050.42 753.20 1042.08 762.06 1035.75 767.75 C 1029.42 773.45 1021.76 780.41 1015.25 786.25 C 1008.73 792.09 1001.87 801.40 995.00 804.00 Z"/>
</g>
<g fill="None" fill-opacity="0.0" stroke="#000000" stroke-opacity="0.98" stroke-width="0.3"><path d="
M 995.00 804.00 
C 1001.87 801.40 1008.73 792.09 1015.25 786.25 C 1021.76 780.41 1029.42 773.45 1035.75 767.75 C 1042.08 762.06 1050.42 753.20 1046.30 745.70 C 1042.18 738.20 1031.97 735.01 1025.25 742.25 C 1018.54 749.50 1012.08 754.69 1005.23 762.23 C 998.38 769.77 991.53 771.50 985.25 781.25 C 978.97 791.00 969.84 786.63 964.25 777.75 C 958.66 768.87 950.47 767.82 944.77 760.23 C 939.07 752.64 930.97 746.98 924.30 740.71 C 917.64 734.45 907.79 739.76 905.60 748.25 C 903.41 756.75 911.53 761.37 917.90 768.10 C 924.27 774.83 931.53 780.57 937.75 787.25 C 943.98 793.92 952.88 798.88 958.00 806.00
C 949.49 811.92 940.82 820.65 932.75 827.75 C 924.69 834.86 918.15 844.27 909.30 850.30 C 900.45 856.33 891.87 866.88 898.70 876.30 C 905.53 885.72 917.26 882.94 924.23 874.23 C 931.20 865.52 939.66 859.48 947.25 851.25 C 954.85 843.03 963.87 838.24 971.08 829.08 C 978.30 819.92 986.86 834.86 994.75 840.25 C 1002.64 845.64 1009.01 857.23 1017.77 863.23 C 1026.53 869.23 1031.35 879.90 1040.93 882.07 C 1050.51 884.25 1059.64 873.36 1057.00 864.00
C 1037.52 844.45 1014.59 824.58 995.00 804.00 Z"/>
</g>
<g fill="None" fill-opacity="0.0" stroke="#000000" stroke-opacity="0.62" stroke-width="0.3"><path d="
M 858.00 834.00 
C 858.00 834.00 857.06 834.16 857.00 834.00
C 856.11 841.10 856.68 851.56 858.00 859.00
C 860.35 850.85 858.17 842.26 858.00 834.00 Z"/>
</g>
<g fill="#000000" fill-opacity="0.00" stroke="None">
<path d="
M 0.00 1024.00 
L 1536.00 1024.00
L 1536.00 0.00
L 0.00 0.00
L 0.00 1024.00
M 1084.00 706.00 
C 1077.13 699.81 1070.32 699.03 1060.00 699.00
C 1066.54 703.11 1077.73 705.88 1082.70 714.30 C 1087.68 722.71 1090.62 726.52 1091.00 739.00 C 1091.38 751.48 1090.81 768.71 1091.00 782.00 C 1091.19 795.29 1090.88 811.58 1091.00 825.00 C 1091.12 838.42 1090.87 855.07 1091.00 868.00 C 1091.13 880.93 1090.70 886.82 1085.87 895.92 C 1081.04 905.02 1073.48 911.12 1065.25 914.39 C 1057.02 917.67 1052.27 919.05 1040.00 919.00 C 1027.73 918.95 1010.18 919.02 997.00 919.00 C 983.82 918.98 967.31 919.00 954.00 919.00 C 940.69 919.00 923.77 918.97 911.00 919.00 C 898.23 919.03 891.94 918.63 882.30 914.69 C 872.66 910.75 866.12 901.22 861.23 892.77 C 856.34 884.32 860.42 871.65 856.00 863.00
C 859.03 865.91 853.29 865.97 854.00 869.00
C 834.26 868.99 814.76 869.01 795.00 869.00 C 775.24 868.99 754.74 869.02 735.00 869.00 C 715.26 868.98 695.64 869.04 676.00 869.00 C 656.36 868.96 635.42 869.07 616.00 869.00 C 596.58 868.93 574.80 869.16 556.00 869.00 C 537.20 868.84 514.45 869.37 497.00 869.00 C 479.55 868.63 471.51 866.59 459.08 860.87 C 446.66 855.15 436.47 846.40 429.07 832.93 C 421.68 819.45 420.27 813.01 421.00 796.00 C 421.73 778.99 420.67 754.61 421.00 736.00 C 421.33 717.39 420.85 695.28 421.00 676.00 C 421.15 656.72 420.93 636.61 421.00 617.00 C 421.07 597.39 420.96 576.78 421.00 557.00 C 421.04 537.22 420.97 516.80 421.00 497.00 C 421.03 477.20 420.96 457.78 421.00 438.00 C 421.04 418.22 420.93 397.74 421.00 378.00 C 421.07 358.26 420.84 337.52 421.00 318.00 C 421.16 298.48 420.64 278.08 421.00 259.00 C 421.36 239.92 420.22 217.17 421.00 199.00 C 421.78 180.83 419.04 161.09 421.21 146.77 C 423.38 132.45 429.89 123.46 439.75 112.75 C 449.61 102.04 457.40 97.27 470.25 93.24 C 483.10 89.22 496.05 90.26 514.00 90.00 C 531.95 89.74 554.97 90.12 574.00 90.00 C 593.03 89.88 614.52 90.06 634.00 90.00 C 653.48 89.94 673.30 90.04 693.00 90.00 C 712.70 89.96 733.17 90.04 753.00 90.00 C 772.83 89.96 793.16 90.06 813.00 90.00 C 832.84 89.94 852.16 90.13 872.00 90.00 C 891.84 89.87 912.14 90.28 932.00 90.00 C 951.86 89.72 972.23 90.61 992.00 90.00 C 1011.77 89.39 1031.36 91.37 1051.00 90.00 C 1070.64 88.63 1085.87 89.58 1084.00 111.00 C 1082.13 132.42 1084.83 150.43 1084.00 171.00 C 1083.17 191.57 1084.31 209.82 1084.00 230.00 C 1083.69 250.18 1084.41 269.34 1083.07 289.07 C 1081.73 308.81 1083.84 329.18 1083.00 349.00 C 1082.16 368.82 1083.76 387.33 1084.00 407.00 C 1084.24 426.67 1083.89 447.18 1084.00 467.00 C 1084.11 486.82 1083.95 507.16 1084.00 527.00 C 1084.05 546.84 1083.98 566.12 1084.00 586.00 C 1084.02 605.88 1083.99 626.06 1084.00 646.00 C 1084.01 665.94 1083.99 686.05 1084.00 706.00 Z"/>
</g>
<g fill="#000000" fill-opacity="0.98" stroke="None">
<path d="
M 1084.00 706.00 
C 1083.99 686.05 1084.01 665.94 1084.00 646.00 C 1083.99 626.06 1084.02 605.88 1084.00 586.00 C 1083.98 566.12 1084.05 546.84 1084.00 527.00 C 1083.95 507.16 1084.11 486.82 1084.00 467.00 C 1083.89 447.18 1084.24 426.67 1084.00 407.00 C 1083.76 387.33 1082.16 368.82 1083.00 349.00 C 1083.84 329.18 1081.73 308.81 1083.07 289.07 C 1084.41 269.34 1083.69 250.18 1084.00 230.00 C 1084.31 209.82 1083.17 191.57 1084.00 171.00 C 1084.83 150.43 1082.13 132.42 1084.00 111.00 C 1085.87 89.58 1070.64 88.63 1051.00 90.00 C 1031.36 91.37 1011.77 89.39 992.00 90.00 C 972.23 90.61 951.86 89.72 932.00 90.00 C 912.14 90.28 891.84 89.87 872.00 90.00 C 852.16 90.13 832.84 89.94 813.00 90.00 C 793.16 90.06 772.83 89.96 753.00 90.00 C 733.17 90.04 712.70 89.96 693.00 90.00 C 673.30 90.04 653.48 89.94 634.00 90.00 C 614.52 90.06 593.03 89.88 574.00 90.00 C 554.97 90.12 531.95 89.74 514.00 90.00 C 496.05 90.26 483.10 89.22 470.25 93.24 C 457.40 97.27 449.61 102.04 439.75 112.75 C 429.89 123.46 423.38 132.45 421.21 146.77 C 419.04 161.09 421.78 180.83 421.00 199.00 C 420.22 217.17 421.36 239.92 421.00 259.00 C 420.64 278.08 421.16 298.48 421.00 318.00 C 420.84 337.52 421.07 358.26 421.00 378.00 C 420.93 397.74 421.04 418.22 421.00 438.00 C 420.96 457.78 421.03 477.20 421.00 497.00 C 420.97 516.80 421.04 537.22 421.00 557.00 C 420.96 576.78 421.07 597.39 421.00 617.00 C 420.93 636.61 421.15 656.72 421.00 676.00 C 420.85 695.28 421.33 717.39 421.00 736.00 C 420.67 754.61 421.73 778.99 421.00 796.00 C 420.27 813.01 421.68 819.45 429.07 832.93 C 436.47 846.40 446.66 855.15 459.08 860.87 C 471.51 866.59 479.55 868.63 497.00 869.00 C 514.45 869.37 537.20 868.84 556.00 869.00 C 574.80 869.16 596.58 868.93 616.00 869.00 C 635.42 869.07 656.36 868.96 676.00 869.00 C 695.64 869.04 715.26 868.98 735.00 869.00 C 754.74 869.02 775.24 868.99 795.00 869.00 C 814.76 869.01 834.26 868.99 854.00 869.00
C 853.29 865.97 859.03 865.91 856.00 863.00
C 860.42 871.65 856.34 884.32 861.23 892.77 C 866.12 901.22 872.66 910.75 882.30 914.69 C 891.94 918.63 898.23 919.03 911.00 919.00 C 923.77 918.97 940.69 919.00 954.00 919.00 C 967.31 919.00 983.82 918.98 997.00 919.00 C 1010.18 919.02 1027.73 918.95 1040.00 919.00 C 1052.27 919.05 1057.02 917.67 1065.25 914.39 C 1073.48 911.12 1081.04 905.02 1085.87 895.92 C 1090.70 886.82 1091.13 880.93 1091.00 868.00 C 1090.87 855.07 1091.12 838.42 1091.00 825.00 C 1090.88 811.58 1091.19 795.29 1091.00 782.00 C 1090.81 768.71 1091.38 751.48 1091.00 739.00 C 1090.62 726.52 1087.68 722.71 1082.70 714.30 C 1077.73 705.88 1066.54 703.11 1060.00 699.00
C 1070.32 699.03 1077.13 699.81 1084.00 706.00
M 1049.00 125.00 
C 1049.00 150.00 1049.00 175.00 1049.00 200.00
C 1023.67 200.01 998.33 199.99 973.00 200.00 C 947.67 200.01 922.33 199.98 897.00 200.00 C 871.67 200.02 846.32 199.96 821.00 200.00 C 795.68 200.04 769.19 199.92 744.00 200.00 C 718.81 200.08 692.85 199.83 668.00 200.00 C 643.15 200.17 616.17 199.61 592.00 200.00 C 567.83 200.39 537.66 199.16 515.00 200.00 C 492.34 200.84 475.04 201.02 464.20 184.75 C 453.36 168.48 452.40 156.99 463.71 140.71 C 475.01 124.42 491.49 124.42 514.00 125.00 C 536.51 125.58 566.89 124.74 591.00 125.00 C 615.11 125.26 642.18 124.88 667.00 125.00 C 691.82 125.12 717.81 124.95 743.00 125.00 C 768.19 125.05 794.66 124.98 820.00 125.00 C 845.34 125.02 870.61 124.99 896.00 125.00 C 921.39 125.01 946.54 124.99 972.00 125.00 C 997.47 125.01 1023.49 125.00 1049.00 125.00
M 531.00 236.00 
C 531.00 432.83 531.00 631.47 531.00 829.00
C 502.82 826.26 463.11 836.28 456.41 803.25 C 449.71 770.21 455.44 733.39 454.00 696.00 C 452.56 658.61 454.66 616.33 454.00 578.00 C 453.34 539.67 454.31 499.74 454.00 461.00 C 453.69 422.26 454.16 382.97 454.00 344.00 C 453.84 305.03 454.12 265.06 454.00 226.00
C 474.80 238.34 503.28 238.39 531.00 236.00
M 858.00 834.00 
C 858.17 842.26 860.35 850.85 858.00 859.00
C 856.68 851.56 856.11 841.10 857.00 834.00
C 852.43 821.63 828.88 829.67 815.00 828.00 C 801.12 826.33 780.42 828.75 765.00 828.00 C 749.58 827.25 731.12 828.34 715.00 828.00 C 698.88 827.66 681.46 828.16 665.00 828.00 C 648.54 827.84 631.67 828.08 615.00 828.00 C 598.33 827.92 580.75 828.06 564.00 828.00
C 564.00 630.66 564.00 433.34 564.00 236.00
C 725.66 236.00 887.34 236.00 1049.00 236.00
C 1047.06 261.13 1048.20 286.36 1048.00 312.00 C 1047.80 337.64 1048.06 364.28 1048.00 390.00 C 1047.94 415.72 1047.94 441.27 1048.00 467.00 C 1048.06 492.73 1047.79 519.33 1048.00 545.00 C 1048.21 570.67 1047.48 596.50 1048.00 622.00 C 1048.52 647.50 1045.96 673.70 1050.00 698.00
C 1023.39 698.93 989.92 696.76 964.00 698.00 C 938.08 699.24 906.16 694.37 884.75 700.76 C 863.34 707.14 857.86 723.58 858.00 748.00 C 858.14 772.42 857.89 808.52 858.00 834.00
M 895.00 713.00 
C 910.74 710.69 930.68 715.12 949.00 714.00 C 967.32 712.88 990.55 713.53 1009.00 714.00 C 1027.45 714.47 1044.38 710.39 1060.08 715.92 C 1075.78 721.45 1076.85 741.47 1076.00 758.00 C 1075.15 774.53 1076.44 800.20 1076.00 817.00 C 1075.56 833.80 1076.76 861.21 1075.01 876.01 C 1073.26 890.81 1067.70 901.58 1052.30 903.31 C 1036.91 905.03 1014.77 902.42 997.00 903.00 C 979.23 903.58 954.97 903.48 937.00 903.00 C 919.03 902.52 902.66 906.37 889.23 900.42 C 875.80 894.48 873.05 879.69 874.00 863.00 C 874.95 846.31 873.82 821.09 874.00 804.00 C 874.18 786.91 874.42 759.68 874.00 744.00 C 873.58 728.32 879.66 715.25 895.00 713.00 Z"/>
</g>
<g fill="#000000" fill-opacity="0.00" stroke="None">
<path d="
M 1049.00 125.00 
C 1023.49 125.00 997.47 125.01 972.00 125.00 C 946.54 124.99 921.39 125.01 896.00 125.00 C 870.61 124.99 845.34 125.02 820.00 125.00 C 794.66 124.98 768.19 125.05 743.00 125.00 C 717.81 124.95 691.82 125.12 667.00 125.00 C 642.18 124.88 615.11 125.26 591.00 125.00 C 566.89 124.74 536.51 125.58 514.00 125.00 C 491.49 124.42 475.01 124.42 463.71 140.71 C 452.40 156.99 453.36 168.48 464.20 184.75 C 475.04 201.02 492.34 200.84 515.00 200.00 C 537.66 199.16 567.83 200.39 592.00 200.00 C 616.17 199.61 643.15 200.17 668.00 200.00 C 692.85 199.83 718.81 200.08 744.00 200.00 C 769.19 199.92 795.68 200.04 821.00 200.00 C 846.32 199.96 871.67 200.02 897.00 200.00 C 922.33 199.98 947.67 200.01 973.00 200.00 C 998.33 199.99 1023.67 200.01 1049.00 200.00
C 1049.00 175.00 1049.00 150.00 1049.00 125.00 Z"/>
</g>
<g fill="#000000" fill-opacity="0.01" stroke="None">
<path d="
M 531.00 236.00 
C 503.28 238.39 474.80 238.34 454.00 226.00
C 454.12 265.06 453.84 305.03 454.00 344.00 C 454.16 382.97 453.69 422.26 454.00 461.00 C 454.31 499.74 453.34 539.67 454.00 578.00 C 454.66 616.33 452.56 658.61 454.00 696.00 C 455.44 733.39 449.71 770.21 456.41 803.25 C 463.11 836.28 502.82 826.26 531.00 829.00
C 531.00 631.47 531.00 432.83 531.00 236.00 Z"/>
</g>
<g fill="#000000" fill-opacity="0.00" stroke="None">
<path d="
M 857.00 834.00 
C 857.06 834.16 858.00 834.00 858.00 834.00
C 857.89 808.52 858.14 772.42 858.00 748.00 C 857.86 723.58 863.34 707.14 884.75 700.76 C 906.16 694.37 938.08 699.24 964.00 698.00 C 989.92 696.76 1023.39 698.93 1050.00 698.00
C 1045.96 673.70 1048.52 647.50 1048.00 622.00 C 1047.48 596.50 1048.21 570.67 1048.00 545.00 C 1047.79 519.33 1048.06 492.73 1048.00 467.00 C 1047.94 441.27 1047.94 415.72 1048.00 390.00 C 1048.06 364.28 1047.80 337.64 1048.00 312.00 C 1048.20 286.36 1047.06 261.13 1049.00 236.00
C 887.34 236.00 725.66 236.00 564.00 236.00
C 564.00 433.34 564.00 630.66 564.00 828.00
C 580.75 828.06 598.33 827.92 615.00 828.00 C 631.67 828.08 648.54 827.84 665.00 828.00 C 681.46 828.16 698.88 827.66 715.00 828.00 C 731.12 828.34 749.58 827.25 765.00 828.00 C 780.42 828.75 801.12 826.33 815.00 828.00 C 828.88 829.67 852.43 821.63 857.00 834.00
M 870.00 353.00 
C 900.40 337.06 942.80 352.80 955.39 384.75 C 967.98 416.71 948.00 455.99 912.00 461.00
C 914.04 477.62 912.51 494.89 914.00 513.00 C 915.49 531.11 913.81 544.42 916.00 564.00 C 918.19 583.58 901.30 587.71 881.00 586.00 C 860.70 584.29 836.13 586.15 816.00 586.00 C 795.87 585.85 769.94 584.69 751.00 586.00 C 732.06 587.31 713.12 586.67 713.00 567.00 C 712.88 547.32 715.69 533.87 715.78 514.78 C 715.86 495.69 716.46 480.26 717.00 461.00
C 681.65 455.24 662.05 416.85 674.78 383.78 C 687.50 350.70 728.97 337.83 759.00 353.00
C 768.61 329.37 792.94 319.92 816.00 320.00 C 839.06 320.08 861.90 332.68 870.00 353.00
M 676.00 669.00 
C 689.44 668.23 704.66 671.01 719.00 670.00 C 733.34 668.99 748.58 670.49 763.00 670.00 C 777.42 669.51 792.66 670.31 807.00 670.00 C 821.34 669.69 836.96 670.32 851.00 670.00 C 865.04 669.68 881.68 670.55 895.00 670.00 C 908.32 669.45 926.10 671.25 937.22 669.78 C 948.35 668.31 953.81 685.28 945.70 690.70 C 937.60 696.12 920.68 692.54 908.00 693.00 C 895.32 693.46 887.28 693.45 875.92 696.93 C 864.55 700.42 846.21 697.08 833.00 698.00 C 819.79 698.92 802.80 697.49 789.00 698.00 C 775.20 698.51 758.80 697.56 745.00 698.00 C 731.20 698.44 714.22 697.34 701.00 698.00 C 687.78 698.66 674.74 698.03 668.03 690.97 C 661.32 683.91 667.13 669.51 676.00 669.00 Z"/>
</g>
<g fill="#000000" fill-opacity="0.99" stroke="None">
<path d="
M 870.00 353.00 
C 861.90 332.68 839.06 320.08 816.00 320.00 C 792.94 319.92 768.61 329.37 759.00 353.00
C 728.97 337.83 687.50 350.70 674.78 383.78 C 662.05 416.85 681.65 455.24 717.00 461.00
C 716.46 480.26 715.86 495.69 715.78 514.78 C 715.69 533.87 712.88 547.32 713.00 567.00 C 713.12 586.67 732.06 587.31 751.00 586.00 C 769.94 584.69 795.87 585.85 816.00 586.00 C 836.13 586.15 860.70 584.29 881.00 586.00 C 901.30 587.71 918.19 583.58 916.00 564.00 C 913.81 544.42 915.49 531.11 914.00 513.00 C 912.51 494.89 914.04 477.62 912.00 461.00
C 948.00 455.99 967.98 416.71 955.39 384.75 C 942.80 352.80 900.40 337.06 870.00 353.00
M 881.00 552.00 
C 837.33 552.00 793.67 552.00 750.00 552.00
C 749.86 537.26 751.03 521.60 751.93 507.92 C 752.83 494.25 751.32 475.38 753.00 462.00 C 754.68 448.62 753.58 433.90 739.92 433.07 C 726.26 432.23 715.15 430.65 708.10 419.90 C 701.05 409.15 702.45 397.80 709.90 387.90 C 717.36 378.00 732.12 375.91 742.75 380.26 C 753.39 384.62 760.78 401.89 774.08 395.07 C 787.38 388.24 780.93 377.80 787.30 367.30 C 793.67 356.81 804.73 350.39 817.00 351.00 C 829.27 351.61 840.70 359.90 844.39 370.75 C 848.09 381.60 847.16 393.46 861.25 395.80 C 875.33 398.14 880.10 380.67 892.23 378.23 C 904.36 375.79 920.46 382.95 924.70 393.30 C 928.95 403.64 927.74 414.68 919.25 424.25 C 910.75 433.81 899.33 431.03 887.25 434.26 C 875.17 437.50 877.31 452.94 877.93 466.08 C 878.56 479.23 878.56 496.65 879.98 510.02 C 881.40 523.40 878.63 538.78 881.00 552.00 Z"/>
</g>
<g fill="#000000" fill-opacity="0.01" stroke="None">
<path d="
M 881.00 552.00 
C 878.63 538.78 881.40 523.40 879.98 510.02 C 878.56 496.65 878.56 479.23 877.93 466.08 C 877.31 452.94 875.17 437.50 887.25 434.26 C 899.33 431.03 910.75 433.81 919.25 424.25 C 927.74 414.68 928.95 403.64 924.70 393.30 C 920.46 382.95 904.36 375.79 892.23 378.23 C 880.10 380.67 875.33 398.14 861.25 395.80 C 847.16 393.46 848.09 381.60 844.39 370.75 C 840.70 359.90 829.27 351.61 817.00 351.00 C 804.73 350.39 793.67 356.81 787.30 367.30 C 780.93 377.80 787.38 388.24 774.08 395.07 C 760.78 401.89 753.39 384.62 742.75 380.26 C 732.12 375.91 717.36 378.00 709.90 387.90 C 702.45 397.80 701.05 409.15 708.10 419.90 C 715.15 430.65 726.26 432.23 739.92 433.07 C 753.58 433.90 754.68 448.62 753.00 462.00 C 751.32 475.38 752.83 494.25 751.93 507.92 C 751.03 521.60 749.86 537.26 750.00 552.00
C 793.67 552.00 837.33 552.00 881.00 552.00 Z"/>
</g>
<g fill="#000000" fill-opacity="0.97" stroke="None">
<path d="
M 676.00 669.00 
C 667.13 669.51 661.32 683.91 668.03 690.97 C 674.74 698.03 687.78 698.66 701.00 698.00 C 714.22 697.34 731.20 698.44 745.00 698.00 C 758.80 697.56 775.20 698.51 789.00 698.00 C 802.80 697.49 819.79 698.92 833.00 698.00 C 846.21 697.08 864.55 700.42 875.92 696.93 C 887.28 693.45 895.32 693.46 908.00 693.00 C 920.68 692.54 937.60 696.12 945.70 690.70 C 953.81 685.28 948.35 668.31 937.22 669.78 C 926.10 671.25 908.32 669.45 895.00 670.00 C 881.68 670.55 865.04 669.68 851.00 670.00 C 836.96 670.32 821.34 669.69 807.00 670.00 C 792.66 670.31 777.42 669.51 763.00 670.00 C 748.58 670.49 733.34 668.99 719.00 670.00 C 704.66 671.01 689.44 668.23 676.00 669.00 Z"/>
</g>
<g fill="#000000" fill-opacity="0.01" stroke="None">
<path d="
M 895.00 713.00 
C 879.66 715.25 873.58 728.32 874.00 744.00 C 874.42 759.68 874.18 786.91 874.00 804.00 C 873.82 821.09 874.95 846.31 874.00 863.00 C 873.05 879.69 875.80 894.48 889.23 900.42 C 902.66 906.37 919.03 902.52 937.00 903.00 C 954.97 903.48 979.23 903.58 997.00 903.00 C 1014.77 902.42 1036.91 905.03 1052.30 903.31 C 1067.70 901.58 1073.26 890.81 1075.01 876.01 C 1076.76 861.21 1075.56 833.80 1076.00 817.00 C 1076.44 800.20 1075.15 774.53 1076.00 758.00 C 1076.85 741.47 1075.78 721.45 1060.08 715.92 C 1044.38 710.39 1027.45 714.47 1009.00 714.00 C 990.55 713.53 967.32 712.88 949.00 714.00 C 930.68 715.12 910.74 710.69 895.00 713.00
M 995.00 804.00 
C 1014.59 824.58 1037.52 844.45 1057.00 864.00
C 1059.64 873.36 1050.51 884.25 1040.93 882.07 C 1031.35 879.90 1026.53 869.23 1017.77 863.23 C 1009.01 857.23 1002.64 845.64 994.75 840.25 C 986.86 834.86 978.30 819.92 971.08 829.08 C 963.87 838.24 954.85 843.03 947.25 851.25 C 939.66 859.48 931.20 865.52 924.23 874.23 C 917.26 882.94 905.53 885.72 898.70 876.30 C 891.87 866.88 900.45 856.33 909.30 850.30 C 918.15 844.27 924.69 834.86 932.75 827.75 C 940.82 820.65 949.49 811.92 958.00 806.00
C 952.88 798.88 943.98 793.92 937.75 787.25 C 931.53 780.57 924.27 774.83 917.90 768.10 C 911.53 761.37 903.41 756.75 905.60 748.25 C 907.79 739.76 917.64 734.45 924.30 740.71 C 930.97 746.98 939.07 752.64 944.77 760.23 C 950.47 767.82 958.66 768.87 964.25 777.75 C 969.84 786.63 978.97 791.00 985.25 781.25 C 991.53 771.50 998.38 769.77 1005.23 762.23 C 1012.08 754.69 1018.54 749.50 1025.25 742.25 C 1031.97 735.01 1042.18 738.20 1046.30 745.70 C 1050.42 753.20 1042.08 762.06 1035.75 767.75 C 1029.42 773.45 1021.76 780.41 1015.25 786.25 C 1008.73 792.09 1001.87 801.40 995.00 804.00 Z"/>
</g>
<g fill="#000000" fill-opacity="0.98" stroke="None">
<path d="
M 995.00 804.00 
C 1001.87 801.40 1008.73 792.09 1015.25 786.25 C 1021.76 780.41 1029.42 773.45 1035.75 767.75 C 1042.08 762.06 1050.42 753.20 1046.30 745.70 C 1042.18 738.20 1031.97 735.01 1025.25 742.25 C 1018.54 749.50 1012.08 754.69 1005.23 762.23 C 998.38 769.77 991.53 771.50 985.25 781.25 C 978.97 791.00 969.84 786.63 964.25 777.75 C 958.66 768.87 950.47 767.82 944.77 760.23 C 939.07 752.64 930.97 746.98 924.30 740.71 C 917.64 734.45 907.79 739.76 905.60 748.25 C 903.41 756.75 911.53 761.37 917.90 768.10 C 924.27 774.83 931.53 780.57 937.75 787.25 C 943.98 793.92 952.88 798.88 958.00 806.00
C 949.49 811.92 940.82 820.65 932.75 827.75 C 924.69 834.86 918.15 844.27 909.30 850.30 C 900.45 856.33 891.87 866.88 898.70 876.30 C 905.53 885.72 917.26 882.94 924.23 874.23 C 931.20 865.52 939.66 859.48 947.25 851.25 C 954.85 843.03 963.87 838.24 971.08 829.08 C 978.30 819.92 986.86 834.86 994.75 840.25 C 1002.64 845.64 1009.01 857.23 1017.77 863.23 C 1026.53 869.23 1031.35 879.90 1040.93 882.07 C 1050.51 884.25 1059.64 873.36 1057.00 864.00
C 1037.52 844.45 1014.59 824.58 995.00 804.00 Z"/>
</g>
<g fill="#000000" fill-opacity="0.62" stroke="None">
<path d="
M 858.00 834.00 
C 858.00 834.00 857.06 834.16 857.00 834.00
C 856.11 841.10 856.68 851.56 858.00 859.00
C 860.35 850.85 858.17 842.26 858.00 834.00 Z"/>
</g>
</svg>