<svg xmlns="http://www.w3.org/2000/svg" xmlns:v="https://svgstorm.com" viewBox="59.77 44.52 859.06 859.06" width="100%" height="100%">
<g fill="None" fill-opacity="0.0" stroke="#000000" stroke-opacity="0.00" stroke-width="0.3"><path d=" M 0.00 1024.00  L 1024.00 1024.00 L 1024.00 0.00 L 0.00 0.00 L 0.00 1024.00 M 428.00 150.00  C 442.58 149.19 461.89 151.08 476.00 150.00 C 490.11 148.92 491.33 160.62 491.99 172.01 C 492.65 183.40 491.08 184.79 491.00 192.00 C 507.13 192.01 523.94 191.99 540.00 192.00 C 556.06 192.01 574.29 191.98 590.00 192.00 C 605.71 192.02 604.31 203.20 604.00 218.00 C 603.69 232.80 604.14 252.28 604.00 268.00 C 603.86 283.72 604.05 300.83 604.00 317.00 C 603.95 333.17 604.00 350.62 604.00 367.00 C 604.00 383.38 603.95 400.61 604.00 417.00 C 604.05 433.39 603.88 450.79 604.00 467.00 C 604.12 483.21 603.96 498.39 604.00 515.00 C 634.47 516.51 657.54 523.61 677.75 537.39 C 697.96 551.18 718.28 576.54 726.00 600.00 C 718.46 598.28 709.47 599.31 701.00 599.00 C 704.29 600.80 700.97 601.57 699.00 600.00 C 696.20 592.50 692.08 585.53 686.74 578.26 C 681.40 570.98 674.29 565.36 668.10 559.90 C 661.90 554.44 653.97 551.57 647.75 547.81 C 641.52 544.05 636.30 543.22 627.92 540.94 C 619.54 538.65 610.02 538.17 600.75 538.80 C 591.49 539.43 585.46 540.96 577.75 543.76 C 570.05 546.56 565.91 549.33 557.92 554.92 C 549.92 560.50 547.23 569.69 540.70 574.70 C 534.17 579.71 524.60 576.98 521.74 570.25 C 518.88 563.51 510.33 557.62 504.32 552.68 C 498.30 547.74 492.51 545.49 484.75 542.81 C 477.00 540.12 471.59 538.82 461.75 538.20 C 451.91 537.57 439.72 538.87 432.32 540.66 C 424.92 542.45 418.27 544.69 410.70 548.70 C 403.14 552.72 393.18 556.61 386.90 562.90 C 380.62 569.20 371.66 578.02 368.22 585.22 C 364.79 592.43 361.60 595.33 359.74 602.75 C 357.87 610.18 355.55 616.75 355.20 625.25 C 354.85 633.74 355.45 645.69 356.20 653.25 C 356.95 660.80 359.88 667.87 361.39 675.75 C 362.91 683.63 366.77 689.60 368.92 697.08 C 371.07 704.56 374.73 710.54 377.58 716.77 C 380.42 723.00 383.96 729.97 388.13 736.92 C 392.30 743.86 397.66 752.42 402.92 759.08 C 408.18 765.75 412.84 774.03 418.97 780.03 C 425.10 786.03 432.94 794.27 438.90 800.10 C 444.87 805.93 452.24 810.17 458.89 815.11 C 465.55 820.04 471.07 821.14 477.75 824.59 C 484.43 828.04 494.53 829.46 503.22 828.22 C 511.91 826.98 514.12 825.51 521.75 821.61 C 529.39 817.71 539.17 824.00 545.00 824.00 C 544.33 829.02 555.26 828.66 561.00 829.00 C 566.75 829.34 572.34 827.42 577.75 825.41 C 583.16 823.40 587.37 822.31 593.08 819.07 C 598.80 815.82 604.14 810.08 610.00 806.00 C 610.78 817.03 612.51 827.35 621.00 834.00 C 595.27 851.96 557.62 864.53 527.00 846.00 C 511.45 861.46 483.14 856.92 464.75 849.20 C 446.36 841.48 424.83 828.14 409.00 808.00 C 398.49 809.99 388.05 808.76 377.00 809.00 C 365.95 809.24 354.20 808.89 343.00 809.00 C 331.80 809.11 320.25 808.95 309.00 809.00 C 297.75 809.05 286.25 808.97 275.00 809.00 C 263.75 809.03 252.20 808.97 241.00 809.00 C 229.80 809.03 218.07 808.95 207.00 809.00 C 195.93 809.05 183.75 808.89 173.00 809.00 C 162.25 809.11 149.04 808.76 139.00 809.00 C 128.96 809.24 122.19 808.43 117.43 801.23 C 112.67 794.03 117.06 784.50 116.00 774.00 C 114.94 763.50 116.48 750.96 116.00 740.00 C 115.52 729.04 116.22 717.16 116.00 706.00 C 115.78 694.84 116.10 683.26 116.00 672.00 C 115.90 660.74 116.04 649.30 116.00 638.00 C 115.96 626.70 116.02 615.32 116.00 604.00 C 115.98 592.68 116.01 581.33 116.00 570.00 C 115.99 558.67 116.00 547.33 116.00 536.00 C 116.00 524.67 116.00 513.33 116.00 502.00 C 116.00 490.67 116.00 479.33 116.00 468.00 C 116.00 456.67 115.99 445.32 116.00 434.00 C 116.01 422.68 115.99 411.31 116.00 400.00 C 116.01 388.69 115.97 377.29 116.00 366.00 C 116.03 354.71 115.94 343.24 116.00 332.00 C 116.06 320.76 115.86 309.13 116.00 298.00 C 116.14 286.87 115.70 274.89 116.00 264.00 C 116.30 253.11 115.76 241.03 115.02 230.98 C 114.29 220.92 114.24 209.07 116.64 201.30 C 119.05 193.54 123.00 191.61 132.00 192.00 C 141.01 192.38 156.37 192.39 166.00 192.00 C 175.63 191.61 190.88 193.41 200.00 192.00 C 209.12 190.59 226.39 196.76 230.97 188.97 C 235.54 181.17 226.82 165.89 232.26 158.25 C 237.71 150.61 240.92 147.96 252.00 150.00 C 263.08 152.04 273.93 147.43 286.00 150.00 C 298.07 152.57 296.77 141.73 297.19 134.75 C 297.62 127.77 301.86 122.85 304.70 116.70 C 307.55 110.56 312.51 104.25 318.90 98.90 C 325.29 93.55 330.93 90.56 338.25 87.81 C 345.57 85.06 349.94 83.91 358.03 83.98 C 366.11 84.05 374.02 83.57 380.25 85.80 C 386.47 88.03 394.48 91.31 400.30 95.70 C 406.11 100.10 414.31 105.92 417.70 112.30 C 421.10 118.67 423.66 123.28 425.59 129.75 C 427.52 136.22 427.99 143.03 428.00 150.00 M 609.00 804.00  C 613.95 797.15 611.39 785.84 612.00 777.00 C 612.61 768.16 611.21 757.55 611.61 749.25 C 612.00 740.94 611.68 731.52 611.67 723.33 C 611.66 715.13 612.16 704.73 611.93 696.92 C 611.70 689.12 611.42 684.98 611.60 677.25 C 611.79 669.51 611.78 657.01 612.00 648.00 C 612.22 638.99 613.40 634.78 616.26 628.25 C 619.13 621.71 624.29 615.68 631.08 611.08 C 637.86 606.47 643.85 603.69 652.67 602.67 C 661.50 601.66 673.54 602.08 684.00 602.00 C 694.46 601.92 707.15 602.11 718.00 602.00 C 728.85 601.89 742.20 602.21 753.00 602.00 C 763.80 601.79 776.75 602.46 787.00 602.00 C 797.25 601.54 811.40 602.62 820.07 602.93 C 828.75 603.23 833.88 604.38 841.03 607.97 C 848.17 611.57 852.52 617.05 857.32 623.68 C 862.12 630.31 863.75 632.70 864.39 641.75 C 865.04 650.80 865.00 662.52 865.00 673.00 C 865.00 683.48 864.91 696.27 865.00 707.00 C 865.09 717.73 865.34 726.42 865.00 737.00 C 864.66 747.58 865.30 760.69 865.00 771.00 C 864.70 781.31 865.92 790.71 865.78 800.22 C 865.64 809.73 863.81 814.43 861.88 820.90 C 859.96 827.37 855.71 834.12 849.92 838.92 C 844.13 843.72 836.39 848.10 828.92 849.92 C 821.44 851.74 816.32 851.19 806.00 851.00 C 795.68 850.81 782.83 851.04 772.00 851.00 C 761.17 850.96 749.01 850.91 738.00 851.00 C 726.99 851.09 713.86 850.73 703.00 851.00 C 692.14 851.27 679.25 850.35 669.00 851.00 C 658.75 851.65 653.16 851.21 645.30 848.69 C 637.45 846.17 633.64 843.90 626.92 839.08 C 620.20 834.25 618.76 826.90 615.61 822.25 C 612.45 817.59 614.32 805.06 609.00 804.00 Z"/>
</g>
<g fill="None" fill-opacity="0.0" stroke="#000000" stroke-opacity="0.98" stroke-width="0.3"><path d=" M 428.00 150.00  C 427.99 143.03 427.52 136.22 425.59 129.75 C 423.66 123.28 421.10 118.67 417.70 112.30 C 414.31 105.92 406.11 100.10 400.30 95.70 C 394.48 91.31 386.47 88.03 380.25 85.80 C 374.02 83.57 366.11 84.05 358.03 83.98 C 349.94 83.91 345.57 85.06 338.25 87.81 C 330.93 90.56 325.29 93.55 318.90 98.90 C 312.51 104.25 307.55 110.56 304.70 116.70 C 301.86 122.85 297.62 127.77 297.19 134.75 C 296.77 141.73 298.07 152.57 286.00 150.00 C 273.93 147.43 263.08 152.04 252.00 150.00 C 240.92 147.96 237.71 150.61 232.26 158.25 C 226.82 165.89 235.54 181.17 230.97 188.97 C 226.39 196.76 209.12 190.59 200.00 192.00 C 190.88 193.41 175.63 191.61 166.00 192.00 C 156.37 192.39 141.01 192.38 132.00 192.00 C 123.00 191.61 119.05 193.54 116.64 201.30 C 114.24 209.07 114.29 220.92 115.02 230.98 C 115.76 241.03 116.30 253.11 116.00 264.00 C 115.70 274.89 116.14 286.87 116.00 298.00 C 115.86 309.13 116.06 320.76 116.00 332.00 C 115.94 343.24 116.03 354.71 116.00 366.00 C 115.97 377.29 116.01 388.69 116.00 400.00 C 115.99 411.31 116.01 422.68 116.00 434.00 C 115.99 445.32 116.00 456.67 116.00 468.00 C 116.00 479.33 116.00 490.67 116.00 502.00 C 116.00 513.33 116.00 524.67 116.00 536.00 C 116.00 547.33 115.99 558.67 116.00 570.00 C 116.01 581.33 115.98 592.68 116.00 604.00 C 116.02 615.32 115.96 626.70 116.00 638.00 C 116.04 649.30 115.90 660.74 116.00 672.00 C 116.10 683.26 115.78 694.84 116.00 706.00 C 116.22 717.16 115.52 729.04 116.00 740.00 C 116.48 750.96 114.94 763.50 116.00 774.00 C 117.06 784.50 112.67 794.03 117.43 801.23 C 122.19 808.43 128.96 809.24 139.00 809.00 C 149.04 808.76 162.25 809.11 173.00 809.00 C 183.75 808.89 195.93 809.05 207.00 809.00 C 218.07 808.95 229.80 809.03 241.00 809.00 C 252.20 808.97 263.75 809.03 275.00 809.00 C 286.25 808.97 297.75 809.05 309.00 809.00 C 320.25 808.95 331.80 809.11 343.00 809.00 C 354.20 808.89 365.95 809.24 377.00 809.00 C 388.05 808.76 398.49 809.99 409.00 808.00 C 424.83 828.14 446.36 841.48 464.75 849.20 C 483.14 856.92 511.45 861.46 527.00 846.00 C 557.62 864.53 595.27 851.96 621.00 834.00 C 612.51 827.35 610.78 817.03 610.00 806.00 C 604.14 810.08 598.80 815.82 593.08 819.07 C 587.37 822.31 583.16 823.40 577.75 825.41 C 572.34 827.42 566.75 829.34 561.00 829.00 C 555.26 828.66 544.33 829.02 545.00 824.00 C 539.17 824.00 529.39 817.71 521.75 821.61 C 514.12 825.51 511.91 826.98 503.22 828.22 C 494.53 829.46 484.43 828.04 477.75 824.59 C 471.07 821.14 465.55 820.04 458.89 815.11 C 452.24 810.17 444.87 805.93 438.90 800.10 C 432.94 794.27 425.10 786.03 418.97 780.03 C 412.84 774.03 408.18 765.75 402.92 759.08 C 397.66 752.42 392.30 743.86 388.13 736.92 C 383.96 729.97 380.42 723.00 377.58 716.77 C 374.73 710.54 371.07 704.56 368.92 697.08 C 366.77 689.60 362.91 683.63 361.39 675.75 C 359.88 667.87 356.95 660.80 356.20 653.25 C 355.45 645.69 354.85 633.74 355.20 625.25 C 355.55 616.75 357.87 610.18 359.74 602.75 C 361.60 595.33 364.79 592.43 368.22 585.22 C 371.66 578.02 380.62 569.20 386.90 562.90 C 393.18 556.61 403.14 552.72 410.70 548.70 C 418.27 544.69 424.92 542.45 432.32 540.66 C 439.72 538.87 451.91 537.57 461.75 538.20 C 471.59 538.82 477.00 540.12 484.75 542.81 C 492.51 545.49 498.30 547.74 504.32 552.68 C 510.33 557.62 518.88 563.51 521.74 570.25 C 524.60 576.98 534.17 579.71 540.70 574.70 C 547.23 569.69 549.92 560.50 557.92 554.92 C 565.91 549.33 570.05 546.56 577.75 543.76 C 585.46 540.96 591.49 539.43 600.75 538.80 C 610.02 538.17 619.54 538.65 627.92 540.94 C 636.30 543.22 641.52 544.05 647.75 547.81 C 653.97 551.57 661.90 554.44 668.10 559.90 C 674.29 565.36 681.40 570.98 686.74 578.26 C 692.08 585.53 696.20 592.50 699.00 600.00 C 700.97 601.57 704.29 600.80 701.00 599.00 C 709.47 599.31 718.46 598.28 726.00 600.00 C 718.28 576.54 697.96 551.18 677.75 537.39 C 657.54 523.61 634.47 516.51 604.00 515.00 C 603.96 498.39 604.12 483.21 604.00 467.00 C 603.88 450.79 604.05 433.39 604.00 417.00 C 603.95 400.61 604.00 383.38 604.00 367.00 C 604.00 350.62 603.95 333.17 604.00 317.00 C 604.05 300.83 603.86 283.72 604.00 268.00 C 604.14 252.28 603.69 232.80 604.00 218.00 C 604.31 203.20 605.71 192.02 590.00 192.00 C 574.29 191.98 556.06 192.01 540.00 192.00 C 523.94 191.99 507.13 192.01 491.00 192.00 C 491.08 184.79 492.65 183.40 491.99 172.01 C 491.33 160.62 490.11 148.92 476.00 150.00 C 461.89 151.08 442.58 149.19 428.00 150.00 M 465.00 175.00  C 463.41 196.18 464.42 217.71 465.00 238.00 C 395.67 238.00 326.33 238.00 257.00 238.00 C 257.29 218.44 256.79 195.83 257.00 175.00 C 266.84 172.86 282.80 175.32 292.08 174.07 C 301.35 172.82 315.19 178.19 321.10 170.10 C 327.01 162.00 320.61 150.49 322.93 140.92 C 325.26 131.35 330.89 123.20 338.25 117.20 C 345.61 111.20 354.02 109.47 363.56 109.78 C 373.10 110.09 377.68 111.37 386.25 117.75 C 394.82 124.12 399.12 131.28 401.32 141.68 C 403.53 152.07 396.10 162.22 402.13 169.92 C 408.16 177.61 423.31 173.22 433.25 174.20 C 443.18 175.17 455.48 173.45 465.00 175.00 M 581.00 217.00  C 581.00 317.67 581.00 418.33 581.00 519.00 C 569.13 521.41 555.12 528.64 545.00 537.00 C 545.78 520.13 543.96 500.61 545.00 484.00 C 546.04 467.39 543.05 445.55 545.00 430.00 C 546.95 414.45 543.06 398.31 527.25 404.26 C 511.43 410.22 524.26 436.18 520.00 449.00 C 508.73 434.15 494.68 423.16 476.75 421.20 C 458.82 419.24 440.86 420.17 425.75 427.20 C 410.65 434.23 419.77 456.03 428.32 468.68 C 436.87 481.34 452.95 498.28 467.77 503.58 C 482.59 508.87 504.27 513.84 520.00 504.00 C 519.33 515.17 521.33 527.66 519.00 538.00 C 478.41 501.07 412.01 511.69 372.92 542.92 C 333.82 574.15 321.70 621.13 332.59 667.75 C 343.48 714.37 360.69 745.40 388.00 783.00 C 361.58 783.40 338.12 782.14 313.75 782.20 C 289.39 782.26 265.10 783.17 236.00 783.00 C 206.90 782.83 168.05 783.11 139.00 783.00 C 139.00 594.34 139.00 405.67 139.00 217.00 C 169.32 217.75 200.05 218.07 231.00 217.00 C 231.54 237.75 224.76 265.38 250.00 264.00 C 275.24 262.62 300.06 264.46 325.00 264.00 C 349.94 263.54 374.30 263.81 399.00 264.00 C 423.70 264.19 449.62 263.08 474.00 264.00 C 498.38 264.92 490.71 236.92 492.00 217.00 C 521.53 217.96 551.80 217.93 581.00 217.00 M 514.00 483.00  C 486.64 490.36 455.01 472.68 446.00 445.00 C 477.10 441.80 504.52 454.67 514.00 483.00 Z"/>
</g>
<g fill="None" fill-opacity="0.0" stroke="#000000" stroke-opacity="0.01" stroke-width="0.3"><path d=" M 465.00 175.00  C 455.48 173.45 443.18 175.17 433.25 174.20 C 423.31 173.22 408.16 177.61 402.13 169.92 C 396.10 162.22 403.53 152.07 401.32 141.68 C 399.12 131.28 394.82 124.12 386.25 117.75 C 377.68 111.37 373.10 110.09 363.56 109.78 C 354.02 109.47 345.61 111.20 338.25 117.20 C 330.89 123.20 325.26 131.35 322.93 140.92 C 320.61 150.49 327.01 162.00 321.10 170.10 C 315.19 178.19 301.35 172.82 292.08 174.07 C 282.80 175.32 266.84 172.86 257.00 175.00 C 256.79 195.83 257.29 218.44 257.00 238.00 C 326.33 238.00 395.67 238.00 465.00 238.00 C 464.42 217.71 463.41 196.18 465.00 175.00 Z"/>
</g>
<g fill="None" fill-opacity="0.0" stroke="#000000" stroke-opacity="0.01" stroke-width="0.3"><path d=" M 581.00 217.00  C 551.80 217.93 521.53 217.96 492.00 217.00 C 490.71 236.92 498.38 264.92 474.00 264.00 C 449.62 263.08 423.70 264.19 399.00 264.00 C 374.30 263.81 349.94 263.54 325.00 264.00 C 300.06 264.46 275.24 262.62 250.00 264.00 C 224.76 265.38 231.54 237.75 231.00 217.00 C 200.05 218.07 169.32 217.75 139.00 217.00 C 139.00 405.67 139.00 594.34 139.00 783.00 C 168.05 783.11 206.90 782.83 236.00 783.00 C 265.10 783.17 289.39 782.26 313.75 782.20 C 338.12 782.14 361.58 783.40 388.00 783.00 C 360.69 745.40 343.48 714.37 332.59 667.75 C 321.70 621.13 333.82 574.15 372.92 542.92 C 412.01 511.69 478.41 501.07 519.00 538.00 C 521.33 527.66 519.33 515.17 520.00 504.00 C 504.27 513.84 482.59 508.87 467.77 503.58 C 452.95 498.28 436.87 481.34 428.32 468.68 C 419.77 456.03 410.65 434.23 425.75 427.20 C 440.86 420.17 458.82 419.24 476.75 421.20 C 494.68 423.16 508.73 434.15 520.00 449.00 C 524.26 436.18 511.43 410.22 527.25 404.26 C 543.06 398.31 546.95 414.45 545.00 430.00 C 543.05 445.55 546.04 467.39 545.00 484.00 C 543.96 500.61 545.78 520.13 545.00 537.00 C 555.12 528.64 569.13 521.41 581.00 519.00 C 581.00 418.33 581.00 317.67 581.00 217.00 M 416.00 349.00  C 428.00 349.00 440.00 349.00 452.00 349.00 C 458.73 348.04 466.83 348.31 474.00 349.00 C 487.59 349.00 514.50 345.48 524.68 351.32 C 534.87 357.16 529.39 376.40 514.00 374.00 C 498.60 371.61 475.00 375.13 458.00 374.00 C 441.00 372.87 420.65 374.57 403.00 374.00 C 385.35 373.43 364.72 374.41 347.00 374.00 C 329.28 373.59 308.16 374.52 291.00 374.00 C 273.84 373.48 251.64 375.00 236.00 374.00 C 220.36 373.00 200.63 380.41 197.74 364.25 C 194.84 348.08 213.28 348.00 229.00 349.00 C 244.72 350.00 266.73 348.57 284.00 349.00 C 301.27 349.43 322.06 348.84 340.00 349.00 C 357.94 349.16 377.88 349.00 396.00 349.00 C 402.20 348.11 409.38 348.36 416.00 349.00 M 208.00 456.00  C 226.21 454.95 250.25 457.40 269.00 457.00 C 287.75 456.60 313.56 455.60 331.00 457.00 C 348.44 458.40 372.13 448.96 374.93 467.08 C 377.74 485.20 352.46 482.41 335.00 482.00 C 317.54 481.59 291.56 481.56 273.00 482.00 C 254.44 482.44 229.27 480.41 211.00 482.00 C 192.73 483.59 194.70 456.77 208.00 456.00 M 206.00 562.00  C 216.09 558.85 232.31 563.60 244.00 562.00 C 255.69 560.40 272.65 563.13 284.00 562.00 C 295.35 560.87 304.83 564.43 303.66 575.68 C 302.49 586.92 289.14 588.04 278.00 587.00 C 266.86 585.96 249.25 587.96 238.00 587.00 C 226.75 586.04 211.12 589.52 202.32 584.68 C 193.53 579.84 197.58 564.63 206.00 562.00 Z"/>
</g>
<g fill="None" fill-opacity="0.0" stroke="#EFEFEF" stroke-opacity="0.03" stroke-width="0.3"><path d=" M 396.00 349.00  C 402.67 349.00 409.33 349.00 416.00 349.00 C 409.38 348.36 402.20 348.11 396.00 349.00 Z"/>
</g>
<g fill="None" fill-opacity="0.0" stroke="#FFFFFF" stroke-opacity="0.04" stroke-width="0.3"><path d=" M 452.00 349.00  C 459.33 349.00 466.67 349.00 474.00 349.00 C 466.83 348.31 458.73 348.04 452.00 349.00 Z"/>
</g>
<g fill="None" fill-opacity="0.0" stroke="#000000" stroke-opacity="0.99" stroke-width="0.3"><path d=" M 474.00 349.00  C 466.67 349.00 459.33 349.00 452.00 349.00 C 440.00 349.00 428.00 349.00 416.00 349.00 C 409.33 349.00 402.67 349.00 396.00 349.00 C 377.88 349.00 357.94 349.16 340.00 349.00 C 322.06 348.84 301.27 349.43 284.00 349.00 C 266.73 348.57 244.72 350.00 229.00 349.00 C 213.28 348.00 194.84 348.08 197.74 364.25 C 200.63 380.41 220.36 373.00 236.00 374.00 C 251.64 375.00 273.84 373.48 291.00 374.00 C 308.16 374.52 329.28 373.59 347.00 374.00 C 364.72 374.41 385.35 373.43 403.00 374.00 C 420.65 374.57 441.00 372.87 458.00 374.00 C 475.00 375.13 498.60 371.61 514.00 374.00 C 529.39 376.40 534.87 357.16 524.68 351.32 C 514.50 345.48 487.59 349.00 474.00 349.00 Z"/>
</g>
<g fill="None" fill-opacity="0.0" stroke="#000000" stroke-opacity="0.02" stroke-width="0.3"><path d=" M 514.00 483.00  C 504.52 454.67 477.10 441.80 446.00 445.00 C 455.01 472.68 486.64 490.36 514.00 483.00 Z"/>
</g>
<g fill="None" fill-opacity="0.0" stroke="#000000" stroke-opacity="0.99" stroke-width="0.3"><path d=" M 208.00 456.00  C 194.70 456.77 192.73 483.59 211.00 482.00 C 229.27 480.41 254.44 482.44 273.00 482.00 C 291.56 481.56 317.54 481.59 335.00 482.00 C 352.46 482.41 377.74 485.20 374.93 467.08 C 372.13 448.96 348.44 458.40 331.00 457.00 C 313.56 455.60 287.75 456.60 269.00 457.00 C 250.25 457.40 226.21 454.95 208.00 456.00 Z"/>
</g>
<g fill="None" fill-opacity="0.0" stroke="#000000" stroke-opacity="0.99" stroke-width="0.3"><path d=" M 206.00 562.00  C 197.58 564.63 193.53 579.84 202.32 584.68 C 211.12 589.52 226.75 586.04 238.00 587.00 C 249.25 587.96 266.86 585.96 278.00 587.00 C 289.14 588.04 302.49 586.92 303.66 575.68 C 304.83 564.43 295.35 560.87 284.00 562.00 C 272.65 563.13 255.69 560.40 244.00 562.00 C 232.31 563.60 216.09 558.85 206.00 562.00 Z"/>
</g>
<g fill="None" fill-opacity="0.0" stroke="#000000" stroke-opacity="0.98" stroke-width="0.3"><path d=" M 609.00 804.00  C 614.32 805.06 612.45 817.59 615.61 822.25 C 618.76 826.90 620.20 834.25 626.92 839.08 C 633.64 843.90 637.45 846.17 645.30 848.69 C 653.16 851.21 658.75 851.65 669.00 851.00 C 679.25 850.35 692.14 851.27 703.00 851.00 C 713.86 850.73 726.99 851.09 738.00 851.00 C 749.01 850.91 761.17 850.96 772.00 851.00 C 782.83 851.04 795.68 850.81 806.00 851.00 C 816.32 851.19 821.44 851.74 828.92 849.92 C 836.39 848.10 844.13 843.72 849.92 838.92 C 855.71 834.12 859.96 827.37 861.88 820.90 C 863.81 814.43 865.64 809.73 865.78 800.22 C 865.92 790.71 864.70 781.31 865.00 771.00 C 865.30 760.69 864.66 747.58 865.00 737.00 C 865.34 726.42 865.09 717.73 865.00 707.00 C 864.91 696.27 865.00 683.48 865.00 673.00 C 865.00 662.52 865.04 650.80 864.39 641.75 C 863.75 632.70 862.12 630.31 857.32 623.68 C 852.52 617.05 848.17 611.57 841.03 607.97 C 833.88 604.38 828.75 603.23 820.07 602.93 C 811.40 602.62 797.25 601.54 787.00 602.00 C 776.75 602.46 763.80 601.79 753.00 602.00 C 742.20 602.21 728.85 601.89 718.00 602.00 C 707.15 602.11 694.46 601.92 684.00 602.00 C 673.54 602.08 661.50 601.66 652.67 602.67 C 643.85 603.69 637.86 606.47 631.08 611.08 C 624.29 615.68 619.13 621.71 616.26 628.25 C 613.40 634.78 612.22 638.99 612.00 648.00 C 611.78 657.01 611.79 669.51 611.60 677.25 C 611.42 684.98 611.70 689.12 611.93 696.92 C 612.16 704.73 611.66 715.13 611.67 723.33 C 611.68 731.52 612.00 740.94 611.61 749.25 C 611.21 757.55 612.61 768.16 612.00 777.00 C 611.39 785.84 613.95 797.15 609.00 804.00 M 662.00 621.00  C 666.08 620.62 674.99 619.76 678.00 622.00 C 678.50 622.00 679.00 622.00 679.00 622.00 C 683.30 618.82 694.46 621.38 699.00 622.00 C 700.33 622.00 701.67 622.00 703.00 622.00 C 708.42 621.26 717.00 619.98 723.00 621.00 C 729.00 622.02 738.33 618.55 743.00 622.00 C 743.50 622.00 744.00 622.00 744.00 622.00 C 749.87 617.65 768.44 621.37 775.00 622.00 C 782.67 622.00 790.33 622.00 798.00 622.00 C 805.52 621.27 814.52 620.76 822.00 622.00 C 833.73 622.43 844.66 630.60 845.20 645.25 C 845.74 659.90 846.31 684.89 845.93 701.08 C 845.55 717.26 846.46 741.96 845.98 757.03 C 845.50 772.09 846.46 788.50 846.00 804.00 C 845.54 819.50 838.62 828.49 822.75 831.19 C 806.89 833.90 778.06 833.35 758.00 833.00 C 737.94 832.65 709.62 834.01 689.00 833.00 C 668.38 831.99 655.22 835.62 642.08 825.91 C 628.94 816.20 630.86 795.37 631.00 776.00 C 631.14 756.63 631.00 727.80 631.00 708.00 C 631.00 688.20 630.40 659.07 632.71 642.71 C 635.01 626.34 646.59 622.45 662.00 621.00 Z"/>
</g>
<g fill="None" fill-opacity="0.0" stroke="#000000" stroke-opacity="0.02" stroke-width="0.3"><path d=" M 822.00 622.00  C 814.02 621.71 805.98 622.00 798.00 622.00 C 790.33 622.00 782.67 622.00 775.00 622.00 C 764.67 622.00 754.33 622.00 744.00 622.00 C 744.00 622.00 743.50 622.00 743.00 622.00 C 729.67 622.00 716.33 622.00 703.00 622.00 C 701.67 622.00 700.33 622.00 699.00 622.00 C 692.33 622.00 685.67 622.00 679.00 622.00 C 679.00 622.00 678.50 622.00 678.00 622.00 C 672.83 622.00 666.35 621.01 662.00 621.00 C 646.59 622.45 635.01 626.34 632.71 642.71 C 630.40 659.07 631.00 688.20 631.00 708.00 C 631.00 727.80 631.14 756.63 631.00 776.00 C 630.86 795.37 628.94 816.20 642.08 825.91 C 655.22 835.62 668.38 831.99 689.00 833.00 C 709.62 834.01 737.94 832.65 758.00 833.00 C 778.06 833.35 806.89 833.90 822.75 831.19 C 838.62 828.49 845.54 819.50 846.00 804.00 C 846.46 788.50 845.50 772.09 845.98 757.03 C 846.46 741.96 845.55 717.26 845.93 701.08 C 846.31 684.89 845.74 659.90 845.20 645.25 C 844.66 630.60 833.73 622.43 822.00 622.00 M 674.00 650.00  C 695.07 666.54 715.65 695.63 740.00 713.00 C 748.28 701.92 758.32 696.16 768.25 685.25 C 778.18 674.34 786.49 669.38 796.75 656.75 C 807.01 644.13 822.31 658.01 810.25 669.25 C 798.19 680.48 792.55 687.41 781.75 697.75 C 770.96 708.10 765.14 717.82 753.00 726.00 C 761.59 736.63 770.33 745.62 781.25 755.75 C 792.17 765.89 798.26 772.28 809.92 783.08 C 821.57 793.88 807.64 808.44 797.70 797.30 C 787.76 786.15 778.54 778.79 768.75 768.25 C 758.96 757.70 748.82 749.65 740.00 739.00 C 729.39 748.26 719.98 756.17 710.25 767.25 C 700.51 778.33 690.64 784.27 681.25 796.25 C 671.87 808.24 655.46 794.29 666.75 783.75 C 678.04 773.22 685.35 764.98 695.75 754.75 C 706.15 744.52 715.16 736.16 726.00 727.00 C 716.45 719.32 710.42 709.24 700.75 701.25 C 691.09 693.26 683.37 684.02 673.92 676.08 C 664.47 668.14 654.80 651.63 674.00 650.00 Z"/>
</g>
<g fill="None" fill-opacity="0.0" stroke="#FFFFFF" stroke-opacity="0.08" stroke-width="0.3"><path d=" M 678.00 622.00  C 674.99 619.76 666.08 620.62 662.00 621.00 C 666.35 621.01 672.83 622.00 678.00 622.00 Z"/>
</g>
<g fill="None" fill-opacity="0.0" stroke="#FFFFFF" stroke-opacity="0.09" stroke-width="0.3"><path d=" M 679.00 622.00  C 685.67 622.00 692.33 622.00 699.00 622.00 C 694.46 621.38 683.30 618.82 679.00 622.00 Z"/>
</g>
<g fill="None" fill-opacity="0.0" stroke="#FFFFFF" stroke-opacity="0.09" stroke-width="0.3"><path d=" M 703.00 622.00  C 716.33 622.00 729.67 622.00 743.00 622.00 C 738.33 618.55 729.00 622.02 723.00 621.00 C 717.00 619.98 708.42 621.26 703.00 622.00 Z"/>
</g>
<g fill="None" fill-opacity="0.0" stroke="#FFFFFF" stroke-opacity="0.09" stroke-width="0.3"><path d=" M 744.00 622.00  C 754.33 622.00 764.67 622.00 775.00 622.00 C 768.44 621.37 749.87 617.65 744.00 622.00 Z"/>
</g>
<g fill="None" fill-opacity="0.0" stroke="#FFFFFF" stroke-opacity="0.09" stroke-width="0.3"><path d=" M 798.00 622.00  C 805.98 622.00 814.02 621.71 822.00 622.00 C 814.52 620.76 805.52 621.27 798.00 622.00 Z"/>
</g>
<g fill="None" fill-opacity="0.0" stroke="#000000" stroke-opacity="0.98" stroke-width="0.3"><path d=" M 674.00 650.00  C 654.80 651.63 664.47 668.14 673.92 676.08 C 683.37 684.02 691.09 693.26 700.75 701.25 C 710.42 709.24 716.45 719.32 726.00 727.00 C 715.16 736.16 706.15 744.52 695.75 754.75 C 685.35 764.98 678.04 773.22 666.75 783.75 C 655.46 794.29 671.87 808.24 681.25 796.25 C 690.64 784.27 700.51 778.33 710.25 767.25 C 719.98 756.17 729.39 748.26 740.00 739.00 C 748.82 749.65 758.96 757.70 768.75 768.25 C 778.54 778.79 787.76 786.15 797.70 797.30 C 807.64 808.44 821.57 793.88 809.92 783.08 C 798.26 772.28 792.17 765.89 781.25 755.75 C 770.33 745.62 761.59 736.63 753.00 726.00 C 765.14 717.82 770.96 708.10 781.75 697.75 C 792.55 687.41 798.19 680.48 810.25 669.25 C 822.31 658.01 807.01 644.13 796.75 656.75 C 786.49 669.38 778.18 674.34 768.25 685.25 C 758.32 696.16 748.28 701.92 740.00 713.00 C 715.65 695.63 695.07 666.54 674.00 650.00 Z"/>
</g>
<g fill="#000000" fill-opacity="0.00" stroke="None">
<path d=" M 0.00 1024.00  L 1024.00 1024.00 L 1024.00 0.00 L 0.00 0.00 L 0.00 1024.00 M 428.00 150.00  C 442.58 149.19 461.89 151.08 476.00 150.00 C 490.11 148.92 491.33 160.62 491.99 172.01 C 492.65 183.40 491.08 184.79 491.00 192.00 C 507.13 192.01 523.94 191.99 540.00 192.00 C 556.06 192.01 574.29 191.98 590.00 192.00 C 605.71 192.02 604.31 203.20 604.00 218.00 C 603.69 232.80 604.14 252.28 604.00 268.00 C 603.86 283.72 604.05 300.83 604.00 317.00 C 603.95 333.17 604.00 350.62 604.00 367.00 C 604.00 383.38 603.95 400.61 604.00 417.00 C 604.05 433.39 603.88 450.79 604.00 467.00 C 604.12 483.21 603.96 498.39 604.00 515.00 C 634.47 516.51 657.54 523.61 677.75 537.39 C 697.96 551.18 718.28 576.54 726.00 600.00 C 718.46 598.28 709.47 599.31 701.00 599.00 C 704.29 600.80 700.97 601.57 699.00 600.00 C 696.20 592.50 692.08 585.53 686.74 578.26 C 681.40 570.98 674.29 565.36 668.10 559.90 C 661.90 554.44 653.97 551.57 647.75 547.81 C 641.52 544.05 636.30 543.22 627.92 540.94 C 619.54 538.65 610.02 538.17 600.75 538.80 C 591.49 539.43 585.46 540.96 577.75 543.76 C 570.05 546.56 565.91 549.33 557.92 554.92 C 549.92 560.50 547.23 569.69 540.70 574.70 C 534.17 579.71 524.60 576.98 521.74 570.25 C 518.88 563.51 510.33 557.62 504.32 552.68 C 498.30 547.74 492.51 545.49 484.75 542.81 C 477.00 540.12 471.59 538.82 461.75 538.20 C 451.91 537.57 439.72 538.87 432.32 540.66 C 424.92 542.45 418.27 544.69 410.70 548.70 C 403.14 552.72 393.18 556.61 386.90 562.90 C 380.62 569.20 371.66 578.02 368.22 585.22 C 364.79 592.43 361.60 595.33 359.74 602.75 C 357.87 610.18 355.55 616.75 355.20 625.25 C 354.85 633.74 355.45 645.69 356.20 653.25 C 356.95 660.80 359.88 667.87 361.39 675.75 C 362.91 683.63 366.77 689.60 368.92 697.08 C 371.07 704.56 374.73 710.54 377.58 716.77 C 380.42 723.00 383.96 729.97 388.13 736.92 C 392.30 743.86 397.66 752.42 402.92 759.08 C 408.18 765.75 412.84 774.03 418.97 780.03 C 425.10 786.03 432.94 794.27 438.90 800.10 C 444.87 805.93 452.24 810.17 458.89 815.11 C 465.55 820.04 471.07 821.14 477.75 824.59 C 484.43 828.04 494.53 829.46 503.22 828.22 C 511.91 826.98 514.12 825.51 521.75 821.61 C 529.39 817.71 539.17 824.00 545.00 824.00 C 544.33 829.02 555.26 828.66 561.00 829.00 C 566.75 829.34 572.34 827.42 577.75 825.41 C 583.16 823.40 587.37 822.31 593.08 819.07 C 598.80 815.82 604.14 810.08 610.00 806.00 C 610.78 817.03 612.51 827.35 621.00 834.00 C 595.27 851.96 557.62 864.53 527.00 846.00 C 511.45 861.46 483.14 856.92 464.75 849.20 C 446.36 841.48 424.83 828.14 409.00 808.00 C 398.49 809.99 388.05 808.76 377.00 809.00 C 365.95 809.24 354.20 808.89 343.00 809.00 C 331.80 809.11 320.25 808.95 309.00 809.00 C 297.75 809.05 286.25 808.97 275.00 809.00 C 263.75 809.03 252.20 808.97 241.00 809.00 C 229.80 809.03 218.07 808.95 207.00 809.00 C 195.93 809.05 183.75 808.89 173.00 809.00 C 162.25 809.11 149.04 808.76 139.00 809.00 C 128.96 809.24 122.19 808.43 117.43 801.23 C 112.67 794.03 117.06 784.50 116.00 774.00 C 114.94 763.50 116.48 750.96 116.00 740.00 C 115.52 729.04 116.22 717.16 116.00 706.00 C 115.78 694.84 116.10 683.26 116.00 672.00 C 115.90 660.74 116.04 649.30 116.00 638.00 C 115.96 626.70 116.02 615.32 116.00 604.00 C 115.98 592.68 116.01 581.33 116.00 570.00 C 115.99 558.67 116.00 547.33 116.00 536.00 C 116.00 524.67 116.00 513.33 116.00 502.00 C 116.00 490.67 116.00 479.33 116.00 468.00 C 116.00 456.67 115.99 445.32 116.00 434.00 C 116.01 422.68 115.99 411.31 116.00 400.00 C 116.01 388.69 115.97 377.29 116.00 366.00 C 116.03 354.71 115.94 343.24 116.00 332.00 C 116.06 320.76 115.86 309.13 116.00 298.00 C 116.14 286.87 115.70 274.89 116.00 264.00 C 116.30 253.11 115.76 241.03 115.02 230.98 C 114.29 220.92 114.24 209.07 116.64 201.30 C 119.05 193.54 123.00 191.61 132.00 192.00 C 141.01 192.38 156.37 192.39 166.00 192.00 C 175.63 191.61 190.88 193.41 200.00 192.00 C 209.12 190.59 226.39 196.76 230.97 188.97 C 235.54 181.17 226.82 165.89 232.26 158.25 C 237.71 150.61 240.92 147.96 252.00 150.00 C 263.08 152.04 273.93 147.43 286.00 150.00 C 298.07 152.57 296.77 141.73 297.19 134.75 C 297.62 127.77 301.86 122.85 304.70 116.70 C 307.55 110.56 312.51 104.25 318.90 98.90 C 325.29 93.55 330.93 90.56 338.25 87.81 C 345.57 85.06 349.94 83.91 358.03 83.98 C 366.11 84.05 374.02 83.57 380.25 85.80 C 386.47 88.03 394.48 91.31 400.30 95.70 C 406.11 100.10 414.31 105.92 417.70 112.30 C 421.10 118.67 423.66 123.28 425.59 129.75 C 427.52 136.22 427.99 143.03 428.00 150.00 M 609.00 804.00  C 613.95 797.15 611.39 785.84 612.00 777.00 C 612.61 768.16 611.21 757.55 611.61 749.25 C 612.00 740.94 611.68 731.52 611.67 723.33 C 611.66 715.13 612.16 704.73 611.93 696.92 C 611.70 689.12 611.42 684.98 611.60 677.25 C 611.79 669.51 611.78 657.01 612.00 648.00 C 612.22 638.99 613.40 634.78 616.26 628.25 C 619.13 621.71 624.29 615.68 631.08 611.08 C 637.86 606.47 643.85 603.69 652.67 602.67 C 661.50 601.66 673.54 602.08 684.00 602.00 C 694.46 601.92 707.15 602.11 718.00 602.00 C 728.85 601.89 742.20 602.21 753.00 602.00 C 763.80 601.79 776.75 602.46 787.00 602.00 C 797.25 601.54 811.40 602.62 820.07 602.93 C 828.75 603.23 833.88 604.38 841.03 607.97 C 848.17 611.57 852.52 617.05 857.32 623.68 C 862.12 630.31 863.75 632.70 864.39 641.75 C 865.04 650.80 865.00 662.52 865.00 673.00 C 865.00 683.48 864.91 696.27 865.00 707.00 C 865.09 717.73 865.34 726.42 865.00 737.00 C 864.66 747.58 865.30 760.69 865.00 771.00 C 864.70 781.31 865.92 790.71 865.78 800.22 C 865.64 809.73 863.81 814.43 861.88 820.90 C 859.96 827.37 855.71 834.12 849.92 838.92 C 844.13 843.72 836.39 848.10 828.92 849.92 C 821.44 851.74 816.32 851.19 806.00 851.00 C 795.68 850.81 782.83 851.04 772.00 851.00 C 761.17 850.96 749.01 850.91 738.00 851.00 C 726.99 851.09 713.86 850.73 703.00 851.00 C 692.14 851.27 679.25 850.35 669.00 851.00 C 658.75 851.65 653.16 851.21 645.30 848.69 C 637.45 846.17 633.64 843.90 626.92 839.08 C 620.20 834.25 618.76 826.90 615.61 822.25 C 612.45 817.59 614.32 805.06 609.00 804.00 Z"/>
</g>
<g fill="#000000" fill-opacity="0.98" stroke="None">
<path d=" M 428.00 150.00  C 427.99 143.03 427.52 136.22 425.59 129.75 C 423.66 123.28 421.10 118.67 417.70 112.30 C 414.31 105.92 406.11 100.10 400.30 95.70 C 394.48 91.31 386.47 88.03 380.25 85.80 C 374.02 83.57 366.11 84.05 358.03 83.98 C 349.94 83.91 345.57 85.06 338.25 87.81 C 330.93 90.56 325.29 93.55 318.90 98.90 C 312.51 104.25 307.55 110.56 304.70 116.70 C 301.86 122.85 297.62 127.77 297.19 134.75 C 296.77 141.73 298.07 152.57 286.00 150.00 C 273.93 147.43 263.08 152.04 252.00 150.00 C 240.92 147.96 237.71 150.61 232.26 158.25 C 226.82 165.89 235.54 181.17 230.97 188.97 C 226.39 196.76 209.12 190.59 200.00 192.00 C 190.88 193.41 175.63 191.61 166.00 192.00 C 156.37 192.39 141.01 192.38 132.00 192.00 C 123.00 191.61 119.05 193.54 116.64 201.30 C 114.24 209.07 114.29 220.92 115.02 230.98 C 115.76 241.03 116.30 253.11 116.00 264.00 C 115.70 274.89 116.14 286.87 116.00 298.00 C 115.86 309.13 116.06 320.76 116.00 332.00 C 115.94 343.24 116.03 354.71 116.00 366.00 C 115.97 377.29 116.01 388.69 116.00 400.00 C 115.99 411.31 116.01 422.68 116.00 434.00 C 115.99 445.32 116.00 456.67 116.00 468.00 C 116.00 479.33 116.00 490.67 116.00 502.00 C 116.00 513.33 116.00 524.67 116.00 536.00 C 116.00 547.33 115.99 558.67 116.00 570.00 C 116.01 581.33 115.98 592.68 116.00 604.00 C 116.02 615.32 115.96 626.70 116.00 638.00 C 116.04 649.30 115.90 660.74 116.00 672.00 C 116.10 683.26 115.78 694.84 116.00 706.00 C 116.22 717.16 115.52 729.04 116.00 740.00 C 116.48 750.96 114.94 763.50 116.00 774.00 C 117.06 784.50 112.67 794.03 117.43 801.23 C 122.19 808.43 128.96 809.24 139.00 809.00 C 149.04 808.76 162.25 809.11 173.00 809.00 C 183.75 808.89 195.93 809.05 207.00 809.00 C 218.07 808.95 229.80 809.03 241.00 809.00 C 252.20 808.97 263.75 809.03 275.00 809.00 C 286.25 808.97 297.75 809.05 309.00 809.00 C 320.25 808.95 331.80 809.11 343.00 809.00 C 354.20 808.89 365.95 809.24 377.00 809.00 C 388.05 808.76 398.49 809.99 409.00 808.00 C 424.83 828.14 446.36 841.48 464.75 849.20 C 483.14 856.92 511.45 861.46 527.00 846.00 C 557.62 864.53 595.27 851.96 621.00 834.00 C 612.51 827.35 610.78 817.03 610.00 806.00 C 604.14 810.08 598.80 815.82 593.08 819.07 C 587.37 822.31 583.16 823.40 577.75 825.41 C 572.34 827.42 566.75 829.34 561.00 829.00 C 555.26 828.66 544.33 829.02 545.00 824.00 C 539.17 824.00 529.39 817.71 521.75 821.61 C 514.12 825.51 511.91 826.98 503.22 828.22 C 494.53 829.46 484.43 828.04 477.75 824.59 C 471.07 821.14 465.55 820.04 458.89 815.11 C 452.24 810.17 444.87 805.93 438.90 800.10 C 432.94 794.27 425.10 786.03 418.97 780.03 C 412.84 774.03 408.18 765.75 402.92 759.08 C 397.66 752.42 392.30 743.86 388.13 736.92 C 383.96 729.97 380.42 723.00 377.58 716.77 C 374.73 710.54 371.07 704.56 368.92 697.08 C 366.77 689.60 362.91 683.63 361.39 675.75 C 359.88 667.87 356.95 660.80 356.20 653.25 C 355.45 645.69 354.85 633.74 355.20 625.25 C 355.55 616.75 357.87 610.18 359.74 602.75 C 361.60 595.33 364.79 592.43 368.22 585.22 C 371.66 578.02 380.62 569.20 386.90 562.90 C 393.18 556.61 403.14 552.72 410.70 548.70 C 418.27 544.69 424.92 542.45 432.32 540.66 C 439.72 538.87 451.91 537.57 461.75 538.20 C 471.59 538.82 477.00 540.12 484.75 542.81 C 492.51 545.49 498.30 547.74 504.32 552.68 C 510.33 557.62 518.88 563.51 521.74 570.25 C 524.60 576.98 534.17 579.71 540.70 574.70 C 547.23 569.69 549.92 560.50 557.92 554.92 C 565.91 549.33 570.05 546.56 577.75 543.76 C 585.46 540.96 591.49 539.43 600.75 538.80 C 610.02 538.17 619.54 538.65 627.92 540.94 C 636.30 543.22 641.52 544.05 647.75 547.81 C 653.97 551.57 661.90 554.44 668.10 559.90 C 674.29 565.36 681.40 570.98 686.74 578.26 C 692.08 585.53 696.20 592.50 699.00 600.00 C 700.97 601.57 704.29 600.80 701.00 599.00 C 709.47 599.31 718.46 598.28 726.00 600.00 C 718.28 576.54 697.96 551.18 677.75 537.39 C 657.54 523.61 634.47 516.51 604.00 515.00 C 603.96 498.39 604.12 483.21 604.00 467.00 C 603.88 450.79 604.05 433.39 604.00 417.00 C 603.95 400.61 604.00 383.38 604.00 367.00 C 604.00 350.62 603.95 333.17 604.00 317.00 C 604.05 300.83 603.86 283.72 604.00 268.00 C 604.14 252.28 603.69 232.80 604.00 218.00 C 604.31 203.20 605.71 192.02 590.00 192.00 C 574.29 191.98 556.06 192.01 540.00 192.00 C 523.94 191.99 507.13 192.01 491.00 192.00 C 491.08 184.79 492.65 183.40 491.99 172.01 C 491.33 160.62 490.11 148.92 476.00 150.00 C 461.89 151.08 442.58 149.19 428.00 150.00 M 465.00 175.00  C 463.41 196.18 464.42 217.71 465.00 238.00 C 395.67 238.00 326.33 238.00 257.00 238.00 C 257.29 218.44 256.79 195.83 257.00 175.00 C 266.84 172.86 282.80 175.32 292.08 174.07 C 301.35 172.82 315.19 178.19 321.10 170.10 C 327.01 162.00 320.61 150.49 322.93 140.92 C 325.26 131.35 330.89 123.20 338.25 117.20 C 345.61 111.20 354.02 109.47 363.56 109.78 C 373.10 110.09 377.68 111.37 386.25 117.75 C 394.82 124.12 399.12 131.28 401.32 141.68 C 403.53 152.07 396.10 162.22 402.13 169.92 C 408.16 177.61 423.31 173.22 433.25 174.20 C 443.18 175.17 455.48 173.45 465.00 175.00 M 581.00 217.00  C 581.00 317.67 581.00 418.33 581.00 519.00 C 569.13 521.41 555.12 528.64 545.00 537.00 C 545.78 520.13 543.96 500.61 545.00 484.00 C 546.04 467.39 543.05 445.55 545.00 430.00 C 546.95 414.45 543.06 398.31 527.25 404.26 C 511.43 410.22 524.26 436.18 520.00 449.00 C 508.73 434.15 494.68 423.16 476.75 421.20 C 458.82 419.24 440.86 420.17 425.75 427.20 C 410.65 434.23 419.77 456.03 428.32 468.68 C 436.87 481.34 452.95 498.28 467.77 503.58 C 482.59 508.87 504.27 513.84 520.00 504.00 C 519.33 515.17 521.33 527.66 519.00 538.00 C 478.41 501.07 412.01 511.69 372.92 542.92 C 333.82 574.15 321.70 621.13 332.59 667.75 C 343.48 714.37 360.69 745.40 388.00 783.00 C 361.58 783.40 338.12 782.14 313.75 782.20 C 289.39 782.26 265.10 783.17 236.00 783.00 C 206.90 782.83 168.05 783.11 139.00 783.00 C 139.00 594.34 139.00 405.67 139.00 217.00 C 169.32 217.75 200.05 218.07 231.00 217.00 C 231.54 237.75 224.76 265.38 250.00 264.00 C 275.24 262.62 300.06 264.46 325.00 264.00 C 349.94 263.54 374.30 263.81 399.00 264.00 C 423.70 264.19 449.62 263.08 474.00 264.00 C 498.38 264.92 490.71 236.92 492.00 217.00 C 521.53 217.96 551.80 217.93 581.00 217.00 M 514.00 483.00  C 486.64 490.36 455.01 472.68 446.00 445.00 C 477.10 441.80 504.52 454.67 514.00 483.00 Z"/>
</g>
<g fill="#000000" fill-opacity="0.01" stroke="None">
<path d=" M 465.00 175.00  C 455.48 173.45 443.18 175.17 433.25 174.20 C 423.31 173.22 408.16 177.61 402.13 169.92 C 396.10 162.22 403.53 152.07 401.32 141.68 C 399.12 131.28 394.82 124.12 386.25 117.75 C 377.68 111.37 373.10 110.09 363.56 109.78 C 354.02 109.47 345.61 111.20 338.25 117.20 C 330.89 123.20 325.26 131.35 322.93 140.92 C 320.61 150.49 327.01 162.00 321.10 170.10 C 315.19 178.19 301.35 172.82 292.08 174.07 C 282.80 175.32 266.84 172.86 257.00 175.00 C 256.79 195.83 257.29 218.44 257.00 238.00 C 326.33 238.00 395.67 238.00 465.00 238.00 C 464.42 217.71 463.41 196.18 465.00 175.00 Z"/>
</g>
<g fill="#000000" fill-opacity="0.01" stroke="None">
<path d=" M 581.00 217.00  C 551.80 217.93 521.53 217.96 492.00 217.00 C 490.71 236.92 498.38 264.92 474.00 264.00 C 449.62 263.08 423.70 264.19 399.00 264.00 C 374.30 263.81 349.94 263.54 325.00 264.00 C 300.06 264.46 275.24 262.62 250.00 264.00 C 224.76 265.38 231.54 237.75 231.00 217.00 C 200.05 218.07 169.32 217.75 139.00 217.00 C 139.00 405.67 139.00 594.34 139.00 783.00 C 168.05 783.11 206.90 782.83 236.00 783.00 C 265.10 783.17 289.39 782.26 313.75 782.20 C 338.12 782.14 361.58 783.40 388.00 783.00 C 360.69 745.40 343.48 714.37 332.59 667.75 C 321.70 621.13 333.82 574.15 372.92 542.92 C 412.01 511.69 478.41 501.07 519.00 538.00 C 521.33 527.66 519.33 515.17 520.00 504.00 C 504.27 513.84 482.59 508.87 467.77 503.58 C 452.95 498.28 436.87 481.34 428.32 468.68 C 419.77 456.03 410.65 434.23 425.75 427.20 C 440.86 420.17 458.82 419.24 476.75 421.20 C 494.68 423.16 508.73 434.15 520.00 449.00 C 524.26 436.18 511.43 410.22 527.25 404.26 C 543.06 398.31 546.95 414.45 545.00 430.00 C 543.05 445.55 546.04 467.39 545.00 484.00 C 543.96 500.61 545.78 520.13 545.00 537.00 C 555.12 528.64 569.13 521.41 581.00 519.00 C 581.00 418.33 581.00 317.67 581.00 217.00 M 416.00 349.00  C 428.00 349.00 440.00 349.00 452.00 349.00 C 458.73 348.04 466.83 348.31 474.00 349.00 C 487.59 349.00 514.50 345.48 524.68 351.32 C 534.87 357.16 529.39 376.40 514.00 374.00 C 498.60 371.61 475.00 375.13 458.00 374.00 C 441.00 372.87 420.65 374.57 403.00 374.00 C 385.35 373.43 364.72 374.41 347.00 374.00 C 329.28 373.59 308.16 374.52 291.00 374.00 C 273.84 373.48 251.64 375.00 236.00 374.00 C 220.36 373.00 200.63 380.41 197.74 364.25 C 194.84 348.08 213.28 348.00 229.00 349.00 C 244.72 350.00 266.73 348.57 284.00 349.00 C 301.27 349.43 322.06 348.84 340.00 349.00 C 357.94 349.16 377.88 349.00 396.00 349.00 C 402.20 348.11 409.38 348.36 416.00 349.00 M 208.00 456.00  C 226.21 454.95 250.25 457.40 269.00 457.00 C 287.75 456.60 313.56 455.60 331.00 457.00 C 348.44 458.40 372.13 448.96 374.93 467.08 C 377.74 485.20 352.46 482.41 335.00 482.00 C 317.54 481.59 291.56 481.56 273.00 482.00 C 254.44 482.44 229.27 480.41 211.00 482.00 C 192.73 483.59 194.70 456.77 208.00 456.00 M 206.00 562.00  C 216.09 558.85 232.31 563.60 244.00 562.00 C 255.69 560.40 272.65 563.13 284.00 562.00 C 295.35 560.87 304.83 564.43 303.66 575.68 C 302.49 586.92 289.14 588.04 278.00 587.00 C 266.86 585.96 249.25 587.96 238.00 587.00 C 226.75 586.04 211.12 589.52 202.32 584.68 C 193.53 579.84 197.58 564.63 206.00 562.00 Z"/>
</g>
<g fill="#EFEFEF" fill-opacity="0.03" stroke="None">
<path d=" M 396.00 349.00  C 402.67 349.00 409.33 349.00 416.00 349.00 C 409.38 348.36 402.20 348.11 396.00 349.00 Z"/>
</g>
<g fill="#FFFFFF" fill-opacity="0.04" stroke="None">
<path d=" M 452.00 349.00  C 459.33 349.00 466.67 349.00 474.00 349.00 C 466.83 348.31 458.73 348.04 452.00 349.00 Z"/>
</g>
<g fill="#000000" fill-opacity="0.99" stroke="None">
<path d=" M 474.00 349.00  C 466.67 349.00 459.33 349.00 452.00 349.00 C 440.00 349.00 428.00 349.00 416.00 349.00 C 409.33 349.00 402.67 349.00 396.00 349.00 C 377.88 349.00 357.94 349.16 340.00 349.00 C 322.06 348.84 301.27 349.43 284.00 349.00 C 266.73 348.57 244.72 350.00 229.00 349.00 C 213.28 348.00 194.84 348.08 197.74 364.25 C 200.63 380.41 220.36 373.00 236.00 374.00 C 251.64 375.00 273.84 373.48 291.00 374.00 C 308.16 374.52 329.28 373.59 347.00 374.00 C 364.72 374.41 385.35 373.43 403.00 374.00 C 420.65 374.57 441.00 372.87 458.00 374.00 C 475.00 375.13 498.60 371.61 514.00 374.00 C 529.39 376.40 534.87 357.16 524.68 351.32 C 514.50 345.48 487.59 349.00 474.00 349.00 Z"/>
</g>
<g fill="#000000" fill-opacity="0.02" stroke="None">
<path d=" M 514.00 483.00  C 504.52 454.67 477.10 441.80 446.00 445.00 C 455.01 472.68 486.64 490.36 514.00 483.00 Z"/>
</g>
<g fill="#000000" fill-opacity="0.99" stroke="None">
<path d=" M 208.00 456.00  C 194.70 456.77 192.73 483.59 211.00 482.00 C 229.27 480.41 254.44 482.44 273.00 482.00 C 291.56 481.56 317.54 481.59 335.00 482.00 C 352.46 482.41 377.74 485.20 374.93 467.08 C 372.13 448.96 348.44 458.40 331.00 457.00 C 313.56 455.60 287.75 456.60 269.00 457.00 C 250.25 457.40 226.21 454.95 208.00 456.00 Z"/>
</g>
<g fill="#000000" fill-opacity="0.99" stroke="None">
<path d=" M 206.00 562.00  C 197.58 564.63 193.53 579.84 202.32 584.68 C 211.12 589.52 226.75 586.04 238.00 587.00 C 249.25 587.96 266.86 585.96 278.00 587.00 C 289.14 588.04 302.49 586.92 303.66 575.68 C 304.83 564.43 295.35 560.87 284.00 562.00 C 272.65 563.13 255.69 560.40 244.00 562.00 C 232.31 563.60 216.09 558.85 206.00 562.00 Z"/>
</g>
<g fill="#000000" fill-opacity="0.98" stroke="None">
<path d=" M 609.00 804.00  C 614.32 805.06 612.45 817.59 615.61 822.25 C 618.76 826.90 620.20 834.25 626.92 839.08 C 633.64 843.90 637.45 846.17 645.30 848.69 C 653.16 851.21 658.75 851.65 669.00 851.00 C 679.25 850.35 692.14 851.27 703.00 851.00 C 713.86 850.73 726.99 851.09 738.00 851.00 C 749.01 850.91 761.17 850.96 772.00 851.00 C 782.83 851.04 795.68 850.81 806.00 851.00 C 816.32 851.19 821.44 851.74 828.92 849.92 C 836.39 848.10 844.13 843.72 849.92 838.92 C 855.71 834.12 859.96 827.37 861.88 820.90 C 863.81 814.43 865.64 809.73 865.78 800.22 C 865.92 790.71 864.70 781.31 865.00 771.00 C 865.30 760.69 864.66 747.58 865.00 737.00 C 865.34 726.42 865.09 717.73 865.00 707.00 C 864.91 696.27 865.00 683.48 865.00 673.00 C 865.00 662.52 865.04 650.80 864.39 641.75 C 863.75 632.70 862.12 630.31 857.32 623.68 C 852.52 617.05 848.17 611.57 841.03 607.97 C 833.88 604.38 828.75 603.23 820.07 602.93 C 811.40 602.62 797.25 601.54 787.00 602.00 C 776.75 602.46 763.80 601.79 753.00 602.00 C 742.20 602.21 728.85 601.89 718.00 602.00 C 707.15 602.11 694.46 601.92 684.00 602.00 C 673.54 602.08 661.50 601.66 652.67 602.67 C 643.85 603.69 637.86 606.47 631.08 611.08 C 624.29 615.68 619.13 621.71 616.26 628.25 C 613.40 634.78 612.22 638.99 612.00 648.00 C 611.78 657.01 611.79 669.51 611.60 677.25 C 611.42 684.98 611.70 689.12 611.93 696.92 C 612.16 704.73 611.66 715.13 611.67 723.33 C 611.68 731.52 612.00 740.94 611.61 749.25 C 611.21 757.55 612.61 768.16 612.00 777.00 C 611.39 785.84 613.95 797.15 609.00 804.00 M 662.00 621.00  C 666.08 620.62 674.99 619.76 678.00 622.00 C 678.50 622.00 679.00 622.00 679.00 622.00 C 683.30 618.82 694.46 621.38 699.00 622.00 C 700.33 622.00 701.67 622.00 703.00 622.00 C 708.42 621.26 717.00 619.98 723.00 621.00 C 729.00 622.02 738.33 618.55 743.00 622.00 C 743.50 622.00 744.00 622.00 744.00 622.00 C 749.87 617.65 768.44 621.37 775.00 622.00 C 782.67 622.00 790.33 622.00 798.00 622.00 C 805.52 621.27 814.52 620.76 822.00 622.00 C 833.73 622.43 844.66 630.60 845.20 645.25 C 845.74 659.90 846.31 684.89 845.93 701.08 C 845.55 717.26 846.46 741.96 845.98 757.03 C 845.50 772.09 846.46 788.50 846.00 804.00 C 845.54 819.50 838.62 828.49 822.75 831.19 C 806.89 833.90 778.06 833.35 758.00 833.00 C 737.94 832.65 709.62 834.01 689.00 833.00 C 668.38 831.99 655.22 835.62 642.08 825.91 C 628.94 816.20 630.86 795.37 631.00 776.00 C 631.14 756.63 631.00 727.80 631.00 708.00 C 631.00 688.20 630.40 659.07 632.71 642.71 C 635.01 626.34 646.59 622.45 662.00 621.00 Z"/>
</g>
<g fill="#000000" fill-opacity="0.02" stroke="None">
<path d=" M 822.00 622.00  C 814.02 621.71 805.98 622.00 798.00 622.00 C 790.33 622.00 782.67 622.00 775.00 622.00 C 764.67 622.00 754.33 622.00 744.00 622.00 C 744.00 622.00 743.50 622.00 743.00 622.00 C 729.67 622.00 716.33 622.00 703.00 622.00 C 701.67 622.00 700.33 622.00 699.00 622.00 C 692.33 622.00 685.67 622.00 679.00 622.00 C 679.00 622.00 678.50 622.00 678.00 622.00 C 672.83 622.00 666.35 621.01 662.00 621.00 C 646.59 622.45 635.01 626.34 632.71 642.71 C 630.40 659.07 631.00 688.20 631.00 708.00 C 631.00 727.80 631.14 756.63 631.00 776.00 C 630.86 795.37 628.94 816.20 642.08 825.91 C 655.22 835.62 668.38 831.99 689.00 833.00 C 709.62 834.01 737.94 832.65 758.00 833.00 C 778.06 833.35 806.89 833.90 822.75 831.19 C 838.62 828.49 845.54 819.50 846.00 804.00 C 846.46 788.50 845.50 772.09 845.98 757.03 C 846.46 741.96 845.55 717.26 845.93 701.08 C 846.31 684.89 845.74 659.90 845.20 645.25 C 844.66 630.60 833.73 622.43 822.00 622.00 M 674.00 650.00  C 695.07 666.54 715.65 695.63 740.00 713.00 C 748.28 701.92 758.32 696.16 768.25 685.25 C 778.18 674.34 786.49 669.38 796.75 656.75 C 807.01 644.13 822.31 658.01 810.25 669.25 C 798.19 680.48 792.55 687.41 781.75 697.75 C 770.96 708.10 765.14 717.82 753.00 726.00 C 761.59 736.63 770.33 745.62 781.25 755.75 C 792.17 765.89 798.26 772.28 809.92 783.08 C 821.57 793.88 807.64 808.44 797.70 797.30 C 787.76 786.15 778.54 778.79 768.75 768.25 C 758.96 757.70 748.82 749.65 740.00 739.00 C 729.39 748.26 719.98 756.17 710.25 767.25 C 700.51 778.33 690.64 784.27 681.25 796.25 C 671.87 808.24 655.46 794.29 666.75 783.75 C 678.04 773.22 685.35 764.98 695.75 754.75 C 706.15 744.52 715.16 736.16 726.00 727.00 C 716.45 719.32 710.42 709.24 700.75 701.25 C 691.09 693.26 683.37 684.02 673.92 676.08 C 664.47 668.14 654.80 651.63 674.00 650.00 Z"/>
</g>
<g fill="#FFFFFF" fill-opacity="0.08" stroke="None">
<path d=" M 678.00 622.00  C 674.99 619.76 666.08 620.62 662.00 621.00 C 666.35 621.01 672.83 622.00 678.00 622.00 Z"/>
</g>
<g fill="#FFFFFF" fill-opacity="0.09" stroke="None">
<path d=" M 679.00 622.00  C 685.67 622.00 692.33 622.00 699.00 622.00 C 694.46 621.38 683.30 618.82 679.00 622.00 Z"/>
</g>
<g fill="#FFFFFF" fill-opacity="0.09" stroke="None">
<path d=" M 703.00 622.00  C 716.33 622.00 729.67 622.00 743.00 622.00 C 738.33 618.55 729.00 622.02 723.00 621.00 C 717.00 619.98 708.42 621.26 703.00 622.00 Z"/>
</g>
<g fill="#FFFFFF" fill-opacity="0.09" stroke="None">
<path d=" M 744.00 622.00  C 754.33 622.00 764.67 622.00 775.00 622.00 C 768.44 621.37 749.87 617.65 744.00 622.00 Z"/>
</g>
<g fill="#FFFFFF" fill-opacity="0.09" stroke="None">
<path d=" M 798.00 622.00  C 805.98 622.00 814.02 621.71 822.00 622.00 C 814.52 620.76 805.52 621.27 798.00 622.00 Z"/>
</g>
<g fill="#000000" fill-opacity="0.98" stroke="None">
<path d=" M 674.00 650.00  C 654.80 651.63 664.47 668.14 673.92 676.08 C 683.37 684.02 691.09 693.26 700.75 701.25 C 710.42 709.24 716.45 719.32 726.00 727.00 C 715.16 736.16 706.15 744.52 695.75 754.75 C 685.35 764.98 678.04 773.22 666.75 783.75 C 655.46 794.29 671.87 808.24 681.25 796.25 C 690.64 784.27 700.51 778.33 710.25 767.25 C 719.98 756.17 729.39 748.26 740.00 739.00 C 748.82 749.65 758.96 757.70 768.75 768.25 C 778.54 778.79 787.76 786.15 797.70 797.30 C 807.64 808.44 821.57 793.88 809.92 783.08 C 798.26 772.28 792.17 765.89 781.25 755.75 C 770.33 745.62 761.59 736.63 753.00 726.00 C 765.14 717.82 770.96 708.10 781.75 697.75 C 792.55 687.41 798.19 680.48 810.25 669.25 C 822.31 658.01 807.01 644.13 796.75 656.75 C 786.49 669.38 778.18 674.34 768.25 685.25 C 758.32 696.16 748.28 701.92 740.00 713.00 C 715.65 695.63 695.07 666.54 674.00 650.00 Z"/>
</g>
</svg>
