<svg xmlns="http://www.w3.org/2000/svg" xmlns:v="https://svgstorm.com"
viewBox = "0 0 1024 1024"
width="1024"
height="1024">
<g fill="None" fill-opacity="0.0" stroke="#000000" stroke-opacity="0.00" stroke-width="0.3"><path d="
M 0.00 1024.00 
L 1024.00 1024.00
L 1024.00 0.00
L 0.00 0.00
L 0.00 1024.00
M 408.00 484.00 
C 398.83 473.57 385.28 467.02 374.75 455.25 C 364.22 443.47 354.95 433.91 347.25 419.75 C 339.55 405.60 333.65 390.30 330.00 374.00 C 326.36 357.70 323.59 334.14 326.00 317.00 C 328.41 299.86 331.81 281.75 338.78 266.78 C 345.74 251.81 351.88 240.24 361.92 227.92 C 371.95 215.59 381.13 206.30 393.75 196.75 C 406.38 187.21 419.01 180.26 434.22 174.22 C 449.44 168.19 468.78 163.94 486.00 163.00 C 503.22 162.06 526.36 165.10 542.02 169.98 C 557.69 174.85 572.24 180.83 585.70 189.30 C 599.15 197.78 608.32 205.94 619.75 217.25 C 631.18 228.56 638.02 239.82 646.31 253.70 C 654.59 267.57 659.89 282.86 663.78 299.22 C 667.67 315.58 668.24 339.12 666.00 356.00 C 663.76 372.89 659.04 390.36 652.08 405.08 C 645.11 419.79 638.42 431.04 628.25 443.25 C 618.08 455.45 608.50 464.62 595.77 473.77 C 583.04 482.92 569.76 490.04 554.78 495.78 C 539.79 501.52 520.32 505.07 504.33 506.33 C 488.34 507.59 468.21 504.62 452.00 501.00 C 435.79 497.38 422.74 487.48 408.00 484.00
M 675.00 582.00 
C 685.26 583.35 693.15 595.47 702.23 600.77 C 711.31 606.07 718.10 616.16 726.75 623.25 C 735.40 630.34 740.03 641.96 752.02 643.98 C 764.02 645.99 760.89 668.69 764.00 677.00
C 769.09 680.51 776.95 680.09 781.68 684.32 C 786.41 688.56 797.24 682.22 789.00 681.00
C 796.84 681.08 801.84 676.75 808.25 671.25 C 814.65 665.74 822.30 674.59 826.75 680.25 C 831.20 685.91 837.54 690.10 841.75 696.25 C 845.96 702.40 838.62 709.51 833.70 715.70 C 828.78 721.88 824.08 727.52 827.98 736.03 C 831.87 744.53 835.06 750.55 843.67 751.33 C 852.28 752.11 865.54 752.75 865.99 761.01 C 866.44 769.27 868.14 785.14 866.00 793.00 C 863.86 800.86 851.48 800.02 843.00 801.00 C 834.52 801.98 830.33 808.63 827.03 817.03 C 823.72 825.42 828.28 829.36 833.25 835.75 C 838.22 842.14 845.34 848.92 840.25 855.25 C 835.15 861.57 828.97 865.74 824.10 871.10 C 819.23 876.46 813.56 882.87 806.30 877.70 C 799.04 872.52 795.30 868.48 787.77 864.23 C 780.24 859.98 771.79 870.40 764.00 870.00
C 762.36 881.41 760.64 892.83 758.00 904.00
C 747.50 900.80 728.48 903.47 713.00 902.00
C 710.12 892.30 708.27 882.20 707.00 872.00
C 703.01 870.65 702.29 869.35 695.32 866.68 C 688.36 864.01 688.58 861.88 680.92 865.92 C 673.25 869.96 663.69 883.34 654.75 878.25 C 645.82 873.15 641.55 861.32 631.00 861.00
C 609.18 860.05 588.12 861.00 566.00 861.00
C 553.65 861.00 541.36 861.00 529.00 861.00 C 516.64 861.00 504.38 861.00 492.00 861.00 C 479.62 861.00 467.43 861.00 455.00 861.00 C 442.57 861.00 429.42 860.99 417.00 861.00 C 404.58 861.01 392.35 860.98 380.00 861.00 C 367.65 861.02 355.30 860.96 343.00 861.00 C 330.70 861.04 318.22 860.90 306.00 861.00 C 293.78 861.10 279.96 860.79 268.00 861.00 C 256.04 861.21 242.29 860.53 231.00 861.00 C 219.71 861.47 211.40 858.70 204.25 850.75 C 197.10 842.80 194.63 833.00 194.22 822.78 C 193.81 812.56 195.22 802.50 195.78 791.78 C 196.34 781.06 198.41 769.24 200.00 759.00 C 201.58 748.76 205.07 739.34 207.78 729.78 C 210.48 720.21 213.57 710.41 217.78 701.78 C 221.99 693.14 225.28 684.98 229.92 676.92 C 234.56 668.87 239.26 661.82 244.30 654.30 C 249.34 646.78 254.93 640.69 260.75 633.75 C 266.57 626.81 272.73 620.32 279.08 614.08 C 285.44 607.84 291.84 602.39 298.75 596.75 C 305.66 591.10 312.52 586.13 320.23 581.23 C 327.94 576.33 335.79 571.54 344.23 567.23 C 352.67 562.92 360.95 559.57 370.02 556.03 C 379.10 552.48 388.11 549.45 398.01 547.01 C 407.91 544.56 418.29 542.18 429.00 541.00 C 439.71 539.82 452.65 537.32 464.00 538.00 C 475.35 538.68 489.07 537.31 499.74 537.40 C 510.41 537.50 522.75 538.11 534.00 538.00 C 545.25 537.89 555.63 539.68 566.01 540.99 C 576.39 542.31 588.45 544.42 598.01 546.99 C 607.56 549.56 617.35 552.62 625.69 556.31 C 634.04 560.00 644.63 562.49 651.23 567.77 C 657.83 573.05 671.72 574.42 675.00 582.00 Z"/>
</g>
<g fill="None" fill-opacity="0.0" stroke="#FEFEFE" stroke-opacity="0.82" stroke-width="0.3"><path d="
M 408.00 484.00 
C 422.74 487.48 435.79 497.38 452.00 501.00 C 468.21 504.62 488.34 507.59 504.33 506.33 C 520.32 505.07 539.79 501.52 554.78 495.78 C 569.76 490.04 583.04 482.92 595.77 473.77 C 608.50 464.62 618.08 455.45 628.25 443.25 C 638.42 431.04 645.11 419.79 652.08 405.08 C 659.04 390.36 663.76 372.89 666.00 356.00 C 668.24 339.12 667.67 315.58 663.78 299.22 C 659.89 282.86 654.59 267.57 646.31 253.70 C 638.02 239.82 631.18 228.56 619.75 217.25 C 608.32 205.94 599.15 197.78 585.70 189.30 C 572.24 180.83 557.69 174.85 542.02 169.98 C 526.36 165.10 503.22 162.06 486.00 163.00 C 468.78 163.94 449.44 168.19 434.22 174.22 C 419.01 180.26 406.38 187.21 393.75 196.75 C 381.13 206.30 371.95 215.59 361.92 227.92 C 351.88 240.24 345.74 251.81 338.78 266.78 C 331.81 281.75 328.41 299.86 326.00 317.00 C 323.59 334.14 326.36 357.70 330.00 374.00 C 333.65 390.30 339.55 405.60 347.25 419.75 C 354.95 433.91 364.22 443.47 374.75 455.25 C 385.28 467.02 398.83 473.57 408.00 484.00
M 510.00 165.00 
C 600.14 173.72 671.85 255.35 665.07 347.07 C 658.30 438.79 576.05 510.44 483.78 504.22 C 391.51 498.00 320.46 413.92 327.00 322.00 C 333.54 230.08 416.45 155.95 510.00 165.00 Z"/>
</g>
<g fill="None" fill-opacity="0.0" stroke="#000000" stroke-opacity="1.00" stroke-width="0.3"><path d="
M 510.00 165.00 
C 416.45 155.95 333.54 230.08 327.00 322.00 C 320.46 413.92 391.51 498.00 483.78 504.22 C 576.05 510.44 658.30 438.79 665.07 347.07 C 671.85 255.35 600.14 173.72 510.00 165.00 Z"/>
</g>
<g fill="None" fill-opacity="0.0" stroke="#FFFFFF" stroke-opacity="0.81" stroke-width="0.3"><path d="
M 566.00 861.00 
C 565.96 861.00 566.00 860.00 566.00 860.00
C 537.22 860.00 508.82 860.14 480.00 860.00 C 451.18 859.86 421.85 860.38 393.00 860.00 C 364.15 859.62 334.79 860.87 306.00 860.00 C 277.21 859.13 251.05 862.20 223.00 859.00 C 194.95 855.81 195.37 822.42 197.00 800.00 C 198.63 777.57 202.85 747.27 210.31 726.31 C 217.76 705.35 225.75 684.98 237.92 666.92 C 250.09 648.85 260.16 634.14 275.75 618.75 C 291.35 603.37 305.64 592.02 324.23 580.23 C 342.82 568.44 361.51 559.33 383.68 552.68 C 405.85 546.02 431.73 539.72 457.00 540.00 C 482.27 540.28 518.73 539.15 544.00 540.00 C 569.27 540.85 593.72 547.42 616.22 554.78 C 638.73 562.14 655.25 570.77 675.00 583.00
C 674.75 582.78 675.00 582.00 675.00 582.00
C 671.72 574.42 657.83 573.05 651.23 567.77 C 644.63 562.49 634.04 560.00 625.69 556.31 C 617.35 552.62 607.56 549.56 598.01 546.99 C 588.45 544.42 576.39 542.31 566.01 540.99 C 555.63 539.68 545.25 537.89 534.00 538.00 C 522.75 538.11 510.41 537.50 499.74 537.40 C 489.07 537.31 475.35 538.68 464.00 538.00 C 452.65 537.32 439.71 539.82 429.00 541.00 C 418.29 542.18 407.91 544.56 398.01 547.01 C 388.11 549.45 379.10 552.48 370.02 556.03 C 360.95 559.57 352.67 562.92 344.23 567.23 C 335.79 571.54 327.94 576.33 320.23 581.23 C 312.52 586.13 305.66 591.10 298.75 596.75 C 291.84 602.39 285.44 607.84 279.08 614.08 C 272.73 620.32 266.57 626.81 260.75 633.75 C 254.93 640.69 249.34 646.78 244.30 654.30 C 239.26 661.82 234.56 668.87 229.92 676.92 C 225.28 684.98 221.99 693.14 217.78 701.78 C 213.57 710.41 210.48 720.21 207.78 729.78 C 205.07 739.34 201.58 748.76 200.00 759.00 C 198.41 769.24 196.34 781.06 195.78 791.78 C 195.22 802.50 193.81 812.56 194.22 822.78 C 194.63 833.00 197.10 842.80 204.25 850.75 C 211.40 858.70 219.71 861.47 231.00 861.00 C 242.29 860.53 256.04 861.21 268.00 861.00 C 279.96 860.79 293.78 861.10 306.00 861.00 C 318.22 860.90 330.70 861.04 343.00 861.00 C 355.30 860.96 367.65 861.02 380.00 861.00 C 392.35 860.98 404.58 861.01 417.00 861.00 C 429.42 860.99 442.57 861.00 455.00 861.00 C 467.43 861.00 479.62 861.00 492.00 861.00 C 504.38 861.00 516.64 861.00 529.00 861.00 C 541.36 861.00 553.65 861.00 566.00 861.00 Z"/>
</g>
<g fill="None" fill-opacity="0.0" stroke="#000000" stroke-opacity="1.00" stroke-width="0.3"><path d="
M 566.00 860.00 
C 585.08 860.00 605.00 858.33 624.00 860.00
C 626.20 859.79 630.93 858.90 633.00 858.00
C 619.43 854.56 625.70 841.42 633.92 834.92 C 642.14 828.41 643.24 815.62 635.07 807.93 C 626.91 800.23 609.62 805.78 600.00 800.00
C 599.35 785.09 601.31 769.47 599.00 755.00
C 607.67 747.22 624.63 753.46 633.22 746.22 C 641.82 738.99 641.32 725.04 634.25 717.75 C 627.17 710.46 618.94 700.06 627.75 692.75 C 636.57 685.45 641.05 679.23 649.25 671.25 C 657.44 663.27 666.39 670.49 675.08 677.92 C 683.76 685.36 694.17 677.98 704.00 674.00
C 707.15 665.26 703.95 653.09 708.99 644.99 C 714.04 636.89 732.99 644.85 741.00 642.00
C 722.61 619.28 699.86 598.93 675.00 583.00
C 655.25 570.77 638.73 562.14 616.22 554.78 C 593.72 547.42 569.27 540.85 544.00 540.00 C 518.73 539.15 482.27 540.28 457.00 540.00 C 431.73 539.72 405.85 546.02 383.68 552.68 C 361.51 559.33 342.82 568.44 324.23 580.23 C 305.64 592.02 291.35 603.37 275.75 618.75 C 260.16 634.14 250.09 648.85 237.92 666.92 C 225.75 684.98 217.76 705.35 210.31 726.31 C 202.85 747.27 198.63 777.57 197.00 800.00 C 195.37 822.42 194.95 855.81 223.00 859.00 C 251.05 862.20 277.21 859.13 306.00 860.00 C 334.79 860.87 364.15 859.62 393.00 860.00 C 421.85 860.38 451.18 859.86 480.00 860.00 C 508.82 860.14 537.22 860.00 566.00 860.00 Z"/>
</g>
<g fill="None" fill-opacity="0.0" stroke="#FEFEFE" stroke-opacity="0.91" stroke-width="0.3"><path d="
M 675.00 583.00 
C 699.86 598.93 722.61 619.28 741.00 642.00
C 732.99 644.85 714.04 636.89 708.99 644.99 C 703.95 653.09 707.15 665.26 704.00 674.00
C 694.17 677.98 683.76 685.36 675.08 677.92 C 666.39 670.49 657.44 663.27 649.25 671.25 C 641.05 679.23 636.57 685.45 627.75 692.75 C 618.94 700.06 627.17 710.46 634.25 717.75 C 641.32 725.04 641.82 738.99 633.22 746.22 C 624.63 753.46 607.67 747.22 599.00 755.00
C 601.31 769.47 599.35 785.09 600.00 800.00
C 609.62 805.78 626.91 800.23 635.07 807.93 C 643.24 815.62 642.14 828.41 633.92 834.92 C 625.70 841.42 619.43 854.56 633.00 858.00
C 630.93 858.90 626.20 859.79 624.00 860.00
C 626.05 860.18 628.88 860.55 631.00 861.00
C 641.55 861.32 645.82 873.15 654.75 878.25 C 663.69 883.34 673.25 869.96 680.92 865.92 C 688.58 861.88 688.36 864.01 695.32 866.68 C 702.29 869.35 703.01 870.65 707.00 872.00
C 708.27 882.20 710.12 892.30 713.00 902.00
C 728.48 903.47 747.50 900.80 758.00 904.00
C 760.64 892.83 762.36 881.41 764.00 870.00
C 771.79 870.40 780.24 859.98 787.77 864.23 C 795.30 868.48 799.04 872.52 806.30 877.70 C 813.56 882.87 819.23 876.46 824.10 871.10 C 828.97 865.74 835.15 861.57 840.25 855.25 C 845.34 848.92 838.22 842.14 833.25 835.75 C 828.28 829.36 823.72 825.42 827.03 817.03 C 830.33 808.63 834.52 801.98 843.00 801.00 C 851.48 800.02 863.86 800.86 866.00 793.00 C 868.14 785.14 866.44 769.27 865.99 761.01 C 865.54 752.75 852.28 752.11 843.67 751.33 C 835.06 750.55 831.87 744.53 827.98 736.03 C 824.08 727.52 828.78 721.88 833.70 715.70 C 838.62 709.51 845.96 702.40 841.75 696.25 C 837.54 690.10 831.20 685.91 826.75 680.25 C 822.30 674.59 814.65 665.74 808.25 671.25 C 801.84 676.75 796.84 681.08 789.00 681.00
C 797.24 682.22 786.41 688.56 781.68 684.32 C 776.95 680.09 769.09 680.51 764.00 677.00
C 760.89 668.69 764.02 645.99 752.02 643.98 C 740.03 641.96 735.40 630.34 726.75 623.25 C 718.10 616.16 711.31 606.07 702.23 600.77 C 693.15 595.47 685.26 583.35 675.00 582.00
C 675.00 582.00 674.75 582.78 675.00 583.00
M 761.00 678.00 
C 767.82 682.03 774.44 683.48 781.23 687.77 C 788.02 692.06 794.72 684.84 800.70 680.70 C 806.68 676.55 811.88 669.07 818.25 675.75 C 824.61 682.44 827.08 685.63 833.30 691.70 C 839.52 697.77 841.33 703.40 834.70 709.70 C 828.06 716.00 827.72 721.54 821.00 727.00
C 827.00 732.92 824.88 746.88 832.25 751.75 C 839.62 756.61 854.85 754.15 863.00 758.00
C 863.00 770.00 863.00 782.00 863.00 794.00
C 852.49 796.53 841.97 799.14 831.00 800.00
C 826.90 808.86 820.29 820.99 824.25 828.75 C 828.22 836.51 842.91 845.61 838.23 853.23 C 833.55 860.85 823.25 868.52 816.25 874.25 C 809.25 879.98 798.68 868.45 790.92 863.08 C 783.16 857.71 770.51 865.14 761.00 868.00
C 761.69 877.86 757.67 883.37 757.22 893.22 C 756.77 903.08 742.68 899.88 735.00 900.00 C 727.32 900.12 713.71 902.63 713.07 892.93 C 712.43 883.23 710.13 877.29 709.00 868.00
C 698.51 865.80 687.54 856.57 678.92 863.92 C 670.29 871.27 661.29 880.78 652.92 873.08 C 644.54 865.38 638.33 858.29 631.00 850.00
C 638.10 842.29 643.79 832.59 651.00 825.00
C 648.53 817.48 644.20 814.96 642.08 806.92 C 639.95 798.89 631.48 798.08 623.78 797.22 C 616.08 796.37 604.48 797.16 606.00 787.00 C 607.52 776.84 604.86 768.95 606.00 759.00
C 614.67 755.45 629.73 757.28 637.67 752.67 C 645.61 748.06 642.78 732.81 650.00 727.00
C 643.49 721.13 643.01 715.16 636.25 708.75 C 629.49 702.35 632.86 695.93 639.75 690.75 C 646.64 685.58 650.02 679.61 656.00 674.00
C 661.28 677.23 667.39 680.57 672.23 684.77 C 677.07 688.97 685.35 693.22 690.23 687.23 C 695.11 681.24 706.06 685.31 709.25 678.25 C 712.43 671.19 712.76 663.62 713.93 654.93 C 715.10 646.23 726.48 647.24 735.00 648.00 C 743.52 648.76 756.15 644.47 757.00 654.00 C 757.85 663.54 761.05 668.56 761.00 678.00 Z"/>
</g>
<g fill="None" fill-opacity="0.0" stroke="#000000" stroke-opacity="1.00" stroke-width="0.3"><path d="
M 761.00 678.00 
C 761.05 668.56 757.85 663.54 757.00 654.00 C 756.15 644.47 743.52 648.76 735.00 648.00 C 726.48 647.24 715.10 646.23 713.93 654.93 C 712.76 663.62 712.43 671.19 709.25 678.25 C 706.06 685.31 695.11 681.24 690.23 687.23 C 685.35 693.22 677.07 688.97 672.23 684.77 C 667.39 680.57 661.28 677.23 656.00 674.00
C 650.02 679.61 646.64 685.58 639.75 690.75 C 632.86 695.93 629.49 702.35 636.25 708.75 C 643.01 715.16 643.49 721.13 650.00 727.00
C 642.78 732.81 645.61 748.06 637.67 752.67 C 629.73 757.28 614.67 755.45 606.00 759.00
C 604.86 768.95 607.52 776.84 606.00 787.00 C 604.48 797.16 616.08 796.37 623.78 797.22 C 631.48 798.08 639.95 798.89 642.08 806.92 C 644.20 814.96 648.53 817.48 651.00 825.00
C 643.79 832.59 638.10 842.29 631.00 850.00
C 638.33 858.29 644.54 865.38 652.92 873.08 C 661.29 880.78 670.29 871.27 678.92 863.92 C 687.54 856.57 698.51 865.80 709.00 868.00
C 710.13 877.29 712.43 883.23 713.07 892.93 C 713.71 902.63 727.32 900.12 735.00 900.00 C 742.68 899.88 756.77 903.08 757.22 893.22 C 757.67 883.37 761.69 877.86 761.00 868.00
C 770.51 865.14 783.16 857.71 790.92 863.08 C 798.68 868.45 809.25 879.98 816.25 874.25 C 823.25 868.52 833.55 860.85 838.23 853.23 C 842.91 845.61 828.22 836.51 824.25 828.75 C 820.29 820.99 826.90 808.86 831.00 800.00
C 841.97 799.14 852.49 796.53 863.00 794.00
C 863.00 782.00 863.00 770.00 863.00 758.00
C 854.85 754.15 839.62 756.61 832.25 751.75 C 824.88 746.88 827.00 732.92 821.00 727.00
C 827.72 721.54 828.06 716.00 834.70 709.70 C 841.33 703.40 839.52 697.77 833.30 691.70 C 827.08 685.63 824.61 682.44 818.25 675.75 C 811.88 669.07 806.68 676.55 800.70 680.70 C 794.72 684.84 788.02 692.06 781.23 687.77 C 774.44 683.48 767.82 682.03 761.00 678.00
M 813.00 684.00 
C 817.94 689.38 822.03 695.64 828.00 700.00
C 826.28 709.60 811.98 715.84 810.08 725.08 C 808.18 734.32 819.59 744.33 821.31 754.69 C 823.02 765.06 844.65 763.52 853.00 766.00
C 854.22 776.04 854.30 785.67 845.33 787.33 C 836.36 788.99 828.05 788.69 822.08 794.08 C 816.12 799.48 818.85 808.67 812.70 814.70 C 806.54 820.72 809.54 827.60 814.92 833.08 C 820.29 838.56 823.14 844.90 827.00 851.00
C 821.97 855.66 816.56 860.19 812.00 865.00
C 802.00 863.92 794.58 845.98 784.32 847.34 C 774.07 848.69 762.46 858.96 752.00 861.00
C 750.76 869.53 750.21 877.65 748.02 886.02 C 745.84 894.39 730.08 888.00 723.00 890.00
C 722.63 880.44 719.10 871.66 719.00 862.00
C 709.57 857.73 699.71 853.93 690.31 849.69 C 680.91 845.46 674.46 854.52 666.25 861.25 C 658.04 867.97 651.16 855.90 644.00 850.00
C 647.31 841.10 656.95 836.44 660.30 827.30 C 663.66 818.17 653.30 810.65 650.68 800.32 C 648.06 789.99 635.76 788.60 624.00 788.00 C 612.23 787.40 613.41 764.82 625.02 765.02 C 636.64 765.23 649.18 761.69 650.78 751.78 C 652.38 741.87 662.93 732.47 659.25 723.75 C 655.56 715.04 645.71 709.20 643.00 700.00
C 648.48 695.98 652.56 689.97 658.00 686.00
C 666.17 689.53 673.44 703.69 683.67 701.67 C 693.90 699.65 702.10 691.82 712.69 688.70 C 723.29 685.57 720.70 666.48 723.00 657.00
C 734.29 655.11 750.95 655.62 749.33 668.67 C 747.71 681.72 755.09 688.53 764.69 691.31 C 774.30 694.08 781.39 704.48 790.23 700.23 C 799.07 695.97 804.18 688.06 813.00 684.00 Z"/>
</g>
<g fill="None" fill-opacity="0.0" stroke="#FEFEFE" stroke-opacity="0.79" stroke-width="0.3"><path d="
M 813.00 684.00 
C 804.18 688.06 799.07 695.97 790.23 700.23 C 781.39 704.48 774.30 694.08 764.69 691.31 C 755.09 688.53 747.71 681.72 749.33 668.67 C 750.95 655.62 734.29 655.11 723.00 657.00
C 720.70 666.48 723.29 685.57 712.69 688.70 C 702.10 691.82 693.90 699.65 683.67 701.67 C 673.44 703.69 666.17 689.53 658.00 686.00
C 652.56 689.97 648.48 695.98 643.00 700.00
C 645.71 709.20 655.56 715.04 659.25 723.75 C 662.93 732.47 652.38 741.87 650.78 751.78 C 649.18 761.69 636.64 765.23 625.02 765.02 C 613.41 764.82 612.23 787.40 624.00 788.00 C 635.76 788.60 648.06 789.99 650.68 800.32 C 653.30 810.65 663.66 818.17 660.30 827.30 C 656.95 836.44 647.31 841.10 644.00 850.00
C 651.16 855.90 658.04 867.97 666.25 861.25 C 674.46 854.52 680.91 845.46 690.31 849.69 C 699.71 853.93 709.57 857.73 719.00 862.00
C 719.10 871.66 722.63 880.44 723.00 890.00
C 730.08 888.00 745.84 894.39 748.02 886.02 C 750.21 877.65 750.76 869.53 752.00 861.00
C 762.46 858.96 774.07 848.69 784.32 847.34 C 794.58 845.98 802.00 863.92 812.00 865.00
C 816.56 860.19 821.97 855.66 827.00 851.00
C 823.14 844.90 820.29 838.56 814.92 833.08 C 809.54 827.60 806.54 820.72 812.70 814.70 C 818.85 808.67 816.12 799.48 822.08 794.08 C 828.05 788.69 836.36 788.99 845.33 787.33 C 854.30 785.67 854.22 776.04 853.00 766.00
C 844.65 763.52 823.02 765.06 821.31 754.69 C 819.59 744.33 808.18 734.32 810.08 725.08 C 811.98 715.84 826.28 709.60 828.00 700.00
C 822.03 695.64 817.94 689.38 813.00 684.00
M 745.00 660.00 
C 747.37 669.35 745.99 688.61 757.07 690.93 C 768.16 693.24 775.53 704.19 786.03 704.98 C 796.52 705.76 803.04 689.28 813.00 688.00
C 821.27 695.16 824.96 701.76 818.25 709.25 C 811.53 716.73 804.14 724.15 808.30 732.70 C 812.46 741.24 819.30 750.48 818.00 760.00
C 825.84 762.77 829.90 766.46 839.22 766.78 C 848.55 767.10 852.87 773.48 850.00 784.00
C 843.08 783.93 837.73 787.88 830.78 787.78 C 823.82 787.68 819.41 792.61 816.00 795.00
C 820.33 805.10 802.75 816.90 805.93 826.08 C 809.11 835.26 821.06 840.96 823.00 851.00
C 819.55 853.82 807.90 867.09 808.00 856.00
C 800.38 858.51 792.65 845.38 784.00 843.00
C 777.77 848.76 769.90 850.81 760.98 853.98 C 752.05 857.14 745.33 862.75 747.02 875.02 C 748.72 887.30 736.54 889.15 726.00 887.00
C 722.63 879.35 724.64 867.56 720.68 860.32 C 716.72 853.08 701.94 857.31 701.00 848.00
C 698.46 854.70 687.33 840.20 680.92 845.92 C 674.52 851.65 677.11 848.90 673.00 848.00
C 674.31 853.18 667.28 857.60 662.30 860.30 C 657.33 863.00 652.38 851.46 648.00 850.00
C 652.88 843.24 654.81 837.31 661.25 831.25 C 667.69 825.19 663.37 817.01 658.23 810.77 C 653.08 804.54 654.99 792.83 646.92 789.08 C 638.85 785.34 627.56 786.59 619.00 784.00
C 618.97 778.54 618.50 774.35 619.00 769.00
C 626.59 768.85 632.39 765.55 640.01 765.01 C 647.63 764.46 651.48 760.15 653.32 753.32 C 655.17 746.50 656.13 741.26 660.75 735.75 C 665.38 730.25 660.88 722.62 664.00 720.00
C 654.19 719.35 652.88 705.40 647.00 702.00
C 649.30 696.94 654.72 694.41 657.00 690.00
C 666.52 692.57 673.60 707.67 684.67 704.67 C 695.74 701.67 702.78 694.65 714.22 691.22 C 725.67 687.80 723.01 669.71 726.00 660.00
C 732.33 660.00 738.67 660.00 745.00 660.00 Z"/>
</g>
<g fill="None" fill-opacity="0.0" stroke="#000000" stroke-opacity="0.00" stroke-width="0.3"><path d="
M 745.00 660.00 
C 738.67 660.00 732.33 660.00 726.00 660.00
C 723.01 669.71 725.67 687.80 714.22 691.22 C 702.78 694.65 695.74 701.67 684.67 704.67 C 673.60 707.67 666.52 692.57 657.00 690.00
C 654.72 694.41 649.30 696.94 647.00 702.00
C 652.88 705.40 654.19 719.35 664.00 720.00
C 660.88 722.62 665.38 730.25 660.75 735.75 C 656.13 741.26 655.17 746.50 653.32 753.32 C 651.48 760.15 647.63 764.46 640.01 765.01 C 632.39 765.55 626.59 768.85 619.00 769.00
C 618.50 774.35 618.97 778.54 619.00 784.00
C 627.56 786.59 638.85 785.34 646.92 789.08 C 654.99 792.83 653.08 804.54 658.23 810.77 C 663.37 817.01 667.69 825.19 661.25 831.25 C 654.81 837.31 652.88 843.24 648.00 850.00
C 652.38 851.46 657.33 863.00 662.30 860.30 C 667.28 857.60 674.31 853.18 673.00 848.00
C 677.11 848.90 674.52 851.65 680.92 845.92 C 687.33 840.20 698.46 854.70 701.00 848.00
C 701.94 857.31 716.72 853.08 720.68 860.32 C 724.64 867.56 722.63 879.35 726.00 887.00
C 736.54 889.15 748.72 887.30 747.02 875.02 C 745.33 862.75 752.05 857.14 760.98 853.98 C 769.90 850.81 777.77 848.76 784.00 843.00
C 792.65 845.38 800.38 858.51 808.00 856.00
C 807.90 867.09 819.55 853.82 823.00 851.00
C 821.06 840.96 809.11 835.26 805.93 826.08 C 802.75 816.90 820.33 805.10 816.00 795.00
C 819.41 792.61 823.82 787.68 830.78 787.78 C 837.73 787.88 843.08 783.93 850.00 784.00
C 852.87 773.48 848.55 767.10 839.22 766.78 C 829.90 766.46 825.84 762.77 818.00 760.00
C 819.30 750.48 812.46 741.24 808.30 732.70 C 804.14 724.15 811.53 716.73 818.25 709.25 C 824.96 701.76 821.27 695.16 813.00 688.00
C 803.04 689.28 796.52 705.76 786.03 704.98 C 775.53 704.19 768.16 693.24 757.07 690.93 C 745.99 688.61 747.37 669.35 745.00 660.00
M 743.00 709.00 
C 741.00 710.02 735.09 709.46 739.00 712.00
C 732.93 712.12 725.46 702.55 733.08 698.08 C 740.71 693.62 745.04 703.58 743.00 709.00
M 791.00 712.00 
C 785.15 717.15 800.20 723.30 790.25 729.25 C 780.30 735.21 776.12 717.21 786.00 717.00
C 782.82 715.67 786.10 714.37 786.00 712.00
C 787.51 715.12 789.45 714.86 791.00 712.00
M 688.00 717.00 
C 694.66 720.30 688.63 733.88 680.78 729.22 C 672.93 724.56 679.78 712.93 688.00 717.00
M 759.00 720.00 
C 763.01 725.26 774.21 730.75 781.77 741.23 C 789.33 751.71 794.51 765.78 793.00 780.00 C 791.49 794.22 785.78 804.49 775.75 814.75 C 765.73 825.01 754.94 827.32 743.00 830.00 C 731.05 832.68 716.44 826.52 704.00 824.00
C 700.88 816.37 688.81 809.44 685.25 800.75 C 681.69 792.07 681.21 792.06 680.00 785.00 C 678.80 777.93 677.46 772.87 679.00 767.00 C 680.54 761.13 679.45 751.72 682.00 756.00
C 683.47 750.90 686.00 745.56 690.00 742.00
C 688.51 739.62 688.71 737.05 686.00 735.00
C 689.21 738.85 698.15 737.67 696.00 731.00
C 701.24 731.16 705.29 726.23 712.08 723.08 C 718.86 719.92 728.00 718.22 736.00 718.00 C 744.00 717.78 753.09 722.26 759.00 720.00
M 806.00 768.00 
C 813.45 766.43 821.11 778.71 811.92 781.92 C 802.72 785.13 800.19 772.41 806.00 768.00
M 665.00 769.00 
C 672.93 771.37 667.86 785.44 659.92 782.07 C 651.98 778.70 656.14 766.35 665.00 769.00
M 791.00 816.00 
C 789.22 820.61 795.66 824.12 792.23 829.23 C 788.80 834.33 781.53 833.64 780.08 826.92 C 778.63 820.21 788.73 818.83 791.00 816.00
M 687.00 819.00 
C 694.16 821.68 689.83 835.63 681.78 832.22 C 673.72 828.81 677.53 815.45 687.00 819.00
M 738.00 855.00 
C 734.10 854.15 731.97 850.41 729.00 849.00
C 729.13 842.99 734.33 837.28 740.23 841.77 C 746.13 846.27 740.59 852.05 738.00 855.00 Z"/>
</g>
<g fill="None" fill-opacity="0.0" stroke="#FFFFFF" stroke-opacity="0.68" stroke-width="0.3"><path d="
M 743.00 709.00 
C 745.04 703.58 740.71 693.62 733.08 698.08 C 725.46 702.55 732.93 712.12 739.00 712.00
C 735.09 709.46 741.00 710.02 743.00 709.00
M 739.00 700.00 
C 742.71 702.42 738.42 709.60 734.33 706.67 C 730.24 703.74 735.06 697.43 739.00 700.00 Z"/>
</g>
<g fill="None" fill-opacity="0.0" stroke="#000000" stroke-opacity="0.99" stroke-width="0.3"><path d="
M 739.00 700.00 
C 735.06 697.43 730.24 703.74 734.33 706.67 C 738.42 709.60 742.71 702.42 739.00 700.00 Z"/>
</g>
<g fill="None" fill-opacity="0.0" stroke="#F0F0F0" stroke-opacity="0.63" stroke-width="0.3"><path d="
M 791.00 712.00 
C 789.45 714.86 787.51 715.12 786.00 712.00
C 786.10 714.37 782.82 715.67 786.00 717.00
C 776.12 717.21 780.30 735.21 790.25 729.25 C 800.20 723.30 785.15 717.15 791.00 712.00
M 788.00 719.00 
C 792.98 720.01 791.49 728.80 786.00 727.00 C 780.51 725.19 783.55 718.09 788.00 719.00 Z"/>
</g>
<g fill="None" fill-opacity="0.0" stroke="#FFFFFF" stroke-opacity="0.74" stroke-width="0.3"><path d="
M 688.00 717.00 
C 679.78 712.93 672.93 724.56 680.78 729.22 C 688.63 733.88 694.66 720.30 688.00 717.00
M 685.00 719.00 
C 689.81 719.98 688.15 728.35 682.99 726.99 C 677.83 725.63 680.26 718.04 685.00 719.00 Z"/>
</g>
<g fill="None" fill-opacity="0.0" stroke="#FCFCFC" stroke-opacity="0.78" stroke-width="0.3"><path d="
M 759.00 720.00 
C 753.09 722.26 744.00 717.78 736.00 718.00 C 728.00 718.22 718.86 719.92 712.08 723.08 C 705.29 726.23 701.24 731.16 696.00 731.00
C 698.15 737.67 689.21 738.85 686.00 735.00
C 688.71 737.05 688.51 739.62 690.00 742.00
C 686.00 745.56 683.47 750.90 682.00 756.00
C 679.45 751.72 680.54 761.13 679.00 767.00 C 677.46 772.87 678.80 777.93 680.00 785.00 C 681.21 792.06 681.69 792.07 685.25 800.75 C 688.81 809.44 700.88 816.37 704.00 824.00
C 716.44 826.52 731.05 832.68 743.00 830.00 C 754.94 827.32 765.73 825.01 775.75 814.75 C 785.78 804.49 791.49 794.22 793.00 780.00 C 794.51 765.78 789.33 751.71 781.77 741.23 C 774.21 730.75 763.01 725.26 759.00 720.00
M 744.00 721.00 
C 783.24 726.61 803.74 776.60 778.25 807.25 C 752.76 837.89 704.38 832.88 686.70 796.31 C 669.01 759.73 702.24 715.03 744.00 721.00 Z"/>
</g>
<g fill="None" fill-opacity="0.0" stroke="#000000" stroke-opacity="0.99" stroke-width="0.3"><path d="
M 685.00 719.00 
C 680.26 718.04 677.83 725.63 682.99 726.99 C 688.15 728.35 689.81 719.98 685.00 719.00 Z"/>
</g>
<g fill="None" fill-opacity="0.0" stroke="#000000" stroke-opacity="0.99" stroke-width="0.3"><path d="
M 788.00 719.00 
C 783.55 718.09 780.51 725.19 786.00 727.00 C 791.49 728.80 792.98 720.01 788.00 719.00 Z"/>
</g>
<g fill="None" fill-opacity="0.0" stroke="#000000" stroke-opacity="1.00" stroke-width="0.3"><path d="
M 744.00 721.00 
C 702.24 715.03 669.01 759.73 686.70 796.31 C 704.38 832.88 752.76 837.89 778.25 807.25 C 803.74 776.60 783.24 726.61 744.00 721.00
M 743.00 729.00 
C 775.64 733.66 793.10 777.40 771.70 802.70 C 750.29 827.99 709.56 824.63 694.23 793.77 C 678.90 762.91 707.63 723.95 743.00 729.00 Z"/>
</g>
<g fill="None" fill-opacity="0.0" stroke="#FCFCFC" stroke-opacity="0.84" stroke-width="0.3"><path d="
M 743.00 729.00 
C 707.63 723.95 678.90 762.91 694.23 793.77 C 709.56 824.63 750.29 827.99 771.70 802.70 C 793.10 777.40 775.64 733.66 743.00 729.00
M 754.00 737.00 
C 743.97 732.99 732.56 731.73 722.00 735.00
C 731.15 729.99 745.67 731.01 754.00 737.00
M 721.00 735.00 
C 704.78 742.93 691.95 759.94 694.00 780.00
C 689.73 761.11 703.22 739.98 721.00 735.00
M 742.00 736.00 
C 769.61 740.48 783.80 776.02 765.75 797.75 C 747.71 819.49 712.50 815.87 700.23 789.77 C 687.96 763.67 712.99 731.29 742.00 736.00
M 775.00 762.00 
C 772.69 750.41 762.80 744.26 755.00 737.00
C 764.16 741.53 775.65 751.31 775.00 762.00
M 777.00 763.00 
C 782.55 783.48 771.41 806.47 751.92 813.92 C 732.44 821.38 707.98 813.51 699.00 795.00
C 709.44 811.18 732.65 820.38 752.22 812.22 C 771.80 804.06 779.72 782.36 777.00 763.00 Z"/>
</g>
<g fill="None" fill-opacity="0.0" stroke="#030303" stroke-opacity="0.00" stroke-width="0.3"><path d="
M 754.00 737.00 
C 745.67 731.01 731.15 729.99 722.00 735.00
C 732.56 731.73 743.97 732.99 754.00 737.00 Z"/>
</g>
<g fill="None" fill-opacity="0.0" stroke="#171717" stroke-opacity="0.05" stroke-width="0.3"><path d="
M 721.00 735.00 
C 703.22 739.98 689.73 761.11 694.00 780.00
C 691.95 759.94 704.78 742.93 721.00 735.00 Z"/>
</g>
<g fill="None" fill-opacity="0.0" stroke="#000000" stroke-opacity="1.00" stroke-width="0.3"><path d="
M 742.00 736.00 
C 712.99 731.29 687.96 763.67 700.23 789.77 C 712.50 815.87 747.71 819.49 765.75 797.75 C 783.80 776.02 769.61 740.48 742.00 736.00
M 736.00 744.00 
C 758.56 744.65 773.53 771.16 761.23 790.23 C 748.93 809.30 722.12 808.98 709.75 790.25 C 697.37 771.53 712.85 743.33 736.00 744.00 Z"/>
</g>
<g fill="None" fill-opacity="0.0" stroke="#2A2A2A" stroke-opacity="0.07" stroke-width="0.3"><path d="
M 775.00 762.00 
C 775.65 751.31 764.16 741.53 755.00 737.00
C 762.80 744.26 772.69 750.41 775.00 762.00 Z"/>
</g>
<g fill="None" fill-opacity="0.0" stroke="#FFFFFF" stroke-opacity="0.84" stroke-width="0.3"><path d="
M 736.00 744.00 
C 712.85 743.33 697.37 771.53 709.75 790.25 C 722.12 808.98 748.93 809.30 761.23 790.23 C 773.53 771.16 758.56 744.65 736.00 744.00
M 738.00 747.00 
C 758.13 748.67 770.23 774.07 757.75 790.75 C 745.26 807.43 719.84 803.67 711.08 785.92 C 702.31 768.18 716.93 745.25 738.00 747.00 Z"/>
</g>
<g fill="None" fill-opacity="0.0" stroke="#000000" stroke-opacity="0.00" stroke-width="0.3"><path d="
M 738.00 747.00 
C 716.93 745.25 702.31 768.18 711.08 785.92 C 719.84 803.67 745.26 807.43 757.75 790.75 C 770.23 774.07 758.13 748.67 738.00 747.00 Z"/>
</g>
<g fill="None" fill-opacity="0.0" stroke="#070707" stroke-opacity="0.03" stroke-width="0.3"><path d="
M 777.00 763.00 
C 779.72 782.36 771.80 804.06 752.22 812.22 C 732.65 820.38 709.44 811.18 699.00 795.00
C 707.98 813.51 732.44 821.38 751.92 813.92 C 771.41 806.47 782.55 783.48 777.00 763.00 Z"/>
</g>
<g fill="None" fill-opacity="0.0" stroke="#FFFFFF" stroke-opacity="0.73" stroke-width="0.3"><path d="
M 806.00 768.00 
C 800.19 772.41 802.72 785.13 811.92 781.92 C 821.11 778.71 813.45 766.43 806.00 768.00
M 811.00 772.00 
C 814.58 773.47 813.16 780.59 808.75 779.20 C 804.35 777.81 805.59 769.79 811.00 772.00 Z"/>
</g>
<g fill="None" fill-opacity="0.0" stroke="#FFFFFF" stroke-opacity="0.74" stroke-width="0.3"><path d="
M 665.00 769.00 
C 656.14 766.35 651.98 778.70 659.92 782.07 C 667.86 785.44 672.93 771.37 665.00 769.00
M 663.00 771.00 
C 667.62 771.83 666.78 780.03 661.75 779.20 C 656.72 778.36 657.72 770.05 663.00 771.00 Z"/>
</g>
<g fill="None" fill-opacity="0.0" stroke="#000000" stroke-opacity="0.99" stroke-width="0.3"><path d="
M 663.00 771.00 
C 657.72 770.05 656.72 778.36 661.75 779.20 C 666.78 780.03 667.62 771.83 663.00 771.00 Z"/>
</g>
<g fill="None" fill-opacity="0.0" stroke="#000000" stroke-opacity="0.99" stroke-width="0.3"><path d="
M 811.00 772.00 
C 805.59 769.79 804.35 777.81 808.75 779.20 C 813.16 780.59 814.58 773.47 811.00 772.00 Z"/>
</g>
<g fill="None" fill-opacity="0.0" stroke="#FBFBFB" stroke-opacity="0.68" stroke-width="0.3"><path d="
M 791.00 816.00 
C 788.73 818.83 778.63 820.21 780.08 826.92 C 781.53 833.64 788.80 834.33 792.23 829.23 C 795.66 824.12 789.22 820.61 791.00 816.00
M 788.00 821.00 
C 792.48 822.00 791.22 831.12 785.97 829.97 C 780.73 828.83 783.01 819.89 788.00 821.00 Z"/>
</g>
<g fill="None" fill-opacity="0.0" stroke="#FFFFFF" stroke-opacity="0.70" stroke-width="0.3"><path d="
M 687.00 819.00 
C 677.53 815.45 673.72 828.81 681.78 832.22 C 689.83 835.63 694.16 821.68 687.00 819.00
M 686.00 822.00 
C 690.10 823.81 687.53 831.24 682.77 829.21 C 678.01 827.19 680.56 819.59 686.00 822.00 Z"/>
</g>
<g fill="None" fill-opacity="0.0" stroke="#000000" stroke-opacity="0.99" stroke-width="0.3"><path d="
M 788.00 821.00 
C 783.01 819.89 780.73 828.83 785.97 829.97 C 791.22 831.12 792.48 822.00 788.00 821.00 Z"/>
</g>
<g fill="None" fill-opacity="0.0" stroke="#000000" stroke-opacity="1.00" stroke-width="0.3"><path d="
M 686.00 822.00 
C 680.56 819.59 678.01 827.19 682.77 829.21 C 687.53 831.24 690.10 823.81 686.00 822.00 Z"/>
</g>
<g fill="None" fill-opacity="0.0" stroke="#FFFFFF" stroke-opacity="0.68" stroke-width="0.3"><path d="
M 738.00 855.00 
C 740.59 852.05 746.13 846.27 740.23 841.77 C 734.33 837.28 729.13 842.99 729.00 849.00
C 731.97 850.41 734.10 854.15 738.00 855.00
M 738.00 843.00 
C 741.91 844.60 739.50 852.34 735.30 850.64 C 731.11 848.95 732.77 840.86 738.00 843.00 Z"/>
</g>
<g fill="None" fill-opacity="0.0" stroke="#000000" stroke-opacity="0.99" stroke-width="0.3"><path d="
M 738.00 843.00 
C 732.77 840.86 731.11 848.95 735.30 850.64 C 739.50 852.34 741.91 844.60 738.00 843.00 Z"/>
</g>
<g fill="None" fill-opacity="0.0" stroke="#FFFFFF" stroke-opacity="0.66" stroke-width="0.3"><path d="
M 566.00 861.00 
C 588.12 861.00 609.18 860.05 631.00 861.00
C 628.88 860.55 626.05 860.18 624.00 860.00
C 605.00 858.33 585.08 860.00 566.00 860.00
C 566.00 860.00 565.96 861.00 566.00 861.00 Z"/>
</g>
<g fill="#000000" fill-opacity="0.00" stroke="None">
<path d="
M 0.00 1024.00 
L 1024.00 1024.00
L 1024.00 0.00
L 0.00 0.00
L 0.00 1024.00
M 408.00 484.00 
C 398.83 473.57 385.28 467.02 374.75 455.25 C 364.22 443.47 354.95 433.91 347.25 419.75 C 339.55 405.60 333.65 390.30 330.00 374.00 C 326.36 357.70 323.59 334.14 326.00 317.00 C 328.41 299.86 331.81 281.75 338.78 266.78 C 345.74 251.81 351.88 240.24 361.92 227.92 C 371.95 215.59 381.13 206.30 393.75 196.75 C 406.38 187.21 419.01 180.26 434.22 174.22 C 449.44 168.19 468.78 163.94 486.00 163.00 C 503.22 162.06 526.36 165.10 542.02 169.98 C 557.69 174.85 572.24 180.83 585.70 189.30 C 599.15 197.78 608.32 205.94 619.75 217.25 C 631.18 228.56 638.02 239.82 646.31 253.70 C 654.59 267.57 659.89 282.86 663.78 299.22 C 667.67 315.58 668.24 339.12 666.00 356.00 C 663.76 372.89 659.04 390.36 652.08 405.08 C 645.11 419.79 638.42 431.04 628.25 443.25 C 618.08 455.45 608.50 464.62 595.77 473.77 C 583.04 482.92 569.76 490.04 554.78 495.78 C 539.79 501.52 520.32 505.07 504.33 506.33 C 488.34 507.59 468.21 504.62 452.00 501.00 C 435.79 497.38 422.74 487.48 408.00 484.00
M 675.00 582.00 
C 685.26 583.35 693.15 595.47 702.23 600.77 C 711.31 606.07 718.10 616.16 726.75 623.25 C 735.40 630.34 740.03 641.96 752.02 643.98 C 764.02 645.99 760.89 668.69 764.00 677.00
C 769.09 680.51 776.95 680.09 781.68 684.32 C 786.41 688.56 797.24 682.22 789.00 681.00
C 796.84 681.08 801.84 676.75 808.25 671.25 C 814.65 665.74 822.30 674.59 826.75 680.25 C 831.20 685.91 837.54 690.10 841.75 696.25 C 845.96 702.40 838.62 709.51 833.70 715.70 C 828.78 721.88 824.08 727.52 827.98 736.03 C 831.87 744.53 835.06 750.55 843.67 751.33 C 852.28 752.11 865.54 752.75 865.99 761.01 C 866.44 769.27 868.14 785.14 866.00 793.00 C 863.86 800.86 851.48 800.02 843.00 801.00 C 834.52 801.98 830.33 808.63 827.03 817.03 C 823.72 825.42 828.28 829.36 833.25 835.75 C 838.22 842.14 845.34 848.92 840.25 855.25 C 835.15 861.57 828.97 865.74 824.10 871.10 C 819.23 876.46 813.56 882.87 806.30 877.70 C 799.04 872.52 795.30 868.48 787.77 864.23 C 780.24 859.98 771.79 870.40 764.00 870.00
C 762.36 881.41 760.64 892.83 758.00 904.00
C 747.50 900.80 728.48 903.47 713.00 902.00
C 710.12 892.30 708.27 882.20 707.00 872.00
C 703.01 870.65 702.29 869.35 695.32 866.68 C 688.36 864.01 688.58 861.88 680.92 865.92 C 673.25 869.96 663.69 883.34 654.75 878.25 C 645.82 873.15 641.55 861.32 631.00 861.00
C 609.18 860.05 588.12 861.00 566.00 861.00
C 553.65 861.00 541.36 861.00 529.00 861.00 C 516.64 861.00 504.38 861.00 492.00 861.00 C 479.62 861.00 467.43 861.00 455.00 861.00 C 442.57 861.00 429.42 860.99 417.00 861.00 C 404.58 861.01 392.35 860.98 380.00 861.00 C 367.65 861.02 355.30 860.96 343.00 861.00 C 330.70 861.04 318.22 860.90 306.00 861.00 C 293.78 861.10 279.96 860.79 268.00 861.00 C 256.04 861.21 242.29 860.53 231.00 861.00 C 219.71 861.47 211.40 858.70 204.25 850.75 C 197.10 842.80 194.63 833.00 194.22 822.78 C 193.81 812.56 195.22 802.50 195.78 791.78 C 196.34 781.06 198.41 769.24 200.00 759.00 C 201.58 748.76 205.07 739.34 207.78 729.78 C 210.48 720.21 213.57 710.41 217.78 701.78 C 221.99 693.14 225.28 684.98 229.92 676.92 C 234.56 668.87 239.26 661.82 244.30 654.30 C 249.34 646.78 254.93 640.69 260.75 633.75 C 266.57 626.81 272.73 620.32 279.08 614.08 C 285.44 607.84 291.84 602.39 298.75 596.75 C 305.66 591.10 312.52 586.13 320.23 581.23 C 327.94 576.33 335.79 571.54 344.23 567.23 C 352.67 562.92 360.95 559.57 370.02 556.03 C 379.10 552.48 388.11 549.45 398.01 547.01 C 407.91 544.56 418.29 542.18 429.00 541.00 C 439.71 539.82 452.65 537.32 464.00 538.00 C 475.35 538.68 489.07 537.31 499.74 537.40 C 510.41 537.50 522.75 538.11 534.00 538.00 C 545.25 537.89 555.63 539.68 566.01 540.99 C 576.39 542.31 588.45 544.42 598.01 546.99 C 607.56 549.56 617.35 552.62 625.69 556.31 C 634.04 560.00 644.63 562.49 651.23 567.77 C 657.83 573.05 671.72 574.42 675.00 582.00 Z"/>
</g>
<g fill="#FEFEFE" fill-opacity="0.82" stroke="None">
<path d="
M 408.00 484.00 
C 422.74 487.48 435.79 497.38 452.00 501.00 C 468.21 504.62 488.34 507.59 504.33 506.33 C 520.32 505.07 539.79 501.52 554.78 495.78 C 569.76 490.04 583.04 482.92 595.77 473.77 C 608.50 464.62 618.08 455.45 628.25 443.25 C 638.42 431.04 645.11 419.79 652.08 405.08 C 659.04 390.36 663.76 372.89 666.00 356.00 C 668.24 339.12 667.67 315.58 663.78 299.22 C 659.89 282.86 654.59 267.57 646.31 253.70 C 638.02 239.82 631.18 228.56 619.75 217.25 C 608.32 205.94 599.15 197.78 585.70 189.30 C 572.24 180.83 557.69 174.85 542.02 169.98 C 526.36 165.10 503.22 162.06 486.00 163.00 C 468.78 163.94 449.44 168.19 434.22 174.22 C 419.01 180.26 406.38 187.21 393.75 196.75 C 381.13 206.30 371.95 215.59 361.92 227.92 C 351.88 240.24 345.74 251.81 338.78 266.78 C 331.81 281.75 328.41 299.86 326.00 317.00 C 323.59 334.14 326.36 357.70 330.00 374.00 C 333.65 390.30 339.55 405.60 347.25 419.75 C 354.95 433.91 364.22 443.47 374.75 455.25 C 385.28 467.02 398.83 473.57 408.00 484.00
M 510.00 165.00 
C 600.14 173.72 671.85 255.35 665.07 347.07 C 658.30 438.79 576.05 510.44 483.78 504.22 C 391.51 498.00 320.46 413.92 327.00 322.00 C 333.54 230.08 416.45 155.95 510.00 165.00 Z"/>
</g>
<g fill="#000000" fill-opacity="1.00" stroke="None">
<path d="
M 510.00 165.00 
C 416.45 155.95 333.54 230.08 327.00 322.00 C 320.46 413.92 391.51 498.00 483.78 504.22 C 576.05 510.44 658.30 438.79 665.07 347.07 C 671.85 255.35 600.14 173.72 510.00 165.00 Z"/>
</g>
<g fill="#FFFFFF" fill-opacity="0.81" stroke="None">
<path d="
M 566.00 861.00 
C 565.96 861.00 566.00 860.00 566.00 860.00
C 537.22 860.00 508.82 860.14 480.00 860.00 C 451.18 859.86 421.85 860.38 393.00 860.00 C 364.15 859.62 334.79 860.87 306.00 860.00 C 277.21 859.13 251.05 862.20 223.00 859.00 C 194.95 855.81 195.37 822.42 197.00 800.00 C 198.63 777.57 202.85 747.27 210.31 726.31 C 217.76 705.35 225.75 684.98 237.92 666.92 C 250.09 648.85 260.16 634.14 275.75 618.75 C 291.35 603.37 305.64 592.02 324.23 580.23 C 342.82 568.44 361.51 559.33 383.68 552.68 C 405.85 546.02 431.73 539.72 457.00 540.00 C 482.27 540.28 518.73 539.15 544.00 540.00 C 569.27 540.85 593.72 547.42 616.22 554.78 C 638.73 562.14 655.25 570.77 675.00 583.00
C 674.75 582.78 675.00 582.00 675.00 582.00
C 671.72 574.42 657.83 573.05 651.23 567.77 C 644.63 562.49 634.04 560.00 625.69 556.31 C 617.35 552.62 607.56 549.56 598.01 546.99 C 588.45 544.42 576.39 542.31 566.01 540.99 C 555.63 539.68 545.25 537.89 534.00 538.00 C 522.75 538.11 510.41 537.50 499.74 537.40 C 489.07 537.31 475.35 538.68 464.00 538.00 C 452.65 537.32 439.71 539.82 429.00 541.00 C 418.29 542.18 407.91 544.56 398.01 547.01 C 388.11 549.45 379.10 552.48 370.02 556.03 C 360.95 559.57 352.67 562.92 344.23 567.23 C 335.79 571.54 327.94 576.33 320.23 581.23 C 312.52 586.13 305.66 591.10 298.75 596.75 C 291.84 602.39 285.44 607.84 279.08 614.08 C 272.73 620.32 266.57 626.81 260.75 633.75 C 254.93 640.69 249.34 646.78 244.30 654.30 C 239.26 661.82 234.56 668.87 229.92 676.92 C 225.28 684.98 221.99 693.14 217.78 701.78 C 213.57 710.41 210.48 720.21 207.78 729.78 C 205.07 739.34 201.58 748.76 200.00 759.00 C 198.41 769.24 196.34 781.06 195.78 791.78 C 195.22 802.50 193.81 812.56 194.22 822.78 C 194.63 833.00 197.10 842.80 204.25 850.75 C 211.40 858.70 219.71 861.47 231.00 861.00 C 242.29 860.53 256.04 861.21 268.00 861.00 C 279.96 860.79 293.78 861.10 306.00 861.00 C 318.22 860.90 330.70 861.04 343.00 861.00 C 355.30 860.96 367.65 861.02 380.00 861.00 C 392.35 860.98 404.58 861.01 417.00 861.00 C 429.42 860.99 442.57 861.00 455.00 861.00 C 467.43 861.00 479.62 861.00 492.00 861.00 C 504.38 861.00 516.64 861.00 529.00 861.00 C 541.36 861.00 553.65 861.00 566.00 861.00 Z"/>
</g>
<g fill="#000000" fill-opacity="1.00" stroke="None">
<path d="
M 566.00 860.00 
C 585.08 860.00 605.00 858.33 624.00 860.00
C 626.20 859.79 630.93 858.90 633.00 858.00
C 619.43 854.56 625.70 841.42 633.92 834.92 C 642.14 828.41 643.24 815.62 635.07 807.93 C 626.91 800.23 609.62 805.78 600.00 800.00
C 599.35 785.09 601.31 769.47 599.00 755.00
C 607.67 747.22 624.63 753.46 633.22 746.22 C 641.82 738.99 641.32 725.04 634.25 717.75 C 627.17 710.46 618.94 700.06 627.75 692.75 C 636.57 685.45 641.05 679.23 649.25 671.25 C 657.44 663.27 666.39 670.49 675.08 677.92 C 683.76 685.36 694.17 677.98 704.00 674.00
C 707.15 665.26 703.95 653.09 708.99 644.99 C 714.04 636.89 732.99 644.85 741.00 642.00
C 722.61 619.28 699.86 598.93 675.00 583.00
C 655.25 570.77 638.73 562.14 616.22 554.78 C 593.72 547.42 569.27 540.85 544.00 540.00 C 518.73 539.15 482.27 540.28 457.00 540.00 C 431.73 539.72 405.85 546.02 383.68 552.68 C 361.51 559.33 342.82 568.44 324.23 580.23 C 305.64 592.02 291.35 603.37 275.75 618.75 C 260.16 634.14 250.09 648.85 237.92 666.92 C 225.75 684.98 217.76 705.35 210.31 726.31 C 202.85 747.27 198.63 777.57 197.00 800.00 C 195.37 822.42 194.95 855.81 223.00 859.00 C 251.05 862.20 277.21 859.13 306.00 860.00 C 334.79 860.87 364.15 859.62 393.00 860.00 C 421.85 860.38 451.18 859.86 480.00 860.00 C 508.82 860.14 537.22 860.00 566.00 860.00 Z"/>
</g>
<g fill="#FEFEFE" fill-opacity="0.91" stroke="None">
<path d="
M 675.00 583.00 
C 699.86 598.93 722.61 619.28 741.00 642.00
C 732.99 644.85 714.04 636.89 708.99 644.99 C 703.95 653.09 707.15 665.26 704.00 674.00
C 694.17 677.98 683.76 685.36 675.08 677.92 C 666.39 670.49 657.44 663.27 649.25 671.25 C 641.05 679.23 636.57 685.45 627.75 692.75 C 618.94 700.06 627.17 710.46 634.25 717.75 C 641.32 725.04 641.82 738.99 633.22 746.22 C 624.63 753.46 607.67 747.22 599.00 755.00
C 601.31 769.47 599.35 785.09 600.00 800.00
C 609.62 805.78 626.91 800.23 635.07 807.93 C 643.24 815.62 642.14 828.41 633.92 834.92 C 625.70 841.42 619.43 854.56 633.00 858.00
C 630.93 858.90 626.20 859.79 624.00 860.00
C 626.05 860.18 628.88 860.55 631.00 861.00
C 641.55 861.32 645.82 873.15 654.75 878.25 C 663.69 883.34 673.25 869.96 680.92 865.92 C 688.58 861.88 688.36 864.01 695.32 866.68 C 702.29 869.35 703.01 870.65 707.00 872.00
C 708.27 882.20 710.12 892.30 713.00 902.00
C 728.48 903.47 747.50 900.80 758.00 904.00
C 760.64 892.83 762.36 881.41 764.00 870.00
C 771.79 870.40 780.24 859.98 787.77 864.23 C 795.30 868.48 799.04 872.52 806.30 877.70 C 813.56 882.87 819.23 876.46 824.10 871.10 C 828.97 865.74 835.15 861.57 840.25 855.25 C 845.34 848.92 838.22 842.14 833.25 835.75 C 828.28 829.36 823.72 825.42 827.03 817.03 C 830.33 808.63 834.52 801.98 843.00 801.00 C 851.48 800.02 863.86 800.86 866.00 793.00 C 868.14 785.14 866.44 769.27 865.99 761.01 C 865.54 752.75 852.28 752.11 843.67 751.33 C 835.06 750.55 831.87 744.53 827.98 736.03 C 824.08 727.52 828.78 721.88 833.70 715.70 C 838.62 709.51 845.96 702.40 841.75 696.25 C 837.54 690.10 831.20 685.91 826.75 680.25 C 822.30 674.59 814.65 665.74 808.25 671.25 C 801.84 676.75 796.84 681.08 789.00 681.00
C 797.24 682.22 786.41 688.56 781.68 684.32 C 776.95 680.09 769.09 680.51 764.00 677.00
C 760.89 668.69 764.02 645.99 752.02 643.98 C 740.03 641.96 735.40 630.34 726.75 623.25 C 718.10 616.16 711.31 606.07 702.23 600.77 C 693.15 595.47 685.26 583.35 675.00 582.00
C 675.00 582.00 674.75 582.78 675.00 583.00
M 761.00 678.00 
C 767.82 682.03 774.44 683.48 781.23 687.77 C 788.02 692.06 794.72 684.84 800.70 680.70 C 806.68 676.55 811.88 669.07 818.25 675.75 C 824.61 682.44 827.08 685.63 833.30 691.70 C 839.52 697.77 841.33 703.40 834.70 709.70 C 828.06 716.00 827.72 721.54 821.00 727.00
C 827.00 732.92 824.88 746.88 832.25 751.75 C 839.62 756.61 854.85 754.15 863.00 758.00
C 863.00 770.00 863.00 782.00 863.00 794.00
C 852.49 796.53 841.97 799.14 831.00 800.00
C 826.90 808.86 820.29 820.99 824.25 828.75 C 828.22 836.51 842.91 845.61 838.23 853.23 C 833.55 860.85 823.25 868.52 816.25 874.25 C 809.25 879.98 798.68 868.45 790.92 863.08 C 783.16 857.71 770.51 865.14 761.00 868.00
C 761.69 877.86 757.67 883.37 757.22 893.22 C 756.77 903.08 742.68 899.88 735.00 900.00 C 727.32 900.12 713.71 902.63 713.07 892.93 C 712.43 883.23 710.13 877.29 709.00 868.00
C 698.51 865.80 687.54 856.57 678.92 863.92 C 670.29 871.27 661.29 880.78 652.92 873.08 C 644.54 865.38 638.33 858.29 631.00 850.00
C 638.10 842.29 643.79 832.59 651.00 825.00
C 648.53 817.48 644.20 814.96 642.08 806.92 C 639.95 798.89 631.48 798.08 623.78 797.22 C 616.08 796.37 604.48 797.16 606.00 787.00 C 607.52 776.84 604.86 768.95 606.00 759.00
C 614.67 755.45 629.73 757.28 637.67 752.67 C 645.61 748.06 642.78 732.81 650.00 727.00
C 643.49 721.13 643.01 715.16 636.25 708.75 C 629.49 702.35 632.86 695.93 639.75 690.75 C 646.64 685.58 650.02 679.61 656.00 674.00
C 661.28 677.23 667.39 680.57 672.23 684.77 C 677.07 688.97 685.35 693.22 690.23 687.23 C 695.11 681.24 706.06 685.31 709.25 678.25 C 712.43 671.19 712.76 663.62 713.93 654.93 C 715.10 646.23 726.48 647.24 735.00 648.00 C 743.52 648.76 756.15 644.47 757.00 654.00 C 757.85 663.54 761.05 668.56 761.00 678.00 Z"/>
</g>
<g fill="#000000" fill-opacity="1.00" stroke="None">
<path d="
M 761.00 678.00 
C 761.05 668.56 757.85 663.54 757.00 654.00 C 756.15 644.47 743.52 648.76 735.00 648.00 C 726.48 647.24 715.10 646.23 713.93 654.93 C 712.76 663.62 712.43 671.19 709.25 678.25 C 706.06 685.31 695.11 681.24 690.23 687.23 C 685.35 693.22 677.07 688.97 672.23 684.77 C 667.39 680.57 661.28 677.23 656.00 674.00
C 650.02 679.61 646.64 685.58 639.75 690.75 C 632.86 695.93 629.49 702.35 636.25 708.75 C 643.01 715.16 643.49 721.13 650.00 727.00
C 642.78 732.81 645.61 748.06 637.67 752.67 C 629.73 757.28 614.67 755.45 606.00 759.00
C 604.86 768.95 607.52 776.84 606.00 787.00 C 604.48 797.16 616.08 796.37 623.78 797.22 C 631.48 798.08 639.95 798.89 642.08 806.92 C 644.20 814.96 648.53 817.48 651.00 825.00
C 643.79 832.59 638.10 842.29 631.00 850.00
C 638.33 858.29 644.54 865.38 652.92 873.08 C 661.29 880.78 670.29 871.27 678.92 863.92 C 687.54 856.57 698.51 865.80 709.00 868.00
C 710.13 877.29 712.43 883.23 713.07 892.93 C 713.71 902.63 727.32 900.12 735.00 900.00 C 742.68 899.88 756.77 903.08 757.22 893.22 C 757.67 883.37 761.69 877.86 761.00 868.00
C 770.51 865.14 783.16 857.71 790.92 863.08 C 798.68 868.45 809.25 879.98 816.25 874.25 C 823.25 868.52 833.55 860.85 838.23 853.23 C 842.91 845.61 828.22 836.51 824.25 828.75 C 820.29 820.99 826.90 808.86 831.00 800.00
C 841.97 799.14 852.49 796.53 863.00 794.00
C 863.00 782.00 863.00 770.00 863.00 758.00
C 854.85 754.15 839.62 756.61 832.25 751.75 C 824.88 746.88 827.00 732.92 821.00 727.00
C 827.72 721.54 828.06 716.00 834.70 709.70 C 841.33 703.40 839.52 697.77 833.30 691.70 C 827.08 685.63 824.61 682.44 818.25 675.75 C 811.88 669.07 806.68 676.55 800.70 680.70 C 794.72 684.84 788.02 692.06 781.23 687.77 C 774.44 683.48 767.82 682.03 761.00 678.00
M 813.00 684.00 
C 817.94 689.38 822.03 695.64 828.00 700.00
C 826.28 709.60 811.98 715.84 810.08 725.08 C 808.18 734.32 819.59 744.33 821.31 754.69 C 823.02 765.06 844.65 763.52 853.00 766.00
C 854.22 776.04 854.30 785.67 845.33 787.33 C 836.36 788.99 828.05 788.69 822.08 794.08 C 816.12 799.48 818.85 808.67 812.70 814.70 C 806.54 820.72 809.54 827.60 814.92 833.08 C 820.29 838.56 823.14 844.90 827.00 851.00
C 821.97 855.66 816.56 860.19 812.00 865.00
C 802.00 863.92 794.58 845.98 784.32 847.34 C 774.07 848.69 762.46 858.96 752.00 861.00
C 750.76 869.53 750.21 877.65 748.02 886.02 C 745.84 894.39 730.08 888.00 723.00 890.00
C 722.63 880.44 719.10 871.66 719.00 862.00
C 709.57 857.73 699.71 853.93 690.31 849.69 C 680.91 845.46 674.46 854.52 666.25 861.25 C 658.04 867.97 651.16 855.90 644.00 850.00
C 647.31 841.10 656.95 836.44 660.30 827.30 C 663.66 818.17 653.30 810.65 650.68 800.32 C 648.06 789.99 635.76 788.60 624.00 788.00 C 612.23 787.40 613.41 764.82 625.02 765.02 C 636.64 765.23 649.18 761.69 650.78 751.78 C 652.38 741.87 662.93 732.47 659.25 723.75 C 655.56 715.04 645.71 709.20 643.00 700.00
C 648.48 695.98 652.56 689.97 658.00 686.00
C 666.17 689.53 673.44 703.69 683.67 701.67 C 693.90 699.65 702.10 691.82 712.69 688.70 C 723.29 685.57 720.70 666.48 723.00 657.00
C 734.29 655.11 750.95 655.62 749.33 668.67 C 747.71 681.72 755.09 688.53 764.69 691.31 C 774.30 694.08 781.39 704.48 790.23 700.23 C 799.07 695.97 804.18 688.06 813.00 684.00 Z"/>
</g>
<g fill="#FEFEFE" fill-opacity="0.79" stroke="None">
<path d="
M 813.00 684.00 
C 804.18 688.06 799.07 695.97 790.23 700.23 C 781.39 704.48 774.30 694.08 764.69 691.31 C 755.09 688.53 747.71 681.72 749.33 668.67 C 750.95 655.62 734.29 655.11 723.00 657.00
C 720.70 666.48 723.29 685.57 712.69 688.70 C 702.10 691.82 693.90 699.65 683.67 701.67 C 673.44 703.69 666.17 689.53 658.00 686.00
C 652.56 689.97 648.48 695.98 643.00 700.00
C 645.71 709.20 655.56 715.04 659.25 723.75 C 662.93 732.47 652.38 741.87 650.78 751.78 C 649.18 761.69 636.64 765.23 625.02 765.02 C 613.41 764.82 612.23 787.40 624.00 788.00 C 635.76 788.60 648.06 789.99 650.68 800.32 C 653.30 810.65 663.66 818.17 660.30 827.30 C 656.95 836.44 647.31 841.10 644.00 850.00
C 651.16 855.90 658.04 867.97 666.25 861.25 C 674.46 854.52 680.91 845.46 690.31 849.69 C 699.71 853.93 709.57 857.73 719.00 862.00
C 719.10 871.66 722.63 880.44 723.00 890.00
C 730.08 888.00 745.84 894.39 748.02 886.02 C 750.21 877.65 750.76 869.53 752.00 861.00
C 762.46 858.96 774.07 848.69 784.32 847.34 C 794.58 845.98 802.00 863.92 812.00 865.00
C 816.56 860.19 821.97 855.66 827.00 851.00
C 823.14 844.90 820.29 838.56 814.92 833.08 C 809.54 827.60 806.54 820.72 812.70 814.70 C 818.85 808.67 816.12 799.48 822.08 794.08 C 828.05 788.69 836.36 788.99 845.33 787.33 C 854.30 785.67 854.22 776.04 853.00 766.00
C 844.65 763.52 823.02 765.06 821.31 754.69 C 819.59 744.33 808.18 734.32 810.08 725.08 C 811.98 715.84 826.28 709.60 828.00 700.00
C 822.03 695.64 817.94 689.38 813.00 684.00
M 745.00 660.00 
C 747.37 669.35 745.99 688.61 757.07 690.93 C 768.16 693.24 775.53 704.19 786.03 704.98 C 796.52 705.76 803.04 689.28 813.00 688.00
C 821.27 695.16 824.96 701.76 818.25 709.25 C 811.53 716.73 804.14 724.15 808.30 732.70 C 812.46 741.24 819.30 750.48 818.00 760.00
C 825.84 762.77 829.90 766.46 839.22 766.78 C 848.55 767.10 852.87 773.48 850.00 784.00
C 843.08 783.93 837.73 787.88 830.78 787.78 C 823.82 787.68 819.41 792.61 816.00 795.00
C 820.33 805.10 802.75 816.90 805.93 826.08 C 809.11 835.26 821.06 840.96 823.00 851.00
C 819.55 853.82 807.90 867.09 808.00 856.00
C 800.38 858.51 792.65 845.38 784.00 843.00
C 777.77 848.76 769.90 850.81 760.98 853.98 C 752.05 857.14 745.33 862.75 747.02 875.02 C 748.72 887.30 736.54 889.15 726.00 887.00
C 722.63 879.35 724.64 867.56 720.68 860.32 C 716.72 853.08 701.94 857.31 701.00 848.00
C 698.46 854.70 687.33 840.20 680.92 845.92 C 674.52 851.65 677.11 848.90 673.00 848.00
C 674.31 853.18 667.28 857.60 662.30 860.30 C 657.33 863.00 652.38 851.46 648.00 850.00
C 652.88 843.24 654.81 837.31 661.25 831.25 C 667.69 825.19 663.37 817.01 658.23 810.77 C 653.08 804.54 654.99 792.83 646.92 789.08 C 638.85 785.34 627.56 786.59 619.00 784.00
C 618.97 778.54 618.50 774.35 619.00 769.00
C 626.59 768.85 632.39 765.55 640.01 765.01 C 647.63 764.46 651.48 760.15 653.32 753.32 C 655.17 746.50 656.13 741.26 660.75 735.75 C 665.38 730.25 660.88 722.62 664.00 720.00
C 654.19 719.35 652.88 705.40 647.00 702.00
C 649.30 696.94 654.72 694.41 657.00 690.00
C 666.52 692.57 673.60 707.67 684.67 704.67 C 695.74 701.67 702.78 694.65 714.22 691.22 C 725.67 687.80 723.01 669.71 726.00 660.00
C 732.33 660.00 738.67 660.00 745.00 660.00 Z"/>
</g>
<g fill="#000000" fill-opacity="0.00" stroke="None">
<path d="
M 745.00 660.00 
C 738.67 660.00 732.33 660.00 726.00 660.00
C 723.01 669.71 725.67 687.80 714.22 691.22 C 702.78 694.65 695.74 701.67 684.67 704.67 C 673.60 707.67 666.52 692.57 657.00 690.00
C 654.72 694.41 649.30 696.94 647.00 702.00
C 652.88 705.40 654.19 719.35 664.00 720.00
C 660.88 722.62 665.38 730.25 660.75 735.75 C 656.13 741.26 655.17 746.50 653.32 753.32 C 651.48 760.15 647.63 764.46 640.01 765.01 C 632.39 765.55 626.59 768.85 619.00 769.00
C 618.50 774.35 618.97 778.54 619.00 784.00
C 627.56 786.59 638.85 785.34 646.92 789.08 C 654.99 792.83 653.08 804.54 658.23 810.77 C 663.37 817.01 667.69 825.19 661.25 831.25 C 654.81 837.31 652.88 843.24 648.00 850.00
C 652.38 851.46 657.33 863.00 662.30 860.30 C 667.28 857.60 674.31 853.18 673.00 848.00
C 677.11 848.90 674.52 851.65 680.92 845.92 C 687.33 840.20 698.46 854.70 701.00 848.00
C 701.94 857.31 716.72 853.08 720.68 860.32 C 724.64 867.56 722.63 879.35 726.00 887.00
C 736.54 889.15 748.72 887.30 747.02 875.02 C 745.33 862.75 752.05 857.14 760.98 853.98 C 769.90 850.81 777.77 848.76 784.00 843.00
C 792.65 845.38 800.38 858.51 808.00 856.00
C 807.90 867.09 819.55 853.82 823.00 851.00
C 821.06 840.96 809.11 835.26 805.93 826.08 C 802.75 816.90 820.33 805.10 816.00 795.00
C 819.41 792.61 823.82 787.68 830.78 787.78 C 837.73 787.88 843.08 783.93 850.00 784.00
C 852.87 773.48 848.55 767.10 839.22 766.78 C 829.90 766.46 825.84 762.77 818.00 760.00
C 819.30 750.48 812.46 741.24 808.30 732.70 C 804.14 724.15 811.53 716.73 818.25 709.25 C 824.96 701.76 821.27 695.16 813.00 688.00
C 803.04 689.28 796.52 705.76 786.03 704.98 C 775.53 704.19 768.16 693.24 757.07 690.93 C 745.99 688.61 747.37 669.35 745.00 660.00
M 743.00 709.00 
C 741.00 710.02 735.09 709.46 739.00 712.00
C 732.93 712.12 725.46 702.55 733.08 698.08 C 740.71 693.62 745.04 703.58 743.00 709.00
M 791.00 712.00 
C 785.15 717.15 800.20 723.30 790.25 729.25 C 780.30 735.21 776.12 717.21 786.00 717.00
C 782.82 715.67 786.10 714.37 786.00 712.00
C 787.51 715.12 789.45 714.86 791.00 712.00
M 688.00 717.00 
C 694.66 720.30 688.63 733.88 680.78 729.22 C 672.93 724.56 679.78 712.93 688.00 717.00
M 759.00 720.00 
C 763.01 725.26 774.21 730.75 781.77 741.23 C 789.33 751.71 794.51 765.78 793.00 780.00 C 791.49 794.22 785.78 804.49 775.75 814.75 C 765.73 825.01 754.94 827.32 743.00 830.00 C 731.05 832.68 716.44 826.52 704.00 824.00
C 700.88 816.37 688.81 809.44 685.25 800.75 C 681.69 792.07 681.21 792.06 680.00 785.00 C 678.80 777.93 677.46 772.87 679.00 767.00 C 680.54 761.13 679.45 751.72 682.00 756.00
C 683.47 750.90 686.00 745.56 690.00 742.00
C 688.51 739.62 688.71 737.05 686.00 735.00
C 689.21 738.85 698.15 737.67 696.00 731.00
C 701.24 731.16 705.29 726.23 712.08 723.08 C 718.86 719.92 728.00 718.22 736.00 718.00 C 744.00 717.78 753.09 722.26 759.00 720.00
M 806.00 768.00 
C 813.45 766.43 821.11 778.71 811.92 781.92 C 802.72 785.13 800.19 772.41 806.00 768.00
M 665.00 769.00 
C 672.93 771.37 667.86 785.44 659.92 782.07 C 651.98 778.70 656.14 766.35 665.00 769.00
M 791.00 816.00 
C 789.22 820.61 795.66 824.12 792.23 829.23 C 788.80 834.33 781.53 833.64 780.08 826.92 C 778.63 820.21 788.73 818.83 791.00 816.00
M 687.00 819.00 
C 694.16 821.68 689.83 835.63 681.78 832.22 C 673.72 828.81 677.53 815.45 687.00 819.00
M 738.00 855.00 
C 734.10 854.15 731.97 850.41 729.00 849.00
C 729.13 842.99 734.33 837.28 740.23 841.77 C 746.13 846.27 740.59 852.05 738.00 855.00 Z"/>
</g>
<g fill="#FFFFFF" fill-opacity="0.68" stroke="None">
<path d="
M 743.00 709.00 
C 745.04 703.58 740.71 693.62 733.08 698.08 C 725.46 702.55 732.93 712.12 739.00 712.00
C 735.09 709.46 741.00 710.02 743.00 709.00
M 739.00 700.00 
C 742.71 702.42 738.42 709.60 734.33 706.67 C 730.24 703.74 735.06 697.43 739.00 700.00 Z"/>
</g>
<g fill="#000000" fill-opacity="0.99" stroke="None">
<path d="
M 739.00 700.00 
C 735.06 697.43 730.24 703.74 734.33 706.67 C 738.42 709.60 742.71 702.42 739.00 700.00 Z"/>
</g>
<g fill="#F0F0F0" fill-opacity="0.63" stroke="None">
<path d="
M 791.00 712.00 
C 789.45 714.86 787.51 715.12 786.00 712.00
C 786.10 714.37 782.82 715.67 786.00 717.00
C 776.12 717.21 780.30 735.21 790.25 729.25 C 800.20 723.30 785.15 717.15 791.00 712.00
M 788.00 719.00 
C 792.98 720.01 791.49 728.80 786.00 727.00 C 780.51 725.19 783.55 718.09 788.00 719.00 Z"/>
</g>
<g fill="#FFFFFF" fill-opacity="0.74" stroke="None">
<path d="
M 688.00 717.00 
C 679.78 712.93 672.93 724.56 680.78 729.22 C 688.63 733.88 694.66 720.30 688.00 717.00
M 685.00 719.00 
C 689.81 719.98 688.15 728.35 682.99 726.99 C 677.83 725.63 680.26 718.04 685.00 719.00 Z"/>
</g>
<g fill="#FCFCFC" fill-opacity="0.78" stroke="None">
<path d="
M 759.00 720.00 
C 753.09 722.26 744.00 717.78 736.00 718.00 C 728.00 718.22 718.86 719.92 712.08 723.08 C 705.29 726.23 701.24 731.16 696.00 731.00
C 698.15 737.67 689.21 738.85 686.00 735.00
C 688.71 737.05 688.51 739.62 690.00 742.00
C 686.00 745.56 683.47 750.90 682.00 756.00
C 679.45 751.72 680.54 761.13 679.00 767.00 C 677.46 772.87 678.80 777.93 680.00 785.00 C 681.21 792.06 681.69 792.07 685.25 800.75 C 688.81 809.44 700.88 816.37 704.00 824.00
C 716.44 826.52 731.05 832.68 743.00 830.00 C 754.94 827.32 765.73 825.01 775.75 814.75 C 785.78 804.49 791.49 794.22 793.00 780.00 C 794.51 765.78 789.33 751.71 781.77 741.23 C 774.21 730.75 763.01 725.26 759.00 720.00
M 744.00 721.00 
C 783.24 726.61 803.74 776.60 778.25 807.25 C 752.76 837.89 704.38 832.88 686.70 796.31 C 669.01 759.73 702.24 715.03 744.00 721.00 Z"/>
</g>
<g fill="#000000" fill-opacity="0.99" stroke="None">
<path d="
M 685.00 719.00 
C 680.26 718.04 677.83 725.63 682.99 726.99 C 688.15 728.35 689.81 719.98 685.00 719.00 Z"/>
</g>
<g fill="#000000" fill-opacity="0.99" stroke="None">
<path d="
M 788.00 719.00 
C 783.55 718.09 780.51 725.19 786.00 727.00 C 791.49 728.80 792.98 720.01 788.00 719.00 Z"/>
</g>
<g fill="#000000" fill-opacity="1.00" stroke="None">
<path d="
M 744.00 721.00 
C 702.24 715.03 669.01 759.73 686.70 796.31 C 704.38 832.88 752.76 837.89 778.25 807.25 C 803.74 776.60 783.24 726.61 744.00 721.00
M 743.00 729.00 
C 775.64 733.66 793.10 777.40 771.70 802.70 C 750.29 827.99 709.56 824.63 694.23 793.77 C 678.90 762.91 707.63 723.95 743.00 729.00 Z"/>
</g>
<g fill="#FCFCFC" fill-opacity="0.84" stroke="None">
<path d="
M 743.00 729.00 
C 707.63 723.95 678.90 762.91 694.23 793.77 C 709.56 824.63 750.29 827.99 771.70 802.70 C 793.10 777.40 775.64 733.66 743.00 729.00
M 754.00 737.00 
C 743.97 732.99 732.56 731.73 722.00 735.00
C 731.15 729.99 745.67 731.01 754.00 737.00
M 721.00 735.00 
C 704.78 742.93 691.95 759.94 694.00 780.00
C 689.73 761.11 703.22 739.98 721.00 735.00
M 742.00 736.00 
C 769.61 740.48 783.80 776.02 765.75 797.75 C 747.71 819.49 712.50 815.87 700.23 789.77 C 687.96 763.67 712.99 731.29 742.00 736.00
M 775.00 762.00 
C 772.69 750.41 762.80 744.26 755.00 737.00
C 764.16 741.53 775.65 751.31 775.00 762.00
M 777.00 763.00 
C 782.55 783.48 771.41 806.47 751.92 813.92 C 732.44 821.38 707.98 813.51 699.00 795.00
C 709.44 811.18 732.65 820.38 752.22 812.22 C 771.80 804.06 779.72 782.36 777.00 763.00 Z"/>
</g>
<g fill="#030303" fill-opacity="0.00" stroke="None">
<path d="
M 754.00 737.00 
C 745.67 731.01 731.15 729.99 722.00 735.00
C 732.56 731.73 743.97 732.99 754.00 737.00 Z"/>
</g>
<g fill="#171717" fill-opacity="0.05" stroke="None">
<path d="
M 721.00 735.00 
C 703.22 739.98 689.73 761.11 694.00 780.00
C 691.95 759.94 704.78 742.93 721.00 735.00 Z"/>
</g>
<g fill="#000000" fill-opacity="1.00" stroke="None">
<path d="
M 742.00 736.00 
C 712.99 731.29 687.96 763.67 700.23 789.77 C 712.50 815.87 747.71 819.49 765.75 797.75 C 783.80 776.02 769.61 740.48 742.00 736.00
M 736.00 744.00 
C 758.56 744.65 773.53 771.16 761.23 790.23 C 748.93 809.30 722.12 808.98 709.75 790.25 C 697.37 771.53 712.85 743.33 736.00 744.00 Z"/>
</g>
<g fill="#2A2A2A" fill-opacity="0.07" stroke="None">
<path d="
M 775.00 762.00 
C 775.65 751.31 764.16 741.53 755.00 737.00
C 762.80 744.26 772.69 750.41 775.00 762.00 Z"/>
</g>
<g fill="#FFFFFF" fill-opacity="0.84" stroke="None">
<path d="
M 736.00 744.00 
C 712.85 743.33 697.37 771.53 709.75 790.25 C 722.12 808.98 748.93 809.30 761.23 790.23 C 773.53 771.16 758.56 744.65 736.00 744.00
M 738.00 747.00 
C 758.13 748.67 770.23 774.07 757.75 790.75 C 745.26 807.43 719.84 803.67 711.08 785.92 C 702.31 768.18 716.93 745.25 738.00 747.00 Z"/>
</g>
<g fill="#000000" fill-opacity="0.00" stroke="None">
<path d="
M 738.00 747.00 
C 716.93 745.25 702.31 768.18 711.08 785.92 C 719.84 803.67 745.26 807.43 757.75 790.75 C 770.23 774.07 758.13 748.67 738.00 747.00 Z"/>
</g>
<g fill="#070707" fill-opacity="0.03" stroke="None">
<path d="
M 777.00 763.00 
C 779.72 782.36 771.80 804.06 752.22 812.22 C 732.65 820.38 709.44 811.18 699.00 795.00
C 707.98 813.51 732.44 821.38 751.92 813.92 C 771.41 806.47 782.55 783.48 777.00 763.00 Z"/>
</g>
<g fill="#FFFFFF" fill-opacity="0.73" stroke="None">
<path d="
M 806.00 768.00 
C 800.19 772.41 802.72 785.13 811.92 781.92 C 821.11 778.71 813.45 766.43 806.00 768.00
M 811.00 772.00 
C 814.58 773.47 813.16 780.59 808.75 779.20 C 804.35 777.81 805.59 769.79 811.00 772.00 Z"/>
</g>
<g fill="#FFFFFF" fill-opacity="0.74" stroke="None">
<path d="
M 665.00 769.00 
C 656.14 766.35 651.98 778.70 659.92 782.07 C 667.86 785.44 672.93 771.37 665.00 769.00
M 663.00 771.00 
C 667.62 771.83 666.78 780.03 661.75 779.20 C 656.72 778.36 657.72 770.05 663.00 771.00 Z"/>
</g>
<g fill="#000000" fill-opacity="0.99" stroke="None">
<path d="
M 663.00 771.00 
C 657.72 770.05 656.72 778.36 661.75 779.20 C 666.78 780.03 667.62 771.83 663.00 771.00 Z"/>
</g>
<g fill="#000000" fill-opacity="0.99" stroke="None">
<path d="
M 811.00 772.00 
C 805.59 769.79 804.35 777.81 808.75 779.20 C 813.16 780.59 814.58 773.47 811.00 772.00 Z"/>
</g>
<g fill="#FBFBFB" fill-opacity="0.68" stroke="None">
<path d="
M 791.00 816.00 
C 788.73 818.83 778.63 820.21 780.08 826.92 C 781.53 833.64 788.80 834.33 792.23 829.23 C 795.66 824.12 789.22 820.61 791.00 816.00
M 788.00 821.00 
C 792.48 822.00 791.22 831.12 785.97 829.97 C 780.73 828.83 783.01 819.89 788.00 821.00 Z"/>
</g>
<g fill="#FFFFFF" fill-opacity="0.70" stroke="None">
<path d="
M 687.00 819.00 
C 677.53 815.45 673.72 828.81 681.78 832.22 C 689.83 835.63 694.16 821.68 687.00 819.00
M 686.00 822.00 
C 690.10 823.81 687.53 831.24 682.77 829.21 C 678.01 827.19 680.56 819.59 686.00 822.00 Z"/>
</g>
<g fill="#000000" fill-opacity="0.99" stroke="None">
<path d="
M 788.00 821.00 
C 783.01 819.89 780.73 828.83 785.97 829.97 C 791.22 831.12 792.48 822.00 788.00 821.00 Z"/>
</g>
<g fill="#000000" fill-opacity="1.00" stroke="None">
<path d="
M 686.00 822.00 
C 680.56 819.59 678.01 827.19 682.77 829.21 C 687.53 831.24 690.10 823.81 686.00 822.00 Z"/>
</g>
<g fill="#FFFFFF" fill-opacity="0.68" stroke="None">
<path d="
M 738.00 855.00 
C 740.59 852.05 746.13 846.27 740.23 841.77 C 734.33 837.28 729.13 842.99 729.00 849.00
C 731.97 850.41 734.10 854.15 738.00 855.00
M 738.00 843.00 
C 741.91 844.60 739.50 852.34 735.30 850.64 C 731.11 848.95 732.77 840.86 738.00 843.00 Z"/>
</g>
<g fill="#000000" fill-opacity="0.99" stroke="None">
<path d="
M 738.00 843.00 
C 732.77 840.86 731.11 848.95 735.30 850.64 C 739.50 852.34 741.91 844.60 738.00 843.00 Z"/>
</g>
<g fill="#FFFFFF" fill-opacity="0.66" stroke="None">
<path d="
M 566.00 861.00 
C 588.12 861.00 609.18 860.05 631.00 861.00
C 628.88 860.55 626.05 860.18 624.00 860.00
C 605.00 858.33 585.08 860.00 566.00 860.00
C 566.00 860.00 565.96 861.00 566.00 861.00 Z"/>
</g>
</svg>