<svg xmlns="http://www.w3.org/2000/svg" xmlns:v="https://svgstorm.com"
viewBox = "0 0 1024 1024"
width="1024"
height="1024">
<g fill="None" fill-opacity="0.0" stroke="#000000" stroke-opacity="0.00" stroke-width="0.3"><path d="
M 0.00 1024.00 
L 1024.00 1024.00
L 1024.00 0.00
L 0.00 0.00
L 0.00 1024.00
M 754.00 578.00 
C 745.24 576.35 734.74 576.35 726.00 578.00
C 726.00 472.84 726.00 365.86 726.00 260.00
C 578.67 260.00 431.33 260.00 284.00 260.00
C 284.00 445.67 284.00 631.33 284.00 817.00
C 298.68 816.93 313.45 817.02 329.00 817.00 C 344.55 816.98 361.24 817.00 377.00 817.00 C 392.76 817.00 409.19 816.97 425.00 817.00 C 440.81 817.03 457.26 816.92 473.00 817.00 C 488.74 817.08 505.50 816.82 521.00 817.00 C 536.50 817.18 554.08 816.59 569.00 817.00 C 583.92 817.41 600.46 813.08 608.75 823.25 C 617.05 833.41 624.90 837.32 632.00 848.00
C 610.70 847.99 589.28 848.01 568.00 848.00 C 546.72 847.99 525.24 848.02 504.00 848.00 C 482.76 847.98 461.13 848.04 440.00 848.00 C 418.87 847.96 396.88 848.09 376.00 848.00 C 355.12 847.91 332.33 848.20 312.00 848.00 C 291.67 847.80 267.11 848.45 248.00 848.00 C 228.89 847.55 207.78 849.57 193.25 846.61 C 178.72 843.64 167.35 835.27 158.74 823.26 C 150.14 811.24 145.75 804.46 146.00 786.00 C 146.26 767.53 147.53 743.17 147.00 723.00 C 146.47 702.83 147.24 679.80 147.00 659.00 C 146.76 638.20 147.11 616.08 147.00 595.00 C 146.89 573.92 147.05 552.18 147.00 531.00 C 146.95 509.82 147.02 488.18 147.00 467.00 C 146.98 445.82 147.00 424.09 147.00 403.00 C 147.00 381.91 146.99 359.82 147.00 339.00 C 147.01 318.18 146.96 295.22 147.00 275.00 C 147.04 254.78 146.92 229.88 147.00 211.00 C 147.08 192.12 145.02 176.01 149.26 163.25 C 153.50 150.49 157.97 140.71 170.92 130.92 C 183.86 121.12 188.33 118.76 204.25 116.20 C 220.16 113.64 243.58 115.38 263.00 115.00 C 282.42 114.62 306.55 115.17 327.00 115.00 C 347.45 114.83 370.10 115.07 391.00 115.00 C 411.90 114.93 433.93 115.02 455.00 115.00 C 476.07 114.98 497.95 114.98 519.00 115.00 C 540.05 115.02 562.15 114.94 583.00 115.00 C 603.85 115.06 626.68 114.85 647.00 115.00 C 667.32 115.15 691.88 114.65 711.00 115.00 C 730.12 115.35 754.65 109.00 755.00 131.00 C 755.35 153.00 754.85 173.37 755.00 195.00 C 755.15 216.63 754.94 237.54 755.00 259.00 C 755.06 280.46 754.99 301.62 755.00 323.00 C 755.01 344.38 755.04 365.67 755.00 387.00 C 754.96 408.33 755.11 429.73 755.00 451.00 C 754.89 472.27 755.26 493.83 755.00 515.00 C 754.74 536.17 756.02 557.34 754.00 578.00
M 549.00 371.00 
C 578.82 355.84 619.75 376.00 628.76 408.25 C 637.76 440.50 617.59 473.97 583.00 482.00
C 584.86 492.08 584.73 501.54 585.80 511.25 C 586.87 520.95 585.98 530.28 587.33 540.67 C 588.68 551.06 587.01 557.99 588.78 568.22 C 590.55 578.46 584.58 588.89 572.00 588.00 C 559.41 587.11 544.97 588.44 532.00 588.00 C 519.03 587.56 503.98 588.30 491.00 588.00 C 478.02 587.70 462.53 588.35 450.00 588.00 C 437.47 587.65 424.62 590.00 416.70 584.29 C 408.77 578.57 411.76 567.14 411.93 557.93 C 412.09 548.71 413.19 539.14 413.80 529.75 C 414.41 520.37 413.54 512.10 415.00 502.00 C 416.46 491.90 416.84 481.14 407.75 479.81 C 398.66 478.47 393.84 472.30 386.30 466.70 C 378.77 461.09 374.82 450.21 371.24 442.75 C 367.67 435.29 369.72 423.93 369.80 415.75 C 369.88 407.58 374.39 399.59 378.90 391.90 C 383.41 384.22 393.18 376.33 399.77 372.43 C 406.35 368.53 412.63 367.73 422.03 366.98 C 431.42 366.23 441.67 366.77 451.00 371.00
C 467.81 331.38 528.87 332.42 549.00 371.00
M 760.00 583.00 
C 760.29 594.45 763.30 599.26 763.93 610.08 C 764.57 620.91 773.92 619.87 783.23 625.77 C 792.54 631.67 802.72 625.09 810.68 617.68 C 818.65 610.27 827.08 605.42 835.25 616.75 C 843.42 628.08 849.55 631.05 858.00 640.00
C 852.07 651.53 841.84 661.77 834.00 673.00
C 840.82 680.89 845.18 691.18 846.00 700.00
C 858.19 700.98 870.61 705.18 883.00 705.00
C 884.06 718.49 884.21 734.65 883.00 749.00
C 870.85 751.61 858.53 754.16 846.00 755.00
C 843.60 763.36 845.24 767.13 839.87 772.92 C 834.51 778.71 834.29 786.97 841.92 793.08 C 849.55 799.19 850.90 807.76 859.00 813.00
C 852.01 824.42 838.45 835.17 829.00 847.00
C 815.39 842.23 802.74 832.41 793.00 824.00
C 784.32 828.57 775.47 833.51 765.00 835.00
C 764.59 847.53 762.35 859.98 759.00 873.00
C 743.58 870.44 726.00 873.03 711.00 872.00
C 710.86 859.44 706.29 848.27 706.00 836.00
C 696.35 832.10 688.16 831.81 680.00 824.00
C 667.32 830.14 655.48 841.14 644.00 848.00
C 632.50 837.41 622.19 824.91 611.00 815.00
C 619.88 805.43 627.23 793.93 637.00 784.00
C 631.40 773.86 625.96 766.19 624.00 755.00
C 611.41 754.92 600.20 751.02 588.00 750.00
C 585.30 736.48 585.48 718.74 588.00 705.00
C 600.22 705.25 612.08 700.14 624.00 700.00
C 625.30 690.71 630.89 680.38 636.00 672.00
C 627.75 662.12 618.48 651.29 612.00 640.00
C 623.88 630.88 632.67 617.77 644.00 608.00
C 656.97 614.13 666.89 623.60 679.00 631.00
C 685.73 624.94 695.72 619.87 705.00 620.00
C 707.04 607.92 710.08 596.33 711.00 584.00
C 725.85 580.48 744.10 583.67 760.00 583.00
M 593.00 657.00 
C 606.51 657.55 615.77 681.54 597.32 685.32 C 578.88 689.10 555.74 684.94 536.00 686.00 C 516.26 687.06 491.45 685.93 472.00 686.00 C 452.55 686.07 425.91 686.88 408.00 686.00 C 390.09 685.12 366.57 692.55 363.61 674.25 C 360.64 655.95 384.08 656.95 402.00 658.00 C 419.92 659.05 446.34 657.17 466.00 658.00 C 485.66 658.83 509.71 656.85 530.00 658.00 C 550.29 659.15 573.07 656.19 593.00 657.00 Z"/>
</g>
<g fill="None" fill-opacity="0.0" stroke="#000000" stroke-opacity="0.99" stroke-width="0.3"><path d="
M 754.00 578.00 
C 756.02 557.34 754.74 536.17 755.00 515.00 C 755.26 493.83 754.89 472.27 755.00 451.00 C 755.11 429.73 754.96 408.33 755.00 387.00 C 755.04 365.67 755.01 344.38 755.00 323.00 C 754.99 301.62 755.06 280.46 755.00 259.00 C 754.94 237.54 755.15 216.63 755.00 195.00 C 754.85 173.37 755.35 153.00 755.00 131.00 C 754.65 109.00 730.12 115.35 711.00 115.00 C 691.88 114.65 667.32 115.15 647.00 115.00 C 626.68 114.85 603.85 115.06 583.00 115.00 C 562.15 114.94 540.05 115.02 519.00 115.00 C 497.95 114.98 476.07 114.98 455.00 115.00 C 433.93 115.02 411.90 114.93 391.00 115.00 C 370.10 115.07 347.45 114.83 327.00 115.00 C 306.55 115.17 282.42 114.62 263.00 115.00 C 243.58 115.38 220.16 113.64 204.25 116.20 C 188.33 118.76 183.86 121.12 170.92 130.92 C 157.97 140.71 153.50 150.49 149.26 163.25 C 145.02 176.01 147.08 192.12 147.00 211.00 C 146.92 229.88 147.04 254.78 147.00 275.00 C 146.96 295.22 147.01 318.18 147.00 339.00 C 146.99 359.82 147.00 381.91 147.00 403.00 C 147.00 424.09 146.98 445.82 147.00 467.00 C 147.02 488.18 146.95 509.82 147.00 531.00 C 147.05 552.18 146.89 573.92 147.00 595.00 C 147.11 616.08 146.76 638.20 147.00 659.00 C 147.24 679.80 146.47 702.83 147.00 723.00 C 147.53 743.17 146.26 767.53 146.00 786.00 C 145.75 804.46 150.14 811.24 158.74 823.26 C 167.35 835.27 178.72 843.64 193.25 846.61 C 207.78 849.57 228.89 847.55 248.00 848.00 C 267.11 848.45 291.67 847.80 312.00 848.00 C 332.33 848.20 355.12 847.91 376.00 848.00 C 396.88 848.09 418.87 847.96 440.00 848.00 C 461.13 848.04 482.76 847.98 504.00 848.00 C 525.24 848.02 546.72 847.99 568.00 848.00 C 589.28 848.01 610.70 847.99 632.00 848.00
C 624.90 837.32 617.05 833.41 608.75 823.25 C 600.46 813.08 583.92 817.41 569.00 817.00 C 554.08 816.59 536.50 817.18 521.00 817.00 C 505.50 816.82 488.74 817.08 473.00 817.00 C 457.26 816.92 440.81 817.03 425.00 817.00 C 409.19 816.97 392.76 817.00 377.00 817.00 C 361.24 817.00 344.55 816.98 329.00 817.00 C 313.45 817.02 298.68 816.93 284.00 817.00
C 284.00 631.33 284.00 445.67 284.00 260.00
C 431.33 260.00 578.67 260.00 726.00 260.00
C 726.00 365.86 726.00 472.84 726.00 578.00
C 734.74 576.35 745.24 576.35 754.00 578.00
M 726.00 143.00 
C 724.34 171.74 724.33 202.28 726.00 231.00
C 696.65 230.99 667.36 231.02 638.00 231.00 C 608.64 230.98 578.27 231.03 549.00 231.00 C 519.73 230.97 488.92 231.07 460.00 231.00 C 431.08 230.93 400.15 231.15 372.00 231.00 C 343.85 230.85 309.53 231.33 283.00 231.00 C 256.47 230.67 225.38 233.41 205.75 227.24 C 186.13 221.08 178.07 207.16 176.80 188.75 C 175.53 170.34 183.39 152.13 203.75 146.41 C 224.12 140.69 255.27 143.40 282.00 143.00 C 308.73 142.60 342.75 143.18 371.00 143.00 C 399.25 142.82 430.02 143.08 459.00 143.00 C 487.98 142.92 518.65 143.04 548.00 143.00 C 577.35 142.96 607.50 143.02 637.00 143.00 C 666.50 142.98 696.46 143.01 726.00 143.00
M 254.00 260.00 
C 254.00 445.67 254.00 631.33 254.00 817.00
C 229.89 813.10 195.64 824.48 183.03 800.97 C 170.43 777.46 178.68 751.29 177.00 721.00 C 175.32 690.71 177.77 657.14 177.00 626.00 C 176.23 594.86 177.39 561.51 177.00 530.00 C 176.61 498.49 177.27 466.66 177.00 435.00 C 176.73 403.34 177.33 370.70 177.00 339.00 C 176.67 307.30 178.05 275.26 176.00 244.00
C 197.27 262.18 223.99 261.01 254.00 260.00 Z"/>
</g>
<g fill="None" fill-opacity="0.0" stroke="#000000" stroke-opacity="0.01" stroke-width="0.3"><path d="
M 726.00 143.00 
C 696.46 143.01 666.50 142.98 637.00 143.00 C 607.50 143.02 577.35 142.96 548.00 143.00 C 518.65 143.04 487.98 142.92 459.00 143.00 C 430.02 143.08 399.25 142.82 371.00 143.00 C 342.75 143.18 308.73 142.60 282.00 143.00 C 255.27 143.40 224.12 140.69 203.75 146.41 C 183.39 152.13 175.53 170.34 176.80 188.75 C 178.07 207.16 186.13 221.08 205.75 227.24 C 225.38 233.41 256.47 230.67 283.00 231.00 C 309.53 231.33 343.85 230.85 372.00 231.00 C 400.15 231.15 431.08 230.93 460.00 231.00 C 488.92 231.07 519.73 230.97 549.00 231.00 C 578.27 231.03 608.64 230.98 638.00 231.00 C 667.36 231.02 696.65 230.99 726.00 231.00
C 724.33 202.28 724.34 171.74 726.00 143.00 Z"/>
</g>
<g fill="None" fill-opacity="0.0" stroke="#000000" stroke-opacity="0.00" stroke-width="0.3"><path d="
M 254.00 260.00 
C 223.99 261.01 197.27 262.18 176.00 244.00
C 178.05 275.26 176.67 307.30 177.00 339.00 C 177.33 370.70 176.73 403.34 177.00 435.00 C 177.27 466.66 176.61 498.49 177.00 530.00 C 177.39 561.51 176.23 594.86 177.00 626.00 C 177.77 657.14 175.32 690.71 177.00 721.00 C 178.68 751.29 170.43 777.46 183.03 800.97 C 195.64 824.48 229.89 813.10 254.00 817.00
C 254.00 631.33 254.00 445.67 254.00 260.00 Z"/>
</g>
<g fill="None" fill-opacity="0.0" stroke="#000000" stroke-opacity="0.98" stroke-width="0.3"><path d="
M 549.00 371.00 
C 528.87 332.42 467.81 331.38 451.00 371.00
C 441.67 366.77 431.42 366.23 422.03 366.98 C 412.63 367.73 406.35 368.53 399.77 372.43 C 393.18 376.33 383.41 384.22 378.90 391.90 C 374.39 399.59 369.88 407.58 369.80 415.75 C 369.72 423.93 367.67 435.29 371.24 442.75 C 374.82 450.21 378.77 461.09 386.30 466.70 C 393.84 472.30 398.66 478.47 407.75 479.81 C 416.84 481.14 416.46 491.90 415.00 502.00 C 413.54 512.10 414.41 520.37 413.80 529.75 C 413.19 539.14 412.09 548.71 411.93 557.93 C 411.76 567.14 408.77 578.57 416.70 584.29 C 424.62 590.00 437.47 587.65 450.00 588.00 C 462.53 588.35 478.02 587.70 491.00 588.00 C 503.98 588.30 519.03 587.56 532.00 588.00 C 544.97 588.44 559.41 587.11 572.00 588.00 C 584.58 588.89 590.55 578.46 588.78 568.22 C 587.01 557.99 588.68 551.06 587.33 540.67 C 585.98 530.28 586.87 520.95 585.80 511.25 C 584.73 501.54 584.86 492.08 583.00 482.00
C 617.59 473.97 637.76 440.50 628.76 408.25 C 619.75 376.00 578.82 355.84 549.00 371.00
M 559.00 557.00 
C 520.00 557.00 481.00 557.00 442.00 557.00
C 442.95 545.83 443.86 529.66 444.67 518.33 C 445.48 507.00 445.26 490.28 446.07 479.92 C 446.88 469.57 450.37 452.55 436.25 451.61 C 422.12 450.66 409.12 448.76 402.68 436.32 C 396.25 423.87 399.78 414.05 406.70 404.70 C 413.63 395.36 429.47 390.78 438.75 397.26 C 448.03 403.75 462.11 413.48 468.97 401.97 C 475.83 390.46 473.95 379.86 485.89 373.89 C 497.84 367.93 503.98 368.13 515.75 374.39 C 527.53 380.65 524.42 393.51 531.77 403.23 C 539.12 412.96 552.74 403.23 561.22 397.22 C 569.71 391.22 586.49 394.94 593.75 404.25 C 601.01 413.56 603.95 424.10 597.29 436.30 C 590.63 448.50 578.14 450.77 564.33 450.33 C 550.51 449.89 553.89 470.02 554.35 479.69 C 554.82 489.36 556.11 506.28 556.99 518.01 C 557.87 529.73 556.45 543.86 559.00 557.00 Z"/>
</g>
<g fill="None" fill-opacity="0.0" stroke="#000000" stroke-opacity="0.01" stroke-width="0.3"><path d="
M 559.00 557.00 
C 556.45 543.86 557.87 529.73 556.99 518.01 C 556.11 506.28 554.82 489.36 554.35 479.69 C 553.89 470.02 550.51 449.89 564.33 450.33 C 578.14 450.77 590.63 448.50 597.29 436.30 C 603.95 424.10 601.01 413.56 593.75 404.25 C 586.49 394.94 569.71 391.22 561.22 397.22 C 552.74 403.23 539.12 412.96 531.77 403.23 C 524.42 393.51 527.53 380.65 515.75 374.39 C 503.98 368.13 497.84 367.93 485.89 373.89 C 473.95 379.86 475.83 390.46 468.97 401.97 C 462.11 413.48 448.03 403.75 438.75 397.26 C 429.47 390.78 413.63 395.36 406.70 404.70 C 399.78 414.05 396.25 423.87 402.68 436.32 C 409.12 448.76 422.12 450.66 436.25 451.61 C 450.37 452.55 446.88 469.57 446.07 479.92 C 445.26 490.28 445.48 507.00 444.67 518.33 C 443.86 529.66 442.95 545.83 442.00 557.00
C 481.00 557.00 520.00 557.00 559.00 557.00 Z"/>
</g>
<g fill="None" fill-opacity="0.0" stroke="#000000" stroke-opacity="0.96" stroke-width="0.3"><path d="
M 760.00 583.00 
C 744.10 583.67 725.85 580.48 711.00 584.00
C 710.08 596.33 707.04 607.92 705.00 620.00
C 695.72 619.87 685.73 624.94 679.00 631.00
C 666.89 623.60 656.97 614.13 644.00 608.00
C 632.67 617.77 623.88 630.88 612.00 640.00
C 618.48 651.29 627.75 662.12 636.00 672.00
C 630.89 680.38 625.30 690.71 624.00 700.00
C 612.08 700.14 600.22 705.25 588.00 705.00
C 585.48 718.74 585.30 736.48 588.00 750.00
C 600.20 751.02 611.41 754.92 624.00 755.00
C 625.96 766.19 631.40 773.86 637.00 784.00
C 627.23 793.93 619.88 805.43 611.00 815.00
C 622.19 824.91 632.50 837.41 644.00 848.00
C 655.48 841.14 667.32 830.14 680.00 824.00
C 688.16 831.81 696.35 832.10 706.00 836.00
C 706.29 848.27 710.86 859.44 711.00 872.00
C 726.00 873.03 743.58 870.44 759.00 873.00
C 762.35 859.98 764.59 847.53 765.00 835.00
C 775.47 833.51 784.32 828.57 793.00 824.00
C 802.74 832.41 815.39 842.23 829.00 847.00
C 838.45 835.17 852.01 824.42 859.00 813.00
C 850.90 807.76 849.55 799.19 841.92 793.08 C 834.29 786.97 834.51 778.71 839.87 772.92 C 845.24 767.13 843.60 763.36 846.00 755.00
C 858.53 754.16 870.85 751.61 883.00 749.00
C 884.21 734.65 884.06 718.49 883.00 705.00
C 870.61 705.18 858.19 700.98 846.00 700.00
C 845.18 691.18 840.82 680.89 834.00 673.00
C 841.84 661.77 852.07 651.53 858.00 640.00
C 849.55 631.05 843.42 628.08 835.25 616.75 C 827.08 605.42 818.65 610.27 810.68 617.68 C 802.72 625.09 792.54 631.67 783.23 625.77 C 773.92 619.87 764.57 620.91 763.93 610.08 C 763.30 599.26 760.29 594.45 760.00 583.00
M 749.00 594.00 
C 747.43 603.31 753.38 610.43 752.60 620.75 C 751.83 631.07 762.02 632.05 770.75 634.26 C 779.49 636.48 789.67 648.81 797.74 641.74 C 805.82 634.68 815.31 629.56 824.00 623.00
C 829.91 629.52 835.58 636.45 842.00 641.00
C 834.70 653.13 825.70 660.52 819.00 673.00
C 827.01 682.72 835.09 697.11 835.00 711.00
C 847.66 713.04 859.10 715.08 871.00 717.00
C 870.31 723.53 871.47 731.72 871.00 739.00
C 858.20 739.55 847.96 743.32 835.00 743.00
C 833.86 758.80 826.61 771.64 817.00 783.00
C 826.44 792.64 832.81 803.15 842.00 813.00
C 837.47 819.92 830.16 827.40 825.00 832.00
C 813.42 823.75 802.35 816.55 792.00 809.00
C 779.88 815.87 770.04 821.96 755.00 823.00
C 752.55 836.14 750.27 848.03 749.00 862.00
C 740.56 861.39 729.89 861.78 722.00 862.00
C 721.65 849.37 718.67 835.99 716.00 823.00
C 702.39 822.42 691.16 818.11 680.00 809.00
C 667.75 814.24 656.26 825.86 645.00 832.00
C 639.51 825.64 633.75 819.21 628.00 814.00
C 636.83 803.05 647.04 793.62 653.00 781.00
C 641.26 770.62 636.68 757.30 635.00 743.00
C 621.67 743.56 610.37 740.45 598.00 738.00
C 600.67 731.18 597.40 722.85 600.00 716.00
C 610.93 716.43 622.80 711.11 634.00 712.00
C 637.32 695.46 642.80 685.48 652.00 671.00
C 642.92 662.65 635.81 651.92 628.00 641.00
C 633.71 635.31 642.13 630.44 646.00 623.00
C 654.14 630.74 666.19 636.35 673.75 642.39 C 681.32 648.44 689.45 636.95 697.75 634.75 C 706.04 632.54 718.94 631.86 718.64 621.30 C 718.35 610.75 723.09 604.16 722.00 594.00
C 730.75 596.41 740.71 594.22 749.00 594.00 Z"/>
</g>
<g fill="None" fill-opacity="0.0" stroke="#000000" stroke-opacity="0.01" stroke-width="0.3"><path d="
M 749.00 594.00 
C 740.71 594.22 730.75 596.41 722.00 594.00
C 723.09 604.16 718.35 610.75 718.64 621.30 C 718.94 631.86 706.04 632.54 697.75 634.75 C 689.45 636.95 681.32 648.44 673.75 642.39 C 666.19 636.35 654.14 630.74 646.00 623.00
C 642.13 630.44 633.71 635.31 628.00 641.00
C 635.81 651.92 642.92 662.65 652.00 671.00
C 642.80 685.48 637.32 695.46 634.00 712.00
C 622.80 711.11 610.93 716.43 600.00 716.00
C 597.40 722.85 600.67 731.18 598.00 738.00
C 610.37 740.45 621.67 743.56 635.00 743.00
C 636.68 757.30 641.26 770.62 653.00 781.00
C 647.04 793.62 636.83 803.05 628.00 814.00
C 633.75 819.21 639.51 825.64 645.00 832.00
C 656.26 825.86 667.75 814.24 680.00 809.00
C 691.16 818.11 702.39 822.42 716.00 823.00
C 718.67 835.99 721.65 849.37 722.00 862.00
C 729.89 861.78 740.56 861.39 749.00 862.00
C 750.27 848.03 752.55 836.14 755.00 823.00
C 770.04 821.96 779.88 815.87 792.00 809.00
C 802.35 816.55 813.42 823.75 825.00 832.00
C 830.16 827.40 837.47 819.92 842.00 813.00
C 832.81 803.15 826.44 792.64 817.00 783.00
C 826.61 771.64 833.86 758.80 835.00 743.00
C 847.96 743.32 858.20 739.55 871.00 739.00
C 871.47 731.72 870.31 723.53 871.00 717.00
C 859.10 715.08 847.66 713.04 835.00 711.00
C 835.09 697.11 827.01 682.72 819.00 673.00
C 825.70 660.52 834.70 653.13 842.00 641.00
C 835.58 636.45 829.91 629.52 824.00 623.00
C 815.31 629.56 805.82 634.68 797.74 641.74 C 789.67 648.81 779.49 636.48 770.75 634.26 C 762.02 632.05 751.83 631.07 752.60 620.75 C 753.38 610.43 747.43 603.31 749.00 594.00
M 739.00 640.00 
C 741.90 643.59 741.52 647.05 741.00 650.00
C 735.66 653.81 731.41 650.60 729.00 648.00
C 729.34 644.37 732.03 643.12 733.00 640.00
C 734.94 640.74 736.98 640.68 739.00 640.00
M 678.00 675.00 
C 674.21 674.26 673.33 673.66 670.00 672.00
C 670.31 669.12 670.61 666.08 672.00 663.00
C 679.22 659.55 685.73 669.15 678.00 675.00
M 799.00 665.00 
C 800.36 671.50 794.43 677.51 788.00 673.00
C 788.42 670.34 786.46 667.75 788.00 664.00
C 792.25 662.61 794.36 662.18 799.00 665.00
M 740.00 665.00 
C 769.57 669.36 799.19 695.64 797.00 730.00 C 794.81 764.36 765.90 790.14 732.33 788.33 C 698.76 786.52 672.17 755.64 674.76 724.75 C 677.34 693.86 705.06 659.84 740.00 665.00
M 825.00 726.00 
C 823.95 728.01 823.02 729.98 822.00 732.00
C 813.26 734.57 809.10 724.46 816.00 720.00
C 820.71 721.00 822.18 722.30 825.00 726.00
M 659.00 723.00 
C 661.03 730.51 652.85 736.24 647.00 729.00
C 647.88 727.28 647.75 725.80 647.00 724.00
C 650.41 720.97 655.59 720.17 659.00 723.00
M 681.00 791.00 
C 673.54 796.22 667.20 787.27 672.00 781.00
C 678.08 777.74 684.23 785.29 681.00 791.00
M 799.00 783.00 
C 798.20 785.73 799.58 789.29 797.00 792.00
C 794.38 791.03 790.93 792.70 788.00 791.00
C 788.29 788.91 787.84 786.96 787.00 784.00
C 790.76 780.07 795.19 779.87 799.00 783.00
M 739.00 803.00 
C 742.97 806.91 741.79 812.03 737.00 815.00
C 732.17 813.84 730.16 811.97 729.00 807.00
C 730.96 806.72 730.99 804.95 732.00 803.00
C 734.16 803.63 736.77 803.60 739.00 803.00 Z"/>
</g>
<g fill="None" fill-opacity="0.0" stroke="#000000" stroke-opacity="0.89" stroke-width="0.3"><path d="
M 739.00 640.00 
C 736.98 640.68 734.94 640.74 733.00 640.00
C 732.03 643.12 729.34 644.37 729.00 648.00
C 731.41 650.60 735.66 653.81 741.00 650.00
C 741.52 647.05 741.90 643.59 739.00 640.00 Z"/>
</g>
<g fill="None" fill-opacity="0.0" stroke="#000000" stroke-opacity="0.99" stroke-width="0.3"><path d="
M 593.00 657.00 
C 573.07 656.19 550.29 659.15 530.00 658.00 C 509.71 656.85 485.66 658.83 466.00 658.00 C 446.34 657.17 419.92 659.05 402.00 658.00 C 384.08 656.95 360.64 655.95 363.61 674.25 C 366.57 692.55 390.09 685.12 408.00 686.00 C 425.91 686.88 452.55 686.07 472.00 686.00 C 491.45 685.93 516.26 687.06 536.00 686.00 C 555.74 684.94 578.88 689.10 597.32 685.32 C 615.77 681.54 606.51 657.55 593.00 657.00 Z"/>
</g>
<g fill="None" fill-opacity="0.0" stroke="#000000" stroke-opacity="0.91" stroke-width="0.3"><path d="
M 678.00 675.00 
C 685.73 669.15 679.22 659.55 672.00 663.00
C 670.61 666.08 670.31 669.12 670.00 672.00
C 673.33 673.66 674.21 674.26 678.00 675.00 Z"/>
</g>
<g fill="None" fill-opacity="0.0" stroke="#000000" stroke-opacity="0.89" stroke-width="0.3"><path d="
M 799.00 665.00 
C 794.36 662.18 792.25 662.61 788.00 664.00
C 786.46 667.75 788.42 670.34 788.00 673.00
C 794.43 677.51 800.36 671.50 799.00 665.00 Z"/>
</g>
<g fill="None" fill-opacity="0.0" stroke="#000000" stroke-opacity="0.96" stroke-width="0.3"><path d="
M 740.00 665.00 
C 705.06 659.84 677.34 693.86 674.76 724.75 C 672.17 755.64 698.76 786.52 732.33 788.33 C 765.90 790.14 794.81 764.36 797.00 730.00 C 799.19 695.64 769.57 669.36 740.00 665.00
M 728.00 677.00 
C 764.25 672.33 797.52 709.46 782.61 745.75 C 767.69 782.05 713.70 786.45 694.03 754.97 C 674.37 723.48 691.63 681.69 728.00 677.00 Z"/>
</g>
<g fill="None" fill-opacity="0.0" stroke="#000000" stroke-opacity="0.07" stroke-width="0.3"><path d="
M 728.00 677.00 
C 691.63 681.69 674.37 723.48 694.03 754.97 C 713.70 786.45 767.69 782.05 782.61 745.75 C 797.52 709.46 764.25 672.33 728.00 677.00
M 730.00 683.00 
C 758.22 678.34 790.43 711.74 777.61 741.75 C 764.78 771.76 723.37 781.27 702.70 756.30 C 682.04 731.33 694.08 688.93 730.00 683.00 Z"/>
</g>
<g fill="None" fill-opacity="0.0" stroke="#000000" stroke-opacity="0.96" stroke-width="0.3"><path d="
M 730.00 683.00 
C 694.08 688.93 682.04 731.33 702.70 756.30 C 723.37 781.27 764.78 771.76 777.61 741.75 C 790.43 711.74 758.22 678.34 730.00 683.00
M 729.00 695.00 
C 754.85 690.18 774.03 718.14 765.24 739.25 C 756.46 760.36 729.17 767.92 712.90 751.09 C 696.63 734.27 703.37 699.77 729.00 695.00 Z"/>
</g>
<g fill="None" fill-opacity="0.0" stroke="#000000" stroke-opacity="0.01" stroke-width="0.3"><path d="
M 729.00 695.00 
C 703.37 699.77 696.63 734.27 712.90 751.09 C 729.17 767.92 756.46 760.36 765.24 739.25 C 774.03 718.14 754.85 690.18 729.00 695.00 Z"/>
</g>
<g fill="None" fill-opacity="0.0" stroke="#000000" stroke-opacity="0.93" stroke-width="0.3"><path d="
M 825.00 726.00 
C 822.18 722.30 820.71 721.00 816.00 720.00
C 809.10 724.46 813.26 734.57 822.00 732.00
C 823.02 729.98 823.95 728.01 825.00 726.00 Z"/>
</g>
<g fill="None" fill-opacity="0.0" stroke="#000000" stroke-opacity="0.92" stroke-width="0.3"><path d="
M 659.00 723.00 
C 655.59 720.17 650.41 720.97 647.00 724.00
C 647.75 725.80 647.88 727.28 647.00 729.00
C 652.85 736.24 661.03 730.51 659.00 723.00 Z"/>
</g>
<g fill="None" fill-opacity="0.0" stroke="#000000" stroke-opacity="0.91" stroke-width="0.3"><path d="
M 681.00 791.00 
C 684.23 785.29 678.08 777.74 672.00 781.00
C 667.20 787.27 673.54 796.22 681.00 791.00 Z"/>
</g>
<g fill="None" fill-opacity="0.0" stroke="#000000" stroke-opacity="0.93" stroke-width="0.3"><path d="
M 799.00 783.00 
C 795.19 779.87 790.76 780.07 787.00 784.00
C 787.84 786.96 788.29 788.91 788.00 791.00
C 790.93 792.70 794.38 791.03 797.00 792.00
C 799.58 789.29 798.20 785.73 799.00 783.00 Z"/>
</g>
<g fill="None" fill-opacity="0.0" stroke="#000000" stroke-opacity="0.88" stroke-width="0.3"><path d="
M 739.00 803.00 
C 736.77 803.60 734.16 803.63 732.00 803.00
C 730.99 804.95 730.96 806.72 729.00 807.00
C 730.16 811.97 732.17 813.84 737.00 815.00
C 741.79 812.03 742.97 806.91 739.00 803.00 Z"/>
</g>
<g fill="#000000" fill-opacity="0.00" stroke="None">
<path d="
M 0.00 1024.00 
L 1024.00 1024.00
L 1024.00 0.00
L 0.00 0.00
L 0.00 1024.00
M 754.00 578.00 
C 745.24 576.35 734.74 576.35 726.00 578.00
C 726.00 472.84 726.00 365.86 726.00 260.00
C 578.67 260.00 431.33 260.00 284.00 260.00
C 284.00 445.67 284.00 631.33 284.00 817.00
C 298.68 816.93 313.45 817.02 329.00 817.00 C 344.55 816.98 361.24 817.00 377.00 817.00 C 392.76 817.00 409.19 816.97 425.00 817.00 C 440.81 817.03 457.26 816.92 473.00 817.00 C 488.74 817.08 505.50 816.82 521.00 817.00 C 536.50 817.18 554.08 816.59 569.00 817.00 C 583.92 817.41 600.46 813.08 608.75 823.25 C 617.05 833.41 624.90 837.32 632.00 848.00
C 610.70 847.99 589.28 848.01 568.00 848.00 C 546.72 847.99 525.24 848.02 504.00 848.00 C 482.76 847.98 461.13 848.04 440.00 848.00 C 418.87 847.96 396.88 848.09 376.00 848.00 C 355.12 847.91 332.33 848.20 312.00 848.00 C 291.67 847.80 267.11 848.45 248.00 848.00 C 228.89 847.55 207.78 849.57 193.25 846.61 C 178.72 843.64 167.35 835.27 158.74 823.26 C 150.14 811.24 145.75 804.46 146.00 786.00 C 146.26 767.53 147.53 743.17 147.00 723.00 C 146.47 702.83 147.24 679.80 147.00 659.00 C 146.76 638.20 147.11 616.08 147.00 595.00 C 146.89 573.92 147.05 552.18 147.00 531.00 C 146.95 509.82 147.02 488.18 147.00 467.00 C 146.98 445.82 147.00 424.09 147.00 403.00 C 147.00 381.91 146.99 359.82 147.00 339.00 C 147.01 318.18 146.96 295.22 147.00 275.00 C 147.04 254.78 146.92 229.88 147.00 211.00 C 147.08 192.12 145.02 176.01 149.26 163.25 C 153.50 150.49 157.97 140.71 170.92 130.92 C 183.86 121.12 188.33 118.76 204.25 116.20 C 220.16 113.64 243.58 115.38 263.00 115.00 C 282.42 114.62 306.55 115.17 327.00 115.00 C 347.45 114.83 370.10 115.07 391.00 115.00 C 411.90 114.93 433.93 115.02 455.00 115.00 C 476.07 114.98 497.95 114.98 519.00 115.00 C 540.05 115.02 562.15 114.94 583.00 115.00 C 603.85 115.06 626.68 114.85 647.00 115.00 C 667.32 115.15 691.88 114.65 711.00 115.00 C 730.12 115.35 754.65 109.00 755.00 131.00 C 755.35 153.00 754.85 173.37 755.00 195.00 C 755.15 216.63 754.94 237.54 755.00 259.00 C 755.06 280.46 754.99 301.62 755.00 323.00 C 755.01 344.38 755.04 365.67 755.00 387.00 C 754.96 408.33 755.11 429.73 755.00 451.00 C 754.89 472.27 755.26 493.83 755.00 515.00 C 754.74 536.17 756.02 557.34 754.00 578.00
M 549.00 371.00 
C 578.82 355.84 619.75 376.00 628.76 408.25 C 637.76 440.50 617.59 473.97 583.00 482.00
C 584.86 492.08 584.73 501.54 585.80 511.25 C 586.87 520.95 585.98 530.28 587.33 540.67 C 588.68 551.06 587.01 557.99 588.78 568.22 C 590.55 578.46 584.58 588.89 572.00 588.00 C 559.41 587.11 544.97 588.44 532.00 588.00 C 519.03 587.56 503.98 588.30 491.00 588.00 C 478.02 587.70 462.53 588.35 450.00 588.00 C 437.47 587.65 424.62 590.00 416.70 584.29 C 408.77 578.57 411.76 567.14 411.93 557.93 C 412.09 548.71 413.19 539.14 413.80 529.75 C 414.41 520.37 413.54 512.10 415.00 502.00 C 416.46 491.90 416.84 481.14 407.75 479.81 C 398.66 478.47 393.84 472.30 386.30 466.70 C 378.77 461.09 374.82 450.21 371.24 442.75 C 367.67 435.29 369.72 423.93 369.80 415.75 C 369.88 407.58 374.39 399.59 378.90 391.90 C 383.41 384.22 393.18 376.33 399.77 372.43 C 406.35 368.53 412.63 367.73 422.03 366.98 C 431.42 366.23 441.67 366.77 451.00 371.00
C 467.81 331.38 528.87 332.42 549.00 371.00
M 760.00 583.00 
C 760.29 594.45 763.30 599.26 763.93 610.08 C 764.57 620.91 773.92 619.87 783.23 625.77 C 792.54 631.67 802.72 625.09 810.68 617.68 C 818.65 610.27 827.08 605.42 835.25 616.75 C 843.42 628.08 849.55 631.05 858.00 640.00
C 852.07 651.53 841.84 661.77 834.00 673.00
C 840.82 680.89 845.18 691.18 846.00 700.00
C 858.19 700.98 870.61 705.18 883.00 705.00
C 884.06 718.49 884.21 734.65 883.00 749.00
C 870.85 751.61 858.53 754.16 846.00 755.00
C 843.60 763.36 845.24 767.13 839.87 772.92 C 834.51 778.71 834.29 786.97 841.92 793.08 C 849.55 799.19 850.90 807.76 859.00 813.00
C 852.01 824.42 838.45 835.17 829.00 847.00
C 815.39 842.23 802.74 832.41 793.00 824.00
C 784.32 828.57 775.47 833.51 765.00 835.00
C 764.59 847.53 762.35 859.98 759.00 873.00
C 743.58 870.44 726.00 873.03 711.00 872.00
C 710.86 859.44 706.29 848.27 706.00 836.00
C 696.35 832.10 688.16 831.81 680.00 824.00
C 667.32 830.14 655.48 841.14 644.00 848.00
C 632.50 837.41 622.19 824.91 611.00 815.00
C 619.88 805.43 627.23 793.93 637.00 784.00
C 631.40 773.86 625.96 766.19 624.00 755.00
C 611.41 754.92 600.20 751.02 588.00 750.00
C 585.30 736.48 585.48 718.74 588.00 705.00
C 600.22 705.25 612.08 700.14 624.00 700.00
C 625.30 690.71 630.89 680.38 636.00 672.00
C 627.75 662.12 618.48 651.29 612.00 640.00
C 623.88 630.88 632.67 617.77 644.00 608.00
C 656.97 614.13 666.89 623.60 679.00 631.00
C 685.73 624.94 695.72 619.87 705.00 620.00
C 707.04 607.92 710.08 596.33 711.00 584.00
C 725.85 580.48 744.10 583.67 760.00 583.00
M 593.00 657.00 
C 606.51 657.55 615.77 681.54 597.32 685.32 C 578.88 689.10 555.74 684.94 536.00 686.00 C 516.26 687.06 491.45 685.93 472.00 686.00 C 452.55 686.07 425.91 686.88 408.00 686.00 C 390.09 685.12 366.57 692.55 363.61 674.25 C 360.64 655.95 384.08 656.95 402.00 658.00 C 419.92 659.05 446.34 657.17 466.00 658.00 C 485.66 658.83 509.71 656.85 530.00 658.00 C 550.29 659.15 573.07 656.19 593.00 657.00 Z"/>
</g>
<g fill="#000000" fill-opacity="0.99" stroke="None">
<path d="
M 754.00 578.00 
C 756.02 557.34 754.74 536.17 755.00 515.00 C 755.26 493.83 754.89 472.27 755.00 451.00 C 755.11 429.73 754.96 408.33 755.00 387.00 C 755.04 365.67 755.01 344.38 755.00 323.00 C 754.99 301.62 755.06 280.46 755.00 259.00 C 754.94 237.54 755.15 216.63 755.00 195.00 C 754.85 173.37 755.35 153.00 755.00 131.00 C 754.65 109.00 730.12 115.35 711.00 115.00 C 691.88 114.65 667.32 115.15 647.00 115.00 C 626.68 114.85 603.85 115.06 583.00 115.00 C 562.15 114.94 540.05 115.02 519.00 115.00 C 497.95 114.98 476.07 114.98 455.00 115.00 C 433.93 115.02 411.90 114.93 391.00 115.00 C 370.10 115.07 347.45 114.83 327.00 115.00 C 306.55 115.17 282.42 114.62 263.00 115.00 C 243.58 115.38 220.16 113.64 204.25 116.20 C 188.33 118.76 183.86 121.12 170.92 130.92 C 157.97 140.71 153.50 150.49 149.26 163.25 C 145.02 176.01 147.08 192.12 147.00 211.00 C 146.92 229.88 147.04 254.78 147.00 275.00 C 146.96 295.22 147.01 318.18 147.00 339.00 C 146.99 359.82 147.00 381.91 147.00 403.00 C 147.00 424.09 146.98 445.82 147.00 467.00 C 147.02 488.18 146.95 509.82 147.00 531.00 C 147.05 552.18 146.89 573.92 147.00 595.00 C 147.11 616.08 146.76 638.20 147.00 659.00 C 147.24 679.80 146.47 702.83 147.00 723.00 C 147.53 743.17 146.26 767.53 146.00 786.00 C 145.75 804.46 150.14 811.24 158.74 823.26 C 167.35 835.27 178.72 843.64 193.25 846.61 C 207.78 849.57 228.89 847.55 248.00 848.00 C 267.11 848.45 291.67 847.80 312.00 848.00 C 332.33 848.20 355.12 847.91 376.00 848.00 C 396.88 848.09 418.87 847.96 440.00 848.00 C 461.13 848.04 482.76 847.98 504.00 848.00 C 525.24 848.02 546.72 847.99 568.00 848.00 C 589.28 848.01 610.70 847.99 632.00 848.00
C 624.90 837.32 617.05 833.41 608.75 823.25 C 600.46 813.08 583.92 817.41 569.00 817.00 C 554.08 816.59 536.50 817.18 521.00 817.00 C 505.50 816.82 488.74 817.08 473.00 817.00 C 457.26 816.92 440.81 817.03 425.00 817.00 C 409.19 816.97 392.76 817.00 377.00 817.00 C 361.24 817.00 344.55 816.98 329.00 817.00 C 313.45 817.02 298.68 816.93 284.00 817.00
C 284.00 631.33 284.00 445.67 284.00 260.00
C 431.33 260.00 578.67 260.00 726.00 260.00
C 726.00 365.86 726.00 472.84 726.00 578.00
C 734.74 576.35 745.24 576.35 754.00 578.00
M 726.00 143.00 
C 724.34 171.74 724.33 202.28 726.00 231.00
C 696.65 230.99 667.36 231.02 638.00 231.00 C 608.64 230.98 578.27 231.03 549.00 231.00 C 519.73 230.97 488.92 231.07 460.00 231.00 C 431.08 230.93 400.15 231.15 372.00 231.00 C 343.85 230.85 309.53 231.33 283.00 231.00 C 256.47 230.67 225.38 233.41 205.75 227.24 C 186.13 221.08 178.07 207.16 176.80 188.75 C 175.53 170.34 183.39 152.13 203.75 146.41 C 224.12 140.69 255.27 143.40 282.00 143.00 C 308.73 142.60 342.75 143.18 371.00 143.00 C 399.25 142.82 430.02 143.08 459.00 143.00 C 487.98 142.92 518.65 143.04 548.00 143.00 C 577.35 142.96 607.50 143.02 637.00 143.00 C 666.50 142.98 696.46 143.01 726.00 143.00
M 254.00 260.00 
C 254.00 445.67 254.00 631.33 254.00 817.00
C 229.89 813.10 195.64 824.48 183.03 800.97 C 170.43 777.46 178.68 751.29 177.00 721.00 C 175.32 690.71 177.77 657.14 177.00 626.00 C 176.23 594.86 177.39 561.51 177.00 530.00 C 176.61 498.49 177.27 466.66 177.00 435.00 C 176.73 403.34 177.33 370.70 177.00 339.00 C 176.67 307.30 178.05 275.26 176.00 244.00
C 197.27 262.18 223.99 261.01 254.00 260.00 Z"/>
</g>
<g fill="#000000" fill-opacity="0.01" stroke="None">
<path d="
M 726.00 143.00 
C 696.46 143.01 666.50 142.98 637.00 143.00 C 607.50 143.02 577.35 142.96 548.00 143.00 C 518.65 143.04 487.98 142.92 459.00 143.00 C 430.02 143.08 399.25 142.82 371.00 143.00 C 342.75 143.18 308.73 142.60 282.00 143.00 C 255.27 143.40 224.12 140.69 203.75 146.41 C 183.39 152.13 175.53 170.34 176.80 188.75 C 178.07 207.16 186.13 221.08 205.75 227.24 C 225.38 233.41 256.47 230.67 283.00 231.00 C 309.53 231.33 343.85 230.85 372.00 231.00 C 400.15 231.15 431.08 230.93 460.00 231.00 C 488.92 231.07 519.73 230.97 549.00 231.00 C 578.27 231.03 608.64 230.98 638.00 231.00 C 667.36 231.02 696.65 230.99 726.00 231.00
C 724.33 202.28 724.34 171.74 726.00 143.00 Z"/>
</g>
<g fill="#000000" fill-opacity="0.00" stroke="None">
<path d="
M 254.00 260.00 
C 223.99 261.01 197.27 262.18 176.00 244.00
C 178.05 275.26 176.67 307.30 177.00 339.00 C 177.33 370.70 176.73 403.34 177.00 435.00 C 177.27 466.66 176.61 498.49 177.00 530.00 C 177.39 561.51 176.23 594.86 177.00 626.00 C 177.77 657.14 175.32 690.71 177.00 721.00 C 178.68 751.29 170.43 777.46 183.03 800.97 C 195.64 824.48 229.89 813.10 254.00 817.00
C 254.00 631.33 254.00 445.67 254.00 260.00 Z"/>
</g>
<g fill="#000000" fill-opacity="0.98" stroke="None">
<path d="
M 549.00 371.00 
C 528.87 332.42 467.81 331.38 451.00 371.00
C 441.67 366.77 431.42 366.23 422.03 366.98 C 412.63 367.73 406.35 368.53 399.77 372.43 C 393.18 376.33 383.41 384.22 378.90 391.90 C 374.39 399.59 369.88 407.58 369.80 415.75 C 369.72 423.93 367.67 435.29 371.24 442.75 C 374.82 450.21 378.77 461.09 386.30 466.70 C 393.84 472.30 398.66 478.47 407.75 479.81 C 416.84 481.14 416.46 491.90 415.00 502.00 C 413.54 512.10 414.41 520.37 413.80 529.75 C 413.19 539.14 412.09 548.71 411.93 557.93 C 411.76 567.14 408.77 578.57 416.70 584.29 C 424.62 590.00 437.47 587.65 450.00 588.00 C 462.53 588.35 478.02 587.70 491.00 588.00 C 503.98 588.30 519.03 587.56 532.00 588.00 C 544.97 588.44 559.41 587.11 572.00 588.00 C 584.58 588.89 590.55 578.46 588.78 568.22 C 587.01 557.99 588.68 551.06 587.33 540.67 C 585.98 530.28 586.87 520.95 585.80 511.25 C 584.73 501.54 584.86 492.08 583.00 482.00
C 617.59 473.97 637.76 440.50 628.76 408.25 C 619.75 376.00 578.82 355.84 549.00 371.00
M 559.00 557.00 
C 520.00 557.00 481.00 557.00 442.00 557.00
C 442.95 545.83 443.86 529.66 444.67 518.33 C 445.48 507.00 445.26 490.28 446.07 479.92 C 446.88 469.57 450.37 452.55 436.25 451.61 C 422.12 450.66 409.12 448.76 402.68 436.32 C 396.25 423.87 399.78 414.05 406.70 404.70 C 413.63 395.36 429.47 390.78 438.75 397.26 C 448.03 403.75 462.11 413.48 468.97 401.97 C 475.83 390.46 473.95 379.86 485.89 373.89 C 497.84 367.93 503.98 368.13 515.75 374.39 C 527.53 380.65 524.42 393.51 531.77 403.23 C 539.12 412.96 552.74 403.23 561.22 397.22 C 569.71 391.22 586.49 394.94 593.75 404.25 C 601.01 413.56 603.95 424.10 597.29 436.30 C 590.63 448.50 578.14 450.77 564.33 450.33 C 550.51 449.89 553.89 470.02 554.35 479.69 C 554.82 489.36 556.11 506.28 556.99 518.01 C 557.87 529.73 556.45 543.86 559.00 557.00 Z"/>
</g>
<g fill="#000000" fill-opacity="0.01" stroke="None">
<path d="
M 559.00 557.00 
C 556.45 543.86 557.87 529.73 556.99 518.01 C 556.11 506.28 554.82 489.36 554.35 479.69 C 553.89 470.02 550.51 449.89 564.33 450.33 C 578.14 450.77 590.63 448.50 597.29 436.30 C 603.95 424.10 601.01 413.56 593.75 404.25 C 586.49 394.94 569.71 391.22 561.22 397.22 C 552.74 403.23 539.12 412.96 531.77 403.23 C 524.42 393.51 527.53 380.65 515.75 374.39 C 503.98 368.13 497.84 367.93 485.89 373.89 C 473.95 379.86 475.83 390.46 468.97 401.97 C 462.11 413.48 448.03 403.75 438.75 397.26 C 429.47 390.78 413.63 395.36 406.70 404.70 C 399.78 414.05 396.25 423.87 402.68 436.32 C 409.12 448.76 422.12 450.66 436.25 451.61 C 450.37 452.55 446.88 469.57 446.07 479.92 C 445.26 490.28 445.48 507.00 444.67 518.33 C 443.86 529.66 442.95 545.83 442.00 557.00
C 481.00 557.00 520.00 557.00 559.00 557.00 Z"/>
</g>
<g fill="#000000" fill-opacity="0.96" stroke="None">
<path d="
M 760.00 583.00 
C 744.10 583.67 725.85 580.48 711.00 584.00
C 710.08 596.33 707.04 607.92 705.00 620.00
C 695.72 619.87 685.73 624.94 679.00 631.00
C 666.89 623.60 656.97 614.13 644.00 608.00
C 632.67 617.77 623.88 630.88 612.00 640.00
C 618.48 651.29 627.75 662.12 636.00 672.00
C 630.89 680.38 625.30 690.71 624.00 700.00
C 612.08 700.14 600.22 705.25 588.00 705.00
C 585.48 718.74 585.30 736.48 588.00 750.00
C 600.20 751.02 611.41 754.92 624.00 755.00
C 625.96 766.19 631.40 773.86 637.00 784.00
C 627.23 793.93 619.88 805.43 611.00 815.00
C 622.19 824.91 632.50 837.41 644.00 848.00
C 655.48 841.14 667.32 830.14 680.00 824.00
C 688.16 831.81 696.35 832.10 706.00 836.00
C 706.29 848.27 710.86 859.44 711.00 872.00
C 726.00 873.03 743.58 870.44 759.00 873.00
C 762.35 859.98 764.59 847.53 765.00 835.00
C 775.47 833.51 784.32 828.57 793.00 824.00
C 802.74 832.41 815.39 842.23 829.00 847.00
C 838.45 835.17 852.01 824.42 859.00 813.00
C 850.90 807.76 849.55 799.19 841.92 793.08 C 834.29 786.97 834.51 778.71 839.87 772.92 C 845.24 767.13 843.60 763.36 846.00 755.00
C 858.53 754.16 870.85 751.61 883.00 749.00
C 884.21 734.65 884.06 718.49 883.00 705.00
C 870.61 705.18 858.19 700.98 846.00 700.00
C 845.18 691.18 840.82 680.89 834.00 673.00
C 841.84 661.77 852.07 651.53 858.00 640.00
C 849.55 631.05 843.42 628.08 835.25 616.75 C 827.08 605.42 818.65 610.27 810.68 617.68 C 802.72 625.09 792.54 631.67 783.23 625.77 C 773.92 619.87 764.57 620.91 763.93 610.08 C 763.30 599.26 760.29 594.45 760.00 583.00
M 749.00 594.00 
C 747.43 603.31 753.38 610.43 752.60 620.75 C 751.83 631.07 762.02 632.05 770.75 634.26 C 779.49 636.48 789.67 648.81 797.74 641.74 C 805.82 634.68 815.31 629.56 824.00 623.00
C 829.91 629.52 835.58 636.45 842.00 641.00
C 834.70 653.13 825.70 660.52 819.00 673.00
C 827.01 682.72 835.09 697.11 835.00 711.00
C 847.66 713.04 859.10 715.08 871.00 717.00
C 870.31 723.53 871.47 731.72 871.00 739.00
C 858.20 739.55 847.96 743.32 835.00 743.00
C 833.86 758.80 826.61 771.64 817.00 783.00
C 826.44 792.64 832.81 803.15 842.00 813.00
C 837.47 819.92 830.16 827.40 825.00 832.00
C 813.42 823.75 802.35 816.55 792.00 809.00
C 779.88 815.87 770.04 821.96 755.00 823.00
C 752.55 836.14 750.27 848.03 749.00 862.00
C 740.56 861.39 729.89 861.78 722.00 862.00
C 721.65 849.37 718.67 835.99 716.00 823.00
C 702.39 822.42 691.16 818.11 680.00 809.00
C 667.75 814.24 656.26 825.86 645.00 832.00
C 639.51 825.64 633.75 819.21 628.00 814.00
C 636.83 803.05 647.04 793.62 653.00 781.00
C 641.26 770.62 636.68 757.30 635.00 743.00
C 621.67 743.56 610.37 740.45 598.00 738.00
C 600.67 731.18 597.40 722.85 600.00 716.00
C 610.93 716.43 622.80 711.11 634.00 712.00
C 637.32 695.46 642.80 685.48 652.00 671.00
C 642.92 662.65 635.81 651.92 628.00 641.00
C 633.71 635.31 642.13 630.44 646.00 623.00
C 654.14 630.74 666.19 636.35 673.75 642.39 C 681.32 648.44 689.45 636.95 697.75 634.75 C 706.04 632.54 718.94 631.86 718.64 621.30 C 718.35 610.75 723.09 604.16 722.00 594.00
C 730.75 596.41 740.71 594.22 749.00 594.00 Z"/>
</g>
<g fill="#000000" fill-opacity="0.01" stroke="None">
<path d="
M 749.00 594.00 
C 740.71 594.22 730.75 596.41 722.00 594.00
C 723.09 604.16 718.35 610.75 718.64 621.30 C 718.94 631.86 706.04 632.54 697.75 634.75 C 689.45 636.95 681.32 648.44 673.75 642.39 C 666.19 636.35 654.14 630.74 646.00 623.00
C 642.13 630.44 633.71 635.31 628.00 641.00
C 635.81 651.92 642.92 662.65 652.00 671.00
C 642.80 685.48 637.32 695.46 634.00 712.00
C 622.80 711.11 610.93 716.43 600.00 716.00
C 597.40 722.85 600.67 731.18 598.00 738.00
C 610.37 740.45 621.67 743.56 635.00 743.00
C 636.68 757.30 641.26 770.62 653.00 781.00
C 647.04 793.62 636.83 803.05 628.00 814.00
C 633.75 819.21 639.51 825.64 645.00 832.00
C 656.26 825.86 667.75 814.24 680.00 809.00
C 691.16 818.11 702.39 822.42 716.00 823.00
C 718.67 835.99 721.65 849.37 722.00 862.00
C 729.89 861.78 740.56 861.39 749.00 862.00
C 750.27 848.03 752.55 836.14 755.00 823.00
C 770.04 821.96 779.88 815.87 792.00 809.00
C 802.35 816.55 813.42 823.75 825.00 832.00
C 830.16 827.40 837.47 819.92 842.00 813.00
C 832.81 803.15 826.44 792.64 817.00 783.00
C 826.61 771.64 833.86 758.80 835.00 743.00
C 847.96 743.32 858.20 739.55 871.00 739.00
C 871.47 731.72 870.31 723.53 871.00 717.00
C 859.10 715.08 847.66 713.04 835.00 711.00
C 835.09 697.11 827.01 682.72 819.00 673.00
C 825.70 660.52 834.70 653.13 842.00 641.00
C 835.58 636.45 829.91 629.52 824.00 623.00
C 815.31 629.56 805.82 634.68 797.74 641.74 C 789.67 648.81 779.49 636.48 770.75 634.26 C 762.02 632.05 751.83 631.07 752.60 620.75 C 753.38 610.43 747.43 603.31 749.00 594.00
M 739.00 640.00 
C 741.90 643.59 741.52 647.05 741.00 650.00
C 735.66 653.81 731.41 650.60 729.00 648.00
C 729.34 644.37 732.03 643.12 733.00 640.00
C 734.94 640.74 736.98 640.68 739.00 640.00
M 678.00 675.00 
C 674.21 674.26 673.33 673.66 670.00 672.00
C 670.31 669.12 670.61 666.08 672.00 663.00
C 679.22 659.55 685.73 669.15 678.00 675.00
M 799.00 665.00 
C 800.36 671.50 794.43 677.51 788.00 673.00
C 788.42 670.34 786.46 667.75 788.00 664.00
C 792.25 662.61 794.36 662.18 799.00 665.00
M 740.00 665.00 
C 769.57 669.36 799.19 695.64 797.00 730.00 C 794.81 764.36 765.90 790.14 732.33 788.33 C 698.76 786.52 672.17 755.64 674.76 724.75 C 677.34 693.86 705.06 659.84 740.00 665.00
M 825.00 726.00 
C 823.95 728.01 823.02 729.98 822.00 732.00
C 813.26 734.57 809.10 724.46 816.00 720.00
C 820.71 721.00 822.18 722.30 825.00 726.00
M 659.00 723.00 
C 661.03 730.51 652.85 736.24 647.00 729.00
C 647.88 727.28 647.75 725.80 647.00 724.00
C 650.41 720.97 655.59 720.17 659.00 723.00
M 681.00 791.00 
C 673.54 796.22 667.20 787.27 672.00 781.00
C 678.08 777.74 684.23 785.29 681.00 791.00
M 799.00 783.00 
C 798.20 785.73 799.58 789.29 797.00 792.00
C 794.38 791.03 790.93 792.70 788.00 791.00
C 788.29 788.91 787.84 786.96 787.00 784.00
C 790.76 780.07 795.19 779.87 799.00 783.00
M 739.00 803.00 
C 742.97 806.91 741.79 812.03 737.00 815.00
C 732.17 813.84 730.16 811.97 729.00 807.00
C 730.96 806.72 730.99 804.95 732.00 803.00
C 734.16 803.63 736.77 803.60 739.00 803.00 Z"/>
</g>
<g fill="#000000" fill-opacity="0.89" stroke="None">
<path d="
M 739.00 640.00 
C 736.98 640.68 734.94 640.74 733.00 640.00
C 732.03 643.12 729.34 644.37 729.00 648.00
C 731.41 650.60 735.66 653.81 741.00 650.00
C 741.52 647.05 741.90 643.59 739.00 640.00 Z"/>
</g>
<g fill="#000000" fill-opacity="0.99" stroke="None">
<path d="
M 593.00 657.00 
C 573.07 656.19 550.29 659.15 530.00 658.00 C 509.71 656.85 485.66 658.83 466.00 658.00 C 446.34 657.17 419.92 659.05 402.00 658.00 C 384.08 656.95 360.64 655.95 363.61 674.25 C 366.57 692.55 390.09 685.12 408.00 686.00 C 425.91 686.88 452.55 686.07 472.00 686.00 C 491.45 685.93 516.26 687.06 536.00 686.00 C 555.74 684.94 578.88 689.10 597.32 685.32 C 615.77 681.54 606.51 657.55 593.00 657.00 Z"/>
</g>
<g fill="#000000" fill-opacity="0.91" stroke="None">
<path d="
M 678.00 675.00 
C 685.73 669.15 679.22 659.55 672.00 663.00
C 670.61 666.08 670.31 669.12 670.00 672.00
C 673.33 673.66 674.21 674.26 678.00 675.00 Z"/>
</g>
<g fill="#000000" fill-opacity="0.89" stroke="None">
<path d="
M 799.00 665.00 
C 794.36 662.18 792.25 662.61 788.00 664.00
C 786.46 667.75 788.42 670.34 788.00 673.00
C 794.43 677.51 800.36 671.50 799.00 665.00 Z"/>
</g>
<g fill="#000000" fill-opacity="0.96" stroke="None">
<path d="
M 740.00 665.00 
C 705.06 659.84 677.34 693.86 674.76 724.75 C 672.17 755.64 698.76 786.52 732.33 788.33 C 765.90 790.14 794.81 764.36 797.00 730.00 C 799.19 695.64 769.57 669.36 740.00 665.00
M 728.00 677.00 
C 764.25 672.33 797.52 709.46 782.61 745.75 C 767.69 782.05 713.70 786.45 694.03 754.97 C 674.37 723.48 691.63 681.69 728.00 677.00 Z"/>
</g>
<g fill="#000000" fill-opacity="0.07" stroke="None">
<path d="
M 728.00 677.00 
C 691.63 681.69 674.37 723.48 694.03 754.97 C 713.70 786.45 767.69 782.05 782.61 745.75 C 797.52 709.46 764.25 672.33 728.00 677.00
M 730.00 683.00 
C 758.22 678.34 790.43 711.74 777.61 741.75 C 764.78 771.76 723.37 781.27 702.70 756.30 C 682.04 731.33 694.08 688.93 730.00 683.00 Z"/>
</g>
<g fill="#000000" fill-opacity="0.96" stroke="None">
<path d="
M 730.00 683.00 
C 694.08 688.93 682.04 731.33 702.70 756.30 C 723.37 781.27 764.78 771.76 777.61 741.75 C 790.43 711.74 758.22 678.34 730.00 683.00
M 729.00 695.00 
C 754.85 690.18 774.03 718.14 765.24 739.25 C 756.46 760.36 729.17 767.92 712.90 751.09 C 696.63 734.27 703.37 699.77 729.00 695.00 Z"/>
</g>
<g fill="#000000" fill-opacity="0.01" stroke="None">
<path d="
M 729.00 695.00 
C 703.37 699.77 696.63 734.27 712.90 751.09 C 729.17 767.92 756.46 760.36 765.24 739.25 C 774.03 718.14 754.85 690.18 729.00 695.00 Z"/>
</g>
<g fill="#000000" fill-opacity="0.93" stroke="None">
<path d="
M 825.00 726.00 
C 822.18 722.30 820.71 721.00 816.00 720.00
C 809.10 724.46 813.26 734.57 822.00 732.00
C 823.02 729.98 823.95 728.01 825.00 726.00 Z"/>
</g>
<g fill="#000000" fill-opacity="0.92" stroke="None">
<path d="
M 659.00 723.00 
C 655.59 720.17 650.41 720.97 647.00 724.00
C 647.75 725.80 647.88 727.28 647.00 729.00
C 652.85 736.24 661.03 730.51 659.00 723.00 Z"/>
</g>
<g fill="#000000" fill-opacity="0.91" stroke="None">
<path d="
M 681.00 791.00 
C 684.23 785.29 678.08 777.74 672.00 781.00
C 667.20 787.27 673.54 796.22 681.00 791.00 Z"/>
</g>
<g fill="#000000" fill-opacity="0.93" stroke="None">
<path d="
M 799.00 783.00 
C 795.19 779.87 790.76 780.07 787.00 784.00
C 787.84 786.96 788.29 788.91 788.00 791.00
C 790.93 792.70 794.38 791.03 797.00 792.00
C 799.58 789.29 798.20 785.73 799.00 783.00 Z"/>
</g>
<g fill="#000000" fill-opacity="0.88" stroke="None">
<path d="
M 739.00 803.00 
C 736.77 803.60 734.16 803.63 732.00 803.00
C 730.99 804.95 730.96 806.72 729.00 807.00
C 730.16 811.97 732.17 813.84 737.00 815.00
C 741.79 812.03 742.97 806.91 739.00 803.00 Z"/>
</g>
</svg>