<svg xmlns="http://www.w3.org/2000/svg" xmlns:v="https://svgstorm.com"
viewBox = "0 0 1536 1024"
width="1536"
height="1024">
<g fill="None" fill-opacity="0.0" stroke="#000000" stroke-opacity="0.00" stroke-width="0.3"><path d="
M 0.00 1024.00 
L 1536.00 1024.00
L 1536.00 0.00
L 0.00 0.00
L 0.00 1024.00
M 1012.00 566.00 
C 1002.58 564.34 991.40 564.35 982.00 566.00
C 979.67 463.84 981.66 360.58 981.00 258.00
C 837.33 258.00 693.67 258.00 550.00 258.00
C 550.00 436.00 550.00 614.00 550.00 792.00
C 660.58 791.33 771.84 793.33 882.00 791.00
C 882.00 805.00 882.00 819.00 882.00 833.00
C 862.30 831.01 842.18 832.24 822.00 832.00 C 801.82 831.76 781.28 832.09 761.00 832.00 C 740.72 831.91 719.24 832.00 699.00 832.00 C 678.76 832.00 658.01 831.92 638.00 832.00 C 617.99 832.08 595.47 831.78 576.00 832.00 C 556.53 832.22 533.19 831.49 515.00 832.00 C 496.81 832.51 481.06 834.26 467.25 829.61 C 453.43 824.95 445.93 820.62 435.70 808.30 C 425.47 795.98 420.76 789.07 420.80 772.75 C 420.84 756.43 421.11 730.64 421.00 712.00 C 420.89 693.36 421.05 669.64 421.00 650.00 C 420.95 630.36 421.02 609.11 421.00 589.00 C 420.98 568.89 421.01 547.29 421.00 527.00 C 420.99 506.71 420.99 486.33 421.00 466.00 C 421.01 445.67 420.98 424.26 421.00 404.00 C 421.02 383.74 420.95 363.02 421.00 343.00 C 421.05 322.98 420.89 300.48 421.00 281.00 C 421.11 261.52 420.75 238.20 421.00 220.00 C 421.25 201.80 418.86 184.16 423.98 170.97 C 429.09 157.79 433.47 150.20 446.10 140.10 C 458.73 130.00 466.79 126.53 482.75 124.61 C 498.71 122.68 522.24 124.46 541.00 124.00 C 559.76 123.54 583.32 124.20 603.00 124.00 C 622.68 123.80 643.91 124.08 664.00 124.00 C 684.09 123.92 705.78 124.01 726.00 124.00 C 746.22 123.99 766.85 123.95 787.00 124.00 C 807.15 124.05 829.14 123.85 849.00 124.00 C 868.86 124.15 890.89 123.64 910.00 124.00 C 929.11 124.36 954.52 123.21 972.00 124.00 C 989.48 124.79 1010.75 118.43 1011.93 137.08 C 1013.12 155.73 1009.59 178.35 1011.00 198.00 C 1012.41 217.65 1011.86 237.79 1012.00 258.00 C 1012.14 278.21 1011.94 299.63 1012.00 320.00 C 1012.06 340.37 1011.97 360.55 1012.00 381.00 C 1012.03 401.45 1011.99 422.51 1012.00 443.00 C 1012.01 463.49 1011.99 483.48 1012.00 504.00 C 1012.01 524.52 1011.99 545.44 1012.00 566.00
M 823.00 359.00 
C 851.92 345.84 890.14 359.68 902.32 390.68 C 914.51 421.68 889.64 455.48 859.00 461.00
C 861.84 476.79 859.70 486.34 861.98 502.03 C 864.26 517.71 860.98 528.82 864.60 545.75 C 868.22 562.67 858.43 574.34 839.00 571.00 C 819.57 567.66 798.55 572.71 780.00 571.00 C 761.45 569.29 738.98 572.18 722.00 571.00 C 705.02 569.82 685.55 575.87 683.07 558.92 C 680.58 541.96 685.34 523.94 684.93 507.92 C 684.52 491.91 685.57 475.30 686.00 460.00
C 653.13 457.48 631.65 418.94 643.59 389.25 C 655.53 359.56 694.12 345.83 723.00 359.00
C 736.99 320.29 804.72 318.24 823.00 359.00
M 1106.00 569.00 
C 1120.45 570.40 1127.91 574.99 1139.25 584.75 C 1150.58 594.51 1156.53 605.67 1168.75 615.25 C 1180.97 624.83 1189.51 632.56 1187.00 651.00 C 1184.49 669.44 1188.23 691.42 1187.00 710.00 C 1185.77 728.58 1187.80 752.09 1187.00 770.00 C 1186.20 787.91 1189.86 810.93 1186.80 826.25 C 1183.75 841.56 1178.28 848.53 1166.70 855.71 C 1155.12 862.89 1140.68 860.59 1123.00 861.00 C 1105.32 861.41 1081.61 860.88 1063.00 861.00 C 1044.39 861.12 1021.62 861.10 1003.00 861.00 C 984.38 860.90 961.79 861.39 944.00 861.00 C 926.21 860.61 915.29 862.32 903.11 851.89 C 890.92 841.47 888.13 832.94 887.00 816.00 C 885.88 799.05 888.18 775.24 888.00 757.00 C 887.82 738.76 887.70 716.69 888.00 698.00 C 888.30 679.31 887.03 656.38 888.00 638.00 C 888.97 619.62 883.71 602.62 892.31 588.30 C 900.90 573.99 910.06 571.04 927.00 570.00 C 943.94 568.96 967.32 568.52 986.00 569.00 C 1004.68 569.48 1026.75 568.12 1046.00 569.00 C 1065.25 569.88 1086.68 567.13 1106.00 569.00
M 637.00 636.00 
C 649.40 632.19 665.82 637.59 680.00 636.00 C 694.18 634.41 711.43 636.58 726.00 636.00 C 740.57 635.42 757.56 635.96 772.00 636.00 C 786.44 636.04 804.28 635.32 818.00 636.00 C 831.72 636.68 849.57 633.59 860.70 637.31 C 871.83 641.02 869.69 659.17 858.25 661.59 C 846.82 664.02 829.88 662.87 816.00 663.00 C 802.12 663.13 784.51 663.03 770.00 663.00 C 755.49 662.97 738.59 663.21 724.00 663.00 C 709.41 662.79 692.18 663.53 678.00 663.00 C 663.82 662.47 647.76 665.00 635.75 661.20 C 623.74 657.39 626.71 639.16 637.00 636.00 Z"/>
</g>
<g fill="None" fill-opacity="0.0" stroke="#000000" stroke-opacity="0.99" stroke-width="0.3"><path d="
M 1012.00 566.00 
C 1011.99 545.44 1012.01 524.52 1012.00 504.00 C 1011.99 483.48 1012.01 463.49 1012.00 443.00 C 1011.99 422.51 1012.03 401.45 1012.00 381.00 C 1011.97 360.55 1012.06 340.37 1012.00 320.00 C 1011.94 299.63 1012.14 278.21 1012.00 258.00 C 1011.86 237.79 1012.41 217.65 1011.00 198.00 C 1009.59 178.35 1013.12 155.73 1011.93 137.08 C 1010.75 118.43 989.48 124.79 972.00 124.00 C 954.52 123.21 929.11 124.36 910.00 124.00 C 890.89 123.64 868.86 124.15 849.00 124.00 C 829.14 123.85 807.15 124.05 787.00 124.00 C 766.85 123.95 746.22 123.99 726.00 124.00 C 705.78 124.01 684.09 123.92 664.00 124.00 C 643.91 124.08 622.68 123.80 603.00 124.00 C 583.32 124.20 559.76 123.54 541.00 124.00 C 522.24 124.46 498.71 122.68 482.75 124.61 C 466.79 126.53 458.73 130.00 446.10 140.10 C 433.47 150.20 429.09 157.79 423.98 170.97 C 418.86 184.16 421.25 201.80 421.00 220.00 C 420.75 238.20 421.11 261.52 421.00 281.00 C 420.89 300.48 421.05 322.98 421.00 343.00 C 420.95 363.02 421.02 383.74 421.00 404.00 C 420.98 424.26 421.01 445.67 421.00 466.00 C 420.99 486.33 420.99 506.71 421.00 527.00 C 421.01 547.29 420.98 568.89 421.00 589.00 C 421.02 609.11 420.95 630.36 421.00 650.00 C 421.05 669.64 420.89 693.36 421.00 712.00 C 421.11 730.64 420.84 756.43 420.80 772.75 C 420.76 789.07 425.47 795.98 435.70 808.30 C 445.93 820.62 453.43 824.95 467.25 829.61 C 481.06 834.26 496.81 832.51 515.00 832.00 C 533.19 831.49 556.53 832.22 576.00 832.00 C 595.47 831.78 617.99 832.08 638.00 832.00 C 658.01 831.92 678.76 832.00 699.00 832.00 C 719.24 832.00 740.72 831.91 761.00 832.00 C 781.28 832.09 801.82 831.76 822.00 832.00 C 842.18 832.24 862.30 831.01 882.00 833.00
C 882.00 819.00 882.00 805.00 882.00 791.00
C 771.84 793.33 660.58 791.33 550.00 792.00
C 550.00 614.00 550.00 436.00 550.00 258.00
C 693.67 258.00 837.33 258.00 981.00 258.00
C 981.66 360.58 979.67 463.84 982.00 566.00
C 991.40 564.35 1002.58 564.34 1012.00 566.00
M 981.00 155.00 
C 981.00 179.33 981.00 203.67 981.00 228.00
C 947.28 227.91 912.49 228.10 878.00 228.00 C 843.51 227.90 806.37 228.18 772.00 228.00 C 737.63 227.82 699.62 228.37 666.00 228.00 C 632.38 227.63 591.71 228.82 560.00 228.00 C 528.29 227.18 492.57 232.64 470.90 221.09 C 449.23 209.55 446.35 176.40 469.03 163.03 C 491.71 149.67 524.91 155.91 557.00 155.00 C 589.09 154.09 629.14 155.42 663.00 155.00 C 696.86 154.58 734.35 155.19 769.00 155.00 C 803.65 154.81 840.03 155.10 875.00 155.00 C 909.98 154.90 945.93 155.08 981.00 155.00
M 520.00 258.00 
C 520.00 436.00 520.00 614.00 520.00 792.00
C 494.96 791.03 460.96 794.34 453.23 764.77 C 445.50 735.20 451.22 701.53 450.00 668.00 C 448.78 634.47 452.04 597.51 451.00 563.00 C 449.96 528.49 451.56 491.78 451.00 457.00 C 450.44 422.22 451.45 385.69 451.00 351.00 C 450.55 316.31 452.08 281.46 450.00 248.00
C 467.22 259.09 494.51 260.38 520.00 258.00 Z"/>
</g>
<g fill="None" fill-opacity="0.0" stroke="#000000" stroke-opacity="0.02" stroke-width="0.3"><path d="
M 981.00 155.00 
C 945.93 155.08 909.98 154.90 875.00 155.00 C 840.03 155.10 803.65 154.81 769.00 155.00 C 734.35 155.19 696.86 154.58 663.00 155.00 C 629.14 155.42 589.09 154.09 557.00 155.00 C 524.91 155.91 491.71 149.67 469.03 163.03 C 446.35 176.40 449.23 209.55 470.90 221.09 C 492.57 232.64 528.29 227.18 560.00 228.00 C 591.71 228.82 632.38 227.63 666.00 228.00 C 699.62 228.37 737.63 227.82 772.00 228.00 C 806.37 228.18 843.51 227.90 878.00 228.00 C 912.49 228.10 947.28 227.91 981.00 228.00
C 981.00 203.67 981.00 179.33 981.00 155.00 Z"/>
</g>
<g fill="None" fill-opacity="0.0" stroke="#000000" stroke-opacity="0.02" stroke-width="0.3"><path d="
M 520.00 258.00 
C 494.51 260.38 467.22 259.09 450.00 248.00
C 452.08 281.46 450.55 316.31 451.00 351.00 C 451.45 385.69 450.44 422.22 451.00 457.00 C 451.56 491.78 449.96 528.49 451.00 563.00 C 452.04 597.51 448.78 634.47 450.00 668.00 C 451.22 701.53 445.50 735.20 453.23 764.77 C 460.96 794.34 494.96 791.03 520.00 792.00
C 520.00 614.00 520.00 436.00 520.00 258.00 Z"/>
</g>
<g fill="None" fill-opacity="0.0" stroke="#000000" stroke-opacity="0.98" stroke-width="0.3"><path d="
M 823.00 359.00 
C 804.72 318.24 736.99 320.29 723.00 359.00
C 694.12 345.83 655.53 359.56 643.59 389.25 C 631.65 418.94 653.13 457.48 686.00 460.00
C 685.57 475.30 684.52 491.91 684.93 507.92 C 685.34 523.94 680.58 541.96 683.07 558.92 C 685.55 575.87 705.02 569.82 722.00 571.00 C 738.98 572.18 761.45 569.29 780.00 571.00 C 798.55 572.71 819.57 567.66 839.00 571.00 C 858.43 574.34 868.22 562.67 864.60 545.75 C 860.98 528.82 864.26 517.71 861.98 502.03 C 859.70 486.34 861.84 476.79 859.00 461.00
C 889.64 455.48 914.51 421.68 902.32 390.68 C 890.14 359.68 851.92 345.84 823.00 359.00
M 833.00 541.00 
C 793.67 541.00 754.33 541.00 715.00 541.00
C 716.54 525.67 715.28 510.34 716.02 494.97 C 716.77 479.60 717.39 465.37 718.00 450.00 C 718.61 434.63 702.64 436.13 691.30 433.69 C 679.96 431.25 668.17 418.38 670.93 404.93 C 673.68 391.47 682.66 385.16 696.03 383.02 C 709.39 380.88 715.31 394.89 728.25 397.80 C 741.18 400.71 743.10 385.62 746.30 375.30 C 749.50 364.98 766.69 355.61 777.75 359.39 C 788.82 363.18 801.83 370.16 801.80 384.25 C 801.77 398.33 819.40 401.25 827.75 390.75 C 836.10 380.25 852.24 381.89 861.70 386.31 C 871.15 390.73 879.33 405.80 873.61 416.75 C 867.89 427.70 857.46 437.04 843.31 435.35 C 829.15 433.67 826.28 449.34 829.00 462.00 C 831.72 474.66 827.97 491.35 830.07 504.07 C 832.17 516.80 830.57 527.45 833.00 541.00 Z"/>
</g>
<g fill="None" fill-opacity="0.0" stroke="#000000" stroke-opacity="0.00" stroke-width="0.3"><path d="
M 833.00 541.00 
C 830.57 527.45 832.17 516.80 830.07 504.07 C 827.97 491.35 831.72 474.66 829.00 462.00 C 826.28 449.34 829.15 433.67 843.31 435.35 C 857.46 437.04 867.89 427.70 873.61 416.75 C 879.33 405.80 871.15 390.73 861.70 386.31 C 852.24 381.89 836.10 380.25 827.75 390.75 C 819.40 401.25 801.77 398.33 801.80 384.25 C 801.83 370.16 788.82 363.18 777.75 359.39 C 766.69 355.61 749.50 364.98 746.30 375.30 C 743.10 385.62 741.18 400.71 728.25 397.80 C 715.31 394.89 709.39 380.88 696.03 383.02 C 682.66 385.16 673.68 391.47 670.93 404.93 C 668.17 418.38 679.96 431.25 691.30 433.69 C 702.64 436.13 718.61 434.63 718.00 450.00 C 717.39 465.37 716.77 479.60 716.02 494.97 C 715.28 510.34 716.54 525.67 715.00 541.00
C 754.33 541.00 793.67 541.00 833.00 541.00 Z"/>
</g>
<g fill="None" fill-opacity="0.0" stroke="#000000" stroke-opacity="0.98" stroke-width="0.3"><path d="
M 1106.00 569.00 
C 1086.68 567.13 1065.25 569.88 1046.00 569.00 C 1026.75 568.12 1004.68 569.48 986.00 569.00 C 967.32 568.52 943.94 568.96 927.00 570.00 C 910.06 571.04 900.90 573.99 892.31 588.30 C 883.71 602.62 888.97 619.62 888.00 638.00 C 887.03 656.38 888.30 679.31 888.00 698.00 C 887.70 716.69 887.82 738.76 888.00 757.00 C 888.18 775.24 885.88 799.05 887.00 816.00 C 888.13 832.94 890.92 841.47 903.11 851.89 C 915.29 862.32 926.21 860.61 944.00 861.00 C 961.79 861.39 984.38 860.90 1003.00 861.00 C 1021.62 861.10 1044.39 861.12 1063.00 861.00 C 1081.61 860.88 1105.32 861.41 1123.00 861.00 C 1140.68 860.59 1155.12 862.89 1166.70 855.71 C 1178.28 848.53 1183.75 841.56 1186.80 826.25 C 1189.86 810.93 1186.20 787.91 1187.00 770.00 C 1187.80 752.09 1185.77 728.58 1187.00 710.00 C 1188.23 691.42 1184.49 669.44 1187.00 651.00 C 1189.51 632.56 1180.97 624.83 1168.75 615.25 C 1156.53 605.67 1150.58 594.51 1139.25 584.75 C 1127.91 574.99 1120.45 570.40 1106.00 569.00
M 936.00 590.00 
C 935.97 608.59 936.04 635.22 936.00 653.00 C 935.96 670.78 942.21 679.06 959.67 678.67 C 977.13 678.28 1003.36 677.64 1022.00 678.00 C 1040.64 678.36 1068.06 677.61 1086.00 678.00 C 1103.94 678.39 1121.45 681.33 1124.77 661.77 C 1128.10 642.22 1122.72 618.58 1125.00 600.00
C 1135.16 610.33 1138.58 616.79 1151.25 626.75 C 1163.92 636.72 1164.21 652.19 1163.00 669.00 C 1161.79 685.81 1163.74 705.87 1163.00 723.00 C 1162.25 740.13 1163.76 759.03 1163.00 776.00 C 1162.24 792.97 1164.84 811.42 1161.74 826.75 C 1158.64 842.07 1140.41 836.85 1128.00 839.00
C 1128.75 814.84 1130.28 787.30 1129.00 763.00 C 1127.72 738.70 1103.45 743.60 1082.00 744.00 C 1060.55 744.40 1025.22 743.08 1004.00 744.00 C 982.78 744.92 952.21 735.76 949.07 761.08 C 945.94 786.40 951.28 813.51 949.00 839.00
C 933.01 838.40 911.51 842.75 910.20 821.75 C 908.89 800.75 910.72 777.38 910.00 756.00 C 909.28 734.62 910.90 711.35 910.00 690.00 C 909.10 668.65 911.67 644.89 910.00 624.00 C 908.33 603.11 912.77 586.59 936.00 590.00
M 1035.00 590.00 
C 1034.96 604.02 1035.40 618.99 1034.00 632.00
C 1045.10 639.59 1064.18 632.76 1078.00 635.00
C 1079.70 620.57 1079.61 604.43 1078.00 590.00
C 1083.86 591.38 1091.18 591.81 1097.00 590.00
C 1100.10 608.98 1095.93 633.56 1099.00 654.00
C 1090.63 658.19 1079.21 655.52 1068.00 656.00 C 1056.79 656.48 1043.43 655.85 1032.00 656.00 C 1020.57 656.15 1008.39 656.10 997.00 656.00 C 985.61 655.90 974.47 656.55 964.00 657.00
C 958.50 648.63 961.70 636.13 961.00 625.00 C 960.30 613.87 961.64 600.58 961.00 590.00
C 984.83 590.05 1010.47 589.97 1035.00 590.00
M 1104.00 768.00 
C 1103.95 790.83 1104.03 815.47 1104.00 839.00
C 1060.33 839.00 1016.67 839.00 973.00 839.00
C 972.78 816.61 973.34 791.25 973.00 769.00
C 984.46 763.45 999.61 766.37 1014.00 766.00 C 1028.39 765.63 1046.50 765.86 1061.00 766.00 C 1075.50 766.14 1091.86 764.34 1104.00 768.00 Z"/>
</g>
<g fill="None" fill-opacity="0.0" stroke="#000000" stroke-opacity="0.01" stroke-width="0.3"><path d="
M 936.00 590.00 
C 912.77 586.59 908.33 603.11 910.00 624.00 C 911.67 644.89 909.10 668.65 910.00 690.00 C 910.90 711.35 909.28 734.62 910.00 756.00 C 910.72 777.38 908.89 800.75 910.20 821.75 C 911.51 842.75 933.01 838.40 949.00 839.00
C 951.28 813.51 945.94 786.40 949.07 761.08 C 952.21 735.76 982.78 744.92 1004.00 744.00 C 1025.22 743.08 1060.55 744.40 1082.00 744.00 C 1103.45 743.60 1127.72 738.70 1129.00 763.00 C 1130.28 787.30 1128.75 814.84 1128.00 839.00
C 1140.41 836.85 1158.64 842.07 1161.74 826.75 C 1164.84 811.42 1162.24 792.97 1163.00 776.00 C 1163.76 759.03 1162.25 740.13 1163.00 723.00 C 1163.74 705.87 1161.79 685.81 1163.00 669.00 C 1164.21 652.19 1163.92 636.72 1151.25 626.75 C 1138.58 616.79 1135.16 610.33 1125.00 600.00
C 1122.72 618.58 1128.10 642.22 1124.77 661.77 C 1121.45 681.33 1103.94 678.39 1086.00 678.00 C 1068.06 677.61 1040.64 678.36 1022.00 678.00 C 1003.36 677.64 977.13 678.28 959.67 678.67 C 942.21 679.06 935.96 670.78 936.00 653.00 C 936.04 635.22 935.97 608.59 936.00 590.00 Z"/>
</g>
<g fill="None" fill-opacity="0.0" stroke="#000000" stroke-opacity="0.01" stroke-width="0.3"><path d="
M 1035.00 590.00 
C 1010.47 589.97 984.83 590.05 961.00 590.00
C 961.64 600.58 960.30 613.87 961.00 625.00 C 961.70 636.13 958.50 648.63 964.00 657.00
C 974.47 656.55 985.61 655.90 997.00 656.00 C 1008.39 656.10 1020.57 656.15 1032.00 656.00 C 1043.43 655.85 1056.79 656.48 1068.00 656.00 C 1079.21 655.52 1090.63 658.19 1099.00 654.00
C 1095.93 633.56 1100.10 608.98 1097.00 590.00
C 1091.18 591.81 1083.86 591.38 1078.00 590.00
C 1079.61 604.43 1079.70 620.57 1078.00 635.00
C 1064.18 632.76 1045.10 639.59 1034.00 632.00
C 1035.40 618.99 1034.96 604.02 1035.00 590.00 Z"/>
</g>
<g fill="None" fill-opacity="0.0" stroke="#000000" stroke-opacity="0.96" stroke-width="0.3"><path d="
M 637.00 636.00 
C 626.71 639.16 623.74 657.39 635.75 661.20 C 647.76 665.00 663.82 662.47 678.00 663.00 C 692.18 663.53 709.41 662.79 724.00 663.00 C 738.59 663.21 755.49 662.97 770.00 663.00 C 784.51 663.03 802.12 663.13 816.00 663.00 C 829.88 662.87 846.82 664.02 858.25 661.59 C 869.69 659.17 871.83 641.02 860.70 637.31 C 849.57 633.59 831.72 636.68 818.00 636.00 C 804.28 635.32 786.44 636.04 772.00 636.00 C 757.56 635.96 740.57 635.42 726.00 636.00 C 711.43 636.58 694.18 634.41 680.00 636.00 C 665.82 637.59 649.40 632.19 637.00 636.00 Z"/>
</g>
<g fill="None" fill-opacity="0.0" stroke="#000000" stroke-opacity="0.00" stroke-width="0.3"><path d="
M 1104.00 768.00 
C 1091.86 764.34 1075.50 766.14 1061.00 766.00 C 1046.50 765.86 1028.39 765.63 1014.00 766.00 C 999.61 766.37 984.46 763.45 973.00 769.00
C 973.34 791.25 972.78 816.61 973.00 839.00
C 1016.67 839.00 1060.33 839.00 1104.00 839.00
C 1104.03 815.47 1103.95 790.83 1104.00 768.00 Z"/>
</g>
<g fill="#000000" fill-opacity="0.00" stroke="None">
<path d="
M 0.00 1024.00 
L 1536.00 1024.00
L 1536.00 0.00
L 0.00 0.00
L 0.00 1024.00
M 1012.00 566.00 
C 1002.58 564.34 991.40 564.35 982.00 566.00
C 979.67 463.84 981.66 360.58 981.00 258.00
C 837.33 258.00 693.67 258.00 550.00 258.00
C 550.00 436.00 550.00 614.00 550.00 792.00
C 660.58 791.33 771.84 793.33 882.00 791.00
C 882.00 805.00 882.00 819.00 882.00 833.00
C 862.30 831.01 842.18 832.24 822.00 832.00 C 801.82 831.76 781.28 832.09 761.00 832.00 C 740.72 831.91 719.24 832.00 699.00 832.00 C 678.76 832.00 658.01 831.92 638.00 832.00 C 617.99 832.08 595.47 831.78 576.00 832.00 C 556.53 832.22 533.19 831.49 515.00 832.00 C 496.81 832.51 481.06 834.26 467.25 829.61 C 453.43 824.95 445.93 820.62 435.70 808.30 C 425.47 795.98 420.76 789.07 420.80 772.75 C 420.84 756.43 421.11 730.64 421.00 712.00 C 420.89 693.36 421.05 669.64 421.00 650.00 C 420.95 630.36 421.02 609.11 421.00 589.00 C 420.98 568.89 421.01 547.29 421.00 527.00 C 420.99 506.71 420.99 486.33 421.00 466.00 C 421.01 445.67 420.98 424.26 421.00 404.00 C 421.02 383.74 420.95 363.02 421.00 343.00 C 421.05 322.98 420.89 300.48 421.00 281.00 C 421.11 261.52 420.75 238.20 421.00 220.00 C 421.25 201.80 418.86 184.16 423.98 170.97 C 429.09 157.79 433.47 150.20 446.10 140.10 C 458.73 130.00 466.79 126.53 482.75 124.61 C 498.71 122.68 522.24 124.46 541.00 124.00 C 559.76 123.54 583.32 124.20 603.00 124.00 C 622.68 123.80 643.91 124.08 664.00 124.00 C 684.09 123.92 705.78 124.01 726.00 124.00 C 746.22 123.99 766.85 123.95 787.00 124.00 C 807.15 124.05 829.14 123.85 849.00 124.00 C 868.86 124.15 890.89 123.64 910.00 124.00 C 929.11 124.36 954.52 123.21 972.00 124.00 C 989.48 124.79 1010.75 118.43 1011.93 137.08 C 1013.12 155.73 1009.59 178.35 1011.00 198.00 C 1012.41 217.65 1011.86 237.79 1012.00 258.00 C 1012.14 278.21 1011.94 299.63 1012.00 320.00 C 1012.06 340.37 1011.97 360.55 1012.00 381.00 C 1012.03 401.45 1011.99 422.51 1012.00 443.00 C 1012.01 463.49 1011.99 483.48 1012.00 504.00 C 1012.01 524.52 1011.99 545.44 1012.00 566.00
M 823.00 359.00 
C 851.92 345.84 890.14 359.68 902.32 390.68 C 914.51 421.68 889.64 455.48 859.00 461.00
C 861.84 476.79 859.70 486.34 861.98 502.03 C 864.26 517.71 860.98 528.82 864.60 545.75 C 868.22 562.67 858.43 574.34 839.00 571.00 C 819.57 567.66 798.55 572.71 780.00 571.00 C 761.45 569.29 738.98 572.18 722.00 571.00 C 705.02 569.82 685.55 575.87 683.07 558.92 C 680.58 541.96 685.34 523.94 684.93 507.92 C 684.52 491.91 685.57 475.30 686.00 460.00
C 653.13 457.48 631.65 418.94 643.59 389.25 C 655.53 359.56 694.12 345.83 723.00 359.00
C 736.99 320.29 804.72 318.24 823.00 359.00
M 1106.00 569.00 
C 1120.45 570.40 1127.91 574.99 1139.25 584.75 C 1150.58 594.51 1156.53 605.67 1168.75 615.25 C 1180.97 624.83 1189.51 632.56 1187.00 651.00 C 1184.49 669.44 1188.23 691.42 1187.00 710.00 C 1185.77 728.58 1187.80 752.09 1187.00 770.00 C 1186.20 787.91 1189.86 810.93 1186.80 826.25 C 1183.75 841.56 1178.28 848.53 1166.70 855.71 C 1155.12 862.89 1140.68 860.59 1123.00 861.00 C 1105.32 861.41 1081.61 860.88 1063.00 861.00 C 1044.39 861.12 1021.62 861.10 1003.00 861.00 C 984.38 860.90 961.79 861.39 944.00 861.00 C 926.21 860.61 915.29 862.32 903.11 851.89 C 890.92 841.47 888.13 832.94 887.00 816.00 C 885.88 799.05 888.18 775.24 888.00 757.00 C 887.82 738.76 887.70 716.69 888.00 698.00 C 888.30 679.31 887.03 656.38 888.00 638.00 C 888.97 619.62 883.71 602.62 892.31 588.30 C 900.90 573.99 910.06 571.04 927.00 570.00 C 943.94 568.96 967.32 568.52 986.00 569.00 C 1004.68 569.48 1026.75 568.12 1046.00 569.00 C 1065.25 569.88 1086.68 567.13 1106.00 569.00
M 637.00 636.00 
C 649.40 632.19 665.82 637.59 680.00 636.00 C 694.18 634.41 711.43 636.58 726.00 636.00 C 740.57 635.42 757.56 635.96 772.00 636.00 C 786.44 636.04 804.28 635.32 818.00 636.00 C 831.72 636.68 849.57 633.59 860.70 637.31 C 871.83 641.02 869.69 659.17 858.25 661.59 C 846.82 664.02 829.88 662.87 816.00 663.00 C 802.12 663.13 784.51 663.03 770.00 663.00 C 755.49 662.97 738.59 663.21 724.00 663.00 C 709.41 662.79 692.18 663.53 678.00 663.00 C 663.82 662.47 647.76 665.00 635.75 661.20 C 623.74 657.39 626.71 639.16 637.00 636.00 Z"/>
</g>
<g fill="#000000" fill-opacity="0.99" stroke="None">
<path d="
M 1012.00 566.00 
C 1011.99 545.44 1012.01 524.52 1012.00 504.00 C 1011.99 483.48 1012.01 463.49 1012.00 443.00 C 1011.99 422.51 1012.03 401.45 1012.00 381.00 C 1011.97 360.55 1012.06 340.37 1012.00 320.00 C 1011.94 299.63 1012.14 278.21 1012.00 258.00 C 1011.86 237.79 1012.41 217.65 1011.00 198.00 C 1009.59 178.35 1013.12 155.73 1011.93 137.08 C 1010.75 118.43 989.48 124.79 972.00 124.00 C 954.52 123.21 929.11 124.36 910.00 124.00 C 890.89 123.64 868.86 124.15 849.00 124.00 C 829.14 123.85 807.15 124.05 787.00 124.00 C 766.85 123.95 746.22 123.99 726.00 124.00 C 705.78 124.01 684.09 123.92 664.00 124.00 C 643.91 124.08 622.68 123.80 603.00 124.00 C 583.32 124.20 559.76 123.54 541.00 124.00 C 522.24 124.46 498.71 122.68 482.75 124.61 C 466.79 126.53 458.73 130.00 446.10 140.10 C 433.47 150.20 429.09 157.79 423.98 170.97 C 418.86 184.16 421.25 201.80 421.00 220.00 C 420.75 238.20 421.11 261.52 421.00 281.00 C 420.89 300.48 421.05 322.98 421.00 343.00 C 420.95 363.02 421.02 383.74 421.00 404.00 C 420.98 424.26 421.01 445.67 421.00 466.00 C 420.99 486.33 420.99 506.71 421.00 527.00 C 421.01 547.29 420.98 568.89 421.00 589.00 C 421.02 609.11 420.95 630.36 421.00 650.00 C 421.05 669.64 420.89 693.36 421.00 712.00 C 421.11 730.64 420.84 756.43 420.80 772.75 C 420.76 789.07 425.47 795.98 435.70 808.30 C 445.93 820.62 453.43 824.95 467.25 829.61 C 481.06 834.26 496.81 832.51 515.00 832.00 C 533.19 831.49 556.53 832.22 576.00 832.00 C 595.47 831.78 617.99 832.08 638.00 832.00 C 658.01 831.92 678.76 832.00 699.00 832.00 C 719.24 832.00 740.72 831.91 761.00 832.00 C 781.28 832.09 801.82 831.76 822.00 832.00 C 842.18 832.24 862.30 831.01 882.00 833.00
C 882.00 819.00 882.00 805.00 882.00 791.00
C 771.84 793.33 660.58 791.33 550.00 792.00
C 550.00 614.00 550.00 436.00 550.00 258.00
C 693.67 258.00 837.33 258.00 981.00 258.00
C 981.66 360.58 979.67 463.84 982.00 566.00
C 991.40 564.35 1002.58 564.34 1012.00 566.00
M 981.00 155.00 
C 981.00 179.33 981.00 203.67 981.00 228.00
C 947.28 227.91 912.49 228.10 878.00 228.00 C 843.51 227.90 806.37 228.18 772.00 228.00 C 737.63 227.82 699.62 228.37 666.00 228.00 C 632.38 227.63 591.71 228.82 560.00 228.00 C 528.29 227.18 492.57 232.64 470.90 221.09 C 449.23 209.55 446.35 176.40 469.03 163.03 C 491.71 149.67 524.91 155.91 557.00 155.00 C 589.09 154.09 629.14 155.42 663.00 155.00 C 696.86 154.58 734.35 155.19 769.00 155.00 C 803.65 154.81 840.03 155.10 875.00 155.00 C 909.98 154.90 945.93 155.08 981.00 155.00
M 520.00 258.00 
C 520.00 436.00 520.00 614.00 520.00 792.00
C 494.96 791.03 460.96 794.34 453.23 764.77 C 445.50 735.20 451.22 701.53 450.00 668.00 C 448.78 634.47 452.04 597.51 451.00 563.00 C 449.96 528.49 451.56 491.78 451.00 457.00 C 450.44 422.22 451.45 385.69 451.00 351.00 C 450.55 316.31 452.08 281.46 450.00 248.00
C 467.22 259.09 494.51 260.38 520.00 258.00 Z"/>
</g>
<g fill="#000000" fill-opacity="0.02" stroke="None">
<path d="
M 981.00 155.00 
C 945.93 155.08 909.98 154.90 875.00 155.00 C 840.03 155.10 803.65 154.81 769.00 155.00 C 734.35 155.19 696.86 154.58 663.00 155.00 C 629.14 155.42 589.09 154.09 557.00 155.00 C 524.91 155.91 491.71 149.67 469.03 163.03 C 446.35 176.40 449.23 209.55 470.90 221.09 C 492.57 232.64 528.29 227.18 560.00 228.00 C 591.71 228.82 632.38 227.63 666.00 228.00 C 699.62 228.37 737.63 227.82 772.00 228.00 C 806.37 228.18 843.51 227.90 878.00 228.00 C 912.49 228.10 947.28 227.91 981.00 228.00
C 981.00 203.67 981.00 179.33 981.00 155.00 Z"/>
</g>
<g fill="#000000" fill-opacity="0.02" stroke="None">
<path d="
M 520.00 258.00 
C 494.51 260.38 467.22 259.09 450.00 248.00
C 452.08 281.46 450.55 316.31 451.00 351.00 C 451.45 385.69 450.44 422.22 451.00 457.00 C 451.56 491.78 449.96 528.49 451.00 563.00 C 452.04 597.51 448.78 634.47 450.00 668.00 C 451.22 701.53 445.50 735.20 453.23 764.77 C 460.96 794.34 494.96 791.03 520.00 792.00
C 520.00 614.00 520.00 436.00 520.00 258.00 Z"/>
</g>
<g fill="#000000" fill-opacity="0.98" stroke="None">
<path d="
M 823.00 359.00 
C 804.72 318.24 736.99 320.29 723.00 359.00
C 694.12 345.83 655.53 359.56 643.59 389.25 C 631.65 418.94 653.13 457.48 686.00 460.00
C 685.57 475.30 684.52 491.91 684.93 507.92 C 685.34 523.94 680.58 541.96 683.07 558.92 C 685.55 575.87 705.02 569.82 722.00 571.00 C 738.98 572.18 761.45 569.29 780.00 571.00 C 798.55 572.71 819.57 567.66 839.00 571.00 C 858.43 574.34 868.22 562.67 864.60 545.75 C 860.98 528.82 864.26 517.71 861.98 502.03 C 859.70 486.34 861.84 476.79 859.00 461.00
C 889.64 455.48 914.51 421.68 902.32 390.68 C 890.14 359.68 851.92 345.84 823.00 359.00
M 833.00 541.00 
C 793.67 541.00 754.33 541.00 715.00 541.00
C 716.54 525.67 715.28 510.34 716.02 494.97 C 716.77 479.60 717.39 465.37 718.00 450.00 C 718.61 434.63 702.64 436.13 691.30 433.69 C 679.96 431.25 668.17 418.38 670.93 404.93 C 673.68 391.47 682.66 385.16 696.03 383.02 C 709.39 380.88 715.31 394.89 728.25 397.80 C 741.18 400.71 743.10 385.62 746.30 375.30 C 749.50 364.98 766.69 355.61 777.75 359.39 C 788.82 363.18 801.83 370.16 801.80 384.25 C 801.77 398.33 819.40 401.25 827.75 390.75 C 836.10 380.25 852.24 381.89 861.70 386.31 C 871.15 390.73 879.33 405.80 873.61 416.75 C 867.89 427.70 857.46 437.04 843.31 435.35 C 829.15 433.67 826.28 449.34 829.00 462.00 C 831.72 474.66 827.97 491.35 830.07 504.07 C 832.17 516.80 830.57 527.45 833.00 541.00 Z"/>
</g>
<g fill="#000000" fill-opacity="0.00" stroke="None">
<path d="
M 833.00 541.00 
C 830.57 527.45 832.17 516.80 830.07 504.07 C 827.97 491.35 831.72 474.66 829.00 462.00 C 826.28 449.34 829.15 433.67 843.31 435.35 C 857.46 437.04 867.89 427.70 873.61 416.75 C 879.33 405.80 871.15 390.73 861.70 386.31 C 852.24 381.89 836.10 380.25 827.75 390.75 C 819.40 401.25 801.77 398.33 801.80 384.25 C 801.83 370.16 788.82 363.18 777.75 359.39 C 766.69 355.61 749.50 364.98 746.30 375.30 C 743.10 385.62 741.18 400.71 728.25 397.80 C 715.31 394.89 709.39 380.88 696.03 383.02 C 682.66 385.16 673.68 391.47 670.93 404.93 C 668.17 418.38 679.96 431.25 691.30 433.69 C 702.64 436.13 718.61 434.63 718.00 450.00 C 717.39 465.37 716.77 479.60 716.02 494.97 C 715.28 510.34 716.54 525.67 715.00 541.00
C 754.33 541.00 793.67 541.00 833.00 541.00 Z"/>
</g>
<g fill="#000000" fill-opacity="0.98" stroke="None">
<path d="
M 1106.00 569.00 
C 1086.68 567.13 1065.25 569.88 1046.00 569.00 C 1026.75 568.12 1004.68 569.48 986.00 569.00 C 967.32 568.52 943.94 568.96 927.00 570.00 C 910.06 571.04 900.90 573.99 892.31 588.30 C 883.71 602.62 888.97 619.62 888.00 638.00 C 887.03 656.38 888.30 679.31 888.00 698.00 C 887.70 716.69 887.82 738.76 888.00 757.00 C 888.18 775.24 885.88 799.05 887.00 816.00 C 888.13 832.94 890.92 841.47 903.11 851.89 C 915.29 862.32 926.21 860.61 944.00 861.00 C 961.79 861.39 984.38 860.90 1003.00 861.00 C 1021.62 861.10 1044.39 861.12 1063.00 861.00 C 1081.61 860.88 1105.32 861.41 1123.00 861.00 C 1140.68 860.59 1155.12 862.89 1166.70 855.71 C 1178.28 848.53 1183.75 841.56 1186.80 826.25 C 1189.86 810.93 1186.20 787.91 1187.00 770.00 C 1187.80 752.09 1185.77 728.58 1187.00 710.00 C 1188.23 691.42 1184.49 669.44 1187.00 651.00 C 1189.51 632.56 1180.97 624.83 1168.75 615.25 C 1156.53 605.67 1150.58 594.51 1139.25 584.75 C 1127.91 574.99 1120.45 570.40 1106.00 569.00
M 936.00 590.00 
C 935.97 608.59 936.04 635.22 936.00 653.00 C 935.96 670.78 942.21 679.06 959.67 678.67 C 977.13 678.28 1003.36 677.64 1022.00 678.00 C 1040.64 678.36 1068.06 677.61 1086.00 678.00 C 1103.94 678.39 1121.45 681.33 1124.77 661.77 C 1128.10 642.22 1122.72 618.58 1125.00 600.00
C 1135.16 610.33 1138.58 616.79 1151.25 626.75 C 1163.92 636.72 1164.21 652.19 1163.00 669.00 C 1161.79 685.81 1163.74 705.87 1163.00 723.00 C 1162.25 740.13 1163.76 759.03 1163.00 776.00 C 1162.24 792.97 1164.84 811.42 1161.74 826.75 C 1158.64 842.07 1140.41 836.85 1128.00 839.00
C 1128.75 814.84 1130.28 787.30 1129.00 763.00 C 1127.72 738.70 1103.45 743.60 1082.00 744.00 C 1060.55 744.40 1025.22 743.08 1004.00 744.00 C 982.78 744.92 952.21 735.76 949.07 761.08 C 945.94 786.40 951.28 813.51 949.00 839.00
C 933.01 838.40 911.51 842.75 910.20 821.75 C 908.89 800.75 910.72 777.38 910.00 756.00 C 909.28 734.62 910.90 711.35 910.00 690.00 C 909.10 668.65 911.67 644.89 910.00 624.00 C 908.33 603.11 912.77 586.59 936.00 590.00
M 1035.00 590.00 
C 1034.96 604.02 1035.40 618.99 1034.00 632.00
C 1045.10 639.59 1064.18 632.76 1078.00 635.00
C 1079.70 620.57 1079.61 604.43 1078.00 590.00
C 1083.86 591.38 1091.18 591.81 1097.00 590.00
C 1100.10 608.98 1095.93 633.56 1099.00 654.00
C 1090.63 658.19 1079.21 655.52 1068.00 656.00 C 1056.79 656.48 1043.43 655.85 1032.00 656.00 C 1020.57 656.15 1008.39 656.10 997.00 656.00 C 985.61 655.90 974.47 656.55 964.00 657.00
C 958.50 648.63 961.70 636.13 961.00 625.00 C 960.30 613.87 961.64 600.58 961.00 590.00
C 984.83 590.05 1010.47 589.97 1035.00 590.00
M 1104.00 768.00 
C 1103.95 790.83 1104.03 815.47 1104.00 839.00
C 1060.33 839.00 1016.67 839.00 973.00 839.00
C 972.78 816.61 973.34 791.25 973.00 769.00
C 984.46 763.45 999.61 766.37 1014.00 766.00 C 1028.39 765.63 1046.50 765.86 1061.00 766.00 C 1075.50 766.14 1091.86 764.34 1104.00 768.00 Z"/>
</g>
<g fill="#000000" fill-opacity="0.01" stroke="None">
<path d="
M 936.00 590.00 
C 912.77 586.59 908.33 603.11 910.00 624.00 C 911.67 644.89 909.10 668.65 910.00 690.00 C 910.90 711.35 909.28 734.62 910.00 756.00 C 910.72 777.38 908.89 800.75 910.20 821.75 C 911.51 842.75 933.01 838.40 949.00 839.00
C 951.28 813.51 945.94 786.40 949.07 761.08 C 952.21 735.76 982.78 744.92 1004.00 744.00 C 1025.22 743.08 1060.55 744.40 1082.00 744.00 C 1103.45 743.60 1127.72 738.70 1129.00 763.00 C 1130.28 787.30 1128.75 814.84 1128.00 839.00
C 1140.41 836.85 1158.64 842.07 1161.74 826.75 C 1164.84 811.42 1162.24 792.97 1163.00 776.00 C 1163.76 759.03 1162.25 740.13 1163.00 723.00 C 1163.74 705.87 1161.79 685.81 1163.00 669.00 C 1164.21 652.19 1163.92 636.72 1151.25 626.75 C 1138.58 616.79 1135.16 610.33 1125.00 600.00
C 1122.72 618.58 1128.10 642.22 1124.77 661.77 C 1121.45 681.33 1103.94 678.39 1086.00 678.00 C 1068.06 677.61 1040.64 678.36 1022.00 678.00 C 1003.36 677.64 977.13 678.28 959.67 678.67 C 942.21 679.06 935.96 670.78 936.00 653.00 C 936.04 635.22 935.97 608.59 936.00 590.00 Z"/>
</g>
<g fill="#000000" fill-opacity="0.01" stroke="None">
<path d="
M 1035.00 590.00 
C 1010.47 589.97 984.83 590.05 961.00 590.00
C 961.64 600.58 960.30 613.87 961.00 625.00 C 961.70 636.13 958.50 648.63 964.00 657.00
C 974.47 656.55 985.61 655.90 997.00 656.00 C 1008.39 656.10 1020.57 656.15 1032.00 656.00 C 1043.43 655.85 1056.79 656.48 1068.00 656.00 C 1079.21 655.52 1090.63 658.19 1099.00 654.00
C 1095.93 633.56 1100.10 608.98 1097.00 590.00
C 1091.18 591.81 1083.86 591.38 1078.00 590.00
C 1079.61 604.43 1079.70 620.57 1078.00 635.00
C 1064.18 632.76 1045.10 639.59 1034.00 632.00
C 1035.40 618.99 1034.96 604.02 1035.00 590.00 Z"/>
</g>
<g fill="#000000" fill-opacity="0.96" stroke="None">
<path d="
M 637.00 636.00 
C 626.71 639.16 623.74 657.39 635.75 661.20 C 647.76 665.00 663.82 662.47 678.00 663.00 C 692.18 663.53 709.41 662.79 724.00 663.00 C 738.59 663.21 755.49 662.97 770.00 663.00 C 784.51 663.03 802.12 663.13 816.00 663.00 C 829.88 662.87 846.82 664.02 858.25 661.59 C 869.69 659.17 871.83 641.02 860.70 637.31 C 849.57 633.59 831.72 636.68 818.00 636.00 C 804.28 635.32 786.44 636.04 772.00 636.00 C 757.56 635.96 740.57 635.42 726.00 636.00 C 711.43 636.58 694.18 634.41 680.00 636.00 C 665.82 637.59 649.40 632.19 637.00 636.00 Z"/>
</g>
<g fill="#000000" fill-opacity="0.00" stroke="None">
<path d="
M 1104.00 768.00 
C 1091.86 764.34 1075.50 766.14 1061.00 766.00 C 1046.50 765.86 1028.39 765.63 1014.00 766.00 C 999.61 766.37 984.46 763.45 973.00 769.00
C 973.34 791.25 972.78 816.61 973.00 839.00
C 1016.67 839.00 1060.33 839.00 1104.00 839.00
C 1104.03 815.47 1103.95 790.83 1104.00 768.00 Z"/>
</g>
</svg>