<svg xmlns="http://www.w3.org/2000/svg" xmlns:v="https://svgstorm.com" viewBox="353.84 73.79 857.25 857.25" width="100%" height="100%">
<g fill="None" fill-opacity="0.0" stroke="#000000" stroke-opacity="0.00" stroke-width="0.3"><path d=" M 0.00 1024.00  L 1536.00 1024.00 L 1536.00 0.00 L 0.00 0.00 L 0.00 1024.00 M 660.00 137.00  C 700.16 133.94 733.20 140.48 764.30 158.71 C 795.41 176.95 819.27 208.02 831.26 236.75 C 843.26 265.49 848.10 304.28 840.69 336.70 C 833.29 369.11 819.12 400.72 790.92 425.92 C 762.71 451.12 736.26 463.66 699.75 466.20 C 663.25 468.73 627.76 461.57 600.32 443.68 C 572.88 425.80 546.00 392.46 534.81 363.75 C 523.62 335.04 518.43 299.64 525.26 268.25 C 532.10 236.86 545.41 204.81 570.75 180.75 C 596.09 156.70 627.15 139.51 660.00 137.00 M 933.00 594.00  C 923.21 594.15 911.07 593.41 903.25 596.39 C 895.43 599.38 889.16 604.39 883.68 613.68 C 878.20 622.97 879.96 631.97 880.00 645.00 C 880.04 658.03 879.97 673.37 880.00 687.00 C 880.03 700.63 879.96 716.15 880.00 730.00 C 880.04 743.85 879.92 759.27 880.00 773.00 C 880.08 786.73 884.28 804.78 868.00 803.00 C 851.72 801.22 840.20 803.80 825.00 803.00 C 809.80 802.20 796.69 803.36 782.00 803.00 C 767.31 802.64 753.42 803.17 739.00 803.00 C 724.58 802.83 711.30 803.07 697.00 803.00 C 682.70 802.93 668.27 803.03 654.00 803.00 C 639.73 802.97 625.19 803.02 611.00 803.00 C 596.81 802.98 583.12 803.01 569.00 803.00 C 554.88 802.99 540.02 803.00 526.00 803.00 C 511.98 803.00 496.71 803.00 483.00 803.00 C 469.29 803.00 452.98 802.99 440.00 803.00 C 427.02 803.01 415.12 803.10 406.23 799.42 C 397.34 795.75 393.35 787.08 394.00 776.00 C 394.65 764.91 392.81 749.83 394.21 740.77 C 395.62 731.71 396.46 725.03 397.80 716.75 C 399.15 708.48 401.05 700.14 403.64 692.30 C 406.24 684.47 407.20 678.67 410.19 670.75 C 413.19 662.84 417.07 654.85 420.92 646.92 C 424.78 639.00 430.31 629.14 435.32 621.32 C 440.32 613.50 447.91 604.53 454.10 597.10 C 460.29 589.66 466.86 581.41 474.25 574.25 C 481.65 567.10 489.13 561.16 496.92 554.92 C 504.70 548.67 513.16 543.99 521.68 538.68 C 530.20 533.37 536.22 530.03 543.77 526.43 C 551.32 522.82 559.73 520.29 567.74 516.74 C 575.76 513.20 581.46 513.22 590.08 510.94 C 598.70 508.65 607.18 506.30 616.70 504.69 C 626.21 503.09 631.85 503.88 642.08 502.93 C 652.31 501.98 665.30 500.93 677.00 502.00 C 688.70 503.07 705.01 500.90 715.69 501.65 C 726.38 502.39 735.43 502.51 745.08 503.93 C 754.74 505.36 762.89 505.23 771.25 507.19 C 779.60 509.16 787.37 510.18 795.75 512.39 C 804.13 514.61 809.65 517.13 817.75 519.39 C 825.85 521.66 832.80 526.28 840.70 529.31 C 848.59 532.33 853.76 535.55 862.08 539.92 C 870.39 544.30 879.74 550.31 887.30 555.70 C 894.86 561.10 903.36 566.53 910.90 573.10 C 918.44 579.67 926.17 586.02 933.00 594.00 M 915.00 602.00  C 932.18 599.52 951.83 603.49 971.00 602.00 C 990.17 600.51 1012.59 603.53 1032.00 602.00 C 1051.41 600.47 1073.97 604.59 1093.00 602.00 C 1112.03 599.41 1116.23 612.30 1129.25 622.75 C 1142.26 633.20 1148.37 641.04 1160.25 652.75 C 1172.13 664.46 1169.54 682.61 1169.00 701.00 C 1168.46 719.39 1167.21 741.24 1168.00 760.00 C 1168.79 778.76 1166.74 803.04 1168.00 821.00 C 1169.26 838.96 1166.86 849.31 1154.10 860.10 C 1141.34 870.89 1126.27 868.65 1108.00 869.00 C 1089.73 869.35 1067.69 868.87 1049.00 869.00 C 1030.31 869.13 1008.86 869.04 990.00 869.00 C 971.14 868.96 947.71 869.23 930.00 869.00 C 912.29 868.77 903.35 863.30 893.68 850.32 C 884.02 837.34 887.36 820.37 887.00 802.00 C 886.64 783.63 886.98 759.57 887.00 741.00 C 887.02 722.43 886.59 697.60 887.00 680.00 C 887.41 662.40 885.11 638.11 888.80 624.75 C 892.49 611.40 903.47 603.66 915.00 602.00 Z"/>
</g>
<g fill="None" fill-opacity="0.0" stroke="#000000" stroke-opacity="1.00" stroke-width="0.3"><path d=" M 660.00 137.00  C 627.15 139.51 596.09 156.70 570.75 180.75 C 545.41 204.81 532.10 236.86 525.26 268.25 C 518.43 299.64 523.62 335.04 534.81 363.75 C 546.00 392.46 572.88 425.80 600.32 443.68 C 627.76 461.57 663.25 468.73 699.75 466.20 C 736.26 463.66 762.71 451.12 790.92 425.92 C 819.12 400.72 833.29 369.11 840.69 336.70 C 848.10 304.28 843.26 265.49 831.26 236.75 C 819.27 208.02 795.41 176.95 764.30 158.71 C 733.20 140.48 700.16 133.94 660.00 137.00 Z"/>
</g>
<g fill="None" fill-opacity="0.0" stroke="#000000" stroke-opacity="0.99" stroke-width="0.3"><path d=" M 933.00 594.00  C 926.17 586.02 918.44 579.67 910.90 573.10 C 903.36 566.53 894.86 561.10 887.30 555.70 C 879.74 550.31 870.39 544.30 862.08 539.92 C 853.76 535.55 848.59 532.33 840.70 529.31 C 832.80 526.28 825.85 521.66 817.75 519.39 C 809.65 517.13 804.13 514.61 795.75 512.39 C 787.37 510.18 779.60 509.16 771.25 507.19 C 762.89 505.23 754.74 505.36 745.08 503.93 C 735.43 502.51 726.38 502.39 715.69 501.65 C 705.01 500.90 688.70 503.07 677.00 502.00 C 665.30 500.93 652.31 501.98 642.08 502.93 C 631.85 503.88 626.21 503.09 616.70 504.69 C 607.18 506.30 598.70 508.65 590.08 510.94 C 581.46 513.22 575.76 513.20 567.74 516.74 C 559.73 520.29 551.32 522.82 543.77 526.43 C 536.22 530.03 530.20 533.37 521.68 538.68 C 513.16 543.99 504.70 548.67 496.92 554.92 C 489.13 561.16 481.65 567.10 474.25 574.25 C 466.86 581.41 460.29 589.66 454.10 597.10 C 447.91 604.53 440.32 613.50 435.32 621.32 C 430.31 629.14 424.78 639.00 420.92 646.92 C 417.07 654.85 413.19 662.84 410.19 670.75 C 407.20 678.67 406.24 684.47 403.64 692.30 C 401.05 700.14 399.15 708.48 397.80 716.75 C 396.46 725.03 395.62 731.71 394.21 740.77 C 392.81 749.83 394.65 764.91 394.00 776.00 C 393.35 787.08 397.34 795.75 406.23 799.42 C 415.12 803.10 427.02 803.01 440.00 803.00 C 452.98 802.99 469.29 803.00 483.00 803.00 C 496.71 803.00 511.98 803.00 526.00 803.00 C 540.02 803.00 554.88 802.99 569.00 803.00 C 583.12 803.01 596.81 802.98 611.00 803.00 C 625.19 803.02 639.73 802.97 654.00 803.00 C 668.27 803.03 682.70 802.93 697.00 803.00 C 711.30 803.07 724.58 802.83 739.00 803.00 C 753.42 803.17 767.31 802.64 782.00 803.00 C 796.69 803.36 809.80 802.20 825.00 803.00 C 840.20 803.80 851.72 801.22 868.00 803.00 C 884.28 804.78 880.08 786.73 880.00 773.00 C 879.92 759.27 880.04 743.85 880.00 730.00 C 879.96 716.15 880.03 700.63 880.00 687.00 C 879.97 673.37 880.04 658.03 880.00 645.00 C 879.96 631.97 878.20 622.97 883.68 613.68 C 889.16 604.39 895.43 599.38 903.25 596.39 C 911.07 593.41 923.21 594.15 933.00 594.00 Z"/>
</g>
<g fill="None" fill-opacity="0.0" stroke="#000000" stroke-opacity="0.98" stroke-width="0.3"><path d=" M 915.00 602.00  C 903.47 603.66 892.49 611.40 888.80 624.75 C 885.11 638.11 887.41 662.40 887.00 680.00 C 886.59 697.60 887.02 722.43 887.00 741.00 C 886.98 759.57 886.64 783.63 887.00 802.00 C 887.36 820.37 884.02 837.34 893.68 850.32 C 903.35 863.30 912.29 868.77 930.00 869.00 C 947.71 869.23 971.14 868.96 990.00 869.00 C 1008.86 869.04 1030.31 869.13 1049.00 869.00 C 1067.69 868.87 1089.73 869.35 1108.00 869.00 C 1126.27 868.65 1141.34 870.89 1154.10 860.10 C 1166.86 849.31 1169.26 838.96 1168.00 821.00 C 1166.74 803.04 1168.79 778.76 1168.00 760.00 C 1167.21 741.24 1168.46 719.39 1169.00 701.00 C 1169.54 682.61 1172.13 664.46 1160.25 652.75 C 1148.37 641.04 1142.26 633.20 1129.25 622.75 C 1116.23 612.30 1112.03 599.41 1093.00 602.00 C 1073.97 604.59 1051.41 600.47 1032.00 602.00 C 1012.59 603.53 990.17 600.51 971.00 602.00 C 951.83 603.49 932.18 599.52 915.00 602.00 M 931.00 622.00  C 930.16 636.31 932.12 658.47 931.00 672.00 C 929.88 685.53 929.48 695.99 940.77 701.57 C 952.06 707.15 959.70 703.83 974.67 704.33 C 989.64 704.83 998.37 704.86 1011.74 704.60 C 1025.12 704.33 1037.02 704.74 1049.01 704.01 C 1061.00 703.28 1078.93 706.18 1091.25 703.80 C 1103.57 701.43 1108.82 690.44 1108.00 677.00 C 1107.18 663.56 1108.46 640.91 1108.00 628.00 C 1119.91 640.76 1134.31 655.21 1147.00 667.00 C 1148.06 692.30 1145.59 716.60 1147.00 742.00 C 1148.41 767.40 1144.32 792.34 1147.00 818.00 C 1149.68 843.66 1133.80 851.29 1108.00 847.00 C 1109.45 826.93 1109.72 800.53 1108.02 780.98 C 1106.33 761.42 1085.04 764.80 1066.00 765.00 C 1046.96 765.20 1016.78 764.31 998.00 765.00 C 979.22 765.69 954.75 758.95 950.61 779.75 C 946.46 800.56 952.45 825.61 950.00 847.00 C 927.98 848.85 907.54 848.85 909.00 824.00 C 910.46 799.15 908.14 772.29 909.00 748.00 C 909.86 723.71 908.17 695.03 909.00 672.00 C 909.83 648.97 901.09 618.65 931.00 622.00 M 1023.00 622.00  C 1025.01 636.80 1018.93 655.35 1026.00 667.00 C 1037.06 666.95 1050.95 666.95 1062.00 667.00 C 1069.13 655.29 1066.53 635.50 1064.00 622.00 C 1069.95 622.75 1075.96 622.46 1082.00 622.00 C 1090.96 637.32 1083.11 649.74 1086.00 669.00 C 1088.89 688.26 1069.35 684.99 1053.00 684.00 C 1036.65 683.01 1015.37 685.18 999.00 684.00 C 982.63 682.82 964.51 687.67 952.00 681.00 C 952.26 663.00 951.78 640.58 952.00 622.00 C 974.83 622.05 999.47 621.96 1023.00 622.00 M 1087.00 788.00  C 1086.93 806.83 1087.05 827.47 1087.00 847.00 C 1048.67 847.00 1010.33 847.00 972.00 847.00 C 971.91 827.01 972.26 807.05 972.00 788.00 C 988.85 782.98 1008.66 785.18 1027.01 785.01 C 1045.36 784.83 1069.17 783.18 1087.00 788.00 Z"/>
</g>
<g fill="None" fill-opacity="0.0" stroke="#000000" stroke-opacity="0.00" stroke-width="0.3"><path d=" M 931.00 622.00  C 901.09 618.65 909.83 648.97 909.00 672.00 C 908.17 695.03 909.86 723.71 909.00 748.00 C 908.14 772.29 910.46 799.15 909.00 824.00 C 907.54 848.85 927.98 848.85 950.00 847.00 C 952.45 825.61 946.46 800.56 950.61 779.75 C 954.75 758.95 979.22 765.69 998.00 765.00 C 1016.78 764.31 1046.96 765.20 1066.00 765.00 C 1085.04 764.80 1106.33 761.42 1108.02 780.98 C 1109.72 800.53 1109.45 826.93 1108.00 847.00 C 1133.80 851.29 1149.68 843.66 1147.00 818.00 C 1144.32 792.34 1148.41 767.40 1147.00 742.00 C 1145.59 716.60 1148.06 692.30 1147.00 667.00 C 1134.31 655.21 1119.91 640.76 1108.00 628.00 C 1108.46 640.91 1107.18 663.56 1108.00 677.00 C 1108.82 690.44 1103.57 701.43 1091.25 703.80 C 1078.93 706.18 1061.00 703.28 1049.01 704.01 C 1037.02 704.74 1025.12 704.33 1011.74 704.60 C 998.37 704.86 989.64 704.83 974.67 704.33 C 959.70 703.83 952.06 707.15 940.77 701.57 C 929.48 695.99 929.88 685.53 931.00 672.00 C 932.12 658.47 930.16 636.31 931.00 622.00 Z"/>
</g>
<g fill="None" fill-opacity="0.0" stroke="#000000" stroke-opacity="0.01" stroke-width="0.3"><path d=" M 1023.00 622.00  C 999.47 621.96 974.83 622.05 952.00 622.00 C 951.78 640.58 952.26 663.00 952.00 681.00 C 964.51 687.67 982.63 682.82 999.00 684.00 C 1015.37 685.18 1036.65 683.01 1053.00 684.00 C 1069.35 684.99 1088.89 688.26 1086.00 669.00 C 1083.11 649.74 1090.96 637.32 1082.00 622.00 C 1075.96 622.46 1069.95 622.75 1064.00 622.00 C 1066.53 635.50 1069.13 655.29 1062.00 667.00 C 1050.95 666.95 1037.06 666.95 1026.00 667.00 C 1018.93 655.35 1025.01 636.80 1023.00 622.00 Z"/>
</g>
<g fill="None" fill-opacity="0.0" stroke="#000000" stroke-opacity="0.00" stroke-width="0.3"><path d=" M 1087.00 788.00  C 1069.17 783.18 1045.36 784.83 1027.01 785.01 C 1008.66 785.18 988.85 782.98 972.00 788.00 C 972.26 807.05 971.91 827.01 972.00 847.00 C 1010.33 847.00 1048.67 847.00 1087.00 847.00 C 1087.05 827.47 1086.93 806.83 1087.00 788.00 Z"/>
</g>
<g fill="#000000" fill-opacity="0.00" stroke="None">
<path d=" M 0.00 1024.00  L 1536.00 1024.00 L 1536.00 0.00 L 0.00 0.00 L 0.00 1024.00 M 660.00 137.00  C 700.16 133.94 733.20 140.48 764.30 158.71 C 795.41 176.95 819.27 208.02 831.26 236.75 C 843.26 265.49 848.10 304.28 840.69 336.70 C 833.29 369.11 819.12 400.72 790.92 425.92 C 762.71 451.12 736.26 463.66 699.75 466.20 C 663.25 468.73 627.76 461.57 600.32 443.68 C 572.88 425.80 546.00 392.46 534.81 363.75 C 523.62 335.04 518.43 299.64 525.26 268.25 C 532.10 236.86 545.41 204.81 570.75 180.75 C 596.09 156.70 627.15 139.51 660.00 137.00 M 933.00 594.00  C 923.21 594.15 911.07 593.41 903.25 596.39 C 895.43 599.38 889.16 604.39 883.68 613.68 C 878.20 622.97 879.96 631.97 880.00 645.00 C 880.04 658.03 879.97 673.37 880.00 687.00 C 880.03 700.63 879.96 716.15 880.00 730.00 C 880.04 743.85 879.92 759.27 880.00 773.00 C 880.08 786.73 884.28 804.78 868.00 803.00 C 851.72 801.22 840.20 803.80 825.00 803.00 C 809.80 802.20 796.69 803.36 782.00 803.00 C 767.31 802.64 753.42 803.17 739.00 803.00 C 724.58 802.83 711.30 803.07 697.00 803.00 C 682.70 802.93 668.27 803.03 654.00 803.00 C 639.73 802.97 625.19 803.02 611.00 803.00 C 596.81 802.98 583.12 803.01 569.00 803.00 C 554.88 802.99 540.02 803.00 526.00 803.00 C 511.98 803.00 496.71 803.00 483.00 803.00 C 469.29 803.00 452.98 802.99 440.00 803.00 C 427.02 803.01 415.12 803.10 406.23 799.42 C 397.34 795.75 393.35 787.08 394.00 776.00 C 394.65 764.91 392.81 749.83 394.21 740.77 C 395.62 731.71 396.46 725.03 397.80 716.75 C 399.15 708.48 401.05 700.14 403.64 692.30 C 406.24 684.47 407.20 678.67 410.19 670.75 C 413.19 662.84 417.07 654.85 420.92 646.92 C 424.78 639.00 430.31 629.14 435.32 621.32 C 440.32 613.50 447.91 604.53 454.10 597.10 C 460.29 589.66 466.86 581.41 474.25 574.25 C 481.65 567.10 489.13 561.16 496.92 554.92 C 504.70 548.67 513.16 543.99 521.68 538.68 C 530.20 533.37 536.22 530.03 543.77 526.43 C 551.32 522.82 559.73 520.29 567.74 516.74 C 575.76 513.20 581.46 513.22 590.08 510.94 C 598.70 508.65 607.18 506.30 616.70 504.69 C 626.21 503.09 631.85 503.88 642.08 502.93 C 652.31 501.98 665.30 500.93 677.00 502.00 C 688.70 503.07 705.01 500.90 715.69 501.65 C 726.38 502.39 735.43 502.51 745.08 503.93 C 754.74 505.36 762.89 505.23 771.25 507.19 C 779.60 509.16 787.37 510.18 795.75 512.39 C 804.13 514.61 809.65 517.13 817.75 519.39 C 825.85 521.66 832.80 526.28 840.70 529.31 C 848.59 532.33 853.76 535.55 862.08 539.92 C 870.39 544.30 879.74 550.31 887.30 555.70 C 894.86 561.10 903.36 566.53 910.90 573.10 C 918.44 579.67 926.17 586.02 933.00 594.00 M 915.00 602.00  C 932.18 599.52 951.83 603.49 971.00 602.00 C 990.17 600.51 1012.59 603.53 1032.00 602.00 C 1051.41 600.47 1073.97 604.59 1093.00 602.00 C 1112.03 599.41 1116.23 612.30 1129.25 622.75 C 1142.26 633.20 1148.37 641.04 1160.25 652.75 C 1172.13 664.46 1169.54 682.61 1169.00 701.00 C 1168.46 719.39 1167.21 741.24 1168.00 760.00 C 1168.79 778.76 1166.74 803.04 1168.00 821.00 C 1169.26 838.96 1166.86 849.31 1154.10 860.10 C 1141.34 870.89 1126.27 868.65 1108.00 869.00 C 1089.73 869.35 1067.69 868.87 1049.00 869.00 C 1030.31 869.13 1008.86 869.04 990.00 869.00 C 971.14 868.96 947.71 869.23 930.00 869.00 C 912.29 868.77 903.35 863.30 893.68 850.32 C 884.02 837.34 887.36 820.37 887.00 802.00 C 886.64 783.63 886.98 759.57 887.00 741.00 C 887.02 722.43 886.59 697.60 887.00 680.00 C 887.41 662.40 885.11 638.11 888.80 624.75 C 892.49 611.40 903.47 603.66 915.00 602.00 Z"/>
</g>
<g fill="#000000" fill-opacity="1.00" stroke="None">
<path d=" M 660.00 137.00  C 627.15 139.51 596.09 156.70 570.75 180.75 C 545.41 204.81 532.10 236.86 525.26 268.25 C 518.43 299.64 523.62 335.04 534.81 363.75 C 546.00 392.46 572.88 425.80 600.32 443.68 C 627.76 461.57 663.25 468.73 699.75 466.20 C 736.26 463.66 762.71 451.12 790.92 425.92 C 819.12 400.72 833.29 369.11 840.69 336.70 C 848.10 304.28 843.26 265.49 831.26 236.75 C 819.27 208.02 795.41 176.95 764.30 158.71 C 733.20 140.48 700.16 133.94 660.00 137.00 Z"/>
</g>
<g fill="#000000" fill-opacity="0.99" stroke="None">
<path d=" M 933.00 594.00  C 926.17 586.02 918.44 579.67 910.90 573.10 C 903.36 566.53 894.86 561.10 887.30 555.70 C 879.74 550.31 870.39 544.30 862.08 539.92 C 853.76 535.55 848.59 532.33 840.70 529.31 C 832.80 526.28 825.85 521.66 817.75 519.39 C 809.65 517.13 804.13 514.61 795.75 512.39 C 787.37 510.18 779.60 509.16 771.25 507.19 C 762.89 505.23 754.74 505.36 745.08 503.93 C 735.43 502.51 726.38 502.39 715.69 501.65 C 705.01 500.90 688.70 503.07 677.00 502.00 C 665.30 500.93 652.31 501.98 642.08 502.93 C 631.85 503.88 626.21 503.09 616.70 504.69 C 607.18 506.30 598.70 508.65 590.08 510.94 C 581.46 513.22 575.76 513.20 567.74 516.74 C 559.73 520.29 551.32 522.82 543.77 526.43 C 536.22 530.03 530.20 533.37 521.68 538.68 C 513.16 543.99 504.70 548.67 496.92 554.92 C 489.13 561.16 481.65 567.10 474.25 574.25 C 466.86 581.41 460.29 589.66 454.10 597.10 C 447.91 604.53 440.32 613.50 435.32 621.32 C 430.31 629.14 424.78 639.00 420.92 646.92 C 417.07 654.85 413.19 662.84 410.19 670.75 C 407.20 678.67 406.24 684.47 403.64 692.30 C 401.05 700.14 399.15 708.48 397.80 716.75 C 396.46 725.03 395.62 731.71 394.21 740.77 C 392.81 749.83 394.65 764.91 394.00 776.00 C 393.35 787.08 397.34 795.75 406.23 799.42 C 415.12 803.10 427.02 803.01 440.00 803.00 C 452.98 802.99 469.29 803.00 483.00 803.00 C 496.71 803.00 511.98 803.00 526.00 803.00 C 540.02 803.00 554.88 802.99 569.00 803.00 C 583.12 803.01 596.81 802.98 611.00 803.00 C 625.19 803.02 639.73 802.97 654.00 803.00 C 668.27 803.03 682.70 802.93 697.00 803.00 C 711.30 803.07 724.58 802.83 739.00 803.00 C 753.42 803.17 767.31 802.64 782.00 803.00 C 796.69 803.36 809.80 802.20 825.00 803.00 C 840.20 803.80 851.72 801.22 868.00 803.00 C 884.28 804.78 880.08 786.73 880.00 773.00 C 879.92 759.27 880.04 743.85 880.00 730.00 C 879.96 716.15 880.03 700.63 880.00 687.00 C 879.97 673.37 880.04 658.03 880.00 645.00 C 879.96 631.97 878.20 622.97 883.68 613.68 C 889.16 604.39 895.43 599.38 903.25 596.39 C 911.07 593.41 923.21 594.15 933.00 594.00 Z"/>
</g>
<g fill="#000000" fill-opacity="0.98" stroke="None">
<path d=" M 915.00 602.00  C 903.47 603.66 892.49 611.40 888.80 624.75 C 885.11 638.11 887.41 662.40 887.00 680.00 C 886.59 697.60 887.02 722.43 887.00 741.00 C 886.98 759.57 886.64 783.63 887.00 802.00 C 887.36 820.37 884.02 837.34 893.68 850.32 C 903.35 863.30 912.29 868.77 930.00 869.00 C 947.71 869.23 971.14 868.96 990.00 869.00 C 1008.86 869.04 1030.31 869.13 1049.00 869.00 C 1067.69 868.87 1089.73 869.35 1108.00 869.00 C 1126.27 868.65 1141.34 870.89 1154.10 860.10 C 1166.86 849.31 1169.26 838.96 1168.00 821.00 C 1166.74 803.04 1168.79 778.76 1168.00 760.00 C 1167.21 741.24 1168.46 719.39 1169.00 701.00 C 1169.54 682.61 1172.13 664.46 1160.25 652.75 C 1148.37 641.04 1142.26 633.20 1129.25 622.75 C 1116.23 612.30 1112.03 599.41 1093.00 602.00 C 1073.97 604.59 1051.41 600.47 1032.00 602.00 C 1012.59 603.53 990.17 600.51 971.00 602.00 C 951.83 603.49 932.18 599.52 915.00 602.00 M 931.00 622.00  C 930.16 636.31 932.12 658.47 931.00 672.00 C 929.88 685.53 929.48 695.99 940.77 701.57 C 952.06 707.15 959.70 703.83 974.67 704.33 C 989.64 704.83 998.37 704.86 1011.74 704.60 C 1025.12 704.33 1037.02 704.74 1049.01 704.01 C 1061.00 703.28 1078.93 706.18 1091.25 703.80 C 1103.57 701.43 1108.82 690.44 1108.00 677.00 C 1107.18 663.56 1108.46 640.91 1108.00 628.00 C 1119.91 640.76 1134.31 655.21 1147.00 667.00 C 1148.06 692.30 1145.59 716.60 1147.00 742.00 C 1148.41 767.40 1144.32 792.34 1147.00 818.00 C 1149.68 843.66 1133.80 851.29 1108.00 847.00 C 1109.45 826.93 1109.72 800.53 1108.02 780.98 C 1106.33 761.42 1085.04 764.80 1066.00 765.00 C 1046.96 765.20 1016.78 764.31 998.00 765.00 C 979.22 765.69 954.75 758.95 950.61 779.75 C 946.46 800.56 952.45 825.61 950.00 847.00 C 927.98 848.85 907.54 848.85 909.00 824.00 C 910.46 799.15 908.14 772.29 909.00 748.00 C 909.86 723.71 908.17 695.03 909.00 672.00 C 909.83 648.97 901.09 618.65 931.00 622.00 M 1023.00 622.00  C 1025.01 636.80 1018.93 655.35 1026.00 667.00 C 1037.06 666.95 1050.95 666.95 1062.00 667.00 C 1069.13 655.29 1066.53 635.50 1064.00 622.00 C 1069.95 622.75 1075.96 622.46 1082.00 622.00 C 1090.96 637.32 1083.11 649.74 1086.00 669.00 C 1088.89 688.26 1069.35 684.99 1053.00 684.00 C 1036.65 683.01 1015.37 685.18 999.00 684.00 C 982.63 682.82 964.51 687.67 952.00 681.00 C 952.26 663.00 951.78 640.58 952.00 622.00 C 974.83 622.05 999.47 621.96 1023.00 622.00 M 1087.00 788.00  C 1086.93 806.83 1087.05 827.47 1087.00 847.00 C 1048.67 847.00 1010.33 847.00 972.00 847.00 C 971.91 827.01 972.26 807.05 972.00 788.00 C 988.85 782.98 1008.66 785.18 1027.01 785.01 C 1045.36 784.83 1069.17 783.18 1087.00 788.00 Z"/>
</g>
<g fill="#000000" fill-opacity="0.00" stroke="None">
<path d=" M 931.00 622.00  C 901.09 618.65 909.83 648.97 909.00 672.00 C 908.17 695.03 909.86 723.71 909.00 748.00 C 908.14 772.29 910.46 799.15 909.00 824.00 C 907.54 848.85 927.98 848.85 950.00 847.00 C 952.45 825.61 946.46 800.56 950.61 779.75 C 954.75 758.95 979.22 765.69 998.00 765.00 C 1016.78 764.31 1046.96 765.20 1066.00 765.00 C 1085.04 764.80 1106.33 761.42 1108.02 780.98 C 1109.72 800.53 1109.45 826.93 1108.00 847.00 C 1133.80 851.29 1149.68 843.66 1147.00 818.00 C 1144.32 792.34 1148.41 767.40 1147.00 742.00 C 1145.59 716.60 1148.06 692.30 1147.00 667.00 C 1134.31 655.21 1119.91 640.76 1108.00 628.00 C 1108.46 640.91 1107.18 663.56 1108.00 677.00 C 1108.82 690.44 1103.57 701.43 1091.25 703.80 C 1078.93 706.18 1061.00 703.28 1049.01 704.01 C 1037.02 704.74 1025.12 704.33 1011.74 704.60 C 998.37 704.86 989.64 704.83 974.67 704.33 C 959.70 703.83 952.06 707.15 940.77 701.57 C 929.48 695.99 929.88 685.53 931.00 672.00 C 932.12 658.47 930.16 636.31 931.00 622.00 Z"/>
</g>
<g fill="#000000" fill-opacity="0.01" stroke="None">
<path d=" M 1023.00 622.00  C 999.47 621.96 974.83 622.05 952.00 622.00 C 951.78 640.58 952.26 663.00 952.00 681.00 C 964.51 687.67 982.63 682.82 999.00 684.00 C 1015.37 685.18 1036.65 683.01 1053.00 684.00 C 1069.35 684.99 1088.89 688.26 1086.00 669.00 C 1083.11 649.74 1090.96 637.32 1082.00 622.00 C 1075.96 622.46 1069.95 622.75 1064.00 622.00 C 1066.53 635.50 1069.13 655.29 1062.00 667.00 C 1050.95 666.95 1037.06 666.95 1026.00 667.00 C 1018.93 655.35 1025.01 636.80 1023.00 622.00 Z"/>
</g>
<g fill="#000000" fill-opacity="0.00" stroke="None">
<path d=" M 1087.00 788.00  C 1069.17 783.18 1045.36 784.83 1027.01 785.01 C 1008.66 785.18 988.85 782.98 972.00 788.00 C 972.26 807.05 971.91 827.01 972.00 847.00 C 1010.33 847.00 1048.67 847.00 1087.00 847.00 C 1087.05 827.47 1086.93 806.83 1087.00 788.00 Z"/>
</g>
</svg>
