<svg xmlns="http://www.w3.org/2000/svg" xmlns:v="https://svgstorm.com" viewBox="337.32 22.76 914.8 914.8" width="100%" height="100%">
<g fill="None" fill-opacity="0.0" stroke="#000000" stroke-opacity="0.00" stroke-width="0.3"><path d=" M 0.00 1024.00  L 1536.00 1024.00 L 1536.00 0.00 L 0.00 0.00 L 0.00 1024.00 M 720.00 66.00  C 729.75 64.34 742.11 68.09 750.25 70.76 C 758.38 73.42 768.27 81.25 774.92 90.08 C 781.58 98.90 786.23 107.80 788.78 118.22 C 791.32 128.65 783.97 148.38 796.08 150.93 C 808.19 153.49 816.07 151.62 827.23 155.77 C 838.39 159.93 847.40 166.35 852.57 177.77 C 857.74 189.18 855.98 197.12 857.00 212.00 C 858.02 226.88 849.00 233.75 833.00 232.00 C 817.00 230.25 799.20 232.79 783.00 232.00 C 766.80 231.21 749.09 232.37 733.00 232.00 C 716.91 231.63 699.69 232.16 684.00 232.00 C 668.31 231.84 648.79 232.08 634.00 232.00 C 619.21 231.92 604.77 234.72 600.61 223.25 C 596.45 211.77 599.19 196.37 600.60 187.25 C 602.02 178.13 607.99 169.72 616.75 162.75 C 625.51 155.78 634.28 152.19 644.75 152.60 C 655.22 153.02 671.72 150.78 668.66 137.32 C 665.60 123.86 670.19 116.63 672.76 106.75 C 675.33 96.88 682.10 88.40 690.70 80.70 C 699.30 72.99 709.35 67.81 720.00 66.00 M 595.00 175.00  C 590.50 187.53 582.96 202.51 587.33 220.67 C 591.70 238.83 600.61 245.63 621.00 245.00 C 641.39 244.37 669.29 245.05 691.00 245.00 C 712.71 244.95 740.20 244.51 762.00 245.00 C 783.80 245.49 811.27 243.63 832.00 245.00 C 852.73 246.37 867.03 239.30 869.93 220.92 C 872.84 202.54 868.31 189.28 862.00 176.00 C 897.39 176.61 928.99 167.82 955.89 189.11 C 982.80 210.39 984.46 231.86 983.00 271.00 C 981.54 310.14 983.59 358.13 983.00 399.00 C 982.41 439.87 983.10 484.45 983.00 526.00 C 982.90 567.55 982.25 611.69 984.00 653.00 C 971.00 653.00 958.00 653.00 945.00 653.00 C 947.33 535.17 945.33 416.25 946.00 298.00 C 802.32 298.00 655.66 298.00 512.00 298.00 C 513.14 328.14 510.56 360.02 512.00 391.00 C 513.44 421.98 512.64 454.64 513.00 486.00 C 513.36 517.36 512.03 550.96 513.00 582.00 C 513.97 613.04 510.75 646.83 513.00 677.00 C 515.25 707.17 506.17 735.23 516.80 759.25 C 527.43 783.26 550.04 784.75 578.00 784.00 C 605.96 783.25 643.09 784.43 673.00 784.00 C 702.91 783.57 738.46 784.39 769.00 784.00 C 799.54 783.61 832.52 785.06 862.00 783.00 C 862.00 802.67 862.00 822.33 862.00 842.00 C 830.42 841.95 797.43 842.07 766.00 842.00 C 734.57 841.93 699.81 842.13 669.00 842.00 C 638.19 841.87 601.17 842.29 572.00 842.00 C 542.83 841.71 529.94 839.74 511.23 826.43 C 492.52 813.12 480.85 800.93 475.69 779.30 C 470.54 757.68 473.57 725.79 473.00 697.00 C 472.43 668.21 473.21 630.48 473.00 600.00 C 472.79 569.52 472.99 533.93 473.00 503.00 C 473.01 472.07 472.76 437.55 473.00 407.00 C 473.24 376.45 472.37 339.13 473.00 310.00 C 473.63 280.87 470.57 247.87 475.40 225.25 C 480.23 202.64 496.49 190.84 515.70 180.69 C 534.91 170.55 569.95 179.34 595.00 175.00 M 609.00 401.00  C 622.13 397.33 639.25 402.70 654.00 401.00 C 668.75 399.30 685.93 401.90 701.00 401.00 C 716.07 400.10 733.01 401.70 748.00 401.00 C 762.99 400.30 780.54 401.97 795.00 401.00 C 809.46 400.04 828.88 402.87 842.00 401.00 C 855.12 399.13 865.56 405.93 861.60 417.75 C 857.65 429.58 840.61 424.18 828.00 425.00 C 815.39 425.82 794.66 424.71 781.00 425.00 C 767.34 425.29 749.45 425.05 736.33 425.33 C 723.21 425.61 711.18 425.13 697.00 425.00 C 682.82 424.87 664.00 425.63 650.00 425.00 C 636.00 424.37 620.18 427.19 607.75 424.20 C 595.33 421.21 600.88 403.27 609.00 401.00 M 609.00 443.00  C 620.17 439.28 635.84 444.61 649.00 443.00 C 662.16 441.39 678.42 443.72 692.00 443.00 C 705.58 442.28 720.37 443.26 734.00 443.00 C 747.63 442.74 763.69 443.00 777.00 443.00 C 790.31 443.00 806.62 442.71 819.00 443.00 C 831.38 443.29 848.76 440.98 857.10 445.90 C 865.43 450.83 863.41 464.93 852.75 466.80 C 842.09 468.67 824.82 467.94 812.00 468.00 C 799.19 468.06 782.48 467.99 769.00 468.00 C 755.52 468.01 740.70 468.02 727.00 468.00 C 713.30 467.98 697.61 468.07 684.00 468.00 C 670.39 467.93 655.12 468.17 642.00 468.00 C 628.88 467.83 614.65 469.32 605.90 465.09 C 597.15 460.86 599.65 446.12 609.00 443.00 M 620.00 549.00  C 698.86 549.00 778.87 549.01 857.00 549.00 C 863.82 559.40 856.40 570.04 855.07 582.08 C 853.74 594.11 849.48 605.31 847.41 617.75 C 845.33 630.18 842.98 640.21 840.81 652.25 C 838.63 664.28 838.03 680.65 819.00 678.00 C 799.97 675.35 777.78 679.43 759.00 678.00 C 740.23 676.57 717.78 679.12 700.00 678.00 C 682.22 676.88 657.25 679.73 642.25 677.61 C 627.25 675.48 633.00 659.35 627.81 649.75 C 622.62 640.15 621.64 628.43 617.69 618.30 C 613.75 608.18 611.79 597.91 608.61 587.25 C 605.42 576.59 601.41 567.74 598.24 556.75 C 595.07 545.77 593.46 534.24 582.23 527.43 C 571.00 520.62 548.38 533.81 542.07 516.93 C 535.77 500.04 561.58 499.51 574.22 501.22 C 586.87 502.93 598.95 507.39 607.75 517.25 C 616.55 527.11 616.74 537.69 620.00 549.00 M 891.00 659.00  C 904.57 657.57 920.79 661.19 936.00 660.00 C 951.21 658.81 969.70 660.44 985.00 660.00 C 1000.30 659.56 1019.29 659.98 1034.00 660.00 C 1048.71 660.02 1061.86 657.13 1070.75 666.25 C 1079.64 675.37 1087.38 680.72 1095.75 690.25 C 1104.13 699.77 1114.28 701.97 1116.59 713.75 C 1118.90 725.53 1115.94 747.12 1117.00 761.00 C 1118.06 774.88 1115.91 794.82 1117.00 809.00 C 1118.09 823.18 1115.57 844.20 1116.07 857.07 C 1116.57 869.95 1113.15 878.09 1103.26 885.26 C 1093.36 892.42 1090.07 893.43 1075.00 894.00 C 1059.93 894.57 1043.34 893.94 1028.00 894.00 C 1012.66 894.06 994.40 894.14 979.00 894.00 C 963.60 893.86 944.83 894.43 930.00 894.00 C 915.17 893.57 901.03 895.98 889.75 890.20 C 878.47 884.42 872.02 877.68 870.40 865.26 C 868.79 852.83 870.41 832.38 870.00 818.00 C 869.59 803.62 870.08 783.69 870.00 769.00 C 869.92 754.31 870.14 734.66 869.00 721.00 C 867.86 707.34 869.08 687.65 871.71 678.70 C 874.35 669.75 880.72 660.08 891.00 659.00 M 682.00 685.00  C 695.89 682.84 712.40 698.97 705.61 714.75 C 698.81 730.53 676.07 732.01 667.08 718.92 C 658.09 705.83 665.22 687.61 682.00 685.00 M 785.00 685.00  C 800.21 683.41 813.54 699.27 808.74 713.75 C 803.94 728.22 784.52 734.70 772.78 723.22 C 761.03 711.75 766.89 686.90 785.00 685.00 Z"/>
</g>
<g fill="None" fill-opacity="0.0" stroke="#000000" stroke-opacity="1.00" stroke-width="0.3"><path d=" M 720.00 66.00  C 709.35 67.81 699.30 72.99 690.70 80.70 C 682.10 88.40 675.33 96.88 672.76 106.75 C 670.19 116.63 665.60 123.86 668.66 137.32 C 671.72 150.78 655.22 153.02 644.75 152.60 C 634.28 152.19 625.51 155.78 616.75 162.75 C 607.99 169.72 602.02 178.13 600.60 187.25 C 599.19 196.37 596.45 211.77 600.61 223.25 C 604.77 234.72 619.21 231.92 634.00 232.00 C 648.79 232.08 668.31 231.84 684.00 232.00 C 699.69 232.16 716.91 231.63 733.00 232.00 C 749.09 232.37 766.80 231.21 783.00 232.00 C 799.20 232.79 817.00 230.25 833.00 232.00 C 849.00 233.75 858.02 226.88 857.00 212.00 C 855.98 197.12 857.74 189.18 852.57 177.77 C 847.40 166.35 838.39 159.93 827.23 155.77 C 816.07 151.62 808.19 153.49 796.08 150.93 C 783.97 148.38 791.32 128.65 788.78 118.22 C 786.23 107.80 781.58 98.90 774.92 90.08 C 768.27 81.25 758.38 73.42 750.25 70.76 C 742.11 68.09 729.75 64.34 720.00 66.00 Z"/>
</g>
<g fill="None" fill-opacity="0.0" stroke="#000000" stroke-opacity="0.99" stroke-width="0.3"><path d=" M 595.00 175.00  C 569.95 179.34 534.91 170.55 515.70 180.69 C 496.49 190.84 480.23 202.64 475.40 225.25 C 470.57 247.87 473.63 280.87 473.00 310.00 C 472.37 339.13 473.24 376.45 473.00 407.00 C 472.76 437.55 473.01 472.07 473.00 503.00 C 472.99 533.93 472.79 569.52 473.00 600.00 C 473.21 630.48 472.43 668.21 473.00 697.00 C 473.57 725.79 470.54 757.68 475.69 779.30 C 480.85 800.93 492.52 813.12 511.23 826.43 C 529.94 839.74 542.83 841.71 572.00 842.00 C 601.17 842.29 638.19 841.87 669.00 842.00 C 699.81 842.13 734.57 841.93 766.00 842.00 C 797.43 842.07 830.42 841.95 862.00 842.00 C 862.00 822.33 862.00 802.67 862.00 783.00 C 832.52 785.06 799.54 783.61 769.00 784.00 C 738.46 784.39 702.91 783.57 673.00 784.00 C 643.09 784.43 605.96 783.25 578.00 784.00 C 550.04 784.75 527.43 783.26 516.80 759.25 C 506.17 735.23 515.25 707.17 513.00 677.00 C 510.75 646.83 513.97 613.04 513.00 582.00 C 512.03 550.96 513.36 517.36 513.00 486.00 C 512.64 454.64 513.44 421.98 512.00 391.00 C 510.56 360.02 513.14 328.14 512.00 298.00 C 655.66 298.00 802.32 298.00 946.00 298.00 C 945.33 416.25 947.33 535.17 945.00 653.00 C 958.00 653.00 971.00 653.00 984.00 653.00 C 982.25 611.69 982.90 567.55 983.00 526.00 C 983.10 484.45 982.41 439.87 983.00 399.00 C 983.59 358.13 981.54 310.14 983.00 271.00 C 984.46 231.86 982.80 210.39 955.89 189.11 C 928.99 167.82 897.39 176.61 862.00 176.00 C 868.31 189.28 872.84 202.54 869.93 220.92 C 867.03 239.30 852.73 246.37 832.00 245.00 C 811.27 243.63 783.80 245.49 762.00 245.00 C 740.20 244.51 712.71 244.95 691.00 245.00 C 669.29 245.05 641.39 244.37 621.00 245.00 C 600.61 245.63 591.70 238.83 587.33 220.67 C 582.96 202.51 590.50 187.53 595.00 175.00 Z"/>
</g>
<g fill="None" fill-opacity="0.0" stroke="#000000" stroke-opacity="0.99" stroke-width="0.3"><path d=" M 609.00 401.00  C 600.88 403.27 595.33 421.21 607.75 424.20 C 620.18 427.19 636.00 424.37 650.00 425.00 C 664.00 425.63 682.82 424.87 697.00 425.00 C 711.18 425.13 723.21 425.61 736.33 425.33 C 749.45 425.05 767.34 425.29 781.00 425.00 C 794.66 424.71 815.39 425.82 828.00 425.00 C 840.61 424.18 857.65 429.58 861.60 417.75 C 865.56 405.93 855.12 399.13 842.00 401.00 C 828.88 402.87 809.46 400.04 795.00 401.00 C 780.54 401.97 762.99 400.30 748.00 401.00 C 733.01 401.70 716.07 400.10 701.00 401.00 C 685.93 401.90 668.75 399.30 654.00 401.00 C 639.25 402.70 622.13 397.33 609.00 401.00 Z"/>
</g>
<g fill="None" fill-opacity="0.0" stroke="#000000" stroke-opacity="0.96" stroke-width="0.3"><path d=" M 609.00 443.00  C 599.65 446.12 597.15 460.86 605.90 465.09 C 614.65 469.32 628.88 467.83 642.00 468.00 C 655.12 468.17 670.39 467.93 684.00 468.00 C 697.61 468.07 713.30 467.98 727.00 468.00 C 740.70 468.02 755.52 468.01 769.00 468.00 C 782.48 467.99 799.19 468.06 812.00 468.00 C 824.82 467.94 842.09 468.67 852.75 466.80 C 863.41 464.93 865.43 450.83 857.10 445.90 C 848.76 440.98 831.38 443.29 819.00 443.00 C 806.62 442.71 790.31 443.00 777.00 443.00 C 763.69 443.00 747.63 442.74 734.00 443.00 C 720.37 443.26 705.58 442.28 692.00 443.00 C 678.42 443.72 662.16 441.39 649.00 443.00 C 635.84 444.61 620.17 439.28 609.00 443.00 Z"/>
</g>
<g fill="None" fill-opacity="0.0" stroke="#000000" stroke-opacity="0.99" stroke-width="0.3"><path d=" M 620.00 549.00  C 616.74 537.69 616.55 527.11 607.75 517.25 C 598.95 507.39 586.87 502.93 574.22 501.22 C 561.58 499.51 535.77 500.04 542.07 516.93 C 548.38 533.81 571.00 520.62 582.23 527.43 C 593.46 534.24 595.07 545.77 598.24 556.75 C 601.41 567.74 605.42 576.59 608.61 587.25 C 611.79 597.91 613.75 608.18 617.69 618.30 C 621.64 628.43 622.62 640.15 627.81 649.75 C 633.00 659.35 627.25 675.48 642.25 677.61 C 657.25 679.73 682.22 676.88 700.00 678.00 C 717.78 679.12 740.23 676.57 759.00 678.00 C 777.78 679.43 799.97 675.35 819.00 678.00 C 838.03 680.65 838.63 664.28 840.81 652.25 C 842.98 640.21 845.33 630.18 847.41 617.75 C 849.48 605.31 853.74 594.11 855.07 582.08 C 856.40 570.04 863.82 559.40 857.00 549.00 C 778.87 549.01 698.86 549.00 620.00 549.00 Z"/>
</g>
<g fill="None" fill-opacity="0.0" stroke="#000000" stroke-opacity="0.97" stroke-width="0.3"><path d=" M 891.00 659.00  C 880.72 660.08 874.35 669.75 871.71 678.70 C 869.08 687.65 867.86 707.34 869.00 721.00 C 870.14 734.66 869.92 754.31 870.00 769.00 C 870.08 783.69 869.59 803.62 870.00 818.00 C 870.41 832.38 868.79 852.83 870.40 865.26 C 872.02 877.68 878.47 884.42 889.75 890.20 C 901.03 895.98 915.17 893.57 930.00 894.00 C 944.83 894.43 963.60 893.86 979.00 894.00 C 994.40 894.14 1012.66 894.06 1028.00 894.00 C 1043.34 893.94 1059.93 894.57 1075.00 894.00 C 1090.07 893.43 1093.36 892.42 1103.26 885.26 C 1113.15 878.09 1116.57 869.95 1116.07 857.07 C 1115.57 844.20 1118.09 823.18 1117.00 809.00 C 1115.91 794.82 1118.06 774.88 1117.00 761.00 C 1115.94 747.12 1118.90 725.53 1116.59 713.75 C 1114.28 701.97 1104.13 699.77 1095.75 690.25 C 1087.38 680.72 1079.64 675.37 1070.75 666.25 C 1061.86 657.13 1048.71 660.02 1034.00 660.00 C 1019.29 659.98 1000.30 659.56 985.00 660.00 C 969.70 660.44 951.21 658.81 936.00 660.00 C 920.79 661.19 904.57 657.57 891.00 659.00 M 1065.00 686.00  C 1070.95 693.79 1077.46 697.28 1084.70 704.30 C 1091.93 711.32 1099.43 717.23 1098.00 729.00 C 1096.57 740.77 1098.67 754.95 1098.00 767.00 C 1097.33 779.05 1098.35 793.08 1098.00 805.00 C 1097.65 816.92 1098.26 831.71 1098.00 843.00 C 1097.74 854.29 1099.05 864.81 1092.74 871.74 C 1086.44 878.68 1075.43 873.02 1067.00 876.00 C 1066.55 858.49 1071.11 834.58 1067.80 817.75 C 1064.50 800.93 1044.41 805.04 1028.00 805.00 C 1011.59 804.96 983.59 804.33 967.00 805.00 C 950.41 805.67 927.37 799.27 923.61 816.75 C 919.84 834.23 922.26 857.93 923.00 876.00 C 913.76 871.91 900.00 880.26 893.25 870.75 C 886.50 861.24 890.83 848.21 890.00 836.00 C 889.17 823.79 890.26 808.54 890.00 796.00 C 889.74 783.46 889.86 768.34 890.00 756.00 C 890.14 743.66 888.68 728.52 889.00 717.00 C 889.32 705.48 888.01 690.92 890.19 683.75 C 892.37 676.57 908.82 671.40 907.01 683.01 C 905.19 694.61 908.16 710.20 907.00 722.00 C 905.84 733.80 907.31 742.23 915.75 747.39 C 924.20 752.55 930.56 750.11 943.00 750.00 C 955.44 749.89 970.23 750.32 983.00 750.00 C 995.77 749.68 1010.28 750.75 1023.00 750.00 C 1035.72 749.25 1046.78 753.10 1056.30 747.30 C 1065.81 741.49 1064.17 729.77 1064.00 719.00 C 1063.83 708.23 1063.88 696.04 1065.00 686.00 M 991.00 676.00  C 990.87 687.88 991.17 700.83 991.00 712.00 C 999.89 716.80 1018.14 716.80 1027.00 712.00 C 1024.64 701.25 1026.83 686.94 1026.00 676.00 C 1030.47 677.59 1035.99 677.21 1040.00 676.00 C 1044.97 682.81 1042.98 693.80 1043.00 703.00 C 1043.02 712.20 1044.45 724.33 1041.00 732.00 C 1005.64 731.98 967.34 732.00 932.00 732.00 C 925.42 716.32 930.88 693.45 929.00 676.00 C 949.67 676.00 970.33 676.00 991.00 676.00 M 1047.00 825.00  C 1047.00 842.00 1047.00 859.00 1047.00 876.00 C 1012.09 875.34 976.46 877.33 942.00 875.00 C 944.89 858.63 941.18 838.30 944.00 824.00 C 977.23 824.64 1014.43 822.72 1047.00 825.00 Z"/>
</g>
<g fill="None" fill-opacity="0.0" stroke="#000000" stroke-opacity="0.02" stroke-width="0.3"><path d=" M 1065.00 686.00  C 1063.88 696.04 1063.83 708.23 1064.00 719.00 C 1064.17 729.77 1065.81 741.49 1056.30 747.30 C 1046.78 753.10 1035.72 749.25 1023.00 750.00 C 1010.28 750.75 995.77 749.68 983.00 750.00 C 970.23 750.32 955.44 749.89 943.00 750.00 C 930.56 750.11 924.20 752.55 915.75 747.39 C 907.31 742.23 905.84 733.80 907.00 722.00 C 908.16 710.20 905.19 694.61 907.01 683.01 C 908.82 671.40 892.37 676.57 890.19 683.75 C 888.01 690.92 889.32 705.48 889.00 717.00 C 888.68 728.52 890.14 743.66 890.00 756.00 C 889.86 768.34 889.74 783.46 890.00 796.00 C 890.26 808.54 889.17 823.79 890.00 836.00 C 890.83 848.21 886.50 861.24 893.25 870.75 C 900.00 880.26 913.76 871.91 923.00 876.00 C 922.26 857.93 919.84 834.23 923.61 816.75 C 927.37 799.27 950.41 805.67 967.00 805.00 C 983.59 804.33 1011.59 804.96 1028.00 805.00 C 1044.41 805.04 1064.50 800.93 1067.80 817.75 C 1071.11 834.58 1066.55 858.49 1067.00 876.00 C 1075.43 873.02 1086.44 878.68 1092.74 871.74 C 1099.05 864.81 1097.74 854.29 1098.00 843.00 C 1098.26 831.71 1097.65 816.92 1098.00 805.00 C 1098.35 793.08 1097.33 779.05 1098.00 767.00 C 1098.67 754.95 1096.57 740.77 1098.00 729.00 C 1099.43 717.23 1091.93 711.32 1084.70 704.30 C 1077.46 697.28 1070.95 693.79 1065.00 686.00 Z"/>
</g>
<g fill="None" fill-opacity="0.0" stroke="#000000" stroke-opacity="0.01" stroke-width="0.3"><path d=" M 991.00 676.00  C 970.33 676.00 949.67 676.00 929.00 676.00 C 930.88 693.45 925.42 716.32 932.00 732.00 C 967.34 732.00 1005.64 731.98 1041.00 732.00 C 1044.45 724.33 1043.02 712.20 1043.00 703.00 C 1042.98 693.80 1044.97 682.81 1040.00 676.00 C 1035.99 677.21 1030.47 677.59 1026.00 676.00 C 1026.83 686.94 1024.64 701.25 1027.00 712.00 C 1018.14 716.80 999.89 716.80 991.00 712.00 C 991.17 700.83 990.87 687.88 991.00 676.00 Z"/>
</g>
<g fill="None" fill-opacity="0.0" stroke="#000000" stroke-opacity="0.97" stroke-width="0.3"><path d=" M 682.00 685.00  C 665.22 687.61 658.09 705.83 667.08 718.92 C 676.07 732.01 698.81 730.53 705.61 714.75 C 712.40 698.97 695.89 682.84 682.00 685.00 Z"/>
</g>
<g fill="None" fill-opacity="0.0" stroke="#000000" stroke-opacity="0.97" stroke-width="0.3"><path d=" M 785.00 685.00  C 766.89 686.90 761.03 711.75 772.78 723.22 C 784.52 734.70 803.94 728.22 808.74 713.75 C 813.54 699.27 800.21 683.41 785.00 685.00 Z"/>
</g>
<g fill="None" fill-opacity="0.0" stroke="#000000" stroke-opacity="0.02" stroke-width="0.3"><path d=" M 1047.00 825.00  C 1014.43 822.72 977.23 824.64 944.00 824.00 C 941.18 838.30 944.89 858.63 942.00 875.00 C 976.46 877.33 1012.09 875.34 1047.00 876.00 C 1047.00 859.00 1047.00 842.00 1047.00 825.00 Z"/>
</g>
<g fill="#000000" fill-opacity="0.00" stroke="None">
<path d=" M 0.00 1024.00  L 1536.00 1024.00 L 1536.00 0.00 L 0.00 0.00 L 0.00 1024.00 M 720.00 66.00  C 729.75 64.34 742.11 68.09 750.25 70.76 C 758.38 73.42 768.27 81.25 774.92 90.08 C 781.58 98.90 786.23 107.80 788.78 118.22 C 791.32 128.65 783.97 148.38 796.08 150.93 C 808.19 153.49 816.07 151.62 827.23 155.77 C 838.39 159.93 847.40 166.35 852.57 177.77 C 857.74 189.18 855.98 197.12 857.00 212.00 C 858.02 226.88 849.00 233.75 833.00 232.00 C 817.00 230.25 799.20 232.79 783.00 232.00 C 766.80 231.21 749.09 232.37 733.00 232.00 C 716.91 231.63 699.69 232.16 684.00 232.00 C 668.31 231.84 648.79 232.08 634.00 232.00 C 619.21 231.92 604.77 234.72 600.61 223.25 C 596.45 211.77 599.19 196.37 600.60 187.25 C 602.02 178.13 607.99 169.72 616.75 162.75 C 625.51 155.78 634.28 152.19 644.75 152.60 C 655.22 153.02 671.72 150.78 668.66 137.32 C 665.60 123.86 670.19 116.63 672.76 106.75 C 675.33 96.88 682.10 88.40 690.70 80.70 C 699.30 72.99 709.35 67.81 720.00 66.00 M 595.00 175.00  C 590.50 187.53 582.96 202.51 587.33 220.67 C 591.70 238.83 600.61 245.63 621.00 245.00 C 641.39 244.37 669.29 245.05 691.00 245.00 C 712.71 244.95 740.20 244.51 762.00 245.00 C 783.80 245.49 811.27 243.63 832.00 245.00 C 852.73 246.37 867.03 239.30 869.93 220.92 C 872.84 202.54 868.31 189.28 862.00 176.00 C 897.39 176.61 928.99 167.82 955.89 189.11 C 982.80 210.39 984.46 231.86 983.00 271.00 C 981.54 310.14 983.59 358.13 983.00 399.00 C 982.41 439.87 983.10 484.45 983.00 526.00 C 982.90 567.55 982.25 611.69 984.00 653.00 C 971.00 653.00 958.00 653.00 945.00 653.00 C 947.33 535.17 945.33 416.25 946.00 298.00 C 802.32 298.00 655.66 298.00 512.00 298.00 C 513.14 328.14 510.56 360.02 512.00 391.00 C 513.44 421.98 512.64 454.64 513.00 486.00 C 513.36 517.36 512.03 550.96 513.00 582.00 C 513.97 613.04 510.75 646.83 513.00 677.00 C 515.25 707.17 506.17 735.23 516.80 759.25 C 527.43 783.26 550.04 784.75 578.00 784.00 C 605.96 783.25 643.09 784.43 673.00 784.00 C 702.91 783.57 738.46 784.39 769.00 784.00 C 799.54 783.61 832.52 785.06 862.00 783.00 C 862.00 802.67 862.00 822.33 862.00 842.00 C 830.42 841.95 797.43 842.07 766.00 842.00 C 734.57 841.93 699.81 842.13 669.00 842.00 C 638.19 841.87 601.17 842.29 572.00 842.00 C 542.83 841.71 529.94 839.74 511.23 826.43 C 492.52 813.12 480.85 800.93 475.69 779.30 C 470.54 757.68 473.57 725.79 473.00 697.00 C 472.43 668.21 473.21 630.48 473.00 600.00 C 472.79 569.52 472.99 533.93 473.00 503.00 C 473.01 472.07 472.76 437.55 473.00 407.00 C 473.24 376.45 472.37 339.13 473.00 310.00 C 473.63 280.87 470.57 247.87 475.40 225.25 C 480.23 202.64 496.49 190.84 515.70 180.69 C 534.91 170.55 569.95 179.34 595.00 175.00 M 609.00 401.00  C 622.13 397.33 639.25 402.70 654.00 401.00 C 668.75 399.30 685.93 401.90 701.00 401.00 C 716.07 400.10 733.01 401.70 748.00 401.00 C 762.99 400.30 780.54 401.97 795.00 401.00 C 809.46 400.04 828.88 402.87 842.00 401.00 C 855.12 399.13 865.56 405.93 861.60 417.75 C 857.65 429.58 840.61 424.18 828.00 425.00 C 815.39 425.82 794.66 424.71 781.00 425.00 C 767.34 425.29 749.45 425.05 736.33 425.33 C 723.21 425.61 711.18 425.13 697.00 425.00 C 682.82 424.87 664.00 425.63 650.00 425.00 C 636.00 424.37 620.18 427.19 607.75 424.20 C 595.33 421.21 600.88 403.27 609.00 401.00 M 609.00 443.00  C 620.17 439.28 635.84 444.61 649.00 443.00 C 662.16 441.39 678.42 443.72 692.00 443.00 C 705.58 442.28 720.37 443.26 734.00 443.00 C 747.63 442.74 763.69 443.00 777.00 443.00 C 790.31 443.00 806.62 442.71 819.00 443.00 C 831.38 443.29 848.76 440.98 857.10 445.90 C 865.43 450.83 863.41 464.93 852.75 466.80 C 842.09 468.67 824.82 467.94 812.00 468.00 C 799.19 468.06 782.48 467.99 769.00 468.00 C 755.52 468.01 740.70 468.02 727.00 468.00 C 713.30 467.98 697.61 468.07 684.00 468.00 C 670.39 467.93 655.12 468.17 642.00 468.00 C 628.88 467.83 614.65 469.32 605.90 465.09 C 597.15 460.86 599.65 446.12 609.00 443.00 M 620.00 549.00  C 698.86 549.00 778.87 549.01 857.00 549.00 C 863.82 559.40 856.40 570.04 855.07 582.08 C 853.74 594.11 849.48 605.31 847.41 617.75 C 845.33 630.18 842.98 640.21 840.81 652.25 C 838.63 664.28 838.03 680.65 819.00 678.00 C 799.97 675.35 777.78 679.43 759.00 678.00 C 740.23 676.57 717.78 679.12 700.00 678.00 C 682.22 676.88 657.25 679.73 642.25 677.61 C 627.25 675.48 633.00 659.35 627.81 649.75 C 622.62 640.15 621.64 628.43 617.69 618.30 C 613.75 608.18 611.79 597.91 608.61 587.25 C 605.42 576.59 601.41 567.74 598.24 556.75 C 595.07 545.77 593.46 534.24 582.23 527.43 C 571.00 520.62 548.38 533.81 542.07 516.93 C 535.77 500.04 561.58 499.51 574.22 501.22 C 586.87 502.93 598.95 507.39 607.75 517.25 C 616.55 527.11 616.74 537.69 620.00 549.00 M 891.00 659.00  C 904.57 657.57 920.79 661.19 936.00 660.00 C 951.21 658.81 969.70 660.44 985.00 660.00 C 1000.30 659.56 1019.29 659.98 1034.00 660.00 C 1048.71 660.02 1061.86 657.13 1070.75 666.25 C 1079.64 675.37 1087.38 680.72 1095.75 690.25 C 1104.13 699.77 1114.28 701.97 1116.59 713.75 C 1118.90 725.53 1115.94 747.12 1117.00 761.00 C 1118.06 774.88 1115.91 794.82 1117.00 809.00 C 1118.09 823.18 1115.57 844.20 1116.07 857.07 C 1116.57 869.95 1113.15 878.09 1103.26 885.26 C 1093.36 892.42 1090.07 893.43 1075.00 894.00 C 1059.93 894.57 1043.34 893.94 1028.00 894.00 C 1012.66 894.06 994.40 894.14 979.00 894.00 C 963.60 893.86 944.83 894.43 930.00 894.00 C 915.17 893.57 901.03 895.98 889.75 890.20 C 878.47 884.42 872.02 877.68 870.40 865.26 C 868.79 852.83 870.41 832.38 870.00 818.00 C 869.59 803.62 870.08 783.69 870.00 769.00 C 869.92 754.31 870.14 734.66 869.00 721.00 C 867.86 707.34 869.08 687.65 871.71 678.70 C 874.35 669.75 880.72 660.08 891.00 659.00 M 682.00 685.00  C 695.89 682.84 712.40 698.97 705.61 714.75 C 698.81 730.53 676.07 732.01 667.08 718.92 C 658.09 705.83 665.22 687.61 682.00 685.00 M 785.00 685.00  C 800.21 683.41 813.54 699.27 808.74 713.75 C 803.94 728.22 784.52 734.70 772.78 723.22 C 761.03 711.75 766.89 686.90 785.00 685.00 Z"/>
</g>
<g fill="#000000" fill-opacity="1.00" stroke="None">
<path d=" M 720.00 66.00  C 709.35 67.81 699.30 72.99 690.70 80.70 C 682.10 88.40 675.33 96.88 672.76 106.75 C 670.19 116.63 665.60 123.86 668.66 137.32 C 671.72 150.78 655.22 153.02 644.75 152.60 C 634.28 152.19 625.51 155.78 616.75 162.75 C 607.99 169.72 602.02 178.13 600.60 187.25 C 599.19 196.37 596.45 211.77 600.61 223.25 C 604.77 234.72 619.21 231.92 634.00 232.00 C 648.79 232.08 668.31 231.84 684.00 232.00 C 699.69 232.16 716.91 231.63 733.00 232.00 C 749.09 232.37 766.80 231.21 783.00 232.00 C 799.20 232.79 817.00 230.25 833.00 232.00 C 849.00 233.75 858.02 226.88 857.00 212.00 C 855.98 197.12 857.74 189.18 852.57 177.77 C 847.40 166.35 838.39 159.93 827.23 155.77 C 816.07 151.62 808.19 153.49 796.08 150.93 C 783.97 148.38 791.32 128.65 788.78 118.22 C 786.23 107.80 781.58 98.90 774.92 90.08 C 768.27 81.25 758.38 73.42 750.25 70.76 C 742.11 68.09 729.75 64.34 720.00 66.00 Z"/>
</g>
<g fill="#000000" fill-opacity="0.99" stroke="None">
<path d=" M 595.00 175.00  C 569.95 179.34 534.91 170.55 515.70 180.69 C 496.49 190.84 480.23 202.64 475.40 225.25 C 470.57 247.87 473.63 280.87 473.00 310.00 C 472.37 339.13 473.24 376.45 473.00 407.00 C 472.76 437.55 473.01 472.07 473.00 503.00 C 472.99 533.93 472.79 569.52 473.00 600.00 C 473.21 630.48 472.43 668.21 473.00 697.00 C 473.57 725.79 470.54 757.68 475.69 779.30 C 480.85 800.93 492.52 813.12 511.23 826.43 C 529.94 839.74 542.83 841.71 572.00 842.00 C 601.17 842.29 638.19 841.87 669.00 842.00 C 699.81 842.13 734.57 841.93 766.00 842.00 C 797.43 842.07 830.42 841.95 862.00 842.00 C 862.00 822.33 862.00 802.67 862.00 783.00 C 832.52 785.06 799.54 783.61 769.00 784.00 C 738.46 784.39 702.91 783.57 673.00 784.00 C 643.09 784.43 605.96 783.25 578.00 784.00 C 550.04 784.75 527.43 783.26 516.80 759.25 C 506.17 735.23 515.25 707.17 513.00 677.00 C 510.75 646.83 513.97 613.04 513.00 582.00 C 512.03 550.96 513.36 517.36 513.00 486.00 C 512.64 454.64 513.44 421.98 512.00 391.00 C 510.56 360.02 513.14 328.14 512.00 298.00 C 655.66 298.00 802.32 298.00 946.00 298.00 C 945.33 416.25 947.33 535.17 945.00 653.00 C 958.00 653.00 971.00 653.00 984.00 653.00 C 982.25 611.69 982.90 567.55 983.00 526.00 C 983.10 484.45 982.41 439.87 983.00 399.00 C 983.59 358.13 981.54 310.14 983.00 271.00 C 984.46 231.86 982.80 210.39 955.89 189.11 C 928.99 167.82 897.39 176.61 862.00 176.00 C 868.31 189.28 872.84 202.54 869.93 220.92 C 867.03 239.30 852.73 246.37 832.00 245.00 C 811.27 243.63 783.80 245.49 762.00 245.00 C 740.20 244.51 712.71 244.95 691.00 245.00 C 669.29 245.05 641.39 244.37 621.00 245.00 C 600.61 245.63 591.70 238.83 587.33 220.67 C 582.96 202.51 590.50 187.53 595.00 175.00 Z"/>
</g>
<g fill="#000000" fill-opacity="0.99" stroke="None">
<path d=" M 609.00 401.00  C 600.88 403.27 595.33 421.21 607.75 424.20 C 620.18 427.19 636.00 424.37 650.00 425.00 C 664.00 425.63 682.82 424.87 697.00 425.00 C 711.18 425.13 723.21 425.61 736.33 425.33 C 749.45 425.05 767.34 425.29 781.00 425.00 C 794.66 424.71 815.39 425.82 828.00 425.00 C 840.61 424.18 857.65 429.58 861.60 417.75 C 865.56 405.93 855.12 399.13 842.00 401.00 C 828.88 402.87 809.46 400.04 795.00 401.00 C 780.54 401.97 762.99 400.30 748.00 401.00 C 733.01 401.70 716.07 400.10 701.00 401.00 C 685.93 401.90 668.75 399.30 654.00 401.00 C 639.25 402.70 622.13 397.33 609.00 401.00 Z"/>
</g>
<g fill="#000000" fill-opacity="0.96" stroke="None">
<path d=" M 609.00 443.00  C 599.65 446.12 597.15 460.86 605.90 465.09 C 614.65 469.32 628.88 467.83 642.00 468.00 C 655.12 468.17 670.39 467.93 684.00 468.00 C 697.61 468.07 713.30 467.98 727.00 468.00 C 740.70 468.02 755.52 468.01 769.00 468.00 C 782.48 467.99 799.19 468.06 812.00 468.00 C 824.82 467.94 842.09 468.67 852.75 466.80 C 863.41 464.93 865.43 450.83 857.10 445.90 C 848.76 440.98 831.38 443.29 819.00 443.00 C 806.62 442.71 790.31 443.00 777.00 443.00 C 763.69 443.00 747.63 442.74 734.00 443.00 C 720.37 443.26 705.58 442.28 692.00 443.00 C 678.42 443.72 662.16 441.39 649.00 443.00 C 635.84 444.61 620.17 439.28 609.00 443.00 Z"/>
</g>
<g fill="#000000" fill-opacity="0.99" stroke="None">
<path d=" M 620.00 549.00  C 616.74 537.69 616.55 527.11 607.75 517.25 C 598.95 507.39 586.87 502.93 574.22 501.22 C 561.58 499.51 535.77 500.04 542.07 516.93 C 548.38 533.81 571.00 520.62 582.23 527.43 C 593.46 534.24 595.07 545.77 598.24 556.75 C 601.41 567.74 605.42 576.59 608.61 587.25 C 611.79 597.91 613.75 608.18 617.69 618.30 C 621.64 628.43 622.62 640.15 627.81 649.75 C 633.00 659.35 627.25 675.48 642.25 677.61 C 657.25 679.73 682.22 676.88 700.00 678.00 C 717.78 679.12 740.23 676.57 759.00 678.00 C 777.78 679.43 799.97 675.35 819.00 678.00 C 838.03 680.65 838.63 664.28 840.81 652.25 C 842.98 640.21 845.33 630.18 847.41 617.75 C 849.48 605.31 853.74 594.11 855.07 582.08 C 856.40 570.04 863.82 559.40 857.00 549.00 C 778.87 549.01 698.86 549.00 620.00 549.00 Z"/>
</g>
<g fill="#000000" fill-opacity="0.97" stroke="None">
<path d=" M 891.00 659.00  C 880.72 660.08 874.35 669.75 871.71 678.70 C 869.08 687.65 867.86 707.34 869.00 721.00 C 870.14 734.66 869.92 754.31 870.00 769.00 C 870.08 783.69 869.59 803.62 870.00 818.00 C 870.41 832.38 868.79 852.83 870.40 865.26 C 872.02 877.68 878.47 884.42 889.75 890.20 C 901.03 895.98 915.17 893.57 930.00 894.00 C 944.83 894.43 963.60 893.86 979.00 894.00 C 994.40 894.14 1012.66 894.06 1028.00 894.00 C 1043.34 893.94 1059.93 894.57 1075.00 894.00 C 1090.07 893.43 1093.36 892.42 1103.26 885.26 C 1113.15 878.09 1116.57 869.95 1116.07 857.07 C 1115.57 844.20 1118.09 823.18 1117.00 809.00 C 1115.91 794.82 1118.06 774.88 1117.00 761.00 C 1115.94 747.12 1118.90 725.53 1116.59 713.75 C 1114.28 701.97 1104.13 699.77 1095.75 690.25 C 1087.38 680.72 1079.64 675.37 1070.75 666.25 C 1061.86 657.13 1048.71 660.02 1034.00 660.00 C 1019.29 659.98 1000.30 659.56 985.00 660.00 C 969.70 660.44 951.21 658.81 936.00 660.00 C 920.79 661.19 904.57 657.57 891.00 659.00 M 1065.00 686.00  C 1070.95 693.79 1077.46 697.28 1084.70 704.30 C 1091.93 711.32 1099.43 717.23 1098.00 729.00 C 1096.57 740.77 1098.67 754.95 1098.00 767.00 C 1097.33 779.05 1098.35 793.08 1098.00 805.00 C 1097.65 816.92 1098.26 831.71 1098.00 843.00 C 1097.74 854.29 1099.05 864.81 1092.74 871.74 C 1086.44 878.68 1075.43 873.02 1067.00 876.00 C 1066.55 858.49 1071.11 834.58 1067.80 817.75 C 1064.50 800.93 1044.41 805.04 1028.00 805.00 C 1011.59 804.96 983.59 804.33 967.00 805.00 C 950.41 805.67 927.37 799.27 923.61 816.75 C 919.84 834.23 922.26 857.93 923.00 876.00 C 913.76 871.91 900.00 880.26 893.25 870.75 C 886.50 861.24 890.83 848.21 890.00 836.00 C 889.17 823.79 890.26 808.54 890.00 796.00 C 889.74 783.46 889.86 768.34 890.00 756.00 C 890.14 743.66 888.68 728.52 889.00 717.00 C 889.32 705.48 888.01 690.92 890.19 683.75 C 892.37 676.57 908.82 671.40 907.01 683.01 C 905.19 694.61 908.16 710.20 907.00 722.00 C 905.84 733.80 907.31 742.23 915.75 747.39 C 924.20 752.55 930.56 750.11 943.00 750.00 C 955.44 749.89 970.23 750.32 983.00 750.00 C 995.77 749.68 1010.28 750.75 1023.00 750.00 C 1035.72 749.25 1046.78 753.10 1056.30 747.30 C 1065.81 741.49 1064.17 729.77 1064.00 719.00 C 1063.83 708.23 1063.88 696.04 1065.00 686.00 M 991.00 676.00  C 990.87 687.88 991.17 700.83 991.00 712.00 C 999.89 716.80 1018.14 716.80 1027.00 712.00 C 1024.64 701.25 1026.83 686.94 1026.00 676.00 C 1030.47 677.59 1035.99 677.21 1040.00 676.00 C 1044.97 682.81 1042.98 693.80 1043.00 703.00 C 1043.02 712.20 1044.45 724.33 1041.00 732.00 C 1005.64 731.98 967.34 732.00 932.00 732.00 C 925.42 716.32 930.88 693.45 929.00 676.00 C 949.67 676.00 970.33 676.00 991.00 676.00 M 1047.00 825.00  C 1047.00 842.00 1047.00 859.00 1047.00 876.00 C 1012.09 875.34 976.46 877.33 942.00 875.00 C 944.89 858.63 941.18 838.30 944.00 824.00 C 977.23 824.64 1014.43 822.72 1047.00 825.00 Z"/>
</g>
<g fill="#000000" fill-opacity="0.02" stroke="None">
<path d=" M 1065.00 686.00  C 1063.88 696.04 1063.83 708.23 1064.00 719.00 C 1064.17 729.77 1065.81 741.49 1056.30 747.30 C 1046.78 753.10 1035.72 749.25 1023.00 750.00 C 1010.28 750.75 995.77 749.68 983.00 750.00 C 970.23 750.32 955.44 749.89 943.00 750.00 C 930.56 750.11 924.20 752.55 915.75 747.39 C 907.31 742.23 905.84 733.80 907.00 722.00 C 908.16 710.20 905.19 694.61 907.01 683.01 C 908.82 671.40 892.37 676.57 890.19 683.75 C 888.01 690.92 889.32 705.48 889.00 717.00 C 888.68 728.52 890.14 743.66 890.00 756.00 C 889.86 768.34 889.74 783.46 890.00 796.00 C 890.26 808.54 889.17 823.79 890.00 836.00 C 890.83 848.21 886.50 861.24 893.25 870.75 C 900.00 880.26 913.76 871.91 923.00 876.00 C 922.26 857.93 919.84 834.23 923.61 816.75 C 927.37 799.27 950.41 805.67 967.00 805.00 C 983.59 804.33 1011.59 804.96 1028.00 805.00 C 1044.41 805.04 1064.50 800.93 1067.80 817.75 C 1071.11 834.58 1066.55 858.49 1067.00 876.00 C 1075.43 873.02 1086.44 878.68 1092.74 871.74 C 1099.05 864.81 1097.74 854.29 1098.00 843.00 C 1098.26 831.71 1097.65 816.92 1098.00 805.00 C 1098.35 793.08 1097.33 779.05 1098.00 767.00 C 1098.67 754.95 1096.57 740.77 1098.00 729.00 C 1099.43 717.23 1091.93 711.32 1084.70 704.30 C 1077.46 697.28 1070.95 693.79 1065.00 686.00 Z"/>
</g>
<g fill="#000000" fill-opacity="0.01" stroke="None">
<path d=" M 991.00 676.00  C 970.33 676.00 949.67 676.00 929.00 676.00 C 930.88 693.45 925.42 716.32 932.00 732.00 C 967.34 732.00 1005.64 731.98 1041.00 732.00 C 1044.45 724.33 1043.02 712.20 1043.00 703.00 C 1042.98 693.80 1044.97 682.81 1040.00 676.00 C 1035.99 677.21 1030.47 677.59 1026.00 676.00 C 1026.83 686.94 1024.64 701.25 1027.00 712.00 C 1018.14 716.80 999.89 716.80 991.00 712.00 C 991.17 700.83 990.87 687.88 991.00 676.00 Z"/>
</g>
<g fill="#000000" fill-opacity="0.97" stroke="None">
<path d=" M 682.00 685.00  C 665.22 687.61 658.09 705.83 667.08 718.92 C 676.07 732.01 698.81 730.53 705.61 714.75 C 712.40 698.97 695.89 682.84 682.00 685.00 Z"/>
</g>
<g fill="#000000" fill-opacity="0.97" stroke="None">
<path d=" M 785.00 685.00  C 766.89 686.90 761.03 711.75 772.78 723.22 C 784.52 734.70 803.94 728.22 808.74 713.75 C 813.54 699.27 800.21 683.41 785.00 685.00 Z"/>
</g>
<g fill="#000000" fill-opacity="0.02" stroke="None">
<path d=" M 1047.00 825.00  C 1014.43 822.72 977.23 824.64 944.00 824.00 C 941.18 838.30 944.89 858.63 942.00 875.00 C 976.46 877.33 1012.09 875.34 1047.00 876.00 C 1047.00 859.00 1047.00 842.00 1047.00 825.00 Z"/>
</g>
</svg>
