<svg xmlns="http://www.w3.org/2000/svg" xmlns:v="https://svgstorm.com"
viewBox = "0 0 1536 1024"
width="1536"
height="1024">
<g fill="None" fill-opacity="0.0" stroke="#000000" stroke-opacity="0.00" stroke-width="0.3"><path d="
M 0.00 1024.00 
L 1536.00 1024.00
L 1536.00 0.00
L 0.00 0.00
L 0.00 1024.00
M 649.00 172.00 
C 688.17 169.52 719.78 179.75 752.23 200.77 C 784.68 221.79 804.43 254.53 813.80 287.25 C 823.17 319.97 817.30 359.64 804.75 389.75 C 792.19 419.86 759.63 451.89 728.31 465.31 C 696.98 478.72 656.33 481.04 621.75 473.80 C 587.18 466.57 553.03 440.88 532.30 411.70 C 511.56 382.53 504.91 347.25 507.78 309.78 C 510.65 272.31 523.73 244.04 550.75 216.75 C 577.78 189.46 612.71 174.30 649.00 172.00
M 647.00 517.00 
C 656.12 517.39 667.92 516.64 677.22 517.22 C 686.52 517.80 697.92 519.05 706.22 518.78 C 714.53 518.51 723.27 519.98 730.74 520.60 C 738.22 521.21 745.79 521.77 752.25 522.80 C 758.71 523.83 765.58 524.42 771.75 525.40 C 777.92 526.37 784.46 529.45 791.23 530.77 C 798.00 532.09 804.16 533.85 810.25 535.19 C 816.33 536.54 821.76 541.55 827.30 542.71 C 832.84 543.88 841.35 549.57 845.25 551.75 C 849.16 553.93 864.99 559.40 855.32 564.32 C 845.66 569.24 843.08 572.09 835.75 579.75 C 828.42 587.42 827.65 594.26 825.00 604.00 C 822.36 613.74 826.67 624.07 828.78 633.22 C 830.89 642.38 834.86 648.86 842.08 654.92 C 849.31 660.97 855.75 663.11 865.08 665.92 C 874.40 668.74 873.37 684.16 872.00 694.00 C 870.63 703.84 854.41 694.74 846.00 695.00 C 837.59 695.27 825.55 697.79 817.32 701.32 C 809.09 704.85 803.35 711.65 803.02 721.02 C 802.70 730.40 801.37 742.01 807.25 749.75 C 813.13 757.49 820.99 758.17 828.08 763.92 C 835.17 769.67 842.41 771.15 849.70 777.30 C 856.98 783.46 864.00 782.48 871.25 790.75 C 878.49 799.03 861.02 800.38 851.00 799.00 C 840.98 797.62 826.92 799.86 816.00 799.00 C 805.08 798.14 793.07 799.54 782.00 800.00 C 770.93 800.46 758.36 799.80 747.00 800.00 C 735.64 800.20 723.45 799.91 712.00 800.00 C 700.55 800.09 689.51 799.97 678.00 800.00 C 666.49 800.03 654.56 800.01 643.00 800.00 C 631.44 799.99 619.55 800.05 608.00 800.00 C 596.45 799.95 584.46 800.13 573.00 800.00 C 561.54 799.87 550.33 800.29 539.00 800.00 C 527.67 799.71 516.42 798.72 505.00 799.00 C 493.58 799.28 481.16 798.99 470.00 799.00 C 458.84 799.01 445.56 799.25 435.00 799.00 C 424.44 798.75 414.62 801.97 406.75 797.81 C 398.88 793.64 399.42 788.88 398.22 780.78 C 397.02 772.67 398.85 755.05 398.67 747.33 C 398.49 739.60 399.77 733.30 400.65 726.31 C 401.52 719.31 401.53 713.57 403.20 706.75 C 404.86 699.94 406.06 693.69 408.26 687.25 C 410.47 680.80 410.36 675.60 413.19 669.75 C 416.02 663.90 418.26 654.95 421.39 649.25 C 424.53 643.54 429.24 634.67 432.97 627.97 C 436.71 621.28 442.85 613.93 447.30 607.30 C 451.76 600.68 457.82 595.65 462.92 588.92 C 468.02 582.18 474.79 577.23 481.08 572.08 C 487.38 566.93 494.44 560.99 500.89 556.89 C 507.35 552.80 515.33 547.65 521.30 544.29 C 527.28 540.92 534.56 538.57 540.25 536.20 C 545.93 533.83 551.75 531.59 557.75 529.74 C 563.75 527.88 570.50 526.01 577.23 524.23 C 583.96 522.45 590.79 522.77 597.75 521.60 C 604.71 520.44 612.16 518.81 620.00 519.00 C 627.84 519.20 638.03 516.62 647.00 517.00
M 938.00 661.00 
C 934.58 657.02 935.68 653.99 938.00 650.00
C 966.05 646.87 1008.28 656.02 1030.30 645.29 C 1052.32 634.55 1059.63 598.06 1036.10 583.90 C 1012.57 569.74 965.36 577.48 935.00 576.00 C 904.64 574.52 863.55 570.27 848.90 594.90 C 834.25 619.53 854.89 642.64 874.00 648.00
C 872.64 663.34 858.22 654.71 850.70 647.30 C 843.18 639.89 834.79 629.73 834.61 618.25 C 834.42 606.76 834.53 594.66 842.90 584.90 C 851.27 575.15 857.76 569.13 869.70 566.69 C 881.63 564.25 899.73 565.11 915.00 565.00 C 930.27 564.89 952.61 564.99 968.00 565.00 C 983.39 565.01 1003.81 564.50 1017.25 565.80 C 1030.68 567.10 1033.72 568.70 1043.70 576.30 C 1053.67 583.90 1057.43 593.58 1059.20 604.25 C 1060.97 614.91 1061.24 626.40 1054.70 636.70 C 1048.15 646.99 1039.95 654.63 1029.30 658.30 C 1018.66 661.98 1002.99 659.37 988.00 660.00 C 973.01 660.63 952.30 658.91 938.00 661.00
M 910.00 600.00 
C 907.21 601.00 905.60 603.45 903.00 603.00
C 897.05 597.13 888.72 592.50 879.75 594.20 C 870.78 595.90 867.14 602.45 865.20 611.25 C 863.26 620.05 876.09 628.51 874.00 635.00
C 861.70 640.78 853.54 620.51 854.61 609.25 C 855.67 597.99 866.18 586.16 878.75 584.61 C 891.32 583.05 907.09 586.30 910.00 600.00
M 1029.00 610.00 
C 1025.55 619.44 1012.74 627.57 1005.00 633.00
C 995.21 628.31 1004.56 621.71 1009.00 618.00
C 990.07 618.87 972.28 617.72 953.00 618.00
C 950.85 615.09 951.77 611.85 951.00 609.00
C 967.73 604.81 990.44 607.35 1009.00 608.00
C 1007.41 603.99 1001.53 602.30 1000.00 599.00
C 1006.43 582.13 1020.10 605.22 1029.00 610.00
M 929.00 686.00 
C 936.47 678.96 951.01 680.40 956.00 690.00
C 963.75 682.14 980.90 682.23 987.00 693.00
C 997.65 683.27 1020.61 685.36 1023.39 702.75 C 1026.18 720.15 1025.55 747.41 1025.00 767.00 C 1024.45 786.59 1028.66 806.91 1014.00 817.00
C 1019.49 834.21 1009.27 837.88 994.99 836.01 C 980.71 834.13 964.01 837.51 949.00 836.00 C 933.99 834.49 915.61 839.44 903.00 833.00
C 904.41 828.56 899.50 822.50 903.00 817.00
C 887.81 803.48 882.72 782.97 866.75 768.25 C 850.78 753.53 839.02 754.46 819.25 745.41 C 799.49 736.35 809.29 705.28 829.75 704.61 C 850.21 703.93 867.33 704.61 882.00 717.00
C 880.63 701.46 880.41 681.63 881.00 666.00 C 881.59 650.37 878.81 633.12 882.80 620.75 C 886.79 608.38 901.20 603.75 911.75 607.26 C 922.31 610.78 929.87 619.03 928.99 633.01 C 928.12 646.98 929.66 671.10 929.00 686.00 Z"/>
</g>
<g fill="None" fill-opacity="0.0" stroke="#000000" stroke-opacity="1.00" stroke-width="0.3"><path d="
M 649.00 172.00 
C 612.71 174.30 577.78 189.46 550.75 216.75 C 523.73 244.04 510.65 272.31 507.78 309.78 C 504.91 347.25 511.56 382.53 532.30 411.70 C 553.03 440.88 587.18 466.57 621.75 473.80 C 656.33 481.04 696.98 478.72 728.31 465.31 C 759.63 451.89 792.19 419.86 804.75 389.75 C 817.30 359.64 823.17 319.97 813.80 287.25 C 804.43 254.53 784.68 221.79 752.23 200.77 C 719.78 179.75 688.17 169.52 649.00 172.00 Z"/>
</g>
<g fill="None" fill-opacity="0.0" stroke="#000000" stroke-opacity="1.00" stroke-width="0.3"><path d="
M 647.00 517.00 
C 638.03 516.62 627.84 519.20 620.00 519.00 C 612.16 518.81 604.71 520.44 597.75 521.60 C 590.79 522.77 583.96 522.45 577.23 524.23 C 570.50 526.01 563.75 527.88 557.75 529.74 C 551.75 531.59 545.93 533.83 540.25 536.20 C 534.56 538.57 527.28 540.92 521.30 544.29 C 515.33 547.65 507.35 552.80 500.89 556.89 C 494.44 560.99 487.38 566.93 481.08 572.08 C 474.79 577.23 468.02 582.18 462.92 588.92 C 457.82 595.65 451.76 600.68 447.30 607.30 C 442.85 613.93 436.71 621.28 432.97 627.97 C 429.24 634.67 424.53 643.54 421.39 649.25 C 418.26 654.95 416.02 663.90 413.19 669.75 C 410.36 675.60 410.47 680.80 408.26 687.25 C 406.06 693.69 404.86 699.94 403.20 706.75 C 401.53 713.57 401.52 719.31 400.65 726.31 C 399.77 733.30 398.49 739.60 398.67 747.33 C 398.85 755.05 397.02 772.67 398.22 780.78 C 399.42 788.88 398.88 793.64 406.75 797.81 C 414.62 801.97 424.44 798.75 435.00 799.00 C 445.56 799.25 458.84 799.01 470.00 799.00 C 481.16 798.99 493.58 799.28 505.00 799.00 C 516.42 798.72 527.67 799.71 539.00 800.00 C 550.33 800.29 561.54 799.87 573.00 800.00 C 584.46 800.13 596.45 799.95 608.00 800.00 C 619.55 800.05 631.44 799.99 643.00 800.00 C 654.56 800.01 666.49 800.03 678.00 800.00 C 689.51 799.97 700.55 800.09 712.00 800.00 C 723.45 799.91 735.64 800.20 747.00 800.00 C 758.36 799.80 770.93 800.46 782.00 800.00 C 793.07 799.54 805.08 798.14 816.00 799.00 C 826.92 799.86 840.98 797.62 851.00 799.00 C 861.02 800.38 878.49 799.03 871.25 790.75 C 864.00 782.48 856.98 783.46 849.70 777.30 C 842.41 771.15 835.17 769.67 828.08 763.92 C 820.99 758.17 813.13 757.49 807.25 749.75 C 801.37 742.01 802.70 730.40 803.02 721.02 C 803.35 711.65 809.09 704.85 817.32 701.32 C 825.55 697.79 837.59 695.27 846.00 695.00 C 854.41 694.74 870.63 703.84 872.00 694.00 C 873.37 684.16 874.40 668.74 865.08 665.92 C 855.75 663.11 849.31 660.97 842.08 654.92 C 834.86 648.86 830.89 642.38 828.78 633.22 C 826.67 624.07 822.36 613.74 825.00 604.00 C 827.65 594.26 828.42 587.42 835.75 579.75 C 843.08 572.09 845.66 569.24 855.32 564.32 C 864.99 559.40 849.16 553.93 845.25 551.75 C 841.35 549.57 832.84 543.88 827.30 542.71 C 821.76 541.55 816.33 536.54 810.25 535.19 C 804.16 533.85 798.00 532.09 791.23 530.77 C 784.46 529.45 777.92 526.37 771.75 525.40 C 765.58 524.42 758.71 523.83 752.25 522.80 C 745.79 521.77 738.22 521.21 730.74 520.60 C 723.27 519.98 714.53 518.51 706.22 518.78 C 697.92 519.05 686.52 517.80 677.22 517.22 C 667.92 516.64 656.12 517.39 647.00 517.00 Z"/>
</g>
<g fill="None" fill-opacity="0.0" stroke="#000000" stroke-opacity="0.96" stroke-width="0.3"><path d="
M 938.00 661.00 
C 952.30 658.91 973.01 660.63 988.00 660.00 C 1002.99 659.37 1018.66 661.98 1029.30 658.30 C 1039.95 654.63 1048.15 646.99 1054.70 636.70 C 1061.24 626.40 1060.97 614.91 1059.20 604.25 C 1057.43 593.58 1053.67 583.90 1043.70 576.30 C 1033.72 568.70 1030.68 567.10 1017.25 565.80 C 1003.81 564.50 983.39 565.01 968.00 565.00 C 952.61 564.99 930.27 564.89 915.00 565.00 C 899.73 565.11 881.63 564.25 869.70 566.69 C 857.76 569.13 851.27 575.15 842.90 584.90 C 834.53 594.66 834.42 606.76 834.61 618.25 C 834.79 629.73 843.18 639.89 850.70 647.30 C 858.22 654.71 872.64 663.34 874.00 648.00
C 854.89 642.64 834.25 619.53 848.90 594.90 C 863.55 570.27 904.64 574.52 935.00 576.00 C 965.36 577.48 1012.57 569.74 1036.10 583.90 C 1059.63 598.06 1052.32 634.55 1030.30 645.29 C 1008.28 656.02 966.05 646.87 938.00 650.00
C 935.68 653.99 934.58 657.02 938.00 661.00 Z"/>
</g>
<g fill="None" fill-opacity="0.0" stroke="#000000" stroke-opacity="0.94" stroke-width="0.3"><path d="
M 910.00 600.00 
C 907.09 586.30 891.32 583.05 878.75 584.61 C 866.18 586.16 855.67 597.99 854.61 609.25 C 853.54 620.51 861.70 640.78 874.00 635.00
C 876.09 628.51 863.26 620.05 865.20 611.25 C 867.14 602.45 870.78 595.90 879.75 594.20 C 888.72 592.50 897.05 597.13 903.00 603.00
C 905.60 603.45 907.21 601.00 910.00 600.00 Z"/>
</g>
<g fill="None" fill-opacity="0.0" stroke="#000000" stroke-opacity="0.96" stroke-width="0.3"><path d="
M 1029.00 610.00 
C 1020.10 605.22 1006.43 582.13 1000.00 599.00
C 1001.53 602.30 1007.41 603.99 1009.00 608.00
C 990.44 607.35 967.73 604.81 951.00 609.00
C 951.77 611.85 950.85 615.09 953.00 618.00
C 972.28 617.72 990.07 618.87 1009.00 618.00
C 1004.56 621.71 995.21 628.31 1005.00 633.00
C 1012.74 627.57 1025.55 619.44 1029.00 610.00 Z"/>
</g>
<g fill="None" fill-opacity="0.0" stroke="#000000" stroke-opacity="0.96" stroke-width="0.3"><path d="
M 929.00 686.00 
C 929.66 671.10 928.12 646.98 928.99 633.01 C 929.87 619.03 922.31 610.78 911.75 607.26 C 901.20 603.75 886.79 608.38 882.80 620.75 C 878.81 633.12 881.59 650.37 881.00 666.00 C 880.41 681.63 880.63 701.46 882.00 717.00
C 867.33 704.61 850.21 703.93 829.75 704.61 C 809.29 705.28 799.49 736.35 819.25 745.41 C 839.02 754.46 850.78 753.53 866.75 768.25 C 882.72 782.97 887.81 803.48 903.00 817.00
C 899.50 822.50 904.41 828.56 903.00 833.00
C 915.61 839.44 933.99 834.49 949.00 836.00 C 964.01 837.51 980.71 834.13 994.99 836.01 C 1009.27 837.88 1019.49 834.21 1014.00 817.00
C 1028.66 806.91 1024.45 786.59 1025.00 767.00 C 1025.55 747.41 1026.18 720.15 1023.39 702.75 C 1020.61 685.36 997.65 683.27 987.00 693.00
C 980.90 682.23 963.75 682.14 956.00 690.00
C 951.01 680.40 936.47 678.96 929.00 686.00
M 921.00 720.00 
C 923.73 718.81 926.53 720.69 929.00 718.00
C 927.81 706.32 927.76 691.18 941.22 692.78 C 954.68 694.38 945.53 707.77 957.00 710.00
C 957.96 708.48 958.65 706.97 961.00 706.00
C 958.68 701.26 964.00 699.29 966.00 695.00
C 971.07 694.29 979.33 695.91 980.59 701.75 C 981.86 707.58 980.86 713.45 989.00 713.00
C 991.37 703.33 998.44 693.29 1007.92 699.13 C 1017.40 704.97 1013.44 721.39 1014.00 735.00 C 1014.56 748.61 1013.58 769.48 1014.00 783.00 C 1014.42 796.52 1014.50 806.99 1003.00 812.00
C 1004.47 816.05 1000.30 819.99 1003.00 825.00
C 973.15 824.90 942.00 825.14 913.00 825.00
C 917.43 813.56 907.08 807.47 901.68 799.32 C 896.28 791.17 890.72 781.79 885.03 773.97 C 879.35 766.14 871.03 760.12 863.78 754.22 C 856.52 748.33 845.83 743.53 839.08 740.87 C 832.33 738.21 819.81 738.74 818.41 729.25 C 817.01 719.76 827.68 713.95 837.08 714.07 C 846.49 714.18 856.61 716.30 864.75 719.26 C 872.90 722.23 884.07 735.36 892.00 732.00
C 890.66 717.12 891.21 696.56 891.00 681.00 C 890.79 665.44 891.13 641.88 891.80 628.75 C 892.48 615.63 908.40 611.71 914.97 622.03 C 921.54 632.34 916.31 654.87 918.00 670.00 C 919.69 685.13 914.40 707.30 921.00 720.00 Z"/>
</g>
<g fill="None" fill-opacity="0.0" stroke="#000000" stroke-opacity="0.01" stroke-width="0.3"><path d="
M 921.00 720.00 
C 914.40 707.30 919.69 685.13 918.00 670.00 C 916.31 654.87 921.54 632.34 914.97 622.03 C 908.40 611.71 892.48 615.63 891.80 628.75 C 891.13 641.88 890.79 665.44 891.00 681.00 C 891.21 696.56 890.66 717.12 892.00 732.00
C 884.07 735.36 872.90 722.23 864.75 719.26 C 856.61 716.30 846.49 714.18 837.08 714.07 C 827.68 713.95 817.01 719.76 818.41 729.25 C 819.81 738.74 832.33 738.21 839.08 740.87 C 845.83 743.53 856.52 748.33 863.78 754.22 C 871.03 760.12 879.35 766.14 885.03 773.97 C 890.72 781.79 896.28 791.17 901.68 799.32 C 907.08 807.47 917.43 813.56 913.00 825.00
C 942.00 825.14 973.15 824.90 1003.00 825.00
C 1000.30 819.99 1004.47 816.05 1003.00 812.00
C 1014.50 806.99 1014.42 796.52 1014.00 783.00 C 1013.58 769.48 1014.56 748.61 1014.00 735.00 C 1013.44 721.39 1017.40 704.97 1007.92 699.13 C 998.44 693.29 991.37 703.33 989.00 713.00
C 980.86 713.45 981.86 707.58 980.59 701.75 C 979.33 695.91 971.07 694.29 966.00 695.00
C 964.00 699.29 958.68 701.26 961.00 706.00
C 958.65 706.97 957.96 708.48 957.00 710.00
C 945.53 707.77 954.68 694.38 941.22 692.78 C 927.76 691.18 927.81 706.32 929.00 718.00
C 926.53 720.69 923.73 718.81 921.00 720.00 Z"/>
</g>
<g fill="#000000" fill-opacity="0.00" stroke="None">
<path d="
M 0.00 1024.00 
L 1536.00 1024.00
L 1536.00 0.00
L 0.00 0.00
L 0.00 1024.00
M 649.00 172.00 
C 688.17 169.52 719.78 179.75 752.23 200.77 C 784.68 221.79 804.43 254.53 813.80 287.25 C 823.17 319.97 817.30 359.64 804.75 389.75 C 792.19 419.86 759.63 451.89 728.31 465.31 C 696.98 478.72 656.33 481.04 621.75 473.80 C 587.18 466.57 553.03 440.88 532.30 411.70 C 511.56 382.53 504.91 347.25 507.78 309.78 C 510.65 272.31 523.73 244.04 550.75 216.75 C 577.78 189.46 612.71 174.30 649.00 172.00
M 647.00 517.00 
C 656.12 517.39 667.92 516.64 677.22 517.22 C 686.52 517.80 697.92 519.05 706.22 518.78 C 714.53 518.51 723.27 519.98 730.74 520.60 C 738.22 521.21 745.79 521.77 752.25 522.80 C 758.71 523.83 765.58 524.42 771.75 525.40 C 777.92 526.37 784.46 529.45 791.23 530.77 C 798.00 532.09 804.16 533.85 810.25 535.19 C 816.33 536.54 821.76 541.55 827.30 542.71 C 832.84 543.88 841.35 549.57 845.25 551.75 C 849.16 553.93 864.99 559.40 855.32 564.32 C 845.66 569.24 843.08 572.09 835.75 579.75 C 828.42 587.42 827.65 594.26 825.00 604.00 C 822.36 613.74 826.67 624.07 828.78 633.22 C 830.89 642.38 834.86 648.86 842.08 654.92 C 849.31 660.97 855.75 663.11 865.08 665.92 C 874.40 668.74 873.37 684.16 872.00 694.00 C 870.63 703.84 854.41 694.74 846.00 695.00 C 837.59 695.27 825.55 697.79 817.32 701.32 C 809.09 704.85 803.35 711.65 803.02 721.02 C 802.70 730.40 801.37 742.01 807.25 749.75 C 813.13 757.49 820.99 758.17 828.08 763.92 C 835.17 769.67 842.41 771.15 849.70 777.30 C 856.98 783.46 864.00 782.48 871.25 790.75 C 878.49 799.03 861.02 800.38 851.00 799.00 C 840.98 797.62 826.92 799.86 816.00 799.00 C 805.08 798.14 793.07 799.54 782.00 800.00 C 770.93 800.46 758.36 799.80 747.00 800.00 C 735.64 800.20 723.45 799.91 712.00 800.00 C 700.55 800.09 689.51 799.97 678.00 800.00 C 666.49 800.03 654.56 800.01 643.00 800.00 C 631.44 799.99 619.55 800.05 608.00 800.00 C 596.45 799.95 584.46 800.13 573.00 800.00 C 561.54 799.87 550.33 800.29 539.00 800.00 C 527.67 799.71 516.42 798.72 505.00 799.00 C 493.58 799.28 481.16 798.99 470.00 799.00 C 458.84 799.01 445.56 799.25 435.00 799.00 C 424.44 798.75 414.62 801.97 406.75 797.81 C 398.88 793.64 399.42 788.88 398.22 780.78 C 397.02 772.67 398.85 755.05 398.67 747.33 C 398.49 739.60 399.77 733.30 400.65 726.31 C 401.52 719.31 401.53 713.57 403.20 706.75 C 404.86 699.94 406.06 693.69 408.26 687.25 C 410.47 680.80 410.36 675.60 413.19 669.75 C 416.02 663.90 418.26 654.95 421.39 649.25 C 424.53 643.54 429.24 634.67 432.97 627.97 C 436.71 621.28 442.85 613.93 447.30 607.30 C 451.76 600.68 457.82 595.65 462.92 588.92 C 468.02 582.18 474.79 577.23 481.08 572.08 C 487.38 566.93 494.44 560.99 500.89 556.89 C 507.35 552.80 515.33 547.65 521.30 544.29 C 527.28 540.92 534.56 538.57 540.25 536.20 C 545.93 533.83 551.75 531.59 557.75 529.74 C 563.75 527.88 570.50 526.01 577.23 524.23 C 583.96 522.45 590.79 522.77 597.75 521.60 C 604.71 520.44 612.16 518.81 620.00 519.00 C 627.84 519.20 638.03 516.62 647.00 517.00
M 938.00 661.00 
C 934.58 657.02 935.68 653.99 938.00 650.00
C 966.05 646.87 1008.28 656.02 1030.30 645.29 C 1052.32 634.55 1059.63 598.06 1036.10 583.90 C 1012.57 569.74 965.36 577.48 935.00 576.00 C 904.64 574.52 863.55 570.27 848.90 594.90 C 834.25 619.53 854.89 642.64 874.00 648.00
C 872.64 663.34 858.22 654.71 850.70 647.30 C 843.18 639.89 834.79 629.73 834.61 618.25 C 834.42 606.76 834.53 594.66 842.90 584.90 C 851.27 575.15 857.76 569.13 869.70 566.69 C 881.63 564.25 899.73 565.11 915.00 565.00 C 930.27 564.89 952.61 564.99 968.00 565.00 C 983.39 565.01 1003.81 564.50 1017.25 565.80 C 1030.68 567.10 1033.72 568.70 1043.70 576.30 C 1053.67 583.90 1057.43 593.58 1059.20 604.25 C 1060.97 614.91 1061.24 626.40 1054.70 636.70 C 1048.15 646.99 1039.95 654.63 1029.30 658.30 C 1018.66 661.98 1002.99 659.37 988.00 660.00 C 973.01 660.63 952.30 658.91 938.00 661.00
M 910.00 600.00 
C 907.21 601.00 905.60 603.45 903.00 603.00
C 897.05 597.13 888.72 592.50 879.75 594.20 C 870.78 595.90 867.14 602.45 865.20 611.25 C 863.26 620.05 876.09 628.51 874.00 635.00
C 861.70 640.78 853.54 620.51 854.61 609.25 C 855.67 597.99 866.18 586.16 878.75 584.61 C 891.32 583.05 907.09 586.30 910.00 600.00
M 1029.00 610.00 
C 1025.55 619.44 1012.74 627.57 1005.00 633.00
C 995.21 628.31 1004.56 621.71 1009.00 618.00
C 990.07 618.87 972.28 617.72 953.00 618.00
C 950.85 615.09 951.77 611.85 951.00 609.00
C 967.73 604.81 990.44 607.35 1009.00 608.00
C 1007.41 603.99 1001.53 602.30 1000.00 599.00
C 1006.43 582.13 1020.10 605.22 1029.00 610.00
M 929.00 686.00 
C 936.47 678.96 951.01 680.40 956.00 690.00
C 963.75 682.14 980.90 682.23 987.00 693.00
C 997.65 683.27 1020.61 685.36 1023.39 702.75 C 1026.18 720.15 1025.55 747.41 1025.00 767.00 C 1024.45 786.59 1028.66 806.91 1014.00 817.00
C 1019.49 834.21 1009.27 837.88 994.99 836.01 C 980.71 834.13 964.01 837.51 949.00 836.00 C 933.99 834.49 915.61 839.44 903.00 833.00
C 904.41 828.56 899.50 822.50 903.00 817.00
C 887.81 803.48 882.72 782.97 866.75 768.25 C 850.78 753.53 839.02 754.46 819.25 745.41 C 799.49 736.35 809.29 705.28 829.75 704.61 C 850.21 703.93 867.33 704.61 882.00 717.00
C 880.63 701.46 880.41 681.63 881.00 666.00 C 881.59 650.37 878.81 633.12 882.80 620.75 C 886.79 608.38 901.20 603.75 911.75 607.26 C 922.31 610.78 929.87 619.03 928.99 633.01 C 928.12 646.98 929.66 671.10 929.00 686.00 Z"/>
</g>
<g fill="#000000" fill-opacity="1.00" stroke="None">
<path d="
M 649.00 172.00 
C 612.71 174.30 577.78 189.46 550.75 216.75 C 523.73 244.04 510.65 272.31 507.78 309.78 C 504.91 347.25 511.56 382.53 532.30 411.70 C 553.03 440.88 587.18 466.57 621.75 473.80 C 656.33 481.04 696.98 478.72 728.31 465.31 C 759.63 451.89 792.19 419.86 804.75 389.75 C 817.30 359.64 823.17 319.97 813.80 287.25 C 804.43 254.53 784.68 221.79 752.23 200.77 C 719.78 179.75 688.17 169.52 649.00 172.00 Z"/>
</g>
<g fill="#000000" fill-opacity="1.00" stroke="None">
<path d="
M 647.00 517.00 
C 638.03 516.62 627.84 519.20 620.00 519.00 C 612.16 518.81 604.71 520.44 597.75 521.60 C 590.79 522.77 583.96 522.45 577.23 524.23 C 570.50 526.01 563.75 527.88 557.75 529.74 C 551.75 531.59 545.93 533.83 540.25 536.20 C 534.56 538.57 527.28 540.92 521.30 544.29 C 515.33 547.65 507.35 552.80 500.89 556.89 C 494.44 560.99 487.38 566.93 481.08 572.08 C 474.79 577.23 468.02 582.18 462.92 588.92 C 457.82 595.65 451.76 600.68 447.30 607.30 C 442.85 613.93 436.71 621.28 432.97 627.97 C 429.24 634.67 424.53 643.54 421.39 649.25 C 418.26 654.95 416.02 663.90 413.19 669.75 C 410.36 675.60 410.47 680.80 408.26 687.25 C 406.06 693.69 404.86 699.94 403.20 706.75 C 401.53 713.57 401.52 719.31 400.65 726.31 C 399.77 733.30 398.49 739.60 398.67 747.33 C 398.85 755.05 397.02 772.67 398.22 780.78 C 399.42 788.88 398.88 793.64 406.75 797.81 C 414.62 801.97 424.44 798.75 435.00 799.00 C 445.56 799.25 458.84 799.01 470.00 799.00 C 481.16 798.99 493.58 799.28 505.00 799.00 C 516.42 798.72 527.67 799.71 539.00 800.00 C 550.33 800.29 561.54 799.87 573.00 800.00 C 584.46 800.13 596.45 799.95 608.00 800.00 C 619.55 800.05 631.44 799.99 643.00 800.00 C 654.56 800.01 666.49 800.03 678.00 800.00 C 689.51 799.97 700.55 800.09 712.00 800.00 C 723.45 799.91 735.64 800.20 747.00 800.00 C 758.36 799.80 770.93 800.46 782.00 800.00 C 793.07 799.54 805.08 798.14 816.00 799.00 C 826.92 799.86 840.98 797.62 851.00 799.00 C 861.02 800.38 878.49 799.03 871.25 790.75 C 864.00 782.48 856.98 783.46 849.70 777.30 C 842.41 771.15 835.17 769.67 828.08 763.92 C 820.99 758.17 813.13 757.49 807.25 749.75 C 801.37 742.01 802.70 730.40 803.02 721.02 C 803.35 711.65 809.09 704.85 817.32 701.32 C 825.55 697.79 837.59 695.27 846.00 695.00 C 854.41 694.74 870.63 703.84 872.00 694.00 C 873.37 684.16 874.40 668.74 865.08 665.92 C 855.75 663.11 849.31 660.97 842.08 654.92 C 834.86 648.86 830.89 642.38 828.78 633.22 C 826.67 624.07 822.36 613.74 825.00 604.00 C 827.65 594.26 828.42 587.42 835.75 579.75 C 843.08 572.09 845.66 569.24 855.32 564.32 C 864.99 559.40 849.16 553.93 845.25 551.75 C 841.35 549.57 832.84 543.88 827.30 542.71 C 821.76 541.55 816.33 536.54 810.25 535.19 C 804.16 533.85 798.00 532.09 791.23 530.77 C 784.46 529.45 777.92 526.37 771.75 525.40 C 765.58 524.42 758.71 523.83 752.25 522.80 C 745.79 521.77 738.22 521.21 730.74 520.60 C 723.27 519.98 714.53 518.51 706.22 518.78 C 697.92 519.05 686.52 517.80 677.22 517.22 C 667.92 516.64 656.12 517.39 647.00 517.00 Z"/>
</g>
<g fill="#000000" fill-opacity="0.96" stroke="None">
<path d="
M 938.00 661.00 
C 952.30 658.91 973.01 660.63 988.00 660.00 C 1002.99 659.37 1018.66 661.98 1029.30 658.30 C 1039.95 654.63 1048.15 646.99 1054.70 636.70 C 1061.24 626.40 1060.97 614.91 1059.20 604.25 C 1057.43 593.58 1053.67 583.90 1043.70 576.30 C 1033.72 568.70 1030.68 567.10 1017.25 565.80 C 1003.81 564.50 983.39 565.01 968.00 565.00 C 952.61 564.99 930.27 564.89 915.00 565.00 C 899.73 565.11 881.63 564.25 869.70 566.69 C 857.76 569.13 851.27 575.15 842.90 584.90 C 834.53 594.66 834.42 606.76 834.61 618.25 C 834.79 629.73 843.18 639.89 850.70 647.30 C 858.22 654.71 872.64 663.34 874.00 648.00
C 854.89 642.64 834.25 619.53 848.90 594.90 C 863.55 570.27 904.64 574.52 935.00 576.00 C 965.36 577.48 1012.57 569.74 1036.10 583.90 C 1059.63 598.06 1052.32 634.55 1030.30 645.29 C 1008.28 656.02 966.05 646.87 938.00 650.00
C 935.68 653.99 934.58 657.02 938.00 661.00 Z"/>
</g>
<g fill="#000000" fill-opacity="0.94" stroke="None">
<path d="
M 910.00 600.00 
C 907.09 586.30 891.32 583.05 878.75 584.61 C 866.18 586.16 855.67 597.99 854.61 609.25 C 853.54 620.51 861.70 640.78 874.00 635.00
C 876.09 628.51 863.26 620.05 865.20 611.25 C 867.14 602.45 870.78 595.90 879.75 594.20 C 888.72 592.50 897.05 597.13 903.00 603.00
C 905.60 603.45 907.21 601.00 910.00 600.00 Z"/>
</g>
<g fill="#000000" fill-opacity="0.96" stroke="None">
<path d="
M 1029.00 610.00 
C 1020.10 605.22 1006.43 582.13 1000.00 599.00
C 1001.53 602.30 1007.41 603.99 1009.00 608.00
C 990.44 607.35 967.73 604.81 951.00 609.00
C 951.77 611.85 950.85 615.09 953.00 618.00
C 972.28 617.72 990.07 618.87 1009.00 618.00
C 1004.56 621.71 995.21 628.31 1005.00 633.00
C 1012.74 627.57 1025.55 619.44 1029.00 610.00 Z"/>
</g>
<g fill="#000000" fill-opacity="0.96" stroke="None">
<path d="
M 929.00 686.00 
C 929.66 671.10 928.12 646.98 928.99 633.01 C 929.87 619.03 922.31 610.78 911.75 607.26 C 901.20 603.75 886.79 608.38 882.80 620.75 C 878.81 633.12 881.59 650.37 881.00 666.00 C 880.41 681.63 880.63 701.46 882.00 717.00
C 867.33 704.61 850.21 703.93 829.75 704.61 C 809.29 705.28 799.49 736.35 819.25 745.41 C 839.02 754.46 850.78 753.53 866.75 768.25 C 882.72 782.97 887.81 803.48 903.00 817.00
C 899.50 822.50 904.41 828.56 903.00 833.00
C 915.61 839.44 933.99 834.49 949.00 836.00 C 964.01 837.51 980.71 834.13 994.99 836.01 C 1009.27 837.88 1019.49 834.21 1014.00 817.00
C 1028.66 806.91 1024.45 786.59 1025.00 767.00 C 1025.55 747.41 1026.18 720.15 1023.39 702.75 C 1020.61 685.36 997.65 683.27 987.00 693.00
C 980.90 682.23 963.75 682.14 956.00 690.00
C 951.01 680.40 936.47 678.96 929.00 686.00
M 921.00 720.00 
C 923.73 718.81 926.53 720.69 929.00 718.00
C 927.81 706.32 927.76 691.18 941.22 692.78 C 954.68 694.38 945.53 707.77 957.00 710.00
C 957.96 708.48 958.65 706.97 961.00 706.00
C 958.68 701.26 964.00 699.29 966.00 695.00
C 971.07 694.29 979.33 695.91 980.59 701.75 C 981.86 707.58 980.86 713.45 989.00 713.00
C 991.37 703.33 998.44 693.29 1007.92 699.13 C 1017.40 704.97 1013.44 721.39 1014.00 735.00 C 1014.56 748.61 1013.58 769.48 1014.00 783.00 C 1014.42 796.52 1014.50 806.99 1003.00 812.00
C 1004.47 816.05 1000.30 819.99 1003.00 825.00
C 973.15 824.90 942.00 825.14 913.00 825.00
C 917.43 813.56 907.08 807.47 901.68 799.32 C 896.28 791.17 890.72 781.79 885.03 773.97 C 879.35 766.14 871.03 760.12 863.78 754.22 C 856.52 748.33 845.83 743.53 839.08 740.87 C 832.33 738.21 819.81 738.74 818.41 729.25 C 817.01 719.76 827.68 713.95 837.08 714.07 C 846.49 714.18 856.61 716.30 864.75 719.26 C 872.90 722.23 884.07 735.36 892.00 732.00
C 890.66 717.12 891.21 696.56 891.00 681.00 C 890.79 665.44 891.13 641.88 891.80 628.75 C 892.48 615.63 908.40 611.71 914.97 622.03 C 921.54 632.34 916.31 654.87 918.00 670.00 C 919.69 685.13 914.40 707.30 921.00 720.00 Z"/>
</g>
<g fill="#000000" fill-opacity="0.01" stroke="None">
<path d="
M 921.00 720.00 
C 914.40 707.30 919.69 685.13 918.00 670.00 C 916.31 654.87 921.54 632.34 914.97 622.03 C 908.40 611.71 892.48 615.63 891.80 628.75 C 891.13 641.88 890.79 665.44 891.00 681.00 C 891.21 696.56 890.66 717.12 892.00 732.00
C 884.07 735.36 872.90 722.23 864.75 719.26 C 856.61 716.30 846.49 714.18 837.08 714.07 C 827.68 713.95 817.01 719.76 818.41 729.25 C 819.81 738.74 832.33 738.21 839.08 740.87 C 845.83 743.53 856.52 748.33 863.78 754.22 C 871.03 760.12 879.35 766.14 885.03 773.97 C 890.72 781.79 896.28 791.17 901.68 799.32 C 907.08 807.47 917.43 813.56 913.00 825.00
C 942.00 825.14 973.15 824.90 1003.00 825.00
C 1000.30 819.99 1004.47 816.05 1003.00 812.00
C 1014.50 806.99 1014.42 796.52 1014.00 783.00 C 1013.58 769.48 1014.56 748.61 1014.00 735.00 C 1013.44 721.39 1017.40 704.97 1007.92 699.13 C 998.44 693.29 991.37 703.33 989.00 713.00
C 980.86 713.45 981.86 707.58 980.59 701.75 C 979.33 695.91 971.07 694.29 966.00 695.00
C 964.00 699.29 958.68 701.26 961.00 706.00
C 958.65 706.97 957.96 708.48 957.00 710.00
C 945.53 707.77 954.68 694.38 941.22 692.78 C 927.76 691.18 927.81 706.32 929.00 718.00
C 926.53 720.69 923.73 718.81 921.00 720.00 Z"/>
</g>
</svg>