<svg xmlns="http://www.w3.org/2000/svg" xmlns:v="https://svgstorm.com" viewBox="3.22 -3.66 284.02 284.02" width="100%" height="100%">
<g fill="None" fill-opacity="0.0" stroke="#000000" stroke-opacity="0.00" stroke-width="0.3"><path d=" M 0.00 278.00  L 285.00 278.00 L 285.00 0.00 L 0.00 0.00 L 0.00 278.00 M 273.00 137.00  C 273.26 140.87 273.26 145.13 273.00 149.00 C 272.45 157.01 270.76 169.09 268.22 176.22 C 265.68 183.36 263.91 194.28 259.00 197.00 C 258.48 197.79 258.42 198.00 258.00 199.00 C 257.45 205.97 247.62 219.11 242.00 222.00 C 241.17 222.80 240.65 223.01 240.00 224.00 C 239.49 226.35 235.86 230.92 232.00 233.00 C 226.25 237.36 219.06 248.37 210.00 248.00 C 210.95 252.28 203.97 251.68 200.31 255.31 C 196.64 258.93 189.27 256.15 186.00 258.00 C 184.45 256.80 186.96 254.62 184.00 255.00 C 176.67 250.22 174.63 237.43 185.23 232.23 C 195.83 227.03 202.29 224.05 210.70 216.70 C 219.11 209.34 223.48 203.67 229.75 194.75 C 236.03 185.83 237.14 177.11 241.32 167.32 C 245.50 157.53 241.98 140.09 245.00 130.00 C 244.95 129.65 244.34 129.16 244.00 129.00 C 240.23 127.20 241.41 113.11 237.69 108.31 C 233.98 103.50 232.38 94.11 227.75 89.25 C 223.11 84.40 219.47 78.07 214.25 73.75 C 209.02 69.44 203.21 64.18 200.00 61.00 C 195.92 57.87 190.99 58.24 190.00 54.00 C 186.07 55.74 179.94 49.19 173.08 48.87 C 166.23 48.55 160.39 46.53 152.33 44.67 C 144.27 42.82 135.02 47.52 127.00 45.00 C 121.37 49.71 119.22 47.35 112.93 50.93 C 106.63 54.50 100.38 53.24 95.92 57.92 C 91.46 62.60 82.88 62.75 82.00 68.00 C 80.11 64.12 76.63 70.16 75.00 72.00 C 74.36 72.99 72.58 77.94 70.00 79.00 C 81.57 79.26 89.58 98.40 79.00 103.00 C 76.68 105.88 74.97 106.85 71.00 107.00 C 68.58 107.69 67.27 108.73 65.00 108.00 C 64.92 107.81 63.43 107.83 63.00 108.00 C 59.52 109.39 57.74 108.84 55.00 107.00 C 51.21 112.91 43.52 109.13 38.00 111.00 C 30.90 111.91 17.39 109.47 21.00 99.00 C 20.97 98.65 20.19 98.27 20.00 98.00 C 17.60 94.59 18.93 89.25 19.00 85.00 C 18.43 80.92 19.33 76.75 19.00 73.00 C 18.63 70.93 17.21 67.75 18.00 65.00 C 19.39 65.26 18.78 67.05 19.00 68.00 C 19.58 62.53 18.12 59.13 20.00 56.00 C 24.94 42.81 46.05 47.51 46.00 63.00 C 79.94 23.27 140.53 9.25 188.68 26.32 C 236.83 43.40 269.43 86.82 273.00 137.00 M 182.00 165.00  C 182.47 165.11 183.00 165.00 183.00 165.00 C 197.22 166.33 196.89 189.03 183.00 191.00 C 173.98 192.28 161.97 183.49 153.31 180.69 C 144.64 177.90 135.17 173.08 126.00 167.00 C 123.03 165.03 122.81 164.43 123.00 160.00 C 123.89 139.27 123.89 117.73 123.00 97.00 C 122.33 81.25 147.91 78.77 149.78 96.22 C 151.64 113.68 148.84 133.33 150.00 151.00 C 160.94 154.64 171.97 159.75 182.00 165.00 M 42.00 188.00  C 39.49 189.25 36.70 191.12 34.00 189.00 C 33.50 188.97 33.00 189.00 33.00 189.00 C 29.93 190.88 24.03 183.93 22.43 181.23 C 20.83 178.54 21.00 170.14 21.00 168.00 C 20.53 165.31 19.24 161.28 19.00 159.00 C 18.53 157.71 18.49 157.38 19.00 154.00 C 19.00 152.34 19.08 150.66 19.00 149.00 C 18.83 145.47 20.10 141.38 24.00 141.00 C 25.59 140.84 24.94 140.61 26.00 140.00 C 28.62 135.75 40.26 137.64 43.30 144.70 C 46.34 151.76 46.12 160.26 48.93 168.07 C 51.73 175.89 49.74 184.13 42.00 188.00 M 89.00 248.00  C 84.18 249.44 80.44 248.21 75.77 246.23 C 71.10 244.25 66.46 240.93 62.00 237.00 C 57.56 234.27 47.34 226.64 50.00 221.00 C 50.00 220.01 49.95 218.99 50.00 218.00 C 47.54 208.12 63.17 202.85 70.25 208.75 C 77.32 214.66 83.02 220.52 90.75 225.25 C 98.47 229.99 98.87 245.05 89.00 248.00 M 168.00 261.00  C 163.30 267.45 156.86 265.33 149.00 266.00 C 141.14 266.67 132.92 265.64 126.00 265.00 C 117.31 264.20 114.21 253.05 120.00 246.00 C 121.46 243.61 122.78 243.11 125.00 242.00 C 129.78 236.59 139.37 242.16 146.00 241.00 C 152.63 239.84 160.49 239.04 166.25 243.75 C 172.00 248.47 172.02 255.48 168.00 261.00 M 147.00 267.00  C 144.24 269.16 139.51 267.45 136.00 268.00 C 138.76 265.84 143.49 267.55 147.00 267.00 Z"/>
</g>
<g fill="None" fill-opacity="0.0" stroke="#FDFDFD" stroke-opacity="0.33" stroke-width="0.3"><path d=" M 20.00 56.00  C 27.43 43.65 47.02 49.97 44.00 66.00 C 58.35 53.33 70.83 41.58 89.08 33.08 C 107.32 24.57 132.81 18.05 154.00 20.00 C 175.19 21.95 195.73 28.89 213.23 39.77 C 230.72 50.65 241.11 61.71 252.30 78.70 C 263.50 95.69 270.58 117.80 272.00 138.00 C 272.05 137.65 272.96 137.22 273.00 137.00 C 269.43 86.82 236.83 43.40 188.68 26.32 C 140.53 9.25 79.94 23.27 46.00 63.00 C 46.05 47.51 24.94 42.81 20.00 56.00 Z"/>
</g>
<g fill="None" fill-opacity="0.0" stroke="#000000" stroke-opacity="0.98" stroke-width="0.3"><path d=" M 20.00 56.00  C 18.12 59.13 19.58 62.53 19.00 68.00 C 18.83 69.56 18.86 71.44 19.00 73.00 C 19.33 76.75 18.43 80.92 19.00 85.00 C 19.48 88.45 19.15 94.15 20.00 98.00 C 20.19 98.27 20.97 98.65 21.00 99.00 C 21.89 108.63 29.28 111.08 38.00 111.00 C 43.52 109.13 51.21 112.91 55.00 107.00 C 57.74 108.84 59.52 109.39 63.00 108.00 C 64.83 107.34 64.18 106.69 67.00 107.00 C 68.20 106.71 69.77 107.05 71.00 107.00 C 74.97 106.85 76.68 105.88 79.00 103.00 C 86.21 94.04 80.86 80.05 68.00 82.00 C 68.37 77.98 71.84 74.39 75.00 72.00 C 76.63 70.16 80.11 64.12 82.00 68.00 C 82.88 62.75 91.46 62.60 95.92 57.92 C 100.38 53.24 106.63 54.50 112.93 50.93 C 119.22 47.35 121.37 49.71 127.00 45.00 C 135.02 47.52 144.27 42.82 152.33 44.67 C 160.39 46.53 166.23 48.55 173.08 48.87 C 179.94 49.19 186.07 55.74 190.00 54.00 C 190.99 58.24 195.92 57.87 200.00 61.00 C 223.52 79.02 239.12 99.50 244.00 129.00 C 244.34 129.16 244.95 129.65 245.00 130.00 C 247.51 147.43 242.99 170.28 236.08 185.08 C 229.17 199.87 217.81 212.83 205.75 221.75 C 193.69 230.68 166.44 238.61 184.00 255.00 C 186.96 254.62 184.45 256.80 186.00 258.00 C 189.27 256.15 196.64 258.93 200.31 255.31 C 203.97 251.68 210.95 252.28 210.00 248.00 C 219.06 248.37 226.25 237.36 232.00 233.00 C 235.34 230.47 237.71 227.48 240.00 224.00 C 240.65 223.01 241.17 222.80 242.00 222.00 C 248.42 215.82 254.61 207.11 258.00 199.00 C 258.42 198.00 258.48 197.79 259.00 197.00 C 261.86 192.64 262.46 187.47 264.93 182.93 C 267.39 178.38 267.00 171.86 269.33 167.33 C 271.66 162.79 268.61 152.28 272.00 149.00 C 271.70 145.65 271.52 141.33 272.00 138.00 C 270.58 117.80 263.50 95.69 252.30 78.70 C 241.11 61.71 230.72 50.65 213.23 39.77 C 195.73 28.89 175.19 21.95 154.00 20.00 C 132.81 18.05 107.32 24.57 89.08 33.08 C 70.83 41.58 58.35 53.33 44.00 66.00 C 47.02 49.97 27.43 43.65 20.00 56.00 Z"/>
</g>
<g fill="None" fill-opacity="0.0" stroke="#F2F2F2" stroke-opacity="0.16" stroke-width="0.3"><path d=" M 244.00 129.00  C 239.12 99.50 223.52 79.02 200.00 61.00 C 203.21 64.18 209.02 69.44 214.25 73.75 C 219.47 78.07 223.11 84.40 227.75 89.25 C 232.38 94.11 233.98 103.50 237.69 108.31 C 241.41 113.11 240.23 127.20 244.00 129.00 Z"/>
</g>
<g fill="None" fill-opacity="0.0" stroke="#FFFFFF" stroke-opacity="0.05" stroke-width="0.3"><path d=" M 19.00 73.00  C 18.86 71.44 18.83 69.56 19.00 68.00 C 18.78 67.05 19.39 65.26 18.00 65.00 C 17.21 67.75 18.63 70.93 19.00 73.00 Z"/>
</g>
<g fill="None" fill-opacity="0.0" stroke="#DFDFDF" stroke-opacity="0.28" stroke-width="0.3"><path d=" M 79.00 103.00  C 89.58 98.40 81.57 79.26 70.00 79.00 C 72.58 77.94 74.36 72.99 75.00 72.00 C 71.84 74.39 68.37 77.98 68.00 82.00 C 80.86 80.05 86.21 94.04 79.00 103.00 Z"/>
</g>
<g fill="None" fill-opacity="0.0" stroke="#FFFFFF" stroke-opacity="0.29" stroke-width="0.3"><path d=" M 123.00 97.00  C 124.00 86.05 137.65 80.55 144.90 89.10 C 152.15 97.65 146.17 114.28 148.00 124.00 C 149.83 133.72 144.41 149.36 154.68 153.32 C 164.95 157.28 171.55 162.55 182.00 165.00 C 171.97 159.75 160.94 154.64 150.00 151.00 C 148.84 133.33 151.64 113.68 149.78 96.22 C 147.91 78.77 122.33 81.25 123.00 97.00 Z"/>
</g>
<g fill="None" fill-opacity="0.0" stroke="#FFFFFF" stroke-opacity="0.11" stroke-width="0.3"><path d=" M 20.00 98.00  C 19.15 94.15 19.48 88.45 19.00 85.00 C 18.93 89.25 17.60 94.59 20.00 98.00 Z"/>
</g>
<g fill="None" fill-opacity="0.0" stroke="#000000" stroke-opacity="0.98" stroke-width="0.3"><path d=" M 123.00 97.00  C 123.89 117.73 123.89 139.27 123.00 160.00 C 123.32 163.52 123.66 164.68 126.00 167.00 C 135.17 173.08 144.64 177.90 153.31 180.69 C 161.97 183.49 173.98 192.28 183.00 191.00 C 188.09 189.88 192.60 183.44 192.99 177.99 C 193.38 172.54 186.60 167.88 183.00 165.00 C 183.00 165.00 182.47 165.11 182.00 165.00 C 171.55 162.55 164.95 157.28 154.68 153.32 C 144.41 149.36 149.83 133.72 148.00 124.00 C 146.17 114.28 152.15 97.65 144.90 89.10 C 137.65 80.55 124.00 86.05 123.00 97.00 Z"/>
</g>
<g fill="None" fill-opacity="0.0" stroke="#FFFFFF" stroke-opacity="0.11" stroke-width="0.3"><path d=" M 38.00 111.00  C 29.28 111.08 21.89 108.63 21.00 99.00 C 17.39 109.47 30.90 111.91 38.00 111.00 Z"/>
</g>
<g fill="None" fill-opacity="0.0" stroke="#000000" stroke-opacity="0.60" stroke-width="0.3"><path d=" M 63.00 108.00  C 63.43 107.83 64.92 107.81 65.00 108.00 C 64.95 107.89 66.86 107.03 67.00 107.00 C 64.18 106.69 64.83 107.34 63.00 108.00 Z"/>
</g>
<g fill="None" fill-opacity="0.0" stroke="#FFFFFF" stroke-opacity="0.04" stroke-width="0.3"><path d=" M 65.00 108.00  C 67.27 108.73 68.58 107.69 71.00 107.00 C 69.77 107.05 68.20 106.71 67.00 107.00 C 66.86 107.03 64.95 107.89 65.00 108.00 Z"/>
</g>
<g fill="None" fill-opacity="0.0" stroke="#FFFFFF" stroke-opacity="0.22" stroke-width="0.3"><path d=" M 184.00 255.00  C 166.44 238.61 193.69 230.68 205.75 221.75 C 217.81 212.83 229.17 199.87 236.08 185.08 C 242.99 170.28 247.51 147.43 245.00 130.00 C 241.98 140.09 245.50 157.53 241.32 167.32 C 237.14 177.11 236.03 185.83 229.75 194.75 C 223.48 203.67 219.11 209.34 210.70 216.70 C 202.29 224.05 195.83 227.03 185.23 232.23 C 174.63 237.43 176.67 250.22 184.00 255.00 Z"/>
</g>
<g fill="None" fill-opacity="0.0" stroke="#FFFFFF" stroke-opacity="0.12" stroke-width="0.3"><path d=" M 272.00 138.00  C 271.52 141.33 271.70 145.65 272.00 149.00 C 272.26 148.75 273.00 149.00 273.00 149.00 C 273.26 145.13 273.26 140.87 273.00 137.00 C 272.96 137.22 272.05 137.65 272.00 138.00 Z"/>
</g>
<g fill="None" fill-opacity="0.0" stroke="#FFFFFF" stroke-opacity="0.24" stroke-width="0.3"><path d=" M 26.00 140.00  C 39.59 132.26 45.03 149.67 45.00 159.00 C 44.97 168.33 55.21 182.16 42.00 188.00 C 49.74 184.13 51.73 175.89 48.93 168.07 C 46.12 160.26 46.34 151.76 43.30 144.70 C 40.26 137.64 28.62 135.75 26.00 140.00 Z"/>
</g>
<g fill="None" fill-opacity="0.0" stroke="#000000" stroke-opacity="0.98" stroke-width="0.3"><path d=" M 26.00 140.00  C 24.94 140.61 25.59 140.84 24.00 141.00 C 20.92 142.55 19.31 145.61 19.00 149.00 C 19.08 150.66 19.00 152.34 19.00 154.00 C 19.00 155.63 18.83 157.38 19.00 159.00 C 19.24 161.28 20.53 165.31 21.00 168.00 C 22.68 177.56 23.89 184.57 33.00 189.00 C 33.00 189.00 33.50 188.97 34.00 189.00 C 36.35 189.16 39.90 188.93 42.00 188.00 C 55.21 182.16 44.97 168.33 45.00 159.00 C 45.03 149.67 39.59 132.26 26.00 140.00 Z"/>
</g>
<g fill="None" fill-opacity="0.0" stroke="#DDDDDD" stroke-opacity="0.17" stroke-width="0.3"><path d=" M 19.00 149.00  C 19.31 145.61 20.92 142.55 24.00 141.00 C 20.10 141.38 18.83 145.47 19.00 149.00 Z"/>
</g>
<g fill="None" fill-opacity="0.0" stroke="#F9F9F9" stroke-opacity="0.27" stroke-width="0.3"><path d=" M 259.00 197.00  C 263.91 194.28 265.68 183.36 268.22 176.22 C 270.76 169.09 272.45 157.01 273.00 149.00 C 273.00 149.00 272.26 148.75 272.00 149.00 C 268.61 152.28 271.66 162.79 269.33 167.33 C 267.00 171.86 267.39 178.38 264.93 182.93 C 262.46 187.47 261.86 192.64 259.00 197.00 Z"/>
</g>
<g fill="None" fill-opacity="0.0" stroke="#FFFFFF" stroke-opacity="0.07" stroke-width="0.3"><path d=" M 19.00 159.00  C 18.83 157.38 19.00 155.63 19.00 154.00 C 18.49 157.38 18.53 157.71 19.00 159.00 Z"/>
</g>
<g fill="None" fill-opacity="0.0" stroke="#DADADA" stroke-opacity="0.16" stroke-width="0.3"><path d=" M 126.00 167.00  C 123.66 164.68 123.32 163.52 123.00 160.00 C 122.81 164.43 123.03 165.03 126.00 167.00 Z"/>
</g>
<g fill="None" fill-opacity="0.0" stroke="#FFFFFF" stroke-opacity="0.18" stroke-width="0.3"><path d=" M 183.00 191.00  C 196.89 189.03 197.22 166.33 183.00 165.00 C 186.60 167.88 193.38 172.54 192.99 177.99 C 192.60 183.44 188.09 189.88 183.00 191.00 Z"/>
</g>
<g fill="None" fill-opacity="0.0" stroke="#FFFFFF" stroke-opacity="0.15" stroke-width="0.3"><path d=" M 33.00 189.00  C 23.89 184.57 22.68 177.56 21.00 168.00 C 21.00 170.14 20.83 178.54 22.43 181.23 C 24.03 183.93 29.93 190.88 33.00 189.00 Z"/>
</g>
<g fill="None" fill-opacity="0.0" stroke="#FFFFFF" stroke-opacity="0.08" stroke-width="0.3"><path d=" M 34.00 189.00  C 36.70 191.12 39.49 189.25 42.00 188.00 C 39.90 188.93 36.35 189.16 34.00 189.00 Z"/>
</g>
<g fill="None" fill-opacity="0.0" stroke="#CFCFCF" stroke-opacity="0.25" stroke-width="0.3"><path d=" M 242.00 222.00  C 247.62 219.11 257.45 205.97 258.00 199.00 C 254.61 207.11 248.42 215.82 242.00 222.00 Z"/>
</g>
<g fill="None" fill-opacity="0.0" stroke="#FFFFFF" stroke-opacity="0.24" stroke-width="0.3"><path d=" M 50.00 218.00  C 50.48 208.91 63.55 203.57 70.23 209.77 C 76.91 215.97 80.83 220.64 88.70 225.30 C 96.56 229.97 97.03 242.75 89.00 248.00 C 98.87 245.05 98.47 229.99 90.75 225.25 C 83.02 220.52 77.32 214.66 70.25 208.75 C 63.17 202.85 47.54 208.12 50.00 218.00 Z"/>
</g>
<g fill="None" fill-opacity="0.0" stroke="#000000" stroke-opacity="0.98" stroke-width="0.3"><path d=" M 50.00 218.00  C 49.95 218.99 50.00 220.01 50.00 221.00 C 50.03 227.99 57.14 232.72 62.00 237.00 C 66.46 240.93 71.10 244.25 75.77 246.23 C 80.44 248.21 84.18 249.44 89.00 248.00 C 97.03 242.75 96.56 229.97 88.70 225.30 C 80.83 220.64 76.91 215.97 70.23 209.77 C 63.55 203.57 50.48 208.91 50.00 218.00 Z"/>
</g>
<g fill="None" fill-opacity="0.0" stroke="#EDEDED" stroke-opacity="0.10" stroke-width="0.3"><path d=" M 62.00 237.00  C 57.14 232.72 50.03 227.99 50.00 221.00 C 47.34 226.64 57.56 234.27 62.00 237.00 Z"/>
</g>
<g fill="None" fill-opacity="0.0" stroke="#B3B3B3" stroke-opacity="0.11" stroke-width="0.3"><path d=" M 232.00 233.00  C 235.86 230.92 239.49 226.35 240.00 224.00 C 237.71 227.48 235.34 230.47 232.00 233.00 Z"/>
</g>
<g fill="None" fill-opacity="0.0" stroke="#FFFFFF" stroke-opacity="0.22" stroke-width="0.3"><path d=" M 125.00 242.00  C 124.75 242.28 125.00 243.00 125.00 243.00 C 136.71 239.09 180.87 237.14 168.00 261.00 C 172.02 255.48 172.00 248.47 166.25 243.75 C 160.49 239.04 152.63 239.84 146.00 241.00 C 139.37 242.16 129.78 236.59 125.00 242.00 Z"/>
</g>
<g fill="None" fill-opacity="0.0" stroke="#000000" stroke-opacity="0.98" stroke-width="0.3"><path d=" M 125.00 243.00  C 124.36 243.45 119.35 248.30 119.00 248.00 C 116.25 254.53 118.91 262.85 126.00 265.00 C 132.92 265.64 141.14 266.67 149.00 266.00 C 156.86 265.33 163.30 267.45 168.00 261.00 C 180.87 237.14 136.71 239.09 125.00 243.00 Z"/>
</g>
<g fill="None" fill-opacity="0.0" stroke="#FFFFFF" stroke-opacity="0.42" stroke-width="0.3"><path d=" M 120.00 246.00  C 119.58 246.69 119.31 247.27 119.00 248.00 C 119.35 248.30 124.36 243.45 125.00 243.00 C 125.00 243.00 124.75 242.28 125.00 242.00 C 122.78 243.11 121.46 243.61 120.00 246.00 Z"/>
</g>
<g fill="None" fill-opacity="0.0" stroke="#FFFFFF" stroke-opacity="0.13" stroke-width="0.3"><path d=" M 126.00 265.00  C 118.91 262.85 116.25 254.53 119.00 248.00 C 119.31 247.27 119.58 246.69 120.00 246.00 C 114.21 253.05 117.31 264.20 126.00 265.00 Z"/>
</g>
<g fill="None" fill-opacity="0.0" stroke="#FFFFFF" stroke-opacity="0.00" stroke-width="0.3"><path d=" M 147.00 267.00  C 143.49 267.55 138.76 265.84 136.00 268.00 C 139.51 267.45 144.24 269.16 147.00 267.00 Z"/>
</g>
<g fill="#000000" fill-opacity="0.00" stroke="None">
<path d=" M 0.00 278.00  L 285.00 278.00 L 285.00 0.00 L 0.00 0.00 L 0.00 278.00 M 273.00 137.00  C 273.26 140.87 273.26 145.13 273.00 149.00 C 272.45 157.01 270.76 169.09 268.22 176.22 C 265.68 183.36 263.91 194.28 259.00 197.00 C 258.48 197.79 258.42 198.00 258.00 199.00 C 257.45 205.97 247.62 219.11 242.00 222.00 C 241.17 222.80 240.65 223.01 240.00 224.00 C 239.49 226.35 235.86 230.92 232.00 233.00 C 226.25 237.36 219.06 248.37 210.00 248.00 C 210.95 252.28 203.97 251.68 200.31 255.31 C 196.64 258.93 189.27 256.15 186.00 258.00 C 184.45 256.80 186.96 254.62 184.00 255.00 C 176.67 250.22 174.63 237.43 185.23 232.23 C 195.83 227.03 202.29 224.05 210.70 216.70 C 219.11 209.34 223.48 203.67 229.75 194.75 C 236.03 185.83 237.14 177.11 241.32 167.32 C 245.50 157.53 241.98 140.09 245.00 130.00 C 244.95 129.65 244.34 129.16 244.00 129.00 C 240.23 127.20 241.41 113.11 237.69 108.31 C 233.98 103.50 232.38 94.11 227.75 89.25 C 223.11 84.40 219.47 78.07 214.25 73.75 C 209.02 69.44 203.21 64.18 200.00 61.00 C 195.92 57.87 190.99 58.24 190.00 54.00 C 186.07 55.74 179.94 49.19 173.08 48.87 C 166.23 48.55 160.39 46.53 152.33 44.67 C 144.27 42.82 135.02 47.52 127.00 45.00 C 121.37 49.71 119.22 47.35 112.93 50.93 C 106.63 54.50 100.38 53.24 95.92 57.92 C 91.46 62.60 82.88 62.75 82.00 68.00 C 80.11 64.12 76.63 70.16 75.00 72.00 C 74.36 72.99 72.58 77.94 70.00 79.00 C 81.57 79.26 89.58 98.40 79.00 103.00 C 76.68 105.88 74.97 106.85 71.00 107.00 C 68.58 107.69 67.27 108.73 65.00 108.00 C 64.92 107.81 63.43 107.83 63.00 108.00 C 59.52 109.39 57.74 108.84 55.00 107.00 C 51.21 112.91 43.52 109.13 38.00 111.00 C 30.90 111.91 17.39 109.47 21.00 99.00 C 20.97 98.65 20.19 98.27 20.00 98.00 C 17.60 94.59 18.93 89.25 19.00 85.00 C 18.43 80.92 19.33 76.75 19.00 73.00 C 18.63 70.93 17.21 67.75 18.00 65.00 C 19.39 65.26 18.78 67.05 19.00 68.00 C 19.58 62.53 18.12 59.13 20.00 56.00 C 24.94 42.81 46.05 47.51 46.00 63.00 C 79.94 23.27 140.53 9.25 188.68 26.32 C 236.83 43.40 269.43 86.82 273.00 137.00 M 182.00 165.00  C 182.47 165.11 183.00 165.00 183.00 165.00 C 197.22 166.33 196.89 189.03 183.00 191.00 C 173.98 192.28 161.97 183.49 153.31 180.69 C 144.64 177.90 135.17 173.08 126.00 167.00 C 123.03 165.03 122.81 164.43 123.00 160.00 C 123.89 139.27 123.89 117.73 123.00 97.00 C 122.33 81.25 147.91 78.77 149.78 96.22 C 151.64 113.68 148.84 133.33 150.00 151.00 C 160.94 154.64 171.97 159.75 182.00 165.00 M 42.00 188.00  C 39.49 189.25 36.70 191.12 34.00 189.00 C 33.50 188.97 33.00 189.00 33.00 189.00 C 29.93 190.88 24.03 183.93 22.43 181.23 C 20.83 178.54 21.00 170.14 21.00 168.00 C 20.53 165.31 19.24 161.28 19.00 159.00 C 18.53 157.71 18.49 157.38 19.00 154.00 C 19.00 152.34 19.08 150.66 19.00 149.00 C 18.83 145.47 20.10 141.38 24.00 141.00 C 25.59 140.84 24.94 140.61 26.00 140.00 C 28.62 135.75 40.26 137.64 43.30 144.70 C 46.34 151.76 46.12 160.26 48.93 168.07 C 51.73 175.89 49.74 184.13 42.00 188.00 M 89.00 248.00  C 84.18 249.44 80.44 248.21 75.77 246.23 C 71.10 244.25 66.46 240.93 62.00 237.00 C 57.56 234.27 47.34 226.64 50.00 221.00 C 50.00 220.01 49.95 218.99 50.00 218.00 C 47.54 208.12 63.17 202.85 70.25 208.75 C 77.32 214.66 83.02 220.52 90.75 225.25 C 98.47 229.99 98.87 245.05 89.00 248.00 M 168.00 261.00  C 163.30 267.45 156.86 265.33 149.00 266.00 C 141.14 266.67 132.92 265.64 126.00 265.00 C 117.31 264.20 114.21 253.05 120.00 246.00 C 121.46 243.61 122.78 243.11 125.00 242.00 C 129.78 236.59 139.37 242.16 146.00 241.00 C 152.63 239.84 160.49 239.04 166.25 243.75 C 172.00 248.47 172.02 255.48 168.00 261.00 M 147.00 267.00  C 144.24 269.16 139.51 267.45 136.00 268.00 C 138.76 265.84 143.49 267.55 147.00 267.00 Z"/>
</g>
<g fill="#FDFDFD" fill-opacity="0.33" stroke="None">
<path d=" M 20.00 56.00  C 27.43 43.65 47.02 49.97 44.00 66.00 C 58.35 53.33 70.83 41.58 89.08 33.08 C 107.32 24.57 132.81 18.05 154.00 20.00 C 175.19 21.95 195.73 28.89 213.23 39.77 C 230.72 50.65 241.11 61.71 252.30 78.70 C 263.50 95.69 270.58 117.80 272.00 138.00 C 272.05 137.65 272.96 137.22 273.00 137.00 C 269.43 86.82 236.83 43.40 188.68 26.32 C 140.53 9.25 79.94 23.27 46.00 63.00 C 46.05 47.51 24.94 42.81 20.00 56.00 Z"/>
</g>
<g fill="#000000" fill-opacity="0.98" stroke="None">
<path d=" M 20.00 56.00  C 18.12 59.13 19.58 62.53 19.00 68.00 C 18.83 69.56 18.86 71.44 19.00 73.00 C 19.33 76.75 18.43 80.92 19.00 85.00 C 19.48 88.45 19.15 94.15 20.00 98.00 C 20.19 98.27 20.97 98.65 21.00 99.00 C 21.89 108.63 29.28 111.08 38.00 111.00 C 43.52 109.13 51.21 112.91 55.00 107.00 C 57.74 108.84 59.52 109.39 63.00 108.00 C 64.83 107.34 64.18 106.69 67.00 107.00 C 68.20 106.71 69.77 107.05 71.00 107.00 C 74.97 106.85 76.68 105.88 79.00 103.00 C 86.21 94.04 80.86 80.05 68.00 82.00 C 68.37 77.98 71.84 74.39 75.00 72.00 C 76.63 70.16 80.11 64.12 82.00 68.00 C 82.88 62.75 91.46 62.60 95.92 57.92 C 100.38 53.24 106.63 54.50 112.93 50.93 C 119.22 47.35 121.37 49.71 127.00 45.00 C 135.02 47.52 144.27 42.82 152.33 44.67 C 160.39 46.53 166.23 48.55 173.08 48.87 C 179.94 49.19 186.07 55.74 190.00 54.00 C 190.99 58.24 195.92 57.87 200.00 61.00 C 223.52 79.02 239.12 99.50 244.00 129.00 C 244.34 129.16 244.95 129.65 245.00 130.00 C 247.51 147.43 242.99 170.28 236.08 185.08 C 229.17 199.87 217.81 212.83 205.75 221.75 C 193.69 230.68 166.44 238.61 184.00 255.00 C 186.96 254.62 184.45 256.80 186.00 258.00 C 189.27 256.15 196.64 258.93 200.31 255.31 C 203.97 251.68 210.95 252.28 210.00 248.00 C 219.06 248.37 226.25 237.36 232.00 233.00 C 235.34 230.47 237.71 227.48 240.00 224.00 C 240.65 223.01 241.17 222.80 242.00 222.00 C 248.42 215.82 254.61 207.11 258.00 199.00 C 258.42 198.00 258.48 197.79 259.00 197.00 C 261.86 192.64 262.46 187.47 264.93 182.93 C 267.39 178.38 267.00 171.86 269.33 167.33 C 271.66 162.79 268.61 152.28 272.00 149.00 C 271.70 145.65 271.52 141.33 272.00 138.00 C 270.58 117.80 263.50 95.69 252.30 78.70 C 241.11 61.71 230.72 50.65 213.23 39.77 C 195.73 28.89 175.19 21.95 154.00 20.00 C 132.81 18.05 107.32 24.57 89.08 33.08 C 70.83 41.58 58.35 53.33 44.00 66.00 C 47.02 49.97 27.43 43.65 20.00 56.00 Z"/>
</g>
<g fill="#F2F2F2" fill-opacity="0.16" stroke="None">
<path d=" M 244.00 129.00  C 239.12 99.50 223.52 79.02 200.00 61.00 C 203.21 64.18 209.02 69.44 214.25 73.75 C 219.47 78.07 223.11 84.40 227.75 89.25 C 232.38 94.11 233.98 103.50 237.69 108.31 C 241.41 113.11 240.23 127.20 244.00 129.00 Z"/>
</g>
<g fill="#FFFFFF" fill-opacity="0.05" stroke="None">
<path d=" M 19.00 73.00  C 18.86 71.44 18.83 69.56 19.00 68.00 C 18.78 67.05 19.39 65.26 18.00 65.00 C 17.21 67.75 18.63 70.93 19.00 73.00 Z"/>
</g>
<g fill="#DFDFDF" fill-opacity="0.28" stroke="None">
<path d=" M 79.00 103.00  C 89.58 98.40 81.57 79.26 70.00 79.00 C 72.58 77.94 74.36 72.99 75.00 72.00 C 71.84 74.39 68.37 77.98 68.00 82.00 C 80.86 80.05 86.21 94.04 79.00 103.00 Z"/>
</g>
<g fill="#FFFFFF" fill-opacity="0.29" stroke="None">
<path d=" M 123.00 97.00  C 124.00 86.05 137.65 80.55 144.90 89.10 C 152.15 97.65 146.17 114.28 148.00 124.00 C 149.83 133.72 144.41 149.36 154.68 153.32 C 164.95 157.28 171.55 162.55 182.00 165.00 C 171.97 159.75 160.94 154.64 150.00 151.00 C 148.84 133.33 151.64 113.68 149.78 96.22 C 147.91 78.77 122.33 81.25 123.00 97.00 Z"/>
</g>
<g fill="#FFFFFF" fill-opacity="0.11" stroke="None">
<path d=" M 20.00 98.00  C 19.15 94.15 19.48 88.45 19.00 85.00 C 18.93 89.25 17.60 94.59 20.00 98.00 Z"/>
</g>
<g fill="#000000" fill-opacity="0.98" stroke="None">
<path d=" M 123.00 97.00  C 123.89 117.73 123.89 139.27 123.00 160.00 C 123.32 163.52 123.66 164.68 126.00 167.00 C 135.17 173.08 144.64 177.90 153.31 180.69 C 161.97 183.49 173.98 192.28 183.00 191.00 C 188.09 189.88 192.60 183.44 192.99 177.99 C 193.38 172.54 186.60 167.88 183.00 165.00 C 183.00 165.00 182.47 165.11 182.00 165.00 C 171.55 162.55 164.95 157.28 154.68 153.32 C 144.41 149.36 149.83 133.72 148.00 124.00 C 146.17 114.28 152.15 97.65 144.90 89.10 C 137.65 80.55 124.00 86.05 123.00 97.00 Z"/>
</g>
<g fill="#FFFFFF" fill-opacity="0.11" stroke="None">
<path d=" M 38.00 111.00  C 29.28 111.08 21.89 108.63 21.00 99.00 C 17.39 109.47 30.90 111.91 38.00 111.00 Z"/>
</g>
<g fill="#000000" fill-opacity="0.60" stroke="None">
<path d=" M 63.00 108.00  C 63.43 107.83 64.92 107.81 65.00 108.00 C 64.95 107.89 66.86 107.03 67.00 107.00 C 64.18 106.69 64.83 107.34 63.00 108.00 Z"/>
</g>
<g fill="#FFFFFF" fill-opacity="0.04" stroke="None">
<path d=" M 65.00 108.00  C 67.27 108.73 68.58 107.69 71.00 107.00 C 69.77 107.05 68.20 106.71 67.00 107.00 C 66.86 107.03 64.95 107.89 65.00 108.00 Z"/>
</g>
<g fill="#FFFFFF" fill-opacity="0.22" stroke="None">
<path d=" M 184.00 255.00  C 166.44 238.61 193.69 230.68 205.75 221.75 C 217.81 212.83 229.17 199.87 236.08 185.08 C 242.99 170.28 247.51 147.43 245.00 130.00 C 241.98 140.09 245.50 157.53 241.32 167.32 C 237.14 177.11 236.03 185.83 229.75 194.75 C 223.48 203.67 219.11 209.34 210.70 216.70 C 202.29 224.05 195.83 227.03 185.23 232.23 C 174.63 237.43 176.67 250.22 184.00 255.00 Z"/>
</g>
<g fill="#FFFFFF" fill-opacity="0.12" stroke="None">
<path d=" M 272.00 138.00  C 271.52 141.33 271.70 145.65 272.00 149.00 C 272.26 148.75 273.00 149.00 273.00 149.00 C 273.26 145.13 273.26 140.87 273.00 137.00 C 272.96 137.22 272.05 137.65 272.00 138.00 Z"/>
</g>
<g fill="#FFFFFF" fill-opacity="0.24" stroke="None">
<path d=" M 26.00 140.00  C 39.59 132.26 45.03 149.67 45.00 159.00 C 44.97 168.33 55.21 182.16 42.00 188.00 C 49.74 184.13 51.73 175.89 48.93 168.07 C 46.12 160.26 46.34 151.76 43.30 144.70 C 40.26 137.64 28.62 135.75 26.00 140.00 Z"/>
</g>
<g fill="#000000" fill-opacity="0.98" stroke="None">
<path d=" M 26.00 140.00  C 24.94 140.61 25.59 140.84 24.00 141.00 C 20.92 142.55 19.31 145.61 19.00 149.00 C 19.08 150.66 19.00 152.34 19.00 154.00 C 19.00 155.63 18.83 157.38 19.00 159.00 C 19.24 161.28 20.53 165.31 21.00 168.00 C 22.68 177.56 23.89 184.57 33.00 189.00 C 33.00 189.00 33.50 188.97 34.00 189.00 C 36.35 189.16 39.90 188.93 42.00 188.00 C 55.21 182.16 44.97 168.33 45.00 159.00 C 45.03 149.67 39.59 132.26 26.00 140.00 Z"/>
</g>
<g fill="#DDDDDD" fill-opacity="0.17" stroke="None">
<path d=" M 19.00 149.00  C 19.31 145.61 20.92 142.55 24.00 141.00 C 20.10 141.38 18.83 145.47 19.00 149.00 Z"/>
</g>
<g fill="#F9F9F9" fill-opacity="0.27" stroke="None">
<path d=" M 259.00 197.00  C 263.91 194.28 265.68 183.36 268.22 176.22 C 270.76 169.09 272.45 157.01 273.00 149.00 C 273.00 149.00 272.26 148.75 272.00 149.00 C 268.61 152.28 271.66 162.79 269.33 167.33 C 267.00 171.86 267.39 178.38 264.93 182.93 C 262.46 187.47 261.86 192.64 259.00 197.00 Z"/>
</g>
<g fill="#FFFFFF" fill-opacity="0.07" stroke="None">
<path d=" M 19.00 159.00  C 18.83 157.38 19.00 155.63 19.00 154.00 C 18.49 157.38 18.53 157.71 19.00 159.00 Z"/>
</g>
<g fill="#DADADA" fill-opacity="0.16" stroke="None">
<path d=" M 126.00 167.00  C 123.66 164.68 123.32 163.52 123.00 160.00 C 122.81 164.43 123.03 165.03 126.00 167.00 Z"/>
</g>
<g fill="#FFFFFF" fill-opacity="0.18" stroke="None">
<path d=" M 183.00 191.00  C 196.89 189.03 197.22 166.33 183.00 165.00 C 186.60 167.88 193.38 172.54 192.99 177.99 C 192.60 183.44 188.09 189.88 183.00 191.00 Z"/>
</g>
<g fill="#FFFFFF" fill-opacity="0.15" stroke="None">
<path d=" M 33.00 189.00  C 23.89 184.57 22.68 177.56 21.00 168.00 C 21.00 170.14 20.83 178.54 22.43 181.23 C 24.03 183.93 29.93 190.88 33.00 189.00 Z"/>
</g>
<g fill="#FFFFFF" fill-opacity="0.08" stroke="None">
<path d=" M 34.00 189.00  C 36.70 191.12 39.49 189.25 42.00 188.00 C 39.90 188.93 36.35 189.16 34.00 189.00 Z"/>
</g>
<g fill="#CFCFCF" fill-opacity="0.25" stroke="None">
<path d=" M 242.00 222.00  C 247.62 219.11 257.45 205.97 258.00 199.00 C 254.61 207.11 248.42 215.82 242.00 222.00 Z"/>
</g>
<g fill="#FFFFFF" fill-opacity="0.24" stroke="None">
<path d=" M 50.00 218.00  C 50.48 208.91 63.55 203.57 70.23 209.77 C 76.91 215.97 80.83 220.64 88.70 225.30 C 96.56 229.97 97.03 242.75 89.00 248.00 C 98.87 245.05 98.47 229.99 90.75 225.25 C 83.02 220.52 77.32 214.66 70.25 208.75 C 63.17 202.85 47.54 208.12 50.00 218.00 Z"/>
</g>
<g fill="#000000" fill-opacity="0.98" stroke="None">
<path d=" M 50.00 218.00  C 49.95 218.99 50.00 220.01 50.00 221.00 C 50.03 227.99 57.14 232.72 62.00 237.00 C 66.46 240.93 71.10 244.25 75.77 246.23 C 80.44 248.21 84.18 249.44 89.00 248.00 C 97.03 242.75 96.56 229.97 88.70 225.30 C 80.83 220.64 76.91 215.97 70.23 209.77 C 63.55 203.57 50.48 208.91 50.00 218.00 Z"/>
</g>
<g fill="#EDEDED" fill-opacity="0.10" stroke="None">
<path d=" M 62.00 237.00  C 57.14 232.72 50.03 227.99 50.00 221.00 C 47.34 226.64 57.56 234.27 62.00 237.00 Z"/>
</g>
<g fill="#B3B3B3" fill-opacity="0.11" stroke="None">
<path d=" M 232.00 233.00  C 235.86 230.92 239.49 226.35 240.00 224.00 C 237.71 227.48 235.34 230.47 232.00 233.00 Z"/>
</g>
<g fill="#FFFFFF" fill-opacity="0.22" stroke="None">
<path d=" M 125.00 242.00  C 124.75 242.28 125.00 243.00 125.00 243.00 C 136.71 239.09 180.87 237.14 168.00 261.00 C 172.02 255.48 172.00 248.47 166.25 243.75 C 160.49 239.04 152.63 239.84 146.00 241.00 C 139.37 242.16 129.78 236.59 125.00 242.00 Z"/>
</g>
<g fill="#000000" fill-opacity="0.98" stroke="None">
<path d=" M 125.00 243.00  C 124.36 243.45 119.35 248.30 119.00 248.00 C 116.25 254.53 118.91 262.85 126.00 265.00 C 132.92 265.64 141.14 266.67 149.00 266.00 C 156.86 265.33 163.30 267.45 168.00 261.00 C 180.87 237.14 136.71 239.09 125.00 243.00 Z"/>
</g>
<g fill="#FFFFFF" fill-opacity="0.42" stroke="None">
<path d=" M 120.00 246.00  C 119.58 246.69 119.31 247.27 119.00 248.00 C 119.35 248.30 124.36 243.45 125.00 243.00 C 125.00 243.00 124.75 242.28 125.00 242.00 C 122.78 243.11 121.46 243.61 120.00 246.00 Z"/>
</g>
<g fill="#FFFFFF" fill-opacity="0.13" stroke="None">
<path d=" M 126.00 265.00  C 118.91 262.85 116.25 254.53 119.00 248.00 C 119.31 247.27 119.58 246.69 120.00 246.00 C 114.21 253.05 117.31 264.20 126.00 265.00 Z"/>
</g>
<g fill="#FFFFFF" fill-opacity="0.00" stroke="None">
<path d=" M 147.00 267.00  C 143.49 267.55 138.76 265.84 136.00 268.00 C 139.51 267.45 144.24 269.16 147.00 267.00 Z"/>
</g>
</svg>
