<svg
    xmlns="http://www.w3.org/2000/svg"
    xmlns:v="https://svgstorm.com"
    viewBox="0 0 1024 1024"
    width="1024"
    height="1024"
>
<g
        fill="None"
        fill-opacity="0.0"
        stroke="#000000"
        stroke-opacity="0.00"
        stroke-width="2.5"
    ><path
            d="
M 608.00 150.00
C 649.93 136.37 688.92 151.87 716.92 181.08 C 744.91 210.29 749.63 255.51 736.20 292.25 C 722.77 328.99 680.63 359.84 640.00 359.00
C 640.88 385.15 641.01 413.37 641.00 441.00
C 555.00 441.00 469.00 441.00 383.00 441.00
C 385.33 414.17 383.34 386.25 384.00 359.00
C 353.46 358.81 328.55 345.09 307.43 323.23 C 286.31 301.37 279.35 269.33 281.20 237.75 C 283.05 206.17 302.57 182.18 326.89 162.89 C 351.22 143.61 382.44 141.93 414.00 150.00
C 439.20 120.34 471.78 105.66 511.00 106.00 C 550.22 106.34 581.83 120.18 608.00 150.00
M 647.00 463.00
C 653.41 504.49 652.27 549.54 624.08 586.08 C 595.89 622.61 554.99 643.98 510.00 643.00 C 465.01 642.02 429.14 621.56 401.10 586.90 C 373.06 552.24 369.67 506.06 376.00 463.00
C 466.33 463.00 556.66 463.00 647.00 463.00
M 639.00 639.00
C 651.22 648.31 664.96 656.23 679.10 665.90 C 693.23 675.57 706.03 686.66 719.25 698.75 C 732.47 710.83 743.29 724.00 752.32 736.68 C 761.35 749.36 770.34 762.39 776.92 777.08 C 783.51 791.76 787.50 801.74 791.19 816.25 C 794.89 830.76 799.18 842.98 799.93 858.08 C 800.69 873.19 806.28 898.01 798.00 913.00
C 608.65 913.00 416.33 913.00 227.00 913.00
C 219.72 897.63 223.25 873.82 224.79 858.77 C 226.32 843.72 229.89 828.03 233.21 814.77 C 236.54 801.51 242.67 790.37 247.13 779.08 C 251.59 767.79 261.16 751.77 269.92 738.92 C 278.69 726.08 289.52 714.57 302.25 701.25 C 314.98 687.92 327.94 678.90 341.68 668.68 C 355.42 658.46 370.51 649.19 384.00 640.00
C 398.37 647.29 410.55 659.63 424.70 666.30 C 438.86 672.97 449.35 677.93 463.75 681.59 C 478.15 685.25 491.49 686.54 508.22 687.22 C 524.96 687.91 542.01 685.16 556.75 681.41 C 571.49 677.65 581.16 674.20 595.92 666.87 C 610.68 659.54 624.96 648.30 639.00 639.00 Z"
        />
</g>
<g
        fill="None"
        fill-opacity="0.0"
        stroke="#000000"
        stroke-opacity="1.00"
        stroke-width="2.5"
    ><path
            d="
M 608.00 150.00
C 581.83 120.18 550.22 106.34 511.00 106.00 C 471.78 105.66 439.20 120.34 414.00 150.00
C 382.44 141.93 351.22 143.61 326.89 162.89 C 302.57 182.18 283.05 206.17 281.20 237.75 C 279.35 269.33 286.31 301.37 307.43 323.23 C 328.55 345.09 353.46 358.81 384.00 359.00
C 383.34 386.25 385.33 414.17 383.00 441.00
C 469.00 441.00 555.00 441.00 641.00 441.00
C 641.01 413.37 640.88 385.15 640.00 359.00
C 680.63 359.84 722.77 328.99 736.20 292.25 C 749.63 255.51 744.91 210.29 716.92 181.08 C 688.92 151.87 649.93 136.37 608.00 150.00 Z"
        />
</g>
<g
        fill="None"
        fill-opacity="0.0"
        stroke="#000000"
        stroke-opacity="0.99"
        stroke-width="2.5"
    ><path
            d="
M 647.00 463.00
C 556.66 463.00 466.33 463.00 376.00 463.00
C 369.67 506.06 373.06 552.24 401.10 586.90 C 429.14 621.56 465.01 642.02 510.00 643.00 C 554.99 643.98 595.89 622.61 624.08 586.08 C 652.27 549.54 653.41 504.49 647.00 463.00 Z"
        />
</g>
<g
        fill="None"
        fill-opacity="0.0"
        stroke="#000000"
        stroke-opacity="1.00"
        stroke-width="2.5"
    ><path
            d="
M 639.00 639.00
C 624.96 648.30 610.68 659.54 595.92 666.87 C 581.16 674.20 571.49 677.65 556.75 681.41 C 542.01 685.16 524.96 687.91 508.22 687.22 C 491.49 686.54 478.15 685.25 463.75 681.59 C 449.35 677.93 438.86 672.97 424.70 666.30 C 410.55 659.63 398.37 647.29 384.00 640.00
C 370.51 649.19 355.42 658.46 341.68 668.68 C 327.94 678.90 314.98 687.92 302.25 701.25 C 289.52 714.57 278.69 726.08 269.92 738.92 C 261.16 751.77 251.59 767.79 247.13 779.08 C 242.67 790.37 236.54 801.51 233.21 814.77 C 229.89 828.03 226.32 843.72 224.79 858.77 C 223.25 873.82 219.72 897.63 227.00 913.00
C 416.33 913.00 608.65 913.00 798.00 913.00
C 806.28 898.01 800.69 873.19 799.93 858.08 C 799.18 842.98 794.89 830.76 791.19 816.25 C 787.50 801.74 783.51 791.76 776.92 777.08 C 770.34 762.39 761.35 749.36 752.32 736.68 C 743.29 724.00 732.47 710.83 719.25 698.75 C 706.03 686.66 693.23 675.57 679.10 665.90 C 664.96 656.23 651.22 648.31 639.00 639.00 Z"
        />
</g>
<g
        fill="none"
        stroke="#000000"
        stroke-width="24"
        stroke-linecap="round"
        stroke-linejoin="round"
        fill-opacity="1.00"
        stroke-opacity="none"
    >
<path
            d="
M 608.00 150.00
C 649.93 136.37 688.92 151.87 716.92 181.08 C 744.91 210.29 749.63 255.51 736.20 292.25 C 722.77 328.99 680.63 359.84 640.00 359.00
C 640.88 385.15 641.01 413.37 641.00 441.00
C 555.00 441.00 469.00 441.00 383.00 441.00
C 385.33 414.17 383.34 386.25 384.00 359.00
C 353.46 358.81 328.55 345.09 307.43 323.23 C 286.31 301.37 279.35 269.33 281.20 237.75 C 283.05 206.17 302.57 182.18 326.89 162.89 C 351.22 143.61 382.44 141.93 414.00 150.00
C 439.20 120.34 471.78 105.66 511.00 106.00 C 550.22 106.34 581.83 120.18 608.00 150.00
M 647.00 463.00
C 653.41 504.49 652.27 549.54 624.08 586.08 C 595.89 622.61 554.99 643.98 510.00 643.00 C 465.01 642.02 429.14 621.56 401.10 586.90 C 373.06 552.24 369.67 506.06 376.00 463.00
C 466.33 463.00 556.66 463.00 647.00 463.00
M 639.00 639.00
C 651.22 648.31 664.96 656.23 679.10 665.90 C 693.23 675.57 706.03 686.66 719.25 698.75 C 732.47 710.83 743.29 724.00 752.32 736.68 C 761.35 749.36 770.34 762.39 776.92 777.08 C 783.51 791.76 787.50 801.74 791.19 816.25 C 794.89 830.76 799.18 842.98 799.93 858.08 C 800.69 873.19 806.28 898.01 798.00 913.00
C 608.65 913.00 416.33 913.00 227.00 913.00
C 219.72 897.63 223.25 873.82 224.79 858.77 C 226.32 843.72 229.89 828.03 233.21 814.77 C 236.54 801.51 242.67 790.37 247.13 779.08 C 251.59 767.79 261.16 751.77 269.92 738.92 C 278.69 726.08 289.52 714.57 302.25 701.25 C 314.98 687.92 327.94 678.90 341.68 668.68 C 355.42 658.46 370.51 649.19 384.00 640.00
C 398.37 647.29 410.55 659.63 424.70 666.30 C 438.86 672.97 449.35 677.93 463.75 681.59 C 478.15 685.25 491.49 686.54 508.22 687.22 C 524.96 687.91 542.01 685.16 556.75 681.41 C 571.49 677.65 581.16 674.20 595.92 666.87 C 610.68 659.54 624.96 648.30 639.00 639.00 Z"
        />
</g>
<g
        fill="none"
        stroke="#000000"
        stroke-width="24"
        stroke-linecap="round"
        stroke-linejoin="round"
        fill-opacity="1.00"
        stroke-opacity="none"
    >
<path
            d="
M 608.00 150.00
C 581.83 120.18 550.22 106.34 511.00 106.00 C 471.78 105.66 439.20 120.34 414.00 150.00
C 382.44 141.93 351.22 143.61 326.89 162.89 C 302.57 182.18 283.05 206.17 281.20 237.75 C 279.35 269.33 286.31 301.37 307.43 323.23 C 328.55 345.09 353.46 358.81 384.00 359.00
C 383.34 386.25 385.33 414.17 383.00 441.00
C 469.00 441.00 555.00 441.00 641.00 441.00
C 641.01 413.37 640.88 385.15 640.00 359.00
C 680.63 359.84 722.77 328.99 736.20 292.25 C 749.63 255.51 744.91 210.29 716.92 181.08 C 688.92 151.87 649.93 136.37 608.00 150.00 Z"
        />
</g>
<g
        fill="none"
        stroke="#000000"
        stroke-width="24"
        stroke-linecap="round"
        stroke-linejoin="round"
        fill-opacity="0.99"
        stroke-opacity="None"
    >
<path
            d="
M 647.00 463.00
C 556.66 463.00 466.33 463.00 376.00 463.00
C 369.67 506.06 373.06 552.24 401.10 586.90 C 429.14 621.56 465.01 642.02 510.00 643.00 C 554.99 643.98 595.89 622.61 624.08 586.08 C 652.27 549.54 653.41 504.49 647.00 463.00 Z"
        />
</g>
<g
        fill="none"
        stroke="#000000"
        stroke-width="24"
        stroke-linecap="round"
        stroke-linejoin="round"
        fill-opacity="1.00"
        stroke-opacity="None"
    >
<path
            d="
M 639.00 639.00
C 624.96 648.30 610.68 659.54 595.92 666.87 C 581.16 674.20 571.49 677.65 556.75 681.41 C 542.01 685.16 524.96 687.91 508.22 687.22 C 491.49 686.54 478.15 685.25 463.75 681.59 C 449.35 677.93 438.86 672.97 424.70 666.30 C 410.55 659.63 398.37 647.29 384.00 640.00
C 370.51 649.19 355.42 658.46 341.68 668.68 C 327.94 678.90 314.98 687.92 302.25 701.25 C 289.52 714.57 278.69 726.08 269.92 738.92 C 261.16 751.77 251.59 767.79 247.13 779.08 C 242.67 790.37 236.54 801.51 233.21 814.77 C 229.89 828.03 226.32 843.72 224.79 858.77 C 223.25 873.82 219.72 897.63 227.00 913.00
C 416.33 913.00 608.65 913.00 798.00 913.00
C 806.28 898.01 800.69 873.19 799.93 858.08 C 799.18 842.98 794.89 830.76 791.19 816.25 C 787.50 801.74 783.51 791.76 776.92 777.08 C 770.34 762.39 761.35 749.36 752.32 736.68 C 743.29 724.00 732.47 710.83 719.25 698.75 C 706.03 686.66 693.23 675.57 679.10 665.90 C 664.96 656.23 651.22 648.31 639.00 639.00 Z"
        />
</g>
</svg>
