<svg xmlns="http://www.w3.org/2000/svg" xmlns:v="https://svgstorm.com" viewBox="-34.95 -14.95 328.9 328.9" width="100%" height="100%">
<g fill="None" fill-opacity="0.0" stroke="#000000" stroke-opacity="0.01" stroke-width="0.3"><path d=" M 0.00 299.00  L 259.00 299.00 L 259.00 0.00 L 0.00 0.00 L 0.00 299.00 M 245.00 15.00  C 247.98 48.05 245.00 82.80 245.00 116.00 C 247.57 142.56 246.23 171.64 246.00 199.00 C 245.77 226.36 248.17 255.13 245.00 282.00 C 245.11 286.00 240.84 286.17 239.00 286.00 C 221.53 284.38 202.18 285.31 184.00 285.00 C 165.82 284.69 145.97 285.65 128.00 285.00 C 110.03 284.35 89.31 286.42 72.00 285.00 C 54.69 283.58 37.56 290.90 26.00 280.00 C 21.97 277.58 19.94 274.73 19.00 270.00 C 18.43 268.41 17.46 266.32 17.00 265.00 C 14.24 257.07 15.14 241.80 16.00 233.00 C 16.86 224.20 12.41 210.04 16.00 203.00 C 13.47 179.02 16.52 150.40 16.00 126.00 C 13.96 124.29 15.96 114.58 15.22 109.78 C 14.48 104.98 16.68 95.11 16.00 89.00 C 15.32 82.89 16.00 73.41 16.00 67.00 C 16.00 61.73 15.41 55.14 16.00 50.00 C 16.59 44.86 14.09 36.93 17.00 33.00 C 17.00 32.50 17.00 32.00 17.00 32.00 C 14.66 28.36 20.55 21.06 23.30 17.30 C 26.06 13.55 34.26 10.79 38.00 11.00 C 39.52 10.71 38.93 10.67 40.00 10.00 C 47.34 5.41 59.95 10.40 69.00 9.00 C 78.05 7.60 89.48 9.61 99.00 9.00 C 108.52 8.39 119.34 9.23 129.00 9.00 C 138.66 8.77 150.53 9.02 160.00 9.00 C 169.47 8.98 181.23 8.81 190.00 9.00 C 198.77 9.19 212.76 8.48 220.00 9.00 C 227.24 9.52 246.19 5.39 245.00 15.00 Z"/>
</g>
<g fill="None" fill-opacity="0.0" stroke="#FFFFFF" stroke-opacity="0.24" stroke-width="0.3"><path d=" M 40.00 10.00  C 50.66 7.26 62.92 11.16 74.00 10.00 C 85.08 8.84 97.81 10.44 109.00 10.00 C 120.19 9.56 133.02 10.01 144.00 10.00 C 154.98 9.99 168.68 9.60 179.00 10.00 C 189.32 10.40 205.24 8.91 214.00 10.00 C 222.76 11.09 242.40 5.33 244.00 15.00 C 244.01 15.08 245.00 15.00 245.00 15.00 C 246.19 5.39 227.24 9.52 220.00 9.00 C 212.76 8.48 198.77 9.19 190.00 9.00 C 181.23 8.81 169.47 8.98 160.00 9.00 C 150.53 9.02 138.66 8.77 129.00 9.00 C 119.34 9.23 108.52 8.39 99.00 9.00 C 89.48 9.61 78.05 7.60 69.00 9.00 C 59.95 10.40 47.34 5.41 40.00 10.00 Z"/>
</g>
<g fill="None" fill-opacity="0.0" stroke="#F6F6F6" stroke-opacity="0.27" stroke-width="0.3"><path d=" M 17.00 32.00  C 22.25 22.40 25.55 13.37 38.00 11.00 C 34.26 10.79 26.06 13.55 23.30 17.30 C 20.55 21.06 14.66 28.36 17.00 32.00 Z"/>
</g>
<g fill="None" fill-opacity="0.0" stroke="#000000" stroke-opacity="0.98" stroke-width="0.3"><path d=" M 38.00 11.00  C 25.55 13.37 22.25 22.40 17.00 32.00 C 17.00 32.00 17.00 32.50 17.00 33.00 C 17.00 44.33 17.00 55.67 17.00 67.00 C 17.00 86.67 17.00 106.33 17.00 126.00 C 17.00 151.67 17.00 177.33 17.00 203.00 C 17.00 213.14 16.24 223.92 17.00 234.00 C 17.76 244.08 14.97 255.16 17.00 265.00 C 17.46 266.32 18.43 268.41 19.00 270.00 C 20.34 273.76 23.00 277.17 26.00 280.00 C 37.56 290.90 54.69 283.58 72.00 285.00 C 89.31 286.42 110.03 284.35 128.00 285.00 C 145.97 285.65 165.82 284.69 184.00 285.00 C 202.18 285.31 221.53 284.38 239.00 286.00 C 241.69 285.71 242.99 284.44 244.00 282.00 C 241.64 255.92 244.88 229.20 244.00 203.00 C 243.12 176.80 244.00 150.23 244.00 124.00 C 244.00 88.17 240.77 50.67 244.00 15.00 C 242.40 5.33 222.76 11.09 214.00 10.00 C 205.24 8.91 189.32 10.40 179.00 10.00 C 168.68 9.60 154.98 9.99 144.00 10.00 C 133.02 10.01 120.19 9.56 109.00 10.00 C 97.81 10.44 85.08 8.84 74.00 10.00 C 62.92 11.16 50.66 7.26 40.00 10.00 C 38.93 10.67 39.52 10.71 38.00 11.00 M 233.00 23.00  C 233.87 32.63 237.35 52.82 225.00 52.00 C 212.65 51.18 200.40 52.43 188.00 52.00 C 175.60 51.57 162.39 52.33 150.00 52.00 C 137.61 51.67 125.28 52.46 113.00 52.00 C 100.72 51.54 88.15 52.90 76.00 52.00 C 63.85 51.10 50.52 54.33 39.00 51.00 C 33.35 49.42 28.72 42.69 29.00 37.00 C 29.29 31.30 31.74 24.24 38.70 22.70 C 45.65 21.15 55.31 22.24 63.00 22.00 C 70.69 21.76 79.07 22.08 87.00 22.00 C 94.93 21.92 104.00 21.99 112.00 22.00 C 120.00 22.01 128.06 21.89 136.00 22.00 C 143.94 22.11 152.16 21.71 160.00 22.00 C 167.84 22.29 177.47 21.36 185.00 22.00 C 192.53 22.64 202.27 20.52 209.00 22.00 C 215.73 23.48 228.56 18.38 233.00 23.00 M 41.00 63.00  C 45.03 63.27 54.24 61.24 57.00 64.00 C 61.31 68.31 56.78 79.55 58.00 86.00 C 59.22 92.45 57.57 101.83 58.00 109.00 C 58.43 116.17 58.00 125.62 58.00 133.00 C 58.00 180.00 58.00 227.00 58.00 274.00 C 52.67 274.00 47.33 274.00 42.00 274.00 C 37.51 273.76 30.59 271.57 30.00 266.00 C 24.74 259.48 30.64 246.56 29.00 238.00 C 27.36 229.44 29.75 217.32 29.00 208.00 C 28.25 198.68 29.35 187.61 29.00 178.00 C 28.65 168.39 29.15 158.78 29.00 149.00 C 28.85 139.22 29.07 128.90 29.00 119.00 C 28.93 109.10 29.04 98.95 29.00 89.00 C 28.96 79.05 29.03 68.96 29.00 59.00 C 32.84 60.86 36.51 63.24 41.00 63.00 M 233.00 104.00  C 233.00 135.33 233.00 166.67 233.00 198.00 C 233.00 205.85 233.57 215.32 233.00 223.00 C 232.43 230.68 234.45 241.98 233.00 249.00 C 231.55 256.02 236.75 269.43 232.00 274.00 C 224.40 274.68 216.63 273.71 209.00 274.00 C 201.37 274.29 193.65 273.92 186.00 274.00 C 178.35 274.08 170.65 274.07 163.00 274.00 C 155.35 273.93 146.53 274.24 139.00 274.00 C 131.47 273.76 123.16 274.62 116.00 274.00 C 108.84 273.38 99.46 275.40 93.00 274.00 C 86.54 272.60 74.29 277.43 70.00 273.00 C 69.75 272.74 70.00 272.00 70.00 272.00 C 70.00 262.46 70.84 252.50 70.00 243.00 C 67.91 219.25 68.71 193.77 70.00 170.00 C 71.06 150.47 70.00 130.57 70.00 111.00 C 70.00 104.27 68.62 94.09 69.00 88.00 C 69.39 81.90 66.09 67.91 70.00 64.00 C 74.90 59.10 87.55 64.46 95.00 63.00 C 102.45 61.54 113.70 63.63 122.00 63.00 C 130.30 62.37 140.33 63.23 149.00 63.00 C 157.67 62.77 167.16 62.97 176.00 63.00 C 184.84 63.03 194.11 62.69 203.00 63.00 C 211.89 63.31 221.14 62.20 230.00 63.00 C 235.20 62.46 232.67 77.36 233.00 82.00 C 233.33 86.64 233.00 98.69 233.00 104.00 Z"/>
</g>
<g fill="None" fill-opacity="0.0" stroke="#FFFFFF" stroke-opacity="0.53" stroke-width="0.3"><path d=" M 244.00 124.00  C 244.20 121.90 245.00 118.77 245.00 116.00 C 245.00 82.80 247.98 48.05 245.00 15.00 C 245.00 15.00 244.01 15.08 244.00 15.00 C 240.77 50.67 244.00 88.17 244.00 124.00 Z"/>
</g>
<g fill="None" fill-opacity="0.0" stroke="#FFFFFF" stroke-opacity="0.14" stroke-width="0.3"><path d=" M 39.00 51.00  C 38.87 50.96 39.00 50.00 39.00 50.00 C 34.00 44.41 24.74 35.94 32.92 27.92 C 41.10 19.90 47.81 23.86 59.00 23.00 C 70.19 22.14 82.58 23.38 94.00 23.00 C 105.42 22.62 117.50 23.14 129.00 23.00 C 140.50 22.86 152.53 23.00 164.00 23.00 C 175.47 23.00 187.70 22.86 199.00 23.00 C 210.30 23.14 219.50 23.00 231.00 23.00 C 232.50 23.00 233.00 23.00 233.00 23.00 C 228.56 18.38 215.73 23.48 209.00 22.00 C 202.27 20.52 192.53 22.64 185.00 22.00 C 177.47 21.36 167.84 22.29 160.00 22.00 C 152.16 21.71 143.94 22.11 136.00 22.00 C 128.06 21.89 120.00 22.01 112.00 22.00 C 104.00 21.99 94.93 21.92 87.00 22.00 C 79.07 22.08 70.69 21.76 63.00 22.00 C 55.31 22.24 45.65 21.15 38.70 22.70 C 31.74 24.24 29.29 31.30 29.00 37.00 C 28.72 42.69 33.35 49.42 39.00 51.00 Z"/>
</g>
<g fill="None" fill-opacity="0.0" stroke="#000000" stroke-opacity="0.00" stroke-width="0.3"><path d=" M 39.00 50.00  C 70.87 47.12 102.97 51.49 135.00 50.00 C 167.03 48.51 199.89 51.12 232.00 50.00 C 231.61 41.73 232.27 31.94 232.00 23.00 C 219.50 23.00 210.30 23.14 199.00 23.00 C 187.70 22.86 175.47 23.00 164.00 23.00 C 152.53 23.00 140.50 22.86 129.00 23.00 C 117.50 23.14 105.42 22.62 94.00 23.00 C 82.58 23.38 70.19 22.14 59.00 23.00 C 47.81 23.86 41.10 19.90 32.92 27.92 C 24.74 35.94 34.00 44.41 39.00 50.00 Z"/>
</g>
<g fill="None" fill-opacity="0.0" stroke="#FFFFFF" stroke-opacity="0.42" stroke-width="0.3"><path d=" M 39.00 50.00  C 39.00 50.00 38.87 50.96 39.00 51.00 C 50.52 54.33 63.85 51.10 76.00 52.00 C 88.15 52.90 100.72 51.54 113.00 52.00 C 125.28 52.46 137.61 51.67 150.00 52.00 C 162.39 52.33 175.60 51.57 188.00 52.00 C 200.40 52.43 212.65 51.18 225.00 52.00 C 237.35 52.82 233.87 32.63 233.00 23.00 C 233.00 23.00 232.50 23.00 232.00 23.00 C 232.27 31.94 231.61 41.73 232.00 50.00 C 199.89 51.12 167.03 48.51 135.00 50.00 C 102.97 51.49 70.87 47.12 39.00 50.00 Z"/>
</g>
<g fill="None" fill-opacity="0.0" stroke="#FFFFFF" stroke-opacity="0.11" stroke-width="0.3"><path d=" M 16.00 67.00  C 16.00 66.96 17.00 67.00 17.00 67.00 C 17.00 55.67 17.00 44.33 17.00 33.00 C 14.09 36.93 16.59 44.86 16.00 50.00 C 15.41 55.14 16.00 61.73 16.00 67.00 Z"/>
</g>
<g fill="None" fill-opacity="0.0" stroke="#FFFFFF" stroke-opacity="0.07" stroke-width="0.3"><path d=" M 30.00 266.00  C 30.20 266.24 31.00 266.00 31.00 266.00 C 25.25 244.95 31.99 221.10 30.00 199.00 C 28.01 176.90 31.03 153.48 30.00 131.00 C 28.97 108.52 30.77 84.61 30.00 62.00 C 34.04 61.31 36.81 65.11 41.00 64.00 C 40.96 64.00 41.00 63.00 41.00 63.00 C 36.51 63.24 32.84 60.86 29.00 59.00 C 29.03 68.96 28.96 79.05 29.00 89.00 C 29.04 98.95 28.93 109.10 29.00 119.00 C 29.07 128.90 28.85 139.22 29.00 149.00 C 29.15 158.78 28.65 168.39 29.00 178.00 C 29.35 187.61 28.25 198.68 29.00 208.00 C 29.75 217.32 27.36 229.44 29.00 238.00 C 30.64 246.56 24.74 259.48 30.00 266.00 Z"/>
</g>
<g fill="None" fill-opacity="0.0" stroke="#000000" stroke-opacity="0.00" stroke-width="0.3"><path d=" M 31.00 266.00  C 34.02 270.32 37.23 271.63 42.00 273.00 C 46.96 272.55 52.03 273.34 57.00 273.00 C 57.01 226.79 56.92 179.52 57.00 133.00 C 56.67 110.04 57.02 87.65 57.00 64.00 C 51.63 64.29 46.70 64.31 41.00 64.00 C 36.81 65.11 34.04 61.31 30.00 62.00 C 30.77 84.61 28.97 108.52 30.00 131.00 C 31.03 153.48 28.01 176.90 30.00 199.00 C 31.99 221.10 25.25 244.95 31.00 266.00 Z"/>
</g>
<g fill="None" fill-opacity="0.0" stroke="#FFFFFF" stroke-opacity="0.33" stroke-width="0.3"><path d=" M 41.00 64.00  C 46.70 64.31 51.63 64.29 57.00 64.00 C 54.24 61.24 45.03 63.27 41.00 63.00 C 41.00 63.00 40.96 64.00 41.00 64.00 Z"/>
</g>
<g fill="None" fill-opacity="0.0" stroke="#FFFFFF" stroke-opacity="0.41" stroke-width="0.3"><path d=" M 70.00 64.00  C 94.59 63.13 121.60 65.24 148.00 64.00 C 174.40 62.76 203.50 66.40 230.00 64.00 C 229.81 63.91 230.00 63.00 230.00 63.00 C 221.14 62.20 211.89 63.31 203.00 63.00 C 194.11 62.69 184.84 63.03 176.00 63.00 C 167.16 62.97 157.67 62.77 149.00 63.00 C 140.33 63.23 130.30 62.37 122.00 63.00 C 113.70 63.63 102.45 61.54 95.00 63.00 C 87.55 64.46 74.90 59.10 70.00 64.00 Z"/>
</g>
<g fill="None" fill-opacity="0.0" stroke="#FFFFFF" stroke-opacity="0.52" stroke-width="0.3"><path d=" M 230.00 64.00  C 234.31 65.96 231.47 74.61 232.00 79.00 C 232.53 83.39 232.00 91.29 232.00 96.00 C 232.00 98.77 232.80 101.96 233.00 104.00 C 233.00 98.69 233.33 86.64 233.00 82.00 C 232.67 77.36 235.20 62.46 230.00 63.00 C 230.00 63.00 229.81 63.91 230.00 64.00 Z"/>
</g>
<g fill="None" fill-opacity="0.0" stroke="#FFFFFF" stroke-opacity="0.04" stroke-width="0.3"><path d=" M 57.00 133.00  C 57.18 133.24 58.00 133.00 58.00 133.00 C 58.00 125.62 58.43 116.17 58.00 109.00 C 57.57 101.83 59.22 92.45 58.00 86.00 C 56.78 79.55 61.31 68.31 57.00 64.00 C 57.02 87.65 56.67 110.04 57.00 133.00 Z"/>
</g>
<g fill="None" fill-opacity="0.0" stroke="#000000" stroke-opacity="0.00" stroke-width="0.3"><path d=" M 70.00 111.00  C 71.82 129.77 71.00 150.48 71.00 170.00 C 71.00 194.33 71.00 218.67 71.00 243.00 C 71.00 249.91 73.87 266.77 70.00 272.00 C 70.00 272.00 69.75 272.74 70.00 273.00 C 123.56 277.84 178.44 268.16 232.00 273.00 C 232.00 250.77 231.26 227.55 232.00 206.00 C 229.66 171.07 228.63 130.81 232.00 96.00 C 232.00 91.29 232.53 83.39 232.00 79.00 C 231.47 74.61 234.31 65.96 230.00 64.00 C 203.50 66.40 174.40 62.76 148.00 64.00 C 121.60 65.24 94.59 63.13 70.00 64.00 C 66.09 67.91 69.39 81.90 69.00 88.00 C 68.62 94.09 70.00 104.27 70.00 111.00 M 176.00 105.00  C 179.05 105.00 182.59 103.15 184.00 105.00 C 184.41 105.11 185.17 105.84 186.00 106.00 C 196.52 105.42 213.56 124.16 204.00 136.00 C 202.06 142.19 195.47 149.17 190.00 149.00 C 188.53 149.37 189.07 149.25 188.00 150.00 C 184.58 153.79 189.43 164.51 188.78 171.22 C 188.13 177.94 192.18 189.27 184.00 192.00 C 176.49 194.50 165.36 192.37 157.00 193.00 C 148.64 193.63 137.31 192.16 129.78 193.78 C 122.25 195.40 108.56 190.47 114.00 182.00 C 114.56 181.13 114.84 181.32 115.00 180.00 C 114.64 176.40 114.41 172.60 115.00 169.00 C 115.31 167.13 115.18 166.35 115.00 164.00 C 114.68 159.69 115.24 155.32 115.00 151.00 C 114.12 151.01 110.08 149.90 112.00 149.00 C 111.39 148.68 110.81 148.34 110.00 148.00 C 102.89 147.79 99.15 139.68 97.07 131.93 C 95.00 124.17 99.31 116.87 105.25 110.25 C 111.19 103.63 122.09 106.04 129.02 104.98 C 135.96 103.91 140.80 91.73 150.00 94.00 C 159.20 96.27 166.94 95.28 171.00 105.00 C 172.67 105.00 174.33 105.00 176.00 105.00 M 196.00 230.00  C 192.41 231.57 185.55 228.06 180.00 229.00 C 174.45 229.94 165.83 229.00 160.00 229.00 C 158.58 229.45 160.48 229.97 158.00 230.00 C 145.16 232.21 129.72 230.22 117.00 230.00 C 113.86 230.25 110.68 232.09 108.00 230.00 C 107.68 230.24 107.00 230.00 107.00 230.00 C 100.55 228.28 102.51 218.02 109.00 218.00 C 117.55 217.22 126.72 217.26 135.02 217.98 C 143.33 218.69 154.92 218.82 162.67 217.67 C 170.42 216.52 178.67 219.85 186.07 217.07 C 193.47 214.30 205.81 225.72 196.00 230.00 Z"/>
</g>
<g fill="None" fill-opacity="0.0" stroke="#FFFFFF" stroke-opacity="0.28" stroke-width="0.3"><path d=" M 16.00 126.00  C 16.29 126.25 17.00 126.00 17.00 126.00 C 17.00 106.33 17.00 86.67 17.00 67.00 C 17.00 67.00 16.00 66.96 16.00 67.00 C 16.00 73.41 15.32 82.89 16.00 89.00 C 16.68 95.11 14.48 104.98 15.22 109.78 C 15.96 114.58 13.96 124.29 16.00 126.00 Z"/>
</g>
<g fill="None" fill-opacity="0.0" stroke="#F8F8F8" stroke-opacity="0.27" stroke-width="0.3"><path d=" M 110.00 148.00  C 84.10 137.14 105.66 92.75 131.00 107.00 C 138.79 90.58 163.32 91.80 172.00 107.00 C 173.05 105.63 175.44 106.77 176.00 105.00 C 174.33 105.00 172.67 105.00 171.00 105.00 C 166.94 95.28 159.20 96.27 150.00 94.00 C 140.80 91.73 135.96 103.91 129.02 104.98 C 122.09 106.04 111.19 103.63 105.25 110.25 C 99.31 116.87 95.00 124.17 97.07 131.93 C 99.15 139.68 102.89 147.79 110.00 148.00 Z"/>
</g>
<g fill="None" fill-opacity="0.0" stroke="#000000" stroke-opacity="0.97" stroke-width="0.3"><path d=" M 110.00 148.00  C 110.81 148.34 111.39 148.68 112.00 149.00 C 118.60 152.41 115.15 158.45 115.00 164.00 C 115.18 166.35 115.31 167.13 115.00 169.00 C 114.85 172.61 115.44 176.41 115.00 180.00 C 114.84 181.32 114.56 181.13 114.00 182.00 C 111.44 191.79 122.33 193.21 130.00 192.00 C 137.67 190.79 148.96 193.42 157.00 192.00 C 165.04 190.58 176.23 194.59 184.00 192.00 C 192.35 189.22 185.18 177.76 187.00 172.00 C 188.82 166.24 182.38 153.97 188.00 150.00 C 189.07 149.25 188.53 149.37 190.00 149.00 C 196.87 147.30 199.45 140.78 203.00 136.00 C 204.00 122.58 201.63 108.97 186.00 106.00 C 185.17 105.84 184.41 105.11 184.00 105.00 C 181.95 104.47 178.11 104.70 176.00 105.00 C 175.44 106.77 173.05 105.63 172.00 107.00 C 163.32 91.80 138.79 90.58 131.00 107.00 C 105.66 92.75 84.10 137.14 110.00 148.00 M 155.00 107.00  C 161.97 109.58 165.08 129.34 174.23 119.23 C 183.38 109.12 197.78 126.44 191.00 133.00 C 190.45 138.12 182.38 140.69 178.00 140.00 C 173.85 142.90 172.69 147.90 174.00 153.00 C 174.54 153.87 174.84 153.68 175.00 155.00 C 176.03 163.39 174.93 171.67 176.00 180.00 C 161.05 181.76 152.60 177.66 137.00 180.00 C 121.40 182.34 127.78 164.59 128.00 153.00 C 128.00 140.40 123.24 140.83 113.92 137.08 C 104.60 133.33 110.94 119.18 117.00 118.00 C 117.48 117.91 118.00 118.00 118.00 118.00 C 120.58 116.09 122.75 117.88 125.00 118.00 C 126.75 117.80 125.58 117.28 127.00 118.00 C 130.84 119.95 137.02 124.79 139.30 118.30 C 141.58 111.81 141.68 108.92 148.00 107.00 C 149.82 106.45 153.18 106.33 155.00 107.00 Z"/>
</g>
<g fill="None" fill-opacity="0.0" stroke="#FFFFFF" stroke-opacity="0.32" stroke-width="0.3"><path d=" M 232.00 206.00  C 232.09 203.29 232.81 200.00 233.00 198.00 C 233.00 166.67 233.00 135.33 233.00 104.00 C 232.80 101.96 232.00 98.77 232.00 96.00 C 228.63 130.81 229.66 171.07 232.00 206.00 Z"/>
</g>
<g fill="None" fill-opacity="0.0" stroke="#FFFFFF" stroke-opacity="0.10" stroke-width="0.3"><path d=" M 176.00 105.00  C 178.11 104.70 181.95 104.47 184.00 105.00 C 182.59 103.15 179.05 105.00 176.00 105.00 Z"/>
</g>
<g fill="None" fill-opacity="0.0" stroke="#FFFFFF" stroke-opacity="0.33" stroke-width="0.3"><path d=" M 186.00 106.00  C 201.63 108.97 204.00 122.58 203.00 136.00 C 203.18 135.76 204.00 136.00 204.00 136.00 C 213.56 124.16 196.52 105.42 186.00 106.00 Z"/>
</g>
<g fill="None" fill-opacity="0.0" stroke="#000000" stroke-opacity="0.00" stroke-width="0.3"><path d=" M 148.00 107.00  C 143.21 108.89 142.80 112.87 139.69 119.69 C 136.59 126.51 128.88 119.56 127.00 118.00 C 125.58 117.28 126.75 117.80 125.00 118.00 C 122.74 118.26 120.28 118.00 118.00 118.00 C 118.00 118.00 117.48 117.91 117.00 118.00 C 112.71 120.74 105.24 134.59 116.08 136.92 C 126.92 139.24 129.65 141.00 129.00 153.00 C 128.53 161.70 127.64 170.10 128.00 179.00 C 143.67 179.00 159.33 179.00 175.00 179.00 C 175.85 170.81 171.23 161.49 175.00 155.00 C 174.84 153.68 174.54 153.87 174.00 153.00 C 171.59 149.15 171.58 139.69 178.00 139.00 C 182.73 136.51 186.43 138.11 190.00 133.00 C 195.34 122.45 182.18 112.66 172.92 120.92 C 163.66 129.18 158.89 109.07 155.00 107.00 C 153.18 106.33 149.82 106.45 148.00 107.00 Z"/>
</g>
<g fill="None" fill-opacity="0.0" stroke="#FFFFFF" stroke-opacity="0.13" stroke-width="0.3"><path d=" M 127.00 118.00  C 128.88 119.56 136.59 126.51 139.69 119.69 C 142.80 112.87 143.21 108.89 148.00 107.00 C 141.68 108.92 141.58 111.81 139.30 118.30 C 137.02 124.79 130.84 119.95 127.00 118.00 Z"/>
</g>
<g fill="None" fill-opacity="0.0" stroke="#FFFFFF" stroke-opacity="0.15" stroke-width="0.3"><path d=" M 190.00 133.00  C 190.16 132.77 191.00 133.00 191.00 133.00 C 197.78 126.44 183.38 109.12 174.23 119.23 C 165.08 129.34 161.97 109.58 155.00 107.00 C 158.89 109.07 163.66 129.18 172.92 120.92 C 182.18 112.66 195.34 122.45 190.00 133.00 Z"/>
</g>
<g fill="None" fill-opacity="0.0" stroke="#FFFFFF" stroke-opacity="0.04" stroke-width="0.3"><path d=" M 70.00 170.00  C 70.00 169.99 71.00 170.00 71.00 170.00 C 71.00 150.48 71.82 129.77 70.00 111.00 C 70.00 130.57 71.06 150.47 70.00 170.00 Z"/>
</g>
<g fill="None" fill-opacity="0.0" stroke="#FFFFFF" stroke-opacity="0.35" stroke-width="0.3"><path d=" M 244.00 124.00  C 244.00 150.23 243.12 176.80 244.00 203.00 C 244.88 229.20 241.64 255.92 244.00 282.00 C 244.07 281.82 245.00 282.00 245.00 282.00 C 248.17 255.13 245.77 226.36 246.00 199.00 C 246.23 171.64 247.57 142.56 245.00 116.00 C 245.00 118.77 244.20 121.90 244.00 124.00 Z"/>
</g>
<g fill="None" fill-opacity="0.0" stroke="#FFFFFF" stroke-opacity="0.12" stroke-width="0.3"><path d=" M 118.00 118.00  C 120.28 118.00 122.74 118.26 125.00 118.00 C 122.75 117.88 120.58 116.09 118.00 118.00 Z"/>
</g>
<g fill="None" fill-opacity="0.0" stroke="#FFFFFF" stroke-opacity="0.30" stroke-width="0.3"><path d=" M 128.00 153.00  C 128.00 152.96 129.00 153.00 129.00 153.00 C 129.65 141.00 126.92 139.24 116.08 136.92 C 105.24 134.59 112.71 120.74 117.00 118.00 C 110.94 119.18 104.60 133.33 113.92 137.08 C 123.24 140.83 128.00 140.40 128.00 153.00 Z"/>
</g>
<g fill="None" fill-opacity="0.0" stroke="#FFFFFF" stroke-opacity="0.40" stroke-width="0.3"><path d=" M 16.00 203.00  C 16.10 202.80 17.00 203.00 17.00 203.00 C 17.00 177.33 17.00 151.67 17.00 126.00 C 17.00 126.00 16.29 126.25 16.00 126.00 C 16.52 150.40 13.47 179.02 16.00 203.00 Z"/>
</g>
<g fill="None" fill-opacity="0.0" stroke="#FFFFFF" stroke-opacity="0.15" stroke-width="0.3"><path d=" M 42.00 273.00  C 42.13 273.04 42.00 274.00 42.00 274.00 C 47.33 274.00 52.67 274.00 58.00 274.00 C 58.00 227.00 58.00 180.00 58.00 133.00 C 58.00 133.00 57.18 133.24 57.00 133.00 C 56.92 179.52 57.01 226.79 57.00 273.00 C 52.03 273.34 46.96 272.55 42.00 273.00 Z"/>
</g>
<g fill="None" fill-opacity="0.0" stroke="#FFFFFF" stroke-opacity="0.32" stroke-width="0.3"><path d=" M 178.00 139.00  C 177.79 139.11 178.00 140.00 178.00 140.00 C 182.38 140.69 190.45 138.12 191.00 133.00 C 191.00 133.00 190.16 132.77 190.00 133.00 C 186.43 138.11 182.73 136.51 178.00 139.00 Z"/>
</g>
<g fill="None" fill-opacity="0.0" stroke="#FFFFFF" stroke-opacity="0.16" stroke-width="0.3"><path d=" M 190.00 149.00  C 195.47 149.17 202.06 142.19 204.00 136.00 C 204.00 136.00 203.18 135.76 203.00 136.00 C 199.45 140.78 196.87 147.30 190.00 149.00 Z"/>
</g>
<g fill="None" fill-opacity="0.0" stroke="#FFFFFF" stroke-opacity="0.13" stroke-width="0.3"><path d=" M 174.00 153.00  C 172.69 147.90 173.85 142.90 178.00 140.00 C 178.00 140.00 177.79 139.11 178.00 139.00 C 171.58 139.69 171.59 149.15 174.00 153.00 Z"/>
</g>
<g fill="None" fill-opacity="0.0" stroke="#FFFFFF" stroke-opacity="0.15" stroke-width="0.3"><path d=" M 115.00 164.00  C 115.15 158.45 118.60 152.41 112.00 149.00 C 110.08 149.90 114.12 151.01 115.00 151.00 C 115.24 155.32 114.68 159.69 115.00 164.00 Z"/>
</g>
<g fill="None" fill-opacity="0.0" stroke="#FFFFFF" stroke-opacity="0.30" stroke-width="0.3"><path d=" M 184.00 192.00  C 192.18 189.27 188.13 177.94 188.78 171.22 C 189.43 164.51 184.58 153.79 188.00 150.00 C 182.38 153.97 188.82 166.24 187.00 172.00 C 185.18 177.76 192.35 189.22 184.00 192.00 Z"/>
</g>
<g fill="None" fill-opacity="0.0" stroke="#FFFFFF" stroke-opacity="0.19" stroke-width="0.3"><path d=" M 175.00 155.00  C 171.23 161.49 175.85 170.81 175.00 179.00 C 159.33 179.00 143.67 179.00 128.00 179.00 C 127.64 170.10 128.53 161.70 129.00 153.00 C 129.00 153.00 128.00 152.96 128.00 153.00 C 127.78 164.59 121.40 182.34 137.00 180.00 C 152.60 177.66 161.05 181.76 176.00 180.00 C 174.93 171.67 176.03 163.39 175.00 155.00 Z"/>
</g>
<g fill="None" fill-opacity="0.0" stroke="#FFFFFF" stroke-opacity="0.18" stroke-width="0.3"><path d=" M 115.00 180.00  C 115.44 176.41 114.85 172.61 115.00 169.00 C 114.41 172.60 114.64 176.40 115.00 180.00 Z"/>
</g>
<g fill="None" fill-opacity="0.0" stroke="#FFFFFF" stroke-opacity="0.48" stroke-width="0.3"><path d=" M 70.00 243.00  C 70.11 243.21 71.00 243.00 71.00 243.00 C 71.00 218.67 71.00 194.33 71.00 170.00 C 71.00 170.00 70.00 169.99 70.00 170.00 C 68.71 193.77 67.91 219.25 70.00 243.00 Z"/>
</g>
<g fill="None" fill-opacity="0.0" stroke="#FFFFFF" stroke-opacity="0.09" stroke-width="0.3"><path d=" M 184.00 192.00  C 176.23 194.59 165.04 190.58 157.00 192.00 C 148.96 193.42 137.67 190.79 130.00 192.00 C 122.33 193.21 111.44 191.79 114.00 182.00 C 108.56 190.47 122.25 195.40 129.78 193.78 C 137.31 192.16 148.64 193.63 157.00 193.00 C 165.36 192.37 176.49 194.50 184.00 192.00 Z"/>
</g>
<g fill="None" fill-opacity="0.0" stroke="#FFFFFF" stroke-opacity="0.44" stroke-width="0.3"><path d=" M 232.00 206.00  C 231.26 227.55 232.00 250.77 232.00 273.00 C 232.00 273.50 232.00 274.00 232.00 274.00 C 236.75 269.43 231.55 256.02 233.00 249.00 C 234.45 241.98 232.43 230.68 233.00 223.00 C 233.57 215.32 233.00 205.85 233.00 198.00 C 232.81 200.00 232.09 203.29 232.00 206.00 Z"/>
</g>
<g fill="None" fill-opacity="0.0" stroke="#FFFFFF" stroke-opacity="0.22" stroke-width="0.3"><path d=" M 17.00 265.00  C 14.97 255.16 17.76 244.08 17.00 234.00 C 16.24 223.92 17.00 213.14 17.00 203.00 C 17.00 203.00 16.10 202.80 16.00 203.00 C 12.41 210.04 16.86 224.20 16.00 233.00 C 15.14 241.80 14.24 257.07 17.00 265.00 Z"/>
</g>
<g fill="None" fill-opacity="0.0" stroke="#FFFFFF" stroke-opacity="0.37" stroke-width="0.3"><path d=" M 109.00 218.00  C 108.95 218.00 109.00 219.00 109.00 219.00 C 117.04 219.73 125.96 219.12 134.00 219.00 C 142.04 218.88 152.26 219.94 160.00 219.00 C 167.74 218.06 178.13 221.53 185.00 219.00 C 191.87 216.47 204.00 224.32 196.00 230.00 C 205.81 225.72 193.47 214.30 186.07 217.07 C 178.67 219.85 170.42 216.52 162.67 217.67 C 154.92 218.82 143.33 218.69 135.02 217.98 C 126.72 217.26 117.55 217.22 109.00 218.00 Z"/>
</g>
<g fill="None" fill-opacity="0.0" stroke="#FFFFFF" stroke-opacity="0.22" stroke-width="0.3"><path d=" M 107.00 230.00  C 103.49 225.98 103.18 220.87 109.00 219.00 C 109.00 219.00 108.95 218.00 109.00 218.00 C 102.51 218.02 100.55 228.28 107.00 230.00 Z"/>
</g>
<g fill="None" fill-opacity="0.0" stroke="#000000" stroke-opacity="0.99" stroke-width="0.3"><path d=" M 107.00 230.00  C 107.00 230.00 107.68 230.24 108.00 230.00 C 113.75 225.75 125.39 229.98 133.00 229.00 C 140.61 228.02 152.04 229.00 160.00 229.00 C 165.83 229.00 174.45 229.94 180.00 229.00 C 185.55 228.06 192.41 231.57 196.00 230.00 C 204.00 224.32 191.87 216.47 185.00 219.00 C 178.13 221.53 167.74 218.06 160.00 219.00 C 152.26 219.94 142.04 218.88 134.00 219.00 C 125.96 219.12 117.04 219.73 109.00 219.00 C 103.18 220.87 103.49 225.98 107.00 230.00 Z"/>
</g>
<g fill="None" fill-opacity="0.0" stroke="#050505" stroke-opacity="0.62" stroke-width="0.3"><path d=" M 108.00 230.00  C 110.68 232.09 113.86 230.25 117.00 230.00 C 130.51 228.93 144.44 230.18 158.00 230.00 C 160.48 229.97 158.58 229.45 160.00 229.00 C 152.04 229.00 140.61 228.02 133.00 229.00 C 125.39 229.98 113.75 225.75 108.00 230.00 Z"/>
</g>
<g fill="None" fill-opacity="0.0" stroke="#FFFFFF" stroke-opacity="0.04" stroke-width="0.3"><path d=" M 158.00 230.00  C 144.44 230.18 130.51 228.93 117.00 230.00 C 129.72 230.22 145.16 232.21 158.00 230.00 Z"/>
</g>
<g fill="None" fill-opacity="0.0" stroke="#FFFFFF" stroke-opacity="0.03" stroke-width="0.3"><path d=" M 70.00 272.00  C 73.87 266.77 71.00 249.91 71.00 243.00 C 71.00 243.00 70.11 243.21 70.00 243.00 C 70.84 252.50 70.00 262.46 70.00 272.00 Z"/>
</g>
<g fill="None" fill-opacity="0.0" stroke="#FFFFFF" stroke-opacity="0.38" stroke-width="0.3"><path d=" M 42.00 274.00  C 42.00 274.00 42.13 273.04 42.00 273.00 C 37.23 271.63 34.02 270.32 31.00 266.00 C 31.00 266.00 30.20 266.24 30.00 266.00 C 30.59 271.57 37.51 273.76 42.00 274.00 Z"/>
</g>
<g fill="None" fill-opacity="0.0" stroke="#ADADAD" stroke-opacity="0.15" stroke-width="0.3"><path d=" M 26.00 280.00  C 23.00 277.17 20.34 273.76 19.00 270.00 C 19.94 274.73 21.97 277.58 26.00 280.00 Z"/>
</g>
<g fill="None" fill-opacity="0.0" stroke="#FFFFFF" stroke-opacity="0.22" stroke-width="0.3"><path d=" M 232.00 274.00  C 232.00 274.00 232.00 273.50 232.00 273.00 C 178.44 268.16 123.56 277.84 70.00 273.00 C 74.29 277.43 86.54 272.60 93.00 274.00 C 99.46 275.40 108.84 273.38 116.00 274.00 C 123.16 274.62 131.47 273.76 139.00 274.00 C 146.53 274.24 155.35 273.93 163.00 274.00 C 170.65 274.07 178.35 274.08 186.00 274.00 C 193.65 273.92 201.37 274.29 209.00 274.00 C 216.63 273.71 224.40 274.68 232.00 274.00 Z"/>
</g>
<g fill="None" fill-opacity="0.0" stroke="#FFFFFF" stroke-opacity="0.11" stroke-width="0.3"><path d=" M 239.00 286.00  C 240.84 286.17 245.11 286.00 245.00 282.00 C 245.00 282.00 244.07 281.82 244.00 282.00 C 242.99 284.44 241.69 285.71 239.00 286.00 Z"/>
</g>
<g fill="#000000" fill-opacity="0.01" stroke="None">
<path d=" M 0.00 299.00  L 259.00 299.00 L 259.00 0.00 L 0.00 0.00 L 0.00 299.00 M 245.00 15.00  C 247.98 48.05 245.00 82.80 245.00 116.00 C 247.57 142.56 246.23 171.64 246.00 199.00 C 245.77 226.36 248.17 255.13 245.00 282.00 C 245.11 286.00 240.84 286.17 239.00 286.00 C 221.53 284.38 202.18 285.31 184.00 285.00 C 165.82 284.69 145.97 285.65 128.00 285.00 C 110.03 284.35 89.31 286.42 72.00 285.00 C 54.69 283.58 37.56 290.90 26.00 280.00 C 21.97 277.58 19.94 274.73 19.00 270.00 C 18.43 268.41 17.46 266.32 17.00 265.00 C 14.24 257.07 15.14 241.80 16.00 233.00 C 16.86 224.20 12.41 210.04 16.00 203.00 C 13.47 179.02 16.52 150.40 16.00 126.00 C 13.96 124.29 15.96 114.58 15.22 109.78 C 14.48 104.98 16.68 95.11 16.00 89.00 C 15.32 82.89 16.00 73.41 16.00 67.00 C 16.00 61.73 15.41 55.14 16.00 50.00 C 16.59 44.86 14.09 36.93 17.00 33.00 C 17.00 32.50 17.00 32.00 17.00 32.00 C 14.66 28.36 20.55 21.06 23.30 17.30 C 26.06 13.55 34.26 10.79 38.00 11.00 C 39.52 10.71 38.93 10.67 40.00 10.00 C 47.34 5.41 59.95 10.40 69.00 9.00 C 78.05 7.60 89.48 9.61 99.00 9.00 C 108.52 8.39 119.34 9.23 129.00 9.00 C 138.66 8.77 150.53 9.02 160.00 9.00 C 169.47 8.98 181.23 8.81 190.00 9.00 C 198.77 9.19 212.76 8.48 220.00 9.00 C 227.24 9.52 246.19 5.39 245.00 15.00 Z"/>
</g>
<g fill="#FFFFFF" fill-opacity="0.24" stroke="None">
<path d=" M 40.00 10.00  C 50.66 7.26 62.92 11.16 74.00 10.00 C 85.08 8.84 97.81 10.44 109.00 10.00 C 120.19 9.56 133.02 10.01 144.00 10.00 C 154.98 9.99 168.68 9.60 179.00 10.00 C 189.32 10.40 205.24 8.91 214.00 10.00 C 222.76 11.09 242.40 5.33 244.00 15.00 C 244.01 15.08 245.00 15.00 245.00 15.00 C 246.19 5.39 227.24 9.52 220.00 9.00 C 212.76 8.48 198.77 9.19 190.00 9.00 C 181.23 8.81 169.47 8.98 160.00 9.00 C 150.53 9.02 138.66 8.77 129.00 9.00 C 119.34 9.23 108.52 8.39 99.00 9.00 C 89.48 9.61 78.05 7.60 69.00 9.00 C 59.95 10.40 47.34 5.41 40.00 10.00 Z"/>
</g>
<g fill="#F6F6F6" fill-opacity="0.27" stroke="None">
<path d=" M 17.00 32.00  C 22.25 22.40 25.55 13.37 38.00 11.00 C 34.26 10.79 26.06 13.55 23.30 17.30 C 20.55 21.06 14.66 28.36 17.00 32.00 Z"/>
</g>
<g fill="#000000" fill-opacity="0.98" stroke="None">
<path d=" M 38.00 11.00  C 25.55 13.37 22.25 22.40 17.00 32.00 C 17.00 32.00 17.00 32.50 17.00 33.00 C 17.00 44.33 17.00 55.67 17.00 67.00 C 17.00 86.67 17.00 106.33 17.00 126.00 C 17.00 151.67 17.00 177.33 17.00 203.00 C 17.00 213.14 16.24 223.92 17.00 234.00 C 17.76 244.08 14.97 255.16 17.00 265.00 C 17.46 266.32 18.43 268.41 19.00 270.00 C 20.34 273.76 23.00 277.17 26.00 280.00 C 37.56 290.90 54.69 283.58 72.00 285.00 C 89.31 286.42 110.03 284.35 128.00 285.00 C 145.97 285.65 165.82 284.69 184.00 285.00 C 202.18 285.31 221.53 284.38 239.00 286.00 C 241.69 285.71 242.99 284.44 244.00 282.00 C 241.64 255.92 244.88 229.20 244.00 203.00 C 243.12 176.80 244.00 150.23 244.00 124.00 C 244.00 88.17 240.77 50.67 244.00 15.00 C 242.40 5.33 222.76 11.09 214.00 10.00 C 205.24 8.91 189.32 10.40 179.00 10.00 C 168.68 9.60 154.98 9.99 144.00 10.00 C 133.02 10.01 120.19 9.56 109.00 10.00 C 97.81 10.44 85.08 8.84 74.00 10.00 C 62.92 11.16 50.66 7.26 40.00 10.00 C 38.93 10.67 39.52 10.71 38.00 11.00 M 233.00 23.00  C 233.87 32.63 237.35 52.82 225.00 52.00 C 212.65 51.18 200.40 52.43 188.00 52.00 C 175.60 51.57 162.39 52.33 150.00 52.00 C 137.61 51.67 125.28 52.46 113.00 52.00 C 100.72 51.54 88.15 52.90 76.00 52.00 C 63.85 51.10 50.52 54.33 39.00 51.00 C 33.35 49.42 28.72 42.69 29.00 37.00 C 29.29 31.30 31.74 24.24 38.70 22.70 C 45.65 21.15 55.31 22.24 63.00 22.00 C 70.69 21.76 79.07 22.08 87.00 22.00 C 94.93 21.92 104.00 21.99 112.00 22.00 C 120.00 22.01 128.06 21.89 136.00 22.00 C 143.94 22.11 152.16 21.71 160.00 22.00 C 167.84 22.29 177.47 21.36 185.00 22.00 C 192.53 22.64 202.27 20.52 209.00 22.00 C 215.73 23.48 228.56 18.38 233.00 23.00 M 41.00 63.00  C 45.03 63.27 54.24 61.24 57.00 64.00 C 61.31 68.31 56.78 79.55 58.00 86.00 C 59.22 92.45 57.57 101.83 58.00 109.00 C 58.43 116.17 58.00 125.62 58.00 133.00 C 58.00 180.00 58.00 227.00 58.00 274.00 C 52.67 274.00 47.33 274.00 42.00 274.00 C 37.51 273.76 30.59 271.57 30.00 266.00 C 24.74 259.48 30.64 246.56 29.00 238.00 C 27.36 229.44 29.75 217.32 29.00 208.00 C 28.25 198.68 29.35 187.61 29.00 178.00 C 28.65 168.39 29.15 158.78 29.00 149.00 C 28.85 139.22 29.07 128.90 29.00 119.00 C 28.93 109.10 29.04 98.95 29.00 89.00 C 28.96 79.05 29.03 68.96 29.00 59.00 C 32.84 60.86 36.51 63.24 41.00 63.00 M 233.00 104.00  C 233.00 135.33 233.00 166.67 233.00 198.00 C 233.00 205.85 233.57 215.32 233.00 223.00 C 232.43 230.68 234.45 241.98 233.00 249.00 C 231.55 256.02 236.75 269.43 232.00 274.00 C 224.40 274.68 216.63 273.71 209.00 274.00 C 201.37 274.29 193.65 273.92 186.00 274.00 C 178.35 274.08 170.65 274.07 163.00 274.00 C 155.35 273.93 146.53 274.24 139.00 274.00 C 131.47 273.76 123.16 274.62 116.00 274.00 C 108.84 273.38 99.46 275.40 93.00 274.00 C 86.54 272.60 74.29 277.43 70.00 273.00 C 69.75 272.74 70.00 272.00 70.00 272.00 C 70.00 262.46 70.84 252.50 70.00 243.00 C 67.91 219.25 68.71 193.77 70.00 170.00 C 71.06 150.47 70.00 130.57 70.00 111.00 C 70.00 104.27 68.62 94.09 69.00 88.00 C 69.39 81.90 66.09 67.91 70.00 64.00 C 74.90 59.10 87.55 64.46 95.00 63.00 C 102.45 61.54 113.70 63.63 122.00 63.00 C 130.30 62.37 140.33 63.23 149.00 63.00 C 157.67 62.77 167.16 62.97 176.00 63.00 C 184.84 63.03 194.11 62.69 203.00 63.00 C 211.89 63.31 221.14 62.20 230.00 63.00 C 235.20 62.46 232.67 77.36 233.00 82.00 C 233.33 86.64 233.00 98.69 233.00 104.00 Z"/>
</g>
<g fill="#FFFFFF" fill-opacity="0.53" stroke="None">
<path d=" M 244.00 124.00  C 244.20 121.90 245.00 118.77 245.00 116.00 C 245.00 82.80 247.98 48.05 245.00 15.00 C 245.00 15.00 244.01 15.08 244.00 15.00 C 240.77 50.67 244.00 88.17 244.00 124.00 Z"/>
</g>
<g fill="#FFFFFF" fill-opacity="0.14" stroke="None">
<path d=" M 39.00 51.00  C 38.87 50.96 39.00 50.00 39.00 50.00 C 34.00 44.41 24.74 35.94 32.92 27.92 C 41.10 19.90 47.81 23.86 59.00 23.00 C 70.19 22.14 82.58 23.38 94.00 23.00 C 105.42 22.62 117.50 23.14 129.00 23.00 C 140.50 22.86 152.53 23.00 164.00 23.00 C 175.47 23.00 187.70 22.86 199.00 23.00 C 210.30 23.14 219.50 23.00 231.00 23.00 C 232.50 23.00 233.00 23.00 233.00 23.00 C 228.56 18.38 215.73 23.48 209.00 22.00 C 202.27 20.52 192.53 22.64 185.00 22.00 C 177.47 21.36 167.84 22.29 160.00 22.00 C 152.16 21.71 143.94 22.11 136.00 22.00 C 128.06 21.89 120.00 22.01 112.00 22.00 C 104.00 21.99 94.93 21.92 87.00 22.00 C 79.07 22.08 70.69 21.76 63.00 22.00 C 55.31 22.24 45.65 21.15 38.70 22.70 C 31.74 24.24 29.29 31.30 29.00 37.00 C 28.72 42.69 33.35 49.42 39.00 51.00 Z"/>
</g>
<g fill="#000000" fill-opacity="0.00" stroke="None">
<path d=" M 39.00 50.00  C 70.87 47.12 102.97 51.49 135.00 50.00 C 167.03 48.51 199.89 51.12 232.00 50.00 C 231.61 41.73 232.27 31.94 232.00 23.00 C 219.50 23.00 210.30 23.14 199.00 23.00 C 187.70 22.86 175.47 23.00 164.00 23.00 C 152.53 23.00 140.50 22.86 129.00 23.00 C 117.50 23.14 105.42 22.62 94.00 23.00 C 82.58 23.38 70.19 22.14 59.00 23.00 C 47.81 23.86 41.10 19.90 32.92 27.92 C 24.74 35.94 34.00 44.41 39.00 50.00 Z"/>
</g>
<g fill="#FFFFFF" fill-opacity="0.42" stroke="None">
<path d=" M 39.00 50.00  C 39.00 50.00 38.87 50.96 39.00 51.00 C 50.52 54.33 63.85 51.10 76.00 52.00 C 88.15 52.90 100.72 51.54 113.00 52.00 C 125.28 52.46 137.61 51.67 150.00 52.00 C 162.39 52.33 175.60 51.57 188.00 52.00 C 200.40 52.43 212.65 51.18 225.00 52.00 C 237.35 52.82 233.87 32.63 233.00 23.00 C 233.00 23.00 232.50 23.00 232.00 23.00 C 232.27 31.94 231.61 41.73 232.00 50.00 C 199.89 51.12 167.03 48.51 135.00 50.00 C 102.97 51.49 70.87 47.12 39.00 50.00 Z"/>
</g>
<g fill="#FFFFFF" fill-opacity="0.11" stroke="None">
<path d=" M 16.00 67.00  C 16.00 66.96 17.00 67.00 17.00 67.00 C 17.00 55.67 17.00 44.33 17.00 33.00 C 14.09 36.93 16.59 44.86 16.00 50.00 C 15.41 55.14 16.00 61.73 16.00 67.00 Z"/>
</g>
<g fill="#FFFFFF" fill-opacity="0.07" stroke="None">
<path d=" M 30.00 266.00  C 30.20 266.24 31.00 266.00 31.00 266.00 C 25.25 244.95 31.99 221.10 30.00 199.00 C 28.01 176.90 31.03 153.48 30.00 131.00 C 28.97 108.52 30.77 84.61 30.00 62.00 C 34.04 61.31 36.81 65.11 41.00 64.00 C 40.96 64.00 41.00 63.00 41.00 63.00 C 36.51 63.24 32.84 60.86 29.00 59.00 C 29.03 68.96 28.96 79.05 29.00 89.00 C 29.04 98.95 28.93 109.10 29.00 119.00 C 29.07 128.90 28.85 139.22 29.00 149.00 C 29.15 158.78 28.65 168.39 29.00 178.00 C 29.35 187.61 28.25 198.68 29.00 208.00 C 29.75 217.32 27.36 229.44 29.00 238.00 C 30.64 246.56 24.74 259.48 30.00 266.00 Z"/>
</g>
<g fill="#000000" fill-opacity="0.00" stroke="None">
<path d=" M 31.00 266.00  C 34.02 270.32 37.23 271.63 42.00 273.00 C 46.96 272.55 52.03 273.34 57.00 273.00 C 57.01 226.79 56.92 179.52 57.00 133.00 C 56.67 110.04 57.02 87.65 57.00 64.00 C 51.63 64.29 46.70 64.31 41.00 64.00 C 36.81 65.11 34.04 61.31 30.00 62.00 C 30.77 84.61 28.97 108.52 30.00 131.00 C 31.03 153.48 28.01 176.90 30.00 199.00 C 31.99 221.10 25.25 244.95 31.00 266.00 Z"/>
</g>
<g fill="#FFFFFF" fill-opacity="0.33" stroke="None">
<path d=" M 41.00 64.00  C 46.70 64.31 51.63 64.29 57.00 64.00 C 54.24 61.24 45.03 63.27 41.00 63.00 C 41.00 63.00 40.96 64.00 41.00 64.00 Z"/>
</g>
<g fill="#FFFFFF" fill-opacity="0.41" stroke="None">
<path d=" M 70.00 64.00  C 94.59 63.13 121.60 65.24 148.00 64.00 C 174.40 62.76 203.50 66.40 230.00 64.00 C 229.81 63.91 230.00 63.00 230.00 63.00 C 221.14 62.20 211.89 63.31 203.00 63.00 C 194.11 62.69 184.84 63.03 176.00 63.00 C 167.16 62.97 157.67 62.77 149.00 63.00 C 140.33 63.23 130.30 62.37 122.00 63.00 C 113.70 63.63 102.45 61.54 95.00 63.00 C 87.55 64.46 74.90 59.10 70.00 64.00 Z"/>
</g>
<g fill="#FFFFFF" fill-opacity="0.52" stroke="None">
<path d=" M 230.00 64.00  C 234.31 65.96 231.47 74.61 232.00 79.00 C 232.53 83.39 232.00 91.29 232.00 96.00 C 232.00 98.77 232.80 101.96 233.00 104.00 C 233.00 98.69 233.33 86.64 233.00 82.00 C 232.67 77.36 235.20 62.46 230.00 63.00 C 230.00 63.00 229.81 63.91 230.00 64.00 Z"/>
</g>
<g fill="#FFFFFF" fill-opacity="0.04" stroke="None">
<path d=" M 57.00 133.00  C 57.18 133.24 58.00 133.00 58.00 133.00 C 58.00 125.62 58.43 116.17 58.00 109.00 C 57.57 101.83 59.22 92.45 58.00 86.00 C 56.78 79.55 61.31 68.31 57.00 64.00 C 57.02 87.65 56.67 110.04 57.00 133.00 Z"/>
</g>
<g fill="#000000" fill-opacity="0.00" stroke="None">
<path d=" M 70.00 111.00  C 71.82 129.77 71.00 150.48 71.00 170.00 C 71.00 194.33 71.00 218.67 71.00 243.00 C 71.00 249.91 73.87 266.77 70.00 272.00 C 70.00 272.00 69.75 272.74 70.00 273.00 C 123.56 277.84 178.44 268.16 232.00 273.00 C 232.00 250.77 231.26 227.55 232.00 206.00 C 229.66 171.07 228.63 130.81 232.00 96.00 C 232.00 91.29 232.53 83.39 232.00 79.00 C 231.47 74.61 234.31 65.96 230.00 64.00 C 203.50 66.40 174.40 62.76 148.00 64.00 C 121.60 65.24 94.59 63.13 70.00 64.00 C 66.09 67.91 69.39 81.90 69.00 88.00 C 68.62 94.09 70.00 104.27 70.00 111.00 M 176.00 105.00  C 179.05 105.00 182.59 103.15 184.00 105.00 C 184.41 105.11 185.17 105.84 186.00 106.00 C 196.52 105.42 213.56 124.16 204.00 136.00 C 202.06 142.19 195.47 149.17 190.00 149.00 C 188.53 149.37 189.07 149.25 188.00 150.00 C 184.58 153.79 189.43 164.51 188.78 171.22 C 188.13 177.94 192.18 189.27 184.00 192.00 C 176.49 194.50 165.36 192.37 157.00 193.00 C 148.64 193.63 137.31 192.16 129.78 193.78 C 122.25 195.40 108.56 190.47 114.00 182.00 C 114.56 181.13 114.84 181.32 115.00 180.00 C 114.64 176.40 114.41 172.60 115.00 169.00 C 115.31 167.13 115.18 166.35 115.00 164.00 C 114.68 159.69 115.24 155.32 115.00 151.00 C 114.12 151.01 110.08 149.90 112.00 149.00 C 111.39 148.68 110.81 148.34 110.00 148.00 C 102.89 147.79 99.15 139.68 97.07 131.93 C 95.00 124.17 99.31 116.87 105.25 110.25 C 111.19 103.63 122.09 106.04 129.02 104.98 C 135.96 103.91 140.80 91.73 150.00 94.00 C 159.20 96.27 166.94 95.28 171.00 105.00 C 172.67 105.00 174.33 105.00 176.00 105.00 M 196.00 230.00  C 192.41 231.57 185.55 228.06 180.00 229.00 C 174.45 229.94 165.83 229.00 160.00 229.00 C 158.58 229.45 160.48 229.97 158.00 230.00 C 145.16 232.21 129.72 230.22 117.00 230.00 C 113.86 230.25 110.68 232.09 108.00 230.00 C 107.68 230.24 107.00 230.00 107.00 230.00 C 100.55 228.28 102.51 218.02 109.00 218.00 C 117.55 217.22 126.72 217.26 135.02 217.98 C 143.33 218.69 154.92 218.82 162.67 217.67 C 170.42 216.52 178.67 219.85 186.07 217.07 C 193.47 214.30 205.81 225.72 196.00 230.00 Z"/>
</g>
<g fill="#FFFFFF" fill-opacity="0.28" stroke="None">
<path d=" M 16.00 126.00  C 16.29 126.25 17.00 126.00 17.00 126.00 C 17.00 106.33 17.00 86.67 17.00 67.00 C 17.00 67.00 16.00 66.96 16.00 67.00 C 16.00 73.41 15.32 82.89 16.00 89.00 C 16.68 95.11 14.48 104.98 15.22 109.78 C 15.96 114.58 13.96 124.29 16.00 126.00 Z"/>
</g>
<g fill="#F8F8F8" fill-opacity="0.27" stroke="None">
<path d=" M 110.00 148.00  C 84.10 137.14 105.66 92.75 131.00 107.00 C 138.79 90.58 163.32 91.80 172.00 107.00 C 173.05 105.63 175.44 106.77 176.00 105.00 C 174.33 105.00 172.67 105.00 171.00 105.00 C 166.94 95.28 159.20 96.27 150.00 94.00 C 140.80 91.73 135.96 103.91 129.02 104.98 C 122.09 106.04 111.19 103.63 105.25 110.25 C 99.31 116.87 95.00 124.17 97.07 131.93 C 99.15 139.68 102.89 147.79 110.00 148.00 Z"/>
</g>
<g fill="#000000" fill-opacity="0.97" stroke="None">
<path d=" M 110.00 148.00  C 110.81 148.34 111.39 148.68 112.00 149.00 C 118.60 152.41 115.15 158.45 115.00 164.00 C 115.18 166.35 115.31 167.13 115.00 169.00 C 114.85 172.61 115.44 176.41 115.00 180.00 C 114.84 181.32 114.56 181.13 114.00 182.00 C 111.44 191.79 122.33 193.21 130.00 192.00 C 137.67 190.79 148.96 193.42 157.00 192.00 C 165.04 190.58 176.23 194.59 184.00 192.00 C 192.35 189.22 185.18 177.76 187.00 172.00 C 188.82 166.24 182.38 153.97 188.00 150.00 C 189.07 149.25 188.53 149.37 190.00 149.00 C 196.87 147.30 199.45 140.78 203.00 136.00 C 204.00 122.58 201.63 108.97 186.00 106.00 C 185.17 105.84 184.41 105.11 184.00 105.00 C 181.95 104.47 178.11 104.70 176.00 105.00 C 175.44 106.77 173.05 105.63 172.00 107.00 C 163.32 91.80 138.79 90.58 131.00 107.00 C 105.66 92.75 84.10 137.14 110.00 148.00 M 155.00 107.00  C 161.97 109.58 165.08 129.34 174.23 119.23 C 183.38 109.12 197.78 126.44 191.00 133.00 C 190.45 138.12 182.38 140.69 178.00 140.00 C 173.85 142.90 172.69 147.90 174.00 153.00 C 174.54 153.87 174.84 153.68 175.00 155.00 C 176.03 163.39 174.93 171.67 176.00 180.00 C 161.05 181.76 152.60 177.66 137.00 180.00 C 121.40 182.34 127.78 164.59 128.00 153.00 C 128.00 140.40 123.24 140.83 113.92 137.08 C 104.60 133.33 110.94 119.18 117.00 118.00 C 117.48 117.91 118.00 118.00 118.00 118.00 C 120.58 116.09 122.75 117.88 125.00 118.00 C 126.75 117.80 125.58 117.28 127.00 118.00 C 130.84 119.95 137.02 124.79 139.30 118.30 C 141.58 111.81 141.68 108.92 148.00 107.00 C 149.82 106.45 153.18 106.33 155.00 107.00 Z"/>
</g>
<g fill="#FFFFFF" fill-opacity="0.32" stroke="None">
<path d=" M 232.00 206.00  C 232.09 203.29 232.81 200.00 233.00 198.00 C 233.00 166.67 233.00 135.33 233.00 104.00 C 232.80 101.96 232.00 98.77 232.00 96.00 C 228.63 130.81 229.66 171.07 232.00 206.00 Z"/>
</g>
<g fill="#FFFFFF" fill-opacity="0.10" stroke="None">
<path d=" M 176.00 105.00  C 178.11 104.70 181.95 104.47 184.00 105.00 C 182.59 103.15 179.05 105.00 176.00 105.00 Z"/>
</g>
<g fill="#FFFFFF" fill-opacity="0.33" stroke="None">
<path d=" M 186.00 106.00  C 201.63 108.97 204.00 122.58 203.00 136.00 C 203.18 135.76 204.00 136.00 204.00 136.00 C 213.56 124.16 196.52 105.42 186.00 106.00 Z"/>
</g>
<g fill="#000000" fill-opacity="0.00" stroke="None">
<path d=" M 148.00 107.00  C 143.21 108.89 142.80 112.87 139.69 119.69 C 136.59 126.51 128.88 119.56 127.00 118.00 C 125.58 117.28 126.75 117.80 125.00 118.00 C 122.74 118.26 120.28 118.00 118.00 118.00 C 118.00 118.00 117.48 117.91 117.00 118.00 C 112.71 120.74 105.24 134.59 116.08 136.92 C 126.92 139.24 129.65 141.00 129.00 153.00 C 128.53 161.70 127.64 170.10 128.00 179.00 C 143.67 179.00 159.33 179.00 175.00 179.00 C 175.85 170.81 171.23 161.49 175.00 155.00 C 174.84 153.68 174.54 153.87 174.00 153.00 C 171.59 149.15 171.58 139.69 178.00 139.00 C 182.73 136.51 186.43 138.11 190.00 133.00 C 195.34 122.45 182.18 112.66 172.92 120.92 C 163.66 129.18 158.89 109.07 155.00 107.00 C 153.18 106.33 149.82 106.45 148.00 107.00 Z"/>
</g>
<g fill="#FFFFFF" fill-opacity="0.13" stroke="None">
<path d=" M 127.00 118.00  C 128.88 119.56 136.59 126.51 139.69 119.69 C 142.80 112.87 143.21 108.89 148.00 107.00 C 141.68 108.92 141.58 111.81 139.30 118.30 C 137.02 124.79 130.84 119.95 127.00 118.00 Z"/>
</g>
<g fill="#FFFFFF" fill-opacity="0.15" stroke="None">
<path d=" M 190.00 133.00  C 190.16 132.77 191.00 133.00 191.00 133.00 C 197.78 126.44 183.38 109.12 174.23 119.23 C 165.08 129.34 161.97 109.58 155.00 107.00 C 158.89 109.07 163.66 129.18 172.92 120.92 C 182.18 112.66 195.34 122.45 190.00 133.00 Z"/>
</g>
<g fill="#FFFFFF" fill-opacity="0.04" stroke="None">
<path d=" M 70.00 170.00  C 70.00 169.99 71.00 170.00 71.00 170.00 C 71.00 150.48 71.82 129.77 70.00 111.00 C 70.00 130.57 71.06 150.47 70.00 170.00 Z"/>
</g>
<g fill="#FFFFFF" fill-opacity="0.35" stroke="None">
<path d=" M 244.00 124.00  C 244.00 150.23 243.12 176.80 244.00 203.00 C 244.88 229.20 241.64 255.92 244.00 282.00 C 244.07 281.82 245.00 282.00 245.00 282.00 C 248.17 255.13 245.77 226.36 246.00 199.00 C 246.23 171.64 247.57 142.56 245.00 116.00 C 245.00 118.77 244.20 121.90 244.00 124.00 Z"/>
</g>
<g fill="#FFFFFF" fill-opacity="0.12" stroke="None">
<path d=" M 118.00 118.00  C 120.28 118.00 122.74 118.26 125.00 118.00 C 122.75 117.88 120.58 116.09 118.00 118.00 Z"/>
</g>
<g fill="#FFFFFF" fill-opacity="0.30" stroke="None">
<path d=" M 128.00 153.00  C 128.00 152.96 129.00 153.00 129.00 153.00 C 129.65 141.00 126.92 139.24 116.08 136.92 C 105.24 134.59 112.71 120.74 117.00 118.00 C 110.94 119.18 104.60 133.33 113.92 137.08 C 123.24 140.83 128.00 140.40 128.00 153.00 Z"/>
</g>
<g fill="#FFFFFF" fill-opacity="0.40" stroke="None">
<path d=" M 16.00 203.00  C 16.10 202.80 17.00 203.00 17.00 203.00 C 17.00 177.33 17.00 151.67 17.00 126.00 C 17.00 126.00 16.29 126.25 16.00 126.00 C 16.52 150.40 13.47 179.02 16.00 203.00 Z"/>
</g>
<g fill="#FFFFFF" fill-opacity="0.15" stroke="None">
<path d=" M 42.00 273.00  C 42.13 273.04 42.00 274.00 42.00 274.00 C 47.33 274.00 52.67 274.00 58.00 274.00 C 58.00 227.00 58.00 180.00 58.00 133.00 C 58.00 133.00 57.18 133.24 57.00 133.00 C 56.92 179.52 57.01 226.79 57.00 273.00 C 52.03 273.34 46.96 272.55 42.00 273.00 Z"/>
</g>
<g fill="#FFFFFF" fill-opacity="0.32" stroke="None">
<path d=" M 178.00 139.00  C 177.79 139.11 178.00 140.00 178.00 140.00 C 182.38 140.69 190.45 138.12 191.00 133.00 C 191.00 133.00 190.16 132.77 190.00 133.00 C 186.43 138.11 182.73 136.51 178.00 139.00 Z"/>
</g>
<g fill="#FFFFFF" fill-opacity="0.16" stroke="None">
<path d=" M 190.00 149.00  C 195.47 149.17 202.06 142.19 204.00 136.00 C 204.00 136.00 203.18 135.76 203.00 136.00 C 199.45 140.78 196.87 147.30 190.00 149.00 Z"/>
</g>
<g fill="#FFFFFF" fill-opacity="0.13" stroke="None">
<path d=" M 174.00 153.00  C 172.69 147.90 173.85 142.90 178.00 140.00 C 178.00 140.00 177.79 139.11 178.00 139.00 C 171.58 139.69 171.59 149.15 174.00 153.00 Z"/>
</g>
<g fill="#FFFFFF" fill-opacity="0.15" stroke="None">
<path d=" M 115.00 164.00  C 115.15 158.45 118.60 152.41 112.00 149.00 C 110.08 149.90 114.12 151.01 115.00 151.00 C 115.24 155.32 114.68 159.69 115.00 164.00 Z"/>
</g>
<g fill="#FFFFFF" fill-opacity="0.30" stroke="None">
<path d=" M 184.00 192.00  C 192.18 189.27 188.13 177.94 188.78 171.22 C 189.43 164.51 184.58 153.79 188.00 150.00 C 182.38 153.97 188.82 166.24 187.00 172.00 C 185.18 177.76 192.35 189.22 184.00 192.00 Z"/>
</g>
<g fill="#FFFFFF" fill-opacity="0.19" stroke="None">
<path d=" M 175.00 155.00  C 171.23 161.49 175.85 170.81 175.00 179.00 C 159.33 179.00 143.67 179.00 128.00 179.00 C 127.64 170.10 128.53 161.70 129.00 153.00 C 129.00 153.00 128.00 152.96 128.00 153.00 C 127.78 164.59 121.40 182.34 137.00 180.00 C 152.60 177.66 161.05 181.76 176.00 180.00 C 174.93 171.67 176.03 163.39 175.00 155.00 Z"/>
</g>
<g fill="#FFFFFF" fill-opacity="0.18" stroke="None">
<path d=" M 115.00 180.00  C 115.44 176.41 114.85 172.61 115.00 169.00 C 114.41 172.60 114.64 176.40 115.00 180.00 Z"/>
</g>
<g fill="#FFFFFF" fill-opacity="0.48" stroke="None">
<path d=" M 70.00 243.00  C 70.11 243.21 71.00 243.00 71.00 243.00 C 71.00 218.67 71.00 194.33 71.00 170.00 C 71.00 170.00 70.00 169.99 70.00 170.00 C 68.71 193.77 67.91 219.25 70.00 243.00 Z"/>
</g>
<g fill="#FFFFFF" fill-opacity="0.09" stroke="None">
<path d=" M 184.00 192.00  C 176.23 194.59 165.04 190.58 157.00 192.00 C 148.96 193.42 137.67 190.79 130.00 192.00 C 122.33 193.21 111.44 191.79 114.00 182.00 C 108.56 190.47 122.25 195.40 129.78 193.78 C 137.31 192.16 148.64 193.63 157.00 193.00 C 165.36 192.37 176.49 194.50 184.00 192.00 Z"/>
</g>
<g fill="#FFFFFF" fill-opacity="0.44" stroke="None">
<path d=" M 232.00 206.00  C 231.26 227.55 232.00 250.77 232.00 273.00 C 232.00 273.50 232.00 274.00 232.00 274.00 C 236.75 269.43 231.55 256.02 233.00 249.00 C 234.45 241.98 232.43 230.68 233.00 223.00 C 233.57 215.32 233.00 205.85 233.00 198.00 C 232.81 200.00 232.09 203.29 232.00 206.00 Z"/>
</g>
<g fill="#FFFFFF" fill-opacity="0.22" stroke="None">
<path d=" M 17.00 265.00  C 14.97 255.16 17.76 244.08 17.00 234.00 C 16.24 223.92 17.00 213.14 17.00 203.00 C 17.00 203.00 16.10 202.80 16.00 203.00 C 12.41 210.04 16.86 224.20 16.00 233.00 C 15.14 241.80 14.24 257.07 17.00 265.00 Z"/>
</g>
<g fill="#FFFFFF" fill-opacity="0.37" stroke="None">
<path d=" M 109.00 218.00  C 108.95 218.00 109.00 219.00 109.00 219.00 C 117.04 219.73 125.96 219.12 134.00 219.00 C 142.04 218.88 152.26 219.94 160.00 219.00 C 167.74 218.06 178.13 221.53 185.00 219.00 C 191.87 216.47 204.00 224.32 196.00 230.00 C 205.81 225.72 193.47 214.30 186.07 217.07 C 178.67 219.85 170.42 216.52 162.67 217.67 C 154.92 218.82 143.33 218.69 135.02 217.98 C 126.72 217.26 117.55 217.22 109.00 218.00 Z"/>
</g>
<g fill="#FFFFFF" fill-opacity="0.22" stroke="None">
<path d=" M 107.00 230.00  C 103.49 225.98 103.18 220.87 109.00 219.00 C 109.00 219.00 108.95 218.00 109.00 218.00 C 102.51 218.02 100.55 228.28 107.00 230.00 Z"/>
</g>
<g fill="#000000" fill-opacity="0.99" stroke="None">
<path d=" M 107.00 230.00  C 107.00 230.00 107.68 230.24 108.00 230.00 C 113.75 225.75 125.39 229.98 133.00 229.00 C 140.61 228.02 152.04 229.00 160.00 229.00 C 165.83 229.00 174.45 229.94 180.00 229.00 C 185.55 228.06 192.41 231.57 196.00 230.00 C 204.00 224.32 191.87 216.47 185.00 219.00 C 178.13 221.53 167.74 218.06 160.00 219.00 C 152.26 219.94 142.04 218.88 134.00 219.00 C 125.96 219.12 117.04 219.73 109.00 219.00 C 103.18 220.87 103.49 225.98 107.00 230.00 Z"/>
</g>
<g fill="#050505" fill-opacity="0.62" stroke="None">
<path d=" M 108.00 230.00  C 110.68 232.09 113.86 230.25 117.00 230.00 C 130.51 228.93 144.44 230.18 158.00 230.00 C 160.48 229.97 158.58 229.45 160.00 229.00 C 152.04 229.00 140.61 228.02 133.00 229.00 C 125.39 229.98 113.75 225.75 108.00 230.00 Z"/>
</g>
<g fill="#FFFFFF" fill-opacity="0.04" stroke="None">
<path d=" M 158.00 230.00  C 144.44 230.18 130.51 228.93 117.00 230.00 C 129.72 230.22 145.16 232.21 158.00 230.00 Z"/>
</g>
<g fill="#FFFFFF" fill-opacity="0.03" stroke="None">
<path d=" M 70.00 272.00  C 73.87 266.77 71.00 249.91 71.00 243.00 C 71.00 243.00 70.11 243.21 70.00 243.00 C 70.84 252.50 70.00 262.46 70.00 272.00 Z"/>
</g>
<g fill="#FFFFFF" fill-opacity="0.38" stroke="None">
<path d=" M 42.00 274.00  C 42.00 274.00 42.13 273.04 42.00 273.00 C 37.23 271.63 34.02 270.32 31.00 266.00 C 31.00 266.00 30.20 266.24 30.00 266.00 C 30.59 271.57 37.51 273.76 42.00 274.00 Z"/>
</g>
<g fill="#ADADAD" fill-opacity="0.15" stroke="None">
<path d=" M 26.00 280.00  C 23.00 277.17 20.34 273.76 19.00 270.00 C 19.94 274.73 21.97 277.58 26.00 280.00 Z"/>
</g>
<g fill="#FFFFFF" fill-opacity="0.22" stroke="None">
<path d=" M 232.00 274.00  C 232.00 274.00 232.00 273.50 232.00 273.00 C 178.44 268.16 123.56 277.84 70.00 273.00 C 74.29 277.43 86.54 272.60 93.00 274.00 C 99.46 275.40 108.84 273.38 116.00 274.00 C 123.16 274.62 131.47 273.76 139.00 274.00 C 146.53 274.24 155.35 273.93 163.00 274.00 C 170.65 274.07 178.35 274.08 186.00 274.00 C 193.65 273.92 201.37 274.29 209.00 274.00 C 216.63 273.71 224.40 274.68 232.00 274.00 Z"/>
</g>
<g fill="#FFFFFF" fill-opacity="0.11" stroke="None">
<path d=" M 239.00 286.00  C 240.84 286.17 245.11 286.00 245.00 282.00 C 245.00 282.00 244.07 281.82 244.00 282.00 C 242.99 284.44 241.69 285.71 239.00 286.00 Z"/>
</g>
</svg>
